<?xml version="1.0" encoding="UTF-8" standalone="no"?>
<!DOCTYPE svg PUBLIC "-//W3C//DTD SVG 1.1//EN"
 "http://www.w3.org/Graphics/SVG/1.1/DTD/svg11.dtd">
<!-- Generated by graphviz version 2.40.1 (20161225.0304)
 -->
<!-- Title: G Pages: 1 -->
<svg width="655pt" height="273pt"
 viewBox="0.00 0.00 655.00 273.00" xmlns="http://www.w3.org/2000/svg" xmlns:xlink="http://www.w3.org/1999/xlink">
<g id="graph0" class="graph" transform="scale(1 1) rotate(0) translate(4 269)">
<title>G</title>
<polygon fill="#ffffff" stroke="transparent" points="-4,4 -4,-269 651,-269 651,4 -4,4"/>
<g id="clust1" class="cluster">
<title>cluster_G</title>
<path fill="#808080" fill-opacity="0.094118" stroke="#000000" d="M20,-8C20,-8 627,-8 627,-8 633,-8 639,-14 639,-20 639,-20 639,-245 639,-245 639,-251 633,-257 627,-257 627,-257 20,-257 20,-257 14,-257 8,-251 8,-245 8,-245 8,-20 8,-20 8,-14 14,-8 20,-8"/>
</g>
<g id="clust2" class="cluster">
<title>cluster_BacterialTyper__config__set_config</title>
<path fill="#808080" fill-opacity="0.094118" stroke="#000000" d="M397,-99C397,-99 569,-99 569,-99 575,-99 581,-105 581,-111 581,-111 581,-162 581,-162 581,-168 575,-174 569,-174 569,-174 397,-174 397,-174 391,-174 385,-168 385,-162 385,-162 385,-111 385,-111 385,-105 391,-99 397,-99"/>
<text text-anchor="middle" x="483" y="-158.8" font-family="Times,serif" font-size="14.00" fill="#000000">BacterialTyper.config.set_config</text>
</g>
<g id="clust3" class="cluster">
<title>cluster_BacterialTyper__scripts__annotation</title>
<path fill="#808080" fill-opacity="0.094118" stroke="#000000" d="M28,-99C28,-99 365,-99 365,-99 371,-99 377,-105 377,-111 377,-111 377,-237 377,-237 377,-243 371,-249 365,-249 365,-249 28,-249 28,-249 22,-249 16,-243 16,-237 16,-237 16,-111 16,-111 16,-105 22,-99 28,-99"/>
<text text-anchor="middle" x="196.5" y="-233.8" font-family="Times,serif" font-size="14.00" fill="#000000">BacterialTyper.scripts.annotation</text>
</g>
<g id="clust4" class="cluster">
<title>cluster_BacterialTyper__scripts__functions</title>
<path fill="#808080" fill-opacity="0.094118" stroke="#000000" d="M195,-16C195,-16 619,-16 619,-16 625,-16 631,-22 631,-28 631,-28 631,-79 631,-79 631,-85 625,-91 619,-91 619,-91 195,-91 195,-91 189,-91 183,-85 183,-79 183,-79 183,-28 183,-28 183,-22 189,-16 195,-16"/>
<text text-anchor="middle" x="407" y="-75.8" font-family="Times,serif" font-size="14.00" fill="#000000">BacterialTyper.scripts.functions</text>
</g>
<!-- BacterialTyper__config__set_config__get_exe -->
<g id="node1" class="node">
<title>BacterialTyper__config__set_config__get_exe</title>
<ellipse fill="#ff8e65" fill-opacity="0.698039" stroke="#000000" cx="431" cy="-125" rx="38.1938" ry="18"/>
<text text-anchor="middle" x="431" y="-121.3" font-family="Times,serif" font-size="14.00" fill="#000000">get_exe</text>
</g>
<!-- BacterialTyper__scripts__annotation__help_options -->
<g id="node2" class="node">
<title>BacterialTyper__scripts__annotation__help_options</title>
<ellipse fill="#65e0ff" fill-opacity="0.698039" stroke="#000000" cx="205" cy="-125" rx="55.7903" ry="18"/>
<text text-anchor="middle" x="205" y="-121.3" font-family="Times,serif" font-size="14.00" fill="#000000">help_options</text>
</g>
<!-- BacterialTyper__scripts__annotation__main -->
<g id="node3" class="node">
<title>BacterialTyper__scripts__annotation__main</title>
<ellipse fill="#65e0ff" fill-opacity="0.698039" stroke="#000000" cx="180" cy="-200" rx="28.6953" ry="18"/>
<text text-anchor="middle" x="180" y="-196.3" font-family="Times,serif" font-size="14.00" fill="#000000">main</text>
</g>
<!-- BacterialTyper__scripts__annotation__main&#45;&gt;BacterialTyper__scripts__annotation__help_options -->
<g id="edge9" class="edge">
<title>BacterialTyper__scripts__annotation__main&#45;&gt;BacterialTyper__scripts__annotation__help_options</title>
<path fill="none" stroke="#000000" d="M180,-181.8446C180,-181.8446 180,-151.2017 180,-151.2017"/>
<polygon fill="#000000" stroke="#000000" points="183.5001,-151.2017 180,-141.2017 176.5001,-151.2018 183.5001,-151.2017"/>
</g>
<!-- BacterialTyper__scripts__annotation__prokka_call -->
<g id="node6" class="node">
<title>BacterialTyper__scripts__annotation__prokka_call</title>
<ellipse fill="#65e0ff" fill-opacity="0.698039" stroke="#000000" cx="79" cy="-125" rx="51.9908" ry="18"/>
<text text-anchor="middle" x="79" y="-121.3" font-family="Times,serif" font-size="14.00" fill="#000000">prokka_call</text>
</g>
<!-- BacterialTyper__scripts__annotation__main&#45;&gt;BacterialTyper__scripts__annotation__prokka_call -->
<g id="edge8" class="edge">
<title>BacterialTyper__scripts__annotation__main&#45;&gt;BacterialTyper__scripts__annotation__prokka_call</title>
<path fill="none" stroke="#000000" d="M152.7253,-206C145.057,-206 138.7651,-206 138.7651,-206 138.7651,-206 138.7651,-125 138.7651,-125 138.7651,-125 138.0323,-125 138.0323,-125"/>
<polygon fill="#000000" stroke="#000000" points="141.4368,-121.5002 131.4367,-125 141.4367,-128.5002 141.4368,-121.5002"/>
</g>
<!-- BacterialTyper__scripts__annotation__module_call -->
<g id="node4" class="node">
<title>BacterialTyper__scripts__annotation__module_call</title>
<ellipse fill="#65e0ff" fill-opacity="0.698039" stroke="#000000" cx="79" cy="-200" rx="54.6905" ry="18"/>
<text text-anchor="middle" x="79" y="-196.3" font-family="Times,serif" font-size="14.00" fill="#000000">module_call</text>
</g>
<!-- BacterialTyper__scripts__annotation__module_call&#45;&gt;BacterialTyper__config__set_config__get_exe -->
<g id="edge5" class="edge">
<title>BacterialTyper__scripts__annotation__module_call&#45;&gt;BacterialTyper__config__set_config__get_exe</title>
<path fill="none" stroke="#000000" d="M79,-181.8495C79,-169.7292 79,-156 79,-156 79,-156 431,-156 431,-156 431,-156 431,-153.0328 431,-153.0328"/>
<polygon fill="#000000" stroke="#000000" points="434.5001,-153.0328 431,-143.0328 427.5001,-153.0329 434.5001,-153.0328"/>
</g>
<!-- BacterialTyper__scripts__annotation__module_call&#45;&gt;BacterialTyper__scripts__annotation__prokka_call -->
<g id="edge3" class="edge">
<title>BacterialTyper__scripts__annotation__module_call&#45;&gt;BacterialTyper__scripts__annotation__prokka_call</title>
<path fill="none" stroke="#000000" d="M53.0023,-184.0944C53.0023,-184.0944 53.0023,-150.6255 53.0023,-150.6255"/>
<polygon fill="#000000" stroke="#000000" points="56.5024,-150.6254 53.0023,-140.6255 49.5024,-150.6255 56.5024,-150.6254"/>
</g>
<!-- BacterialTyper__scripts__functions__print_time_stamp -->
<g id="node7" class="node">
<title>BacterialTyper__scripts__functions__print_time_stamp</title>
<ellipse fill="#a365ff" fill-opacity="0.698039" stroke="#000000" cx="550" cy="-42" rx="73.387" ry="18"/>
<text text-anchor="middle" x="550" y="-38.3" font-family="Times,serif" font-size="14.00" fill="#000000">print_time_stamp</text>
</g>
<!-- BacterialTyper__scripts__annotation__module_call&#45;&gt;BacterialTyper__scripts__functions__print_time_stamp -->
<g id="edge4" class="edge">
<title>BacterialTyper__scripts__annotation__module_call&#45;&gt;BacterialTyper__scripts__functions__print_time_stamp</title>
<path fill="none" stroke="#000000" d="M104.9977,-184.1367C104.9977,-176.5097 104.9977,-169 104.9977,-169 104.9977,-169 550,-169 550,-169 550,-169 550,-70.196 550,-70.196"/>
<polygon fill="#000000" stroke="#000000" points="553.5001,-70.196 550,-60.196 546.5001,-70.196 553.5001,-70.196"/>
</g>
<!-- BacterialTyper__scripts__functions__read_time_stamp -->
<g id="node8" class="node">
<title>BacterialTyper__scripts__functions__read_time_stamp</title>
<ellipse fill="#a365ff" fill-opacity="0.698039" stroke="#000000" cx="263" cy="-42" rx="72.2875" ry="18"/>
<text text-anchor="middle" x="263" y="-38.3" font-family="Times,serif" font-size="14.00" fill="#000000">read_time_stamp</text>
</g>
<!-- BacterialTyper__scripts__annotation__module_call&#45;&gt;BacterialTyper__scripts__functions__read_time_stamp -->
<g id="edge6" class="edge">
<title>BacterialTyper__scripts__annotation__module_call&#45;&gt;BacterialTyper__scripts__functions__read_time_stamp</title>
<path fill="none" stroke="#000000" d="M130.4804,-194C138.3616,-194 143.935,-194 143.935,-194 143.935,-194 143.935,-42 143.935,-42 143.935,-42 180.6509,-42 180.6509,-42"/>
<polygon fill="#000000" stroke="#000000" points="180.651,-45.5001 190.6509,-42 180.6509,-38.5001 180.651,-45.5001"/>
</g>
<!-- BacterialTyper__scripts__annotation__print_list_prokka -->
<g id="node5" class="node">
<title>BacterialTyper__scripts__annotation__print_list_prokka</title>
<ellipse fill="#65e0ff" fill-opacity="0.698039" stroke="#000000" cx="298" cy="-200" rx="71.4873" ry="18"/>
<text text-anchor="middle" x="298" y="-196.3" font-family="Times,serif" font-size="14.00" fill="#000000">print_list_prokka</text>
</g>
<!-- BacterialTyper__scripts__annotation__print_list_prokka&#45;&gt;BacterialTyper__config__set_config__get_exe -->
<g id="edge1" class="edge">
<title>BacterialTyper__scripts__annotation__print_list_prokka&#45;&gt;BacterialTyper__config__set_config__get_exe</title>
<path fill="none" stroke="#000000" d="M365.4589,-193.8624C365.4589,-175.9502 365.4589,-125 365.4589,-125 365.4589,-125 382.4954,-125 382.4954,-125"/>
<polygon fill="#000000" stroke="#000000" points="382.4954,-128.5001 392.4954,-125 382.4953,-121.5001 382.4954,-128.5001"/>
</g>
<!-- BacterialTyper__scripts__functions__system_call -->
<g id="node9" class="node">
<title>BacterialTyper__scripts__functions__system_call</title>
<ellipse fill="#a365ff" fill-opacity="0.698039" stroke="#000000" cx="406" cy="-42" rx="52.7911" ry="18"/>
<text text-anchor="middle" x="406" y="-38.3" font-family="Times,serif" font-size="14.00" fill="#000000">system_call</text>
</g>
<!-- BacterialTyper__scripts__annotation__print_list_prokka&#45;&gt;BacterialTyper__scripts__functions__system_call -->
<g id="edge2" class="edge">
<title>BacterialTyper__scripts__annotation__print_list_prokka&#45;&gt;BacterialTyper__scripts__functions__system_call</title>
<path fill="none" stroke="#000000" d="M361.4242,-191.5052C361.4242,-191.5052 361.4242,-61.7272 361.4242,-61.7272"/>
<polygon fill="#000000" stroke="#000000" points="364.9243,-61.7272 361.4242,-51.7272 357.9243,-61.7273 364.9243,-61.7272"/>
</g>
<!-- BacterialTyper__scripts__annotation__prokka_call&#45;&gt;BacterialTyper__scripts__functions__system_call -->
<g id="edge7" class="edge">
<title>BacterialTyper__scripts__annotation__prokka_call&#45;&gt;BacterialTyper__scripts__functions__system_call</title>
<path fill="none" stroke="#000000" d="M79,-106.9445C79,-95.561 79,-83 79,-83 79,-83 357.3894,-83 357.3894,-83 357.3894,-83 357.3894,-59.1417 357.3894,-59.1417"/>
<polygon fill="#000000" stroke="#000000" points="360.8895,-59.1416 357.3894,-49.1417 353.8895,-59.1417 360.8895,-59.1416"/>
</g>
</g>
</svg>
