<?xml version="1.0" encoding="UTF-8" standalone="no"?>
<!DOCTYPE svg PUBLIC "-//W3C//DTD SVG 1.1//EN"
 "http://www.w3.org/Graphics/SVG/1.1/DTD/svg11.dtd">
<!-- Generated by graphviz version 2.40.1 (20161225.0304)
 -->
<!-- Title: G Pages: 1 -->
<svg width="655pt" height="273pt"
 viewBox="0.00 0.00 655.00 273.00" xmlns="http://www.w3.org/2000/svg" xmlns:xlink="http://www.w3.org/1999/xlink">
<g id="graph0" class="graph" transform="scale(1 1) rotate(0) translate(4 269)">
<title>G</title>
<polygon fill="#ffffff" stroke="transparent" points="-4,4 -4,-269 651,-269 651,4 -4,4"/>
<g id="clust1" class="cluster">
<title>cluster_G</title>
<path fill="#808080" fill-opacity="0.094118" stroke="#000000" d="M20,-8C20,-8 627,-8 627,-8 633,-8 639,-14 639,-20 639,-20 639,-245 639,-245 639,-251 633,-257 627,-257 627,-257 20,-257 20,-257 14,-257 8,-251 8,-245 8,-245 8,-20 8,-20 8,-14 14,-8 20,-8"/>
</g>
<g id="clust2" class="cluster">
<title>cluster_BacterialTyper__config__set_config</title>
<path fill="#808080" fill-opacity="0.094118" stroke="#000000" d="M397,-99C397,-99 569,-99 569,-99 575,-99 581,-105 581,-111 581,-111 581,-162 581,-162 581,-168 575,-174 569,-174 569,-174 397,-174 397,-174 391,-174 385,-168 385,-162 385,-162 385,-111 385,-111 385,-105 391,-99 397,-99"/>
<text text-anchor="middle" x="483" y="-158.8" font-family="Times,serif" font-size="14.00" fill="#000000">BacterialTyper.config.set_config</text>
</g>
<g id="clust3" class="cluster">
<title>cluster_BacterialTyper__scripts__annotation</title>
<path fill="#808080" fill-opacity="0.094118" stroke="#000000" d="M28,-99C28,-99 365,-99 365,-99 371,-99 377,-105 377,-111 377,-111 377,-237 377,-237 377,-243 371,-249 365,-249 365,-249 28,-249 28,-249 22,-249 16,-243 16,-237 16,-237 16,-111 16,-111 16,-105 22,-99 28,-99"/>
<text text-anchor="middle" x="196.5" y="-233.8" font-family="Times,serif" font-size="14.00" fill="#000000">BacterialTyper.scripts.annotation</text>
</g>
<g id="clust4" class="cluster">
<title>cluster_BacterialTyper__scripts__functions</title>
<path fill="#808080" fill-opacity="0.094118" stroke="#000000" d="M195,-16C195,-16 619,-16 619,-16 625,-16 631,-22 631,-28 631,-28 631,-79 631,-79 631,-85 625,-91 619,-91 619,-91 195,-91 195,-91 189,-91 183,-85 183,-79 183,-79 183,-28 183,-28 183,-22 189,-16 195,-16"/>
<text text-anchor="middle" x="407" y="-75.8" font-family="Times,serif" font-size="14.00" fill="#000000">BacterialTyper.scripts.functions</text>
</g>
<!-- BacterialTyper__config__set_config__get_exe -->
<g id="node1" class="node">
<title>BacterialTyper__config__set_config__get_exe</title>
<ellipse fill="#ff8e65" fill-opacity="0.698039" stroke="#000000" cx="431" cy="-125" rx="38.1938" ry="18"/>
<text text-anchor="middle" x="431" y="-121.3" font-family="Times,serif" font-size="14.00" fill="#000000">get_exe</text>
</g>
<!-- BacterialTyper__scripts__annotation__help_options -->
<g id="node2" class="node">
<title>BacterialTyper__scripts__annotation__help_options</title>
<ellipse fill="#65e0ff" fill-opacity="0.698039" stroke="#000000" cx="205" cy="-125" rx="55.7903" ry="18"/>
<text text-anchor="middle" x="205" y="-121.3" font-family="Times,serif" font-size="14.00" fill="#000000">help_options</text>
</g>
<!-- BacterialTyper__scripts__annotation__main -->
<g id="node3" class="node">
<title>BacterialTyper__scripts__annotation__main</title>
<ellipse fill="#65e0ff" fill-opacity="0.698039" stroke="#000000" cx="180" cy="-200" rx="28.6953" ry="18"/>
<text text-anchor="middle" x="180" y="-196.3" font-family="Times,serif" font-size="14.00" fill="#000000">main</text>
</g>
<!-- BacterialTyper__scripts__annotation__main&#45;&gt;BacterialTyper__scripts__annotation__help_options -->
<g id="edge9" class="edge">
<title>BacterialTyper__scripts__annotation__main&#45;&gt;BacterialTyper__scripts__annotation__help_options</title>
<path fill="none" stroke="#000000" d="M185.9247,-182.226C188.8919,-173.3243 192.5502,-162.3494 195.8668,-152.3996"/>
<polygon fill="#000000" stroke="#000000" points="199.1893,-153.4999 199.0312,-142.9063 192.5485,-151.2863 199.1893,-153.4999"/>
</g>
<!-- BacterialTyper__scripts__annotation__prokka_call -->
<g id="node6" class="node">
<title>BacterialTyper__scripts__annotation__prokka_call</title>
<ellipse fill="#65e0ff" fill-opacity="0.698039" stroke="#000000" cx="79" cy="-125" rx="51.9908" ry="18"/>
<text text-anchor="middle" x="79" y="-121.3" font-family="Times,serif" font-size="14.00" fill="#000000">prokka_call</text>
</g>
<!-- BacterialTyper__scripts__annotation__main&#45;&gt;BacterialTyper__scripts__annotation__prokka_call -->
<g id="edge8" class="edge">
<title>BacterialTyper__scripts__annotation__main&#45;&gt;BacterialTyper__scripts__annotation__prokka_call</title>
<path fill="none" stroke="#000000" d="M159.3846,-187.1613C153.0746,-183.0826 146.1725,-178.468 140,-174 128.8863,-165.9553 117.0471,-156.6313 106.7847,-148.2896"/>
<polygon fill="#000000" stroke="#000000" points="108.8883,-145.4884 98.9365,-141.8536 104.4495,-150.9011 108.8883,-145.4884"/>
</g>
<!-- BacterialTyper__scripts__annotation__module_call -->
<g id="node4" class="node">
<title>BacterialTyper__scripts__annotation__module_call</title>
<ellipse fill="#65e0ff" fill-opacity="0.698039" stroke="#000000" cx="79" cy="-200" rx="54.6905" ry="18"/>
<text text-anchor="middle" x="79" y="-196.3" font-family="Times,serif" font-size="14.00" fill="#000000">module_call</text>
</g>
<!-- BacterialTyper__scripts__annotation__module_call&#45;&gt;BacterialTyper__config__set_config__get_exe -->
<g id="edge6" class="edge">
<title>BacterialTyper__scripts__annotation__module_call&#45;&gt;BacterialTyper__config__set_config__get_exe</title>
<path fill="none" stroke="#000000" d="M117.9875,-187.2592C125.8592,-185.1422 134.1339,-183.2362 142,-182 168.2483,-177.875 356.5726,-184.4541 381,-174 393.0467,-168.8444 403.8147,-159.3406 412.2444,-150.0654"/>
<polygon fill="#000000" stroke="#000000" points="414.9302,-152.31 418.7521,-142.4285 409.6022,-147.7698 414.9302,-152.31"/>
</g>
<!-- BacterialTyper__scripts__annotation__module_call&#45;&gt;BacterialTyper__scripts__annotation__prokka_call -->
<g id="edge5" class="edge">
<title>BacterialTyper__scripts__annotation__module_call&#45;&gt;BacterialTyper__scripts__annotation__prokka_call</title>
<path fill="none" stroke="#000000" d="M79,-181.8446C79,-173.3401 79,-163.0076 79,-153.4964"/>
<polygon fill="#000000" stroke="#000000" points="82.5001,-153.2481 79,-143.2482 75.5001,-153.2482 82.5001,-153.2481"/>
</g>
<!-- BacterialTyper__scripts__functions__print_time_stamp -->
<g id="node7" class="node">
<title>BacterialTyper__scripts__functions__print_time_stamp</title>
<ellipse fill="#a365ff" fill-opacity="0.698039" stroke="#000000" cx="550" cy="-42" rx="73.387" ry="18"/>
<text text-anchor="middle" x="550" y="-38.3" font-family="Times,serif" font-size="14.00" fill="#000000">print_time_stamp</text>
</g>
<!-- BacterialTyper__scripts__annotation__module_call&#45;&gt;BacterialTyper__scripts__functions__print_time_stamp -->
<g id="edge4" class="edge">
<title>BacterialTyper__scripts__annotation__module_call&#45;&gt;BacterialTyper__scripts__functions__print_time_stamp</title>
<path fill="none" stroke="#000000" d="M117.6353,-187.2515C125.6088,-185.1058 134.0119,-183.1909 142,-182 154.4202,-180.1483 585.1994,-182.9577 594,-174 617.3607,-150.2221 604.7603,-130.5488 594,-99 590.0673,-87.4694 582.7525,-76.4575 575.2005,-67.2404"/>
<polygon fill="#000000" stroke="#000000" points="577.7868,-64.8807 568.5819,-59.6346 572.5062,-69.4759 577.7868,-64.8807"/>
</g>
<!-- BacterialTyper__scripts__functions__read_time_stamp -->
<g id="node8" class="node">
<title>BacterialTyper__scripts__functions__read_time_stamp</title>
<ellipse fill="#a365ff" fill-opacity="0.698039" stroke="#000000" cx="263" cy="-42" rx="72.2875" ry="18"/>
<text text-anchor="middle" x="263" y="-38.3" font-family="Times,serif" font-size="14.00" fill="#000000">read_time_stamp</text>
</g>
<!-- BacterialTyper__scripts__annotation__module_call&#45;&gt;BacterialTyper__scripts__functions__read_time_stamp -->
<g id="edge3" class="edge">
<title>BacterialTyper__scripts__annotation__module_call&#45;&gt;BacterialTyper__scripts__functions__read_time_stamp</title>
<path fill="none" stroke="#000000" d="M117.6356,-187.2537C125.6091,-185.1079 134.0121,-183.1924 142,-182 154.1727,-180.183 576.3762,-182.781 585,-174 596.6782,-162.109 596.588,-110.979 585,-99 575.6859,-89.3716 356.8422,-94.8129 344,-91 325.8638,-85.6153 307.6606,-75.1661 293.1175,-65.2956"/>
<polygon fill="#000000" stroke="#000000" points="294.76,-62.1715 284.5687,-59.275 290.7294,-67.8946 294.76,-62.1715"/>
</g>
<!-- BacterialTyper__scripts__annotation__print_list_prokka -->
<g id="node5" class="node">
<title>BacterialTyper__scripts__annotation__print_list_prokka</title>
<ellipse fill="#65e0ff" fill-opacity="0.698039" stroke="#000000" cx="298" cy="-200" rx="71.4873" ry="18"/>
<text text-anchor="middle" x="298" y="-196.3" font-family="Times,serif" font-size="14.00" fill="#000000">print_list_prokka</text>
</g>
<!-- BacterialTyper__scripts__annotation__print_list_prokka&#45;&gt;BacterialTyper__config__set_config__get_exe -->
<g id="edge1" class="edge">
<title>BacterialTyper__scripts__annotation__print_list_prokka&#45;&gt;BacterialTyper__config__set_config__get_exe</title>
<path fill="none" stroke="#000000" d="M350.5398,-187.6679C361.0252,-184.0843 371.6717,-179.5845 381,-174 391.8078,-167.5298 402.0596,-158.2674 410.4342,-149.534"/>
<polygon fill="#000000" stroke="#000000" points="413.0935,-151.8127 417.2773,-142.0789 407.9366,-147.0791 413.0935,-151.8127"/>
</g>
<!-- BacterialTyper__scripts__functions__system_call -->
<g id="node9" class="node">
<title>BacterialTyper__scripts__functions__system_call</title>
<ellipse fill="#a365ff" fill-opacity="0.698039" stroke="#000000" cx="406" cy="-42" rx="52.7911" ry="18"/>
<text text-anchor="middle" x="406" y="-38.3" font-family="Times,serif" font-size="14.00" fill="#000000">system_call</text>
</g>
<!-- BacterialTyper__scripts__annotation__print_list_prokka&#45;&gt;BacterialTyper__scripts__functions__system_call -->
<g id="edge2" class="edge">
<title>BacterialTyper__scripts__annotation__print_list_prokka&#45;&gt;BacterialTyper__scripts__functions__system_call</title>
<path fill="none" stroke="#000000" d="M369.5409,-198.7001C452.5571,-196.4345 580.0515,-190.3143 595,-174 617.519,-149.4235 617.8173,-123.2998 595,-99 585.3215,-88.6927 481.2033,-96.0583 468,-91 453.9112,-85.6025 440.4859,-75.8003 429.7538,-66.3737"/>
<polygon fill="#000000" stroke="#000000" points="431.8286,-63.5259 422.1055,-59.3175 427.082,-68.6708 431.8286,-63.5259"/>
</g>
<!-- BacterialTyper__scripts__annotation__prokka_call&#45;&gt;BacterialTyper__scripts__functions__system_call -->
<g id="edge7" class="edge">
<title>BacterialTyper__scripts__annotation__prokka_call&#45;&gt;BacterialTyper__scripts__functions__system_call</title>
<path fill="none" stroke="#000000" d="M108.0632,-110.0662C117.9435,-105.6852 129.2173,-101.4232 140,-99 184.2642,-89.0527 301.445,-106.7272 344,-91 358.1518,-85.7699 371.586,-75.9913 382.3077,-66.5371"/>
<polygon fill="#000000" stroke="#000000" points="384.9946,-68.8186 389.9449,-59.4514 380.2336,-63.6871 384.9946,-68.8186"/>
</g>
</g>
</svg>
