<?xml version="1.0" encoding="UTF-8" standalone="no"?>
<!DOCTYPE svg PUBLIC "-//W3C//DTD SVG 1.1//EN"
 "http://www.w3.org/Graphics/SVG/1.1/DTD/svg11.dtd">
<!-- Generated by graphviz version 2.40.1 (20161225.0304)
 -->
<!-- Title: G Pages: 1 -->
<svg width="2561pt" height="273pt"
 viewBox="0.00 0.00 2561.00 273.00" xmlns="http://www.w3.org/2000/svg" xmlns:xlink="http://www.w3.org/1999/xlink">
<g id="graph0" class="graph" transform="scale(1 1) rotate(0) translate(4 269)">
<title>G</title>
<polygon fill="#ffffff" stroke="transparent" points="-4,4 -4,-269 2557,-269 2557,4 -4,4"/>
<g id="clust1" class="cluster">
<title>cluster_G</title>
<path fill="#808080" fill-opacity="0.094118" stroke="#000000" d="M20,-8C20,-8 2533,-8 2533,-8 2539,-8 2545,-14 2545,-20 2545,-20 2545,-245 2545,-245 2545,-251 2539,-257 2533,-257 2533,-257 20,-257 20,-257 14,-257 8,-251 8,-245 8,-245 8,-20 8,-20 8,-14 14,-8 20,-8"/>
</g>
<g id="clust2" class="cluster">
<title>cluster_BacterialTyper__config__extern_progs</title>
<path fill="#808080" fill-opacity="0.094118" stroke="#000000" d="M1473,-99C1473,-99 1659,-99 1659,-99 1665,-99 1671,-105 1671,-111 1671,-111 1671,-162 1671,-162 1671,-168 1665,-174 1659,-174 1659,-174 1473,-174 1473,-174 1467,-174 1461,-168 1461,-162 1461,-162 1461,-111 1461,-111 1461,-105 1467,-99 1473,-99"/>
<text text-anchor="middle" x="1566" y="-158.8" font-family="Times,serif" font-size="14.00" fill="#000000">BacterialTyper.config.extern_progs</text>
</g>
<g id="clust3" class="cluster">
<title>cluster_BacterialTyper__modules__citation</title>
<path fill="#808080" fill-opacity="0.094118" stroke="#000000" d="M1473,-16C1473,-16 1641,-16 1641,-16 1647,-16 1653,-22 1653,-28 1653,-28 1653,-79 1653,-79 1653,-85 1647,-91 1641,-91 1641,-91 1473,-91 1473,-91 1467,-91 1461,-85 1461,-79 1461,-79 1461,-28 1461,-28 1461,-22 1467,-16 1473,-16"/>
<text text-anchor="middle" x="1557" y="-75.8" font-family="Times,serif" font-size="14.00" fill="#000000">BacterialTyper.modules.citation</text>
</g>
<g id="clust4" class="cluster">
<title>cluster_BacterialTyper__scripts__ariba_caller</title>
<path fill="#808080" fill-opacity="0.094118" stroke="#000000" d="M28,-16C28,-16 1441,-16 1441,-16 1447,-16 1453,-22 1453,-28 1453,-28 1453,-237 1453,-237 1453,-243 1447,-249 1441,-249 1441,-249 28,-249 28,-249 22,-249 16,-243 16,-237 16,-237 16,-28 16,-28 16,-22 22,-16 28,-16"/>
<text text-anchor="middle" x="734.5" y="-233.8" font-family="Times,serif" font-size="14.00" fill="#000000">BacterialTyper.scripts.ariba_caller</text>
</g>
<g id="clust5" class="cluster">
<title>cluster_BacterialTyper__scripts__functions</title>
<path fill="#808080" fill-opacity="0.094118" stroke="#000000" d="M1673,-16C1673,-16 2525,-16 2525,-16 2531,-16 2537,-22 2537,-28 2537,-28 2537,-79 2537,-79 2537,-85 2531,-91 2525,-91 2525,-91 1673,-91 1673,-91 1667,-91 1661,-85 1661,-79 1661,-79 1661,-28 1661,-28 1661,-22 1667,-16 1673,-16"/>
<text text-anchor="middle" x="2099" y="-75.8" font-family="Times,serif" font-size="14.00" fill="#000000">BacterialTyper.scripts.functions</text>
</g>
<!-- BacterialTyper__config__extern_progs__file_list -->
<g id="node1" class="node">
<title>BacterialTyper__config__extern_progs__file_list</title>
<ellipse fill="#ff6565" fill-opacity="0.698039" stroke="#000000" cx="1507" cy="-125" rx="37.8943" ry="18"/>
<text text-anchor="middle" x="1507" y="-121.3" font-family="Times,serif" font-size="14.00" fill="#000000">file_list</text>
</g>
<!-- BacterialTyper__modules__citation__ariba_citation -->
<g id="node2" class="node">
<title>BacterialTyper__modules__citation__ariba_citation</title>
<ellipse fill="#fff465" fill-opacity="0.698039" stroke="#000000" cx="1528" cy="-42" rx="59.2899" ry="18"/>
<text text-anchor="middle" x="1528" y="-38.3" font-family="Times,serif" font-size="14.00" fill="#000000">ariba_citation</text>
</g>
<!-- BacterialTyper__scripts__ariba_caller__ariba_expandflag -->
<g id="node3" class="node">
<title>BacterialTyper__scripts__ariba_caller__ariba_expandflag</title>
<ellipse fill="#65cbff" fill-opacity="0.698039" stroke="#000000" cx="933" cy="-200" rx="71.4873" ry="18"/>
<text text-anchor="middle" x="933" y="-196.3" font-family="Times,serif" font-size="14.00" fill="#000000">ariba_expandflag</text>
</g>
<!-- BacterialTyper__scripts__functions__system_call -->
<g id="node23" class="node">
<title>BacterialTyper__scripts__functions__system_call</title>
<ellipse fill="#a365ff" fill-opacity="0.698039" stroke="#000000" cx="1859" cy="-42" rx="52.7911" ry="18"/>
<text text-anchor="middle" x="1859" y="-38.3" font-family="Times,serif" font-size="14.00" fill="#000000">system_call</text>
</g>
<!-- BacterialTyper__scripts__ariba_caller__ariba_expandflag&#45;&gt;BacterialTyper__scripts__functions__system_call -->
<g id="edge15" class="edge">
<title>BacterialTyper__scripts__ariba_caller__ariba_expandflag&#45;&gt;BacterialTyper__scripts__functions__system_call</title>
<path fill="none" stroke="#000000" d="M977.4812,-185.4422C977.4812,-172.9675 977.4812,-157 977.4812,-157 977.4812,-157 1866.5208,-157 1866.5208,-157 1866.5208,-157 1866.5208,-69.9688 1866.5208,-69.9688"/>
<polygon fill="#000000" stroke="#000000" points="1870.0209,-69.9687 1866.5208,-59.9688 1863.0209,-69.9688 1870.0209,-69.9687"/>
</g>
<!-- BacterialTyper__scripts__ariba_caller__ariba_getref -->
<g id="node4" class="node">
<title>BacterialTyper__scripts__ariba_caller__ariba_getref</title>
<ellipse fill="#65cbff" fill-opacity="0.698039" stroke="#000000" cx="852" cy="-125" rx="53.0913" ry="18"/>
<text text-anchor="middle" x="852" y="-121.3" font-family="Times,serif" font-size="14.00" fill="#000000">ariba_getref</text>
</g>
<!-- BacterialTyper__scripts__ariba_caller__ariba_prepareref -->
<g id="node5" class="node">
<title>BacterialTyper__scripts__ariba_caller__ariba_prepareref</title>
<ellipse fill="#65cbff" fill-opacity="0.698039" stroke="#000000" cx="852" cy="-42" rx="68.7879" ry="18"/>
<text text-anchor="middle" x="852" y="-38.3" font-family="Times,serif" font-size="14.00" fill="#000000">ariba_prepareref</text>
</g>
<!-- BacterialTyper__scripts__ariba_caller__ariba_getref&#45;&gt;BacterialTyper__scripts__ariba_caller__ariba_prepareref -->
<g id="edge10" class="edge">
<title>BacterialTyper__scripts__ariba_caller__ariba_getref&#45;&gt;BacterialTyper__scripts__ariba_caller__ariba_prepareref</title>
<path fill="none" stroke="#000000" d="M820.0228,-110.5425C820.0228,-110.5425 820.0228,-67.9909 820.0228,-67.9909"/>
<polygon fill="#000000" stroke="#000000" points="823.5229,-67.9909 820.0228,-57.9909 816.5229,-67.991 823.5229,-67.9909"/>
</g>
<!-- BacterialTyper__scripts__functions__print_time_stamp -->
<g id="node21" class="node">
<title>BacterialTyper__scripts__functions__print_time_stamp</title>
<ellipse fill="#a365ff" fill-opacity="0.698039" stroke="#000000" cx="2003" cy="-42" rx="73.387" ry="18"/>
<text text-anchor="middle" x="2003" y="-38.3" font-family="Times,serif" font-size="14.00" fill="#000000">print_time_stamp</text>
</g>
<!-- BacterialTyper__scripts__ariba_caller__ariba_getref&#45;&gt;BacterialTyper__scripts__functions__print_time_stamp -->
<g id="edge13" class="edge">
<title>BacterialTyper__scripts__ariba_caller__ariba_getref&#45;&gt;BacterialTyper__scripts__functions__print_time_stamp</title>
<path fill="none" stroke="#000000" d="M862.6591,-107.2021C862.6591,-100.7422 862.6591,-95 862.6591,-95 862.6591,-95 1978.5188,-95 1978.5188,-95 1978.5188,-95 1978.5188,-69.0613 1978.5188,-69.0613"/>
<polygon fill="#000000" stroke="#000000" points="1982.0189,-69.0612 1978.5188,-59.0613 1975.0189,-69.0613 1982.0189,-69.0612"/>
</g>
<!-- BacterialTyper__scripts__functions__read_time_stamp -->
<g id="node22" class="node">
<title>BacterialTyper__scripts__functions__read_time_stamp</title>
<ellipse fill="#a365ff" fill-opacity="0.698039" stroke="#000000" cx="2457" cy="-42" rx="72.2875" ry="18"/>
<text text-anchor="middle" x="2457" y="-38.3" font-family="Times,serif" font-size="14.00" fill="#000000">read_time_stamp</text>
</g>
<!-- BacterialTyper__scripts__ariba_caller__ariba_getref&#45;&gt;BacterialTyper__scripts__functions__read_time_stamp -->
<g id="edge11" class="edge">
<title>BacterialTyper__scripts__ariba_caller__ariba_getref&#45;&gt;BacterialTyper__scripts__functions__read_time_stamp</title>
<path fill="none" stroke="#000000" d="M883.9772,-110.4854C883.9772,-105.4312 883.9772,-101 883.9772,-101 883.9772,-101 2420.9282,-101 2420.9282,-101 2420.9282,-101 2420.9282,-67.8109 2420.9282,-67.8109"/>
<polygon fill="#000000" stroke="#000000" points="2424.4283,-67.8109 2420.9282,-57.8109 2417.4283,-67.811 2424.4283,-67.8109"/>
</g>
<!-- BacterialTyper__scripts__ariba_caller__ariba_getref&#45;&gt;BacterialTyper__scripts__functions__system_call -->
<g id="edge12" class="edge">
<title>BacterialTyper__scripts__ariba_caller__ariba_getref&#45;&gt;BacterialTyper__scripts__functions__system_call</title>
<path fill="none" stroke="#000000" d="M841.3409,-107C841.3409,-98 841.3409,-89 841.3409,-89 841.3409,-89 1851.4792,-89 1851.4792,-89 1851.4792,-89 1851.4792,-70.037 1851.4792,-70.037"/>
<polygon fill="#000000" stroke="#000000" points="1854.9793,-70.037 1851.4792,-60.037 1847.9793,-70.037 1854.9793,-70.037"/>
</g>
<!-- BacterialTyper__scripts__ariba_caller__ariba_prepareref&#45;&gt;BacterialTyper__scripts__functions__system_call -->
<g id="edge14" class="edge">
<title>BacterialTyper__scripts__ariba_caller__ariba_prepareref&#45;&gt;BacterialTyper__scripts__functions__system_call</title>
<path fill="none" stroke="#000000" d="M913.0946,-50.5644C913.0946,-57.1036 913.0946,-65 913.0946,-65 913.0946,-65 1821.3962,-65 1821.3962,-65 1821.3962,-65 1821.3962,-63.9845 1821.3962,-63.9845"/>
<polygon fill="#000000" stroke="#000000" points="1824.8963,-64.8449 1821.3962,-54.8449 1817.8963,-64.845 1824.8963,-64.8449"/>
</g>
<!-- BacterialTyper__scripts__ariba_caller__ariba_pubmlstget -->
<g id="node6" class="node">
<title>BacterialTyper__scripts__ariba_caller__ariba_pubmlstget</title>
<ellipse fill="#65cbff" fill-opacity="0.698039" stroke="#000000" cx="1201" cy="-200" rx="72.2875" ry="18"/>
<text text-anchor="middle" x="1201" y="-196.3" font-family="Times,serif" font-size="14.00" fill="#000000">ariba_pubmlstget</text>
</g>
<!-- BacterialTyper__scripts__functions__create_folder -->
<g id="node18" class="node">
<title>BacterialTyper__scripts__functions__create_folder</title>
<ellipse fill="#a365ff" fill-opacity="0.698039" stroke="#000000" cx="2152" cy="-42" rx="57.3905" ry="18"/>
<text text-anchor="middle" x="2152" y="-38.3" font-family="Times,serif" font-size="14.00" fill="#000000">create_folder</text>
</g>
<!-- BacterialTyper__scripts__ariba_caller__ariba_pubmlstget&#45;&gt;BacterialTyper__scripts__functions__create_folder -->
<g id="edge16" class="edge">
<title>BacterialTyper__scripts__ariba_caller__ariba_pubmlstget&#45;&gt;BacterialTyper__scripts__functions__create_folder</title>
<path fill="none" stroke="#000000" d="M1225.0479,-182.7954C1225.0479,-176.5508 1225.0479,-171 1225.0479,-171 1225.0479,-171 2152,-171 2152,-171 2152,-171 2152,-70.2089 2152,-70.2089"/>
<polygon fill="#000000" stroke="#000000" points="2155.5001,-70.2089 2152,-60.2089 2148.5001,-70.209 2155.5001,-70.2089"/>
</g>
<!-- BacterialTyper__scripts__ariba_caller__ariba_pubmlstget&#45;&gt;BacterialTyper__scripts__functions__system_call -->
<g id="edge17" class="edge">
<title>BacterialTyper__scripts__ariba_caller__ariba_pubmlstget&#45;&gt;BacterialTyper__scripts__functions__system_call</title>
<path fill="none" stroke="#000000" d="M1176.9521,-182.8435C1176.9521,-173.5713 1176.9521,-164 1176.9521,-164 1176.9521,-164 1896.6038,-164 1896.6038,-164 1896.6038,-164 1896.6038,-65.0561 1896.6038,-65.0561"/>
<polygon fill="#000000" stroke="#000000" points="1900.1039,-65.0561 1896.6038,-55.0561 1893.1039,-65.0562 1900.1039,-65.0561"/>
</g>
<!-- BacterialTyper__scripts__ariba_caller__ariba_run -->
<g id="node7" class="node">
<title>BacterialTyper__scripts__ariba_caller__ariba_run</title>
<ellipse fill="#65cbff" fill-opacity="0.698039" stroke="#000000" cx="1067" cy="-200" rx="44.393" ry="18"/>
<text text-anchor="middle" x="1067" y="-196.3" font-family="Times,serif" font-size="14.00" fill="#000000">ariba_run</text>
</g>
<!-- BacterialTyper__scripts__ariba_caller__ariba_run&#45;&gt;BacterialTyper__scripts__functions__print_time_stamp -->
<g id="edge19" class="edge">
<title>BacterialTyper__scripts__ariba_caller__ariba_run&#45;&gt;BacterialTyper__scripts__functions__print_time_stamp</title>
<path fill="none" stroke="#000000" d="M1094.9787,-185.8135C1094.9787,-176.8694 1094.9787,-167 1094.9787,-167 1094.9787,-167 2027.4812,-167 2027.4812,-167 2027.4812,-167 2027.4812,-69.1186 2027.4812,-69.1186"/>
<polygon fill="#000000" stroke="#000000" points="2030.9813,-69.1186 2027.4812,-59.1186 2023.9813,-69.1187 2030.9813,-69.1186"/>
</g>
<!-- BacterialTyper__scripts__ariba_caller__ariba_run&#45;&gt;BacterialTyper__scripts__functions__system_call -->
<g id="edge18" class="edge">
<title>BacterialTyper__scripts__ariba_caller__ariba_run&#45;&gt;BacterialTyper__scripts__functions__system_call</title>
<path fill="none" stroke="#000000" d="M1078.7612,-182.339C1078.7612,-171.6235 1078.7612,-160 1078.7612,-160 1078.7612,-160 1881.5623,-160 1881.5623,-160 1881.5623,-160 1881.5623,-68.4074 1881.5623,-68.4074"/>
<polygon fill="#000000" stroke="#000000" points="1885.0624,-68.4074 1881.5623,-58.4074 1878.0624,-68.4074 1885.0624,-68.4074"/>
</g>
<!-- BacterialTyper__scripts__ariba_caller__ariba_summary -->
<g id="node8" class="node">
<title>BacterialTyper__scripts__ariba_caller__ariba_summary</title>
<ellipse fill="#65cbff" fill-opacity="0.698039" stroke="#000000" cx="535" cy="-125" rx="66.0889" ry="18"/>
<text text-anchor="middle" x="535" y="-121.3" font-family="Times,serif" font-size="14.00" fill="#000000">ariba_summary</text>
</g>
<!-- BacterialTyper__scripts__ariba_caller__ariba_summary&#45;&gt;BacterialTyper__scripts__functions__system_call -->
<g id="edge9" class="edge">
<title>BacterialTyper__scripts__ariba_caller__ariba_summary&#45;&gt;BacterialTyper__scripts__functions__system_call</title>
<path fill="none" stroke="#000000" d="M535,-106.9445C535,-95.561 535,-83 535,-83 535,-83 1836.4377,-83 1836.4377,-83 1836.4377,-83 1836.4377,-68.6763 1836.4377,-68.6763"/>
<polygon fill="#000000" stroke="#000000" points="1839.9378,-68.6762 1836.4377,-58.6763 1832.9378,-68.6763 1839.9378,-68.6762"/>
</g>
<!-- BacterialTyper__scripts__ariba_caller__ariba_summary_all -->
<g id="node9" class="node">
<title>BacterialTyper__scripts__ariba_caller__ariba_summary_all</title>
<ellipse fill="#65cbff" fill-opacity="0.698039" stroke="#000000" cx="535" cy="-200" rx="79.0865" ry="18"/>
<text text-anchor="middle" x="535" y="-196.3" font-family="Times,serif" font-size="14.00" fill="#000000">ariba_summary_all</text>
</g>
<!-- BacterialTyper__scripts__ariba_caller__ariba_summary_all&#45;&gt;BacterialTyper__config__extern_progs__file_list -->
<g id="edge21" class="edge">
<title>BacterialTyper__scripts__ariba_caller__ariba_summary_all&#45;&gt;BacterialTyper__config__extern_progs__file_list</title>
<path fill="none" stroke="#000000" d="M605.6271,-191.7435C605.6271,-177.5421 605.6271,-150 605.6271,-150 605.6271,-150 1507,-150 1507,-150 1507,-150 1507,-149.3169 1507,-149.3169"/>
<polygon fill="#000000" stroke="#000000" points="1510.5002,-153.1686 1507,-143.1686 1503.5002,-153.1687 1510.5002,-153.1686"/>
</g>
<!-- BacterialTyper__scripts__ariba_caller__ariba_summary_all&#45;&gt;BacterialTyper__scripts__ariba_caller__ariba_summary -->
<g id="edge23" class="edge">
<title>BacterialTyper__scripts__ariba_caller__ariba_summary_all&#45;&gt;BacterialTyper__scripts__ariba_caller__ariba_summary</title>
<path fill="none" stroke="#000000" d="M535,-181.8446C535,-181.8446 535,-153.2482 535,-153.2482"/>
<polygon fill="#000000" stroke="#000000" points="538.5001,-153.2481 535,-143.2482 531.5001,-153.2482 538.5001,-153.2481"/>
</g>
<!-- BacterialTyper__scripts__ariba_caller__fix_ariba_summary -->
<g id="node12" class="node">
<title>BacterialTyper__scripts__ariba_caller__fix_ariba_summary</title>
<ellipse fill="#65cbff" fill-opacity="0.698039" stroke="#000000" cx="700" cy="-125" rx="80.6858" ry="18"/>
<text text-anchor="middle" x="700" y="-121.3" font-family="Times,serif" font-size="14.00" fill="#000000">fix_ariba_summary</text>
</g>
<!-- BacterialTyper__scripts__ariba_caller__ariba_summary_all&#45;&gt;BacterialTyper__scripts__ariba_caller__fix_ariba_summary -->
<g id="edge20" class="edge">
<title>BacterialTyper__scripts__ariba_caller__ariba_summary_all&#45;&gt;BacterialTyper__scripts__ariba_caller__fix_ariba_summary</title>
<path fill="none" stroke="#000000" d="M609.96,-194.1149C609.96,-176.4343 609.96,-125 609.96,-125 609.96,-125 610.8897,-125 610.8897,-125"/>
<polygon fill="#000000" stroke="#000000" points="609.2568,-128.5001 619.2567,-125 609.2567,-121.5001 609.2568,-128.5001"/>
</g>
<!-- BacterialTyper__scripts__ariba_caller__fix_phangando_tree -->
<g id="node13" class="node">
<title>BacterialTyper__scripts__ariba_caller__fix_phangando_tree</title>
<ellipse fill="#65cbff" fill-opacity="0.698039" stroke="#000000" cx="369" cy="-125" rx="81.4863" ry="18"/>
<text text-anchor="middle" x="369" y="-121.3" font-family="Times,serif" font-size="14.00" fill="#000000">fix_phangando_tree</text>
</g>
<!-- BacterialTyper__scripts__ariba_caller__ariba_summary_all&#45;&gt;BacterialTyper__scripts__ariba_caller__fix_phangando_tree -->
<g id="edge22" class="edge">
<title>BacterialTyper__scripts__ariba_caller__ariba_summary_all&#45;&gt;BacterialTyper__scripts__ariba_caller__fix_phangando_tree</title>
<path fill="none" stroke="#000000" d="M462.2065,-192.8087C462.2065,-174.0368 462.2065,-125 462.2065,-125 462.2065,-125 460.4018,-125 460.4018,-125"/>
<polygon fill="#000000" stroke="#000000" points="460.4018,-121.5001 450.4018,-125 460.4018,-128.5001 460.4018,-121.5001"/>
</g>
<!-- BacterialTyper__scripts__ariba_caller__check_db_indexed -->
<g id="node10" class="node">
<title>BacterialTyper__scripts__ariba_caller__check_db_indexed</title>
<ellipse fill="#65cbff" fill-opacity="0.698039" stroke="#000000" cx="1368" cy="-200" rx="76.8869" ry="18"/>
<text text-anchor="middle" x="1368" y="-196.3" font-family="Times,serif" font-size="14.00" fill="#000000">check_db_indexed</text>
</g>
<!-- BacterialTyper__scripts__ariba_caller__check_db_indexed&#45;&gt;BacterialTyper__scripts__functions__read_time_stamp -->
<g id="edge8" class="edge">
<title>BacterialTyper__scripts__ariba_caller__check_db_indexed&#45;&gt;BacterialTyper__scripts__functions__read_time_stamp</title>
<path fill="none" stroke="#000000" d="M1444.8879,-200C1698.5934,-200 2493.0718,-200 2493.0718,-200 2493.0718,-200 2493.0718,-67.7273 2493.0718,-67.7273"/>
<polygon fill="#000000" stroke="#000000" points="2496.5719,-67.7272 2493.0718,-57.7273 2489.5719,-67.7273 2496.5719,-67.7272"/>
</g>
<!-- BacterialTyper__scripts__ariba_caller__download_ariba_databases -->
<g id="node11" class="node">
<title>BacterialTyper__scripts__ariba_caller__download_ariba_databases</title>
<ellipse fill="#65cbff" fill-opacity="0.698039" stroke="#000000" cx="738" cy="-200" rx="105.0817" ry="18"/>
<text text-anchor="middle" x="738" y="-196.3" font-family="Times,serif" font-size="14.00" fill="#000000">download_ariba_databases</text>
</g>
<!-- BacterialTyper__scripts__ariba_caller__download_ariba_databases&#45;&gt;BacterialTyper__scripts__ariba_caller__ariba_getref -->
<g id="edge4" class="edge">
<title>BacterialTyper__scripts__ariba_caller__download_ariba_databases&#45;&gt;BacterialTyper__scripts__ariba_caller__ariba_getref</title>
<path fill="none" stroke="#000000" d="M806.1357,-186.2438C806.1357,-186.2438 806.1357,-144.3992 806.1357,-144.3992"/>
<polygon fill="#000000" stroke="#000000" points="809.6358,-144.3991 806.1357,-134.3992 802.6358,-144.3992 809.6358,-144.3991"/>
</g>
<!-- BacterialTyper__scripts__ariba_caller__get_ARIBA_dbs -->
<g id="node14" class="node">
<title>BacterialTyper__scripts__ariba_caller__get_ARIBA_dbs</title>
<ellipse fill="#65cbff" fill-opacity="0.698039" stroke="#000000" cx="993" cy="-125" rx="69.5877" ry="18"/>
<text text-anchor="middle" x="993" y="-121.3" font-family="Times,serif" font-size="14.00" fill="#000000">get_ARIBA_dbs</text>
</g>
<!-- BacterialTyper__scripts__ariba_caller__download_ariba_databases&#45;&gt;BacterialTyper__scripts__ariba_caller__get_ARIBA_dbs -->
<g id="edge3" class="edge">
<title>BacterialTyper__scripts__ariba_caller__download_ariba_databases&#45;&gt;BacterialTyper__scripts__ariba_caller__get_ARIBA_dbs</title>
<path fill="none" stroke="#000000" d="M813.5667,-187.2028C813.5667,-171.2342 813.5667,-146 813.5667,-146 813.5667,-146 950.4687,-146 950.4687,-146 950.4687,-146 950.4687,-145.3355 950.4687,-145.3355"/>
<polygon fill="#000000" stroke="#000000" points="953.9688,-149.3554 950.4687,-139.3555 946.9688,-149.3555 953.9688,-149.3554"/>
</g>
<!-- BacterialTyper__scripts__functions__create_subfolder -->
<g id="node19" class="node">
<title>BacterialTyper__scripts__functions__create_subfolder</title>
<ellipse fill="#a365ff" fill-opacity="0.698039" stroke="#000000" cx="2297" cy="-42" rx="69.5877" ry="18"/>
<text text-anchor="middle" x="2297" y="-38.3" font-family="Times,serif" font-size="14.00" fill="#000000">create_subfolder</text>
</g>
<!-- BacterialTyper__scripts__ariba_caller__download_ariba_databases&#45;&gt;BacterialTyper__scripts__functions__create_subfolder -->
<g id="edge6" class="edge">
<title>BacterialTyper__scripts__ariba_caller__download_ariba_databases&#45;&gt;BacterialTyper__scripts__functions__create_subfolder</title>
<path fill="none" stroke="#000000" d="M828.4287,-190.6134C828.4287,-183.166 828.4287,-174 828.4287,-174 828.4287,-174 2297,-174 2297,-174 2297,-174 2297,-70.0773 2297,-70.0773"/>
<polygon fill="#000000" stroke="#000000" points="2300.5001,-70.0772 2297,-60.0773 2293.5001,-70.0773 2300.5001,-70.0772"/>
</g>
<!-- BacterialTyper__scripts__functions__print_sepLine -->
<g id="node20" class="node">
<title>BacterialTyper__scripts__functions__print_sepLine</title>
<ellipse fill="#a365ff" fill-opacity="0.698039" stroke="#000000" cx="1729" cy="-42" rx="59.5901" ry="18"/>
<text text-anchor="middle" x="1729" y="-38.3" font-family="Times,serif" font-size="14.00" fill="#000000">print_sepLine</text>
</g>
<!-- BacterialTyper__scripts__ariba_caller__download_ariba_databases&#45;&gt;BacterialTyper__scripts__functions__print_sepLine -->
<g id="edge5" class="edge">
<title>BacterialTyper__scripts__ariba_caller__download_ariba_databases&#45;&gt;BacterialTyper__scripts__functions__print_sepLine</title>
<path fill="none" stroke="#000000" d="M820.9977,-188.6226C820.9977,-174.7128 820.9977,-153 820.9977,-153 820.9977,-153 1748.9316,-153 1748.9316,-153 1748.9316,-153 1748.9316,-69.3438 1748.9316,-69.3438"/>
<polygon fill="#000000" stroke="#000000" points="1752.4317,-69.3437 1748.9316,-59.3438 1745.4317,-69.3438 1752.4317,-69.3437"/>
</g>
<!-- BacterialTyper__scripts__ariba_caller__download_ariba_databases&#45;&gt;BacterialTyper__scripts__functions__read_time_stamp -->
<g id="edge7" class="edge">
<title>BacterialTyper__scripts__ariba_caller__download_ariba_databases&#45;&gt;BacterialTyper__scripts__functions__read_time_stamp</title>
<path fill="none" stroke="#000000" d="M835.8597,-193.0391C835.8597,-186.5938 835.8597,-178 835.8597,-178 835.8597,-178 2457,-178 2457,-178 2457,-178 2457,-70.0597 2457,-70.0597"/>
<polygon fill="#000000" stroke="#000000" points="2460.5001,-70.0597 2457,-60.0597 2453.5001,-70.0598 2460.5001,-70.0597"/>
</g>
<!-- BacterialTyper__scripts__ariba_caller__help_ARIBA -->
<g id="node15" class="node">
<title>BacterialTyper__scripts__ariba_caller__help_ARIBA</title>
<ellipse fill="#65cbff" fill-opacity="0.698039" stroke="#000000" cx="212" cy="-125" rx="57.6901" ry="18"/>
<text text-anchor="middle" x="212" y="-121.3" font-family="Times,serif" font-size="14.00" fill="#000000">help_ARIBA</text>
</g>
<!-- BacterialTyper__scripts__ariba_caller__help_ARIBA&#45;&gt;BacterialTyper__modules__citation__ariba_citation -->
<g id="edge1" class="edge">
<title>BacterialTyper__scripts__ariba_caller__help_ARIBA&#45;&gt;BacterialTyper__modules__citation__ariba_citation</title>
<path fill="none" stroke="#000000" d="M192.7184,-107.9141C192.7184,-92.0938 192.7184,-71 192.7184,-71 192.7184,-71 1507,-71 1507,-71 1507,-71 1507,-68.8694 1507,-68.8694"/>
<polygon fill="#000000" stroke="#000000" points="1510.5001,-68.8694 1507,-58.8694 1503.5001,-68.8695 1510.5001,-68.8694"/>
</g>
<!-- BacterialTyper__scripts__ariba_caller__help_ARIBA&#45;&gt;BacterialTyper__scripts__functions__print_sepLine -->
<g id="edge2" class="edge">
<title>BacterialTyper__scripts__ariba_caller__help_ARIBA&#45;&gt;BacterialTyper__scripts__functions__print_sepLine</title>
<path fill="none" stroke="#000000" d="M231.2816,-107.9418C231.2816,-94.1453 231.2816,-77 231.2816,-77 231.2816,-77 1709.0684,-77 1709.0684,-77 1709.0684,-77 1709.0684,-69.0899 1709.0684,-69.0899"/>
<polygon fill="#000000" stroke="#000000" points="1712.5685,-69.0898 1709.0684,-59.0899 1705.5685,-69.0899 1712.5685,-69.0898"/>
</g>
<!-- BacterialTyper__scripts__ariba_caller__help_options -->
<g id="node16" class="node">
<title>BacterialTyper__scripts__ariba_caller__help_options</title>
<ellipse fill="#65cbff" fill-opacity="0.698039" stroke="#000000" cx="80" cy="-125" rx="55.7903" ry="18"/>
<text text-anchor="middle" x="80" y="-121.3" font-family="Times,serif" font-size="14.00" fill="#000000">help_options</text>
</g>
<!-- BacterialTyper__scripts__ariba_caller__main -->
<g id="node17" class="node">
<title>BacterialTyper__scripts__ariba_caller__main</title>
<ellipse fill="#65cbff" fill-opacity="0.698039" stroke="#000000" cx="146" cy="-200" rx="28.6953" ry="18"/>
<text text-anchor="middle" x="146" y="-196.3" font-family="Times,serif" font-size="14.00" fill="#000000">main</text>
</g>
<!-- BacterialTyper__scripts__ariba_caller__main&#45;&gt;BacterialTyper__scripts__ariba_caller__help_ARIBA -->
<g id="edge25" class="edge">
<title>BacterialTyper__scripts__ariba_caller__main&#45;&gt;BacterialTyper__scripts__ariba_caller__help_ARIBA</title>
<path fill="none" stroke="#000000" d="M164.3763,-185.8931C164.3763,-185.8931 164.3763,-145.6511 164.3763,-145.6511"/>
<polygon fill="#000000" stroke="#000000" points="167.8764,-145.6511 164.3763,-135.6511 160.8764,-145.6511 167.8764,-145.6511"/>
</g>
<!-- BacterialTyper__scripts__ariba_caller__main&#45;&gt;BacterialTyper__scripts__ariba_caller__help_options -->
<g id="edge24" class="edge">
<title>BacterialTyper__scripts__ariba_caller__main&#45;&gt;BacterialTyper__scripts__ariba_caller__help_options</title>
<path fill="none" stroke="#000000" d="M126.6488,-186.5915C126.6488,-186.5915 126.6488,-144.9401 126.6488,-144.9401"/>
<polygon fill="#000000" stroke="#000000" points="130.1489,-144.94 126.6488,-134.9401 123.1489,-144.9401 130.1489,-144.94"/>
</g>
</g>
</svg>
