<?xml version="1.0" encoding="UTF-8" standalone="no"?>
<!DOCTYPE svg PUBLIC "-//W3C//DTD SVG 1.1//EN"
 "http://www.w3.org/Graphics/SVG/1.1/DTD/svg11.dtd">
<!-- Generated by graphviz version 2.40.1 (20161225.0304)
 -->
<!-- Title: G Pages: 1 -->
<svg width="941pt" height="414pt"
 viewBox="0.00 0.00 941.00 414.00" xmlns="http://www.w3.org/2000/svg" xmlns:xlink="http://www.w3.org/1999/xlink">
<g id="graph0" class="graph" transform="scale(1 1) rotate(0) translate(4 410)">
<title>G</title>
<polygon fill="#ffffff" stroke="transparent" points="-4,4 -4,-410 937,-410 937,4 -4,4"/>
<g id="clust1" class="cluster">
<title>cluster_G</title>
<path fill="#808080" fill-opacity="0.094118" stroke="#000000" d="M20,-8C20,-8 913,-8 913,-8 919,-8 925,-14 925,-20 925,-20 925,-386 925,-386 925,-392 919,-398 913,-398 913,-398 20,-398 20,-398 14,-398 8,-392 8,-386 8,-386 8,-20 8,-20 8,-14 14,-8 20,-8"/>
</g>
<g id="clust2" class="cluster">
<title>cluster_BacterialTyper__scripts__bacteriophage</title>
<path fill="#808080" fill-opacity="0.094118" stroke="#000000" d="M112,-99C112,-99 512,-99 512,-99 518,-99 524,-105 524,-111 524,-111 524,-378 524,-378 524,-384 518,-390 512,-390 512,-390 112,-390 112,-390 106,-390 100,-384 100,-378 100,-378 100,-111 100,-111 100,-105 106,-99 112,-99"/>
<text text-anchor="middle" x="312" y="-374.8" font-family="Times,serif" font-size="14.00" fill="#000000">BacterialTyper.scripts.bacteriophage</text>
</g>
<g id="clust3" class="cluster">
<title>cluster_BacterialTyper__scripts__functions</title>
<path fill="#808080" fill-opacity="0.094118" stroke="#000000" d="M28,-16C28,-16 905,-16 905,-16 911,-16 917,-22 917,-28 917,-28 917,-79 917,-79 917,-85 911,-91 905,-91 905,-91 28,-91 28,-91 22,-91 16,-85 16,-79 16,-79 16,-28 16,-28 16,-22 22,-16 28,-16"/>
<text text-anchor="middle" x="466.5" y="-75.8" font-family="Times,serif" font-size="14.00" fill="#000000">BacterialTyper.scripts.functions</text>
</g>
<!-- BacterialTyper__scripts__bacteriophage__get_list_PhiSpy_trainingSets -->
<g id="node1" class="node">
<title>BacterialTyper__scripts__bacteriophage__get_list_PhiSpy_trainingSets</title>
<ellipse fill="#65b7ff" fill-opacity="0.698039" stroke="#000000" cx="220" cy="-125" rx="112.3801" ry="18"/>
<text text-anchor="middle" x="220" y="-121.3" font-family="Times,serif" font-size="14.00" fill="#000000">get_list_PhiSpy_trainingSets</text>
</g>
<!-- BacterialTyper__scripts__functions__parse_sublist -->
<g id="node11" class="node">
<title>BacterialTyper__scripts__functions__parse_sublist</title>
<ellipse fill="#a365ff" fill-opacity="0.698039" stroke="#000000" cx="81" cy="-42" rx="56.59" ry="18"/>
<text text-anchor="middle" x="81" y="-38.3" font-family="Times,serif" font-size="14.00" fill="#000000">parse_sublist</text>
</g>
<!-- BacterialTyper__scripts__bacteriophage__get_list_PhiSpy_trainingSets&#45;&gt;BacterialTyper__scripts__functions__parse_sublist -->
<g id="edge10" class="edge">
<title>BacterialTyper__scripts__bacteriophage__get_list_PhiSpy_trainingSets&#45;&gt;BacterialTyper__scripts__functions__parse_sublist</title>
<path fill="none" stroke="#000000" d="M122.5525,-115.8004C122.5525,-115.8004 122.5525,-64.4779 122.5525,-64.4779"/>
<polygon fill="#000000" stroke="#000000" points="126.0526,-64.4778 122.5525,-54.4779 119.0526,-64.4779 126.0526,-64.4778"/>
</g>
<!-- BacterialTyper__scripts__bacteriophage__help_PhiSpy -->
<g id="node2" class="node">
<title>BacterialTyper__scripts__bacteriophage__help_PhiSpy</title>
<ellipse fill="#65b7ff" fill-opacity="0.698039" stroke="#000000" cx="294" cy="-269" rx="55.7903" ry="18"/>
<text text-anchor="middle" x="294" y="-265.3" font-family="Times,serif" font-size="14.00" fill="#000000">help_PhiSpy</text>
</g>
<!-- BacterialTyper__scripts__bacteriophage__print_list_modified -->
<g id="node6" class="node">
<title>BacterialTyper__scripts__bacteriophage__print_list_modified</title>
<ellipse fill="#65b7ff" fill-opacity="0.698039" stroke="#000000" cx="190" cy="-197" rx="79.0865" ry="18"/>
<text text-anchor="middle" x="190" y="-193.3" font-family="Times,serif" font-size="14.00" fill="#000000">print_list_modified</text>
</g>
<!-- BacterialTyper__scripts__bacteriophage__help_PhiSpy&#45;&gt;BacterialTyper__scripts__bacteriophage__print_list_modified -->
<g id="edge11" class="edge">
<title>BacterialTyper__scripts__bacteriophage__help_PhiSpy&#45;&gt;BacterialTyper__scripts__bacteriophage__print_list_modified</title>
<path fill="none" stroke="#000000" d="M253.699,-256.4586C253.699,-256.4586 253.699,-217.9842 253.699,-217.9842"/>
<polygon fill="#000000" stroke="#000000" points="257.1991,-217.9842 253.699,-207.9842 250.1991,-217.9842 257.1991,-217.9842"/>
</g>
<!-- BacterialTyper__scripts__bacteriophage__help_options -->
<g id="node3" class="node">
<title>BacterialTyper__scripts__bacteriophage__help_options</title>
<ellipse fill="#65b7ff" fill-opacity="0.698039" stroke="#000000" cx="164" cy="-269" rx="55.7903" ry="18"/>
<text text-anchor="middle" x="164" y="-265.3" font-family="Times,serif" font-size="14.00" fill="#000000">help_options</text>
</g>
<!-- BacterialTyper__scripts__bacteriophage__help_options&#45;&gt;BacterialTyper__scripts__bacteriophage__print_list_modified -->
<g id="edge12" class="edge">
<title>BacterialTyper__scripts__bacteriophage__help_options&#45;&gt;BacterialTyper__scripts__bacteriophage__print_list_modified</title>
<path fill="none" stroke="#000000" d="M165.301,-250.8314C165.301,-250.8314 165.301,-224.4177 165.301,-224.4177"/>
<polygon fill="#000000" stroke="#000000" points="168.8011,-224.4177 165.301,-214.4177 161.8011,-224.4177 168.8011,-224.4177"/>
</g>
<!-- BacterialTyper__scripts__bacteriophage__ident_bacteriophage -->
<g id="node4" class="node">
<title>BacterialTyper__scripts__bacteriophage__ident_bacteriophage</title>
<ellipse fill="#65b7ff" fill-opacity="0.698039" stroke="#000000" cx="369" cy="-197" rx="81.7856" ry="18"/>
<text text-anchor="middle" x="369" y="-193.3" font-family="Times,serif" font-size="14.00" fill="#000000">ident_bacteriophage</text>
</g>
<!-- BacterialTyper__scripts__bacteriophage__ident_bacteriophage&#45;&gt;BacterialTyper__scripts__bacteriophage__get_list_PhiSpy_trainingSets -->
<g id="edge8" class="edge">
<title>BacterialTyper__scripts__bacteriophage__ident_bacteriophage&#45;&gt;BacterialTyper__scripts__bacteriophage__get_list_PhiSpy_trainingSets</title>
<path fill="none" stroke="#000000" d="M309.7736,-184.4586C309.7736,-184.4586 309.7736,-145.9842 309.7736,-145.9842"/>
<polygon fill="#000000" stroke="#000000" points="313.2737,-145.9842 309.7736,-135.9842 306.2737,-145.9842 313.2737,-145.9842"/>
</g>
<!-- BacterialTyper__scripts__functions__create_folder -->
<g id="node8" class="node">
<title>BacterialTyper__scripts__functions__create_folder</title>
<ellipse fill="#a365ff" fill-opacity="0.698039" stroke="#000000" cx="213" cy="-42" rx="57.3905" ry="18"/>
<text text-anchor="middle" x="213" y="-38.3" font-family="Times,serif" font-size="14.00" fill="#000000">create_folder</text>
</g>
<!-- BacterialTyper__scripts__bacteriophage__ident_bacteriophage&#45;&gt;BacterialTyper__scripts__functions__create_folder -->
<g id="edge6" class="edge">
<title>BacterialTyper__scripts__bacteriophage__ident_bacteriophage&#45;&gt;BacterialTyper__scripts__functions__create_folder</title>
<path fill="none" stroke="#000000" d="M357.3659,-178.9364C357.3659,-146.7915 357.3659,-83 357.3659,-83 357.3659,-83 213,-83 213,-83 213,-83 213,-70.1025 213,-70.1025"/>
<polygon fill="#000000" stroke="#000000" points="216.5001,-70.1025 213,-60.1025 209.5001,-70.1026 216.5001,-70.1025"/>
</g>
<!-- BacterialTyper__scripts__functions__print_time_stamp -->
<g id="node12" class="node">
<title>BacterialTyper__scripts__functions__print_time_stamp</title>
<ellipse fill="#a365ff" fill-opacity="0.698039" stroke="#000000" cx="524" cy="-42" rx="73.387" ry="18"/>
<text text-anchor="middle" x="524" y="-38.3" font-family="Times,serif" font-size="14.00" fill="#000000">print_time_stamp</text>
</g>
<!-- BacterialTyper__scripts__bacteriophage__ident_bacteriophage&#45;&gt;BacterialTyper__scripts__functions__print_time_stamp -->
<g id="edge7" class="edge">
<title>BacterialTyper__scripts__bacteriophage__ident_bacteriophage&#45;&gt;BacterialTyper__scripts__functions__print_time_stamp</title>
<path fill="none" stroke="#000000" d="M441.3501,-188.2224C441.3501,-155.4332 441.3501,-42 441.3501,-42 441.3501,-42 442.2661,-42 442.2661,-42"/>
<polygon fill="#000000" stroke="#000000" points="440.5109,-45.5001 450.5108,-42 440.5108,-38.5001 440.5109,-45.5001"/>
</g>
<!-- BacterialTyper__scripts__functions__read_time_stamp -->
<g id="node13" class="node">
<title>BacterialTyper__scripts__functions__read_time_stamp</title>
<ellipse fill="#a365ff" fill-opacity="0.698039" stroke="#000000" cx="360" cy="-42" rx="72.2875" ry="18"/>
<text text-anchor="middle" x="360" y="-38.3" font-family="Times,serif" font-size="14.00" fill="#000000">read_time_stamp</text>
</g>
<!-- BacterialTyper__scripts__bacteriophage__ident_bacteriophage&#45;&gt;BacterialTyper__scripts__functions__read_time_stamp -->
<g id="edge5" class="edge">
<title>BacterialTyper__scripts__bacteriophage__ident_bacteriophage&#45;&gt;BacterialTyper__scripts__functions__read_time_stamp</title>
<path fill="none" stroke="#000000" d="M382.2918,-179.2195C382.2918,-179.2195 382.2918,-69.5731 382.2918,-69.5731"/>
<polygon fill="#000000" stroke="#000000" points="385.7919,-69.5731 382.2918,-59.5731 378.7919,-69.5731 385.7919,-69.5731"/>
</g>
<!-- BacterialTyper__scripts__bacteriophage__main -->
<g id="node5" class="node">
<title>BacterialTyper__scripts__bacteriophage__main</title>
<ellipse fill="#65b7ff" fill-opacity="0.698039" stroke="#000000" cx="369" cy="-341" rx="28.6953" ry="18"/>
<text text-anchor="middle" x="369" y="-337.3" font-family="Times,serif" font-size="14.00" fill="#000000">main</text>
</g>
<!-- BacterialTyper__scripts__bacteriophage__main&#45;&gt;BacterialTyper__scripts__bacteriophage__help_options -->
<g id="edge15" class="edge">
<title>BacterialTyper__scripts__bacteriophage__main&#45;&gt;BacterialTyper__scripts__bacteriophage__help_options</title>
<path fill="none" stroke="#000000" d="M340.0633,-341C283.5549,-341 164,-341 164,-341 164,-341 164,-297.1686 164,-297.1686"/>
<polygon fill="#000000" stroke="#000000" points="167.5001,-297.1686 164,-287.1686 160.5001,-297.1687 167.5001,-297.1686"/>
</g>
<!-- BacterialTyper__scripts__bacteriophage__main&#45;&gt;BacterialTyper__scripts__bacteriophage__ident_bacteriophage -->
<g id="edge14" class="edge">
<title>BacterialTyper__scripts__bacteriophage__main&#45;&gt;BacterialTyper__scripts__bacteriophage__ident_bacteriophage</title>
<path fill="none" stroke="#000000" d="M369.1003,-322.7623C369.1003,-322.7623 369.1003,-225.0896 369.1003,-225.0896"/>
<polygon fill="#000000" stroke="#000000" points="372.6004,-225.0896 369.1003,-215.0896 365.6004,-225.0897 372.6004,-225.0896"/>
</g>
<!-- BacterialTyper__scripts__bacteriophage__results_PhiSpy -->
<g id="node7" class="node">
<title>BacterialTyper__scripts__bacteriophage__results_PhiSpy</title>
<ellipse fill="#65b7ff" fill-opacity="0.698039" stroke="#000000" cx="452" cy="-269" rx="63.8893" ry="18"/>
<text text-anchor="middle" x="452" y="-265.3" font-family="Times,serif" font-size="14.00" fill="#000000">results_PhiSpy</text>
</g>
<!-- BacterialTyper__scripts__bacteriophage__main&#45;&gt;BacterialTyper__scripts__bacteriophage__results_PhiSpy -->
<g id="edge13" class="edge">
<title>BacterialTyper__scripts__bacteriophage__main&#45;&gt;BacterialTyper__scripts__bacteriophage__results_PhiSpy</title>
<path fill="none" stroke="#000000" d="M392.9516,-330.9887C392.9516,-330.9887 392.9516,-285.9037 392.9516,-285.9037"/>
<polygon fill="#000000" stroke="#000000" points="396.4517,-285.9036 392.9516,-275.9037 389.4517,-285.9037 396.4517,-285.9036"/>
</g>
<!-- BacterialTyper__scripts__bacteriophage__print_list_modified&#45;&gt;BacterialTyper__scripts__bacteriophage__get_list_PhiSpy_trainingSets -->
<g id="edge9" class="edge">
<title>BacterialTyper__scripts__bacteriophage__print_list_modified&#45;&gt;BacterialTyper__scripts__bacteriophage__get_list_PhiSpy_trainingSets</title>
<path fill="none" stroke="#000000" d="M190,-178.8314C190,-178.8314 190,-152.4177 190,-152.4177"/>
<polygon fill="#000000" stroke="#000000" points="193.5001,-152.4177 190,-142.4177 186.5001,-152.4177 193.5001,-152.4177"/>
</g>
<!-- BacterialTyper__scripts__functions__create_subfolder -->
<g id="node9" class="node">
<title>BacterialTyper__scripts__functions__create_subfolder</title>
<ellipse fill="#a365ff" fill-opacity="0.698039" stroke="#000000" cx="685" cy="-42" rx="69.5877" ry="18"/>
<text text-anchor="middle" x="685" y="-38.3" font-family="Times,serif" font-size="14.00" fill="#000000">create_subfolder</text>
</g>
<!-- BacterialTyper__scripts__bacteriophage__results_PhiSpy&#45;&gt;BacterialTyper__scripts__functions__create_subfolder -->
<g id="edge2" class="edge">
<title>BacterialTyper__scripts__bacteriophage__results_PhiSpy&#45;&gt;BacterialTyper__scripts__functions__create_subfolder</title>
<path fill="none" stroke="#000000" d="M512.3063,-263C581.3433,-263 685,-263 685,-263 685,-263 685,-70.0854 685,-70.0854"/>
<polygon fill="#000000" stroke="#000000" points="688.5001,-70.0853 685,-60.0854 681.5001,-70.0854 688.5001,-70.0853"/>
</g>
<!-- BacterialTyper__scripts__functions__get_fullpath_list -->
<g id="node10" class="node">
<title>BacterialTyper__scripts__functions__get_fullpath_list</title>
<ellipse fill="#a365ff" fill-opacity="0.698039" stroke="#000000" cx="841" cy="-42" rx="68.4888" ry="18"/>
<text text-anchor="middle" x="841" y="-38.3" font-family="Times,serif" font-size="14.00" fill="#000000">get_fullpath_list</text>
</g>
<!-- BacterialTyper__scripts__bacteriophage__results_PhiSpy&#45;&gt;BacterialTyper__scripts__functions__get_fullpath_list -->
<g id="edge4" class="edge">
<title>BacterialTyper__scripts__bacteriophage__results_PhiSpy&#45;&gt;BacterialTyper__scripts__functions__get_fullpath_list</title>
<path fill="none" stroke="#000000" d="M512.3544,-275C621.6173,-275 841,-275 841,-275 841,-275 841,-70.2831 841,-70.2831"/>
<polygon fill="#000000" stroke="#000000" points="844.5001,-70.2831 841,-60.2831 837.5001,-70.2832 844.5001,-70.2831"/>
</g>
<!-- BacterialTyper__scripts__bacteriophage__results_PhiSpy&#45;&gt;BacterialTyper__scripts__functions__print_time_stamp -->
<g id="edge3" class="edge">
<title>BacterialTyper__scripts__bacteriophage__results_PhiSpy&#45;&gt;BacterialTyper__scripts__functions__print_time_stamp</title>
<path fill="none" stroke="#000000" d="M494.0938,-255.4799C494.0938,-255.4799 494.0938,-68.7494 494.0938,-68.7494"/>
<polygon fill="#000000" stroke="#000000" points="497.5939,-68.7494 494.0938,-58.7494 490.5939,-68.7495 497.5939,-68.7494"/>
</g>
<!-- BacterialTyper__scripts__bacteriophage__results_PhiSpy&#45;&gt;BacterialTyper__scripts__functions__read_time_stamp -->
<g id="edge1" class="edge">
<title>BacterialTyper__scripts__bacteriophage__results_PhiSpy&#45;&gt;BacterialTyper__scripts__functions__read_time_stamp</title>
<path fill="none" stroke="#000000" d="M472.4933,-251.6479C472.4933,-221.1188 472.4933,-161 472.4933,-161 472.4933,-161 407.2177,-161 407.2177,-161 407.2177,-161 407.2177,-65.6508 407.2177,-65.6508"/>
<polygon fill="#000000" stroke="#000000" points="410.7178,-65.6508 407.2177,-55.6508 403.7178,-65.6508 410.7178,-65.6508"/>
</g>
</g>
</svg>
