<?xml version="1.0" encoding="UTF-8" standalone="no"?>
<!DOCTYPE svg PUBLIC "-//W3C//DTD SVG 1.1//EN"
 "http://www.w3.org/Graphics/SVG/1.1/DTD/svg11.dtd">
<!-- Generated by graphviz version 2.40.1 (20161225.0304)
 -->
<!-- Title: G Pages: 1 -->
<svg width="941pt" height="414pt"
 viewBox="0.00 0.00 941.00 414.00" xmlns="http://www.w3.org/2000/svg" xmlns:xlink="http://www.w3.org/1999/xlink">
<g id="graph0" class="graph" transform="scale(1 1) rotate(0) translate(4 410)">
<title>G</title>
<polygon fill="#ffffff" stroke="transparent" points="-4,4 -4,-410 937,-410 937,4 -4,4"/>
<g id="clust1" class="cluster">
<title>cluster_G</title>
<path fill="#808080" fill-opacity="0.094118" stroke="#000000" d="M20,-8C20,-8 913,-8 913,-8 919,-8 925,-14 925,-20 925,-20 925,-386 925,-386 925,-392 919,-398 913,-398 913,-398 20,-398 20,-398 14,-398 8,-392 8,-386 8,-386 8,-20 8,-20 8,-14 14,-8 20,-8"/>
</g>
<g id="clust2" class="cluster">
<title>cluster_BacterialTyper__scripts__bacteriophage</title>
<path fill="#808080" fill-opacity="0.094118" stroke="#000000" d="M112,-99C112,-99 512,-99 512,-99 518,-99 524,-105 524,-111 524,-111 524,-378 524,-378 524,-384 518,-390 512,-390 512,-390 112,-390 112,-390 106,-390 100,-384 100,-378 100,-378 100,-111 100,-111 100,-105 106,-99 112,-99"/>
<text text-anchor="middle" x="312" y="-374.8" font-family="Times,serif" font-size="14.00" fill="#000000">BacterialTyper.scripts.bacteriophage</text>
</g>
<g id="clust3" class="cluster">
<title>cluster_BacterialTyper__scripts__functions</title>
<path fill="#808080" fill-opacity="0.094118" stroke="#000000" d="M28,-16C28,-16 905,-16 905,-16 911,-16 917,-22 917,-28 917,-28 917,-79 917,-79 917,-85 911,-91 905,-91 905,-91 28,-91 28,-91 22,-91 16,-85 16,-79 16,-79 16,-28 16,-28 16,-22 22,-16 28,-16"/>
<text text-anchor="middle" x="466.5" y="-75.8" font-family="Times,serif" font-size="14.00" fill="#000000">BacterialTyper.scripts.functions</text>
</g>
<!-- BacterialTyper__scripts__bacteriophage__get_list_PhiSpy_trainingSets -->
<g id="node1" class="node">
<title>BacterialTyper__scripts__bacteriophage__get_list_PhiSpy_trainingSets</title>
<ellipse fill="#65b7ff" fill-opacity="0.698039" stroke="#000000" cx="220" cy="-125" rx="112.3801" ry="18"/>
<text text-anchor="middle" x="220" y="-121.3" font-family="Times,serif" font-size="14.00" fill="#000000">get_list_PhiSpy_trainingSets</text>
</g>
<!-- BacterialTyper__scripts__functions__parse_sublist -->
<g id="node11" class="node">
<title>BacterialTyper__scripts__functions__parse_sublist</title>
<ellipse fill="#a365ff" fill-opacity="0.698039" stroke="#000000" cx="81" cy="-42" rx="56.59" ry="18"/>
<text text-anchor="middle" x="81" y="-38.3" font-family="Times,serif" font-size="14.00" fill="#000000">parse_sublist</text>
</g>
<!-- BacterialTyper__scripts__bacteriophage__get_list_PhiSpy_trainingSets&#45;&gt;BacterialTyper__scripts__functions__parse_sublist -->
<g id="edge10" class="edge">
<title>BacterialTyper__scripts__bacteriophage__get_list_PhiSpy_trainingSets&#45;&gt;BacterialTyper__scripts__functions__parse_sublist</title>
<path fill="none" stroke="#000000" d="M179.8453,-108.0737C168.9573,-103.0095 157.3296,-97.1534 147,-91 134.2012,-83.3757 120.866,-73.8216 109.5599,-65.1794"/>
<polygon fill="#000000" stroke="#000000" points="111.3945,-62.1723 101.3522,-58.7954 107.0968,-67.6977 111.3945,-62.1723"/>
</g>
<!-- BacterialTyper__scripts__bacteriophage__help_PhiSpy -->
<g id="node2" class="node">
<title>BacterialTyper__scripts__bacteriophage__help_PhiSpy</title>
<ellipse fill="#65b7ff" fill-opacity="0.698039" stroke="#000000" cx="294" cy="-269" rx="55.7903" ry="18"/>
<text text-anchor="middle" x="294" y="-265.3" font-family="Times,serif" font-size="14.00" fill="#000000">help_PhiSpy</text>
</g>
<!-- BacterialTyper__scripts__bacteriophage__print_list_modified -->
<g id="node6" class="node">
<title>BacterialTyper__scripts__bacteriophage__print_list_modified</title>
<ellipse fill="#65b7ff" fill-opacity="0.698039" stroke="#000000" cx="190" cy="-197" rx="79.0865" ry="18"/>
<text text-anchor="middle" x="190" y="-193.3" font-family="Times,serif" font-size="14.00" fill="#000000">print_list_modified</text>
</g>
<!-- BacterialTyper__scripts__bacteriophage__help_PhiSpy&#45;&gt;BacterialTyper__scripts__bacteriophage__print_list_modified -->
<g id="edge11" class="edge">
<title>BacterialTyper__scripts__bacteriophage__help_PhiSpy&#45;&gt;BacterialTyper__scripts__bacteriophage__print_list_modified</title>
<path fill="none" stroke="#000000" d="M270.4008,-252.6621C256.4445,-243 238.551,-230.6122 223.189,-219.977"/>
<polygon fill="#000000" stroke="#000000" points="225.1703,-217.0917 214.9561,-214.2773 221.1858,-222.8471 225.1703,-217.0917"/>
</g>
<!-- BacterialTyper__scripts__bacteriophage__help_options -->
<g id="node3" class="node">
<title>BacterialTyper__scripts__bacteriophage__help_options</title>
<ellipse fill="#65b7ff" fill-opacity="0.698039" stroke="#000000" cx="164" cy="-269" rx="55.7903" ry="18"/>
<text text-anchor="middle" x="164" y="-265.3" font-family="Times,serif" font-size="14.00" fill="#000000">help_options</text>
</g>
<!-- BacterialTyper__scripts__bacteriophage__help_options&#45;&gt;BacterialTyper__scripts__bacteriophage__print_list_modified -->
<g id="edge12" class="edge">
<title>BacterialTyper__scripts__bacteriophage__help_options&#45;&gt;BacterialTyper__scripts__bacteriophage__print_list_modified</title>
<path fill="none" stroke="#000000" d="M170.5609,-250.8314C173.4027,-242.9617 176.7937,-233.5712 179.9419,-224.8533"/>
<polygon fill="#000000" stroke="#000000" points="183.2462,-226.0076 183.3508,-215.4133 176.6623,-223.63 183.2462,-226.0076"/>
</g>
<!-- BacterialTyper__scripts__bacteriophage__ident_bacteriophage -->
<g id="node4" class="node">
<title>BacterialTyper__scripts__bacteriophage__ident_bacteriophage</title>
<ellipse fill="#65b7ff" fill-opacity="0.698039" stroke="#000000" cx="369" cy="-197" rx="81.7856" ry="18"/>
<text text-anchor="middle" x="369" y="-193.3" font-family="Times,serif" font-size="14.00" fill="#000000">ident_bacteriophage</text>
</g>
<!-- BacterialTyper__scripts__bacteriophage__ident_bacteriophage&#45;&gt;BacterialTyper__scripts__bacteriophage__get_list_PhiSpy_trainingSets -->
<g id="edge8" class="edge">
<title>BacterialTyper__scripts__bacteriophage__ident_bacteriophage&#45;&gt;BacterialTyper__scripts__bacteriophage__get_list_PhiSpy_trainingSets</title>
<path fill="none" stroke="#000000" d="M334.8164,-180.4817C313.9746,-170.4106 287.1088,-157.4284 264.6055,-146.5543"/>
<polygon fill="#000000" stroke="#000000" points="266.1065,-143.3925 255.5797,-142.1929 263.0608,-149.6952 266.1065,-143.3925"/>
</g>
<!-- BacterialTyper__scripts__functions__create_folder -->
<g id="node8" class="node">
<title>BacterialTyper__scripts__functions__create_folder</title>
<ellipse fill="#a365ff" fill-opacity="0.698039" stroke="#000000" cx="213" cy="-42" rx="57.3905" ry="18"/>
<text text-anchor="middle" x="213" y="-38.3" font-family="Times,serif" font-size="14.00" fill="#000000">create_folder</text>
</g>
<!-- BacterialTyper__scripts__bacteriophage__ident_bacteriophage&#45;&gt;BacterialTyper__scripts__functions__create_folder -->
<g id="edge6" class="edge">
<title>BacterialTyper__scripts__bacteriophage__ident_bacteriophage&#45;&gt;BacterialTyper__scripts__functions__create_folder</title>
<path fill="none" stroke="#000000" d="M366.254,-178.9627C362.011,-153.6161 353.0728,-109.3856 341,-99 319.9371,-80.8808 304.766,-101.3954 279,-91 264.41,-85.1136 250.1465,-75.2102 238.634,-65.841"/>
<polygon fill="#000000" stroke="#000000" points="240.6637,-62.9734 230.7719,-59.1783 236.1381,-68.3137 240.6637,-62.9734"/>
</g>
<!-- BacterialTyper__scripts__functions__print_time_stamp -->
<g id="node12" class="node">
<title>BacterialTyper__scripts__functions__print_time_stamp</title>
<ellipse fill="#a365ff" fill-opacity="0.698039" stroke="#000000" cx="524" cy="-42" rx="73.387" ry="18"/>
<text text-anchor="middle" x="524" y="-38.3" font-family="Times,serif" font-size="14.00" fill="#000000">print_time_stamp</text>
</g>
<!-- BacterialTyper__scripts__bacteriophage__ident_bacteriophage&#45;&gt;BacterialTyper__scripts__functions__print_time_stamp -->
<g id="edge7" class="edge">
<title>BacterialTyper__scripts__bacteriophage__ident_bacteriophage&#45;&gt;BacterialTyper__scripts__functions__print_time_stamp</title>
<path fill="none" stroke="#000000" d="M386.7805,-179.2195C414.4604,-151.5396 467.9289,-98.0711 499.3259,-66.6741"/>
<polygon fill="#000000" stroke="#000000" points="501.8307,-69.1191 506.4269,-59.5731 496.8809,-64.1693 501.8307,-69.1191"/>
</g>
<!-- BacterialTyper__scripts__functions__read_time_stamp -->
<g id="node13" class="node">
<title>BacterialTyper__scripts__functions__read_time_stamp</title>
<ellipse fill="#a365ff" fill-opacity="0.698039" stroke="#000000" cx="360" cy="-42" rx="72.2875" ry="18"/>
<text text-anchor="middle" x="360" y="-38.3" font-family="Times,serif" font-size="14.00" fill="#000000">read_time_stamp</text>
</g>
<!-- BacterialTyper__scripts__bacteriophage__ident_bacteriophage&#45;&gt;BacterialTyper__scripts__functions__read_time_stamp -->
<g id="edge5" class="edge">
<title>BacterialTyper__scripts__bacteriophage__ident_bacteriophage&#45;&gt;BacterialTyper__scripts__functions__read_time_stamp</title>
<path fill="none" stroke="#000000" d="M367.95,-178.9162C366.407,-152.3422 363.5115,-102.4757 361.6734,-70.819"/>
<polygon fill="#000000" stroke="#000000" points="365.1451,-70.2294 361.0712,-60.4491 358.1569,-70.6352 365.1451,-70.2294"/>
</g>
<!-- BacterialTyper__scripts__bacteriophage__main -->
<g id="node5" class="node">
<title>BacterialTyper__scripts__bacteriophage__main</title>
<ellipse fill="#65b7ff" fill-opacity="0.698039" stroke="#000000" cx="369" cy="-341" rx="28.6953" ry="18"/>
<text text-anchor="middle" x="369" y="-337.3" font-family="Times,serif" font-size="14.00" fill="#000000">main</text>
</g>
<!-- BacterialTyper__scripts__bacteriophage__main&#45;&gt;BacterialTyper__scripts__bacteriophage__help_options -->
<g id="edge14" class="edge">
<title>BacterialTyper__scripts__bacteriophage__main&#45;&gt;BacterialTyper__scripts__bacteriophage__help_options</title>
<path fill="none" stroke="#000000" d="M343.863,-332.1714C311.0014,-320.6298 252.7763,-300.18 211.4821,-285.6767"/>
<polygon fill="#000000" stroke="#000000" points="212.4937,-282.3224 201.8989,-282.3108 210.174,-288.9269 212.4937,-282.3224"/>
</g>
<!-- BacterialTyper__scripts__bacteriophage__main&#45;&gt;BacterialTyper__scripts__bacteriophage__ident_bacteriophage -->
<g id="edge13" class="edge">
<title>BacterialTyper__scripts__bacteriophage__main&#45;&gt;BacterialTyper__scripts__bacteriophage__ident_bacteriophage</title>
<path fill="none" stroke="#000000" d="M369,-322.7623C369,-298.201 369,-254.2474 369,-225.3541"/>
<polygon fill="#000000" stroke="#000000" points="372.5001,-225.0896 369,-215.0896 365.5001,-225.0897 372.5001,-225.0896"/>
</g>
<!-- BacterialTyper__scripts__bacteriophage__results_PhiSpy -->
<g id="node7" class="node">
<title>BacterialTyper__scripts__bacteriophage__results_PhiSpy</title>
<ellipse fill="#65b7ff" fill-opacity="0.698039" stroke="#000000" cx="452" cy="-269" rx="63.8893" ry="18"/>
<text text-anchor="middle" x="452" y="-265.3" font-family="Times,serif" font-size="14.00" fill="#000000">results_PhiSpy</text>
</g>
<!-- BacterialTyper__scripts__bacteriophage__main&#45;&gt;BacterialTyper__scripts__bacteriophage__results_PhiSpy -->
<g id="edge15" class="edge">
<title>BacterialTyper__scripts__bacteriophage__main&#45;&gt;BacterialTyper__scripts__bacteriophage__results_PhiSpy</title>
<path fill="none" stroke="#000000" d="M385.7963,-326.4297C396.8584,-316.8337 411.6024,-304.0437 424.3682,-292.9697"/>
<polygon fill="#000000" stroke="#000000" points="426.7501,-295.537 432.0105,-286.3403 422.1631,-290.2492 426.7501,-295.537"/>
</g>
<!-- BacterialTyper__scripts__bacteriophage__print_list_modified&#45;&gt;BacterialTyper__scripts__bacteriophage__get_list_PhiSpy_trainingSets -->
<g id="edge9" class="edge">
<title>BacterialTyper__scripts__bacteriophage__print_list_modified&#45;&gt;BacterialTyper__scripts__bacteriophage__get_list_PhiSpy_trainingSets</title>
<path fill="none" stroke="#000000" d="M197.5703,-178.8314C200.8493,-170.9617 204.762,-161.5712 208.3945,-152.8533"/>
<polygon fill="#000000" stroke="#000000" points="211.7124,-153.9902 212.3278,-143.4133 205.2508,-151.2979 211.7124,-153.9902"/>
</g>
<!-- BacterialTyper__scripts__functions__create_subfolder -->
<g id="node9" class="node">
<title>BacterialTyper__scripts__functions__create_subfolder</title>
<ellipse fill="#a365ff" fill-opacity="0.698039" stroke="#000000" cx="685" cy="-42" rx="69.5877" ry="18"/>
<text text-anchor="middle" x="685" y="-38.3" font-family="Times,serif" font-size="14.00" fill="#000000">create_subfolder</text>
</g>
<!-- BacterialTyper__scripts__bacteriophage__results_PhiSpy&#45;&gt;BacterialTyper__scripts__functions__create_subfolder -->
<g id="edge1" class="edge">
<title>BacterialTyper__scripts__bacteriophage__results_PhiSpy&#45;&gt;BacterialTyper__scripts__functions__create_subfolder</title>
<path fill="none" stroke="#000000" d="M469.8962,-251.5646C510.9799,-211.5389 612.1579,-112.9664 659.6329,-66.7139"/>
<polygon fill="#000000" stroke="#000000" points="662.3225,-68.98 667.0428,-59.4948 657.4377,-63.9661 662.3225,-68.98"/>
</g>
<!-- BacterialTyper__scripts__functions__get_fullpath_list -->
<g id="node10" class="node">
<title>BacterialTyper__scripts__functions__get_fullpath_list</title>
<ellipse fill="#a365ff" fill-opacity="0.698039" stroke="#000000" cx="841" cy="-42" rx="68.4888" ry="18"/>
<text text-anchor="middle" x="841" y="-38.3" font-family="Times,serif" font-size="14.00" fill="#000000">get_fullpath_list</text>
</g>
<!-- BacterialTyper__scripts__bacteriophage__results_PhiSpy&#45;&gt;BacterialTyper__scripts__functions__get_fullpath_list -->
<g id="edge4" class="edge">
<title>BacterialTyper__scripts__bacteriophage__results_PhiSpy&#45;&gt;BacterialTyper__scripts__functions__get_fullpath_list</title>
<path fill="none" stroke="#000000" d="M481.5242,-252.7799C537.2311,-222.038 661.4623,-152.826 764,-91 778.002,-82.5574 793.2265,-72.9597 806.413,-64.5099"/>
<polygon fill="#000000" stroke="#000000" points="808.6604,-67.2258 815.1765,-58.8717 804.8729,-61.3389 808.6604,-67.2258"/>
</g>
<!-- BacterialTyper__scripts__bacteriophage__results_PhiSpy&#45;&gt;BacterialTyper__scripts__functions__print_time_stamp -->
<g id="edge3" class="edge">
<title>BacterialTyper__scripts__bacteriophage__results_PhiSpy&#45;&gt;BacterialTyper__scripts__functions__print_time_stamp</title>
<path fill="none" stroke="#000000" d="M460.4633,-250.7336C465.0878,-240.3778 470.7263,-227.1072 475,-215 492.7029,-164.8481 508.5456,-104.8248 517.1632,-70.2831"/>
<polygon fill="#000000" stroke="#000000" points="520.5991,-70.9681 519.5997,-60.4205 513.8034,-69.2892 520.5991,-70.9681"/>
</g>
<!-- BacterialTyper__scripts__bacteriophage__results_PhiSpy&#45;&gt;BacterialTyper__scripts__functions__read_time_stamp -->
<g id="edge2" class="edge">
<title>BacterialTyper__scripts__bacteriophage__results_PhiSpy&#45;&gt;BacterialTyper__scripts__functions__read_time_stamp</title>
<path fill="none" stroke="#000000" d="M457.7226,-250.9364C462.6478,-232.4175 467.8309,-203.0107 460,-179 445.5195,-134.6007 410.6017,-92.6337 386.1261,-67.1253"/>
<polygon fill="#000000" stroke="#000000" points="388.3992,-64.4443 378.8996,-59.7528 383.4001,-69.3443 388.3992,-64.4443"/>
</g>
</g>
</svg>
