<?xml version="1.0" encoding="UTF-8" standalone="no"?>
<!DOCTYPE svg PUBLIC "-//W3C//DTD SVG 1.1//EN"
 "http://www.w3.org/Graphics/SVG/1.1/DTD/svg11.dtd">
<!-- Generated by graphviz version 2.40.1 (20161225.0304)
 -->
<!-- Title: G Pages: 1 -->
<svg width="1030pt" height="497pt"
 viewBox="0.00 0.00 1030.00 497.00" xmlns="http://www.w3.org/2000/svg" xmlns:xlink="http://www.w3.org/1999/xlink">
<g id="graph0" class="graph" transform="scale(1 1) rotate(0) translate(4 493)">
<title>G</title>
<polygon fill="#ffffff" stroke="transparent" points="-4,4 -4,-493 1026,-493 1026,4 -4,4"/>
<g id="clust1" class="cluster">
<title>cluster_G</title>
<path fill="#808080" fill-opacity="0.094118" stroke="#000000" d="M20,-8C20,-8 1002,-8 1002,-8 1008,-8 1014,-14 1014,-20 1014,-20 1014,-469 1014,-469 1014,-475 1008,-481 1002,-481 1002,-481 20,-481 20,-481 14,-481 8,-475 8,-469 8,-469 8,-20 8,-20 8,-14 14,-8 20,-8"/>
</g>
<g id="clust2" class="cluster">
<title>cluster_BacterialTyper__scripts__blast_parser</title>
<path fill="#808080" fill-opacity="0.094118" stroke="#000000" d="M28,-16C28,-16 994,-16 994,-16 1000,-16 1006,-22 1006,-28 1006,-28 1006,-461 1006,-461 1006,-467 1000,-473 994,-473 994,-473 28,-473 28,-473 22,-473 16,-467 16,-461 16,-461 16,-28 16,-28 16,-22 22,-16 28,-16"/>
<text text-anchor="middle" x="511" y="-457.8" font-family="Times,serif" font-size="14.00" fill="#000000">BacterialTyper.scripts.blast_parser</text>
</g>
<g id="clust3" class="cluster">
<title>cluster_BacterialTyper__scripts__blast_parser__BlastRecord</title>
<path fill="#808080" fill-opacity="0.094118" stroke="#000000" d="M118,-179C118,-179 954,-179 954,-179 960,-179 966,-185 966,-191 966,-191 966,-314 966,-314 966,-320 960,-326 954,-326 954,-326 118,-326 118,-326 112,-326 106,-320 106,-314 106,-314 106,-191 106,-191 106,-185 112,-179 118,-179"/>
<text text-anchor="middle" x="536" y="-310.8" font-family="Times,serif" font-size="14.00" fill="#000000">BacterialTyper.scripts.blast_parser.BlastRecord</text>
</g>
<g id="clust4" class="cluster">
<title>cluster_BacterialTyper__scripts__blast_parser__Hsp</title>
<path fill="#808080" fill-opacity="0.094118" stroke="#000000" d="M68,-24C68,-24 319,-24 319,-24 325,-24 331,-30 331,-36 331,-36 331,-159 331,-159 331,-165 325,-171 319,-171 319,-171 68,-171 68,-171 62,-171 56,-165 56,-159 56,-159 56,-36 56,-36 56,-30 62,-24 68,-24"/>
<text text-anchor="middle" x="193.5" y="-155.8" font-family="Times,serif" font-size="14.00" fill="#000000">BacterialTyper.scripts.blast_parser.Hsp</text>
</g>
<!-- BacterialTyper__scripts__blast_parser__BlastRecord -->
<g id="node1" class="node">
<title>BacterialTyper__scripts__blast_parser__BlastRecord</title>
<ellipse fill="#65a3ff" fill-opacity="0.698039" stroke="#000000" cx="574" cy="-352" rx="53.8905" ry="18"/>
<text text-anchor="middle" x="574" y="-348.3" font-family="Times,serif" font-size="14.00" fill="#000000">BlastRecord</text>
</g>
<!-- BacterialTyper__scripts__blast_parser__BlastRecord____init__ -->
<g id="node4" class="node">
<title>BacterialTyper__scripts__blast_parser__BlastRecord____init__</title>
<ellipse fill="#3284ff" fill-opacity="0.698039" stroke="#000000" cx="154" cy="-277" rx="40.0939" ry="18"/>
<text text-anchor="middle" x="154" y="-273.3" font-family="Times,serif" font-size="14.00" fill="#000000">__init__</text>
</g>
<!-- BacterialTyper__scripts__blast_parser__BlastRecord&#45;&gt;BacterialTyper__scripts__blast_parser__BlastRecord____init__ -->
<g id="edge10" class="edge">
<title>BacterialTyper__scripts__blast_parser__BlastRecord&#45;&gt;BacterialTyper__scripts__blast_parser__BlastRecord____init__</title>
<path fill="none" stroke="transparent" stroke-dasharray="5,2" d="M520.614,-349.2454C421.3712,-343.9874 217.1923,-332.4691 203,-326 191.3158,-320.6741 180.8568,-311.2715 172.6325,-302.1175"/>
<polygon fill="transparent" stroke="transparent" points="175.1235,-299.6417 166.0058,-294.2457 169.7684,-304.1499 175.1235,-299.6417"/>
</g>
<!-- BacterialTyper__scripts__blast_parser__BlastRecord____str__ -->
<g id="node5" class="node">
<title>BacterialTyper__scripts__blast_parser__BlastRecord____str__</title>
<ellipse fill="#3284ff" fill-opacity="0.698039" stroke="#000000" cx="785" cy="-277" rx="37.0935" ry="18"/>
<text text-anchor="middle" x="785" y="-273.3" font-family="Times,serif" font-size="14.00" fill="#000000">__str__</text>
</g>
<!-- BacterialTyper__scripts__blast_parser__BlastRecord&#45;&gt;BacterialTyper__scripts__blast_parser__BlastRecord____str__ -->
<g id="edge11" class="edge">
<title>BacterialTyper__scripts__blast_parser__BlastRecord&#45;&gt;BacterialTyper__scripts__blast_parser__BlastRecord____str__</title>
<path fill="none" stroke="transparent" stroke-dasharray="5,2" d="M626.3711,-347.4656C667.1411,-343.2535 719.9035,-336.1033 739,-326 749.7391,-320.3183 759.3522,-311.1522 766.9788,-302.2761"/>
<polygon fill="transparent" stroke="transparent" points="769.8464,-304.2957 773.3995,-294.3144 764.3975,-299.9014 769.8464,-304.2957"/>
</g>
<!-- BacterialTyper__scripts__blast_parser__BlastRecord___format -->
<g id="node6" class="node">
<title>BacterialTyper__scripts__blast_parser__BlastRecord___format</title>
<ellipse fill="#3284ff" fill-opacity="0.698039" stroke="#000000" cx="673" cy="-277" rx="38.9931" ry="18"/>
<text text-anchor="middle" x="673" y="-273.3" font-family="Times,serif" font-size="14.00" fill="#000000">_format</text>
</g>
<!-- BacterialTyper__scripts__blast_parser__BlastRecord&#45;&gt;BacterialTyper__scripts__blast_parser__BlastRecord___format -->
<g id="edge7" class="edge">
<title>BacterialTyper__scripts__blast_parser__BlastRecord&#45;&gt;BacterialTyper__scripts__blast_parser__BlastRecord___format</title>
<path fill="none" stroke="transparent" stroke-dasharray="5,2" d="M606.4979,-337.4354C612.858,-334.0378 619.3133,-330.1776 625,-326 634.5522,-318.9828 643.9325,-310.0152 651.8305,-301.6745"/>
<polygon fill="transparent" stroke="transparent" points="654.4474,-303.9994 658.6296,-294.2649 649.2897,-299.2667 654.4474,-303.9994"/>
</g>
<!-- BacterialTyper__scripts__blast_parser__BlastRecord__best_hits -->
<g id="node7" class="node">
<title>BacterialTyper__scripts__blast_parser__BlastRecord__best_hits</title>
<ellipse fill="#3284ff" fill-opacity="0.698039" stroke="#000000" cx="574" cy="-277" rx="42.4939" ry="18"/>
<text text-anchor="middle" x="574" y="-273.3" font-family="Times,serif" font-size="14.00" fill="#000000">best_hits</text>
</g>
<!-- BacterialTyper__scripts__blast_parser__BlastRecord&#45;&gt;BacterialTyper__scripts__blast_parser__BlastRecord__best_hits -->
<g id="edge6" class="edge">
<title>BacterialTyper__scripts__blast_parser__BlastRecord&#45;&gt;BacterialTyper__scripts__blast_parser__BlastRecord__best_hits</title>
<path fill="none" stroke="transparent" stroke-dasharray="5,2" d="M574,-333.8446C574,-325.3401 574,-315.0076 574,-305.4964"/>
<polygon fill="transparent" stroke="transparent" points="577.5001,-305.2481 574,-295.2482 570.5001,-305.2482 577.5001,-305.2481"/>
</g>
<!-- BacterialTyper__scripts__blast_parser__BlastRecord__best_hsps -->
<g id="node8" class="node">
<title>BacterialTyper__scripts__blast_parser__BlastRecord__best_hsps</title>
<ellipse fill="#3284ff" fill-opacity="0.698039" stroke="#000000" cx="469" cy="-277" rx="44.6926" ry="18"/>
<text text-anchor="middle" x="469" y="-273.3" font-family="Times,serif" font-size="14.00" fill="#000000">best_hsps</text>
</g>
<!-- BacterialTyper__scripts__blast_parser__BlastRecord&#45;&gt;BacterialTyper__scripts__blast_parser__BlastRecord__best_hsps -->
<g id="edge8" class="edge">
<title>BacterialTyper__scripts__blast_parser__BlastRecord&#45;&gt;BacterialTyper__scripts__blast_parser__BlastRecord__best_hsps</title>
<path fill="none" stroke="transparent" stroke-dasharray="5,2" d="M541.9599,-337.313C535.4994,-333.9001 528.8889,-330.065 523,-326 512.5248,-318.7691 501.948,-309.6594 492.9653,-301.2622"/>
<polygon fill="transparent" stroke="transparent" points="495.166,-298.5235 485.5244,-294.1315 490.3227,-303.5775 495.166,-298.5235"/>
</g>
<!-- BacterialTyper__scripts__blast_parser__BlastRecord__best_hsps_except_query -->
<g id="node9" class="node">
<title>BacterialTyper__scripts__blast_parser__BlastRecord__best_hsps_except_query</title>
<ellipse fill="#3284ff" fill-opacity="0.698039" stroke="#000000" cx="309" cy="-277" rx="96.6831" ry="18"/>
<text text-anchor="middle" x="309" y="-273.3" font-family="Times,serif" font-size="14.00" fill="#000000">best_hsps_except_query</text>
</g>
<!-- BacterialTyper__scripts__blast_parser__BlastRecord&#45;&gt;BacterialTyper__scripts__blast_parser__BlastRecord__best_hsps_except_query -->
<g id="edge12" class="edge">
<title>BacterialTyper__scripts__blast_parser__BlastRecord&#45;&gt;BacterialTyper__scripts__blast_parser__BlastRecord__best_hsps_except_query</title>
<path fill="none" stroke="transparent" stroke-dasharray="5,2" d="M521.9898,-347.0964C490.5342,-343.2488 449.8979,-336.7015 415,-326 392.5127,-319.1043 368.6372,-308.3951 349.2502,-298.7452"/>
<polygon fill="transparent" stroke="transparent" points="350.6209,-295.516 340.1192,-294.1144 347.4547,-301.759 350.6209,-295.516"/>
</g>
<!-- BacterialTyper__scripts__blast_parser__BlastRecord__evalue_cutoff -->
<g id="node10" class="node">
<title>BacterialTyper__scripts__blast_parser__BlastRecord__evalue_cutoff</title>
<ellipse fill="#3284ff" fill-opacity="0.698039" stroke="#000000" cx="899" cy="-277" rx="59.2899" ry="18"/>
<text text-anchor="middle" x="899" y="-273.3" font-family="Times,serif" font-size="14.00" fill="#000000">evalue_cutoff</text>
</g>
<!-- BacterialTyper__scripts__blast_parser__BlastRecord&#45;&gt;BacterialTyper__scripts__blast_parser__BlastRecord__evalue_cutoff -->
<g id="edge5" class="edge">
<title>BacterialTyper__scripts__blast_parser__BlastRecord&#45;&gt;BacterialTyper__scripts__blast_parser__BlastRecord__evalue_cutoff</title>
<path fill="none" stroke="transparent" stroke-dasharray="5,2" d="M627.765,-349.8304C691.924,-346.6738 795.0454,-339.641 831,-326 846.1441,-320.2544 860.9748,-310.2413 872.9014,-300.758"/>
<polygon fill="transparent" stroke="transparent" points="875.1891,-303.4078 880.6625,-294.3363 870.7267,-298.0146 875.1891,-303.4078"/>
</g>
<!-- BacterialTyper__scripts__blast_parser__BlastRecord__format -->
<g id="node11" class="node">
<title>BacterialTyper__scripts__blast_parser__BlastRecord__format</title>
<ellipse fill="#3284ff" fill-opacity="0.698039" stroke="#000000" cx="785" cy="-205" rx="34.394" ry="18"/>
<text text-anchor="middle" x="785" y="-201.3" font-family="Times,serif" font-size="14.00" fill="#000000">format</text>
</g>
<!-- BacterialTyper__scripts__blast_parser__BlastRecord&#45;&gt;BacterialTyper__scripts__blast_parser__BlastRecord__format -->
<g id="edge9" class="edge">
<title>BacterialTyper__scripts__blast_parser__BlastRecord&#45;&gt;BacterialTyper__scripts__blast_parser__BlastRecord__format</title>
<path fill="none" stroke="transparent" stroke-dasharray="5,2" d="M627.9633,-350.3608C732.9776,-346.9069 955.5955,-338.1839 967,-326 987.3492,-304.26 985.3256,-282.471 967,-259 926.4014,-207.0023 885.1119,-245.2285 823,-223 821.8015,-222.5711 820.59,-222.1171 819.3728,-221.6434"/>
<polygon fill="transparent" stroke="transparent" points="820.6259,-218.3735 810.0515,-217.7167 817.9083,-224.8244 820.6259,-218.3735"/>
</g>
<!-- BacterialTyper__scripts__blast_parser__Hsp -->
<g id="node2" class="node">
<title>BacterialTyper__scripts__blast_parser__Hsp</title>
<ellipse fill="#65a3ff" fill-opacity="0.698039" stroke="#000000" cx="71" cy="-205" rx="27" ry="18"/>
<text text-anchor="middle" x="71" y="-201.3" font-family="Times,serif" font-size="14.00" fill="#000000">Hsp</text>
</g>
<!-- BacterialTyper__scripts__blast_parser__Hsp____init__ -->
<g id="node12" class="node">
<title>BacterialTyper__scripts__blast_parser__Hsp____init__</title>
<ellipse fill="#3284ff" fill-opacity="0.698039" stroke="#000000" cx="283" cy="-122" rx="40.0939" ry="18"/>
<text text-anchor="middle" x="283" y="-118.3" font-family="Times,serif" font-size="14.00" fill="#000000">__init__</text>
</g>
<!-- BacterialTyper__scripts__blast_parser__Hsp&#45;&gt;BacterialTyper__scripts__blast_parser__Hsp____init__ -->
<g id="edge3" class="edge">
<title>BacterialTyper__scripts__blast_parser__Hsp&#45;&gt;BacterialTyper__scripts__blast_parser__Hsp____init__</title>
<path fill="none" stroke="transparent" stroke-dasharray="5,2" d="M85.4762,-189.6074C90.3054,-185.4248 95.9973,-181.3937 102,-179 129.0908,-168.1969 206.3474,-182.8431 233,-171 244.9746,-165.6791 255.7312,-156.1492 264.1719,-146.8992"/>
<polygon fill="transparent" stroke="transparent" points="266.8411,-149.1633 270.6933,-139.2936 261.527,-144.6068 266.8411,-149.1633"/>
</g>
<!-- BacterialTyper__scripts__blast_parser__Hsp____str__ -->
<g id="node13" class="node">
<title>BacterialTyper__scripts__blast_parser__Hsp____str__</title>
<ellipse fill="#3284ff" fill-opacity="0.698039" stroke="#000000" cx="101" cy="-122" rx="37.0935" ry="18"/>
<text text-anchor="middle" x="101" y="-118.3" font-family="Times,serif" font-size="14.00" fill="#000000">__str__</text>
</g>
<!-- BacterialTyper__scripts__blast_parser__Hsp&#45;&gt;BacterialTyper__scripts__blast_parser__Hsp____str__ -->
<g id="edge4" class="edge">
<title>BacterialTyper__scripts__blast_parser__Hsp&#45;&gt;BacterialTyper__scripts__blast_parser__Hsp____str__</title>
<path fill="none" stroke="transparent" stroke-dasharray="5,2" d="M77.3622,-187.3978C81.3523,-176.3587 86.5793,-161.8973 91.1032,-149.3811"/>
<polygon fill="transparent" stroke="transparent" points="94.4358,-150.4572 94.5435,-139.8629 87.8526,-148.0777 94.4358,-150.4572"/>
</g>
<!-- BacterialTyper__scripts__blast_parser__Hsp___format -->
<g id="node14" class="node">
<title>BacterialTyper__scripts__blast_parser__Hsp___format</title>
<ellipse fill="#3284ff" fill-opacity="0.698039" stroke="#000000" cx="103" cy="-50" rx="38.9931" ry="18"/>
<text text-anchor="middle" x="103" y="-46.3" font-family="Times,serif" font-size="14.00" fill="#000000">_format</text>
</g>
<!-- BacterialTyper__scripts__blast_parser__Hsp&#45;&gt;BacterialTyper__scripts__blast_parser__Hsp___format -->
<g id="edge2" class="edge">
<title>BacterialTyper__scripts__blast_parser__Hsp&#45;&gt;BacterialTyper__scripts__blast_parser__Hsp___format</title>
<path fill="none" stroke="transparent" stroke-dasharray="5,2" d="M61.1578,-187.8799C58.6386,-182.6333 56.2808,-176.7299 55,-171 48.5039,-141.9394 44.4176,-131.8339 55,-104 59.4131,-92.3927 67.5914,-81.6872 75.9628,-72.9218"/>
<polygon fill="transparent" stroke="transparent" points="78.5917,-75.2458 83.2793,-65.7445 73.6897,-70.2488 78.5917,-75.2458"/>
</g>
<!-- BacterialTyper__scripts__blast_parser__Hsp__format -->
<g id="node15" class="node">
<title>BacterialTyper__scripts__blast_parser__Hsp__format</title>
<ellipse fill="#3284ff" fill-opacity="0.698039" stroke="#000000" cx="190" cy="-122" rx="34.394" ry="18"/>
<text text-anchor="middle" x="190" y="-118.3" font-family="Times,serif" font-size="14.00" fill="#000000">format</text>
</g>
<!-- BacterialTyper__scripts__blast_parser__Hsp&#45;&gt;BacterialTyper__scripts__blast_parser__Hsp__format -->
<g id="edge1" class="edge">
<title>BacterialTyper__scripts__blast_parser__Hsp&#45;&gt;BacterialTyper__scripts__blast_parser__Hsp__format</title>
<path fill="none" stroke="transparent" stroke-dasharray="5,2" d="M85.9742,-189.7554C90.7401,-185.6828 96.272,-181.6751 102,-179 120.4053,-170.4043 129.3036,-180.9739 147,-171 157.1618,-165.2727 166.1109,-156.2151 173.1767,-147.437"/>
<polygon fill="transparent" stroke="transparent" points="176.1396,-149.3203 179.3522,-139.2243 170.5448,-145.1133 176.1396,-149.3203"/>
</g>
<!-- BacterialTyper__scripts__blast_parser__parse -->
<g id="node3" class="node">
<title>BacterialTyper__scripts__blast_parser__parse</title>
<ellipse fill="#65a3ff" fill-opacity="0.698039" stroke="#000000" cx="469" cy="-424" rx="29.4969" ry="18"/>
<text text-anchor="middle" x="469" y="-420.3" font-family="Times,serif" font-size="14.00" fill="#000000">parse</text>
</g>
<!-- BacterialTyper__scripts__blast_parser__parse&#45;&gt;BacterialTyper__scripts__blast_parser__BlastRecord -->
<g id="edge20" class="edge">
<title>BacterialTyper__scripts__blast_parser__parse&#45;&gt;BacterialTyper__scripts__blast_parser__BlastRecord</title>
<path fill="none" stroke="#000000" d="M488.7497,-410.4574C503.6226,-400.2588 524.334,-386.0567 541.6179,-374.2049"/>
<polygon fill="#000000" stroke="#000000" points="544.0268,-376.7969 550.2948,-368.255 540.0681,-371.0238 544.0268,-376.7969"/>
</g>
<!-- BacterialTyper__scripts__blast_parser__parse&#45;&gt;BacterialTyper__scripts__blast_parser__Hsp -->
<g id="edge19" class="edge">
<title>BacterialTyper__scripts__blast_parser__parse&#45;&gt;BacterialTyper__scripts__blast_parser__Hsp</title>
<path fill="none" stroke="#000000" d="M440.2353,-420.3864C361.9339,-409.9477 147.7685,-377.1913 102,-326 79.2608,-300.5666 72.7625,-260.6953 71.1314,-233.7371"/>
<polygon fill="#000000" stroke="#000000" points="74.6143,-233.2484 70.7046,-223.4013 67.6203,-233.5372 74.6143,-233.2484"/>
</g>
<!-- BacterialTyper__scripts__blast_parser__parse&#45;&gt;BacterialTyper__scripts__blast_parser__BlastRecord____init__ -->
<g id="edge22" class="edge">
<title>BacterialTyper__scripts__blast_parser__parse&#45;&gt;BacterialTyper__scripts__blast_parser__BlastRecord____init__</title>
<path fill="none" stroke="#000000" d="M441.1801,-417.9601C390.7081,-406.1239 281.9728,-376.5294 203,-326 192.7585,-319.4472 182.9666,-310.4316 174.8655,-301.919"/>
<polygon fill="#000000" stroke="#000000" points="177.2633,-299.3542 167.9367,-294.3277 172.0931,-304.0733 177.2633,-299.3542"/>
</g>
<!-- BacterialTyper__scripts__blast_parser__parse&#45;&gt;BacterialTyper__scripts__blast_parser__Hsp____init__ -->
<g id="edge21" class="edge">
<title>BacterialTyper__scripts__blast_parser__parse&#45;&gt;BacterialTyper__scripts__blast_parser__Hsp____init__</title>
<path fill="none" stroke="#000000" d="M498.2635,-423.0548C597.2845,-419.1849 917.0535,-400.9832 979,-326 1020.689,-275.5374 1016.9561,-224.6023 970,-179 924.6198,-134.9281 485.6073,-124.774 334.1031,-122.574"/>
<polygon fill="#000000" stroke="#000000" points="333.7489,-119.0689 323.7011,-122.429 333.6513,-126.0682 333.7489,-119.0689"/>
</g>
<!-- BacterialTyper__scripts__blast_parser__BlastRecord____str__&#45;&gt;BacterialTyper__scripts__blast_parser__BlastRecord__format -->
<g id="edge18" class="edge">
<title>BacterialTyper__scripts__blast_parser__BlastRecord____str__&#45;&gt;BacterialTyper__scripts__blast_parser__BlastRecord__format</title>
<path fill="none" stroke="#000000" d="M785,-258.8314C785,-251.131 785,-241.9743 785,-233.4166"/>
<polygon fill="#000000" stroke="#000000" points="788.5001,-233.4132 785,-223.4133 781.5001,-233.4133 788.5001,-233.4132"/>
</g>
<!-- BacterialTyper__scripts__blast_parser__BlastRecord___format&#45;&gt;BacterialTyper__scripts__blast_parser__BlastRecord___format -->
<g id="edge14" class="edge">
<title>BacterialTyper__scripts__blast_parser__BlastRecord___format&#45;&gt;BacterialTyper__scripts__blast_parser__BlastRecord___format</title>
<path fill="none" stroke="#000000" d="M700.564,-289.854C715.8866,-292.2534 729.9965,-287.9688 729.9965,-277 729.9965,-268.5164 721.5559,-264.0312 710.6418,-263.5444"/>
<polygon fill="#000000" stroke="#000000" points="710.3376,-260.0563 700.564,-264.146 710.7548,-267.0438 710.3376,-260.0563"/>
</g>
<!-- BacterialTyper__scripts__blast_parser__BlastRecord___format&#45;&gt;BacterialTyper__scripts__blast_parser__Hsp___format -->
<g id="edge15" class="edge">
<title>BacterialTyper__scripts__blast_parser__BlastRecord___format&#45;&gt;BacterialTyper__scripts__blast_parser__Hsp___format</title>
<path fill="none" stroke="#000000" d="M644.4813,-264.7204C638.1703,-262.4525 631.4419,-260.3703 625,-259 560.2175,-245.2192 75.3969,-271.2266 30,-223 -6.2512,-184.4892 6.1912,-151.2269 30,-104 34.5626,-94.9497 52.9591,-81.3673 70.1413,-70.0889"/>
<polygon fill="#000000" stroke="#000000" points="72.4155,-72.7879 78.936,-64.4373 68.6312,-66.899 72.4155,-72.7879"/>
</g>
<!-- BacterialTyper__scripts__blast_parser__BlastRecord__format&#45;&gt;BacterialTyper__scripts__blast_parser__BlastRecord__format -->
<g id="edge17" class="edge">
<title>BacterialTyper__scripts__blast_parser__BlastRecord__format&#45;&gt;BacterialTyper__scripts__blast_parser__BlastRecord__format</title>
<path fill="none" stroke="#000000" d="M809.5492,-217.7082C823.9591,-220.4157 837.4469,-216.1797 837.4469,-205 837.4469,-196.5279 829.7011,-192.0434 819.6781,-191.5464"/>
<polygon fill="#000000" stroke="#000000" points="819.2653,-188.0673 809.5492,-192.2918 819.7791,-195.0484 819.2653,-188.0673"/>
</g>
<!-- BacterialTyper__scripts__blast_parser__BlastRecord__format&#45;&gt;BacterialTyper__scripts__blast_parser__Hsp__format -->
<g id="edge16" class="edge">
<title>BacterialTyper__scripts__blast_parser__BlastRecord__format&#45;&gt;BacterialTyper__scripts__blast_parser__Hsp__format</title>
<path fill="none" stroke="#000000" d="M766.8246,-189.4036C760.8873,-185.2128 754.0085,-181.2282 747,-179 719.8363,-170.3639 259.9401,-182.8136 234,-171 223.0064,-165.9933 213.5925,-156.7728 206.327,-147.6695"/>
<polygon fill="#000000" stroke="#000000" points="209.0283,-145.4355 200.2748,-139.4666 203.3955,-149.5915 209.0283,-145.4355"/>
</g>
<!-- BacterialTyper__scripts__blast_parser__Hsp__format&#45;&gt;BacterialTyper__scripts__blast_parser__Hsp___format -->
<g id="edge13" class="edge">
<title>BacterialTyper__scripts__blast_parser__Hsp__format&#45;&gt;BacterialTyper__scripts__blast_parser__Hsp___format</title>
<path fill="none" stroke="#000000" d="M171.5495,-106.7307C159.4882,-96.7488 143.5292,-83.5414 130.0446,-72.3818"/>
<polygon fill="#000000" stroke="#000000" points="131.9608,-69.4244 122.0253,-65.7451 127.4978,-74.8172 131.9608,-69.4244"/>
</g>
</g>
</svg>
