<?xml version="1.0" encoding="UTF-8" standalone="no"?>
<!DOCTYPE svg PUBLIC "-//W3C//DTD SVG 1.1//EN"
 "http://www.w3.org/Graphics/SVG/1.1/DTD/svg11.dtd">
<!-- Generated by graphviz version 2.40.1 (20161225.0304)
 -->
<!-- Title: G Pages: 1 -->
<svg width="1030pt" height="497pt"
 viewBox="0.00 0.00 1030.00 497.00" xmlns="http://www.w3.org/2000/svg" xmlns:xlink="http://www.w3.org/1999/xlink">
<g id="graph0" class="graph" transform="scale(1 1) rotate(0) translate(4 493)">
<title>G</title>
<polygon fill="#ffffff" stroke="transparent" points="-4,4 -4,-493 1026,-493 1026,4 -4,4"/>
<g id="clust1" class="cluster">
<title>cluster_G</title>
<path fill="#808080" fill-opacity="0.094118" stroke="#000000" d="M20,-8C20,-8 1002,-8 1002,-8 1008,-8 1014,-14 1014,-20 1014,-20 1014,-469 1014,-469 1014,-475 1008,-481 1002,-481 1002,-481 20,-481 20,-481 14,-481 8,-475 8,-469 8,-469 8,-20 8,-20 8,-14 14,-8 20,-8"/>
</g>
<g id="clust2" class="cluster">
<title>cluster_BacterialTyper__scripts__blast_parser</title>
<path fill="#808080" fill-opacity="0.094118" stroke="#000000" d="M28,-16C28,-16 994,-16 994,-16 1000,-16 1006,-22 1006,-28 1006,-28 1006,-461 1006,-461 1006,-467 1000,-473 994,-473 994,-473 28,-473 28,-473 22,-473 16,-467 16,-461 16,-461 16,-28 16,-28 16,-22 22,-16 28,-16"/>
<text text-anchor="middle" x="511" y="-457.8" font-family="Times,serif" font-size="14.00" fill="#000000">BacterialTyper.scripts.blast_parser</text>
</g>
<g id="clust3" class="cluster">
<title>cluster_BacterialTyper__scripts__blast_parser__BlastRecord</title>
<path fill="#808080" fill-opacity="0.094118" stroke="#000000" d="M118,-179C118,-179 954,-179 954,-179 960,-179 966,-185 966,-191 966,-191 966,-314 966,-314 966,-320 960,-326 954,-326 954,-326 118,-326 118,-326 112,-326 106,-320 106,-314 106,-314 106,-191 106,-191 106,-185 112,-179 118,-179"/>
<text text-anchor="middle" x="536" y="-310.8" font-family="Times,serif" font-size="14.00" fill="#000000">BacterialTyper.scripts.blast_parser.BlastRecord</text>
</g>
<g id="clust4" class="cluster">
<title>cluster_BacterialTyper__scripts__blast_parser__Hsp</title>
<path fill="#808080" fill-opacity="0.094118" stroke="#000000" d="M68,-24C68,-24 319,-24 319,-24 325,-24 331,-30 331,-36 331,-36 331,-159 331,-159 331,-165 325,-171 319,-171 319,-171 68,-171 68,-171 62,-171 56,-165 56,-159 56,-159 56,-36 56,-36 56,-30 62,-24 68,-24"/>
<text text-anchor="middle" x="193.5" y="-155.8" font-family="Times,serif" font-size="14.00" fill="#000000">BacterialTyper.scripts.blast_parser.Hsp</text>
</g>
<!-- BacterialTyper__scripts__blast_parser__BlastRecord -->
<g id="node1" class="node">
<title>BacterialTyper__scripts__blast_parser__BlastRecord</title>
<ellipse fill="#65a3ff" fill-opacity="0.698039" stroke="#000000" cx="574" cy="-352" rx="53.8905" ry="18"/>
<text text-anchor="middle" x="574" y="-348.3" font-family="Times,serif" font-size="14.00" fill="#000000">BlastRecord</text>
</g>
<!-- BacterialTyper__scripts__blast_parser__BlastRecord____init__ -->
<g id="node4" class="node">
<title>BacterialTyper__scripts__blast_parser__BlastRecord____init__</title>
<ellipse fill="#3284ff" fill-opacity="0.698039" stroke="#000000" cx="154" cy="-277" rx="40.0939" ry="18"/>
<text text-anchor="middle" x="154" y="-273.3" font-family="Times,serif" font-size="14.00" fill="#000000">__init__</text>
</g>
<!-- BacterialTyper__scripts__blast_parser__BlastRecord&#45;&gt;BacterialTyper__scripts__blast_parser__BlastRecord____init__ -->
<g id="edge10" class="edge">
<title>BacterialTyper__scripts__blast_parser__BlastRecord&#45;&gt;BacterialTyper__scripts__blast_parser__BlastRecord____init__</title>
<path fill="none" stroke="transparent" stroke-dasharray="5,2" d="M520.0109,-352C409.4165,-352 167.4321,-352 167.4321,-352 167.4321,-352 167.4321,-304.0187 167.4321,-304.0187"/>
<polygon fill="transparent" stroke="transparent" points="170.9322,-304.0186 167.4321,-294.0187 163.9322,-304.0187 170.9322,-304.0186"/>
</g>
<!-- BacterialTyper__scripts__blast_parser__BlastRecord____str__ -->
<g id="node5" class="node">
<title>BacterialTyper__scripts__blast_parser__BlastRecord____str__</title>
<ellipse fill="#3284ff" fill-opacity="0.698039" stroke="#000000" cx="785" cy="-277" rx="37.0935" ry="18"/>
<text text-anchor="middle" x="785" y="-273.3" font-family="Times,serif" font-size="14.00" fill="#000000">__str__</text>
</g>
<!-- BacterialTyper__scripts__blast_parser__BlastRecord&#45;&gt;BacterialTyper__scripts__blast_parser__BlastRecord____str__ -->
<g id="edge11" class="edge">
<title>BacterialTyper__scripts__blast_parser__BlastRecord&#45;&gt;BacterialTyper__scripts__blast_parser__BlastRecord____str__</title>
<path fill="none" stroke="transparent" stroke-dasharray="5,2" d="M625.0772,-346C687.5233,-346 785,-346 785,-346 785,-346 785,-305.1289 785,-305.1289"/>
<polygon fill="transparent" stroke="transparent" points="788.5001,-305.1289 785,-295.1289 781.5001,-305.129 788.5001,-305.1289"/>
</g>
<!-- BacterialTyper__scripts__blast_parser__BlastRecord___format -->
<g id="node6" class="node">
<title>BacterialTyper__scripts__blast_parser__BlastRecord___format</title>
<ellipse fill="#3284ff" fill-opacity="0.698039" stroke="#000000" cx="673" cy="-277" rx="38.9931" ry="18"/>
<text text-anchor="middle" x="673" y="-273.3" font-family="Times,serif" font-size="14.00" fill="#000000">_format</text>
</g>
<!-- BacterialTyper__scripts__blast_parser__BlastRecord&#45;&gt;BacterialTyper__scripts__blast_parser__BlastRecord___format -->
<g id="edge7" class="edge">
<title>BacterialTyper__scripts__blast_parser__BlastRecord&#45;&gt;BacterialTyper__scripts__blast_parser__BlastRecord___format</title>
<path fill="none" stroke="transparent" stroke-dasharray="5,2" d="M622.0957,-343.6871C622.0957,-324.16 622.0957,-277 622.0957,-277 622.0957,-277 623.9021,-277 623.9021,-277"/>
<polygon fill="transparent" stroke="transparent" points="623.9022,-280.5001 633.9021,-277 623.9021,-273.5001 623.9022,-280.5001"/>
</g>
<!-- BacterialTyper__scripts__blast_parser__BlastRecord__best_hits -->
<g id="node7" class="node">
<title>BacterialTyper__scripts__blast_parser__BlastRecord__best_hits</title>
<ellipse fill="#3284ff" fill-opacity="0.698039" stroke="#000000" cx="574" cy="-277" rx="42.4939" ry="18"/>
<text text-anchor="middle" x="574" y="-273.3" font-family="Times,serif" font-size="14.00" fill="#000000">best_hits</text>
</g>
<!-- BacterialTyper__scripts__blast_parser__BlastRecord&#45;&gt;BacterialTyper__scripts__blast_parser__BlastRecord__best_hits -->
<g id="edge6" class="edge">
<title>BacterialTyper__scripts__blast_parser__BlastRecord&#45;&gt;BacterialTyper__scripts__blast_parser__BlastRecord__best_hits</title>
<path fill="none" stroke="transparent" stroke-dasharray="5,2" d="M574,-333.8446C574,-333.8446 574,-305.2482 574,-305.2482"/>
<polygon fill="transparent" stroke="transparent" points="577.5001,-305.2481 574,-295.2482 570.5001,-305.2482 577.5001,-305.2481"/>
</g>
<!-- BacterialTyper__scripts__blast_parser__BlastRecord__best_hsps -->
<g id="node8" class="node">
<title>BacterialTyper__scripts__blast_parser__BlastRecord__best_hsps</title>
<ellipse fill="#3284ff" fill-opacity="0.698039" stroke="#000000" cx="469" cy="-277" rx="44.6926" ry="18"/>
<text text-anchor="middle" x="469" y="-273.3" font-family="Times,serif" font-size="14.00" fill="#000000">best_hsps</text>
</g>
<!-- BacterialTyper__scripts__blast_parser__BlastRecord&#45;&gt;BacterialTyper__scripts__blast_parser__BlastRecord__best_hsps -->
<g id="edge8" class="edge">
<title>BacterialTyper__scripts__blast_parser__BlastRecord&#45;&gt;BacterialTyper__scripts__blast_parser__BlastRecord__best_hsps</title>
<path fill="none" stroke="transparent" stroke-dasharray="5,2" d="M525.9043,-343.6871C525.9043,-324.16 525.9043,-277 525.9043,-277 525.9043,-277 524.1137,-277 524.1137,-277"/>
<polygon fill="transparent" stroke="transparent" points="524.1137,-273.5001 514.1137,-277 524.1136,-280.5001 524.1137,-273.5001"/>
</g>
<!-- BacterialTyper__scripts__blast_parser__BlastRecord__best_hsps_except_query -->
<g id="node9" class="node">
<title>BacterialTyper__scripts__blast_parser__BlastRecord__best_hsps_except_query</title>
<ellipse fill="#3284ff" fill-opacity="0.698039" stroke="#000000" cx="309" cy="-277" rx="96.6831" ry="18"/>
<text text-anchor="middle" x="309" y="-273.3" font-family="Times,serif" font-size="14.00" fill="#000000">best_hsps_except_query</text>
</g>
<!-- BacterialTyper__scripts__blast_parser__BlastRecord&#45;&gt;BacterialTyper__scripts__blast_parser__BlastRecord__best_hsps_except_query -->
<g id="edge12" class="edge">
<title>BacterialTyper__scripts__blast_parser__BlastRecord&#45;&gt;BacterialTyper__scripts__blast_parser__BlastRecord__best_hsps_except_query</title>
<path fill="none" stroke="transparent" stroke-dasharray="5,2" d="M527.2333,-343C451.1571,-343 309,-343 309,-343 309,-343 309,-305.0348 309,-305.0348"/>
<polygon fill="transparent" stroke="transparent" points="312.5001,-305.0348 309,-295.0348 305.5001,-305.0348 312.5001,-305.0348"/>
</g>
<!-- BacterialTyper__scripts__blast_parser__BlastRecord__evalue_cutoff -->
<g id="node10" class="node">
<title>BacterialTyper__scripts__blast_parser__BlastRecord__evalue_cutoff</title>
<ellipse fill="#3284ff" fill-opacity="0.698039" stroke="#000000" cx="899" cy="-277" rx="59.2899" ry="18"/>
<text text-anchor="middle" x="899" y="-273.3" font-family="Times,serif" font-size="14.00" fill="#000000">evalue_cutoff</text>
</g>
<!-- BacterialTyper__scripts__blast_parser__BlastRecord&#45;&gt;BacterialTyper__scripts__blast_parser__BlastRecord__evalue_cutoff -->
<g id="edge5" class="edge">
<title>BacterialTyper__scripts__blast_parser__BlastRecord&#45;&gt;BacterialTyper__scripts__blast_parser__BlastRecord__evalue_cutoff</title>
<path fill="none" stroke="transparent" stroke-dasharray="5,2" d="M625.1388,-358C716.6633,-358 899,-358 899,-358 899,-358 899,-305.3802 899,-305.3802"/>
<polygon fill="transparent" stroke="transparent" points="902.5001,-305.3801 899,-295.3802 895.5001,-305.3802 902.5001,-305.3801"/>
</g>
<!-- BacterialTyper__scripts__blast_parser__BlastRecord__format -->
<g id="node11" class="node">
<title>BacterialTyper__scripts__blast_parser__BlastRecord__format</title>
<ellipse fill="#3284ff" fill-opacity="0.698039" stroke="#000000" cx="785" cy="-205" rx="34.394" ry="18"/>
<text text-anchor="middle" x="785" y="-201.3" font-family="Times,serif" font-size="14.00" fill="#000000">format</text>
</g>
<!-- BacterialTyper__scripts__blast_parser__BlastRecord&#45;&gt;BacterialTyper__scripts__blast_parser__BlastRecord__format -->
<g id="edge9" class="edge">
<title>BacterialTyper__scripts__blast_parser__BlastRecord&#45;&gt;BacterialTyper__scripts__blast_parser__BlastRecord__format</title>
<path fill="none" stroke="transparent" stroke-dasharray="5,2" d="M619.171,-342.1473C619.171,-310.7344 619.171,-215 619.171,-215 619.171,-215 746.1148,-215 746.1148,-215"/>
<polygon fill="transparent" stroke="transparent" points="746.1148,-218.5001 756.1148,-215 746.1148,-211.5001 746.1148,-218.5001"/>
</g>
<!-- BacterialTyper__scripts__blast_parser__Hsp -->
<g id="node2" class="node">
<title>BacterialTyper__scripts__blast_parser__Hsp</title>
<ellipse fill="#65a3ff" fill-opacity="0.698039" stroke="#000000" cx="71" cy="-205" rx="27" ry="18"/>
<text text-anchor="middle" x="71" y="-201.3" font-family="Times,serif" font-size="14.00" fill="#000000">Hsp</text>
</g>
<!-- BacterialTyper__scripts__blast_parser__Hsp____init__ -->
<g id="node12" class="node">
<title>BacterialTyper__scripts__blast_parser__Hsp____init__</title>
<ellipse fill="#3284ff" fill-opacity="0.698039" stroke="#000000" cx="283" cy="-122" rx="40.0939" ry="18"/>
<text text-anchor="middle" x="283" y="-118.3" font-family="Times,serif" font-size="14.00" fill="#000000">__init__</text>
</g>
<!-- BacterialTyper__scripts__blast_parser__Hsp&#45;&gt;BacterialTyper__scripts__blast_parser__Hsp____init__ -->
<g id="edge3" class="edge">
<title>BacterialTyper__scripts__blast_parser__Hsp&#45;&gt;BacterialTyper__scripts__blast_parser__Hsp____init__</title>
<path fill="none" stroke="transparent" stroke-dasharray="5,2" d="M97.4213,-201C154.2516,-201 283,-201 283,-201 283,-201 283,-150.3228 283,-150.3228"/>
<polygon fill="transparent" stroke="transparent" points="286.5001,-150.3227 283,-140.3228 279.5001,-150.3228 286.5001,-150.3227"/>
</g>
<!-- BacterialTyper__scripts__blast_parser__Hsp____str__ -->
<g id="node13" class="node">
<title>BacterialTyper__scripts__blast_parser__Hsp____str__</title>
<ellipse fill="#3284ff" fill-opacity="0.698039" stroke="#000000" cx="101" cy="-122" rx="37.0935" ry="18"/>
<text text-anchor="middle" x="101" y="-118.3" font-family="Times,serif" font-size="14.00" fill="#000000">__str__</text>
</g>
<!-- BacterialTyper__scripts__blast_parser__Hsp&#45;&gt;BacterialTyper__scripts__blast_parser__Hsp____str__ -->
<g id="edge4" class="edge">
<title>BacterialTyper__scripts__blast_parser__Hsp&#45;&gt;BacterialTyper__scripts__blast_parser__Hsp____str__</title>
<path fill="none" stroke="transparent" stroke-dasharray="5,2" d="M80.9766,-188.2037C80.9766,-188.2037 80.9766,-147.3717 80.9766,-147.3717"/>
<polygon fill="transparent" stroke="transparent" points="84.4767,-147.3716 80.9766,-137.3717 77.4767,-147.3717 84.4767,-147.3716"/>
</g>
<!-- BacterialTyper__scripts__blast_parser__Hsp___format -->
<g id="node14" class="node">
<title>BacterialTyper__scripts__blast_parser__Hsp___format</title>
<ellipse fill="#3284ff" fill-opacity="0.698039" stroke="#000000" cx="103" cy="-50" rx="38.9931" ry="18"/>
<text text-anchor="middle" x="103" y="-46.3" font-family="Times,serif" font-size="14.00" fill="#000000">_format</text>
</g>
<!-- BacterialTyper__scripts__blast_parser__Hsp&#45;&gt;BacterialTyper__scripts__blast_parser__Hsp___format -->
<g id="edge2" class="edge">
<title>BacterialTyper__scripts__blast_parser__Hsp&#45;&gt;BacterialTyper__scripts__blast_parser__Hsp___format</title>
<path fill="none" stroke="transparent" stroke-dasharray="5,2" d="M53.9766,-190.9714C53.9766,-152.8168 53.9766,-50 53.9766,-50 53.9766,-50 54.9687,-50 54.9687,-50"/>
<polygon fill="transparent" stroke="transparent" points="53.8973,-53.5001 63.8973,-50 53.8972,-46.5001 53.8973,-53.5001"/>
</g>
<!-- BacterialTyper__scripts__blast_parser__Hsp__format -->
<g id="node15" class="node">
<title>BacterialTyper__scripts__blast_parser__Hsp__format</title>
<ellipse fill="#3284ff" fill-opacity="0.698039" stroke="#000000" cx="190" cy="-122" rx="34.394" ry="18"/>
<text text-anchor="middle" x="190" y="-118.3" font-family="Times,serif" font-size="14.00" fill="#000000">format</text>
</g>
<!-- BacterialTyper__scripts__blast_parser__Hsp&#45;&gt;BacterialTyper__scripts__blast_parser__Hsp__format -->
<g id="edge1" class="edge">
<title>BacterialTyper__scripts__blast_parser__Hsp&#45;&gt;BacterialTyper__scripts__blast_parser__Hsp__format</title>
<path fill="none" stroke="transparent" stroke-dasharray="5,2" d="M92.5333,-194C122.9735,-194 174.9247,-194 174.9247,-194 174.9247,-194 174.9247,-148.3379 174.9247,-148.3379"/>
<polygon fill="transparent" stroke="transparent" points="178.4248,-148.3379 174.9247,-138.3379 171.4248,-148.3379 178.4248,-148.3379"/>
</g>
<!-- BacterialTyper__scripts__blast_parser__parse -->
<g id="node3" class="node">
<title>BacterialTyper__scripts__blast_parser__parse</title>
<ellipse fill="#65a3ff" fill-opacity="0.698039" stroke="#000000" cx="469" cy="-424" rx="29.4969" ry="18"/>
<text text-anchor="middle" x="469" y="-420.3" font-family="Times,serif" font-size="14.00" fill="#000000">parse</text>
</g>
<!-- BacterialTyper__scripts__blast_parser__parse&#45;&gt;BacterialTyper__scripts__blast_parser__BlastRecord -->
<g id="edge20" class="edge">
<title>BacterialTyper__scripts__blast_parser__parse&#45;&gt;BacterialTyper__scripts__blast_parser__BlastRecord</title>
<path fill="none" stroke="#000000" d="M469,-405.7778C469,-387.1715 469,-361 469,-361 469,-361 517.028,-361 517.028,-361"/>
<polygon fill="#000000" stroke="#000000" points="517.028,-364.5001 527.028,-361 517.0279,-357.5001 517.028,-364.5001"/>
</g>
<!-- BacterialTyper__scripts__blast_parser__parse&#45;&gt;BacterialTyper__scripts__blast_parser__Hsp -->
<g id="edge19" class="edge">
<title>BacterialTyper__scripts__blast_parser__parse&#45;&gt;BacterialTyper__scripts__blast_parser__Hsp</title>
<path fill="none" stroke="#000000" d="M443.4979,-433C355.6551,-433 71,-433 71,-433 71,-433 71,-233.2728 71,-233.2728"/>
<polygon fill="#000000" stroke="#000000" points="74.5001,-233.2728 71,-223.2728 67.5001,-233.2728 74.5001,-233.2728"/>
</g>
<!-- BacterialTyper__scripts__blast_parser__parse&#45;&gt;BacterialTyper__scripts__blast_parser__BlastRecord____init__ -->
<g id="edge22" class="edge">
<title>BacterialTyper__scripts__blast_parser__parse&#45;&gt;BacterialTyper__scripts__blast_parser__BlastRecord____init__</title>
<path fill="none" stroke="#000000" d="M439.5648,-424C358.9508,-424 140.5679,-424 140.5679,-424 140.5679,-424 140.5679,-304.1505 140.5679,-304.1505"/>
<polygon fill="#000000" stroke="#000000" points="144.0678,-304.1505 140.5679,-294.1505 137.0678,-304.1504 144.0678,-304.1505"/>
</g>
<!-- BacterialTyper__scripts__blast_parser__parse&#45;&gt;BacterialTyper__scripts__blast_parser__Hsp____init__ -->
<g id="edge21" class="edge">
<title>BacterialTyper__scripts__blast_parser__parse&#45;&gt;BacterialTyper__scripts__blast_parser__Hsp____init__</title>
<path fill="none" stroke="#000000" d="M443.5801,-415C429.5736,-415 414.9977,-415 414.9977,-415 414.9977,-415 414.9977,-122 414.9977,-122 414.9977,-122 333.3209,-122 333.3209,-122"/>
<polygon fill="#000000" stroke="#000000" points="333.3209,-118.5001 323.3209,-122 333.3209,-125.5001 333.3209,-118.5001"/>
</g>
<!-- BacterialTyper__scripts__blast_parser__BlastRecord____str__&#45;&gt;BacterialTyper__scripts__blast_parser__BlastRecord__format -->
<g id="edge18" class="edge">
<title>BacterialTyper__scripts__blast_parser__BlastRecord____str__&#45;&gt;BacterialTyper__scripts__blast_parser__BlastRecord__format</title>
<path fill="none" stroke="#000000" d="M773.5177,-259.5708C773.5177,-259.5708 773.5177,-232.2687 773.5177,-232.2687"/>
<polygon fill="#000000" stroke="#000000" points="777.0178,-232.2687 773.5177,-222.2687 770.0178,-232.2687 777.0178,-232.2687"/>
</g>
<!-- BacterialTyper__scripts__blast_parser__BlastRecord___format&#45;&gt;BacterialTyper__scripts__blast_parser__BlastRecord___format -->
<g id="edge14" class="edge">
<title>BacterialTyper__scripts__blast_parser__BlastRecord___format&#45;&gt;BacterialTyper__scripts__blast_parser__BlastRecord___format</title>
<path fill="none" stroke="#000000" d="M673,-295.0664C673,-304.4587 673,-314 673,-314 673,-314 625.0205,-314 625.0205,-314 625.0205,-314 625.0205,-235 625.0205,-235 625.0205,-235 685.9988,-235 685.9988,-235 685.9988,-235 685.9988,-249.917 685.9988,-249.917"/>
<polygon fill="#000000" stroke="#000000" points="682.4989,-249.917 685.9988,-259.917 689.4989,-249.917 682.4989,-249.917"/>
</g>
<!-- BacterialTyper__scripts__blast_parser__BlastRecord___format&#45;&gt;BacterialTyper__scripts__blast_parser__Hsp___format -->
<g id="edge15" class="edge">
<title>BacterialTyper__scripts__blast_parser__BlastRecord___format&#45;&gt;BacterialTyper__scripts__blast_parser__Hsp___format</title>
<path fill="none" stroke="#000000" d="M660.0012,-259.867C660.0012,-206.0585 660.0012,-44 660.0012,-44 660.0012,-44 149.9778,-44 149.9778,-44"/>
<polygon fill="#000000" stroke="#000000" points="149.9778,-40.5001 139.9778,-44 149.9777,-47.5001 149.9778,-40.5001"/>
</g>
<!-- BacterialTyper__scripts__blast_parser__BlastRecord__format&#45;&gt;BacterialTyper__scripts__blast_parser__BlastRecord__format -->
<g id="edge17" class="edge">
<title>BacterialTyper__scripts__blast_parser__BlastRecord__format&#45;&gt;BacterialTyper__scripts__blast_parser__BlastRecord__format</title>
<path fill="none" stroke="#000000" d="M796.4823,-222.083C796.4823,-233.7109 796.4823,-247 796.4823,-247 796.4823,-247 830.951,-247 830.951,-247 830.951,-247 830.951,-163 830.951,-163 830.951,-163 785,-163 785,-163 785,-163 785,-176.9445 785,-176.9445"/>
<polygon fill="#000000" stroke="#000000" points="781.5001,-176.9444 785,-186.9445 788.5001,-176.9445 781.5001,-176.9444"/>
</g>
<!-- BacterialTyper__scripts__blast_parser__BlastRecord__format&#45;&gt;BacterialTyper__scripts__blast_parser__Hsp__format -->
<g id="edge16" class="edge">
<title>BacterialTyper__scripts__blast_parser__BlastRecord__format&#45;&gt;BacterialTyper__scripts__blast_parser__Hsp__format</title>
<path fill="none" stroke="#000000" d="M750.8268,-208C628.3062,-208 218.3028,-208 218.3028,-208 218.3028,-208 218.3028,-142.5453 218.3028,-142.5453"/>
<polygon fill="#000000" stroke="#000000" points="221.8027,-142.5453 218.3028,-132.5453 214.8027,-142.5453 221.8027,-142.5453"/>
</g>
<!-- BacterialTyper__scripts__blast_parser__Hsp__format&#45;&gt;BacterialTyper__scripts__blast_parser__Hsp___format -->
<g id="edge13" class="edge">
<title>BacterialTyper__scripts__blast_parser__Hsp__format&#45;&gt;BacterialTyper__scripts__blast_parser__Hsp___format</title>
<path fill="none" stroke="#000000" d="M190,-103.9652C190,-84.4238 190,-56 190,-56 190,-56 149.8958,-56 149.8958,-56"/>
<polygon fill="#000000" stroke="#000000" points="149.8959,-52.5001 139.8958,-56 149.8958,-59.5001 149.8959,-52.5001"/>
</g>
</g>
</svg>
