<?xml version="1.0" encoding="UTF-8" standalone="no"?>
<!DOCTYPE svg PUBLIC "-//W3C//DTD SVG 1.1//EN"
 "http://www.w3.org/Graphics/SVG/1.1/DTD/svg11.dtd">
<!-- Generated by graphviz version 2.40.1 (20161225.0304)
 -->
<!-- Title: G Pages: 1 -->
<svg width="1412pt" height="425pt"
 viewBox="0.00 0.00 1412.00 425.00" xmlns="http://www.w3.org/2000/svg" xmlns:xlink="http://www.w3.org/1999/xlink">
<g id="graph0" class="graph" transform="scale(1 1) rotate(0) translate(4 421)">
<title>G</title>
<polygon fill="#ffffff" stroke="transparent" points="-4,4 -4,-421 1408,-421 1408,4 -4,4"/>
<g id="clust1" class="cluster">
<title>cluster_G</title>
<path fill="#808080" fill-opacity="0.094118" stroke="#000000" d="M20,-8C20,-8 1384,-8 1384,-8 1390,-8 1396,-14 1396,-20 1396,-20 1396,-397 1396,-397 1396,-403 1390,-409 1384,-409 1384,-409 20,-409 20,-409 14,-409 8,-403 8,-397 8,-397 8,-20 8,-20 8,-14 14,-8 20,-8"/>
</g>
<g id="clust2" class="cluster">
<title>cluster_BacterialTyper__scripts__blast_parser</title>
<path fill="#808080" fill-opacity="0.094118" stroke="#000000" d="M304,-16C304,-16 1376,-16 1376,-16 1382,-16 1388,-22 1388,-28 1388,-28 1388,-389 1388,-389 1388,-395 1382,-401 1376,-401 1376,-401 304,-401 304,-401 298,-401 292,-395 292,-389 292,-389 292,-28 292,-28 292,-22 298,-16 304,-16"/>
<text text-anchor="middle" x="840" y="-385.8" font-family="Times,serif" font-size="14.00" fill="#000000">BacterialTyper.scripts.blast_parser</text>
</g>
<g id="clust3" class="cluster">
<title>cluster_BacterialTyper__scripts__blast_parser__BlastRecord</title>
<path fill="#808080" fill-opacity="0.094118" stroke="#000000" d="M502,-179C502,-179 1338,-179 1338,-179 1344,-179 1350,-185 1350,-191 1350,-191 1350,-314 1350,-314 1350,-320 1344,-326 1338,-326 1338,-326 502,-326 502,-326 496,-326 490,-320 490,-314 490,-314 490,-191 490,-191 490,-185 496,-179 502,-179"/>
<text text-anchor="middle" x="920" y="-310.8" font-family="Times,serif" font-size="14.00" fill="#000000">BacterialTyper.scripts.blast_parser.BlastRecord</text>
</g>
<g id="clust4" class="cluster">
<title>cluster_BacterialTyper__scripts__blast_parser__Hsp</title>
<path fill="#808080" fill-opacity="0.094118" stroke="#000000" d="M1113,-24C1113,-24 1368,-24 1368,-24 1374,-24 1380,-30 1380,-36 1380,-36 1380,-159 1380,-159 1380,-165 1374,-171 1368,-171 1368,-171 1113,-171 1113,-171 1107,-171 1101,-165 1101,-159 1101,-159 1101,-36 1101,-36 1101,-30 1107,-24 1113,-24"/>
<text text-anchor="middle" x="1240.5" y="-155.8" font-family="Times,serif" font-size="14.00" fill="#000000">BacterialTyper.scripts.blast_parser.Hsp</text>
</g>
<!-- BacterialTyper__scripts__blast_parser -->
<g id="node1" class="node">
<title>BacterialTyper__scripts__blast_parser</title>
<ellipse fill="#ffffff" fill-opacity="0.698039" stroke="#000000" cx="150" cy="-352" rx="133.7763" ry="18"/>
<text text-anchor="middle" x="150" y="-348.3" font-family="Times,serif" font-size="14.00" fill="#000000">BacterialTyper.scripts.blast_parser</text>
</g>
<!-- BacterialTyper__scripts__blast_parser__BlastRecord -->
<g id="node2" class="node">
<title>BacterialTyper__scripts__blast_parser__BlastRecord</title>
<ellipse fill="#ff6565" fill-opacity="0.698039" stroke="#000000" cx="354" cy="-277" rx="53.8905" ry="18"/>
<text text-anchor="middle" x="354" y="-273.3" font-family="Times,serif" font-size="14.00" fill="#000000">BlastRecord</text>
</g>
<!-- BacterialTyper__scripts__blast_parser__Hsp -->
<g id="node3" class="node">
<title>BacterialTyper__scripts__blast_parser__Hsp</title>
<ellipse fill="#ff6565" fill-opacity="0.698039" stroke="#000000" cx="453" cy="-277" rx="27" ry="18"/>
<text text-anchor="middle" x="453" y="-273.3" font-family="Times,serif" font-size="14.00" fill="#000000">Hsp</text>
</g>
<!-- BacterialTyper__scripts__blast_parser__parse -->
<g id="node4" class="node">
<title>BacterialTyper__scripts__blast_parser__parse</title>
<ellipse fill="#ff6565" fill-opacity="0.698039" stroke="#000000" cx="877" cy="-352" rx="29.4969" ry="18"/>
<text text-anchor="middle" x="877" y="-348.3" font-family="Times,serif" font-size="14.00" fill="#000000">parse</text>
</g>
<!-- BacterialTyper__scripts__blast_parser__parse&#45;&gt;BacterialTyper__scripts__blast_parser__BlastRecord -->
<g id="edge7" class="edge">
<title>BacterialTyper__scripts__blast_parser__parse&#45;&gt;BacterialTyper__scripts__blast_parser__BlastRecord</title>
<path fill="none" stroke="#000000" d="M856.6885,-338.9745C852.6288,-336.9396 848.2896,-335.1367 844,-334 798.1304,-321.8448 461.7381,-341.8199 417,-326 402.3882,-320.8331 388.5181,-310.8272 377.531,-301.1971"/>
<polygon fill="#000000" stroke="#000000" points="379.7975,-298.5263 370.0708,-294.326 375.0551,-303.6751 379.7975,-298.5263"/>
</g>
<!-- BacterialTyper__scripts__blast_parser__parse&#45;&gt;BacterialTyper__scripts__blast_parser__Hsp -->
<g id="edge10" class="edge">
<title>BacterialTyper__scripts__blast_parser__parse&#45;&gt;BacterialTyper__scripts__blast_parser__Hsp</title>
<path fill="none" stroke="#000000" d="M856.6851,-338.987C852.6258,-336.951 848.2876,-335.1445 844,-334 824.7791,-328.8694 503.4564,-335.5415 486,-326 476.916,-321.0348 469.8651,-312.3673 464.6564,-303.6891"/>
<polygon fill="#000000" stroke="#000000" points="467.6978,-301.9547 459.8871,-294.7962 461.529,-305.2631 467.6978,-301.9547"/>
</g>
<!-- BacterialTyper__scripts__blast_parser__BlastRecord____init__ -->
<g id="node5" class="node">
<title>BacterialTyper__scripts__blast_parser__BlastRecord____init__</title>
<ellipse fill="#ff3232" fill-opacity="0.698039" stroke="#000000" cx="1302" cy="-277" rx="40.0939" ry="18"/>
<text text-anchor="middle" x="1302" y="-273.3" font-family="Times,serif" font-size="14.00" fill="#000000">__init__</text>
</g>
<!-- BacterialTyper__scripts__blast_parser__parse&#45;&gt;BacterialTyper__scripts__blast_parser__BlastRecord____init__ -->
<g id="edge9" class="edge">
<title>BacterialTyper__scripts__blast_parser__parse&#45;&gt;BacterialTyper__scripts__blast_parser__BlastRecord____init__</title>
<path fill="none" stroke="#000000" d="M906.3137,-350.5352C992.0475,-346.1767 1237.293,-333.1507 1253,-326 1264.6867,-320.6795 1275.1461,-311.2778 1283.37,-302.123"/>
<polygon fill="#000000" stroke="#000000" points="1286.2346,-304.1547 1289.9963,-294.2501 1280.8791,-299.6471 1286.2346,-304.1547"/>
</g>
<!-- BacterialTyper__scripts__blast_parser__Hsp____init__ -->
<g id="node13" class="node">
<title>BacterialTyper__scripts__blast_parser__Hsp____init__</title>
<ellipse fill="#ff3232" fill-opacity="0.698039" stroke="#000000" cx="1332" cy="-122" rx="40.0939" ry="18"/>
<text text-anchor="middle" x="1332" y="-118.3" font-family="Times,serif" font-size="14.00" fill="#000000">__init__</text>
</g>
<!-- BacterialTyper__scripts__blast_parser__parse&#45;&gt;BacterialTyper__scripts__blast_parser__Hsp____init__ -->
<g id="edge8" class="edge">
<title>BacterialTyper__scripts__blast_parser__parse&#45;&gt;BacterialTyper__scripts__blast_parser__Hsp____init__</title>
<path fill="none" stroke="#000000" d="M906.4619,-351.498C1008.0806,-349.6246 1338.5673,-342.2968 1354,-326 1399.5426,-277.9073 1367.3225,-192.058 1346.2752,-148.6695"/>
<polygon fill="#000000" stroke="#000000" points="1349.3357,-146.9642 1341.73,-139.5883 1343.076,-150.0973 1349.3357,-146.9642"/>
</g>
<!-- BacterialTyper__scripts__blast_parser__BlastRecord____str__ -->
<g id="node6" class="node">
<title>BacterialTyper__scripts__blast_parser__BlastRecord____str__</title>
<ellipse fill="#ff3232" fill-opacity="0.698039" stroke="#000000" cx="1207" cy="-277" rx="37.0935" ry="18"/>
<text text-anchor="middle" x="1207" y="-273.3" font-family="Times,serif" font-size="14.00" fill="#000000">__str__</text>
</g>
<!-- BacterialTyper__scripts__blast_parser__BlastRecord__format -->
<g id="node12" class="node">
<title>BacterialTyper__scripts__blast_parser__BlastRecord__format</title>
<ellipse fill="#ff3232" fill-opacity="0.698039" stroke="#000000" cx="1177" cy="-205" rx="34.394" ry="18"/>
<text text-anchor="middle" x="1177" y="-201.3" font-family="Times,serif" font-size="14.00" fill="#000000">format</text>
</g>
<!-- BacterialTyper__scripts__blast_parser__BlastRecord____str__&#45;&gt;BacterialTyper__scripts__blast_parser__BlastRecord__format -->
<g id="edge6" class="edge">
<title>BacterialTyper__scripts__blast_parser__BlastRecord____str__&#45;&gt;BacterialTyper__scripts__blast_parser__BlastRecord__format</title>
<path fill="none" stroke="#000000" d="M1199.5843,-259.2022C1196.1693,-251.0064 1192.0427,-241.1024 1188.2561,-232.0145"/>
<polygon fill="#000000" stroke="#000000" points="1191.4074,-230.4776 1184.3304,-222.593 1184.9459,-233.17 1191.4074,-230.4776"/>
</g>
<!-- BacterialTyper__scripts__blast_parser__BlastRecord___format -->
<g id="node7" class="node">
<title>BacterialTyper__scripts__blast_parser__BlastRecord___format</title>
<ellipse fill="#ff3232" fill-opacity="0.698039" stroke="#000000" cx="1095" cy="-277" rx="38.9931" ry="18"/>
<text text-anchor="middle" x="1095" y="-273.3" font-family="Times,serif" font-size="14.00" fill="#000000">_format</text>
</g>
<!-- BacterialTyper__scripts__blast_parser__BlastRecord___format&#45;&gt;BacterialTyper__scripts__blast_parser__BlastRecord___format -->
<g id="edge2" class="edge">
<title>BacterialTyper__scripts__blast_parser__BlastRecord___format&#45;&gt;BacterialTyper__scripts__blast_parser__BlastRecord___format</title>
<path fill="none" stroke="#000000" d="M1122.564,-289.854C1137.8866,-292.2534 1151.9965,-287.9688 1151.9965,-277 1151.9965,-268.5164 1143.5559,-264.0312 1132.6418,-263.5444"/>
<polygon fill="#000000" stroke="#000000" points="1132.3376,-260.0563 1122.564,-264.146 1132.7548,-267.0438 1132.3376,-260.0563"/>
</g>
<!-- BacterialTyper__scripts__blast_parser__Hsp___format -->
<g id="node15" class="node">
<title>BacterialTyper__scripts__blast_parser__Hsp___format</title>
<ellipse fill="#ff3232" fill-opacity="0.698039" stroke="#000000" cx="1148" cy="-50" rx="38.9931" ry="18"/>
<text text-anchor="middle" x="1148" y="-46.3" font-family="Times,serif" font-size="14.00" fill="#000000">_format</text>
</g>
<!-- BacterialTyper__scripts__blast_parser__BlastRecord___format&#45;&gt;BacterialTyper__scripts__blast_parser__Hsp___format -->
<g id="edge3" class="edge">
<title>BacterialTyper__scripts__blast_parser__BlastRecord___format&#45;&gt;BacterialTyper__scripts__blast_parser__Hsp___format</title>
<path fill="none" stroke="#000000" d="M1092.5531,-258.8239C1088.9451,-226.4614 1084.6442,-157.2529 1105,-104 1109.1934,-93.0296 1116.4777,-82.545 1123.8719,-73.7819"/>
<polygon fill="#000000" stroke="#000000" points="1126.5481,-76.0397 1130.6078,-66.2535 1121.3315,-71.3721 1126.5481,-76.0397"/>
</g>
<!-- BacterialTyper__scripts__blast_parser__BlastRecord__best_hits -->
<g id="node8" class="node">
<title>BacterialTyper__scripts__blast_parser__BlastRecord__best_hits</title>
<ellipse fill="#ff3232" fill-opacity="0.698039" stroke="#000000" cx="996" cy="-277" rx="42.4939" ry="18"/>
<text text-anchor="middle" x="996" y="-273.3" font-family="Times,serif" font-size="14.00" fill="#000000">best_hits</text>
</g>
<!-- BacterialTyper__scripts__blast_parser__BlastRecord__best_hsps -->
<g id="node9" class="node">
<title>BacterialTyper__scripts__blast_parser__BlastRecord__best_hsps</title>
<ellipse fill="#ff3232" fill-opacity="0.698039" stroke="#000000" cx="891" cy="-277" rx="44.6926" ry="18"/>
<text text-anchor="middle" x="891" y="-273.3" font-family="Times,serif" font-size="14.00" fill="#000000">best_hsps</text>
</g>
<!-- BacterialTyper__scripts__blast_parser__BlastRecord__best_hsps_except_query -->
<g id="node10" class="node">
<title>BacterialTyper__scripts__blast_parser__BlastRecord__best_hsps_except_query</title>
<ellipse fill="#ff3232" fill-opacity="0.698039" stroke="#000000" cx="731" cy="-277" rx="96.6831" ry="18"/>
<text text-anchor="middle" x="731" y="-273.3" font-family="Times,serif" font-size="14.00" fill="#000000">best_hsps_except_query</text>
</g>
<!-- BacterialTyper__scripts__blast_parser__BlastRecord__evalue_cutoff -->
<g id="node11" class="node">
<title>BacterialTyper__scripts__blast_parser__BlastRecord__evalue_cutoff</title>
<ellipse fill="#ff3232" fill-opacity="0.698039" stroke="#000000" cx="557" cy="-277" rx="59.2899" ry="18"/>
<text text-anchor="middle" x="557" y="-273.3" font-family="Times,serif" font-size="14.00" fill="#000000">evalue_cutoff</text>
</g>
<!-- BacterialTyper__scripts__blast_parser__BlastRecord__format&#45;&gt;BacterialTyper__scripts__blast_parser__BlastRecord__format -->
<g id="edge5" class="edge">
<title>BacterialTyper__scripts__blast_parser__BlastRecord__format&#45;&gt;BacterialTyper__scripts__blast_parser__BlastRecord__format</title>
<path fill="none" stroke="#000000" d="M1201.5492,-217.7082C1215.9591,-220.4157 1229.4469,-216.1797 1229.4469,-205 1229.4469,-196.5279 1221.7011,-192.0434 1211.6781,-191.5464"/>
<polygon fill="#000000" stroke="#000000" points="1211.2653,-188.0673 1201.5492,-192.2918 1211.7791,-195.0484 1211.2653,-188.0673"/>
</g>
<!-- BacterialTyper__scripts__blast_parser__Hsp__format -->
<g id="node16" class="node">
<title>BacterialTyper__scripts__blast_parser__Hsp__format</title>
<ellipse fill="#ff3232" fill-opacity="0.698039" stroke="#000000" cx="1148" cy="-122" rx="34.394" ry="18"/>
<text text-anchor="middle" x="1148" y="-118.3" font-family="Times,serif" font-size="14.00" fill="#000000">format</text>
</g>
<!-- BacterialTyper__scripts__blast_parser__BlastRecord__format&#45;&gt;BacterialTyper__scripts__blast_parser__Hsp__format -->
<g id="edge4" class="edge">
<title>BacterialTyper__scripts__blast_parser__BlastRecord__format&#45;&gt;BacterialTyper__scripts__blast_parser__Hsp__format</title>
<path fill="none" stroke="#000000" d="M1170.7074,-186.9902C1166.9072,-176.1138 1161.9855,-162.0276 1157.6962,-149.7511"/>
<polygon fill="#000000" stroke="#000000" points="1160.8829,-148.2605 1154.2803,-139.9746 1154.2747,-150.5695 1160.8829,-148.2605"/>
</g>
<!-- BacterialTyper__scripts__blast_parser__Hsp____str__ -->
<g id="node14" class="node">
<title>BacterialTyper__scripts__blast_parser__Hsp____str__</title>
<ellipse fill="#ff3232" fill-opacity="0.698039" stroke="#000000" cx="1237" cy="-122" rx="37.0935" ry="18"/>
<text text-anchor="middle" x="1237" y="-118.3" font-family="Times,serif" font-size="14.00" fill="#000000">__str__</text>
</g>
<!-- BacterialTyper__scripts__blast_parser__Hsp__format&#45;&gt;BacterialTyper__scripts__blast_parser__Hsp___format -->
<g id="edge1" class="edge">
<title>BacterialTyper__scripts__blast_parser__Hsp__format&#45;&gt;BacterialTyper__scripts__blast_parser__Hsp___format</title>
<path fill="none" stroke="#000000" d="M1148,-103.8314C1148,-96.131 1148,-86.9743 1148,-78.4166"/>
<polygon fill="#000000" stroke="#000000" points="1151.5001,-78.4132 1148,-68.4133 1144.5001,-78.4133 1151.5001,-78.4132"/>
</g>
</g>
</svg>
