<?xml version="1.0" encoding="UTF-8" standalone="no"?>
<!DOCTYPE svg PUBLIC "-//W3C//DTD SVG 1.1//EN"
 "http://www.w3.org/Graphics/SVG/1.1/DTD/svg11.dtd">
<!-- Generated by graphviz version 2.40.1 (20161225.0304)
 -->
<!-- Title: G Pages: 1 -->
<svg width="551pt" height="375pt"
 viewBox="0.00 0.00 551.00 375.00" xmlns="http://www.w3.org/2000/svg" xmlns:xlink="http://www.w3.org/1999/xlink">
<g id="graph0" class="graph" transform="scale(1 1) rotate(0) translate(4 371)">
<title>G</title>
<polygon fill="#ffffff" stroke="transparent" points="-4,4 -4,-371 547,-371 547,4 -4,4"/>
<g id="clust1" class="cluster">
<title>cluster_G</title>
<path fill="#808080" fill-opacity="0.094118" stroke="#000000" d="M20,-8C20,-8 523,-8 523,-8 529,-8 535,-14 535,-20 535,-20 535,-347 535,-347 535,-353 529,-359 523,-359 523,-359 20,-359 20,-359 14,-359 8,-353 8,-347 8,-347 8,-20 8,-20 8,-14 14,-8 20,-8"/>
</g>
<g id="clust2" class="cluster">
<title>cluster_BacterialTyper__scripts__BUSCO_caller</title>
<path fill="#808080" fill-opacity="0.094118" stroke="#000000" d="M28,-16C28,-16 515,-16 515,-16 521,-16 527,-22 527,-28 527,-28 527,-295 527,-295 527,-301 521,-307 515,-307 515,-307 28,-307 28,-307 22,-307 16,-301 16,-295 16,-295 16,-28 16,-28 16,-22 22,-16 28,-16"/>
<text text-anchor="middle" x="271.5" y="-291.8" font-family="Times,serif" font-size="14.00" fill="#000000">BacterialTyper.scripts.BUSCO_caller</text>
</g>
<!-- BacterialTyper__scripts__BUSCO_caller -->
<g id="node1" class="node">
<title>BacterialTyper__scripts__BUSCO_caller</title>
<ellipse fill="#ffffff" fill-opacity="0.698039" stroke="#000000" cx="193" cy="-333" rx="144.0747" ry="18"/>
<text text-anchor="middle" x="193" y="-329.3" font-family="Times,serif" font-size="14.00" fill="#000000">BacterialTyper.scripts.BUSCO_caller</text>
</g>
<!-- BacterialTyper__scripts__BUSCO_caller__main -->
<g id="node9" class="node">
<title>BacterialTyper__scripts__BUSCO_caller__main</title>
<ellipse fill="#ff6565" fill-opacity="0.698039" stroke="#000000" cx="193" cy="-258" rx="28.6953" ry="18"/>
<text text-anchor="middle" x="193" y="-254.3" font-family="Times,serif" font-size="14.00" fill="#000000">main</text>
</g>
<!-- BacterialTyper__scripts__BUSCO_caller&#45;&gt;BacterialTyper__scripts__BUSCO_caller__main -->
<g id="edge1" class="edge">
<title>BacterialTyper__scripts__BUSCO_caller&#45;&gt;BacterialTyper__scripts__BUSCO_caller__main</title>
<path fill="none" stroke="#000000" d="M193,-314.8446C193,-306.3401 193,-296.0076 193,-286.4964"/>
<polygon fill="#000000" stroke="#000000" points="196.5001,-286.2481 193,-276.2482 189.5001,-286.2482 196.5001,-286.2481"/>
</g>
<!-- BacterialTyper__scripts__BUSCO_caller__BUSCO_check_dataset -->
<g id="node2" class="node">
<title>BacterialTyper__scripts__BUSCO_caller__BUSCO_check_dataset</title>
<ellipse fill="#ff6565" fill-opacity="0.698039" stroke="#000000" cx="422" cy="-42" rx="93.6835" ry="18"/>
<text text-anchor="middle" x="422" y="-38.3" font-family="Times,serif" font-size="14.00" fill="#000000">BUSCO_check_dataset</text>
</g>
<!-- BacterialTyper__scripts__BUSCO_caller__BUSCO_download -->
<g id="node3" class="node">
<title>BacterialTyper__scripts__BUSCO_caller__BUSCO_download</title>
<ellipse fill="#ff6565" fill-opacity="0.698039" stroke="#000000" cx="422" cy="-114" rx="79.0865" ry="18"/>
<text text-anchor="middle" x="422" y="-110.3" font-family="Times,serif" font-size="14.00" fill="#000000">BUSCO_download</text>
</g>
<!-- BacterialTyper__scripts__BUSCO_caller__BUSCO_download&#45;&gt;BacterialTyper__scripts__BUSCO_caller__BUSCO_check_dataset -->
<g id="edge5" class="edge">
<title>BacterialTyper__scripts__BUSCO_caller__BUSCO_download&#45;&gt;BacterialTyper__scripts__BUSCO_caller__BUSCO_check_dataset</title>
<path fill="none" stroke="#000000" d="M422,-95.8314C422,-88.131 422,-78.9743 422,-70.4166"/>
<polygon fill="#000000" stroke="#000000" points="425.5001,-70.4132 422,-60.4133 418.5001,-70.4133 425.5001,-70.4132"/>
</g>
<!-- BacterialTyper__scripts__BUSCO_caller__BUSCO_download&#45;&gt;BacterialTyper__scripts__BUSCO_caller__BUSCO_download -->
<g id="edge4" class="edge">
<title>BacterialTyper__scripts__BUSCO_caller__BUSCO_download&#45;&gt;BacterialTyper__scripts__BUSCO_caller__BUSCO_download</title>
<path fill="none" stroke="#000000" d="M475.5347,-127.3146C499.0543,-128.4929 519.293,-124.0547 519.293,-114 519.293,-105.4378 504.6167,-100.9485 485.7359,-100.5319"/>
<polygon fill="#000000" stroke="#000000" points="485.4809,-97.0353 475.5347,-100.6854 485.5863,-104.0345 485.4809,-97.0353"/>
</g>
<!-- BacterialTyper__scripts__BUSCO_caller__BUSCO_plot -->
<g id="node4" class="node">
<title>BacterialTyper__scripts__BUSCO_caller__BUSCO_plot</title>
<ellipse fill="#ff6565" fill-opacity="0.698039" stroke="#000000" cx="452" cy="-258" rx="57.6901" ry="18"/>
<text text-anchor="middle" x="452" y="-254.3" font-family="Times,serif" font-size="14.00" fill="#000000">BUSCO_plot</text>
</g>
<!-- BacterialTyper__scripts__BUSCO_caller__BUSCO_retrieve_sets -->
<g id="node5" class="node">
<title>BacterialTyper__scripts__BUSCO_caller__BUSCO_retrieve_sets</title>
<ellipse fill="#ff6565" fill-opacity="0.698039" stroke="#000000" cx="430" cy="-186" rx="89.0842" ry="18"/>
<text text-anchor="middle" x="430" y="-182.3" font-family="Times,serif" font-size="14.00" fill="#000000">BUSCO_retrieve_sets</text>
</g>
<!-- BacterialTyper__scripts__BUSCO_caller__BUSCO_retrieve_sets&#45;&gt;BacterialTyper__scripts__BUSCO_caller__BUSCO_download -->
<g id="edge7" class="edge">
<title>BacterialTyper__scripts__BUSCO_caller__BUSCO_retrieve_sets&#45;&gt;BacterialTyper__scripts__BUSCO_caller__BUSCO_download</title>
<path fill="none" stroke="#000000" d="M427.9813,-167.8314C427.1257,-160.131 426.1083,-150.9743 425.1574,-142.4166"/>
<polygon fill="#000000" stroke="#000000" points="428.6289,-141.9656 424.0459,-132.4133 421.6717,-142.7386 428.6289,-141.9656"/>
</g>
<!-- BacterialTyper__scripts__BUSCO_caller__busco_datasets -->
<g id="node8" class="node">
<title>BacterialTyper__scripts__BUSCO_caller__busco_datasets</title>
<ellipse fill="#ff6565" fill-opacity="0.698039" stroke="#000000" cx="227" cy="-42" rx="63.8893" ry="18"/>
<text text-anchor="middle" x="227" y="-38.3" font-family="Times,serif" font-size="14.00" fill="#000000">busco_datasets</text>
</g>
<!-- BacterialTyper__scripts__BUSCO_caller__BUSCO_retrieve_sets&#45;&gt;BacterialTyper__scripts__BUSCO_caller__busco_datasets -->
<g id="edge8" class="edge">
<title>BacterialTyper__scripts__BUSCO_caller__BUSCO_retrieve_sets&#45;&gt;BacterialTyper__scripts__BUSCO_caller__busco_datasets</title>
<path fill="none" stroke="#000000" d="M390.2591,-169.7886C371.553,-160.7205 349.9132,-147.9977 334,-132 321.0919,-119.0234 326.6255,-109.2518 314,-96 301.2891,-82.6586 284.6081,-71.268 269.2559,-62.4357"/>
<polygon fill="#000000" stroke="#000000" points="270.8539,-59.3198 260.4104,-57.5356 267.4618,-65.443 270.8539,-59.3198"/>
</g>
<!-- BacterialTyper__scripts__BUSCO_caller__print_available_BUSCO -->
<g id="node10" class="node">
<title>BacterialTyper__scripts__BUSCO_caller__print_available_BUSCO</title>
<ellipse fill="#ff6565" fill-opacity="0.698039" stroke="#000000" cx="208" cy="-114" rx="96.6831" ry="18"/>
<text text-anchor="middle" x="208" y="-110.3" font-family="Times,serif" font-size="14.00" fill="#000000">print_available_BUSCO</text>
</g>
<!-- BacterialTyper__scripts__BUSCO_caller__BUSCO_retrieve_sets&#45;&gt;BacterialTyper__scripts__BUSCO_caller__print_available_BUSCO -->
<g id="edge6" class="edge">
<title>BacterialTyper__scripts__BUSCO_caller__BUSCO_retrieve_sets&#45;&gt;BacterialTyper__scripts__BUSCO_caller__print_available_BUSCO</title>
<path fill="none" stroke="#000000" d="M382.6477,-170.6425C348.6594,-159.6193 302.646,-144.696 266.3814,-132.9345"/>
<polygon fill="#000000" stroke="#000000" points="267.0216,-129.4627 256.4295,-129.7069 264.862,-136.1213 267.0216,-129.4627"/>
</g>
<!-- BacterialTyper__scripts__BUSCO_caller__BUSCO_run -->
<g id="node6" class="node">
<title>BacterialTyper__scripts__BUSCO_caller__BUSCO_run</title>
<ellipse fill="#ff6565" fill-opacity="0.698039" stroke="#000000" cx="312" cy="-258" rx="55.7903" ry="18"/>
<text text-anchor="middle" x="312" y="-254.3" font-family="Times,serif" font-size="14.00" fill="#000000">BUSCO_run</text>
</g>
<!-- BacterialTyper__scripts__BUSCO_caller__BUSCO_stats -->
<g id="node7" class="node">
<title>BacterialTyper__scripts__BUSCO_caller__BUSCO_stats</title>
<ellipse fill="#ff6565" fill-opacity="0.698039" stroke="#000000" cx="263" cy="-186" rx="59.5901" ry="18"/>
<text text-anchor="middle" x="263" y="-182.3" font-family="Times,serif" font-size="14.00" fill="#000000">BUSCO_stats</text>
</g>
<!-- BacterialTyper__scripts__BUSCO_caller__main&#45;&gt;BacterialTyper__scripts__BUSCO_caller__BUSCO_stats -->
<g id="edge10" class="edge">
<title>BacterialTyper__scripts__BUSCO_caller__main&#45;&gt;BacterialTyper__scripts__BUSCO_caller__BUSCO_stats</title>
<path fill="none" stroke="#000000" d="M208.189,-242.3771C217.1841,-233.1249 228.7823,-221.1954 238.9917,-210.6942"/>
<polygon fill="#000000" stroke="#000000" points="241.662,-212.9687 246.1233,-203.3589 236.643,-208.0891 241.662,-212.9687"/>
</g>
<!-- BacterialTyper__scripts__BUSCO_caller__print_help_BUSCO -->
<g id="node11" class="node">
<title>BacterialTyper__scripts__BUSCO_caller__print_help_BUSCO</title>
<ellipse fill="#ff6565" fill-opacity="0.698039" stroke="#000000" cx="105" cy="-186" rx="80.6858" ry="18"/>
<text text-anchor="middle" x="105" y="-182.3" font-family="Times,serif" font-size="14.00" fill="#000000">print_help_BUSCO</text>
</g>
<!-- BacterialTyper__scripts__BUSCO_caller__main&#45;&gt;BacterialTyper__scripts__BUSCO_caller__print_help_BUSCO -->
<g id="edge9" class="edge">
<title>BacterialTyper__scripts__BUSCO_caller__main&#45;&gt;BacterialTyper__scripts__BUSCO_caller__print_help_BUSCO</title>
<path fill="none" stroke="#000000" d="M175.1919,-243.4297C163.5466,-233.9017 148.0527,-221.2249 134.5846,-210.2056"/>
<polygon fill="#000000" stroke="#000000" points="136.4691,-207.2252 126.5131,-203.6017 132.0364,-212.6429 136.4691,-207.2252"/>
</g>
<!-- BacterialTyper__scripts__BUSCO_caller__print_available_BUSCO&#45;&gt;BacterialTyper__scripts__BUSCO_caller__busco_datasets -->
<g id="edge3" class="edge">
<title>BacterialTyper__scripts__BUSCO_caller__print_available_BUSCO&#45;&gt;BacterialTyper__scripts__BUSCO_caller__busco_datasets</title>
<path fill="none" stroke="#000000" d="M212.7945,-95.8314C214.8489,-88.0463 217.296,-78.7729 219.5756,-70.1347"/>
<polygon fill="#000000" stroke="#000000" points="222.9735,-70.9753 222.1409,-60.4133 216.2052,-69.1892 222.9735,-70.9753"/>
</g>
<!-- BacterialTyper__scripts__BUSCO_caller__print_help_BUSCO&#45;&gt;BacterialTyper__scripts__BUSCO_caller__print_available_BUSCO -->
<g id="edge2" class="edge">
<title>BacterialTyper__scripts__BUSCO_caller__print_help_BUSCO&#45;&gt;BacterialTyper__scripts__BUSCO_caller__print_available_BUSCO</title>
<path fill="none" stroke="#000000" d="M129.6711,-168.7542C143.1038,-159.3644 159.915,-147.6128 174.5157,-137.4065"/>
<polygon fill="#000000" stroke="#000000" points="176.6239,-140.2032 182.8147,-131.6053 172.6134,-134.466 176.6239,-140.2032"/>
</g>
</g>
</svg>
