<?xml version="1.0" encoding="UTF-8" standalone="no"?>
<!DOCTYPE svg PUBLIC "-//W3C//DTD SVG 1.1//EN"
 "http://www.w3.org/Graphics/SVG/1.1/DTD/svg11.dtd">
<!-- Generated by graphviz version 2.40.1 (20161225.0304)
 -->
<!-- Title: G Pages: 1 -->
<svg width="1627pt" height="417pt"
 viewBox="0.00 0.00 1627.00 417.00" xmlns="http://www.w3.org/2000/svg" xmlns:xlink="http://www.w3.org/1999/xlink">
<g id="graph0" class="graph" transform="scale(1 1) rotate(0) translate(4 413)">
<title>G</title>
<polygon fill="#ffffff" stroke="transparent" points="-4,4 -4,-413 1623,-413 1623,4 -4,4"/>
<g id="clust1" class="cluster">
<title>cluster_G</title>
<path fill="#808080" fill-opacity="0.094118" stroke="#000000" d="M20,-8C20,-8 1599,-8 1599,-8 1605,-8 1611,-14 1611,-20 1611,-20 1611,-389 1611,-389 1611,-395 1605,-401 1599,-401 1599,-401 20,-401 20,-401 14,-401 8,-395 8,-389 8,-389 8,-20 8,-20 8,-14 14,-8 20,-8"/>
</g>
<g id="clust2" class="cluster">
<title>cluster_BacterialTyper__config__set_config</title>
<path fill="#808080" fill-opacity="0.094118" stroke="#000000" d="M910,-243C910,-243 1082,-243 1082,-243 1088,-243 1094,-249 1094,-255 1094,-255 1094,-306 1094,-306 1094,-312 1088,-318 1082,-318 1082,-318 910,-318 910,-318 904,-318 898,-312 898,-306 898,-306 898,-255 898,-255 898,-249 904,-243 910,-243"/>
<text text-anchor="middle" x="996" y="-302.8" font-family="Times,serif" font-size="14.00" fill="#000000">BacterialTyper.config.set_config</text>
</g>
<g id="clust3" class="cluster">
<title>cluster_BacterialTyper__data__data_files</title>
<path fill="#808080" fill-opacity="0.094118" stroke="#000000" d="M28,-16C28,-16 184,-16 184,-16 190,-16 196,-22 196,-28 196,-28 196,-79 196,-79 196,-85 190,-91 184,-91 184,-91 28,-91 28,-91 22,-91 16,-85 16,-79 16,-79 16,-28 16,-28 16,-22 22,-16 28,-16"/>
<text text-anchor="middle" x="106" y="-75.8" font-family="Times,serif" font-size="14.00" fill="#000000">BacterialTyper.data.data_files</text>
</g>
<g id="clust4" class="cluster">
<title>cluster_BacterialTyper__scripts__BUSCO_caller</title>
<path fill="#808080" fill-opacity="0.094118" stroke="#000000" d="M390,-99C390,-99 878,-99 878,-99 884,-99 890,-105 890,-111 890,-111 890,-381 890,-381 890,-387 884,-393 878,-393 878,-393 390,-393 390,-393 384,-393 378,-387 378,-381 378,-381 378,-111 378,-111 378,-105 384,-99 390,-99"/>
<text text-anchor="middle" x="634" y="-377.8" font-family="Times,serif" font-size="14.00" fill="#000000">BacterialTyper.scripts.BUSCO_caller</text>
</g>
<g id="clust5" class="cluster">
<title>cluster_BacterialTyper__scripts__functions</title>
<path fill="#808080" fill-opacity="0.094118" stroke="#000000" d="M216,-16C216,-16 1591,-16 1591,-16 1597,-16 1603,-22 1603,-28 1603,-28 1603,-79 1603,-79 1603,-85 1597,-91 1591,-91 1591,-91 216,-91 216,-91 210,-91 204,-85 204,-79 204,-79 204,-28 204,-28 204,-22 210,-16 216,-16"/>
<text text-anchor="middle" x="903.5" y="-75.8" font-family="Times,serif" font-size="14.00" fill="#000000">BacterialTyper.scripts.functions</text>
</g>
<!-- BacterialTyper__config__set_config__get_exe -->
<g id="node1" class="node">
<title>BacterialTyper__config__set_config__get_exe</title>
<ellipse fill="#ff8e65" fill-opacity="0.698039" stroke="#000000" cx="944" cy="-269" rx="38.1938" ry="18"/>
<text text-anchor="middle" x="944" y="-265.3" font-family="Times,serif" font-size="14.00" fill="#000000">get_exe</text>
</g>
<!-- BacterialTyper__data__data_files__data_list -->
<g id="node2" class="node">
<title>BacterialTyper__data__data_files__data_list</title>
<ellipse fill="#ffa365" fill-opacity="0.698039" stroke="#000000" cx="148" cy="-42" rx="40.0939" ry="18"/>
<text text-anchor="middle" x="148" y="-38.3" font-family="Times,serif" font-size="14.00" fill="#000000">data_list</text>
</g>
<!-- BacterialTyper__scripts__BUSCO_caller__BUSCO_check_dataset -->
<g id="node3" class="node">
<title>BacterialTyper__scripts__BUSCO_caller__BUSCO_check_dataset</title>
<ellipse fill="#65fff4" fill-opacity="0.698039" stroke="#000000" cx="697" cy="-125" rx="93.6835" ry="18"/>
<text text-anchor="middle" x="697" y="-121.3" font-family="Times,serif" font-size="14.00" fill="#000000">BUSCO_check_dataset</text>
</g>
<!-- BacterialTyper__scripts__functions__print_sepLine -->
<g id="node17" class="node">
<title>BacterialTyper__scripts__functions__print_sepLine</title>
<ellipse fill="#a365ff" fill-opacity="0.698039" stroke="#000000" cx="735" cy="-42" rx="59.5901" ry="18"/>
<text text-anchor="middle" x="735" y="-38.3" font-family="Times,serif" font-size="14.00" fill="#000000">print_sepLine</text>
</g>
<!-- BacterialTyper__scripts__BUSCO_caller__BUSCO_check_dataset&#45;&gt;BacterialTyper__scripts__functions__print_sepLine -->
<g id="edge16" class="edge">
<title>BacterialTyper__scripts__BUSCO_caller__BUSCO_check_dataset&#45;&gt;BacterialTyper__scripts__functions__print_sepLine</title>
<path fill="none" stroke="#000000" d="M705.2454,-106.9902C710.2748,-96.005 716.8033,-81.7455 722.4631,-69.3833"/>
<polygon fill="#000000" stroke="#000000" points="725.7902,-70.524 726.7707,-59.9746 719.4255,-67.61 725.7902,-70.524"/>
</g>
<!-- BacterialTyper__scripts__functions__readList_fromFile -->
<g id="node19" class="node">
<title>BacterialTyper__scripts__functions__readList_fromFile</title>
<ellipse fill="#a365ff" fill-opacity="0.698039" stroke="#000000" cx="430" cy="-42" rx="75.2868" ry="18"/>
<text text-anchor="middle" x="430" y="-38.3" font-family="Times,serif" font-size="14.00" fill="#000000">readList_fromFile</text>
</g>
<!-- BacterialTyper__scripts__BUSCO_caller__BUSCO_check_dataset&#45;&gt;BacterialTyper__scripts__functions__readList_fromFile -->
<g id="edge15" class="edge">
<title>BacterialTyper__scripts__BUSCO_caller__BUSCO_check_dataset&#45;&gt;BacterialTyper__scripts__functions__readList_fromFile</title>
<path fill="none" stroke="#000000" d="M629.3298,-112.5636C577.7954,-103.0715 515.4175,-91.5269 514,-91 496.141,-84.3616 477.7038,-74.0538 462.6688,-64.6019"/>
<polygon fill="#000000" stroke="#000000" points="464.5414,-61.6449 454.2397,-59.1699 460.7495,-67.5289 464.5414,-61.6449"/>
</g>
<!-- BacterialTyper__scripts__functions__read_time_stamp -->
<g id="node20" class="node">
<title>BacterialTyper__scripts__functions__read_time_stamp</title>
<ellipse fill="#a365ff" fill-opacity="0.698039" stroke="#000000" cx="1105" cy="-42" rx="72.2875" ry="18"/>
<text text-anchor="middle" x="1105" y="-38.3" font-family="Times,serif" font-size="14.00" fill="#000000">read_time_stamp</text>
</g>
<!-- BacterialTyper__scripts__BUSCO_caller__BUSCO_check_dataset&#45;&gt;BacterialTyper__scripts__functions__read_time_stamp -->
<g id="edge14" class="edge">
<title>BacterialTyper__scripts__BUSCO_caller__BUSCO_check_dataset&#45;&gt;BacterialTyper__scripts__functions__read_time_stamp</title>
<path fill="none" stroke="#000000" d="M772.9551,-114.4569C812.3033,-109.2613 861.1684,-103.2219 905,-99 931.1613,-96.4801 997.9161,-98.8463 1023,-91 1041.0883,-85.342 1059.3682,-74.9707 1074.0639,-65.2218"/>
<polygon fill="#000000" stroke="#000000" points="1076.4547,-67.8258 1082.7171,-59.2799 1072.4923,-62.0553 1076.4547,-67.8258"/>
</g>
<!-- BacterialTyper__scripts__BUSCO_caller__BUSCO_download -->
<g id="node4" class="node">
<title>BacterialTyper__scripts__BUSCO_caller__BUSCO_download</title>
<ellipse fill="#65fff4" fill-opacity="0.698039" stroke="#000000" cx="697" cy="-197" rx="79.0865" ry="18"/>
<text text-anchor="middle" x="697" y="-193.3" font-family="Times,serif" font-size="14.00" fill="#000000">BUSCO_download</text>
</g>
<!-- BacterialTyper__scripts__BUSCO_caller__BUSCO_download&#45;&gt;BacterialTyper__scripts__BUSCO_caller__BUSCO_check_dataset -->
<g id="edge12" class="edge">
<title>BacterialTyper__scripts__BUSCO_caller__BUSCO_download&#45;&gt;BacterialTyper__scripts__BUSCO_caller__BUSCO_check_dataset</title>
<path fill="none" stroke="#000000" d="M697,-178.8314C697,-171.131 697,-161.9743 697,-153.4166"/>
<polygon fill="#000000" stroke="#000000" points="700.5001,-153.4132 697,-143.4133 693.5001,-153.4133 700.5001,-153.4132"/>
</g>
<!-- BacterialTyper__scripts__BUSCO_caller__BUSCO_download&#45;&gt;BacterialTyper__scripts__BUSCO_caller__BUSCO_download -->
<g id="edge11" class="edge">
<title>BacterialTyper__scripts__BUSCO_caller__BUSCO_download&#45;&gt;BacterialTyper__scripts__BUSCO_caller__BUSCO_download</title>
<path fill="none" stroke="#000000" d="M750.5347,-210.3146C774.0543,-211.4929 794.293,-207.0547 794.293,-197 794.293,-188.4378 779.6167,-183.9485 760.7359,-183.5319"/>
<polygon fill="#000000" stroke="#000000" points="760.4809,-180.0353 750.5347,-183.6854 760.5863,-187.0345 760.4809,-180.0353"/>
</g>
<!-- BacterialTyper__scripts__functions__create_folder -->
<g id="node13" class="node">
<title>BacterialTyper__scripts__functions__create_folder</title>
<ellipse fill="#a365ff" fill-opacity="0.698039" stroke="#000000" cx="870" cy="-42" rx="57.3905" ry="18"/>
<text text-anchor="middle" x="870" y="-38.3" font-family="Times,serif" font-size="14.00" fill="#000000">create_folder</text>
</g>
<!-- BacterialTyper__scripts__BUSCO_caller__BUSCO_download&#45;&gt;BacterialTyper__scripts__functions__create_folder -->
<g id="edge10" class="edge">
<title>BacterialTyper__scripts__BUSCO_caller__BUSCO_download&#45;&gt;BacterialTyper__scripts__functions__create_folder</title>
<path fill="none" stroke="#000000" d="M762.9437,-186.904C791.5066,-179.3236 823.1161,-166.0863 844,-143 861.9543,-123.1523 867.8432,-92.5529 869.614,-70.2345"/>
<polygon fill="#000000" stroke="#000000" points="873.1209,-70.2073 870.1873,-60.0268 866.1319,-69.8147 873.1209,-70.2073"/>
</g>
<!-- BacterialTyper__scripts__functions__extract -->
<g id="node14" class="node">
<title>BacterialTyper__scripts__functions__extract</title>
<ellipse fill="#a365ff" fill-opacity="0.698039" stroke="#000000" cx="980" cy="-42" rx="34.394" ry="18"/>
<text text-anchor="middle" x="980" y="-38.3" font-family="Times,serif" font-size="14.00" fill="#000000">extract</text>
</g>
<!-- BacterialTyper__scripts__BUSCO_caller__BUSCO_download&#45;&gt;BacterialTyper__scripts__functions__extract -->
<g id="edge8" class="edge">
<title>BacterialTyper__scripts__BUSCO_caller__BUSCO_download&#45;&gt;BacterialTyper__scripts__functions__extract</title>
<path fill="none" stroke="#000000" d="M754.3856,-184.4902C786.6328,-175.879 826.7543,-162.4372 859,-143 883.2297,-128.3947 880.2796,-112.7584 905,-99 917.4332,-92.0802 923.8384,-98.3868 936,-91 945.9232,-84.9728 954.8971,-76.0173 962.1135,-67.4049"/>
<polygon fill="#000000" stroke="#000000" points="965.0163,-69.3767 968.4675,-59.3597 959.5229,-65.0381 965.0163,-69.3767"/>
</g>
<!-- BacterialTyper__scripts__BUSCO_caller__BUSCO_download&#45;&gt;BacterialTyper__scripts__functions__print_sepLine -->
<g id="edge13" class="edge">
<title>BacterialTyper__scripts__BUSCO_caller__BUSCO_download&#45;&gt;BacterialTyper__scripts__functions__print_sepLine</title>
<path fill="none" stroke="#000000" d="M748.9663,-183.2782C783.6599,-172.9462 824.7388,-158.034 835,-143 846.0242,-126.848 846.9763,-114.4593 835,-99 826.2857,-87.7514 816.9038,-96.9967 804,-91 789.4935,-84.2585 774.8457,-74.3884 762.8007,-65.2702"/>
<polygon fill="#000000" stroke="#000000" points="764.9514,-62.509 754.9113,-59.1254 760.65,-68.0315 764.9514,-62.509"/>
</g>
<!-- BacterialTyper__scripts__functions__print_time_stamp -->
<g id="node18" class="node">
<title>BacterialTyper__scripts__functions__print_time_stamp</title>
<ellipse fill="#a365ff" fill-opacity="0.698039" stroke="#000000" cx="1398" cy="-42" rx="73.387" ry="18"/>
<text text-anchor="middle" x="1398" y="-38.3" font-family="Times,serif" font-size="14.00" fill="#000000">print_time_stamp</text>
</g>
<!-- BacterialTyper__scripts__BUSCO_caller__BUSCO_download&#45;&gt;BacterialTyper__scripts__functions__print_time_stamp -->
<g id="edge9" class="edge">
<title>BacterialTyper__scripts__BUSCO_caller__BUSCO_download&#45;&gt;BacterialTyper__scripts__functions__print_time_stamp</title>
<path fill="none" stroke="#000000" d="M747.9558,-183.175C839.8594,-158.4705 1030.1218,-108.44 1098,-99 1146.0149,-92.3225 1269.5147,-104.753 1316,-91 1334.4783,-85.5331 1353.0756,-74.9342 1367.8771,-64.9883"/>
<polygon fill="#000000" stroke="#000000" points="1369.9134,-67.8353 1376.1238,-59.2515 1365.916,-62.089 1369.9134,-67.8353"/>
</g>
<!-- BacterialTyper__scripts__functions__wget_download -->
<g id="node22" class="node">
<title>BacterialTyper__scripts__functions__wget_download</title>
<ellipse fill="#a365ff" fill-opacity="0.698039" stroke="#000000" cx="590" cy="-42" rx="66.8882" ry="18"/>
<text text-anchor="middle" x="590" y="-38.3" font-family="Times,serif" font-size="14.00" fill="#000000">wget_download</text>
</g>
<!-- BacterialTyper__scripts__BUSCO_caller__BUSCO_download&#45;&gt;BacterialTyper__scripts__functions__wget_download -->
<g id="edge7" class="edge">
<title>BacterialTyper__scripts__BUSCO_caller__BUSCO_download&#45;&gt;BacterialTyper__scripts__functions__wget_download</title>
<path fill="none" stroke="#000000" d="M747.5364,-183.1093C767.4967,-174.8758 788.4015,-162.1767 800,-143 810.1206,-126.267 813.4095,-113.2339 800,-99 789.7723,-88.1435 680.1762,-95.6373 666,-91 649.1089,-85.4746 632.2952,-75.2544 618.7933,-65.5718"/>
<polygon fill="#000000" stroke="#000000" points="620.5415,-62.5097 610.4314,-59.3414 616.3591,-68.1229 620.5415,-62.5097"/>
</g>
<!-- BacterialTyper__scripts__BUSCO_caller__BUSCO_plot -->
<g id="node5" class="node">
<title>BacterialTyper__scripts__BUSCO_caller__BUSCO_plot</title>
<ellipse fill="#65fff4" fill-opacity="0.698039" stroke="#000000" cx="694" cy="-344" rx="57.6901" ry="18"/>
<text text-anchor="middle" x="694" y="-340.3" font-family="Times,serif" font-size="14.00" fill="#000000">BUSCO_plot</text>
</g>
<!-- BacterialTyper__scripts__BUSCO_caller__BUSCO_plot&#45;&gt;BacterialTyper__config__set_config__get_exe -->
<g id="edge25" class="edge">
<title>BacterialTyper__scripts__BUSCO_caller__BUSCO_plot&#45;&gt;BacterialTyper__config__set_config__get_exe</title>
<path fill="none" stroke="#000000" d="M735.5323,-331.4454C743.8981,-329.313 752.6783,-327.3538 761,-326 790.2248,-321.2457 866.9365,-330.0108 894,-318 905.977,-312.6846 916.734,-303.1556 925.1744,-293.9047"/>
<polygon fill="#000000" stroke="#000000" points="927.844,-296.1682 931.6953,-286.2981 922.5296,-291.6123 927.844,-296.1682"/>
</g>
<!-- BacterialTyper__scripts__functions__system_call -->
<g id="node21" class="node">
<title>BacterialTyper__scripts__functions__system_call</title>
<ellipse fill="#a365ff" fill-opacity="0.698039" stroke="#000000" cx="1542" cy="-42" rx="52.7911" ry="18"/>
<text text-anchor="middle" x="1542" y="-38.3" font-family="Times,serif" font-size="14.00" fill="#000000">system_call</text>
</g>
<!-- BacterialTyper__scripts__BUSCO_caller__BUSCO_plot&#45;&gt;BacterialTyper__scripts__functions__system_call -->
<g id="edge26" class="edge">
<title>BacterialTyper__scripts__BUSCO_caller__BUSCO_plot&#45;&gt;BacterialTyper__scripts__functions__system_call</title>
<path fill="none" stroke="#000000" d="M735.1371,-331.2963C743.6131,-329.1471 752.5359,-327.2195 761,-326 779.5361,-323.3293 1084.0571,-330.5026 1098,-318 1123.0368,-295.5495 1087.8793,-269.9448 1108,-243 1201.7995,-117.3877 1279.7579,-143.7673 1430,-99 1451.5678,-92.5735 1459.394,-100.0477 1480,-91 1493.6142,-85.0223 1506.8129,-75.3242 1517.5081,-66.127"/>
<polygon fill="#000000" stroke="#000000" points="1520.0559,-68.5434 1525.1642,-59.2613 1515.3825,-63.3319 1520.0559,-68.5434"/>
</g>
<!-- BacterialTyper__scripts__BUSCO_caller__BUSCO_retrieve_sets -->
<g id="node6" class="node">
<title>BacterialTyper__scripts__BUSCO_caller__BUSCO_retrieve_sets</title>
<ellipse fill="#65fff4" fill-opacity="0.698039" stroke="#000000" cx="655" cy="-269" rx="89.0842" ry="18"/>
<text text-anchor="middle" x="655" y="-265.3" font-family="Times,serif" font-size="14.00" fill="#000000">BUSCO_retrieve_sets</text>
</g>
<!-- BacterialTyper__scripts__BUSCO_caller__BUSCO_retrieve_sets&#45;&gt;BacterialTyper__scripts__BUSCO_caller__BUSCO_download -->
<g id="edge18" class="edge">
<title>BacterialTyper__scripts__BUSCO_caller__BUSCO_retrieve_sets&#45;&gt;BacterialTyper__scripts__BUSCO_caller__BUSCO_download</title>
<path fill="none" stroke="#000000" d="M665.5984,-250.8314C670.41,-242.5829 676.1963,-232.6635 681.4838,-223.5992"/>
<polygon fill="#000000" stroke="#000000" points="684.535,-225.3148 686.5505,-214.9134 678.4885,-221.7876 684.535,-225.3148"/>
</g>
<!-- BacterialTyper__scripts__BUSCO_caller__busco_datasets -->
<g id="node9" class="node">
<title>BacterialTyper__scripts__BUSCO_caller__busco_datasets</title>
<ellipse fill="#65fff4" fill-opacity="0.698039" stroke="#000000" cx="483" cy="-125" rx="63.8893" ry="18"/>
<text text-anchor="middle" x="483" y="-121.3" font-family="Times,serif" font-size="14.00" fill="#000000">busco_datasets</text>
</g>
<!-- BacterialTyper__scripts__BUSCO_caller__BUSCO_retrieve_sets&#45;&gt;BacterialTyper__scripts__BUSCO_caller__busco_datasets -->
<g id="edge17" class="edge">
<title>BacterialTyper__scripts__BUSCO_caller__BUSCO_retrieve_sets&#45;&gt;BacterialTyper__scripts__BUSCO_caller__busco_datasets</title>
<path fill="none" stroke="#000000" d="M638.3019,-251.2319C629.1243,-241.032 617.8427,-227.7513 609,-215 598.5697,-199.9594 602.1728,-191.7078 589,-179 573.0967,-163.6581 551.9713,-151.7078 532.7667,-142.994"/>
<polygon fill="#000000" stroke="#000000" points="534.0909,-139.7533 523.5246,-138.9756 531.2997,-146.1727 534.0909,-139.7533"/>
</g>
<!-- BacterialTyper__scripts__BUSCO_caller__print_available_BUSCO -->
<g id="node11" class="node">
<title>BacterialTyper__scripts__BUSCO_caller__print_available_BUSCO</title>
<ellipse fill="#65fff4" fill-opacity="0.698039" stroke="#000000" cx="483" cy="-197" rx="96.6831" ry="18"/>
<text text-anchor="middle" x="483" y="-193.3" font-family="Times,serif" font-size="14.00" fill="#000000">print_available_BUSCO</text>
</g>
<!-- BacterialTyper__scripts__BUSCO_caller__BUSCO_retrieve_sets&#45;&gt;BacterialTyper__scripts__BUSCO_caller__print_available_BUSCO -->
<g id="edge19" class="edge">
<title>BacterialTyper__scripts__BUSCO_caller__BUSCO_retrieve_sets&#45;&gt;BacterialTyper__scripts__BUSCO_caller__print_available_BUSCO</title>
<path fill="none" stroke="#000000" d="M615.9705,-252.6621C591.077,-242.2415 558.6094,-228.6505 531.9887,-217.5069"/>
<polygon fill="#000000" stroke="#000000" points="533.0463,-214.1554 522.4704,-213.5225 530.3433,-220.6125 533.0463,-214.1554"/>
</g>
<!-- BacterialTyper__scripts__BUSCO_caller__BUSCO_run -->
<g id="node7" class="node">
<title>BacterialTyper__scripts__BUSCO_caller__BUSCO_run</title>
<ellipse fill="#65fff4" fill-opacity="0.698039" stroke="#000000" cx="826" cy="-344" rx="55.7903" ry="18"/>
<text text-anchor="middle" x="826" y="-340.3" font-family="Times,serif" font-size="14.00" fill="#000000">BUSCO_run</text>
</g>
<!-- BacterialTyper__scripts__BUSCO_caller__BUSCO_run&#45;&gt;BacterialTyper__config__set_config__get_exe -->
<g id="edge23" class="edge">
<title>BacterialTyper__scripts__BUSCO_caller__BUSCO_run&#45;&gt;BacterialTyper__config__set_config__get_exe</title>
<path fill="none" stroke="#000000" d="M866.8726,-331.4892C876.1471,-327.8146 885.7015,-323.322 894,-318 904.6033,-311.1999 914.8162,-301.8746 923.217,-293.1834"/>
<polygon fill="#000000" stroke="#000000" points="925.8481,-295.4937 930.0972,-285.7883 920.7231,-290.7256 925.8481,-295.4937"/>
</g>
<!-- BacterialTyper__scripts__BUSCO_caller__BUSCO_run&#45;&gt;BacterialTyper__scripts__functions__print_time_stamp -->
<g id="edge22" class="edge">
<title>BacterialTyper__scripts__BUSCO_caller__BUSCO_run&#45;&gt;BacterialTyper__scripts__functions__print_time_stamp</title>
<path fill="none" stroke="#000000" d="M881.6568,-342.2472C958.9131,-339.3079 1091.1168,-332.2513 1108,-318 1134.3619,-295.7475 1108.6426,-271.5555 1128,-243 1159.5522,-196.4552 1296.2506,-106.2996 1362.1766,-64.4059"/>
<polygon fill="#000000" stroke="#000000" points="1364.4148,-67.1313 1370.991,-58.8244 1360.6699,-61.2173 1364.4148,-67.1313"/>
</g>
<!-- BacterialTyper__scripts__BUSCO_caller__BUSCO_run&#45;&gt;BacterialTyper__scripts__functions__read_time_stamp -->
<g id="edge20" class="edge">
<title>BacterialTyper__scripts__BUSCO_caller__BUSCO_run&#45;&gt;BacterialTyper__scripts__functions__read_time_stamp</title>
<path fill="none" stroke="#000000" d="M882.034,-343.1832C964.7965,-341.3874 1111.7446,-335.715 1128,-318 1191.635,-248.6511 1144.5072,-123.9868 1118.7979,-69.1457"/>
<polygon fill="#000000" stroke="#000000" points="1121.913,-67.5474 1114.4272,-60.0497 1115.6036,-70.5791 1121.913,-67.5474"/>
</g>
<!-- BacterialTyper__scripts__BUSCO_caller__BUSCO_run&#45;&gt;BacterialTyper__scripts__functions__system_call -->
<g id="edge21" class="edge">
<title>BacterialTyper__scripts__BUSCO_caller__BUSCO_run&#45;&gt;BacterialTyper__scripts__functions__system_call</title>
<path fill="none" stroke="#000000" d="M882.0353,-342.93C960.9433,-340.8362 1100.4819,-334.8168 1148,-318 1306.9845,-261.7348 1460.305,-122.5039 1517.9752,-66.2033"/>
<polygon fill="#000000" stroke="#000000" points="1520.4837,-68.6452 1525.1564,-59.1364 1515.5738,-63.6558 1520.4837,-68.6452"/>
</g>
<!-- BacterialTyper__scripts__BUSCO_caller__BUSCO_stats -->
<g id="node8" class="node">
<title>BacterialTyper__scripts__BUSCO_caller__BUSCO_stats</title>
<ellipse fill="#65fff4" fill-opacity="0.698039" stroke="#000000" cx="822" cy="-269" rx="59.5901" ry="18"/>
<text text-anchor="middle" x="822" y="-265.3" font-family="Times,serif" font-size="14.00" fill="#000000">BUSCO_stats</text>
</g>
<!-- BacterialTyper__scripts__functions__get_info_file -->
<g id="node16" class="node">
<title>BacterialTyper__scripts__functions__get_info_file</title>
<ellipse fill="#a365ff" fill-opacity="0.698039" stroke="#000000" cx="1251" cy="-42" rx="55.7903" ry="18"/>
<text text-anchor="middle" x="1251" y="-38.3" font-family="Times,serif" font-size="14.00" fill="#000000">get_info_file</text>
</g>
<!-- BacterialTyper__scripts__BUSCO_caller__BUSCO_stats&#45;&gt;BacterialTyper__scripts__functions__get_info_file -->
<g id="edge24" class="edge">
<title>BacterialTyper__scripts__BUSCO_caller__BUSCO_stats&#45;&gt;BacterialTyper__scripts__functions__get_info_file</title>
<path fill="none" stroke="#000000" d="M842.13,-251.925C885.5311,-216.2267 992.5433,-134.1064 1098,-99 1135.2619,-86.5955 1149.3613,-105.1396 1186,-91 1200.6407,-85.3499 1214.8104,-75.3816 1226.1628,-65.9045"/>
<polygon fill="#000000" stroke="#000000" points="1228.6613,-68.3697 1233.8977,-59.1593 1224.0605,-63.0939 1228.6613,-68.3697"/>
</g>
<!-- BacterialTyper__scripts__BUSCO_caller__busco_datasets&#45;&gt;BacterialTyper__data__data_files__data_list -->
<g id="edge1" class="edge">
<title>BacterialTyper__scripts__BUSCO_caller__busco_datasets&#45;&gt;BacterialTyper__data__data_files__data_list</title>
<path fill="none" stroke="#000000" d="M419.9676,-122.0102C348.747,-117.8352 237.8182,-108.695 200,-91 188.0624,-85.4145 177.0766,-76.0247 168.3088,-66.9508"/>
<polygon fill="#000000" stroke="#000000" points="170.8232,-64.5138 161.4934,-59.4933 165.656,-69.2362 170.8232,-64.5138"/>
</g>
<!-- BacterialTyper__scripts__functions__file2dataframe -->
<g id="node15" class="node">
<title>BacterialTyper__scripts__functions__file2dataframe</title>
<ellipse fill="#a365ff" fill-opacity="0.698039" stroke="#000000" cx="274" cy="-42" rx="62.2891" ry="18"/>
<text text-anchor="middle" x="274" y="-38.3" font-family="Times,serif" font-size="14.00" fill="#000000">file2dataframe</text>
</g>
<!-- BacterialTyper__scripts__BUSCO_caller__busco_datasets&#45;&gt;BacterialTyper__scripts__functions__file2dataframe -->
<g id="edge2" class="edge">
<title>BacterialTyper__scripts__BUSCO_caller__busco_datasets&#45;&gt;BacterialTyper__scripts__functions__file2dataframe</title>
<path fill="none" stroke="#000000" d="M427.8477,-115.9566C402.2506,-110.6011 371.84,-102.5521 346,-91 330.9714,-84.2813 315.703,-74.4146 303.1171,-65.2928"/>
<polygon fill="#000000" stroke="#000000" points="304.9777,-62.3144 294.8682,-59.1445 300.7944,-67.9269 304.9777,-62.3144"/>
</g>
<!-- BacterialTyper__scripts__BUSCO_caller__main -->
<g id="node10" class="node">
<title>BacterialTyper__scripts__BUSCO_caller__main</title>
<ellipse fill="#65fff4" fill-opacity="0.698039" stroke="#000000" cx="528" cy="-344" rx="28.6953" ry="18"/>
<text text-anchor="middle" x="528" y="-340.3" font-family="Times,serif" font-size="14.00" fill="#000000">main</text>
</g>
<!-- BacterialTyper__scripts__BUSCO_caller__main&#45;&gt;BacterialTyper__scripts__BUSCO_caller__BUSCO_stats -->
<g id="edge27" class="edge">
<title>BacterialTyper__scripts__BUSCO_caller__main&#45;&gt;BacterialTyper__scripts__BUSCO_caller__BUSCO_stats</title>
<path fill="none" stroke="#000000" d="M555.1832,-338.1756C575.0008,-334.1455 602.5503,-328.9886 627,-326 654.8491,-322.5959 726.554,-327.3685 753,-318 768.5284,-312.4991 783.6908,-302.417 795.8289,-292.822"/>
<polygon fill="#000000" stroke="#000000" points="798.2269,-295.3812 803.7164,-286.3194 793.7741,-289.98 798.2269,-295.3812"/>
</g>
<!-- BacterialTyper__scripts__BUSCO_caller__print_help_BUSCO -->
<g id="node12" class="node">
<title>BacterialTyper__scripts__BUSCO_caller__print_help_BUSCO</title>
<ellipse fill="#65fff4" fill-opacity="0.698039" stroke="#000000" cx="467" cy="-269" rx="80.6858" ry="18"/>
<text text-anchor="middle" x="467" y="-265.3" font-family="Times,serif" font-size="14.00" fill="#000000">print_help_BUSCO</text>
</g>
<!-- BacterialTyper__scripts__BUSCO_caller__main&#45;&gt;BacterialTyper__scripts__BUSCO_caller__print_help_BUSCO -->
<g id="edge28" class="edge">
<title>BacterialTyper__scripts__BUSCO_caller__main&#45;&gt;BacterialTyper__scripts__BUSCO_caller__print_help_BUSCO</title>
<path fill="none" stroke="#000000" d="M514.7639,-327.7261C506.9456,-318.1134 496.8705,-305.726 487.9905,-294.808"/>
<polygon fill="#000000" stroke="#000000" points="490.5151,-292.3651 481.49,-286.8156 485.0845,-296.782 490.5151,-292.3651"/>
</g>
<!-- BacterialTyper__scripts__BUSCO_caller__print_available_BUSCO&#45;&gt;BacterialTyper__scripts__BUSCO_caller__busco_datasets -->
<g id="edge5" class="edge">
<title>BacterialTyper__scripts__BUSCO_caller__print_available_BUSCO&#45;&gt;BacterialTyper__scripts__BUSCO_caller__busco_datasets</title>
<path fill="none" stroke="#000000" d="M483,-178.8314C483,-171.131 483,-161.9743 483,-153.4166"/>
<polygon fill="#000000" stroke="#000000" points="486.5001,-153.4132 483,-143.4133 479.5001,-153.4133 486.5001,-153.4132"/>
</g>
<!-- BacterialTyper__scripts__BUSCO_caller__print_available_BUSCO&#45;&gt;BacterialTyper__scripts__functions__print_sepLine -->
<g id="edge6" class="edge">
<title>BacterialTyper__scripts__BUSCO_caller__print_available_BUSCO&#45;&gt;BacterialTyper__scripts__functions__print_sepLine</title>
<path fill="none" stroke="#000000" d="M557.7353,-185.4804C650.2105,-171.0528 796.0727,-147.6528 800,-143 812.6135,-128.0561 808.071,-116.8123 800,-99 793.7691,-85.2488 782.3999,-73.5039 770.892,-64.3117"/>
<polygon fill="#000000" stroke="#000000" points="772.6633,-61.2657 762.5596,-58.0773 768.4697,-66.8705 772.6633,-61.2657"/>
</g>
<!-- BacterialTyper__scripts__BUSCO_caller__print_help_BUSCO&#45;&gt;BacterialTyper__scripts__BUSCO_caller__print_available_BUSCO -->
<g id="edge4" class="edge">
<title>BacterialTyper__scripts__BUSCO_caller__print_help_BUSCO&#45;&gt;BacterialTyper__scripts__BUSCO_caller__print_available_BUSCO</title>
<path fill="none" stroke="#000000" d="M471.0375,-250.8314C472.7487,-243.131 474.7835,-233.9743 476.6852,-225.4166"/>
<polygon fill="#000000" stroke="#000000" points="480.1554,-225.9344 478.9082,-215.4133 473.3221,-224.4159 480.1554,-225.9344"/>
</g>
<!-- BacterialTyper__scripts__BUSCO_caller__print_help_BUSCO&#45;&gt;BacterialTyper__scripts__functions__print_sepLine -->
<g id="edge3" class="edge">
<title>BacterialTyper__scripts__BUSCO_caller__print_help_BUSCO&#45;&gt;BacterialTyper__scripts__functions__print_sepLine</title>
<path fill="none" stroke="#000000" d="M512.8811,-254.1356C526.9195,-250.0248 542.4869,-245.9009 557,-243 610.9524,-232.2158 757.0761,-245.301 803,-215 848.6414,-184.8854 878.6672,-141.2872 844,-99 832.5059,-84.9794 820.6456,-98.1843 804,-91 789.2035,-84.6138 774.4194,-74.7046 762.3534,-65.4637"/>
<polygon fill="#000000" stroke="#000000" points="764.4814,-62.6844 754.4675,-59.2244 760.1381,-68.174 764.4814,-62.6844"/>
</g>
</g>
</svg>
