<?xml version="1.0" encoding="UTF-8" standalone="no"?>
<!DOCTYPE svg PUBLIC "-//W3C//DTD SVG 1.1//EN"
 "http://www.w3.org/Graphics/SVG/1.1/DTD/svg11.dtd">
<!-- Generated by graphviz version 2.40.1 (20161225.0304)
 -->
<!-- Title: G Pages: 1 -->
<svg width="1627pt" height="417pt"
 viewBox="0.00 0.00 1627.00 417.00" xmlns="http://www.w3.org/2000/svg" xmlns:xlink="http://www.w3.org/1999/xlink">
<g id="graph0" class="graph" transform="scale(1 1) rotate(0) translate(4 413)">
<title>G</title>
<polygon fill="#ffffff" stroke="transparent" points="-4,4 -4,-413 1623,-413 1623,4 -4,4"/>
<g id="clust1" class="cluster">
<title>cluster_G</title>
<path fill="#808080" fill-opacity="0.094118" stroke="#000000" d="M20,-8C20,-8 1599,-8 1599,-8 1605,-8 1611,-14 1611,-20 1611,-20 1611,-389 1611,-389 1611,-395 1605,-401 1599,-401 1599,-401 20,-401 20,-401 14,-401 8,-395 8,-389 8,-389 8,-20 8,-20 8,-14 14,-8 20,-8"/>
</g>
<g id="clust2" class="cluster">
<title>cluster_BacterialTyper__config__set_config</title>
<path fill="#808080" fill-opacity="0.094118" stroke="#000000" d="M910,-243C910,-243 1082,-243 1082,-243 1088,-243 1094,-249 1094,-255 1094,-255 1094,-306 1094,-306 1094,-312 1088,-318 1082,-318 1082,-318 910,-318 910,-318 904,-318 898,-312 898,-306 898,-306 898,-255 898,-255 898,-249 904,-243 910,-243"/>
<text text-anchor="middle" x="996" y="-302.8" font-family="Times,serif" font-size="14.00" fill="#000000">BacterialTyper.config.set_config</text>
</g>
<g id="clust3" class="cluster">
<title>cluster_BacterialTyper__data__data_files</title>
<path fill="#808080" fill-opacity="0.094118" stroke="#000000" d="M28,-16C28,-16 184,-16 184,-16 190,-16 196,-22 196,-28 196,-28 196,-79 196,-79 196,-85 190,-91 184,-91 184,-91 28,-91 28,-91 22,-91 16,-85 16,-79 16,-79 16,-28 16,-28 16,-22 22,-16 28,-16"/>
<text text-anchor="middle" x="106" y="-75.8" font-family="Times,serif" font-size="14.00" fill="#000000">BacterialTyper.data.data_files</text>
</g>
<g id="clust4" class="cluster">
<title>cluster_BacterialTyper__scripts__BUSCO_caller</title>
<path fill="#808080" fill-opacity="0.094118" stroke="#000000" d="M390,-99C390,-99 878,-99 878,-99 884,-99 890,-105 890,-111 890,-111 890,-381 890,-381 890,-387 884,-393 878,-393 878,-393 390,-393 390,-393 384,-393 378,-387 378,-381 378,-381 378,-111 378,-111 378,-105 384,-99 390,-99"/>
<text text-anchor="middle" x="634" y="-377.8" font-family="Times,serif" font-size="14.00" fill="#000000">BacterialTyper.scripts.BUSCO_caller</text>
</g>
<g id="clust5" class="cluster">
<title>cluster_BacterialTyper__scripts__functions</title>
<path fill="#808080" fill-opacity="0.094118" stroke="#000000" d="M216,-16C216,-16 1591,-16 1591,-16 1597,-16 1603,-22 1603,-28 1603,-28 1603,-79 1603,-79 1603,-85 1597,-91 1591,-91 1591,-91 216,-91 216,-91 210,-91 204,-85 204,-79 204,-79 204,-28 204,-28 204,-22 210,-16 216,-16"/>
<text text-anchor="middle" x="903.5" y="-75.8" font-family="Times,serif" font-size="14.00" fill="#000000">BacterialTyper.scripts.functions</text>
</g>
<!-- BacterialTyper__config__set_config__get_exe -->
<g id="node1" class="node">
<title>BacterialTyper__config__set_config__get_exe</title>
<ellipse fill="#ff8e65" fill-opacity="0.698039" stroke="#000000" cx="944" cy="-269" rx="38.1938" ry="18"/>
<text text-anchor="middle" x="944" y="-265.3" font-family="Times,serif" font-size="14.00" fill="#000000">get_exe</text>
</g>
<!-- BacterialTyper__data__data_files__data_list -->
<g id="node2" class="node">
<title>BacterialTyper__data__data_files__data_list</title>
<ellipse fill="#ffa365" fill-opacity="0.698039" stroke="#000000" cx="148" cy="-42" rx="40.0939" ry="18"/>
<text text-anchor="middle" x="148" y="-38.3" font-family="Times,serif" font-size="14.00" fill="#000000">data_list</text>
</g>
<!-- BacterialTyper__scripts__BUSCO_caller__BUSCO_check_dataset -->
<g id="node3" class="node">
<title>BacterialTyper__scripts__BUSCO_caller__BUSCO_check_dataset</title>
<ellipse fill="#65fff4" fill-opacity="0.698039" stroke="#000000" cx="697" cy="-125" rx="93.6835" ry="18"/>
<text text-anchor="middle" x="697" y="-121.3" font-family="Times,serif" font-size="14.00" fill="#000000">BUSCO_check_dataset</text>
</g>
<!-- BacterialTyper__scripts__functions__print_sepLine -->
<g id="node17" class="node">
<title>BacterialTyper__scripts__functions__print_sepLine</title>
<ellipse fill="#a365ff" fill-opacity="0.698039" stroke="#000000" cx="735" cy="-42" rx="59.5901" ry="18"/>
<text text-anchor="middle" x="735" y="-38.3" font-family="Times,serif" font-size="14.00" fill="#000000">print_sepLine</text>
</g>
<!-- BacterialTyper__scripts__BUSCO_caller__BUSCO_check_dataset&#45;&gt;BacterialTyper__scripts__functions__print_sepLine -->
<g id="edge16" class="edge">
<title>BacterialTyper__scripts__BUSCO_caller__BUSCO_check_dataset&#45;&gt;BacterialTyper__scripts__functions__print_sepLine</title>
<path fill="none" stroke="#000000" d="M752.1296,-110.1613C752.1296,-110.1613 752.1296,-69.2938 752.1296,-69.2938"/>
<polygon fill="#000000" stroke="#000000" points="755.6297,-69.2937 752.1296,-59.2938 748.6297,-69.2938 755.6297,-69.2937"/>
</g>
<!-- BacterialTyper__scripts__functions__readList_fromFile -->
<g id="node19" class="node">
<title>BacterialTyper__scripts__functions__readList_fromFile</title>
<ellipse fill="#a365ff" fill-opacity="0.698039" stroke="#000000" cx="430" cy="-42" rx="75.2868" ry="18"/>
<text text-anchor="middle" x="430" y="-38.3" font-family="Times,serif" font-size="14.00" fill="#000000">readList_fromFile</text>
</g>
<!-- BacterialTyper__scripts__BUSCO_caller__BUSCO_check_dataset&#45;&gt;BacterialTyper__scripts__functions__readList_fromFile -->
<g id="edge15" class="edge">
<title>BacterialTyper__scripts__BUSCO_caller__BUSCO_check_dataset&#45;&gt;BacterialTyper__scripts__functions__readList_fromFile</title>
<path fill="none" stroke="#000000" d="M630.1762,-112.3829C630.1762,-97.5708 630.1762,-75 630.1762,-75 630.1762,-75 462.3495,-75 462.3495,-75 462.3495,-75 462.3495,-68.5 462.3495,-68.5"/>
<polygon fill="#000000" stroke="#000000" points="465.8496,-68.5 462.3495,-58.5 458.8496,-68.5 465.8496,-68.5"/>
</g>
<!-- BacterialTyper__scripts__functions__read_time_stamp -->
<g id="node20" class="node">
<title>BacterialTyper__scripts__functions__read_time_stamp</title>
<ellipse fill="#a365ff" fill-opacity="0.698039" stroke="#000000" cx="1105" cy="-42" rx="72.2875" ry="18"/>
<text text-anchor="middle" x="1105" y="-38.3" font-family="Times,serif" font-size="14.00" fill="#000000">read_time_stamp</text>
</g>
<!-- BacterialTyper__scripts__BUSCO_caller__BUSCO_check_dataset&#45;&gt;BacterialTyper__scripts__functions__read_time_stamp -->
<g id="edge14" class="edge">
<title>BacterialTyper__scripts__BUSCO_caller__BUSCO_check_dataset&#45;&gt;BacterialTyper__scripts__functions__read_time_stamp</title>
<path fill="none" stroke="#000000" d="M790.9253,-125C904.5937,-125 1080.9521,-125 1080.9521,-125 1080.9521,-125 1080.9521,-69.1977 1080.9521,-69.1977"/>
<polygon fill="#000000" stroke="#000000" points="1084.4522,-69.1976 1080.9521,-59.1977 1077.4522,-69.1977 1084.4522,-69.1976"/>
</g>
<!-- BacterialTyper__scripts__BUSCO_caller__BUSCO_download -->
<g id="node4" class="node">
<title>BacterialTyper__scripts__BUSCO_caller__BUSCO_download</title>
<ellipse fill="#65fff4" fill-opacity="0.698039" stroke="#000000" cx="697" cy="-197" rx="79.0865" ry="18"/>
<text text-anchor="middle" x="697" y="-193.3" font-family="Times,serif" font-size="14.00" fill="#000000">BUSCO_download</text>
</g>
<!-- BacterialTyper__scripts__BUSCO_caller__BUSCO_download&#45;&gt;BacterialTyper__scripts__BUSCO_caller__BUSCO_check_dataset -->
<g id="edge12" class="edge">
<title>BacterialTyper__scripts__BUSCO_caller__BUSCO_download&#45;&gt;BacterialTyper__scripts__BUSCO_caller__BUSCO_check_dataset</title>
<path fill="none" stroke="#000000" d="M670.569,-179.937C670.569,-179.937 670.569,-152.4407 670.569,-152.4407"/>
<polygon fill="#000000" stroke="#000000" points="674.0691,-152.4406 670.569,-142.4407 667.0691,-152.4407 674.0691,-152.4406"/>
</g>
<!-- BacterialTyper__scripts__BUSCO_caller__BUSCO_download&#45;&gt;BacterialTyper__scripts__BUSCO_caller__BUSCO_download -->
<g id="edge11" class="edge">
<title>BacterialTyper__scripts__BUSCO_caller__BUSCO_download&#45;&gt;BacterialTyper__scripts__BUSCO_caller__BUSCO_download</title>
<path fill="none" stroke="#000000" d="M769.2491,-204.6367C769.2491,-211.9887 769.2491,-222 769.2491,-222 769.2491,-222 783.4423,-222 783.4423,-222 783.4423,-222 783.4423,-161 783.4423,-161 783.4423,-161 723.431,-161 723.431,-161 723.431,-161 723.431,-169.8435 723.431,-169.8435"/>
<polygon fill="#000000" stroke="#000000" points="719.9311,-169.8434 723.431,-179.8435 726.9311,-169.8435 719.9311,-169.8434"/>
</g>
<!-- BacterialTyper__scripts__functions__create_folder -->
<g id="node13" class="node">
<title>BacterialTyper__scripts__functions__create_folder</title>
<ellipse fill="#a365ff" fill-opacity="0.698039" stroke="#000000" cx="870" cy="-42" rx="57.3905" ry="18"/>
<text text-anchor="middle" x="870" y="-38.3" font-family="Times,serif" font-size="14.00" fill="#000000">create_folder</text>
</g>
<!-- BacterialTyper__scripts__BUSCO_caller__BUSCO_download&#45;&gt;BacterialTyper__scripts__functions__create_folder -->
<g id="edge10" class="edge">
<title>BacterialTyper__scripts__BUSCO_caller__BUSCO_download&#45;&gt;BacterialTyper__scripts__functions__create_folder</title>
<path fill="none" stroke="#000000" d="M774.5818,-193C816.1063,-193 858.7982,-193 858.7982,-193 858.7982,-193 858.7982,-69.9146 858.7982,-69.9146"/>
<polygon fill="#000000" stroke="#000000" points="862.2983,-69.9146 858.7982,-59.9146 855.2983,-69.9147 862.2983,-69.9146"/>
</g>
<!-- BacterialTyper__scripts__functions__extract -->
<g id="node14" class="node">
<title>BacterialTyper__scripts__functions__extract</title>
<ellipse fill="#a365ff" fill-opacity="0.698039" stroke="#000000" cx="980" cy="-42" rx="34.394" ry="18"/>
<text text-anchor="middle" x="980" y="-38.3" font-family="Times,serif" font-size="14.00" fill="#000000">extract</text>
</g>
<!-- BacterialTyper__scripts__BUSCO_caller__BUSCO_download&#45;&gt;BacterialTyper__scripts__functions__extract -->
<g id="edge8" class="edge">
<title>BacterialTyper__scripts__BUSCO_caller__BUSCO_download&#45;&gt;BacterialTyper__scripts__functions__extract</title>
<path fill="none" stroke="#000000" d="M775.29,-200C854.0592,-200 963.9498,-200 963.9498,-200 963.9498,-200 963.9498,-68.0194 963.9498,-68.0194"/>
<polygon fill="#000000" stroke="#000000" points="967.4499,-68.0193 963.9498,-58.0194 960.4499,-68.0194 967.4499,-68.0193"/>
</g>
<!-- BacterialTyper__scripts__BUSCO_caller__BUSCO_download&#45;&gt;BacterialTyper__scripts__functions__print_sepLine -->
<g id="edge13" class="edge">
<title>BacterialTyper__scripts__BUSCO_caller__BUSCO_download&#45;&gt;BacterialTyper__scripts__functions__print_sepLine</title>
<path fill="none" stroke="#000000" d="M759.7744,-186C781.6338,-186 800.7982,-186 800.7982,-186 800.7982,-186 800.7982,-48 800.7982,-48 800.7982,-48 799.8833,-48 799.8833,-48"/>
<polygon fill="#000000" stroke="#000000" points="801.6492,-44.5001 791.6492,-48 801.6492,-51.5001 801.6492,-44.5001"/>
</g>
<!-- BacterialTyper__scripts__functions__print_time_stamp -->
<g id="node18" class="node">
<title>BacterialTyper__scripts__functions__print_time_stamp</title>
<ellipse fill="#a365ff" fill-opacity="0.698039" stroke="#000000" cx="1398" cy="-42" rx="73.387" ry="18"/>
<text text-anchor="middle" x="1398" y="-38.3" font-family="Times,serif" font-size="14.00" fill="#000000">print_time_stamp</text>
</g>
<!-- BacterialTyper__scripts__BUSCO_caller__BUSCO_download&#45;&gt;BacterialTyper__scripts__functions__print_time_stamp -->
<g id="edge9" class="edge">
<title>BacterialTyper__scripts__BUSCO_caller__BUSCO_download&#45;&gt;BacterialTyper__scripts__functions__print_time_stamp</title>
<path fill="none" stroke="#000000" d="M763.0992,-207C933.3289,-207 1373.5188,-207 1373.5188,-207 1373.5188,-207 1373.5188,-69.0364 1373.5188,-69.0364"/>
<polygon fill="#000000" stroke="#000000" points="1377.0189,-69.0364 1373.5188,-59.0364 1370.0189,-69.0365 1377.0189,-69.0364"/>
</g>
<!-- BacterialTyper__scripts__functions__wget_download -->
<g id="node22" class="node">
<title>BacterialTyper__scripts__functions__wget_download</title>
<ellipse fill="#a365ff" fill-opacity="0.698039" stroke="#000000" cx="590" cy="-42" rx="66.8882" ry="18"/>
<text text-anchor="middle" x="590" y="-38.3" font-family="Times,serif" font-size="14.00" fill="#000000">wget_download</text>
</g>
<!-- BacterialTyper__scripts__BUSCO_caller__BUSCO_download&#45;&gt;BacterialTyper__scripts__functions__wget_download -->
<g id="edge7" class="edge">
<title>BacterialTyper__scripts__BUSCO_caller__BUSCO_download&#45;&gt;BacterialTyper__scripts__functions__wget_download</title>
<path fill="none" stroke="#000000" d="M617.5652,-197C604.7305,-197 595.5527,-197 595.5527,-197 595.5527,-197 595.5527,-70.0838 595.5527,-70.0838"/>
<polygon fill="#000000" stroke="#000000" points="599.0528,-70.0838 595.5527,-60.0838 592.0528,-70.0839 599.0528,-70.0838"/>
</g>
<!-- BacterialTyper__scripts__BUSCO_caller__BUSCO_plot -->
<g id="node5" class="node">
<title>BacterialTyper__scripts__BUSCO_caller__BUSCO_plot</title>
<ellipse fill="#65fff4" fill-opacity="0.698039" stroke="#000000" cx="694" cy="-344" rx="57.6901" ry="18"/>
<text text-anchor="middle" x="694" y="-340.3" font-family="Times,serif" font-size="14.00" fill="#000000">BUSCO_plot</text>
</g>
<!-- BacterialTyper__scripts__BUSCO_caller__BUSCO_plot&#45;&gt;BacterialTyper__config__set_config__get_exe -->
<g id="edge25" class="edge">
<title>BacterialTyper__scripts__BUSCO_caller__BUSCO_plot&#45;&gt;BacterialTyper__config__set_config__get_exe</title>
<path fill="none" stroke="#000000" d="M749.2439,-338.6002C749.2439,-329.7185 749.2439,-313 749.2439,-313 749.2439,-313 931.2178,-313 931.2178,-313 931.2178,-313 931.2178,-296.1375 931.2178,-296.1375"/>
<polygon fill="#000000" stroke="#000000" points="934.7179,-296.1375 931.2178,-286.1375 927.7179,-296.1376 934.7179,-296.1375"/>
</g>
<!-- BacterialTyper__scripts__functions__system_call -->
<g id="node21" class="node">
<title>BacterialTyper__scripts__functions__system_call</title>
<ellipse fill="#a365ff" fill-opacity="0.698039" stroke="#000000" cx="1542" cy="-42" rx="52.7911" ry="18"/>
<text text-anchor="middle" x="1542" y="-38.3" font-family="Times,serif" font-size="14.00" fill="#000000">system_call</text>
</g>
<!-- BacterialTyper__scripts__BUSCO_caller__BUSCO_plot&#45;&gt;BacterialTyper__scripts__functions__system_call -->
<g id="edge26" class="edge">
<title>BacterialTyper__scripts__BUSCO_caller__BUSCO_plot&#45;&gt;BacterialTyper__scripts__functions__system_call</title>
<path fill="none" stroke="#000000" d="M746.643,-336.4086C746.643,-312.9199 746.643,-243 746.643,-243 746.643,-243 1524.4516,-243 1524.4516,-243 1524.4516,-243 1524.4516,-69.1371 1524.4516,-69.1371"/>
<polygon fill="#000000" stroke="#000000" points="1527.9517,-69.1371 1524.4516,-59.1371 1520.9517,-69.1372 1527.9517,-69.1371"/>
</g>
<!-- BacterialTyper__scripts__BUSCO_caller__BUSCO_retrieve_sets -->
<g id="node6" class="node">
<title>BacterialTyper__scripts__BUSCO_caller__BUSCO_retrieve_sets</title>
<ellipse fill="#65fff4" fill-opacity="0.698039" stroke="#000000" cx="655" cy="-269" rx="89.0842" ry="18"/>
<text text-anchor="middle" x="655" y="-265.3" font-family="Times,serif" font-size="14.00" fill="#000000">BUSCO_retrieve_sets</text>
</g>
<!-- BacterialTyper__scripts__BUSCO_caller__BUSCO_retrieve_sets&#45;&gt;BacterialTyper__scripts__BUSCO_caller__BUSCO_download -->
<g id="edge18" class="edge">
<title>BacterialTyper__scripts__BUSCO_caller__BUSCO_retrieve_sets&#45;&gt;BacterialTyper__scripts__BUSCO_caller__BUSCO_download</title>
<path fill="none" stroke="#000000" d="M680.8746,-251.5708C680.8746,-251.5708 680.8746,-224.7689 680.8746,-224.7689"/>
<polygon fill="#000000" stroke="#000000" points="684.3747,-224.7688 680.8746,-214.7689 677.3747,-224.7689 684.3747,-224.7688"/>
</g>
<!-- BacterialTyper__scripts__BUSCO_caller__busco_datasets -->
<g id="node9" class="node">
<title>BacterialTyper__scripts__BUSCO_caller__busco_datasets</title>
<ellipse fill="#65fff4" fill-opacity="0.698039" stroke="#000000" cx="483" cy="-125" rx="63.8893" ry="18"/>
<text text-anchor="middle" x="483" y="-121.3" font-family="Times,serif" font-size="14.00" fill="#000000">busco_datasets</text>
</g>
<!-- BacterialTyper__scripts__BUSCO_caller__BUSCO_retrieve_sets&#45;&gt;BacterialTyper__scripts__BUSCO_caller__busco_datasets -->
<g id="edge17" class="edge">
<title>BacterialTyper__scripts__BUSCO_caller__BUSCO_retrieve_sets&#45;&gt;BacterialTyper__scripts__BUSCO_caller__busco_datasets</title>
<path fill="none" stroke="#000000" d="M587.697,-256.7226C587.697,-221.8994 587.697,-125 587.697,-125 587.697,-125 556.9186,-125 556.9186,-125"/>
<polygon fill="#000000" stroke="#000000" points="556.9187,-121.5001 546.9186,-125 556.9186,-128.5001 556.9187,-121.5001"/>
</g>
<!-- BacterialTyper__scripts__BUSCO_caller__print_available_BUSCO -->
<g id="node11" class="node">
<title>BacterialTyper__scripts__BUSCO_caller__print_available_BUSCO</title>
<ellipse fill="#65fff4" fill-opacity="0.698039" stroke="#000000" cx="483" cy="-197" rx="96.6831" ry="18"/>
<text text-anchor="middle" x="483" y="-193.3" font-family="Times,serif" font-size="14.00" fill="#000000">print_available_BUSCO</text>
</g>
<!-- BacterialTyper__scripts__BUSCO_caller__BUSCO_retrieve_sets&#45;&gt;BacterialTyper__scripts__BUSCO_caller__print_available_BUSCO -->
<g id="edge19" class="edge">
<title>BacterialTyper__scripts__BUSCO_caller__BUSCO_retrieve_sets&#45;&gt;BacterialTyper__scripts__BUSCO_caller__print_available_BUSCO</title>
<path fill="none" stroke="#000000" d="M572.8997,-261.8331C572.8997,-261.8331 572.8997,-213.717 572.8997,-213.717"/>
<polygon fill="#000000" stroke="#000000" points="576.3998,-213.717 572.8997,-203.717 569.3998,-213.717 576.3998,-213.717"/>
</g>
<!-- BacterialTyper__scripts__BUSCO_caller__BUSCO_run -->
<g id="node7" class="node">
<title>BacterialTyper__scripts__BUSCO_caller__BUSCO_run</title>
<ellipse fill="#65fff4" fill-opacity="0.698039" stroke="#000000" cx="826" cy="-344" rx="55.7903" ry="18"/>
<text text-anchor="middle" x="826" y="-340.3" font-family="Times,serif" font-size="14.00" fill="#000000">BUSCO_run</text>
</g>
<!-- BacterialTyper__scripts__BUSCO_caller__BUSCO_run&#45;&gt;BacterialTyper__config__set_config__get_exe -->
<g id="edge23" class="edge">
<title>BacterialTyper__scripts__BUSCO_caller__BUSCO_run&#45;&gt;BacterialTyper__config__set_config__get_exe</title>
<path fill="none" stroke="#000000" d="M870.2769,-333C908.2178,-333 956.7822,-333 956.7822,-333 956.7822,-333 956.7822,-296.1508 956.7822,-296.1508"/>
<polygon fill="#000000" stroke="#000000" points="960.2823,-296.1508 956.7822,-286.1508 953.2823,-296.1509 960.2823,-296.1508"/>
</g>
<!-- BacterialTyper__scripts__BUSCO_caller__BUSCO_run&#45;&gt;BacterialTyper__scripts__functions__print_time_stamp -->
<g id="edge22" class="edge">
<title>BacterialTyper__scripts__BUSCO_caller__BUSCO_run&#45;&gt;BacterialTyper__scripts__functions__print_time_stamp</title>
<path fill="none" stroke="#000000" d="M881.3128,-347C1029.1835,-347 1422.4812,-347 1422.4812,-347 1422.4812,-347 1422.4812,-69.272 1422.4812,-69.272"/>
<polygon fill="#000000" stroke="#000000" points="1425.9813,-69.272 1422.4812,-59.272 1418.9813,-69.272 1425.9813,-69.272"/>
</g>
<!-- BacterialTyper__scripts__BUSCO_caller__BUSCO_run&#45;&gt;BacterialTyper__scripts__functions__read_time_stamp -->
<g id="edge20" class="edge">
<title>BacterialTyper__scripts__BUSCO_caller__BUSCO_run&#45;&gt;BacterialTyper__scripts__functions__read_time_stamp</title>
<path fill="none" stroke="#000000" d="M880.5289,-340C967.7783,-340 1129.0479,-340 1129.0479,-340 1129.0479,-340 1129.0479,-69.3098 1129.0479,-69.3098"/>
<polygon fill="#000000" stroke="#000000" points="1132.548,-69.3098 1129.0479,-59.3098 1125.548,-69.3098 1132.548,-69.3098"/>
</g>
<!-- BacterialTyper__scripts__BUSCO_caller__BUSCO_run&#45;&gt;BacterialTyper__scripts__functions__system_call -->
<g id="edge21" class="edge">
<title>BacterialTyper__scripts__BUSCO_caller__BUSCO_run&#45;&gt;BacterialTyper__scripts__functions__system_call</title>
<path fill="none" stroke="#000000" d="M872.7226,-354C1034.2985,-354 1559.5484,-354 1559.5484,-354 1559.5484,-354 1559.5484,-69.2189 1559.5484,-69.2189"/>
<polygon fill="#000000" stroke="#000000" points="1563.0485,-69.2189 1559.5484,-59.2189 1556.0485,-69.2189 1563.0485,-69.2189"/>
</g>
<!-- BacterialTyper__scripts__BUSCO_caller__BUSCO_stats -->
<g id="node8" class="node">
<title>BacterialTyper__scripts__BUSCO_caller__BUSCO_stats</title>
<ellipse fill="#65fff4" fill-opacity="0.698039" stroke="#000000" cx="822" cy="-269" rx="59.5901" ry="18"/>
<text text-anchor="middle" x="822" y="-265.3" font-family="Times,serif" font-size="14.00" fill="#000000">BUSCO_stats</text>
</g>
<!-- BacterialTyper__scripts__functions__get_info_file -->
<g id="node16" class="node">
<title>BacterialTyper__scripts__functions__get_info_file</title>
<ellipse fill="#a365ff" fill-opacity="0.698039" stroke="#000000" cx="1251" cy="-42" rx="55.7903" ry="18"/>
<text text-anchor="middle" x="1251" y="-38.3" font-family="Times,serif" font-size="14.00" fill="#000000">get_info_file</text>
</g>
<!-- BacterialTyper__scripts__BUSCO_caller__BUSCO_stats&#45;&gt;BacterialTyper__scripts__functions__get_info_file -->
<g id="edge24" class="edge">
<title>BacterialTyper__scripts__BUSCO_caller__BUSCO_stats&#45;&gt;BacterialTyper__scripts__functions__get_info_file</title>
<path fill="none" stroke="#000000" d="M835.8016,-251.3407C835.8016,-243.4947 835.8016,-236 835.8016,-236 835.8016,-236 1251,-236 1251,-236 1251,-236 1251,-70.251 1251,-70.251"/>
<polygon fill="#000000" stroke="#000000" points="1254.5001,-70.251 1251,-60.251 1247.5001,-70.2511 1254.5001,-70.251"/>
</g>
<!-- BacterialTyper__scripts__BUSCO_caller__busco_datasets&#45;&gt;BacterialTyper__data__data_files__data_list -->
<g id="edge2" class="edge">
<title>BacterialTyper__scripts__BUSCO_caller__busco_datasets&#45;&gt;BacterialTyper__data__data_files__data_list</title>
<path fill="none" stroke="#000000" d="M422.7218,-131C326.2732,-131 148,-131 148,-131 148,-131 148,-70.0105 148,-70.0105"/>
<polygon fill="#000000" stroke="#000000" points="151.5001,-70.0104 148,-60.0105 144.5001,-70.0105 151.5001,-70.0104"/>
</g>
<!-- BacterialTyper__scripts__functions__file2dataframe -->
<g id="node15" class="node">
<title>BacterialTyper__scripts__functions__file2dataframe</title>
<ellipse fill="#a365ff" fill-opacity="0.698039" stroke="#000000" cx="274" cy="-42" rx="62.2891" ry="18"/>
<text text-anchor="middle" x="274" y="-38.3" font-family="Times,serif" font-size="14.00" fill="#000000">file2dataframe</text>
</g>
<!-- BacterialTyper__scripts__BUSCO_caller__busco_datasets&#45;&gt;BacterialTyper__scripts__functions__file2dataframe -->
<g id="edge1" class="edge">
<title>BacterialTyper__scripts__BUSCO_caller__busco_datasets&#45;&gt;BacterialTyper__scripts__functions__file2dataframe</title>
<path fill="none" stroke="#000000" d="M422.8289,-119C361.0862,-119 274,-119 274,-119 274,-119 274,-70.2479 274,-70.2479"/>
<polygon fill="#000000" stroke="#000000" points="277.5001,-70.2479 274,-60.2479 270.5001,-70.248 277.5001,-70.2479"/>
</g>
<!-- BacterialTyper__scripts__BUSCO_caller__main -->
<g id="node10" class="node">
<title>BacterialTyper__scripts__BUSCO_caller__main</title>
<ellipse fill="#65fff4" fill-opacity="0.698039" stroke="#000000" cx="528" cy="-344" rx="28.6953" ry="18"/>
<text text-anchor="middle" x="528" y="-340.3" font-family="Times,serif" font-size="14.00" fill="#000000">main</text>
</g>
<!-- BacterialTyper__scripts__BUSCO_caller__main&#45;&gt;BacterialTyper__scripts__BUSCO_caller__BUSCO_stats -->
<g id="edge27" class="edge">
<title>BacterialTyper__scripts__BUSCO_caller__main&#45;&gt;BacterialTyper__scripts__BUSCO_caller__BUSCO_stats</title>
<path fill="none" stroke="#000000" d="M552.0952,-334.235C552.0952,-321.2722 552.0952,-300 552.0952,-300 552.0952,-300 766.1551,-300 766.1551,-300 766.1551,-300 766.1551,-285.5743 766.1551,-285.5743"/>
<polygon fill="#000000" stroke="#000000" points="769.6552,-285.5743 766.1551,-275.5743 762.6552,-285.5743 769.6552,-285.5743"/>
</g>
<!-- BacterialTyper__scripts__BUSCO_caller__print_help_BUSCO -->
<g id="node12" class="node">
<title>BacterialTyper__scripts__BUSCO_caller__print_help_BUSCO</title>
<ellipse fill="#65fff4" fill-opacity="0.698039" stroke="#000000" cx="467" cy="-269" rx="80.6858" ry="18"/>
<text text-anchor="middle" x="467" y="-265.3" font-family="Times,serif" font-size="14.00" fill="#000000">print_help_BUSCO</text>
</g>
<!-- BacterialTyper__scripts__BUSCO_caller__main&#45;&gt;BacterialTyper__scripts__BUSCO_caller__print_help_BUSCO -->
<g id="edge28" class="edge">
<title>BacterialTyper__scripts__BUSCO_caller__main&#45;&gt;BacterialTyper__scripts__BUSCO_caller__print_help_BUSCO</title>
<path fill="none" stroke="#000000" d="M523.4977,-325.8446C523.4977,-325.8446 523.4977,-292.0533 523.4977,-292.0533"/>
<polygon fill="#000000" stroke="#000000" points="526.9978,-292.0533 523.4977,-282.0533 519.9978,-292.0533 526.9978,-292.0533"/>
</g>
<!-- BacterialTyper__scripts__BUSCO_caller__print_available_BUSCO&#45;&gt;BacterialTyper__scripts__BUSCO_caller__busco_datasets -->
<g id="edge5" class="edge">
<title>BacterialTyper__scripts__BUSCO_caller__print_available_BUSCO&#45;&gt;BacterialTyper__scripts__BUSCO_caller__busco_datasets</title>
<path fill="none" stroke="#000000" d="M483,-178.8314C483,-178.8314 483,-153.4133 483,-153.4133"/>
<polygon fill="#000000" stroke="#000000" points="486.5001,-153.4132 483,-143.4133 479.5001,-153.4133 486.5001,-153.4132"/>
</g>
<!-- BacterialTyper__scripts__BUSCO_caller__print_available_BUSCO&#45;&gt;BacterialTyper__scripts__functions__print_sepLine -->
<g id="edge6" class="edge">
<title>BacterialTyper__scripts__BUSCO_caller__print_available_BUSCO&#45;&gt;BacterialTyper__scripts__functions__print_sepLine</title>
<path fill="none" stroke="#000000" d="M563.2679,-186.8363C563.2679,-160.3053 563.2679,-91 563.2679,-91 563.2679,-91 713.6674,-91 713.6674,-91 713.6674,-91 713.6674,-68.863 713.6674,-68.863"/>
<polygon fill="#000000" stroke="#000000" points="717.1675,-68.863 713.6674,-58.863 710.1675,-68.8631 717.1675,-68.863"/>
</g>
<!-- BacterialTyper__scripts__BUSCO_caller__print_help_BUSCO&#45;&gt;BacterialTyper__scripts__BUSCO_caller__print_available_BUSCO -->
<g id="edge4" class="edge">
<title>BacterialTyper__scripts__BUSCO_caller__print_help_BUSCO&#45;&gt;BacterialTyper__scripts__BUSCO_caller__print_available_BUSCO</title>
<path fill="none" stroke="#000000" d="M440.1357,-251.937C440.1357,-251.937 440.1357,-223.4449 440.1357,-223.4449"/>
<polygon fill="#000000" stroke="#000000" points="443.6358,-223.4449 440.1357,-213.4449 436.6358,-223.445 443.6358,-223.4449"/>
</g>
<!-- BacterialTyper__scripts__BUSCO_caller__print_help_BUSCO&#45;&gt;BacterialTyper__scripts__functions__print_sepLine -->
<g id="edge3" class="edge">
<title>BacterialTyper__scripts__BUSCO_caller__print_help_BUSCO&#45;&gt;BacterialTyper__scripts__functions__print_sepLine</title>
<path fill="none" stroke="#000000" d="M493.8643,-251.8043C493.8643,-240.9629 493.8643,-229 493.8643,-229 493.8643,-229 806.8016,-229 806.8016,-229 806.8016,-229 806.8016,-36 806.8016,-36 806.8016,-36 801.5743,-36 801.5743,-36"/>
<polygon fill="#000000" stroke="#000000" points="801.5744,-32.5001 791.5743,-36 801.5743,-39.5001 801.5744,-32.5001"/>
</g>
</g>
</svg>
