<?xml version="1.0" encoding="UTF-8" standalone="no"?>
<!DOCTYPE svg PUBLIC "-//W3C//DTD SVG 1.1//EN"
 "http://www.w3.org/Graphics/SVG/1.1/DTD/svg11.dtd">
<!-- Generated by graphviz version 2.40.1 (20161225.0304)
 -->
<!-- Title: G Pages: 1 -->
<svg width="943pt" height="151pt"
 viewBox="0.00 0.00 942.93 151.00" xmlns="http://www.w3.org/2000/svg" xmlns:xlink="http://www.w3.org/1999/xlink">
<g id="graph0" class="graph" transform="scale(1 1) rotate(0) translate(4 147)">
<title>G</title>
<polygon fill="#ffffff" stroke="transparent" points="-4,4 -4,-147 938.9314,-147 938.9314,4 -4,4"/>
<g id="clust1" class="cluster">
<title>cluster_G</title>
<path fill="#808080" fill-opacity="0.094118" stroke="#000000" d="M20,-8C20,-8 800,-8 800,-8 806,-8 812,-14 812,-20 812,-20 812,-87 812,-87 812,-93 806,-99 800,-99 800,-99 20,-99 20,-99 14,-99 8,-93 8,-87 8,-87 8,-20 8,-20 8,-14 14,-8 20,-8"/>
</g>
<g id="clust2" class="cluster">
<title>cluster_BacterialTyper__scripts__functions</title>
<path fill="#808080" fill-opacity="0.094118" stroke="#000000" d="M28,-16C28,-16 792,-16 792,-16 798,-16 804,-22 804,-28 804,-28 804,-79 804,-79 804,-85 798,-91 792,-91 792,-91 28,-91 28,-91 22,-91 16,-85 16,-79 16,-79 16,-28 16,-28 16,-22 22,-16 28,-16"/>
<text text-anchor="middle" x="410" y="-75.8" font-family="Times,serif" font-size="14.00" fill="#000000">BacterialTyper.scripts.functions</text>
</g>
<!-- BacterialTyper__scripts__functions__create_subfolder -->
<g id="node1" class="node">
<title>BacterialTyper__scripts__functions__create_subfolder</title>
<ellipse fill="#a365ff" fill-opacity="0.698039" stroke="#000000" cx="558" cy="-42" rx="69.5877" ry="18"/>
<text text-anchor="middle" x="558" y="-38.3" font-family="Times,serif" font-size="14.00" fill="#000000">create_subfolder</text>
</g>
<!-- BacterialTyper__scripts__functions__get_diff_time -->
<g id="node2" class="node">
<title>BacterialTyper__scripts__functions__get_diff_time</title>
<ellipse fill="#a365ff" fill-opacity="0.698039" stroke="#000000" cx="411" cy="-42" rx="59.2899" ry="18"/>
<text text-anchor="middle" x="411" y="-38.3" font-family="Times,serif" font-size="14.00" fill="#000000">get_diff_time</text>
</g>
<!-- BacterialTyper__scripts__functions__print_time_stamp -->
<g id="node3" class="node">
<title>BacterialTyper__scripts__functions__print_time_stamp</title>
<ellipse fill="#a365ff" fill-opacity="0.698039" stroke="#000000" cx="260" cy="-42" rx="73.387" ry="18"/>
<text text-anchor="middle" x="260" y="-38.3" font-family="Times,serif" font-size="14.00" fill="#000000">print_time_stamp</text>
</g>
<!-- BacterialTyper__scripts__functions__readList_fromFile -->
<g id="node4" class="node">
<title>BacterialTyper__scripts__functions__readList_fromFile</title>
<ellipse fill="#a365ff" fill-opacity="0.698039" stroke="#000000" cx="721" cy="-42" rx="75.2868" ry="18"/>
<text text-anchor="middle" x="721" y="-38.3" font-family="Times,serif" font-size="14.00" fill="#000000">readList_fromFile</text>
</g>
<!-- BacterialTyper__scripts__functions__read_time_stamp -->
<g id="node5" class="node">
<title>BacterialTyper__scripts__functions__read_time_stamp</title>
<ellipse fill="#a365ff" fill-opacity="0.698039" stroke="#000000" cx="96" cy="-42" rx="72.2875" ry="18"/>
<text text-anchor="middle" x="96" y="-38.3" font-family="Times,serif" font-size="14.00" fill="#000000">read_time_stamp</text>
</g>
<!-- BacterialTyper__scripts__card_trick_caller__prepare_card_data -->
<g id="node6" class="node">
<title>BacterialTyper__scripts__card_trick_caller__prepare_card_data</title>
<ellipse fill="none" stroke="#000000" cx="260" cy="-125" rx="237.4581" ry="18"/>
<text text-anchor="middle" x="260" y="-121.3" font-family="Times,serif" font-size="14.00" fill="#000000">BacterialTyper__scripts__card_trick_caller__prepare_card_data</text>
</g>
<!-- BacterialTyper__scripts__card_trick_caller__prepare_card_data&#45;&gt;BacterialTyper__scripts__functions__create_subfolder -->
<g id="edge2" class="edge">
<title>BacterialTyper__scripts__card_trick_caller__prepare_card_data&#45;&gt;BacterialTyper__scripts__functions__create_subfolder</title>
<path fill="none" stroke="#000000" d="M418.2396,-111.5857C444.0087,-108.1035 466.3801,-103.918 479,-99 498.2325,-91.5051 517.0826,-78.2012 531.5437,-66.3306"/>
<polygon fill="#000000" stroke="#000000" points="534.1603,-68.7006 539.5206,-59.5618 529.6312,-63.3631 534.1603,-68.7006"/>
</g>
<!-- BacterialTyper__scripts__card_trick_caller__prepare_card_data&#45;&gt;BacterialTyper__scripts__functions__get_diff_time -->
<g id="edge1" class="edge">
<title>BacterialTyper__scripts__card_trick_caller__prepare_card_data&#45;&gt;BacterialTyper__scripts__functions__get_diff_time</title>
<path fill="none" stroke="#000000" d="M323.693,-107.5069C330.0199,-104.974 336.2293,-102.1432 342,-99 358.0064,-90.2817 373.8316,-77.5851 386.2808,-66.3867"/>
<polygon fill="#000000" stroke="#000000" points="388.9771,-68.6603 393.9422,-59.3009 384.2242,-63.5213 388.9771,-68.6603"/>
</g>
<!-- BacterialTyper__scripts__card_trick_caller__prepare_card_data&#45;&gt;BacterialTyper__scripts__functions__print_time_stamp -->
<g id="edge4" class="edge">
<title>BacterialTyper__scripts__card_trick_caller__prepare_card_data&#45;&gt;BacterialTyper__scripts__functions__print_time_stamp</title>
<path fill="none" stroke="#000000" d="M260,-106.9902C260,-96.2963 260,-82.4994 260,-70.3706"/>
<polygon fill="#000000" stroke="#000000" points="263.5001,-70.2612 260,-60.2612 256.5001,-70.2613 263.5001,-70.2612"/>
</g>
<!-- BacterialTyper__scripts__card_trick_caller__prepare_card_data&#45;&gt;BacterialTyper__scripts__functions__read_time_stamp -->
<g id="edge3" class="edge">
<title>BacterialTyper__scripts__card_trick_caller__prepare_card_data&#45;&gt;BacterialTyper__scripts__functions__read_time_stamp</title>
<path fill="none" stroke="#000000" d="M197.8705,-107.5037C191.0477,-104.9362 184.2982,-102.0988 178,-99 159.5338,-89.9142 140.5624,-76.9992 125.5245,-65.7594"/>
<polygon fill="#000000" stroke="#000000" points="127.2319,-62.6597 117.1585,-59.3768 122.986,-68.2251 127.2319,-62.6597"/>
</g>
<!-- BacterialTyper__scripts__card_trick_caller__dead_code -->
<g id="node7" class="node">
<title>BacterialTyper__scripts__card_trick_caller__dead_code</title>
<ellipse fill="none" stroke="#000000" cx="725" cy="-125" rx="209.8628" ry="18"/>
<text text-anchor="middle" x="725" y="-121.3" font-family="Times,serif" font-size="14.00" fill="#000000">BacterialTyper__scripts__card_trick_caller__dead_code</text>
</g>
<!-- BacterialTyper__scripts__card_trick_caller__dead_code&#45;&gt;BacterialTyper__scripts__functions__readList_fromFile -->
<g id="edge5" class="edge">
<title>BacterialTyper__scripts__card_trick_caller__dead_code&#45;&gt;BacterialTyper__scripts__functions__readList_fromFile</title>
<path fill="none" stroke="#000000" d="M724.1321,-106.9902C723.6167,-96.2963 722.9518,-82.4994 722.3673,-70.3706"/>
<polygon fill="#000000" stroke="#000000" points="725.8575,-70.0811 721.8801,-60.2612 718.8656,-70.4182 725.8575,-70.0811"/>
</g>
</g>
</svg>
