<?xml version="1.0" encoding="UTF-8" standalone="no"?>
<!DOCTYPE svg PUBLIC "-//W3C//DTD SVG 1.1//EN"
 "http://www.w3.org/Graphics/SVG/1.1/DTD/svg11.dtd">
<!-- Generated by graphviz version 2.40.1 (20161225.0304)
 -->
<!-- Title: G Pages: 1 -->
<svg width="943pt" height="151pt"
 viewBox="0.00 0.00 942.93 151.00" xmlns="http://www.w3.org/2000/svg" xmlns:xlink="http://www.w3.org/1999/xlink">
<g id="graph0" class="graph" transform="scale(1 1) rotate(0) translate(4 147)">
<title>G</title>
<polygon fill="#ffffff" stroke="transparent" points="-4,4 -4,-147 938.9314,-147 938.9314,4 -4,4"/>
<g id="clust1" class="cluster">
<title>cluster_G</title>
<path fill="#808080" fill-opacity="0.094118" stroke="#000000" d="M20,-8C20,-8 800,-8 800,-8 806,-8 812,-14 812,-20 812,-20 812,-87 812,-87 812,-93 806,-99 800,-99 800,-99 20,-99 20,-99 14,-99 8,-93 8,-87 8,-87 8,-20 8,-20 8,-14 14,-8 20,-8"/>
</g>
<g id="clust2" class="cluster">
<title>cluster_BacterialTyper__scripts__functions</title>
<path fill="#808080" fill-opacity="0.094118" stroke="#000000" d="M28,-16C28,-16 792,-16 792,-16 798,-16 804,-22 804,-28 804,-28 804,-79 804,-79 804,-85 798,-91 792,-91 792,-91 28,-91 28,-91 22,-91 16,-85 16,-79 16,-79 16,-28 16,-28 16,-22 22,-16 28,-16"/>
<text text-anchor="middle" x="410" y="-75.8" font-family="Times,serif" font-size="14.00" fill="#000000">BacterialTyper.scripts.functions</text>
</g>
<!-- BacterialTyper__scripts__functions__create_subfolder -->
<g id="node1" class="node">
<title>BacterialTyper__scripts__functions__create_subfolder</title>
<ellipse fill="#a365ff" fill-opacity="0.698039" stroke="#000000" cx="558" cy="-42" rx="69.5877" ry="18"/>
<text text-anchor="middle" x="558" y="-38.3" font-family="Times,serif" font-size="14.00" fill="#000000">create_subfolder</text>
</g>
<!-- BacterialTyper__scripts__functions__get_diff_time -->
<g id="node2" class="node">
<title>BacterialTyper__scripts__functions__get_diff_time</title>
<ellipse fill="#a365ff" fill-opacity="0.698039" stroke="#000000" cx="411" cy="-42" rx="59.2899" ry="18"/>
<text text-anchor="middle" x="411" y="-38.3" font-family="Times,serif" font-size="14.00" fill="#000000">get_diff_time</text>
</g>
<!-- BacterialTyper__scripts__functions__print_time_stamp -->
<g id="node3" class="node">
<title>BacterialTyper__scripts__functions__print_time_stamp</title>
<ellipse fill="#a365ff" fill-opacity="0.698039" stroke="#000000" cx="260" cy="-42" rx="73.387" ry="18"/>
<text text-anchor="middle" x="260" y="-38.3" font-family="Times,serif" font-size="14.00" fill="#000000">print_time_stamp</text>
</g>
<!-- BacterialTyper__scripts__functions__readList_fromFile -->
<g id="node4" class="node">
<title>BacterialTyper__scripts__functions__readList_fromFile</title>
<ellipse fill="#a365ff" fill-opacity="0.698039" stroke="#000000" cx="721" cy="-42" rx="75.2868" ry="18"/>
<text text-anchor="middle" x="721" y="-38.3" font-family="Times,serif" font-size="14.00" fill="#000000">readList_fromFile</text>
</g>
<!-- BacterialTyper__scripts__functions__read_time_stamp -->
<g id="node5" class="node">
<title>BacterialTyper__scripts__functions__read_time_stamp</title>
<ellipse fill="#a365ff" fill-opacity="0.698039" stroke="#000000" cx="96" cy="-42" rx="72.2875" ry="18"/>
<text text-anchor="middle" x="96" y="-38.3" font-family="Times,serif" font-size="14.00" fill="#000000">read_time_stamp</text>
</g>
<!-- BacterialTyper__scripts__card_trick_caller__prepare_card_data -->
<g id="node6" class="node">
<title>BacterialTyper__scripts__card_trick_caller__prepare_card_data</title>
<ellipse fill="none" stroke="#000000" cx="260" cy="-125" rx="237.4581" ry="18"/>
<text text-anchor="middle" x="260" y="-121.3" font-family="Times,serif" font-size="14.00" fill="#000000">BacterialTyper__scripts__card_trick_caller__prepare_card_data</text>
</g>
<!-- BacterialTyper__scripts__card_trick_caller__prepare_card_data&#45;&gt;BacterialTyper__scripts__functions__create_subfolder -->
<g id="edge2" class="edge">
<title>BacterialTyper__scripts__card_trick_caller__prepare_card_data&#45;&gt;BacterialTyper__scripts__functions__create_subfolder</title>
<path fill="none" stroke="#000000" d="M492.8426,-121.4336C492.8426,-121.4336 492.8426,-58.4438 492.8426,-58.4438"/>
<polygon fill="#000000" stroke="#000000" points="496.3427,-58.4438 492.8426,-48.4438 489.3427,-58.4438 496.3427,-58.4438"/>
</g>
<!-- BacterialTyper__scripts__card_trick_caller__prepare_card_data&#45;&gt;BacterialTyper__scripts__functions__get_diff_time -->
<g id="edge1" class="edge">
<title>BacterialTyper__scripts__card_trick_caller__prepare_card_data&#45;&gt;BacterialTyper__scripts__functions__get_diff_time</title>
<path fill="none" stroke="#000000" d="M411,-110.9202C411,-110.9202 411,-70.2227 411,-70.2227"/>
<polygon fill="#000000" stroke="#000000" points="414.5001,-70.2227 411,-60.2227 407.5001,-70.2228 414.5001,-70.2227"/>
</g>
<!-- BacterialTyper__scripts__card_trick_caller__prepare_card_data&#45;&gt;BacterialTyper__scripts__functions__print_time_stamp -->
<g id="edge4" class="edge">
<title>BacterialTyper__scripts__card_trick_caller__prepare_card_data&#45;&gt;BacterialTyper__scripts__functions__print_time_stamp</title>
<path fill="none" stroke="#000000" d="M260,-106.9902C260,-106.9902 260,-70.2612 260,-70.2612"/>
<polygon fill="#000000" stroke="#000000" points="263.5001,-70.2612 260,-60.2612 256.5001,-70.2613 263.5001,-70.2612"/>
</g>
<!-- BacterialTyper__scripts__card_trick_caller__prepare_card_data&#45;&gt;BacterialTyper__scripts__functions__read_time_stamp -->
<g id="edge3" class="edge">
<title>BacterialTyper__scripts__card_trick_caller__prepare_card_data&#45;&gt;BacterialTyper__scripts__functions__read_time_stamp</title>
<path fill="none" stroke="#000000" d="M96,-111.6646C96,-111.6646 96,-70.2532 96,-70.2532"/>
<polygon fill="#000000" stroke="#000000" points="99.5001,-70.2532 96,-60.2532 92.5001,-70.2532 99.5001,-70.2532"/>
</g>
<!-- BacterialTyper__scripts__card_trick_caller__dead_code -->
<g id="node7" class="node">
<title>BacterialTyper__scripts__card_trick_caller__dead_code</title>
<ellipse fill="none" stroke="#000000" cx="725" cy="-125" rx="209.8628" ry="18"/>
<text text-anchor="middle" x="725" y="-121.3" font-family="Times,serif" font-size="14.00" fill="#000000">BacterialTyper__scripts__card_trick_caller__dead_code</text>
</g>
<!-- BacterialTyper__scripts__card_trick_caller__dead_code&#45;&gt;BacterialTyper__scripts__functions__readList_fromFile -->
<g id="edge5" class="edge">
<title>BacterialTyper__scripts__card_trick_caller__dead_code&#45;&gt;BacterialTyper__scripts__functions__readList_fromFile</title>
<path fill="none" stroke="#000000" d="M721,-106.9902C721,-106.9902 721,-70.2612 721,-70.2612"/>
<polygon fill="#000000" stroke="#000000" points="724.5001,-70.2612 721,-60.2612 717.5001,-70.2613 724.5001,-70.2612"/>
</g>
</g>
</svg>
