<?xml version="1.0" encoding="UTF-8" standalone="no"?>
<!DOCTYPE svg PUBLIC "-//W3C//DTD SVG 1.1//EN"
 "http://www.w3.org/Graphics/SVG/1.1/DTD/svg11.dtd">
<!-- Generated by graphviz version 2.40.1 (20161225.0304)
 -->
<!-- Title: G Pages: 1 -->
<svg width="1935pt" height="345pt"
 viewBox="0.00 0.00 1935.00 345.00" xmlns="http://www.w3.org/2000/svg" xmlns:xlink="http://www.w3.org/1999/xlink">
<g id="graph0" class="graph" transform="scale(1 1) rotate(0) translate(4 341)">
<title>G</title>
<polygon fill="#ffffff" stroke="transparent" points="-4,4 -4,-341 1931,-341 1931,4 -4,4"/>
<g id="clust1" class="cluster">
<title>cluster_G</title>
<path fill="#808080" fill-opacity="0.094118" stroke="#000000" d="M20,-8C20,-8 1907,-8 1907,-8 1913,-8 1919,-14 1919,-20 1919,-20 1919,-317 1919,-317 1919,-323 1913,-329 1907,-329 1907,-329 20,-329 20,-329 14,-329 8,-323 8,-317 8,-317 8,-20 8,-20 8,-14 14,-8 20,-8"/>
</g>
<g id="clust2" class="cluster">
<title>cluster_BacterialTyper__config__set_config</title>
<path fill="#808080" fill-opacity="0.094118" stroke="#000000" d="M583,-99C583,-99 755,-99 755,-99 761,-99 767,-105 767,-111 767,-111 767,-162 767,-162 767,-168 761,-174 755,-174 755,-174 583,-174 583,-174 577,-174 571,-168 571,-162 571,-162 571,-111 571,-111 571,-105 577,-99 583,-99"/>
<text text-anchor="middle" x="669" y="-158.8" font-family="Times,serif" font-size="14.00" fill="#000000">BacterialTyper.config.set_config</text>
</g>
<g id="clust3" class="cluster">
<title>cluster_BacterialTyper__scripts__ariba_caller</title>
<path fill="#808080" fill-opacity="0.094118" stroke="#000000" d="M787,-99C787,-99 1214,-99 1214,-99 1220,-99 1226,-105 1226,-111 1226,-111 1226,-162 1226,-162 1226,-168 1220,-174 1214,-174 1214,-174 787,-174 787,-174 781,-174 775,-168 775,-162 775,-162 775,-111 775,-111 775,-105 781,-99 787,-99"/>
<text text-anchor="middle" x="1000.5" y="-158.8" font-family="Times,serif" font-size="14.00" fill="#000000">BacterialTyper.scripts.ariba_caller</text>
</g>
<g id="clust4" class="cluster">
<title>cluster_BacterialTyper__scripts__database_generator</title>
<path fill="#808080" fill-opacity="0.094118" stroke="#000000" d="M28,-99C28,-99 551,-99 551,-99 557,-99 563,-105 563,-111 563,-111 563,-309 563,-309 563,-315 557,-321 551,-321 551,-321 28,-321 28,-321 22,-321 16,-315 16,-309 16,-309 16,-111 16,-111 16,-105 22,-99 28,-99"/>
<text text-anchor="middle" x="289.5" y="-305.8" font-family="Times,serif" font-size="14.00" fill="#000000">BacterialTyper.scripts.database_generator</text>
</g>
<g id="clust5" class="cluster">
<title>cluster_BacterialTyper__scripts__functions</title>
<path fill="#808080" fill-opacity="0.094118" stroke="#000000" d="M610,-16C610,-16 1899,-16 1899,-16 1905,-16 1911,-22 1911,-28 1911,-28 1911,-79 1911,-79 1911,-85 1905,-91 1899,-91 1899,-91 610,-91 610,-91 604,-91 598,-85 598,-79 598,-79 598,-28 598,-28 598,-22 604,-16 610,-16"/>
<text text-anchor="middle" x="1254.5" y="-75.8" font-family="Times,serif" font-size="14.00" fill="#000000">BacterialTyper.scripts.functions</text>
</g>
<g id="clust6" class="cluster">
<title>cluster_BacterialTyper__scripts__min_hash_caller</title>
<path fill="#808080" fill-opacity="0.094118" stroke="#000000" d="M1318,-99C1318,-99 1524,-99 1524,-99 1530,-99 1536,-105 1536,-111 1536,-111 1536,-162 1536,-162 1536,-168 1530,-174 1524,-174 1524,-174 1318,-174 1318,-174 1312,-174 1306,-168 1306,-162 1306,-162 1306,-111 1306,-111 1306,-105 1312,-99 1318,-99"/>
<text text-anchor="middle" x="1421" y="-158.8" font-family="Times,serif" font-size="14.00" fill="#000000">BacterialTyper.scripts.min_hash_caller</text>
</g>
<g id="clust7" class="cluster">
<title>cluster_BacterialTyper__scripts__species_identification_KMA</title>
<path fill="#808080" fill-opacity="0.094118" stroke="#000000" d="M1556,-99C1556,-99 1829,-99 1829,-99 1835,-99 1841,-105 1841,-111 1841,-111 1841,-162 1841,-162 1841,-168 1835,-174 1829,-174 1829,-174 1556,-174 1556,-174 1550,-174 1544,-168 1544,-162 1544,-162 1544,-111 1544,-111 1544,-105 1550,-99 1556,-99"/>
<text text-anchor="middle" x="1692.5" y="-158.8" font-family="Times,serif" font-size="14.00" fill="#000000">BacterialTyper.scripts.species_identification_KMA</text>
</g>
<!-- BacterialTyper__config__set_config__get_exe -->
<g id="node1" class="node">
<title>BacterialTyper__config__set_config__get_exe</title>
<ellipse fill="#ff8e65" fill-opacity="0.698039" stroke="#000000" cx="617" cy="-125" rx="38.1938" ry="18"/>
<text text-anchor="middle" x="617" y="-121.3" font-family="Times,serif" font-size="14.00" fill="#000000">get_exe</text>
</g>
<!-- BacterialTyper__scripts__ariba_caller__ariba_getref -->
<g id="node2" class="node">
<title>BacterialTyper__scripts__ariba_caller__ariba_getref</title>
<ellipse fill="#65cbff" fill-opacity="0.698039" stroke="#000000" cx="1165" cy="-125" rx="53.0913" ry="18"/>
<text text-anchor="middle" x="1165" y="-121.3" font-family="Times,serif" font-size="14.00" fill="#000000">ariba_getref</text>
</g>
<!-- BacterialTyper__scripts__functions__print_time_stamp -->
<g id="node16" class="node">
<title>BacterialTyper__scripts__functions__print_time_stamp</title>
<ellipse fill="#a365ff" fill-opacity="0.698039" stroke="#000000" cx="929" cy="-42" rx="73.387" ry="18"/>
<text text-anchor="middle" x="929" y="-38.3" font-family="Times,serif" font-size="14.00" fill="#000000">print_time_stamp</text>
</g>
<!-- BacterialTyper__scripts__ariba_caller__ariba_getref&#45;&gt;BacterialTyper__scripts__functions__print_time_stamp -->
<g id="edge3" class="edge">
<title>BacterialTyper__scripts__ariba_caller__ariba_getref&#45;&gt;BacterialTyper__scripts__functions__print_time_stamp</title>
<path fill="none" stroke="#000000" d="M1134.7361,-110.0997C1124.841,-105.832 1113.6522,-101.6283 1103,-99 1063.1519,-89.1678 1050.0531,-103.6253 1011,-91 993.097,-85.2122 974.9572,-74.9306 960.3066,-65.275"/>
<polygon fill="#000000" stroke="#000000" points="961.9037,-62.128 951.6688,-59.3897 957.9622,-67.9129 961.9037,-62.128"/>
</g>
<!-- BacterialTyper__scripts__functions__read_time_stamp -->
<g id="node18" class="node">
<title>BacterialTyper__scripts__functions__read_time_stamp</title>
<ellipse fill="#a365ff" fill-opacity="0.698039" stroke="#000000" cx="678" cy="-42" rx="72.2875" ry="18"/>
<text text-anchor="middle" x="678" y="-38.3" font-family="Times,serif" font-size="14.00" fill="#000000">read_time_stamp</text>
</g>
<!-- BacterialTyper__scripts__ariba_caller__ariba_getref&#45;&gt;BacterialTyper__scripts__functions__read_time_stamp -->
<g id="edge2" class="edge">
<title>BacterialTyper__scripts__ariba_caller__ariba_getref&#45;&gt;BacterialTyper__scripts__functions__read_time_stamp</title>
<path fill="none" stroke="#000000" d="M1135.4592,-109.9664C1125.4169,-105.5788 1113.9585,-101.338 1103,-99 1065.7176,-91.0458 796.6266,-101.5707 760,-91 741.4856,-85.6566 722.885,-75.0691 708.0906,-65.0988"/>
<polygon fill="#000000" stroke="#000000" points="710.052,-62.1996 699.8492,-59.3441 706.0444,-67.9389 710.052,-62.1996"/>
</g>
<!-- BacterialTyper__scripts__ariba_caller__check_db_indexed -->
<g id="node3" class="node">
<title>BacterialTyper__scripts__ariba_caller__check_db_indexed</title>
<ellipse fill="#65cbff" fill-opacity="0.698039" stroke="#000000" cx="1017" cy="-125" rx="76.8869" ry="18"/>
<text text-anchor="middle" x="1017" y="-121.3" font-family="Times,serif" font-size="14.00" fill="#000000">check_db_indexed</text>
</g>
<!-- BacterialTyper__scripts__ariba_caller__check_db_indexed&#45;&gt;BacterialTyper__scripts__functions__read_time_stamp -->
<g id="edge1" class="edge">
<title>BacterialTyper__scripts__ariba_caller__check_db_indexed&#45;&gt;BacterialTyper__scripts__functions__read_time_stamp</title>
<path fill="none" stroke="#000000" d="M974.7012,-109.7825C961.225,-105.5532 946.1407,-101.4515 932,-99 894.2988,-92.4638 796.6378,-102.035 760,-91 741.5487,-85.4426 722.9539,-74.8354 708.1471,-64.9073"/>
<polygon fill="#000000" stroke="#000000" points="710.1079,-62.0079 699.8965,-59.1837 706.1179,-67.7595 710.1079,-62.0079"/>
</g>
<!-- BacterialTyper__scripts__ariba_caller__get_ARIBA_dbs -->
<g id="node4" class="node">
<title>BacterialTyper__scripts__ariba_caller__get_ARIBA_dbs</title>
<ellipse fill="#65cbff" fill-opacity="0.698039" stroke="#000000" cx="853" cy="-125" rx="69.5877" ry="18"/>
<text text-anchor="middle" x="853" y="-121.3" font-family="Times,serif" font-size="14.00" fill="#000000">get_ARIBA_dbs</text>
</g>
<!-- BacterialTyper__scripts__database_generator__NCBI_DB -->
<g id="node5" class="node">
<title>BacterialTyper__scripts__database_generator__NCBI_DB</title>
<ellipse fill="#657aff" fill-opacity="0.698039" stroke="#000000" cx="338" cy="-272" rx="48.1917" ry="18"/>
<text text-anchor="middle" x="338" y="-268.3" font-family="Times,serif" font-size="14.00" fill="#000000">NCBI_DB</text>
</g>
<!-- BacterialTyper__scripts__database_generator__NCBIdownload -->
<g id="node6" class="node">
<title>BacterialTyper__scripts__database_generator__NCBIdownload</title>
<ellipse fill="#657aff" fill-opacity="0.698039" stroke="#000000" cx="90" cy="-200" rx="66.0889" ry="18"/>
<text text-anchor="middle" x="90" y="-196.3" font-family="Times,serif" font-size="14.00" fill="#000000">NCBIdownload</text>
</g>
<!-- BacterialTyper__scripts__database_generator__NCBI_DB&#45;&gt;BacterialTyper__scripts__database_generator__NCBIdownload -->
<g id="edge7" class="edge">
<title>BacterialTyper__scripts__database_generator__NCBI_DB&#45;&gt;BacterialTyper__scripts__database_generator__NCBIdownload</title>
<path fill="none" stroke="#000000" d="M299.7935,-260.9078C258.4409,-248.9022 192.1198,-229.6477 145.1266,-216.0045"/>
<polygon fill="#000000" stroke="#000000" points="145.9874,-212.61 135.4081,-213.183 144.0357,-219.3324 145.9874,-212.61"/>
</g>
<!-- BacterialTyper__scripts__database_generator__get_database -->
<g id="node7" class="node">
<title>BacterialTyper__scripts__database_generator__get_database</title>
<ellipse fill="#657aff" fill-opacity="0.698039" stroke="#000000" cx="230" cy="-200" rx="55.7903" ry="18"/>
<text text-anchor="middle" x="230" y="-196.3" font-family="Times,serif" font-size="14.00" fill="#000000">get_database</text>
</g>
<!-- BacterialTyper__scripts__database_generator__NCBI_DB&#45;&gt;BacterialTyper__scripts__database_generator__get_database -->
<g id="edge4" class="edge">
<title>BacterialTyper__scripts__database_generator__NCBI_DB&#45;&gt;BacterialTyper__scripts__database_generator__get_database</title>
<path fill="none" stroke="#000000" d="M314.2989,-256.1993C299.1764,-246.1176 279.3665,-232.911 262.7504,-221.8336"/>
<polygon fill="#000000" stroke="#000000" points="264.6561,-218.8976 254.3941,-216.2627 260.7731,-224.722 264.6561,-218.8976"/>
</g>
<!-- BacterialTyper__scripts__database_generator__getdbs -->
<g id="node9" class="node">
<title>BacterialTyper__scripts__database_generator__getdbs</title>
<ellipse fill="#657aff" fill-opacity="0.698039" stroke="#000000" cx="338" cy="-200" rx="33.5952" ry="18"/>
<text text-anchor="middle" x="338" y="-196.3" font-family="Times,serif" font-size="14.00" fill="#000000">getdbs</text>
</g>
<!-- BacterialTyper__scripts__database_generator__NCBI_DB&#45;&gt;BacterialTyper__scripts__database_generator__getdbs -->
<g id="edge10" class="edge">
<title>BacterialTyper__scripts__database_generator__NCBI_DB&#45;&gt;BacterialTyper__scripts__database_generator__getdbs</title>
<path fill="none" stroke="#000000" d="M338,-253.8314C338,-246.131 338,-236.9743 338,-228.4166"/>
<polygon fill="#000000" stroke="#000000" points="341.5001,-228.4132 338,-218.4133 334.5001,-228.4133 341.5001,-228.4132"/>
</g>
<!-- BacterialTyper__scripts__database_generator__update_db_data_file -->
<g id="node10" class="node">
<title>BacterialTyper__scripts__database_generator__update_db_data_file</title>
<ellipse fill="#657aff" fill-opacity="0.698039" stroke="#000000" cx="472" cy="-200" rx="82.5854" ry="18"/>
<text text-anchor="middle" x="472" y="-196.3" font-family="Times,serif" font-size="14.00" fill="#000000">update_db_data_file</text>
</g>
<!-- BacterialTyper__scripts__database_generator__NCBI_DB&#45;&gt;BacterialTyper__scripts__database_generator__update_db_data_file -->
<g id="edge5" class="edge">
<title>BacterialTyper__scripts__database_generator__NCBI_DB&#45;&gt;BacterialTyper__scripts__database_generator__update_db_data_file</title>
<path fill="none" stroke="#000000" d="M365.7649,-257.0816C384.8147,-246.8459 410.3982,-233.0995 431.6856,-221.6615"/>
<polygon fill="#000000" stroke="#000000" points="433.3619,-224.7341 440.5142,-216.9178 430.0486,-218.5678 433.3619,-224.7341"/>
</g>
<!-- BacterialTyper__scripts__functions__create_folder -->
<g id="node11" class="node">
<title>BacterialTyper__scripts__functions__create_folder</title>
<ellipse fill="#a365ff" fill-opacity="0.698039" stroke="#000000" cx="1846" cy="-42" rx="57.3905" ry="18"/>
<text text-anchor="middle" x="1846" y="-38.3" font-family="Times,serif" font-size="14.00" fill="#000000">create_folder</text>
</g>
<!-- BacterialTyper__scripts__database_generator__NCBI_DB&#45;&gt;BacterialTyper__scripts__functions__create_folder -->
<g id="edge6" class="edge">
<title>BacterialTyper__scripts__database_generator__NCBI_DB&#45;&gt;BacterialTyper__scripts__functions__create_folder</title>
<path fill="none" stroke="#000000" d="M386.4299,-271.6087C597.8186,-269.6664 1440.7223,-259.4251 1702,-218 1773.1497,-206.7194 1814.5214,-231.4381 1858,-174 1880.7351,-143.9654 1869.4875,-98.3677 1858.4214,-69.3916"/>
<polygon fill="#000000" stroke="#000000" points="1861.57,-67.8421 1854.5708,-59.8884 1855.0824,-70.4709 1861.57,-67.8421"/>
</g>
<!-- BacterialTyper__scripts__functions__get_data -->
<g id="node14" class="node">
<title>BacterialTyper__scripts__functions__get_data</title>
<ellipse fill="#a365ff" fill-opacity="0.698039" stroke="#000000" cx="1731" cy="-42" rx="40.0939" ry="18"/>
<text text-anchor="middle" x="1731" y="-38.3" font-family="Times,serif" font-size="14.00" fill="#000000">get_data</text>
</g>
<!-- BacterialTyper__scripts__database_generator__NCBI_DB&#45;&gt;BacterialTyper__scripts__functions__get_data -->
<g id="edge9" class="edge">
<title>BacterialTyper__scripts__database_generator__NCBI_DB&#45;&gt;BacterialTyper__scripts__functions__get_data</title>
<path fill="none" stroke="#000000" d="M386.4299,-271.6087C597.8186,-269.6664 1440.7223,-259.4251 1702,-218 1773.1497,-206.7194 1814.5214,-231.4381 1858,-174 1878.1183,-147.4224 1880.3355,-123.7434 1858,-99 1846.3246,-86.0659 1795.7363,-98.4816 1780,-91 1768.5712,-85.5664 1758.2617,-76.3253 1750.0812,-67.3231"/>
<polygon fill="#000000" stroke="#000000" points="1752.6209,-64.9074 1743.4657,-59.5752 1747.2974,-69.4529 1752.6209,-64.9074"/>
</g>
<!-- BacterialTyper__scripts__functions__print_sepLine -->
<g id="node15" class="node">
<title>BacterialTyper__scripts__functions__print_sepLine</title>
<ellipse fill="#a365ff" fill-opacity="0.698039" stroke="#000000" cx="1237" cy="-42" rx="59.5901" ry="18"/>
<text text-anchor="middle" x="1237" y="-38.3" font-family="Times,serif" font-size="14.00" fill="#000000">print_sepLine</text>
</g>
<!-- BacterialTyper__scripts__database_generator__NCBI_DB&#45;&gt;BacterialTyper__scripts__functions__print_sepLine -->
<g id="edge8" class="edge">
<title>BacterialTyper__scripts__database_generator__NCBI_DB&#45;&gt;BacterialTyper__scripts__functions__print_sepLine</title>
<path fill="none" stroke="#000000" d="M386.3069,-270.6962C638.4514,-263.662 1793.9063,-228.5243 1845,-174 1867.7926,-149.677 1868.3947,-122.7445 1845,-99 1834.4907,-88.3336 1320.2317,-95.6558 1306,-91 1290.2292,-85.8406 1274.9443,-75.6969 1262.7859,-65.9708"/>
<polygon fill="#000000" stroke="#000000" points="1264.8154,-63.1052 1254.9006,-59.3705 1260.3223,-68.473 1264.8154,-63.1052"/>
</g>
<!-- BacterialTyper__scripts__database_generator__get_files_download -->
<g id="node8" class="node">
<title>BacterialTyper__scripts__database_generator__get_files_download</title>
<ellipse fill="#657aff" fill-opacity="0.698039" stroke="#000000" cx="104" cy="-125" rx="79.8859" ry="18"/>
<text text-anchor="middle" x="104" y="-121.3" font-family="Times,serif" font-size="14.00" fill="#000000">get_files_download</text>
</g>
<!-- BacterialTyper__scripts__database_generator__NCBIdownload&#45;&gt;BacterialTyper__scripts__database_generator__get_files_download -->
<g id="edge13" class="edge">
<title>BacterialTyper__scripts__database_generator__NCBIdownload&#45;&gt;BacterialTyper__scripts__database_generator__get_files_download</title>
<path fill="none" stroke="#000000" d="M93.389,-181.8446C95.0055,-173.1849 96.9757,-162.6301 98.7777,-152.9768"/>
<polygon fill="#000000" stroke="#000000" points="102.2477,-153.4607 100.6422,-142.9882 95.3666,-152.1762 102.2477,-153.4607"/>
</g>
<!-- BacterialTyper__scripts__functions__extract -->
<g id="node13" class="node">
<title>BacterialTyper__scripts__functions__extract</title>
<ellipse fill="#a365ff" fill-opacity="0.698039" stroke="#000000" cx="803" cy="-42" rx="34.394" ry="18"/>
<text text-anchor="middle" x="803" y="-38.3" font-family="Times,serif" font-size="14.00" fill="#000000">extract</text>
</g>
<!-- BacterialTyper__scripts__database_generator__NCBIdownload&#45;&gt;BacterialTyper__scripts__functions__extract -->
<g id="edge11" class="edge">
<title>BacterialTyper__scripts__database_generator__NCBIdownload&#45;&gt;BacterialTyper__scripts__functions__extract</title>
<path fill="none" stroke="#000000" d="M140.186,-188.1466C161.1606,-183.0235 182.9649,-177.4286 193,-174 271.9169,-147.0373 283.5375,-116.853 365,-99 386.3858,-94.3131 739.097,-100.1209 759,-91 769.9818,-85.9674 779.3936,-76.7424 786.6608,-67.6428"/>
<polygon fill="#000000" stroke="#000000" points="789.5897,-69.5684 792.7153,-59.4451 783.9589,-65.4097 789.5897,-69.5684"/>
</g>
<!-- BacterialTyper__scripts__database_generator__NCBIdownload&#45;&gt;BacterialTyper__scripts__functions__print_time_stamp -->
<g id="edge12" class="edge">
<title>BacterialTyper__scripts__database_generator__NCBIdownload&#45;&gt;BacterialTyper__scripts__functions__print_time_stamp</title>
<path fill="none" stroke="#000000" d="M137.3722,-187.3564C146.4873,-185.2862 155.9985,-183.3727 165,-182 217.4024,-174.0086 231.9906,-184.242 284,-174 387.423,-153.6333 405.1595,-117.1182 509,-99 545.8976,-92.5621 809.9884,-101.2976 846,-91 864.6942,-85.6544 883.5174,-75.0667 898.5013,-65.0968"/>
<polygon fill="#000000" stroke="#000000" points="900.6026,-67.8994 906.8499,-59.3424 896.63,-62.1358 900.6026,-67.8994"/>
</g>
<!-- BacterialTyper__scripts__database_generator__get_database&#45;&gt;BacterialTyper__scripts__functions__get_data -->
<g id="edge16" class="edge">
<title>BacterialTyper__scripts__database_generator__get_database&#45;&gt;BacterialTyper__scripts__functions__get_data</title>
<path fill="none" stroke="#000000" d="M270.2553,-187.3212C278.3745,-185.199 286.9032,-183.2753 295,-182 336.5256,-175.4592 445.096,-189.926 484,-174 530.0121,-155.1641 520.6642,-117.0248 567,-99 595.8659,-87.771 1653.4274,-102.9554 1682,-91 1693.8457,-86.0435 1704.3314,-76.7023 1712.5321,-67.4942"/>
<polygon fill="#000000" stroke="#000000" points="1715.4326,-69.4799 1719.1273,-59.5501 1710.0467,-65.0085 1715.4326,-69.4799"/>
</g>
<!-- BacterialTyper__scripts__database_generator__get_database&#45;&gt;BacterialTyper__scripts__functions__print_sepLine -->
<g id="edge15" class="edge">
<title>BacterialTyper__scripts__database_generator__get_database&#45;&gt;BacterialTyper__scripts__functions__print_sepLine</title>
<path fill="none" stroke="#000000" d="M270.2826,-187.4875C278.3995,-185.3516 286.9205,-183.3803 295,-182 346.377,-173.2225 362.044,-188.8675 412,-174 477.4139,-154.532 480.0718,-116.6478 546,-99 612.8735,-81.0991 1103.2565,-112.6864 1169,-91 1184.6067,-85.8519 1199.6776,-75.7095 1211.6481,-65.9814"/>
<polygon fill="#000000" stroke="#000000" points="1214.0599,-68.5248 1219.4085,-59.3792 1209.524,-63.1932 1214.0599,-68.5248"/>
</g>
<!-- BacterialTyper__scripts__database_generator__get_database&#45;&gt;BacterialTyper__scripts__functions__read_time_stamp -->
<g id="edge14" class="edge">
<title>BacterialTyper__scripts__database_generator__get_database&#45;&gt;BacterialTyper__scripts__functions__read_time_stamp</title>
<path fill="none" stroke="#000000" d="M266.9145,-186.3435C320.2328,-166.6852 421.9563,-129.43 509,-99 547.7079,-85.4679 591.5925,-70.6831 624.94,-59.5627"/>
<polygon fill="#000000" stroke="#000000" points="626.1105,-62.862 634.4923,-56.3814 623.8986,-56.2206 626.1105,-62.862"/>
</g>
<!-- BacterialTyper__scripts__database_generator__getdbs&#45;&gt;BacterialTyper__config__set_config__get_exe -->
<g id="edge19" class="edge">
<title>BacterialTyper__scripts__database_generator__getdbs&#45;&gt;BacterialTyper__config__set_config__get_exe</title>
<path fill="none" stroke="#000000" d="M362.8213,-187.6183C368.3517,-185.3567 374.2759,-183.303 380,-182 420.5561,-172.7679 528.8375,-190.5424 567,-174 579.0226,-168.7885 589.7868,-159.2759 598.2202,-150.0092"/>
<polygon fill="#000000" stroke="#000000" points="600.9003,-152.2604 604.7325,-142.3829 595.577,-147.7147 600.9003,-152.2604"/>
</g>
<!-- BacterialTyper__scripts__database_generator__getdbs&#45;&gt;BacterialTyper__scripts__ariba_caller__ariba_getref -->
<g id="edge27" class="edge">
<title>BacterialTyper__scripts__database_generator__getdbs&#45;&gt;BacterialTyper__scripts__ariba_caller__ariba_getref</title>
<path fill="none" stroke="#000000" d="M362.7911,-187.4805C368.3234,-185.2276 374.256,-183.2122 380,-182 419.3035,-173.7058 1065.1295,-187.3936 1103,-174 1117.3634,-168.9201 1130.9319,-159.0274 1141.6924,-149.453"/>
<polygon fill="#000000" stroke="#000000" points="1144.0933,-151.9998 1149.0026,-142.611 1139.3099,-146.889 1144.0933,-151.9998"/>
</g>
<!-- BacterialTyper__scripts__database_generator__getdbs&#45;&gt;BacterialTyper__scripts__ariba_caller__check_db_indexed -->
<g id="edge20" class="edge">
<title>BacterialTyper__scripts__database_generator__getdbs&#45;&gt;BacterialTyper__scripts__ariba_caller__check_db_indexed</title>
<path fill="none" stroke="#000000" d="M362.7943,-187.4955C368.3263,-185.2415 374.2581,-183.222 380,-182 439.9961,-169.2316 872.8615,-190.2853 932,-174 951.0817,-168.7454 970.3527,-158.1661 985.7101,-148.1782"/>
<polygon fill="#000000" stroke="#000000" points="987.9321,-150.9014 994.269,-142.4106 984.0202,-145.0965 987.9321,-150.9014"/>
</g>
<!-- BacterialTyper__scripts__database_generator__getdbs&#45;&gt;BacterialTyper__scripts__ariba_caller__get_ARIBA_dbs -->
<g id="edge24" class="edge">
<title>BacterialTyper__scripts__database_generator__getdbs&#45;&gt;BacterialTyper__scripts__ariba_caller__get_ARIBA_dbs</title>
<path fill="none" stroke="#000000" d="M362.7998,-187.5214C368.3316,-185.2659 374.2618,-183.2391 380,-182 422.4745,-172.828 729.2332,-185.9895 771,-174 789.6553,-168.6449 808.391,-157.9455 823.2349,-147.9073"/>
<polygon fill="#000000" stroke="#000000" points="825.3143,-150.724 831.495,-142.1188 821.297,-144.9915 825.3143,-150.724"/>
</g>
<!-- BacterialTyper__scripts__functions__create_subfolder -->
<g id="node12" class="node">
<title>BacterialTyper__scripts__functions__create_subfolder</title>
<ellipse fill="#a365ff" fill-opacity="0.698039" stroke="#000000" cx="1090" cy="-42" rx="69.5877" ry="18"/>
<text text-anchor="middle" x="1090" y="-38.3" font-family="Times,serif" font-size="14.00" fill="#000000">create_subfolder</text>
</g>
<!-- BacterialTyper__scripts__database_generator__getdbs&#45;&gt;BacterialTyper__scripts__functions__create_subfolder -->
<g id="edge21" class="edge">
<title>BacterialTyper__scripts__database_generator__getdbs&#45;&gt;BacterialTyper__scripts__functions__create_subfolder</title>
<path fill="none" stroke="#000000" d="M362.7896,-187.4733C368.322,-185.2208 374.255,-183.2074 380,-182 391.5537,-179.5718 1221.6912,-182.3873 1230,-174 1253.4591,-150.3191 1252.0105,-124.033 1230,-99 1220.8269,-88.5673 1181.0752,-95.6932 1168,-91 1150.9233,-84.8706 1133.6629,-74.5501 1119.7357,-64.9572"/>
<polygon fill="#000000" stroke="#000000" points="1121.7048,-62.0628 1111.5262,-59.1223 1117.6495,-67.7685 1121.7048,-62.0628"/>
</g>
<!-- BacterialTyper__scripts__database_generator__getdbs&#45;&gt;BacterialTyper__scripts__functions__print_sepLine -->
<g id="edge25" class="edge">
<title>BacterialTyper__scripts__database_generator__getdbs&#45;&gt;BacterialTyper__scripts__functions__print_sepLine</title>
<path fill="none" stroke="#000000" d="M362.7894,-187.4727C368.3218,-185.2202 374.2549,-183.207 380,-182 391.7305,-179.5355 1234.5636,-182.515 1243,-174 1269.8363,-146.9138 1259.2958,-99.3563 1248.6005,-69.3279"/>
<polygon fill="#000000" stroke="#000000" points="1251.8346,-67.9848 1245.0213,-59.8713 1245.2878,-70.4627 1251.8346,-67.9848"/>
</g>
<!-- BacterialTyper__scripts__functions__readList_fromFile -->
<g id="node17" class="node">
<title>BacterialTyper__scripts__functions__readList_fromFile</title>
<ellipse fill="#a365ff" fill-opacity="0.698039" stroke="#000000" cx="1390" cy="-42" rx="75.2868" ry="18"/>
<text text-anchor="middle" x="1390" y="-38.3" font-family="Times,serif" font-size="14.00" fill="#000000">readList_fromFile</text>
</g>
<!-- BacterialTyper__scripts__database_generator__getdbs&#45;&gt;BacterialTyper__scripts__functions__readList_fromFile -->
<g id="edge23" class="edge">
<title>BacterialTyper__scripts__database_generator__getdbs&#45;&gt;BacterialTyper__scripts__functions__readList_fromFile</title>
<path fill="none" stroke="#000000" d="M362.7893,-187.4721C368.3217,-185.2197 374.2548,-183.2066 380,-182 403.8148,-176.9984 1235.4632,-187.0537 1256,-174 1287.2043,-154.1657 1266.808,-126.0643 1292,-99 1296.8828,-93.7544 1299.7937,-94.5833 1306,-91 1321.2563,-82.1916 1338.0309,-72.4232 1352.5517,-63.9407"/>
<polygon fill="#000000" stroke="#000000" points="1354.4011,-66.9138 1361.2679,-58.8455 1350.8684,-60.8706 1354.4011,-66.9138"/>
</g>
<!-- BacterialTyper__scripts__functions__retrieve_matching_files -->
<g id="node19" class="node">
<title>BacterialTyper__scripts__functions__retrieve_matching_files</title>
<ellipse fill="#a365ff" fill-opacity="0.698039" stroke="#000000" cx="1578" cy="-42" rx="94.7833" ry="18"/>
<text text-anchor="middle" x="1578" y="-38.3" font-family="Times,serif" font-size="14.00" fill="#000000">retrieve_matching_files</text>
</g>
<!-- BacterialTyper__scripts__database_generator__getdbs&#45;&gt;BacterialTyper__scripts__functions__retrieve_matching_files -->
<g id="edge22" class="edge">
<title>BacterialTyper__scripts__database_generator__getdbs&#45;&gt;BacterialTyper__scripts__functions__retrieve_matching_files</title>
<path fill="none" stroke="#000000" d="M362.7891,-187.4711C368.3215,-185.2187 374.2547,-183.2059 380,-182 404.4406,-176.8699 1258.985,-188.9352 1279,-174 1306.9433,-153.1487 1274.4534,-120.3727 1302,-99 1317.1156,-87.2722 1455.4321,-95.6107 1474,-91 1496.9728,-85.2955 1520.9801,-74.3606 1540.1333,-64.2655"/>
<polygon fill="#000000" stroke="#000000" points="1541.99,-67.2405 1549.12,-59.4038 1538.6592,-61.0836 1541.99,-67.2405"/>
</g>
<!-- BacterialTyper__scripts__min_hash_caller__sketch_database -->
<g id="node20" class="node">
<title>BacterialTyper__scripts__min_hash_caller__sketch_database</title>
<ellipse fill="#e065ff" fill-opacity="0.698039" stroke="#000000" cx="1422" cy="-125" rx="67.6881" ry="18"/>
<text text-anchor="middle" x="1422" y="-121.3" font-family="Times,serif" font-size="14.00" fill="#000000">sketch_database</text>
</g>
<!-- BacterialTyper__scripts__database_generator__getdbs&#45;&gt;BacterialTyper__scripts__min_hash_caller__sketch_database -->
<g id="edge18" class="edge">
<title>BacterialTyper__scripts__database_generator__getdbs&#45;&gt;BacterialTyper__scripts__min_hash_caller__sketch_database</title>
<path fill="none" stroke="#000000" d="M362.7889,-187.4701C368.3213,-185.2178 374.2546,-183.2053 380,-182 480.2658,-160.966 1201.5568,-194.1699 1302,-174 1329.9232,-168.3928 1359.5668,-156.3534 1382.4048,-145.6123"/>
<polygon fill="#000000" stroke="#000000" points="1383.9415,-148.757 1391.4346,-141.2668 1380.906,-142.4494 1383.9415,-148.757"/>
</g>
<!-- BacterialTyper__scripts__species_identification_KMA__download_kma_database -->
<g id="node21" class="node">
<title>BacterialTyper__scripts__species_identification_KMA__download_kma_database</title>
<ellipse fill="#ff65cb" fill-opacity="0.698039" stroke="#000000" cx="1652" cy="-125" rx="100.1823" ry="18"/>
<text text-anchor="middle" x="1652" y="-121.3" font-family="Times,serif" font-size="14.00" fill="#000000">download_kma_database</text>
</g>
<!-- BacterialTyper__scripts__database_generator__getdbs&#45;&gt;BacterialTyper__scripts__species_identification_KMA__download_kma_database -->
<g id="edge26" class="edge">
<title>BacterialTyper__scripts__database_generator__getdbs&#45;&gt;BacterialTyper__scripts__species_identification_KMA__download_kma_database</title>
<path fill="none" stroke="#000000" d="M362.7873,-187.4624C368.3198,-185.2105 374.2535,-183.2002 380,-182 443.0848,-168.8245 1476.9652,-187.4126 1540,-174 1565.2029,-168.6373 1591.6908,-157.3406 1612.5765,-146.9444"/>
<polygon fill="#000000" stroke="#000000" points="1614.441,-149.9222 1621.7537,-142.2556 1611.2562,-143.6886 1614.441,-149.9222"/>
</g>
<!-- BacterialTyper__scripts__database_generator__update_db_data_file&#45;&gt;BacterialTyper__scripts__functions__get_data -->
<g id="edge17" class="edge">
<title>BacterialTyper__scripts__database_generator__update_db_data_file&#45;&gt;BacterialTyper__scripts__functions__get_data</title>
<path fill="none" stroke="#000000" d="M554.5417,-199.2026C849.375,-196.2589 1833.6442,-185.5729 1845,-174 1868.346,-150.2077 1867.0837,-123.9684 1845,-99 1835.3582,-88.0987 1793.0796,-97.3817 1780,-91 1768.6268,-85.4509 1758.3272,-76.1893 1750.1391,-67.2029"/>
<polygon fill="#000000" stroke="#000000" points="1752.6799,-64.7891 1743.5131,-59.4768 1747.3663,-69.3461 1752.6799,-64.7891"/>
</g>
<!-- BacterialTyper__scripts__min_hash_caller__sketch_database&#45;&gt;BacterialTyper__scripts__functions__create_folder -->
<g id="edge28" class="edge">
<title>BacterialTyper__scripts__min_hash_caller__sketch_database&#45;&gt;BacterialTyper__scripts__functions__create_folder</title>
<path fill="none" stroke="#000000" d="M1470.1631,-112.2897C1491.4166,-107.2268 1516.7929,-101.9184 1540,-99 1566.473,-95.6709 1754.8103,-99.7967 1780,-91 1795.0699,-85.7373 1809.5704,-75.7193 1821.1223,-66.106"/>
<polygon fill="#000000" stroke="#000000" points="1823.7446,-68.4631 1828.9788,-59.2514 1819.1426,-63.1884 1823.7446,-68.4631"/>
</g>
<!-- BacterialTyper__scripts__species_identification_KMA__download_kma_database&#45;&gt;BacterialTyper__scripts__functions__extract -->
<g id="edge29" class="edge">
<title>BacterialTyper__scripts__species_identification_KMA__download_kma_database&#45;&gt;BacterialTyper__scripts__functions__extract</title>
<path fill="none" stroke="#000000" d="M1597.4486,-109.8424C1579.3185,-105.4756 1558.9265,-101.2788 1540,-99 1520.8868,-96.6988 864.5361,-98.9434 847,-91 835.9963,-86.0156 826.5806,-76.7989 819.3165,-67.6926"/>
<polygon fill="#000000" stroke="#000000" points="822.0173,-65.4578 813.2664,-59.4852 816.3827,-69.6113 822.0173,-65.4578"/>
</g>
<!-- BacterialTyper__scripts__species_identification_KMA__download_kma_database&#45;&gt;BacterialTyper__scripts__functions__print_time_stamp -->
<g id="edge30" class="edge">
<title>BacterialTyper__scripts__species_identification_KMA__download_kma_database&#45;&gt;BacterialTyper__scripts__functions__print_time_stamp</title>
<path fill="none" stroke="#000000" d="M1597.4437,-109.8823C1579.3133,-105.5181 1558.9224,-101.3126 1540,-99 1481.6497,-91.8687 1067.5457,-107.0687 1011,-91 992.4639,-85.7326 973.8612,-75.1521 959.0711,-65.1668"/>
<polygon fill="#000000" stroke="#000000" points="961.0326,-62.2675 950.8329,-59.401 957.0188,-68.0025 961.0326,-62.2675"/>
</g>
</g>
</svg>
