<?xml version="1.0" encoding="UTF-8" standalone="no"?>
<!DOCTYPE svg PUBLIC "-//W3C//DTD SVG 1.1//EN"
 "http://www.w3.org/Graphics/SVG/1.1/DTD/svg11.dtd">
<!-- Generated by graphviz version 2.40.1 (20161225.0304)
 -->
<!-- Title: G Pages: 1 -->
<svg width="762pt" height="353pt"
 viewBox="0.00 0.00 762.00 353.00" xmlns="http://www.w3.org/2000/svg" xmlns:xlink="http://www.w3.org/1999/xlink">
<g id="graph0" class="graph" transform="scale(1 1) rotate(0) translate(4 349)">
<title>G</title>
<polygon fill="#ffffff" stroke="transparent" points="-4,4 -4,-349 758,-349 758,4 -4,4"/>
<g id="clust1" class="cluster">
<title>cluster_G</title>
<path fill="#808080" fill-opacity="0.094118" stroke="#000000" d="M20,-8C20,-8 734,-8 734,-8 740,-8 746,-14 746,-20 746,-20 746,-325 746,-325 746,-331 740,-337 734,-337 734,-337 20,-337 20,-337 14,-337 8,-331 8,-325 8,-325 8,-20 8,-20 8,-14 14,-8 20,-8"/>
</g>
<g id="clust2" class="cluster">
<title>cluster_BacterialTyper__scripts__database_generator</title>
<path fill="#808080" fill-opacity="0.094118" stroke="#000000" d="M281,-99C281,-99 654,-99 654,-99 660,-99 666,-105 666,-111 666,-111 666,-162 666,-162 666,-168 660,-174 654,-174 654,-174 281,-174 281,-174 275,-174 269,-168 269,-162 269,-162 269,-111 269,-111 269,-105 275,-99 281,-99"/>
<text text-anchor="middle" x="467.5" y="-158.8" font-family="Times,serif" font-size="14.00" fill="#000000">BacterialTyper.scripts.database_generator</text>
</g>
<g id="clust3" class="cluster">
<title>cluster_BacterialTyper__scripts__database_user</title>
<path fill="#808080" fill-opacity="0.094118" stroke="#000000" d="M53,-182C53,-182 512,-182 512,-182 518,-182 524,-188 524,-194 524,-194 524,-317 524,-317 524,-323 518,-329 512,-329 512,-329 53,-329 53,-329 47,-329 41,-323 41,-317 41,-317 41,-194 41,-194 41,-188 47,-182 53,-182"/>
<text text-anchor="middle" x="282.5" y="-313.8" font-family="Times,serif" font-size="14.00" fill="#000000">BacterialTyper.scripts.database_user</text>
</g>
<g id="clust4" class="cluster">
<title>cluster_BacterialTyper__scripts__functions</title>
<path fill="#808080" fill-opacity="0.094118" stroke="#000000" d="M34,-16C34,-16 726,-16 726,-16 732,-16 738,-22 738,-28 738,-28 738,-79 738,-79 738,-85 732,-91 726,-91 726,-91 34,-91 34,-91 28,-91 22,-85 22,-79 22,-79 22,-28 22,-28 22,-22 28,-16 34,-16"/>
<text text-anchor="middle" x="380" y="-75.8" font-family="Times,serif" font-size="14.00" fill="#000000">BacterialTyper.scripts.functions</text>
</g>
<g id="clust5" class="cluster">
<title>cluster_BacterialTyper__scripts__sampleParser</title>
<path fill="#808080" fill-opacity="0.094118" stroke="#000000" d="M28,-99C28,-99 217,-99 217,-99 223,-99 229,-105 229,-111 229,-111 229,-162 229,-162 229,-168 223,-174 217,-174 217,-174 28,-174 28,-174 22,-174 16,-168 16,-162 16,-162 16,-111 16,-111 16,-105 22,-99 28,-99"/>
<text text-anchor="middle" x="122.5" y="-158.8" font-family="Times,serif" font-size="14.00" fill="#000000">BacterialTyper.scripts.sampleParser</text>
</g>
<!-- BacterialTyper__scripts__database_generator__get_database -->
<g id="node1" class="node">
<title>BacterialTyper__scripts__database_generator__get_database</title>
<ellipse fill="#657aff" fill-opacity="0.698039" stroke="#000000" cx="419" cy="-125" rx="55.7903" ry="18"/>
<text text-anchor="middle" x="419" y="-121.3" font-family="Times,serif" font-size="14.00" fill="#000000">get_database</text>
</g>
<!-- BacterialTyper__scripts__functions__get_data -->
<g id="node9" class="node">
<title>BacterialTyper__scripts__functions__get_data</title>
<ellipse fill="#a365ff" fill-opacity="0.698039" stroke="#000000" cx="529" cy="-42" rx="40.0939" ry="18"/>
<text text-anchor="middle" x="529" y="-38.3" font-family="Times,serif" font-size="14.00" fill="#000000">get_data</text>
</g>
<!-- BacterialTyper__scripts__database_generator__get_database&#45;&gt;BacterialTyper__scripts__functions__get_data -->
<g id="edge2" class="edge">
<title>BacterialTyper__scripts__database_generator__get_database&#45;&gt;BacterialTyper__scripts__functions__get_data</title>
<path fill="none" stroke="#000000" d="M475.0517,-125C479.9984,-125 483.1802,-125 483.1802,-125 483.1802,-125 483.1802,-36 483.1802,-36 483.1802,-36 483.9368,-36 483.9368,-36"/>
<polygon fill="#000000" stroke="#000000" points="480.7464,-39.5001 490.7464,-36 480.7463,-32.5001 480.7464,-39.5001"/>
</g>
<!-- BacterialTyper__scripts__functions__print_sepLine -->
<g id="node11" class="node">
<title>BacterialTyper__scripts__functions__print_sepLine</title>
<ellipse fill="#a365ff" fill-opacity="0.698039" stroke="#000000" cx="411" cy="-42" rx="59.5901" ry="18"/>
<text text-anchor="middle" x="411" y="-38.3" font-family="Times,serif" font-size="14.00" fill="#000000">print_sepLine</text>
</g>
<!-- BacterialTyper__scripts__database_generator__get_database&#45;&gt;BacterialTyper__scripts__functions__print_sepLine -->
<g id="edge1" class="edge">
<title>BacterialTyper__scripts__database_generator__get_database&#45;&gt;BacterialTyper__scripts__functions__print_sepLine</title>
<path fill="none" stroke="#000000" d="M416.9498,-106.9902C416.9498,-106.9902 416.9498,-69.9746 416.9498,-69.9746"/>
<polygon fill="#000000" stroke="#000000" points="420.4499,-69.9746 416.9498,-59.9746 413.4499,-69.9747 420.4499,-69.9746"/>
</g>
<!-- BacterialTyper__scripts__database_generator__getdbs -->
<g id="node2" class="node">
<title>BacterialTyper__scripts__database_generator__getdbs</title>
<ellipse fill="#657aff" fill-opacity="0.698039" stroke="#000000" cx="311" cy="-125" rx="33.5952" ry="18"/>
<text text-anchor="middle" x="311" y="-121.3" font-family="Times,serif" font-size="14.00" fill="#000000">getdbs</text>
</g>
<!-- BacterialTyper__scripts__functions__create_subfolder -->
<g id="node8" class="node">
<title>BacterialTyper__scripts__functions__create_subfolder</title>
<ellipse fill="#a365ff" fill-opacity="0.698039" stroke="#000000" cx="264" cy="-42" rx="69.5877" ry="18"/>
<text text-anchor="middle" x="264" y="-38.3" font-family="Times,serif" font-size="14.00" fill="#000000">create_subfolder</text>
</g>
<!-- BacterialTyper__scripts__database_generator__getdbs&#45;&gt;BacterialTyper__scripts__functions__create_subfolder -->
<g id="edge4" class="edge">
<title>BacterialTyper__scripts__database_generator__getdbs&#45;&gt;BacterialTyper__scripts__functions__create_subfolder</title>
<path fill="none" stroke="#000000" d="M295.9833,-108.6019C295.9833,-108.6019 295.9833,-68.0816 295.9833,-68.0816"/>
<polygon fill="#000000" stroke="#000000" points="299.4834,-68.0816 295.9833,-58.0816 292.4834,-68.0817 299.4834,-68.0816"/>
</g>
<!-- BacterialTyper__scripts__database_generator__getdbs&#45;&gt;BacterialTyper__scripts__functions__print_sepLine -->
<g id="edge5" class="edge">
<title>BacterialTyper__scripts__database_generator__getdbs&#45;&gt;BacterialTyper__scripts__functions__print_sepLine</title>
<path fill="none" stroke="#000000" d="M339.1704,-114.8226C339.1704,-92.6592 339.1704,-42 339.1704,-42 339.1704,-42 341.0316,-42 341.0316,-42"/>
<polygon fill="#000000" stroke="#000000" points="341.0316,-45.5001 351.0316,-42 341.0316,-38.5001 341.0316,-45.5001"/>
</g>
<!-- BacterialTyper__scripts__database_generator__update_db_data_file -->
<g id="node3" class="node">
<title>BacterialTyper__scripts__database_generator__update_db_data_file</title>
<ellipse fill="#657aff" fill-opacity="0.698039" stroke="#000000" cx="575" cy="-125" rx="82.5854" ry="18"/>
<text text-anchor="middle" x="575" y="-121.3" font-family="Times,serif" font-size="14.00" fill="#000000">update_db_data_file</text>
</g>
<!-- BacterialTyper__scripts__database_generator__update_db_data_file&#45;&gt;BacterialTyper__scripts__functions__get_data -->
<g id="edge3" class="edge">
<title>BacterialTyper__scripts__database_generator__update_db_data_file&#45;&gt;BacterialTyper__scripts__functions__get_data</title>
<path fill="none" stroke="#000000" d="M530.8769,-109.7765C530.8769,-109.7765 530.8769,-70.0162 530.8769,-70.0162"/>
<polygon fill="#000000" stroke="#000000" points="534.377,-70.0161 530.8769,-60.0162 527.377,-70.0162 534.377,-70.0161"/>
</g>
<!-- BacterialTyper__scripts__database_user__get_userData_files -->
<g id="node4" class="node">
<title>BacterialTyper__scripts__database_user__get_userData_files</title>
<ellipse fill="#6565ff" fill-opacity="0.698039" stroke="#000000" cx="294" cy="-208" rx="76.8869" ry="18"/>
<text text-anchor="middle" x="294" y="-204.3" font-family="Times,serif" font-size="14.00" fill="#000000">get_userData_files</text>
</g>
<!-- BacterialTyper__scripts__sampleParser__get_files -->
<g id="node13" class="node">
<title>BacterialTyper__scripts__sampleParser__get_files</title>
<ellipse fill="#ff65f4" fill-opacity="0.698039" stroke="#000000" cx="178" cy="-125" rx="40.8928" ry="18"/>
<text text-anchor="middle" x="178" y="-121.3" font-family="Times,serif" font-size="14.00" fill="#000000">get_files</text>
</g>
<!-- BacterialTyper__scripts__database_user__get_userData_files&#45;&gt;BacterialTyper__scripts__sampleParser__get_files -->
<g id="edge16" class="edge">
<title>BacterialTyper__scripts__database_user__get_userData_files&#45;&gt;BacterialTyper__scripts__sampleParser__get_files</title>
<path fill="none" stroke="#000000" d="M217.2807,-208C213.5607,-208 211.3356,-208 211.3356,-208 211.3356,-208 211.3356,-145.512 211.3356,-145.512"/>
<polygon fill="#000000" stroke="#000000" points="214.8357,-145.512 211.3356,-135.512 207.8357,-145.512 214.8357,-145.512"/>
</g>
<!-- BacterialTyper__scripts__database_user__get_userData_info -->
<g id="node5" class="node">
<title>BacterialTyper__scripts__database_user__get_userData_info</title>
<ellipse fill="#6565ff" fill-opacity="0.698039" stroke="#000000" cx="124" cy="-208" rx="75.2868" ry="18"/>
<text text-anchor="middle" x="124" y="-204.3" font-family="Times,serif" font-size="14.00" fill="#000000">get_userData_info</text>
</g>
<!-- BacterialTyper__scripts__database_user__get_userData_info&#45;&gt;BacterialTyper__scripts__sampleParser__get_files -->
<g id="edge17" class="edge">
<title>BacterialTyper__scripts__database_user__get_userData_info&#45;&gt;BacterialTyper__scripts__sampleParser__get_files</title>
<path fill="none" stroke="#000000" d="M168.2235,-193.1613C168.2235,-193.1613 168.2235,-152.5895 168.2235,-152.5895"/>
<polygon fill="#000000" stroke="#000000" points="171.7236,-152.5894 168.2235,-142.5895 164.7236,-152.5895 171.7236,-152.5894"/>
</g>
<!-- BacterialTyper__scripts__database_user__update_database_user_data -->
<g id="node6" class="node">
<title>BacterialTyper__scripts__database_user__update_database_user_data</title>
<ellipse fill="#6565ff" fill-opacity="0.698039" stroke="#000000" cx="294" cy="-280" rx="106.6812" ry="18"/>
<text text-anchor="middle" x="294" y="-276.3" font-family="Times,serif" font-size="14.00" fill="#000000">update_database_user_data</text>
</g>
<!-- BacterialTyper__scripts__database_user__update_database_user_data&#45;&gt;BacterialTyper__scripts__database_generator__get_database -->
<g id="edge7" class="edge">
<title>BacterialTyper__scripts__database_user__update_database_user_data&#45;&gt;BacterialTyper__scripts__database_generator__get_database</title>
<path fill="none" stroke="#000000" d="M381.2607,-269.3462C381.2607,-269.3462 381.2607,-148.3179 381.2607,-148.3179"/>
<polygon fill="#000000" stroke="#000000" points="384.7608,-148.3178 381.2607,-138.3179 377.7608,-148.3179 384.7608,-148.3178"/>
</g>
<!-- BacterialTyper__scripts__database_user__update_database_user_data&#45;&gt;BacterialTyper__scripts__database_generator__getdbs -->
<g id="edge14" class="edge">
<title>BacterialTyper__scripts__database_user__update_database_user_data&#45;&gt;BacterialTyper__scripts__database_generator__getdbs</title>
<path fill="none" stroke="#000000" d="M374.2157,-267.7131C374.2157,-237.3088 374.2157,-161 374.2157,-161 374.2157,-161 311,-161 311,-161 311,-161 311,-153 311,-153"/>
<polygon fill="#000000" stroke="#000000" points="314.5001,-153 311,-143 307.5001,-153 314.5001,-153"/>
</g>
<!-- BacterialTyper__scripts__database_user__update_database_user_data&#45;&gt;BacterialTyper__scripts__database_generator__update_db_data_file -->
<g id="edge8" class="edge">
<title>BacterialTyper__scripts__database_user__update_database_user_data&#45;&gt;BacterialTyper__scripts__database_generator__update_db_data_file</title>
<path fill="none" stroke="#000000" d="M394.7027,-274C479.3468,-274 586.6185,-274 586.6185,-274 586.6185,-274 586.6185,-152.9729 586.6185,-152.9729"/>
<polygon fill="#000000" stroke="#000000" points="590.1186,-152.9728 586.6185,-142.9729 583.1186,-152.9729 590.1186,-152.9728"/>
</g>
<!-- BacterialTyper__scripts__database_user__update_database_user_data&#45;&gt;BacterialTyper__scripts__database_user__get_userData_files -->
<g id="edge15" class="edge">
<title>BacterialTyper__scripts__database_user__update_database_user_data&#45;&gt;BacterialTyper__scripts__database_user__get_userData_files</title>
<path fill="none" stroke="#000000" d="M294,-261.8314C294,-261.8314 294,-236.4133 294,-236.4133"/>
<polygon fill="#000000" stroke="#000000" points="297.5001,-236.4132 294,-226.4133 290.5001,-236.4133 297.5001,-236.4132"/>
</g>
<!-- BacterialTyper__scripts__database_user__update_database_user_data&#45;&gt;BacterialTyper__scripts__database_user__get_userData_info -->
<g id="edge9" class="edge">
<title>BacterialTyper__scripts__database_user__update_database_user_data&#45;&gt;BacterialTyper__scripts__database_user__get_userData_info</title>
<path fill="none" stroke="#000000" d="M193.4014,-273.8613C193.4014,-273.8613 193.4014,-225.3963 193.4014,-225.3963"/>
<polygon fill="#000000" stroke="#000000" points="196.9015,-225.3962 193.4014,-215.3963 189.9015,-225.3963 196.9015,-225.3962"/>
</g>
<!-- BacterialTyper__scripts__database_user__update_sample -->
<g id="node7" class="node">
<title>BacterialTyper__scripts__database_user__update_sample</title>
<ellipse fill="#6565ff" fill-opacity="0.698039" stroke="#000000" cx="452" cy="-208" rx="63.8893" ry="18"/>
<text text-anchor="middle" x="452" y="-204.3" font-family="Times,serif" font-size="14.00" fill="#000000">update_sample</text>
</g>
<!-- BacterialTyper__scripts__database_user__update_database_user_data&#45;&gt;BacterialTyper__scripts__database_user__update_sample -->
<g id="edge11" class="edge">
<title>BacterialTyper__scripts__database_user__update_database_user_data&#45;&gt;BacterialTyper__scripts__database_user__update_sample</title>
<path fill="none" stroke="#000000" d="M394.4481,-273.8613C394.4481,-273.8613 394.4481,-225.8423 394.4481,-225.8423"/>
<polygon fill="#000000" stroke="#000000" points="397.9482,-225.8423 394.4481,-215.8423 390.9482,-225.8424 397.9482,-225.8423"/>
</g>
<!-- BacterialTyper__scripts__database_user__update_database_user_data&#45;&gt;BacterialTyper__scripts__functions__create_subfolder -->
<g id="edge6" class="edge">
<title>BacterialTyper__scripts__database_user__update_database_user_data&#45;&gt;BacterialTyper__scripts__functions__create_subfolder</title>
<path fill="none" stroke="#000000" d="M205.3645,-269.9409C205.3645,-242.957 205.3645,-171 205.3645,-171 205.3645,-171 248.0747,-171 248.0747,-171 248.0747,-171 248.0747,-69.6664 248.0747,-69.6664"/>
<polygon fill="#000000" stroke="#000000" points="251.5748,-69.6664 248.0747,-59.6664 244.5748,-69.6665 251.5748,-69.6664"/>
</g>
<!-- BacterialTyper__scripts__database_user__update_database_user_data&#45;&gt;BacterialTyper__scripts__functions__get_data -->
<g id="edge13" class="edge">
<title>BacterialTyper__scripts__database_user__update_database_user_data&#45;&gt;BacterialTyper__scripts__functions__get_data</title>
<path fill="none" stroke="#000000" d="M384.7832,-270.4116C384.7832,-245.3824 384.7832,-180 384.7832,-180 384.7832,-180 485.9419,-180 485.9419,-180 485.9419,-180 485.9419,-48 485.9419,-48 485.9419,-48 486.4358,-48 486.4358,-48"/>
<polygon fill="#000000" stroke="#000000" points="480.8813,-51.5002 490.8812,-48 480.8811,-44.5002 480.8813,-51.5002"/>
</g>
<!-- BacterialTyper__scripts__functions__optimize_threads -->
<g id="node10" class="node">
<title>BacterialTyper__scripts__functions__optimize_threads</title>
<ellipse fill="#a365ff" fill-opacity="0.698039" stroke="#000000" cx="659" cy="-42" rx="71.4873" ry="18"/>
<text text-anchor="middle" x="659" y="-38.3" font-family="Times,serif" font-size="14.00" fill="#000000">optimize_threads</text>
</g>
<!-- BacterialTyper__scripts__database_user__update_database_user_data&#45;&gt;BacterialTyper__scripts__functions__optimize_threads -->
<g id="edge10" class="edge">
<title>BacterialTyper__scripts__database_user__update_database_user_data&#45;&gt;BacterialTyper__scripts__functions__optimize_threads</title>
<path fill="none" stroke="#000000" d="M394.6832,-286C513.181,-286 694.0182,-286 694.0182,-286 694.0182,-286 694.0182,-68.0095 694.0182,-68.0095"/>
<polygon fill="#000000" stroke="#000000" points="697.5183,-68.0095 694.0182,-58.0095 690.5183,-68.0096 697.5183,-68.0095"/>
</g>
<!-- BacterialTyper__scripts__database_user__update_database_user_data&#45;&gt;BacterialTyper__scripts__functions__print_sepLine -->
<g id="edge12" class="edge">
<title>BacterialTyper__scripts__database_user__update_database_user_data&#45;&gt;BacterialTyper__scripts__functions__print_sepLine</title>
<path fill="none" stroke="#000000" d="M377.7382,-268.6409C377.7382,-237.3145 377.7382,-152 377.7382,-152 377.7382,-152 359.1384,-152 359.1384,-152 359.1384,-152 359.1384,-61.0018 359.1384,-61.0018"/>
<polygon fill="#000000" stroke="#000000" points="362.6385,-61.0017 359.1384,-51.0018 355.6385,-61.0018 362.6385,-61.0017"/>
</g>
<!-- BacterialTyper__scripts__database_user__update_sample&#45;&gt;BacterialTyper__scripts__functions__create_subfolder -->
<g id="edge18" class="edge">
<title>BacterialTyper__scripts__database_user__update_sample&#45;&gt;BacterialTyper__scripts__functions__create_subfolder</title>
<path fill="none" stroke="#000000" d="M480.4185,-191.6584C480.4185,-157.7757 480.4185,-83 480.4185,-83 480.4185,-83 314.7636,-83 314.7636,-83 314.7636,-83 314.7636,-64.5241 314.7636,-64.5241"/>
<polygon fill="#000000" stroke="#000000" points="318.2637,-64.5241 314.7636,-54.5241 311.2637,-64.5242 318.2637,-64.5241"/>
</g>
<!-- BacterialTyper__scripts__functions__print_time_stamp -->
<g id="node12" class="node">
<title>BacterialTyper__scripts__functions__print_time_stamp</title>
<ellipse fill="#a365ff" fill-opacity="0.698039" stroke="#000000" cx="103" cy="-42" rx="73.387" ry="18"/>
<text text-anchor="middle" x="103" y="-38.3" font-family="Times,serif" font-size="14.00" fill="#000000">print_time_stamp</text>
</g>
<!-- BacterialTyper__scripts__database_user__update_sample&#45;&gt;BacterialTyper__scripts__functions__print_time_stamp -->
<g id="edge19" class="edge">
<title>BacterialTyper__scripts__database_user__update_sample&#45;&gt;BacterialTyper__scripts__functions__print_time_stamp</title>
<path fill="none" stroke="#000000" d="M477.6567,-191.3265C477.6567,-159.8936 477.6567,-95 477.6567,-95 477.6567,-95 156.7486,-95 156.7486,-95 156.7486,-95 156.7486,-64.2925 156.7486,-64.2925"/>
<polygon fill="#000000" stroke="#000000" points="160.2487,-64.2924 156.7486,-54.2925 153.2487,-64.2925 160.2487,-64.2924"/>
</g>
<!-- BacterialTyper__scripts__sampleParser__get_files&#45;&gt;BacterialTyper__scripts__functions__print_sepLine -->
<g id="edge20" class="edge">
<title>BacterialTyper__scripts__sampleParser__get_files&#45;&gt;BacterialTyper__scripts__functions__print_sepLine</title>
<path fill="none" stroke="#000000" d="M206.7013,-111.9281C206.7013,-95.9467 206.7013,-71 206.7013,-71 206.7013,-71 355.1719,-71 355.1719,-71 355.1719,-71 355.1719,-58.7261 355.1719,-58.7261"/>
<polygon fill="#000000" stroke="#000000" points="358.672,-58.726 355.1719,-48.7261 351.672,-58.7261 358.672,-58.726"/>
</g>
</g>
</svg>
