<?xml version="1.0" encoding="UTF-8" standalone="no"?>
<!DOCTYPE svg PUBLIC "-//W3C//DTD SVG 1.1//EN"
 "http://www.w3.org/Graphics/SVG/1.1/DTD/svg11.dtd">
<!-- Generated by graphviz version 2.40.1 (20161225.0304)
 -->
<!-- Title: G Pages: 1 -->
<svg width="1935pt" height="345pt"
 viewBox="0.00 0.00 1935.00 345.00" xmlns="http://www.w3.org/2000/svg" xmlns:xlink="http://www.w3.org/1999/xlink">
<g id="graph0" class="graph" transform="scale(1 1) rotate(0) translate(4 341)">
<title>G</title>
<polygon fill="#ffffff" stroke="transparent" points="-4,4 -4,-341 1931,-341 1931,4 -4,4"/>
<g id="clust1" class="cluster">
<title>cluster_G</title>
<path fill="#808080" fill-opacity="0.094118" stroke="#000000" d="M20,-8C20,-8 1907,-8 1907,-8 1913,-8 1919,-14 1919,-20 1919,-20 1919,-317 1919,-317 1919,-323 1913,-329 1907,-329 1907,-329 20,-329 20,-329 14,-329 8,-323 8,-317 8,-317 8,-20 8,-20 8,-14 14,-8 20,-8"/>
</g>
<g id="clust2" class="cluster">
<title>cluster_BacterialTyper__config__set_config</title>
<path fill="#808080" fill-opacity="0.094118" stroke="#000000" d="M583,-99C583,-99 755,-99 755,-99 761,-99 767,-105 767,-111 767,-111 767,-162 767,-162 767,-168 761,-174 755,-174 755,-174 583,-174 583,-174 577,-174 571,-168 571,-162 571,-162 571,-111 571,-111 571,-105 577,-99 583,-99"/>
<text text-anchor="middle" x="669" y="-158.8" font-family="Times,serif" font-size="14.00" fill="#000000">BacterialTyper.config.set_config</text>
</g>
<g id="clust3" class="cluster">
<title>cluster_BacterialTyper__scripts__ariba_caller</title>
<path fill="#808080" fill-opacity="0.094118" stroke="#000000" d="M787,-99C787,-99 1214,-99 1214,-99 1220,-99 1226,-105 1226,-111 1226,-111 1226,-162 1226,-162 1226,-168 1220,-174 1214,-174 1214,-174 787,-174 787,-174 781,-174 775,-168 775,-162 775,-162 775,-111 775,-111 775,-105 781,-99 787,-99"/>
<text text-anchor="middle" x="1000.5" y="-158.8" font-family="Times,serif" font-size="14.00" fill="#000000">BacterialTyper.scripts.ariba_caller</text>
</g>
<g id="clust4" class="cluster">
<title>cluster_BacterialTyper__scripts__database_generator</title>
<path fill="#808080" fill-opacity="0.094118" stroke="#000000" d="M28,-99C28,-99 551,-99 551,-99 557,-99 563,-105 563,-111 563,-111 563,-309 563,-309 563,-315 557,-321 551,-321 551,-321 28,-321 28,-321 22,-321 16,-315 16,-309 16,-309 16,-111 16,-111 16,-105 22,-99 28,-99"/>
<text text-anchor="middle" x="289.5" y="-305.8" font-family="Times,serif" font-size="14.00" fill="#000000">BacterialTyper.scripts.database_generator</text>
</g>
<g id="clust5" class="cluster">
<title>cluster_BacterialTyper__scripts__functions</title>
<path fill="#808080" fill-opacity="0.094118" stroke="#000000" d="M610,-16C610,-16 1899,-16 1899,-16 1905,-16 1911,-22 1911,-28 1911,-28 1911,-79 1911,-79 1911,-85 1905,-91 1899,-91 1899,-91 610,-91 610,-91 604,-91 598,-85 598,-79 598,-79 598,-28 598,-28 598,-22 604,-16 610,-16"/>
<text text-anchor="middle" x="1254.5" y="-75.8" font-family="Times,serif" font-size="14.00" fill="#000000">BacterialTyper.scripts.functions</text>
</g>
<g id="clust6" class="cluster">
<title>cluster_BacterialTyper__scripts__min_hash_caller</title>
<path fill="#808080" fill-opacity="0.094118" stroke="#000000" d="M1318,-99C1318,-99 1524,-99 1524,-99 1530,-99 1536,-105 1536,-111 1536,-111 1536,-162 1536,-162 1536,-168 1530,-174 1524,-174 1524,-174 1318,-174 1318,-174 1312,-174 1306,-168 1306,-162 1306,-162 1306,-111 1306,-111 1306,-105 1312,-99 1318,-99"/>
<text text-anchor="middle" x="1421" y="-158.8" font-family="Times,serif" font-size="14.00" fill="#000000">BacterialTyper.scripts.min_hash_caller</text>
</g>
<g id="clust7" class="cluster">
<title>cluster_BacterialTyper__scripts__species_identification_KMA</title>
<path fill="#808080" fill-opacity="0.094118" stroke="#000000" d="M1556,-99C1556,-99 1829,-99 1829,-99 1835,-99 1841,-105 1841,-111 1841,-111 1841,-162 1841,-162 1841,-168 1835,-174 1829,-174 1829,-174 1556,-174 1556,-174 1550,-174 1544,-168 1544,-162 1544,-162 1544,-111 1544,-111 1544,-105 1550,-99 1556,-99"/>
<text text-anchor="middle" x="1692.5" y="-158.8" font-family="Times,serif" font-size="14.00" fill="#000000">BacterialTyper.scripts.species_identification_KMA</text>
</g>
<!-- BacterialTyper__config__set_config__get_exe -->
<g id="node1" class="node">
<title>BacterialTyper__config__set_config__get_exe</title>
<ellipse fill="#ff8e65" fill-opacity="0.698039" stroke="#000000" cx="617" cy="-125" rx="38.1938" ry="18"/>
<text text-anchor="middle" x="617" y="-121.3" font-family="Times,serif" font-size="14.00" fill="#000000">get_exe</text>
</g>
<!-- BacterialTyper__scripts__ariba_caller__ariba_getref -->
<g id="node2" class="node">
<title>BacterialTyper__scripts__ariba_caller__ariba_getref</title>
<ellipse fill="#65cbff" fill-opacity="0.698039" stroke="#000000" cx="1165" cy="-125" rx="53.0913" ry="18"/>
<text text-anchor="middle" x="1165" y="-121.3" font-family="Times,serif" font-size="14.00" fill="#000000">ariba_getref</text>
</g>
<!-- BacterialTyper__scripts__functions__print_time_stamp -->
<g id="node16" class="node">
<title>BacterialTyper__scripts__functions__print_time_stamp</title>
<ellipse fill="#a365ff" fill-opacity="0.698039" stroke="#000000" cx="929" cy="-42" rx="73.387" ry="18"/>
<text text-anchor="middle" x="929" y="-38.3" font-family="Times,serif" font-size="14.00" fill="#000000">print_time_stamp</text>
</g>
<!-- BacterialTyper__scripts__ariba_caller__ariba_getref&#45;&gt;BacterialTyper__scripts__functions__print_time_stamp -->
<g id="edge3" class="edge">
<title>BacterialTyper__scripts__ariba_caller__ariba_getref&#45;&gt;BacterialTyper__scripts__functions__print_time_stamp</title>
<path fill="none" stroke="#000000" d="M1143.5975,-108.224C1143.5975,-91.0944 1143.5975,-67 1143.5975,-67 1143.5975,-67 971.3751,-67 971.3751,-67 971.3751,-67 971.3751,-65.9832 971.3751,-65.9832"/>
<polygon fill="#000000" stroke="#000000" points="974.8753,-66.8315 971.3751,-56.8315 967.8753,-66.8316 974.8753,-66.8315"/>
</g>
<!-- BacterialTyper__scripts__functions__read_time_stamp -->
<g id="node18" class="node">
<title>BacterialTyper__scripts__functions__read_time_stamp</title>
<ellipse fill="#a365ff" fill-opacity="0.698039" stroke="#000000" cx="678" cy="-42" rx="72.2875" ry="18"/>
<text text-anchor="middle" x="678" y="-38.3" font-family="Times,serif" font-size="14.00" fill="#000000">read_time_stamp</text>
</g>
<!-- BacterialTyper__scripts__ariba_caller__ariba_getref&#45;&gt;BacterialTyper__scripts__functions__read_time_stamp -->
<g id="edge2" class="edge">
<title>BacterialTyper__scripts__ariba_caller__ariba_getref&#45;&gt;BacterialTyper__scripts__functions__read_time_stamp</title>
<path fill="none" stroke="#000000" d="M1127.6511,-112.1305C1127.6511,-97.0222 1127.6511,-74 1127.6511,-74 1127.6511,-74 718.5446,-74 718.5446,-74 718.5446,-74 718.5446,-67.2502 718.5446,-67.2502"/>
<polygon fill="#000000" stroke="#000000" points="722.0447,-67.2502 718.5446,-57.2502 715.0447,-67.2503 722.0447,-67.2502"/>
</g>
<!-- BacterialTyper__scripts__ariba_caller__check_db_indexed -->
<g id="node3" class="node">
<title>BacterialTyper__scripts__ariba_caller__check_db_indexed</title>
<ellipse fill="#65cbff" fill-opacity="0.698039" stroke="#000000" cx="1017" cy="-125" rx="76.8869" ry="18"/>
<text text-anchor="middle" x="1017" y="-121.3" font-family="Times,serif" font-size="14.00" fill="#000000">check_db_indexed</text>
</g>
<!-- BacterialTyper__scripts__ariba_caller__check_db_indexed&#45;&gt;BacterialTyper__scripts__functions__read_time_stamp -->
<g id="edge1" class="edge">
<title>BacterialTyper__scripts__ariba_caller__check_db_indexed&#45;&gt;BacterialTyper__scripts__functions__read_time_stamp</title>
<path fill="none" stroke="#000000" d="M955.841,-114.0991C955.841,-100.2148 955.841,-78 955.841,-78 955.841,-78 686.9456,-78 686.9456,-78 686.9456,-78 686.9456,-70 686.9456,-70"/>
<polygon fill="#000000" stroke="#000000" points="690.4457,-70 686.9456,-60 683.4457,-70 690.4457,-70"/>
</g>
<!-- BacterialTyper__scripts__ariba_caller__get_ARIBA_dbs -->
<g id="node4" class="node">
<title>BacterialTyper__scripts__ariba_caller__get_ARIBA_dbs</title>
<ellipse fill="#65cbff" fill-opacity="0.698039" stroke="#000000" cx="853" cy="-125" rx="69.5877" ry="18"/>
<text text-anchor="middle" x="853" y="-121.3" font-family="Times,serif" font-size="14.00" fill="#000000">get_ARIBA_dbs</text>
</g>
<!-- BacterialTyper__scripts__database_generator__NCBI_DB -->
<g id="node5" class="node">
<title>BacterialTyper__scripts__database_generator__NCBI_DB</title>
<ellipse fill="#657aff" fill-opacity="0.698039" stroke="#000000" cx="338" cy="-272" rx="48.1917" ry="18"/>
<text text-anchor="middle" x="338" y="-268.3" font-family="Times,serif" font-size="14.00" fill="#000000">NCBI_DB</text>
</g>
<!-- BacterialTyper__scripts__database_generator__NCBIdownload -->
<g id="node6" class="node">
<title>BacterialTyper__scripts__database_generator__NCBIdownload</title>
<ellipse fill="#657aff" fill-opacity="0.698039" stroke="#000000" cx="90" cy="-200" rx="66.0889" ry="18"/>
<text text-anchor="middle" x="90" y="-196.3" font-family="Times,serif" font-size="14.00" fill="#000000">NCBIdownload</text>
</g>
<!-- BacterialTyper__scripts__database_generator__NCBI_DB&#45;&gt;BacterialTyper__scripts__database_generator__NCBIdownload -->
<g id="edge7" class="edge">
<title>BacterialTyper__scripts__database_generator__NCBI_DB&#45;&gt;BacterialTyper__scripts__database_generator__NCBIdownload</title>
<path fill="none" stroke="#000000" d="M289.889,-272C217.7693,-272 90,-272 90,-272 90,-272 90,-228.1686 90,-228.1686"/>
<polygon fill="#000000" stroke="#000000" points="93.5001,-228.1686 90,-218.1686 86.5001,-228.1687 93.5001,-228.1686"/>
</g>
<!-- BacterialTyper__scripts__database_generator__get_database -->
<g id="node7" class="node">
<title>BacterialTyper__scripts__database_generator__get_database</title>
<ellipse fill="#657aff" fill-opacity="0.698039" stroke="#000000" cx="230" cy="-200" rx="55.7903" ry="18"/>
<text text-anchor="middle" x="230" y="-196.3" font-family="Times,serif" font-size="14.00" fill="#000000">get_database</text>
</g>
<!-- BacterialTyper__scripts__database_generator__NCBI_DB&#45;&gt;BacterialTyper__scripts__database_generator__get_database -->
<g id="edge4" class="edge">
<title>BacterialTyper__scripts__database_generator__NCBI_DB&#45;&gt;BacterialTyper__scripts__database_generator__get_database</title>
<path fill="none" stroke="#000000" d="M297.0536,-262.2898C297.0536,-242.6368 297.0536,-200 297.0536,-200 297.0536,-200 295.9464,-200 295.9464,-200"/>
<polygon fill="#000000" stroke="#000000" points="295.9811,-196.5001 285.9811,-200 295.9811,-203.5001 295.9811,-196.5001"/>
</g>
<!-- BacterialTyper__scripts__database_generator__getdbs -->
<g id="node9" class="node">
<title>BacterialTyper__scripts__database_generator__getdbs</title>
<ellipse fill="#657aff" fill-opacity="0.698039" stroke="#000000" cx="338" cy="-200" rx="33.5952" ry="18"/>
<text text-anchor="middle" x="338" y="-196.3" font-family="Times,serif" font-size="14.00" fill="#000000">getdbs</text>
</g>
<!-- BacterialTyper__scripts__database_generator__NCBI_DB&#45;&gt;BacterialTyper__scripts__database_generator__getdbs -->
<g id="edge10" class="edge">
<title>BacterialTyper__scripts__database_generator__NCBI_DB&#45;&gt;BacterialTyper__scripts__database_generator__getdbs</title>
<path fill="none" stroke="#000000" d="M338,-253.8314C338,-253.8314 338,-228.4133 338,-228.4133"/>
<polygon fill="#000000" stroke="#000000" points="341.5001,-228.4132 338,-218.4133 334.5001,-228.4133 341.5001,-228.4132"/>
</g>
<!-- BacterialTyper__scripts__database_generator__update_db_data_file -->
<g id="node10" class="node">
<title>BacterialTyper__scripts__database_generator__update_db_data_file</title>
<ellipse fill="#657aff" fill-opacity="0.698039" stroke="#000000" cx="472" cy="-200" rx="82.5854" ry="18"/>
<text text-anchor="middle" x="472" y="-196.3" font-family="Times,serif" font-size="14.00" fill="#000000">update_db_data_file</text>
</g>
<!-- BacterialTyper__scripts__database_generator__NCBI_DB&#45;&gt;BacterialTyper__scripts__database_generator__update_db_data_file -->
<g id="edge5" class="edge">
<title>BacterialTyper__scripts__database_generator__NCBI_DB&#45;&gt;BacterialTyper__scripts__database_generator__update_db_data_file</title>
<path fill="none" stroke="#000000" d="M378.9464,-262.2898C378.9464,-242.6368 378.9464,-200 378.9464,-200 378.9464,-200 379.9778,-200 379.9778,-200"/>
<polygon fill="#000000" stroke="#000000" points="379.2603,-203.5001 389.2603,-200 379.2602,-196.5001 379.2603,-203.5001"/>
</g>
<!-- BacterialTyper__scripts__functions__create_folder -->
<g id="node11" class="node">
<title>BacterialTyper__scripts__functions__create_folder</title>
<ellipse fill="#a365ff" fill-opacity="0.698039" stroke="#000000" cx="1846" cy="-42" rx="57.3905" ry="18"/>
<text text-anchor="middle" x="1846" y="-38.3" font-family="Times,serif" font-size="14.00" fill="#000000">create_folder</text>
</g>
<!-- BacterialTyper__scripts__database_generator__NCBI_DB&#45;&gt;BacterialTyper__scripts__functions__create_folder -->
<g id="edge6" class="edge">
<title>BacterialTyper__scripts__database_generator__NCBI_DB&#45;&gt;BacterialTyper__scripts__functions__create_folder</title>
<path fill="none" stroke="#000000" d="M380.0359,-281C625.7253,-281 1865.065,-281 1865.065,-281 1865.065,-281 1865.065,-69.1883 1865.065,-69.1883"/>
<polygon fill="#000000" stroke="#000000" points="1868.5651,-69.1883 1865.065,-59.1883 1861.5651,-69.1883 1868.5651,-69.1883"/>
</g>
<!-- BacterialTyper__scripts__functions__get_data -->
<g id="node14" class="node">
<title>BacterialTyper__scripts__functions__get_data</title>
<ellipse fill="#a365ff" fill-opacity="0.698039" stroke="#000000" cx="1731" cy="-42" rx="40.0939" ry="18"/>
<text text-anchor="middle" x="1731" y="-38.3" font-family="Times,serif" font-size="14.00" fill="#000000">get_data</text>
</g>
<!-- BacterialTyper__scripts__database_generator__NCBI_DB&#45;&gt;BacterialTyper__scripts__functions__get_data -->
<g id="edge9" class="edge">
<title>BacterialTyper__scripts__database_generator__NCBI_DB&#45;&gt;BacterialTyper__scripts__functions__get_data</title>
<path fill="none" stroke="#000000" d="M386.293,-272C635.5441,-272 1764.8947,-272 1764.8947,-272 1764.8947,-272 1764.8947,-61.8828 1764.8947,-61.8828"/>
<polygon fill="#000000" stroke="#000000" points="1768.3948,-61.8828 1764.8947,-51.8828 1761.3948,-61.8828 1768.3948,-61.8828"/>
</g>
<!-- BacterialTyper__scripts__functions__print_sepLine -->
<g id="node15" class="node">
<title>BacterialTyper__scripts__functions__print_sepLine</title>
<ellipse fill="#a365ff" fill-opacity="0.698039" stroke="#000000" cx="1237" cy="-42" rx="59.5901" ry="18"/>
<text text-anchor="middle" x="1237" y="-38.3" font-family="Times,serif" font-size="14.00" fill="#000000">print_sepLine</text>
</g>
<!-- BacterialTyper__scripts__database_generator__NCBI_DB&#45;&gt;BacterialTyper__scripts__functions__print_sepLine -->
<g id="edge8" class="edge">
<title>BacterialTyper__scripts__database_generator__NCBI_DB&#45;&gt;BacterialTyper__scripts__functions__print_sepLine</title>
<path fill="none" stroke="#000000" d="M379.9004,-263C559.7903,-263 1257.545,-263 1257.545,-263 1257.545,-263 1257.545,-68.9745 1257.545,-68.9745"/>
<polygon fill="#000000" stroke="#000000" points="1261.0451,-68.9745 1257.545,-58.9745 1254.0451,-68.9746 1261.0451,-68.9745"/>
</g>
<!-- BacterialTyper__scripts__database_generator__get_files_download -->
<g id="node8" class="node">
<title>BacterialTyper__scripts__database_generator__get_files_download</title>
<ellipse fill="#657aff" fill-opacity="0.698039" stroke="#000000" cx="104" cy="-125" rx="79.8859" ry="18"/>
<text text-anchor="middle" x="104" y="-121.3" font-family="Times,serif" font-size="14.00" fill="#000000">get_files_download</text>
</g>
<!-- BacterialTyper__scripts__database_generator__NCBIdownload&#45;&gt;BacterialTyper__scripts__database_generator__get_files_download -->
<g id="edge13" class="edge">
<title>BacterialTyper__scripts__database_generator__NCBIdownload&#45;&gt;BacterialTyper__scripts__database_generator__get_files_download</title>
<path fill="none" stroke="#000000" d="M57.1163,-184.0944C57.1163,-184.0944 57.1163,-149.8624 57.1163,-149.8624"/>
<polygon fill="#000000" stroke="#000000" points="60.6164,-149.8624 57.1163,-139.8624 53.6164,-149.8624 60.6164,-149.8624"/>
</g>
<!-- BacterialTyper__scripts__functions__extract -->
<g id="node13" class="node">
<title>BacterialTyper__scripts__functions__extract</title>
<ellipse fill="#a365ff" fill-opacity="0.698039" stroke="#000000" cx="803" cy="-42" rx="34.394" ry="18"/>
<text text-anchor="middle" x="803" y="-38.3" font-family="Times,serif" font-size="14.00" fill="#000000">extract</text>
</g>
<!-- BacterialTyper__scripts__database_generator__NCBIdownload&#45;&gt;BacterialTyper__scripts__functions__extract -->
<g id="edge11" class="edge">
<title>BacterialTyper__scripts__database_generator__NCBIdownload&#45;&gt;BacterialTyper__scripts__functions__extract</title>
<path fill="none" stroke="#000000" d="M90.1756,-181.7604C90.1756,-166.4294 90.1756,-147 90.1756,-147 90.1756,-147 776.0046,-147 776.0046,-147 776.0046,-147 776.0046,-63.2368 776.0046,-63.2368"/>
<polygon fill="#000000" stroke="#000000" points="779.5047,-63.2368 776.0046,-53.2368 772.5047,-63.2369 779.5047,-63.2368"/>
</g>
<!-- BacterialTyper__scripts__database_generator__NCBIdownload&#45;&gt;BacterialTyper__scripts__functions__print_time_stamp -->
<g id="edge12" class="edge">
<title>BacterialTyper__scripts__database_generator__NCBIdownload&#45;&gt;BacterialTyper__scripts__functions__print_time_stamp</title>
<path fill="none" stroke="#000000" d="M123.2349,-183.9884C123.2349,-171.7629 123.2349,-157 123.2349,-157 123.2349,-157 931.4253,-157 931.4253,-157 931.4253,-157 931.4253,-70.2221 931.4253,-70.2221"/>
<polygon fill="#000000" stroke="#000000" points="934.9254,-70.2221 931.4253,-60.2221 927.9254,-70.2221 934.9254,-70.2221"/>
</g>
<!-- BacterialTyper__scripts__database_generator__get_database&#45;&gt;BacterialTyper__scripts__functions__get_data -->
<g id="edge16" class="edge">
<title>BacterialTyper__scripts__database_generator__get_database&#45;&gt;BacterialTyper__scripts__functions__get_data</title>
<path fill="none" stroke="#000000" d="M260.407,-184.6603C260.407,-156.4058 260.407,-99 260.407,-99 260.407,-99 1721.3973,-99 1721.3973,-99 1721.3973,-99 1721.3973,-69.7227 1721.3973,-69.7227"/>
<polygon fill="#000000" stroke="#000000" points="1724.8974,-69.7227 1721.3973,-59.7227 1717.8974,-69.7227 1724.8974,-69.7227"/>
</g>
<!-- BacterialTyper__scripts__database_generator__get_database&#45;&gt;BacterialTyper__scripts__functions__print_sepLine -->
<g id="edge15" class="edge">
<title>BacterialTyper__scripts__database_generator__get_database&#45;&gt;BacterialTyper__scripts__functions__print_sepLine</title>
<path fill="none" stroke="#000000" d="M234.919,-182.0313C234.919,-149.6875 234.919,-85 234.919,-85 234.919,-85 1190.902,-85 1190.902,-85 1190.902,-85 1190.902,-63.7499 1190.902,-63.7499"/>
<polygon fill="#000000" stroke="#000000" points="1194.4021,-63.7499 1190.902,-53.7499 1187.4021,-63.75 1194.4021,-63.7499"/>
</g>
<!-- BacterialTyper__scripts__database_generator__get_database&#45;&gt;BacterialTyper__scripts__functions__read_time_stamp -->
<g id="edge14" class="edge">
<title>BacterialTyper__scripts__database_generator__get_database&#45;&gt;BacterialTyper__scripts__functions__read_time_stamp</title>
<path fill="none" stroke="#000000" d="M209.4309,-183.0912C209.4309,-142.3315 209.4309,-42 209.4309,-42 209.4309,-42 595.813,-42 595.813,-42"/>
<polygon fill="#000000" stroke="#000000" points="595.813,-45.5001 605.813,-42 595.8129,-38.5001 595.813,-45.5001"/>
</g>
<!-- BacterialTyper__scripts__database_generator__getdbs&#45;&gt;BacterialTyper__config__set_config__get_exe -->
<g id="edge19" class="edge">
<title>BacterialTyper__scripts__database_generator__getdbs&#45;&gt;BacterialTyper__config__set_config__get_exe</title>
<path fill="none" stroke="#000000" d="M365.6521,-189.5716C365.6521,-168.9636 365.6521,-125 365.6521,-125 365.6521,-125 568.5521,-125 568.5521,-125"/>
<polygon fill="#000000" stroke="#000000" points="568.5521,-128.5001 578.5521,-125 568.552,-121.5001 568.5521,-128.5001"/>
</g>
<!-- BacterialTyper__scripts__database_generator__getdbs&#45;&gt;BacterialTyper__scripts__ariba_caller__ariba_getref -->
<g id="edge27" class="edge">
<title>BacterialTyper__scripts__database_generator__getdbs&#45;&gt;BacterialTyper__scripts__ariba_caller__ariba_getref</title>
<path fill="none" stroke="#000000" d="M322.6377,-183.8867C322.6377,-175.5098 322.6377,-167 322.6377,-167 322.6377,-167 1165,-167 1165,-167 1165,-167 1165,-153.0555 1165,-153.0555"/>
<polygon fill="#000000" stroke="#000000" points="1168.5001,-153.0555 1165,-143.0555 1161.5001,-153.0556 1168.5001,-153.0555"/>
</g>
<!-- BacterialTyper__scripts__database_generator__getdbs&#45;&gt;BacterialTyper__scripts__ariba_caller__check_db_indexed -->
<g id="edge20" class="edge">
<title>BacterialTyper__scripts__database_generator__getdbs&#45;&gt;BacterialTyper__scripts__ariba_caller__check_db_indexed</title>
<path fill="none" stroke="#000000" d="M316.4928,-185.8502C316.4928,-175.0463 316.4928,-162 316.4928,-162 316.4928,-162 1017,-162 1017,-162 1017,-162 1017,-153.0664 1017,-153.0664"/>
<polygon fill="#000000" stroke="#000000" points="1020.5001,-153.0664 1017,-143.0664 1013.5001,-153.0665 1020.5001,-153.0664"/>
</g>
<!-- BacterialTyper__scripts__database_generator__getdbs&#45;&gt;BacterialTyper__scripts__ariba_caller__get_ARIBA_dbs -->
<g id="edge24" class="edge">
<title>BacterialTyper__scripts__database_generator__getdbs&#45;&gt;BacterialTyper__scripts__ariba_caller__get_ARIBA_dbs</title>
<path fill="none" stroke="#000000" d="M310.3479,-189.3472C310.3479,-175.2061 310.3479,-152 310.3479,-152 310.3479,-152 853,-152 853,-152 853,-152 853,-151.1159 853,-151.1159"/>
<polygon fill="#000000" stroke="#000000" points="856.5001,-153.1591 853,-143.1592 849.5001,-153.1592 856.5001,-153.1591"/>
</g>
<!-- BacterialTyper__scripts__functions__create_subfolder -->
<g id="node12" class="node">
<title>BacterialTyper__scripts__functions__create_subfolder</title>
<ellipse fill="#a365ff" fill-opacity="0.698039" stroke="#000000" cx="1090" cy="-42" rx="69.5877" ry="18"/>
<text text-anchor="middle" x="1090" y="-38.3" font-family="Times,serif" font-size="14.00" fill="#000000">create_subfolder</text>
</g>
<!-- BacterialTyper__scripts__database_generator__getdbs&#45;&gt;BacterialTyper__scripts__functions__create_subfolder -->
<g id="edge21" class="edge">
<title>BacterialTyper__scripts__database_generator__getdbs&#45;&gt;BacterialTyper__scripts__functions__create_subfolder</title>
<path fill="none" stroke="#000000" d="M328.7826,-182.4411C328.7826,-149.3393 328.7826,-81 328.7826,-81 328.7826,-81 1057.0747,-81 1057.0747,-81 1057.0747,-81 1057.0747,-67.8628 1057.0747,-67.8628"/>
<polygon fill="#000000" stroke="#000000" points="1060.5748,-67.8628 1057.0747,-57.8628 1053.5748,-67.8628 1060.5748,-67.8628"/>
</g>
<!-- BacterialTyper__scripts__database_generator__getdbs&#45;&gt;BacterialTyper__scripts__functions__print_sepLine -->
<g id="edge25" class="edge">
<title>BacterialTyper__scripts__database_generator__getdbs&#45;&gt;BacterialTyper__scripts__functions__print_sepLine</title>
<path fill="none" stroke="#000000" d="M334.9275,-182.0053C334.9275,-150.3455 334.9275,-88 334.9275,-88 334.9275,-88 1204.5986,-88 1204.5986,-88 1204.5986,-88 1204.5986,-67.3173 1204.5986,-67.3173"/>
<polygon fill="#000000" stroke="#000000" points="1208.0987,-67.3173 1204.5986,-57.3173 1201.0987,-67.3174 1208.0987,-67.3173"/>
</g>
<!-- BacterialTyper__scripts__functions__readList_fromFile -->
<g id="node17" class="node">
<title>BacterialTyper__scripts__functions__readList_fromFile</title>
<ellipse fill="#a365ff" fill-opacity="0.698039" stroke="#000000" cx="1390" cy="-42" rx="75.2868" ry="18"/>
<text text-anchor="middle" x="1390" y="-38.3" font-family="Times,serif" font-size="14.00" fill="#000000">readList_fromFile</text>
</g>
<!-- BacterialTyper__scripts__database_generator__getdbs&#45;&gt;BacterialTyper__scripts__functions__readList_fromFile -->
<g id="edge23" class="edge">
<title>BacterialTyper__scripts__database_generator__getdbs&#45;&gt;BacterialTyper__scripts__functions__readList_fromFile</title>
<path fill="none" stroke="#000000" d="M341.0725,-181.6793C341.0725,-150.8664 341.0725,-92 341.0725,-92 341.0725,-92 1334.5063,-92 1334.5063,-92 1334.5063,-92 1334.5063,-64.3596 1334.5063,-64.3596"/>
<polygon fill="#000000" stroke="#000000" points="1338.0064,-64.3595 1334.5063,-54.3596 1331.0064,-64.3596 1338.0064,-64.3595"/>
</g>
<!-- BacterialTyper__scripts__functions__retrieve_matching_files -->
<g id="node19" class="node">
<title>BacterialTyper__scripts__functions__retrieve_matching_files</title>
<ellipse fill="#a365ff" fill-opacity="0.698039" stroke="#000000" cx="1578" cy="-42" rx="94.7833" ry="18"/>
<text text-anchor="middle" x="1578" y="-38.3" font-family="Times,serif" font-size="14.00" fill="#000000">retrieve_matching_files</text>
</g>
<!-- BacterialTyper__scripts__database_generator__getdbs&#45;&gt;BacterialTyper__scripts__functions__retrieve_matching_files -->
<g id="edge22" class="edge">
<title>BacterialTyper__scripts__database_generator__getdbs&#45;&gt;BacterialTyper__scripts__functions__retrieve_matching_files</title>
<path fill="none" stroke="#000000" d="M347.2174,-182.3578C347.2174,-152.6862 347.2174,-96 347.2174,-96 347.2174,-96 1520.7514,-96 1520.7514,-96 1520.7514,-96 1520.7514,-66.471 1520.7514,-66.471"/>
<polygon fill="#000000" stroke="#000000" points="1524.2515,-66.471 1520.7514,-56.471 1517.2515,-66.471 1524.2515,-66.471"/>
</g>
<!-- BacterialTyper__scripts__min_hash_caller__sketch_database -->
<g id="node20" class="node">
<title>BacterialTyper__scripts__min_hash_caller__sketch_database</title>
<ellipse fill="#e065ff" fill-opacity="0.698039" stroke="#000000" cx="1422" cy="-125" rx="67.6881" ry="18"/>
<text text-anchor="middle" x="1422" y="-121.3" font-family="Times,serif" font-size="14.00" fill="#000000">sketch_database</text>
</g>
<!-- BacterialTyper__scripts__database_generator__getdbs&#45;&gt;BacterialTyper__scripts__min_hash_caller__sketch_database -->
<g id="edge18" class="edge">
<title>BacterialTyper__scripts__database_generator__getdbs&#45;&gt;BacterialTyper__scripts__min_hash_caller__sketch_database</title>
<path fill="none" stroke="#000000" d="M353.3623,-183.7123C353.3623,-177.5525 353.3623,-172 353.3623,-172 353.3623,-172 1422,-172 1422,-172 1422,-172 1422,-153.037 1422,-153.037"/>
<polygon fill="#000000" stroke="#000000" points="1425.5001,-153.037 1422,-143.037 1418.5001,-153.037 1425.5001,-153.037"/>
</g>
<!-- BacterialTyper__scripts__species_identification_KMA__download_kma_database -->
<g id="node21" class="node">
<title>BacterialTyper__scripts__species_identification_KMA__download_kma_database</title>
<ellipse fill="#ff65cb" fill-opacity="0.698039" stroke="#000000" cx="1652" cy="-125" rx="100.1823" ry="18"/>
<text text-anchor="middle" x="1652" y="-121.3" font-family="Times,serif" font-size="14.00" fill="#000000">download_kma_database</text>
</g>
<!-- BacterialTyper__scripts__database_generator__getdbs&#45;&gt;BacterialTyper__scripts__species_identification_KMA__download_kma_database -->
<g id="edge26" class="edge">
<title>BacterialTyper__scripts__database_generator__getdbs&#45;&gt;BacterialTyper__scripts__species_identification_KMA__download_kma_database</title>
<path fill="none" stroke="#000000" d="M359.5072,-186.0902C359.5072,-181.2465 359.5072,-177 359.5072,-177 359.5072,-177 1652,-177 1652,-177 1652,-177 1652,-153.1871 1652,-153.1871"/>
<polygon fill="#000000" stroke="#000000" points="1655.5001,-153.187 1652,-143.1871 1648.5001,-153.1871 1655.5001,-153.187"/>
</g>
<!-- BacterialTyper__scripts__database_generator__update_db_data_file&#45;&gt;BacterialTyper__scripts__functions__get_data -->
<g id="edge17" class="edge">
<title>BacterialTyper__scripts__database_generator__update_db_data_file&#45;&gt;BacterialTyper__scripts__functions__get_data</title>
<path fill="none" stroke="#000000" d="M554.9254,-200C839.4376,-200 1758.4929,-200 1758.4929,-200 1758.4929,-200 1758.4929,-65.1992 1758.4929,-65.1992"/>
<polygon fill="#000000" stroke="#000000" points="1761.993,-65.1992 1758.4929,-55.1992 1754.993,-65.1993 1761.993,-65.1992"/>
</g>
<!-- BacterialTyper__scripts__min_hash_caller__sketch_database&#45;&gt;BacterialTyper__scripts__functions__create_folder -->
<g id="edge28" class="edge">
<title>BacterialTyper__scripts__min_hash_caller__sketch_database&#45;&gt;BacterialTyper__scripts__functions__create_folder</title>
<path fill="none" stroke="#000000" d="M1474.2509,-113.4845C1474.2509,-108.1616 1474.2509,-103 1474.2509,-103 1474.2509,-103 1826.935,-103 1826.935,-103 1826.935,-103 1826.935,-68.9919 1826.935,-68.9919"/>
<polygon fill="#000000" stroke="#000000" points="1830.4351,-68.9919 1826.935,-58.9919 1823.4351,-68.9919 1830.4351,-68.9919"/>
</g>
<!-- BacterialTyper__scripts__species_identification_KMA__download_kma_database&#45;&gt;BacterialTyper__scripts__functions__extract -->
<g id="edge29" class="edge">
<title>BacterialTyper__scripts__species_identification_KMA__download_kma_database&#45;&gt;BacterialTyper__scripts__functions__extract</title>
<path fill="none" stroke="#000000" d="M1592.2364,-110.5494C1592.2364,-94.2538 1592.2364,-70 1592.2364,-70 1592.2364,-70 810.4516,-70 810.4516,-70 810.4516,-70 810.4516,-68.9574 810.4516,-68.9574"/>
<polygon fill="#000000" stroke="#000000" points="813.9517,-69.5738 810.4516,-59.5738 806.9517,-69.5739 813.9517,-69.5738"/>
</g>
<!-- BacterialTyper__scripts__species_identification_KMA__download_kma_database&#45;&gt;BacterialTyper__scripts__functions__print_time_stamp -->
<g id="edge30" class="edge">
<title>BacterialTyper__scripts__species_identification_KMA__download_kma_database&#45;&gt;BacterialTyper__scripts__functions__print_time_stamp</title>
<path fill="none" stroke="#000000" d="M1632.564,-107.067C1632.564,-88.7561 1632.564,-63 1632.564,-63 1632.564,-63 986.9093,-63 986.9093,-63 986.9093,-63 986.9093,-62.0483 986.9093,-62.0483"/>
<polygon fill="#000000" stroke="#000000" points="990.4094,-63.4831 986.9093,-53.4831 983.4094,-63.4831 990.4094,-63.4831"/>
</g>
</g>
</svg>
