<?xml version="1.0" encoding="UTF-8" standalone="no"?>
<!DOCTYPE svg PUBLIC "-//W3C//DTD SVG 1.1//EN"
 "http://www.w3.org/Graphics/SVG/1.1/DTD/svg11.dtd">
<!-- Generated by graphviz version 2.40.1 (20161225.0304)
 -->
<!-- Title: G Pages: 1 -->
<svg width="762pt" height="353pt"
 viewBox="0.00 0.00 762.00 353.00" xmlns="http://www.w3.org/2000/svg" xmlns:xlink="http://www.w3.org/1999/xlink">
<g id="graph0" class="graph" transform="scale(1 1) rotate(0) translate(4 349)">
<title>G</title>
<polygon fill="#ffffff" stroke="transparent" points="-4,4 -4,-349 758,-349 758,4 -4,4"/>
<g id="clust1" class="cluster">
<title>cluster_G</title>
<path fill="#808080" fill-opacity="0.094118" stroke="#000000" d="M20,-8C20,-8 734,-8 734,-8 740,-8 746,-14 746,-20 746,-20 746,-325 746,-325 746,-331 740,-337 734,-337 734,-337 20,-337 20,-337 14,-337 8,-331 8,-325 8,-325 8,-20 8,-20 8,-14 14,-8 20,-8"/>
</g>
<g id="clust2" class="cluster">
<title>cluster_BacterialTyper__scripts__database_generator</title>
<path fill="#808080" fill-opacity="0.094118" stroke="#000000" d="M281,-99C281,-99 654,-99 654,-99 660,-99 666,-105 666,-111 666,-111 666,-162 666,-162 666,-168 660,-174 654,-174 654,-174 281,-174 281,-174 275,-174 269,-168 269,-162 269,-162 269,-111 269,-111 269,-105 275,-99 281,-99"/>
<text text-anchor="middle" x="467.5" y="-158.8" font-family="Times,serif" font-size="14.00" fill="#000000">BacterialTyper.scripts.database_generator</text>
</g>
<g id="clust3" class="cluster">
<title>cluster_BacterialTyper__scripts__database_user</title>
<path fill="#808080" fill-opacity="0.094118" stroke="#000000" d="M53,-182C53,-182 512,-182 512,-182 518,-182 524,-188 524,-194 524,-194 524,-317 524,-317 524,-323 518,-329 512,-329 512,-329 53,-329 53,-329 47,-329 41,-323 41,-317 41,-317 41,-194 41,-194 41,-188 47,-182 53,-182"/>
<text text-anchor="middle" x="282.5" y="-313.8" font-family="Times,serif" font-size="14.00" fill="#000000">BacterialTyper.scripts.database_user</text>
</g>
<g id="clust4" class="cluster">
<title>cluster_BacterialTyper__scripts__functions</title>
<path fill="#808080" fill-opacity="0.094118" stroke="#000000" d="M34,-16C34,-16 726,-16 726,-16 732,-16 738,-22 738,-28 738,-28 738,-79 738,-79 738,-85 732,-91 726,-91 726,-91 34,-91 34,-91 28,-91 22,-85 22,-79 22,-79 22,-28 22,-28 22,-22 28,-16 34,-16"/>
<text text-anchor="middle" x="380" y="-75.8" font-family="Times,serif" font-size="14.00" fill="#000000">BacterialTyper.scripts.functions</text>
</g>
<g id="clust5" class="cluster">
<title>cluster_BacterialTyper__scripts__sampleParser</title>
<path fill="#808080" fill-opacity="0.094118" stroke="#000000" d="M28,-99C28,-99 217,-99 217,-99 223,-99 229,-105 229,-111 229,-111 229,-162 229,-162 229,-168 223,-174 217,-174 217,-174 28,-174 28,-174 22,-174 16,-168 16,-162 16,-162 16,-111 16,-111 16,-105 22,-99 28,-99"/>
<text text-anchor="middle" x="122.5" y="-158.8" font-family="Times,serif" font-size="14.00" fill="#000000">BacterialTyper.scripts.sampleParser</text>
</g>
<!-- BacterialTyper__scripts__database_generator__get_database -->
<g id="node1" class="node">
<title>BacterialTyper__scripts__database_generator__get_database</title>
<ellipse fill="#657aff" fill-opacity="0.698039" stroke="#000000" cx="419" cy="-125" rx="55.7903" ry="18"/>
<text text-anchor="middle" x="419" y="-121.3" font-family="Times,serif" font-size="14.00" fill="#000000">get_database</text>
</g>
<!-- BacterialTyper__scripts__functions__get_data -->
<g id="node9" class="node">
<title>BacterialTyper__scripts__functions__get_data</title>
<ellipse fill="#a365ff" fill-opacity="0.698039" stroke="#000000" cx="529" cy="-42" rx="40.0939" ry="18"/>
<text text-anchor="middle" x="529" y="-38.3" font-family="Times,serif" font-size="14.00" fill="#000000">get_data</text>
</g>
<!-- BacterialTyper__scripts__database_generator__get_database&#45;&gt;BacterialTyper__scripts__functions__get_data -->
<g id="edge2" class="edge">
<title>BacterialTyper__scripts__database_generator__get_database&#45;&gt;BacterialTyper__scripts__functions__get_data</title>
<path fill="none" stroke="#000000" d="M449.8157,-109.9792C459.8127,-104.5507 470.7127,-98.0156 480,-91 489.5546,-83.7825 499.0865,-74.7704 507.1692,-66.4501"/>
<polygon fill="#000000" stroke="#000000" points="509.8157,-68.7454 514.1436,-59.0749 504.7297,-63.9358 509.8157,-68.7454"/>
</g>
<!-- BacterialTyper__scripts__functions__print_sepLine -->
<g id="node11" class="node">
<title>BacterialTyper__scripts__functions__print_sepLine</title>
<ellipse fill="#a365ff" fill-opacity="0.698039" stroke="#000000" cx="411" cy="-42" rx="59.5901" ry="18"/>
<text text-anchor="middle" x="411" y="-38.3" font-family="Times,serif" font-size="14.00" fill="#000000">print_sepLine</text>
</g>
<!-- BacterialTyper__scripts__database_generator__get_database&#45;&gt;BacterialTyper__scripts__functions__print_sepLine -->
<g id="edge1" class="edge">
<title>BacterialTyper__scripts__database_generator__get_database&#45;&gt;BacterialTyper__scripts__functions__print_sepLine</title>
<path fill="none" stroke="#000000" d="M417.2641,-106.9902C416.2334,-96.2963 414.9036,-82.4994 413.7345,-70.3706"/>
<polygon fill="#000000" stroke="#000000" points="417.2035,-69.8793 412.7601,-60.2612 410.2358,-70.5509 417.2035,-69.8793"/>
</g>
<!-- BacterialTyper__scripts__database_generator__getdbs -->
<g id="node2" class="node">
<title>BacterialTyper__scripts__database_generator__getdbs</title>
<ellipse fill="#657aff" fill-opacity="0.698039" stroke="#000000" cx="311" cy="-125" rx="33.5952" ry="18"/>
<text text-anchor="middle" x="311" y="-121.3" font-family="Times,serif" font-size="14.00" fill="#000000">getdbs</text>
</g>
<!-- BacterialTyper__scripts__functions__create_subfolder -->
<g id="node8" class="node">
<title>BacterialTyper__scripts__functions__create_subfolder</title>
<ellipse fill="#a365ff" fill-opacity="0.698039" stroke="#000000" cx="264" cy="-42" rx="69.5877" ry="18"/>
<text text-anchor="middle" x="264" y="-38.3" font-family="Times,serif" font-size="14.00" fill="#000000">create_subfolder</text>
</g>
<!-- BacterialTyper__scripts__database_generator__getdbs&#45;&gt;BacterialTyper__scripts__functions__create_subfolder -->
<g id="edge4" class="edge">
<title>BacterialTyper__scripts__database_generator__getdbs&#45;&gt;BacterialTyper__scripts__functions__create_subfolder</title>
<path fill="none" stroke="#000000" d="M301.0325,-107.3978C294.6576,-96.1401 286.2674,-81.3232 279.0852,-68.6399"/>
<polygon fill="#000000" stroke="#000000" points="282.0883,-66.84 274.1152,-59.8629 275.9971,-70.2893 282.0883,-66.84"/>
</g>
<!-- BacterialTyper__scripts__database_generator__getdbs&#45;&gt;BacterialTyper__scripts__functions__print_sepLine -->
<g id="edge5" class="edge">
<title>BacterialTyper__scripts__database_generator__getdbs&#45;&gt;BacterialTyper__scripts__functions__print_sepLine</title>
<path fill="none" stroke="#000000" d="M329.3415,-109.7765C344.1691,-97.4697 365.3066,-79.9255 382.3609,-65.7704"/>
<polygon fill="#000000" stroke="#000000" points="384.9001,-68.2115 390.3595,-59.1316 380.4293,-62.8251 384.9001,-68.2115"/>
</g>
<!-- BacterialTyper__scripts__database_generator__update_db_data_file -->
<g id="node3" class="node">
<title>BacterialTyper__scripts__database_generator__update_db_data_file</title>
<ellipse fill="#657aff" fill-opacity="0.698039" stroke="#000000" cx="575" cy="-125" rx="82.5854" ry="18"/>
<text text-anchor="middle" x="575" y="-121.3" font-family="Times,serif" font-size="14.00" fill="#000000">update_db_data_file</text>
</g>
<!-- BacterialTyper__scripts__database_generator__update_db_data_file&#45;&gt;BacterialTyper__scripts__functions__get_data -->
<g id="edge3" class="edge">
<title>BacterialTyper__scripts__database_generator__update_db_data_file&#45;&gt;BacterialTyper__scripts__functions__get_data</title>
<path fill="none" stroke="#000000" d="M565.0187,-106.9902C558.8281,-95.8203 550.7613,-81.2649 543.8315,-68.7612"/>
<polygon fill="#000000" stroke="#000000" points="546.7126,-66.7394 538.8038,-59.6895 540.59,-70.1327 546.7126,-66.7394"/>
</g>
<!-- BacterialTyper__scripts__database_user__get_userData_files -->
<g id="node4" class="node">
<title>BacterialTyper__scripts__database_user__get_userData_files</title>
<ellipse fill="#6565ff" fill-opacity="0.698039" stroke="#000000" cx="294" cy="-208" rx="76.8869" ry="18"/>
<text text-anchor="middle" x="294" y="-204.3" font-family="Times,serif" font-size="14.00" fill="#000000">get_userData_files</text>
</g>
<!-- BacterialTyper__scripts__sampleParser__get_files -->
<g id="node13" class="node">
<title>BacterialTyper__scripts__sampleParser__get_files</title>
<ellipse fill="#ff65f4" fill-opacity="0.698039" stroke="#000000" cx="178" cy="-125" rx="40.8928" ry="18"/>
<text text-anchor="middle" x="178" y="-121.3" font-family="Times,serif" font-size="14.00" fill="#000000">get_files</text>
</g>
<!-- BacterialTyper__scripts__database_user__get_userData_files&#45;&gt;BacterialTyper__scripts__sampleParser__get_files -->
<g id="edge16" class="edge">
<title>BacterialTyper__scripts__database_user__get_userData_files&#45;&gt;BacterialTyper__scripts__sampleParser__get_files</title>
<path fill="none" stroke="#000000" d="M261.5344,-191.6287C252.0721,-186.4031 241.8927,-180.3235 233,-174 222.415,-166.4732 211.5722,-157.2063 202.342,-148.7646"/>
<polygon fill="#000000" stroke="#000000" points="204.7088,-146.1861 195.009,-141.9241 199.9339,-151.3047 204.7088,-146.1861"/>
</g>
<!-- BacterialTyper__scripts__database_user__get_userData_info -->
<g id="node5" class="node">
<title>BacterialTyper__scripts__database_user__get_userData_info</title>
<ellipse fill="#6565ff" fill-opacity="0.698039" stroke="#000000" cx="124" cy="-208" rx="75.2868" ry="18"/>
<text text-anchor="middle" x="124" y="-204.3" font-family="Times,serif" font-size="14.00" fill="#000000">get_userData_info</text>
</g>
<!-- BacterialTyper__scripts__database_user__get_userData_info&#45;&gt;BacterialTyper__scripts__sampleParser__get_files -->
<g id="edge17" class="edge">
<title>BacterialTyper__scripts__database_user__get_userData_info&#45;&gt;BacterialTyper__scripts__sampleParser__get_files</title>
<path fill="none" stroke="#000000" d="M135.7172,-189.9902C143.1056,-178.634 152.7705,-163.7786 160.9949,-151.1375"/>
<polygon fill="#000000" stroke="#000000" points="164.156,-152.6967 166.6757,-142.4058 158.2885,-148.8793 164.156,-152.6967"/>
</g>
<!-- BacterialTyper__scripts__database_user__update_database_user_data -->
<g id="node6" class="node">
<title>BacterialTyper__scripts__database_user__update_database_user_data</title>
<ellipse fill="#6565ff" fill-opacity="0.698039" stroke="#000000" cx="294" cy="-280" rx="106.6812" ry="18"/>
<text text-anchor="middle" x="294" y="-276.3" font-family="Times,serif" font-size="14.00" fill="#000000">update_database_user_data</text>
</g>
<!-- BacterialTyper__scripts__database_user__update_database_user_data&#45;&gt;BacterialTyper__scripts__database_generator__get_database -->
<g id="edge7" class="edge">
<title>BacterialTyper__scripts__database_user__update_database_user_data&#45;&gt;BacterialTyper__scripts__database_generator__get_database</title>
<path fill="none" stroke="#000000" d="M386.63,-271.0385C446.0465,-263.1562 515.4243,-249.2197 534,-226 546.2163,-210.7297 546.7114,-196.8607 534,-182 519.0862,-164.5644 504.0922,-183.03 483,-174 468.9215,-167.9727 455.184,-158.144 444.0688,-148.8655"/>
<polygon fill="#000000" stroke="#000000" points="446.3168,-146.1822 436.4712,-142.2687 441.7274,-151.4678 446.3168,-146.1822"/>
</g>
<!-- BacterialTyper__scripts__database_user__update_database_user_data&#45;&gt;BacterialTyper__scripts__database_generator__getdbs -->
<g id="edge14" class="edge">
<title>BacterialTyper__scripts__database_user__update_database_user_data&#45;&gt;BacterialTyper__scripts__database_generator__getdbs</title>
<path fill="none" stroke="#000000" d="M384.4272,-270.3929C441.3554,-262.2673 507.308,-248.3047 525,-226 537.1526,-210.6789 538.5009,-196.1473 525,-182 511.8683,-168.2396 371.1385,-182.25 354,-174 343.2252,-168.8133 334.0198,-159.5613 326.9237,-150.4833"/>
<polygon fill="#000000" stroke="#000000" points="329.7128,-148.3672 321.0154,-142.3167 324.0414,-152.4703 329.7128,-148.3672"/>
</g>
<!-- BacterialTyper__scripts__database_user__update_database_user_data&#45;&gt;BacterialTyper__scripts__database_generator__update_db_data_file -->
<g id="edge8" class="edge">
<title>BacterialTyper__scripts__database_user__update_database_user_data&#45;&gt;BacterialTyper__scripts__database_generator__update_db_data_file</title>
<path fill="none" stroke="#000000" d="M383.3714,-270.1282C444.9252,-261.6006 519.6588,-247.2599 543,-226 563.3091,-207.5019 570.8129,-176.2124 573.5404,-153.3518"/>
<polygon fill="#000000" stroke="#000000" points="577.0424,-153.4964 574.5087,-143.209 570.0741,-152.8311 577.0424,-153.4964"/>
</g>
<!-- BacterialTyper__scripts__database_user__update_database_user_data&#45;&gt;BacterialTyper__scripts__database_user__get_userData_files -->
<g id="edge15" class="edge">
<title>BacterialTyper__scripts__database_user__update_database_user_data&#45;&gt;BacterialTyper__scripts__database_user__get_userData_files</title>
<path fill="none" stroke="#000000" d="M294,-261.8314C294,-254.131 294,-244.9743 294,-236.4166"/>
<polygon fill="#000000" stroke="#000000" points="297.5001,-236.4132 294,-226.4133 290.5001,-236.4133 297.5001,-236.4132"/>
</g>
<!-- BacterialTyper__scripts__database_user__update_database_user_data&#45;&gt;BacterialTyper__scripts__database_user__get_userData_info -->
<g id="edge9" class="edge">
<title>BacterialTyper__scripts__database_user__update_database_user_data&#45;&gt;BacterialTyper__scripts__database_user__get_userData_info</title>
<path fill="none" stroke="#000000" d="M254.1426,-263.1192C229.1449,-252.5319 196.809,-238.8367 170.6234,-227.7464"/>
<polygon fill="#000000" stroke="#000000" points="171.8525,-224.466 161.2793,-223.7889 169.1225,-230.9117 171.8525,-224.466"/>
</g>
<!-- BacterialTyper__scripts__database_user__update_sample -->
<g id="node7" class="node">
<title>BacterialTyper__scripts__database_user__update_sample</title>
<ellipse fill="#6565ff" fill-opacity="0.698039" stroke="#000000" cx="452" cy="-208" rx="63.8893" ry="18"/>
<text text-anchor="middle" x="452" y="-204.3" font-family="Times,serif" font-size="14.00" fill="#000000">update_sample</text>
</g>
<!-- BacterialTyper__scripts__database_user__update_database_user_data&#45;&gt;BacterialTyper__scripts__database_user__update_sample -->
<g id="edge11" class="edge">
<title>BacterialTyper__scripts__database_user__update_database_user_data&#45;&gt;BacterialTyper__scripts__database_user__update_sample</title>
<path fill="none" stroke="#000000" d="M331.044,-263.1192C354.3954,-252.478 384.6367,-238.6972 409.039,-227.5772"/>
<polygon fill="#000000" stroke="#000000" points="410.7699,-230.6347 418.4183,-223.3031 407.8672,-224.2649 410.7699,-230.6347"/>
</g>
<!-- BacterialTyper__scripts__database_user__update_database_user_data&#45;&gt;BacterialTyper__scripts__functions__create_subfolder -->
<g id="edge6" class="edge">
<title>BacterialTyper__scripts__database_user__update_database_user_data&#45;&gt;BacterialTyper__scripts__functions__create_subfolder</title>
<path fill="none" stroke="#000000" d="M379.3544,-269.1462C517.428,-248.4676 765.1906,-196.5407 670,-99 657.2692,-85.9549 359.4527,-96.2584 342,-91 324.3743,-85.6895 306.8291,-75.2478 292.8556,-65.363"/>
<polygon fill="#000000" stroke="#000000" points="294.7786,-62.4327 284.6479,-59.3312 290.6333,-68.0734 294.7786,-62.4327"/>
</g>
<!-- BacterialTyper__scripts__database_user__update_database_user_data&#45;&gt;BacterialTyper__scripts__functions__get_data -->
<g id="edge13" class="edge">
<title>BacterialTyper__scripts__database_user__update_database_user_data&#45;&gt;BacterialTyper__scripts__functions__get_data</title>
<path fill="none" stroke="#000000" d="M393.7825,-273.5317C485.5028,-266.0977 613.6066,-251.506 657,-226 682.137,-211.2249 687.611,-201.6047 697,-174 707.7335,-142.4421 719.7591,-123.3543 697,-99 688.0275,-89.3986 590.9911,-96.3764 579,-91 567.0433,-85.639 556.2895,-76.1028 547.8461,-66.8589"/>
<polygon fill="#000000" stroke="#000000" points="550.4915,-64.5673 541.3213,-59.2609 545.1809,-69.1277 550.4915,-64.5673"/>
</g>
<!-- BacterialTyper__scripts__functions__optimize_threads -->
<g id="node10" class="node">
<title>BacterialTyper__scripts__functions__optimize_threads</title>
<ellipse fill="#a365ff" fill-opacity="0.698039" stroke="#000000" cx="659" cy="-42" rx="71.4873" ry="18"/>
<text text-anchor="middle" x="659" y="-38.3" font-family="Times,serif" font-size="14.00" fill="#000000">optimize_threads</text>
</g>
<!-- BacterialTyper__scripts__database_user__update_database_user_data&#45;&gt;BacterialTyper__scripts__functions__optimize_threads -->
<g id="edge10" class="edge">
<title>BacterialTyper__scripts__database_user__update_database_user_data&#45;&gt;BacterialTyper__scripts__functions__optimize_threads</title>
<path fill="none" stroke="#000000" d="M397.8491,-275.9314C496.3292,-270.2412 635.635,-256.8707 680,-226 727.4443,-192.9867 728.0926,-153.1953 708,-99 703.5345,-86.9553 695.2582,-75.7457 686.762,-66.5098"/>
<polygon fill="#000000" stroke="#000000" points="689.1468,-63.9425 679.6523,-59.2408 684.1425,-68.8371 689.1468,-63.9425"/>
</g>
<!-- BacterialTyper__scripts__database_user__update_database_user_data&#45;&gt;BacterialTyper__scripts__functions__print_sepLine -->
<g id="edge12" class="edge">
<title>BacterialTyper__scripts__database_user__update_database_user_data&#45;&gt;BacterialTyper__scripts__functions__print_sepLine</title>
<path fill="none" stroke="#000000" d="M385.3352,-270.6175C467.9038,-261.1336 582.654,-245.1657 624,-226 656.3213,-211.0177 670.0701,-206.3455 685,-174 698.9695,-143.7351 708.1061,-123.0254 685,-99 669.1988,-82.5702 501.578,-98.3489 480,-91 464.2927,-85.6505 449.0152,-75.4844 436.8454,-65.7927"/>
<polygon fill="#000000" stroke="#000000" points="438.8755,-62.9287 428.9496,-59.2238 434.3986,-68.31 438.8755,-62.9287"/>
</g>
<!-- BacterialTyper__scripts__database_user__update_sample&#45;&gt;BacterialTyper__scripts__functions__create_subfolder -->
<g id="edge18" class="edge">
<title>BacterialTyper__scripts__database_user__update_sample&#45;&gt;BacterialTyper__scripts__functions__create_subfolder</title>
<path fill="none" stroke="#000000" d="M416.3107,-192.905C404.9022,-188.6815 392.0933,-184.5523 380,-182 367.4674,-179.355 273.7726,-183.3329 265,-174 239.1654,-146.5153 246.1379,-99.807 254.4106,-69.9561"/>
<polygon fill="#000000" stroke="#000000" points="257.8283,-70.7432 257.3393,-60.1597 251.1216,-68.7381 257.8283,-70.7432"/>
</g>
<!-- BacterialTyper__scripts__functions__print_time_stamp -->
<g id="node12" class="node">
<title>BacterialTyper__scripts__functions__print_time_stamp</title>
<ellipse fill="#a365ff" fill-opacity="0.698039" stroke="#000000" cx="103" cy="-42" rx="73.387" ry="18"/>
<text text-anchor="middle" x="103" y="-38.3" font-family="Times,serif" font-size="14.00" fill="#000000">print_time_stamp</text>
</g>
<!-- BacterialTyper__scripts__database_user__update_sample&#45;&gt;BacterialTyper__scripts__functions__print_time_stamp -->
<g id="edge19" class="edge">
<title>BacterialTyper__scripts__database_user__update_sample&#45;&gt;BacterialTyper__scripts__functions__print_time_stamp</title>
<path fill="none" stroke="#000000" d="M416.6952,-192.9596C405.1957,-188.6844 392.2375,-184.5117 380,-182 365.0632,-178.9343 254.1747,-184.3746 243,-174 218.3553,-151.1198 256.3881,-123.1632 233,-99 217.9583,-83.4598 205.3024,-98.4544 185,-91 167.4666,-84.5623 149.4895,-74.3051 134.8528,-64.8352"/>
<polygon fill="#000000" stroke="#000000" points="136.4693,-61.7069 126.2048,-59.0818 132.5919,-67.5349 136.4693,-61.7069"/>
</g>
<!-- BacterialTyper__scripts__sampleParser__get_files&#45;&gt;BacterialTyper__scripts__functions__print_sepLine -->
<g id="edge20" class="edge">
<title>BacterialTyper__scripts__sampleParser__get_files&#45;&gt;BacterialTyper__scripts__functions__print_sepLine</title>
<path fill="none" stroke="#000000" d="M210.2722,-113.7749C226.5082,-108.5343 246.6009,-102.659 265,-99 299.1792,-92.2029 310.4262,-103.3841 343,-91 358.1401,-85.244 372.9703,-75.2294 384.8976,-65.748"/>
<polygon fill="#000000" stroke="#000000" points="387.1844,-68.3986 392.6593,-59.3279 382.7229,-63.0046 387.1844,-68.3986"/>
</g>
</g>
</svg>
