<?xml version="1.0" encoding="UTF-8" standalone="no"?>
<!DOCTYPE svg PUBLIC "-//W3C//DTD SVG 1.1//EN"
 "http://www.w3.org/Graphics/SVG/1.1/DTD/svg11.dtd">
<!-- Generated by graphviz version 2.40.1 (20161225.0304)
 -->
<!-- Title: G Pages: 1 -->
<svg width="812pt" height="187pt"
 viewBox="0.00 0.00 812.00 187.00" xmlns="http://www.w3.org/2000/svg" xmlns:xlink="http://www.w3.org/1999/xlink">
<g id="graph0" class="graph" transform="scale(1 1) rotate(0) translate(4 183)">
<title>G</title>
<polygon fill="#ffffff" stroke="transparent" points="-4,4 -4,-183 808,-183 808,4 -4,4"/>
<g id="clust1" class="cluster">
<title>cluster_G</title>
<path fill="#808080" fill-opacity="0.094118" stroke="#000000" d="M20,-8C20,-8 784,-8 784,-8 790,-8 796,-14 796,-20 796,-20 796,-159 796,-159 796,-165 790,-171 784,-171 784,-171 20,-171 20,-171 14,-171 8,-165 8,-159 8,-159 8,-20 8,-20 8,-14 14,-8 20,-8"/>
</g>
<g id="clust2" class="cluster">
<title>cluster_BacterialTyper__scripts__database_user</title>
<path fill="#808080" fill-opacity="0.094118" stroke="#000000" d="M316,-16C316,-16 776,-16 776,-16 782,-16 788,-22 788,-28 788,-28 788,-151 788,-151 788,-157 782,-163 776,-163 776,-163 316,-163 316,-163 310,-163 304,-157 304,-151 304,-151 304,-28 304,-28 304,-22 310,-16 316,-16"/>
<text text-anchor="middle" x="546" y="-147.8" font-family="Times,serif" font-size="14.00" fill="#000000">BacterialTyper.scripts.database_user</text>
</g>
<!-- BacterialTyper__scripts__database_user -->
<g id="node1" class="node">
<title>BacterialTyper__scripts__database_user</title>
<ellipse fill="#ffffff" fill-opacity="0.698039" stroke="#000000" cx="156" cy="-114" rx="140.2752" ry="18"/>
<text text-anchor="middle" x="156" y="-110.3" font-family="Times,serif" font-size="14.00" fill="#000000">BacterialTyper.scripts.database_user</text>
</g>
<!-- BacterialTyper__scripts__database_user__get_userData_files -->
<g id="node2" class="node">
<title>BacterialTyper__scripts__database_user__get_userData_files</title>
<ellipse fill="#ff6565" fill-opacity="0.698039" stroke="#000000" cx="389" cy="-42" rx="76.8869" ry="18"/>
<text text-anchor="middle" x="389" y="-38.3" font-family="Times,serif" font-size="14.00" fill="#000000">get_userData_files</text>
</g>
<!-- BacterialTyper__scripts__database_user__get_userData_info -->
<g id="node3" class="node">
<title>BacterialTyper__scripts__database_user__get_userData_info</title>
<ellipse fill="#ff6565" fill-opacity="0.698039" stroke="#000000" cx="559" cy="-42" rx="75.2868" ry="18"/>
<text text-anchor="middle" x="559" y="-38.3" font-family="Times,serif" font-size="14.00" fill="#000000">get_userData_info</text>
</g>
<!-- BacterialTyper__scripts__database_user__update_database_user_data -->
<g id="node4" class="node">
<title>BacterialTyper__scripts__database_user__update_database_user_data</title>
<ellipse fill="#ff6565" fill-opacity="0.698039" stroke="#000000" cx="559" cy="-114" rx="106.6812" ry="18"/>
<text text-anchor="middle" x="559" y="-110.3" font-family="Times,serif" font-size="14.00" fill="#000000">update_database_user_data</text>
</g>
<!-- BacterialTyper__scripts__database_user__update_database_user_data&#45;&gt;BacterialTyper__scripts__database_user__get_userData_files -->
<g id="edge1" class="edge">
<title>BacterialTyper__scripts__database_user__update_database_user_data&#45;&gt;BacterialTyper__scripts__database_user__get_userData_files</title>
<path fill="none" stroke="#000000" d="M519.1426,-97.1192C494.1449,-86.5319 461.809,-72.8367 435.6234,-61.7464"/>
<polygon fill="#000000" stroke="#000000" points="436.8525,-58.466 426.2793,-57.7889 434.1225,-64.9117 436.8525,-58.466"/>
</g>
<!-- BacterialTyper__scripts__database_user__update_database_user_data&#45;&gt;BacterialTyper__scripts__database_user__get_userData_info -->
<g id="edge3" class="edge">
<title>BacterialTyper__scripts__database_user__update_database_user_data&#45;&gt;BacterialTyper__scripts__database_user__get_userData_info</title>
<path fill="none" stroke="#000000" d="M559,-95.8314C559,-88.131 559,-78.9743 559,-70.4166"/>
<polygon fill="#000000" stroke="#000000" points="562.5001,-70.4132 559,-60.4133 555.5001,-70.4133 562.5001,-70.4132"/>
</g>
<!-- BacterialTyper__scripts__database_user__update_sample -->
<g id="node5" class="node">
<title>BacterialTyper__scripts__database_user__update_sample</title>
<ellipse fill="#ff6565" fill-opacity="0.698039" stroke="#000000" cx="716" cy="-42" rx="63.8893" ry="18"/>
<text text-anchor="middle" x="716" y="-38.3" font-family="Times,serif" font-size="14.00" fill="#000000">update_sample</text>
</g>
<!-- BacterialTyper__scripts__database_user__update_database_user_data&#45;&gt;BacterialTyper__scripts__database_user__update_sample -->
<g id="edge2" class="edge">
<title>BacterialTyper__scripts__database_user__update_database_user_data&#45;&gt;BacterialTyper__scripts__database_user__update_sample</title>
<path fill="none" stroke="#000000" d="M596.2068,-96.937C619.3417,-86.3274 649.1658,-72.6501 673.268,-61.5969"/>
<polygon fill="#000000" stroke="#000000" points="674.9039,-64.6972 682.5347,-57.3472 671.9859,-58.3343 674.9039,-64.6972"/>
</g>
</g>
</svg>
