<?xml version="1.0" encoding="UTF-8" standalone="no"?>
<!DOCTYPE svg PUBLIC "-//W3C//DTD SVG 1.1//EN"
 "http://www.w3.org/Graphics/SVG/1.1/DTD/svg11.dtd">
<!-- Generated by graphviz version 2.40.1 (20161225.0304)
 -->
<!-- Title: G Pages: 1 -->
<svg width="832pt" height="187pt"
 viewBox="0.00 0.00 832.00 187.00" xmlns="http://www.w3.org/2000/svg" xmlns:xlink="http://www.w3.org/1999/xlink">
<g id="graph0" class="graph" transform="scale(1 1) rotate(0) translate(4 183)">
<title>G</title>
<polygon fill="#ffffff" stroke="transparent" points="-4,4 -4,-183 828,-183 828,4 -4,4"/>
<g id="clust1" class="cluster">
<title>cluster_G</title>
<path fill="#808080" fill-opacity="0.094118" stroke="#000000" d="M20,-8C20,-8 804,-8 804,-8 810,-8 816,-14 816,-20 816,-20 816,-159 816,-159 816,-165 810,-171 804,-171 804,-171 20,-171 20,-171 14,-171 8,-165 8,-159 8,-159 8,-20 8,-20 8,-14 14,-8 20,-8"/>
</g>
<g id="clust2" class="cluster">
<title>cluster_BacterialTyper__scripts__edirect_caller</title>
<path fill="#808080" fill-opacity="0.094118" stroke="#000000" d="M316,-16C316,-16 796,-16 796,-16 802,-16 808,-22 808,-28 808,-28 808,-151 808,-151 808,-157 802,-163 796,-163 796,-163 316,-163 316,-163 310,-163 304,-157 304,-151 304,-151 304,-28 304,-28 304,-22 310,-16 316,-16"/>
<text text-anchor="middle" x="556" y="-147.8" font-family="Times,serif" font-size="14.00" fill="#000000">BacterialTyper.scripts.edirect_caller</text>
</g>
<!-- BacterialTyper__scripts__edirect_caller -->
<g id="node1" class="node">
<title>BacterialTyper__scripts__edirect_caller</title>
<ellipse fill="#ffffff" fill-opacity="0.698039" stroke="#000000" cx="155" cy="-114" rx="139.1754" ry="18"/>
<text text-anchor="middle" x="155" y="-110.3" font-family="Times,serif" font-size="14.00" fill="#000000">BacterialTyper.scripts.edirect_caller</text>
</g>
<!-- BacterialTyper__scripts__edirect_caller__docsum_call -->
<g id="node2" class="node">
<title>BacterialTyper__scripts__edirect_caller__docsum_call</title>
<ellipse fill="#ff6565" fill-opacity="0.698039" stroke="#000000" cx="710" cy="-42" rx="55.7903" ry="18"/>
<text text-anchor="middle" x="710" y="-38.3" font-family="Times,serif" font-size="14.00" fill="#000000">docsum_call</text>
</g>
<!-- BacterialTyper__scripts__edirect_caller__generate_docsum_call -->
<g id="node3" class="node">
<title>BacterialTyper__scripts__edirect_caller__generate_docsum_call</title>
<ellipse fill="#ff6565" fill-opacity="0.698039" stroke="#000000" cx="710" cy="-114" rx="89.8845" ry="18"/>
<text text-anchor="middle" x="710" y="-110.3" font-family="Times,serif" font-size="14.00" fill="#000000">generate_docsum_call</text>
</g>
<!-- BacterialTyper__scripts__edirect_caller__generate_docsum_call&#45;&gt;BacterialTyper__scripts__edirect_caller__docsum_call -->
<g id="edge1" class="edge">
<title>BacterialTyper__scripts__edirect_caller__generate_docsum_call&#45;&gt;BacterialTyper__scripts__edirect_caller__docsum_call</title>
<path fill="none" stroke="#000000" d="M710,-95.8314C710,-88.131 710,-78.9743 710,-70.4166"/>
<polygon fill="#000000" stroke="#000000" points="713.5001,-70.4132 710,-60.4133 706.5001,-70.4133 713.5001,-70.4132"/>
</g>
<!-- BacterialTyper__scripts__edirect_caller__generate_xtract_call -->
<g id="node4" class="node">
<title>BacterialTyper__scripts__edirect_caller__generate_xtract_call</title>
<ellipse fill="#ff6565" fill-opacity="0.698039" stroke="#000000" cx="520" cy="-114" rx="81.7856" ry="18"/>
<text text-anchor="middle" x="520" y="-110.3" font-family="Times,serif" font-size="14.00" fill="#000000">generate_xtract_call</text>
</g>
<!-- BacterialTyper__scripts__edirect_caller__xtract_call -->
<g id="node6" class="node">
<title>BacterialTyper__scripts__edirect_caller__xtract_call</title>
<ellipse fill="#ff6565" fill-opacity="0.698039" stroke="#000000" cx="520" cy="-42" rx="48.1917" ry="18"/>
<text text-anchor="middle" x="520" y="-38.3" font-family="Times,serif" font-size="14.00" fill="#000000">xtract_call</text>
</g>
<!-- BacterialTyper__scripts__edirect_caller__generate_xtract_call&#45;&gt;BacterialTyper__scripts__edirect_caller__xtract_call -->
<g id="edge2" class="edge">
<title>BacterialTyper__scripts__edirect_caller__generate_xtract_call&#45;&gt;BacterialTyper__scripts__edirect_caller__xtract_call</title>
<path fill="none" stroke="#000000" d="M520,-95.8314C520,-88.131 520,-78.9743 520,-70.4166"/>
<polygon fill="#000000" stroke="#000000" points="523.5001,-70.4132 520,-60.4133 516.5001,-70.4133 523.5001,-70.4132"/>
</g>
<!-- BacterialTyper__scripts__edirect_caller__help_edirect -->
<g id="node5" class="node">
<title>BacterialTyper__scripts__edirect_caller__help_edirect</title>
<ellipse fill="#ff6565" fill-opacity="0.698039" stroke="#000000" cx="366" cy="-114" rx="53.8905" ry="18"/>
<text text-anchor="middle" x="366" y="-110.3" font-family="Times,serif" font-size="14.00" fill="#000000">help_edirect</text>
</g>
</g>
</svg>
