<?xml version="1.0" encoding="UTF-8" standalone="no"?>
<!DOCTYPE svg PUBLIC "-//W3C//DTD SVG 1.1//EN"
 "http://www.w3.org/Graphics/SVG/1.1/DTD/svg11.dtd">
<!-- Generated by graphviz version 2.40.1 (20161225.0304)
 -->
<!-- Title: G Pages: 1 -->
<svg width="758pt" height="273pt"
 viewBox="0.00 0.00 758.00 273.00" xmlns="http://www.w3.org/2000/svg" xmlns:xlink="http://www.w3.org/1999/xlink">
<g id="graph0" class="graph" transform="scale(1 1) rotate(0) translate(4 269)">
<title>G</title>
<polygon fill="#ffffff" stroke="transparent" points="-4,4 -4,-269 754,-269 754,4 -4,4"/>
<g id="clust1" class="cluster">
<title>cluster_G</title>
<path fill="#808080" fill-opacity="0.094118" stroke="#000000" d="M20,-8C20,-8 730,-8 730,-8 736,-8 742,-14 742,-20 742,-20 742,-245 742,-245 742,-251 736,-257 730,-257 730,-257 20,-257 20,-257 14,-257 8,-251 8,-245 8,-245 8,-20 8,-20 8,-14 14,-8 20,-8"/>
</g>
<g id="clust2" class="cluster">
<title>cluster_BacterialTyper__config__set_config</title>
<path fill="#808080" fill-opacity="0.094118" stroke="#000000" d="M540,-99C540,-99 712,-99 712,-99 718,-99 724,-105 724,-111 724,-111 724,-162 724,-162 724,-168 718,-174 712,-174 712,-174 540,-174 540,-174 534,-174 528,-168 528,-162 528,-162 528,-111 528,-111 528,-105 534,-99 540,-99"/>
<text text-anchor="middle" x="626" y="-158.8" font-family="Times,serif" font-size="14.00" fill="#000000">BacterialTyper.config.set_config</text>
</g>
<g id="clust3" class="cluster">
<title>cluster_BacterialTyper__scripts__edirect_caller</title>
<path fill="#808080" fill-opacity="0.094118" stroke="#000000" d="M28,-99C28,-99 508,-99 508,-99 514,-99 520,-105 520,-111 520,-111 520,-237 520,-237 520,-243 514,-249 508,-249 508,-249 28,-249 28,-249 22,-249 16,-243 16,-237 16,-237 16,-111 16,-111 16,-105 22,-99 28,-99"/>
<text text-anchor="middle" x="268" y="-233.8" font-family="Times,serif" font-size="14.00" fill="#000000">BacterialTyper.scripts.edirect_caller</text>
</g>
<g id="clust4" class="cluster">
<title>cluster_BacterialTyper__scripts__functions</title>
<path fill="#808080" fill-opacity="0.094118" stroke="#000000" d="M247,-16C247,-16 498,-16 498,-16 504,-16 510,-22 510,-28 510,-28 510,-79 510,-79 510,-85 504,-91 498,-91 498,-91 247,-91 247,-91 241,-91 235,-85 235,-79 235,-79 235,-28 235,-28 235,-22 241,-16 247,-16"/>
<text text-anchor="middle" x="372.5" y="-75.8" font-family="Times,serif" font-size="14.00" fill="#000000">BacterialTyper.scripts.functions</text>
</g>
<!-- BacterialTyper__config__set_config__get_exe -->
<g id="node1" class="node">
<title>BacterialTyper__config__set_config__get_exe</title>
<ellipse fill="#ff8e65" fill-opacity="0.698039" stroke="#000000" cx="574" cy="-125" rx="38.1938" ry="18"/>
<text text-anchor="middle" x="574" y="-121.3" font-family="Times,serif" font-size="14.00" fill="#000000">get_exe</text>
</g>
<!-- BacterialTyper__scripts__edirect_caller__docsum_call -->
<g id="node2" class="node">
<title>BacterialTyper__scripts__edirect_caller__docsum_call</title>
<ellipse fill="#7a65ff" fill-opacity="0.698039" stroke="#000000" cx="296" cy="-125" rx="55.7903" ry="18"/>
<text text-anchor="middle" x="296" y="-121.3" font-family="Times,serif" font-size="14.00" fill="#000000">docsum_call</text>
</g>
<!-- BacterialTyper__scripts__functions__system_call -->
<g id="node8" class="node">
<title>BacterialTyper__scripts__functions__system_call</title>
<ellipse fill="#a365ff" fill-opacity="0.698039" stroke="#000000" cx="296" cy="-42" rx="52.7911" ry="18"/>
<text text-anchor="middle" x="296" y="-38.3" font-family="Times,serif" font-size="14.00" fill="#000000">system_call</text>
</g>
<!-- BacterialTyper__scripts__edirect_caller__docsum_call&#45;&gt;BacterialTyper__scripts__functions__system_call -->
<g id="edge4" class="edge">
<title>BacterialTyper__scripts__edirect_caller__docsum_call&#45;&gt;BacterialTyper__scripts__functions__system_call</title>
<path fill="none" stroke="#000000" d="M296,-106.9902C296,-106.9902 296,-70.2612 296,-70.2612"/>
<polygon fill="#000000" stroke="#000000" points="299.5001,-70.2612 296,-60.2612 292.5001,-70.2613 299.5001,-70.2612"/>
</g>
<!-- BacterialTyper__scripts__edirect_caller__generate_docsum_call -->
<g id="node3" class="node">
<title>BacterialTyper__scripts__edirect_caller__generate_docsum_call</title>
<ellipse fill="#7a65ff" fill-opacity="0.698039" stroke="#000000" cx="296" cy="-200" rx="89.8845" ry="18"/>
<text text-anchor="middle" x="296" y="-196.3" font-family="Times,serif" font-size="14.00" fill="#000000">generate_docsum_call</text>
</g>
<!-- BacterialTyper__scripts__edirect_caller__generate_docsum_call&#45;&gt;BacterialTyper__config__set_config__get_exe -->
<g id="edge2" class="edge">
<title>BacterialTyper__scripts__edirect_caller__generate_docsum_call&#45;&gt;BacterialTyper__config__set_config__get_exe</title>
<path fill="none" stroke="#000000" d="M376.049,-191.6871C376.049,-172.16 376.049,-125 376.049,-125 376.049,-125 525.3631,-125 525.3631,-125"/>
<polygon fill="#000000" stroke="#000000" points="525.3632,-128.5001 535.3631,-125 525.3631,-121.5001 525.3632,-128.5001"/>
</g>
<!-- BacterialTyper__scripts__edirect_caller__generate_docsum_call&#45;&gt;BacterialTyper__scripts__edirect_caller__docsum_call -->
<g id="edge3" class="edge">
<title>BacterialTyper__scripts__edirect_caller__generate_docsum_call&#45;&gt;BacterialTyper__scripts__edirect_caller__docsum_call</title>
<path fill="none" stroke="#000000" d="M296,-181.8446C296,-181.8446 296,-153.2482 296,-153.2482"/>
<polygon fill="#000000" stroke="#000000" points="299.5001,-153.2481 296,-143.2482 292.5001,-153.2482 299.5001,-153.2481"/>
</g>
<!-- BacterialTyper__scripts__edirect_caller__generate_xtract_call -->
<g id="node4" class="node">
<title>BacterialTyper__scripts__edirect_caller__generate_xtract_call</title>
<ellipse fill="#7a65ff" fill-opacity="0.698039" stroke="#000000" cx="106" cy="-200" rx="81.7856" ry="18"/>
<text text-anchor="middle" x="106" y="-196.3" font-family="Times,serif" font-size="14.00" fill="#000000">generate_xtract_call</text>
</g>
<!-- BacterialTyper__scripts__edirect_caller__generate_xtract_call&#45;&gt;BacterialTyper__config__set_config__get_exe -->
<g id="edge5" class="edge">
<title>BacterialTyper__scripts__edirect_caller__generate_xtract_call&#45;&gt;BacterialTyper__config__set_config__get_exe</title>
<path fill="none" stroke="#000000" d="M170.9942,-188.8043C170.9942,-177.5952 170.9942,-162 170.9942,-162 170.9942,-162 574,-162 574,-162 574,-162 574,-153.0664 574,-153.0664"/>
<polygon fill="#000000" stroke="#000000" points="577.5001,-153.0664 574,-143.0664 570.5001,-153.0665 577.5001,-153.0664"/>
</g>
<!-- BacterialTyper__scripts__edirect_caller__xtract_call -->
<g id="node6" class="node">
<title>BacterialTyper__scripts__edirect_caller__xtract_call</title>
<ellipse fill="#7a65ff" fill-opacity="0.698039" stroke="#000000" cx="106" cy="-125" rx="48.1917" ry="18"/>
<text text-anchor="middle" x="106" y="-121.3" font-family="Times,serif" font-size="14.00" fill="#000000">xtract_call</text>
</g>
<!-- BacterialTyper__scripts__edirect_caller__generate_xtract_call&#45;&gt;BacterialTyper__scripts__edirect_caller__xtract_call -->
<g id="edge6" class="edge">
<title>BacterialTyper__scripts__edirect_caller__generate_xtract_call&#45;&gt;BacterialTyper__scripts__edirect_caller__xtract_call</title>
<path fill="none" stroke="#000000" d="M106,-181.8446C106,-181.8446 106,-153.2482 106,-153.2482"/>
<polygon fill="#000000" stroke="#000000" points="109.5001,-153.2481 106,-143.2482 102.5001,-153.2482 109.5001,-153.2481"/>
</g>
<!-- BacterialTyper__scripts__edirect_caller__help_edirect -->
<g id="node5" class="node">
<title>BacterialTyper__scripts__edirect_caller__help_edirect</title>
<ellipse fill="#7a65ff" fill-opacity="0.698039" stroke="#000000" cx="458" cy="-200" rx="53.8905" ry="18"/>
<text text-anchor="middle" x="458" y="-196.3" font-family="Times,serif" font-size="14.00" fill="#000000">help_edirect</text>
</g>
<!-- BacterialTyper__scripts__functions__boxymcboxface -->
<g id="node7" class="node">
<title>BacterialTyper__scripts__functions__boxymcboxface</title>
<ellipse fill="#a365ff" fill-opacity="0.698039" stroke="#000000" cx="434" cy="-42" rx="67.6881" ry="18"/>
<text text-anchor="middle" x="434" y="-38.3" font-family="Times,serif" font-size="14.00" fill="#000000">boxymcboxface</text>
</g>
<!-- BacterialTyper__scripts__edirect_caller__help_edirect&#45;&gt;BacterialTyper__scripts__functions__boxymcboxface -->
<g id="edge1" class="edge">
<title>BacterialTyper__scripts__edirect_caller__help_edirect&#45;&gt;BacterialTyper__scripts__functions__boxymcboxface</title>
<path fill="none" stroke="#000000" d="M452.8244,-181.8754C452.8244,-181.8754 452.8244,-69.4318 452.8244,-69.4318"/>
<polygon fill="#000000" stroke="#000000" points="456.3245,-69.4317 452.8244,-59.4318 449.3245,-69.4318 456.3245,-69.4317"/>
</g>
<!-- BacterialTyper__scripts__edirect_caller__xtract_call&#45;&gt;BacterialTyper__scripts__functions__system_call -->
<g id="edge7" class="edge">
<title>BacterialTyper__scripts__edirect_caller__xtract_call&#45;&gt;BacterialTyper__scripts__functions__system_call</title>
<path fill="none" stroke="#000000" d="M106,-106.9902C106,-82.5793 106,-42 106,-42 106,-42 233.3267,-42 233.3267,-42"/>
<polygon fill="#000000" stroke="#000000" points="233.3268,-45.5001 243.3267,-42 233.3267,-38.5001 233.3268,-45.5001"/>
</g>
</g>
</svg>
