<?xml version="1.0" encoding="UTF-8" standalone="no"?>
<!DOCTYPE svg PUBLIC "-//W3C//DTD SVG 1.1//EN"
 "http://www.w3.org/Graphics/SVG/1.1/DTD/svg11.dtd">
<!-- Generated by graphviz version 2.40.1 (20161225.0304)
 -->
<!-- Title: G Pages: 1 -->
<svg width="758pt" height="273pt"
 viewBox="0.00 0.00 758.00 273.00" xmlns="http://www.w3.org/2000/svg" xmlns:xlink="http://www.w3.org/1999/xlink">
<g id="graph0" class="graph" transform="scale(1 1) rotate(0) translate(4 269)">
<title>G</title>
<polygon fill="#ffffff" stroke="transparent" points="-4,4 -4,-269 754,-269 754,4 -4,4"/>
<g id="clust1" class="cluster">
<title>cluster_G</title>
<path fill="#808080" fill-opacity="0.094118" stroke="#000000" d="M20,-8C20,-8 730,-8 730,-8 736,-8 742,-14 742,-20 742,-20 742,-245 742,-245 742,-251 736,-257 730,-257 730,-257 20,-257 20,-257 14,-257 8,-251 8,-245 8,-245 8,-20 8,-20 8,-14 14,-8 20,-8"/>
</g>
<g id="clust2" class="cluster">
<title>cluster_BacterialTyper__config__set_config</title>
<path fill="#808080" fill-opacity="0.094118" stroke="#000000" d="M540,-99C540,-99 712,-99 712,-99 718,-99 724,-105 724,-111 724,-111 724,-162 724,-162 724,-168 718,-174 712,-174 712,-174 540,-174 540,-174 534,-174 528,-168 528,-162 528,-162 528,-111 528,-111 528,-105 534,-99 540,-99"/>
<text text-anchor="middle" x="626" y="-158.8" font-family="Times,serif" font-size="14.00" fill="#000000">BacterialTyper.config.set_config</text>
</g>
<g id="clust3" class="cluster">
<title>cluster_BacterialTyper__scripts__edirect_caller</title>
<path fill="#808080" fill-opacity="0.094118" stroke="#000000" d="M28,-99C28,-99 508,-99 508,-99 514,-99 520,-105 520,-111 520,-111 520,-237 520,-237 520,-243 514,-249 508,-249 508,-249 28,-249 28,-249 22,-249 16,-243 16,-237 16,-237 16,-111 16,-111 16,-105 22,-99 28,-99"/>
<text text-anchor="middle" x="268" y="-233.8" font-family="Times,serif" font-size="14.00" fill="#000000">BacterialTyper.scripts.edirect_caller</text>
</g>
<g id="clust4" class="cluster">
<title>cluster_BacterialTyper__scripts__functions</title>
<path fill="#808080" fill-opacity="0.094118" stroke="#000000" d="M247,-16C247,-16 498,-16 498,-16 504,-16 510,-22 510,-28 510,-28 510,-79 510,-79 510,-85 504,-91 498,-91 498,-91 247,-91 247,-91 241,-91 235,-85 235,-79 235,-79 235,-28 235,-28 235,-22 241,-16 247,-16"/>
<text text-anchor="middle" x="372.5" y="-75.8" font-family="Times,serif" font-size="14.00" fill="#000000">BacterialTyper.scripts.functions</text>
</g>
<!-- BacterialTyper__config__set_config__get_exe -->
<g id="node1" class="node">
<title>BacterialTyper__config__set_config__get_exe</title>
<ellipse fill="#ff8e65" fill-opacity="0.698039" stroke="#000000" cx="574" cy="-125" rx="38.1938" ry="18"/>
<text text-anchor="middle" x="574" y="-121.3" font-family="Times,serif" font-size="14.00" fill="#000000">get_exe</text>
</g>
<!-- BacterialTyper__scripts__edirect_caller__docsum_call -->
<g id="node2" class="node">
<title>BacterialTyper__scripts__edirect_caller__docsum_call</title>
<ellipse fill="#7a65ff" fill-opacity="0.698039" stroke="#000000" cx="296" cy="-125" rx="55.7903" ry="18"/>
<text text-anchor="middle" x="296" y="-121.3" font-family="Times,serif" font-size="14.00" fill="#000000">docsum_call</text>
</g>
<!-- BacterialTyper__scripts__functions__system_call -->
<g id="node8" class="node">
<title>BacterialTyper__scripts__functions__system_call</title>
<ellipse fill="#a365ff" fill-opacity="0.698039" stroke="#000000" cx="296" cy="-42" rx="52.7911" ry="18"/>
<text text-anchor="middle" x="296" y="-38.3" font-family="Times,serif" font-size="14.00" fill="#000000">system_call</text>
</g>
<!-- BacterialTyper__scripts__edirect_caller__docsum_call&#45;&gt;BacterialTyper__scripts__functions__system_call -->
<g id="edge4" class="edge">
<title>BacterialTyper__scripts__edirect_caller__docsum_call&#45;&gt;BacterialTyper__scripts__functions__system_call</title>
<path fill="none" stroke="#000000" d="M296,-106.9902C296,-96.2963 296,-82.4994 296,-70.3706"/>
<polygon fill="#000000" stroke="#000000" points="299.5001,-70.2612 296,-60.2612 292.5001,-70.2613 299.5001,-70.2612"/>
</g>
<!-- BacterialTyper__scripts__edirect_caller__generate_docsum_call -->
<g id="node3" class="node">
<title>BacterialTyper__scripts__edirect_caller__generate_docsum_call</title>
<ellipse fill="#7a65ff" fill-opacity="0.698039" stroke="#000000" cx="296" cy="-200" rx="89.8845" ry="18"/>
<text text-anchor="middle" x="296" y="-196.3" font-family="Times,serif" font-size="14.00" fill="#000000">generate_docsum_call</text>
</g>
<!-- BacterialTyper__scripts__edirect_caller__generate_docsum_call&#45;&gt;BacterialTyper__config__set_config__get_exe -->
<g id="edge2" class="edge">
<title>BacterialTyper__scripts__edirect_caller__generate_docsum_call&#45;&gt;BacterialTyper__config__set_config__get_exe</title>
<path fill="none" stroke="#000000" d="M359.738,-187.2702C371.4302,-185.2604 383.5544,-183.3905 395,-182 423.5121,-178.5361 497.7583,-185.6753 524,-174 535.9721,-168.6734 546.7283,-159.1427 555.1694,-149.8936"/>
<polygon fill="#000000" stroke="#000000" points="557.838,-152.1583 561.6913,-142.289 552.5244,-147.6013 557.838,-152.1583"/>
</g>
<!-- BacterialTyper__scripts__edirect_caller__generate_docsum_call&#45;&gt;BacterialTyper__scripts__edirect_caller__docsum_call -->
<g id="edge3" class="edge">
<title>BacterialTyper__scripts__edirect_caller__generate_docsum_call&#45;&gt;BacterialTyper__scripts__edirect_caller__docsum_call</title>
<path fill="none" stroke="#000000" d="M296,-181.8446C296,-173.3401 296,-163.0076 296,-153.4964"/>
<polygon fill="#000000" stroke="#000000" points="299.5001,-153.2481 296,-143.2482 292.5001,-153.2482 299.5001,-153.2481"/>
</g>
<!-- BacterialTyper__scripts__edirect_caller__generate_xtract_call -->
<g id="node4" class="node">
<title>BacterialTyper__scripts__edirect_caller__generate_xtract_call</title>
<ellipse fill="#7a65ff" fill-opacity="0.698039" stroke="#000000" cx="106" cy="-200" rx="81.7856" ry="18"/>
<text text-anchor="middle" x="106" y="-196.3" font-family="Times,serif" font-size="14.00" fill="#000000">generate_xtract_call</text>
</g>
<!-- BacterialTyper__scripts__edirect_caller__generate_xtract_call&#45;&gt;BacterialTyper__config__set_config__get_exe -->
<g id="edge5" class="edge">
<title>BacterialTyper__scripts__edirect_caller__generate_xtract_call&#45;&gt;BacterialTyper__config__set_config__get_exe</title>
<path fill="none" stroke="#000000" d="M163.5377,-187.0782C174.5918,-185.0337 186.1148,-183.2008 197,-182 233.1251,-178.0149 490.5231,-188.149 524,-174 536.0698,-168.8987 546.8414,-159.4035 555.2676,-150.12"/>
<polygon fill="#000000" stroke="#000000" points="557.9588,-152.3581 561.771,-142.4728 552.6263,-147.8232 557.9588,-152.3581"/>
</g>
<!-- BacterialTyper__scripts__edirect_caller__xtract_call -->
<g id="node6" class="node">
<title>BacterialTyper__scripts__edirect_caller__xtract_call</title>
<ellipse fill="#7a65ff" fill-opacity="0.698039" stroke="#000000" cx="106" cy="-125" rx="48.1917" ry="18"/>
<text text-anchor="middle" x="106" y="-121.3" font-family="Times,serif" font-size="14.00" fill="#000000">xtract_call</text>
</g>
<!-- BacterialTyper__scripts__edirect_caller__generate_xtract_call&#45;&gt;BacterialTyper__scripts__edirect_caller__xtract_call -->
<g id="edge6" class="edge">
<title>BacterialTyper__scripts__edirect_caller__generate_xtract_call&#45;&gt;BacterialTyper__scripts__edirect_caller__xtract_call</title>
<path fill="none" stroke="#000000" d="M106,-181.8446C106,-173.3401 106,-163.0076 106,-153.4964"/>
<polygon fill="#000000" stroke="#000000" points="109.5001,-153.2481 106,-143.2482 102.5001,-153.2482 109.5001,-153.2481"/>
</g>
<!-- BacterialTyper__scripts__edirect_caller__help_edirect -->
<g id="node5" class="node">
<title>BacterialTyper__scripts__edirect_caller__help_edirect</title>
<ellipse fill="#7a65ff" fill-opacity="0.698039" stroke="#000000" cx="458" cy="-200" rx="53.8905" ry="18"/>
<text text-anchor="middle" x="458" y="-196.3" font-family="Times,serif" font-size="14.00" fill="#000000">help_edirect</text>
</g>
<!-- BacterialTyper__scripts__functions__boxymcboxface -->
<g id="node7" class="node">
<title>BacterialTyper__scripts__functions__boxymcboxface</title>
<ellipse fill="#a365ff" fill-opacity="0.698039" stroke="#000000" cx="434" cy="-42" rx="67.6881" ry="18"/>
<text text-anchor="middle" x="434" y="-38.3" font-family="Times,serif" font-size="14.00" fill="#000000">boxymcboxface</text>
</g>
<!-- BacterialTyper__scripts__edirect_caller__help_edirect&#45;&gt;BacterialTyper__scripts__functions__boxymcboxface -->
<g id="edge1" class="edge">
<title>BacterialTyper__scripts__edirect_caller__help_edirect&#45;&gt;BacterialTyper__scripts__functions__boxymcboxface</title>
<path fill="none" stroke="#000000" d="M511.8037,-198.6233C586.4107,-196.1497 713.7715,-189.6645 728,-174 750.4121,-149.326 749.2088,-124.7157 728,-99 700.9709,-66.2272 588.6532,-52.0686 510.9454,-46.114"/>
<polygon fill="#000000" stroke="#000000" points="510.9285,-42.6034 500.6988,-45.3606 510.4152,-49.5845 510.9285,-42.6034"/>
</g>
<!-- BacterialTyper__scripts__edirect_caller__xtract_call&#45;&gt;BacterialTyper__scripts__functions__system_call -->
<g id="edge7" class="edge">
<title>BacterialTyper__scripts__edirect_caller__xtract_call&#45;&gt;BacterialTyper__scripts__functions__system_call</title>
<path fill="none" stroke="#000000" d="M137.3746,-111.2942C169.1679,-97.4056 218.5566,-75.8305 253.7733,-60.4464"/>
<polygon fill="#000000" stroke="#000000" points="255.5414,-63.4935 263.3041,-56.283 252.7391,-57.0788 255.5414,-63.4935"/>
</g>
</g>
</svg>
