<?xml version="1.0" encoding="UTF-8" standalone="no"?>
<!DOCTYPE svg PUBLIC "-//W3C//DTD SVG 1.1//EN"
 "http://www.w3.org/Graphics/SVG/1.1/DTD/svg11.dtd">
<!-- Generated by graphviz version 2.40.1 (20161225.0304)
 -->
<!-- Title: G Pages: 1 -->
<svg width="2084pt" height="281pt"
 viewBox="0.00 0.00 2084.00 281.00" xmlns="http://www.w3.org/2000/svg" xmlns:xlink="http://www.w3.org/1999/xlink">
<g id="graph0" class="graph" transform="scale(1 1) rotate(0) translate(4 277)">
<title>G</title>
<polygon fill="#ffffff" stroke="transparent" points="-4,4 -4,-277 2080,-277 2080,4 -4,4"/>
<g id="clust1" class="cluster">
<title>cluster_G</title>
<path fill="#808080" fill-opacity="0.094118" stroke="#000000" d="M20,-8C20,-8 2056,-8 2056,-8 2062,-8 2068,-14 2068,-20 2068,-20 2068,-253 2068,-253 2068,-259 2062,-265 2056,-265 2056,-265 20,-265 20,-265 14,-265 8,-259 8,-253 8,-253 8,-20 8,-20 8,-14 14,-8 20,-8"/>
</g>
<g id="clust2" class="cluster">
<title>cluster_BacterialTyper__config__set_config</title>
<path fill="#808080" fill-opacity="0.094118" stroke="#000000" d="M1876,-107C1876,-107 2048,-107 2048,-107 2054,-107 2060,-113 2060,-119 2060,-119 2060,-170 2060,-170 2060,-176 2054,-182 2048,-182 2048,-182 1876,-182 1876,-182 1870,-182 1864,-176 1864,-170 1864,-170 1864,-119 1864,-119 1864,-113 1870,-107 1876,-107"/>
<text text-anchor="middle" x="1962" y="-166.8" font-family="Times,serif" font-size="14.00" fill="#000000">BacterialTyper.config.set_config</text>
</g>
<g id="clust3" class="cluster">
<title>cluster_BacterialTyper__scripts__fastqc_caller</title>
<path fill="#808080" fill-opacity="0.094118" stroke="#000000" d="M28,-99C28,-99 1844,-99 1844,-99 1850,-99 1856,-105 1856,-111 1856,-111 1856,-245 1856,-245 1856,-251 1850,-257 1844,-257 1844,-257 28,-257 28,-257 22,-257 16,-251 16,-245 16,-245 16,-111 16,-111 16,-105 22,-99 28,-99"/>
<text text-anchor="middle" x="936" y="-241.8" font-family="Times,serif" font-size="14.00" fill="#000000">BacterialTyper.scripts.fastqc_caller</text>
</g>
<g id="clust4" class="cluster">
<title>cluster_BacterialTyper__scripts__fastqc_caller__fastqcObject</title>
<path fill="#808080" fill-opacity="0.094118" stroke="#000000" d="M528,-107C528,-107 1836,-107 1836,-107 1842,-107 1848,-113 1848,-119 1848,-119 1848,-170 1848,-170 1848,-176 1842,-182 1836,-182 1836,-182 528,-182 528,-182 522,-182 516,-176 516,-170 516,-170 516,-119 516,-119 516,-113 522,-107 528,-107"/>
<text text-anchor="middle" x="1182" y="-166.8" font-family="Times,serif" font-size="14.00" fill="#000000">BacterialTyper.scripts.fastqc_caller.fastqcObject</text>
</g>
<g id="clust5" class="cluster">
<title>cluster_BacterialTyper__scripts__functions</title>
<path fill="#808080" fill-opacity="0.094118" stroke="#000000" d="M28,-16C28,-16 195,-16 195,-16 201,-16 207,-22 207,-28 207,-28 207,-79 207,-79 207,-85 201,-91 195,-91 195,-91 28,-91 28,-91 22,-91 16,-85 16,-79 16,-79 16,-28 16,-28 16,-22 22,-16 28,-16"/>
<text text-anchor="middle" x="111.5" y="-75.8" font-family="Times,serif" font-size="14.00" fill="#000000">BacterialTyper.scripts.functions</text>
</g>
<!-- BacterialTyper__config__set_config__get_exe -->
<g id="node1" class="node">
<title>BacterialTyper__config__set_config__get_exe</title>
<ellipse fill="#ff8e65" fill-opacity="0.698039" stroke="#000000" cx="1910" cy="-133" rx="38.1938" ry="18"/>
<text text-anchor="middle" x="1910" y="-129.3" font-family="Times,serif" font-size="14.00" fill="#000000">get_exe</text>
</g>
<!-- BacterialTyper__scripts__fastqc_caller__call_fastqc -->
<g id="node2" class="node">
<title>BacterialTyper__scripts__fastqc_caller__call_fastqc</title>
<ellipse fill="#8e65ff" fill-opacity="0.698039" stroke="#000000" cx="73" cy="-133" rx="48.9926" ry="18"/>
<text text-anchor="middle" x="73" y="-129.3" font-family="Times,serif" font-size="14.00" fill="#000000">call_fastqc</text>
</g>
<!-- BacterialTyper__scripts__functions__system_call -->
<g id="node19" class="node">
<title>BacterialTyper__scripts__functions__system_call</title>
<ellipse fill="#a365ff" fill-opacity="0.698039" stroke="#000000" cx="77" cy="-42" rx="52.7911" ry="18"/>
<text text-anchor="middle" x="77" y="-38.3" font-family="Times,serif" font-size="14.00" fill="#000000">system_call</text>
</g>
<!-- BacterialTyper__scripts__fastqc_caller__call_fastqc&#45;&gt;BacterialTyper__scripts__functions__system_call -->
<g id="edge11" class="edge">
<title>BacterialTyper__scripts__fastqc_caller__call_fastqc&#45;&gt;BacterialTyper__scripts__functions__system_call</title>
<path fill="none" stroke="#000000" d="M73.0502,-114.5848C73.0502,-114.5848 73.0502,-70.0773 73.0502,-70.0773"/>
<polygon fill="#000000" stroke="#000000" points="76.5503,-70.0772 73.0502,-60.0773 69.5503,-70.0773 76.5503,-70.0772"/>
</g>
<!-- BacterialTyper__scripts__fastqc_caller__fastqcObject -->
<g id="node3" class="node">
<title>BacterialTyper__scripts__fastqc_caller__fastqcObject</title>
<ellipse fill="#8e65ff" fill-opacity="0.698039" stroke="#000000" cx="1227" cy="-208" rx="55.4913" ry="18"/>
<text text-anchor="middle" x="1227" y="-204.3" font-family="Times,serif" font-size="14.00" fill="#000000">fastqcObject</text>
</g>
<!-- BacterialTyper__scripts__fastqc_caller__fastqcObject____init__ -->
<g id="node9" class="node">
<title>BacterialTyper__scripts__fastqc_caller__fastqcObject____init__</title>
<ellipse fill="#6932ff" fill-opacity="0.698039" stroke="#000000" cx="1800" cy="-133" rx="40.0939" ry="18"/>
<text text-anchor="middle" x="1800" y="-129.3" font-family="Times,serif" font-size="14.00" fill="#000000">__init__</text>
</g>
<!-- BacterialTyper__scripts__fastqc_caller__fastqcObject&#45;&gt;BacterialTyper__scripts__fastqc_caller__fastqcObject____init__ -->
<g id="edge2" class="edge">
<title>BacterialTyper__scripts__fastqc_caller__fastqcObject&#45;&gt;BacterialTyper__scripts__fastqc_caller__fastqcObject____init__</title>
<path fill="none" stroke="transparent" stroke-dasharray="5,2" d="M1273.4056,-218C1409.8172,-218 1800,-218 1800,-218 1800,-218 1800,-161.0263 1800,-161.0263"/>
<polygon fill="transparent" stroke="transparent" points="1803.5001,-161.0263 1800,-151.0263 1796.5001,-161.0263 1803.5001,-161.0263"/>
</g>
<!-- BacterialTyper__scripts__fastqc_caller__fastqcObject____repr__ -->
<g id="node10" class="node">
<title>BacterialTyper__scripts__fastqc_caller__fastqcObject____repr__</title>
<ellipse fill="#6932ff" fill-opacity="0.698039" stroke="#000000" cx="1699" cy="-133" rx="42.4939" ry="18"/>
<text text-anchor="middle" x="1699" y="-129.3" font-family="Times,serif" font-size="14.00" fill="#000000">__repr__</text>
</g>
<!-- BacterialTyper__scripts__fastqc_caller__fastqcObject&#45;&gt;BacterialTyper__scripts__fastqc_caller__fastqcObject____repr__ -->
<g id="edge10" class="edge">
<title>BacterialTyper__scripts__fastqc_caller__fastqcObject&#45;&gt;BacterialTyper__scripts__fastqc_caller__fastqcObject____repr__</title>
<path fill="none" stroke="transparent" stroke-dasharray="5,2" d="M1281.6055,-211C1405.8505,-211 1699,-211 1699,-211 1699,-211 1699,-161.0908 1699,-161.0908"/>
<polygon fill="transparent" stroke="transparent" points="1702.5001,-161.0908 1699,-151.0908 1695.5001,-161.0909 1702.5001,-161.0908"/>
</g>
<!-- BacterialTyper__scripts__fastqc_caller__fastqcObject____str__ -->
<g id="node11" class="node">
<title>BacterialTyper__scripts__fastqc_caller__fastqcObject____str__</title>
<ellipse fill="#6932ff" fill-opacity="0.698039" stroke="#000000" cx="1602" cy="-133" rx="37.0935" ry="18"/>
<text text-anchor="middle" x="1602" y="-129.3" font-family="Times,serif" font-size="14.00" fill="#000000">__str__</text>
</g>
<!-- BacterialTyper__scripts__fastqc_caller__fastqcObject&#45;&gt;BacterialTyper__scripts__fastqc_caller__fastqcObject____str__ -->
<g id="edge4" class="edge">
<title>BacterialTyper__scripts__fastqc_caller__fastqcObject&#45;&gt;BacterialTyper__scripts__fastqc_caller__fastqcObject____str__</title>
<path fill="none" stroke="transparent" stroke-dasharray="5,2" d="M1281.1277,-204C1384.9767,-204 1602,-204 1602,-204 1602,-204 1602,-161.2843 1602,-161.2843"/>
<polygon fill="transparent" stroke="transparent" points="1605.5001,-161.2842 1602,-151.2843 1598.5001,-161.2843 1605.5001,-161.2842"/>
</g>
<!-- BacterialTyper__scripts__fastqc_caller__fastqcObject__get_StatisticsFrame -->
<g id="node12" class="node">
<title>BacterialTyper__scripts__fastqc_caller__fastqcObject__get_StatisticsFrame</title>
<ellipse fill="#6932ff" fill-opacity="0.698039" stroke="#000000" cx="1466" cy="-133" rx="80.6858" ry="18"/>
<text text-anchor="middle" x="1466" y="-129.3" font-family="Times,serif" font-size="14.00" fill="#000000">get_StatisticsFrame</text>
</g>
<!-- BacterialTyper__scripts__fastqc_caller__fastqcObject&#45;&gt;BacterialTyper__scripts__fastqc_caller__fastqcObject__get_StatisticsFrame -->
<g id="edge8" class="edge">
<title>BacterialTyper__scripts__fastqc_caller__fastqcObject&#45;&gt;BacterialTyper__scripts__fastqc_caller__fastqcObject__get_StatisticsFrame</title>
<path fill="none" stroke="transparent" stroke-dasharray="5,2" d="M1270.8363,-197C1339.8336,-197 1466,-197 1466,-197 1466,-197 1466,-161.1686 1466,-161.1686"/>
<polygon fill="transparent" stroke="transparent" points="1469.5001,-161.1686 1466,-151.1686 1462.5001,-161.1687 1469.5001,-161.1686"/>
</g>
<!-- BacterialTyper__scripts__fastqc_caller__fastqcObject__get_StatusFrame -->
<g id="node13" class="node">
<title>BacterialTyper__scripts__fastqc_caller__fastqcObject__get_StatusFrame</title>
<ellipse fill="#6932ff" fill-opacity="0.698039" stroke="#000000" cx="1297" cy="-133" rx="70.3881" ry="18"/>
<text text-anchor="middle" x="1297" y="-129.3" font-family="Times,serif" font-size="14.00" fill="#000000">get_StatusFrame</text>
</g>
<!-- BacterialTyper__scripts__fastqc_caller__fastqcObject&#45;&gt;BacterialTyper__scripts__fastqc_caller__fastqcObject__get_StatusFrame -->
<g id="edge3" class="edge">
<title>BacterialTyper__scripts__fastqc_caller__fastqcObject&#45;&gt;BacterialTyper__scripts__fastqc_caller__fastqcObject__get_StatusFrame</title>
<path fill="none" stroke="transparent" stroke-dasharray="5,2" d="M1254.5257,-192.0944C1254.5257,-192.0944 1254.5257,-157.3609 1254.5257,-157.3609"/>
<polygon fill="transparent" stroke="transparent" points="1258.0258,-157.3609 1254.5257,-147.3609 1251.0258,-157.361 1258.0258,-157.3609"/>
</g>
<!-- BacterialTyper__scripts__fastqc_caller__fastqcObject__get_sample -->
<g id="node14" class="node">
<title>BacterialTyper__scripts__fastqc_caller__fastqcObject__get_sample</title>
<ellipse fill="#6932ff" fill-opacity="0.698039" stroke="#000000" cx="1157" cy="-133" rx="51.1914" ry="18"/>
<text text-anchor="middle" x="1157" y="-129.3" font-family="Times,serif" font-size="14.00" fill="#000000">get_sample</text>
</g>
<!-- BacterialTyper__scripts__fastqc_caller__fastqcObject&#45;&gt;BacterialTyper__scripts__fastqc_caller__fastqcObject__get_sample -->
<g id="edge9" class="edge">
<title>BacterialTyper__scripts__fastqc_caller__fastqcObject&#45;&gt;BacterialTyper__scripts__fastqc_caller__fastqcObject__get_sample</title>
<path fill="none" stroke="transparent" stroke-dasharray="5,2" d="M1190.0502,-194.5915C1190.0502,-194.5915 1190.0502,-156.7998 1190.0502,-156.7998"/>
<polygon fill="transparent" stroke="transparent" points="1193.5503,-156.7998 1190.0502,-146.7998 1186.5503,-156.7999 1193.5503,-156.7998"/>
</g>
<!-- BacterialTyper__scripts__fastqc_caller__fastqcObject__print_header -->
<g id="node15" class="node">
<title>BacterialTyper__scripts__fastqc_caller__fastqcObject__print_header</title>
<ellipse fill="#6932ff" fill-opacity="0.698039" stroke="#000000" cx="1032" cy="-133" rx="55.4913" ry="18"/>
<text text-anchor="middle" x="1032" y="-129.3" font-family="Times,serif" font-size="14.00" fill="#000000">print_header</text>
</g>
<!-- BacterialTyper__scripts__fastqc_caller__fastqcObject&#45;&gt;BacterialTyper__scripts__fastqc_caller__fastqcObject__print_header -->
<g id="edge5" class="edge">
<title>BacterialTyper__scripts__fastqc_caller__fastqcObject&#45;&gt;BacterialTyper__scripts__fastqc_caller__fastqcObject__print_header</title>
<path fill="none" stroke="transparent" stroke-dasharray="5,2" d="M1174.7436,-202C1116.9822,-202 1032,-202 1032,-202 1032,-202 1032,-161.1289 1032,-161.1289"/>
<polygon fill="transparent" stroke="transparent" points="1035.5001,-161.1289 1032,-151.1289 1028.5001,-161.129 1035.5001,-161.1289"/>
</g>
<!-- BacterialTyper__scripts__fastqc_caller__fastqcObject__set_StatisticsFrame -->
<g id="node16" class="node">
<title>BacterialTyper__scripts__fastqc_caller__fastqcObject__set_StatisticsFrame</title>
<ellipse fill="#6932ff" fill-opacity="0.698039" stroke="#000000" cx="879" cy="-133" rx="79.0865" ry="18"/>
<text text-anchor="middle" x="879" y="-129.3" font-family="Times,serif" font-size="14.00" fill="#000000">set_StatisticsFrame</text>
</g>
<!-- BacterialTyper__scripts__fastqc_caller__fastqcObject&#45;&gt;BacterialTyper__scripts__fastqc_caller__fastqcObject__set_StatisticsFrame -->
<g id="edge6" class="edge">
<title>BacterialTyper__scripts__fastqc_caller__fastqcObject&#45;&gt;BacterialTyper__scripts__fastqc_caller__fastqcObject__set_StatisticsFrame</title>
<path fill="none" stroke="transparent" stroke-dasharray="5,2" d="M1171.4736,-208C1073.2237,-208 879,-208 879,-208 879,-208 879,-161.1554 879,-161.1554"/>
<polygon fill="transparent" stroke="transparent" points="882.5001,-161.1554 879,-151.1554 875.5001,-161.1554 882.5001,-161.1554"/>
</g>
<!-- BacterialTyper__scripts__fastqc_caller__fastqcObject__set_StatusFrame -->
<g id="node17" class="node">
<title>BacterialTyper__scripts__fastqc_caller__fastqcObject__set_StatusFrame</title>
<ellipse fill="#6932ff" fill-opacity="0.698039" stroke="#000000" cx="712" cy="-133" rx="69.5877" ry="18"/>
<text text-anchor="middle" x="712" y="-129.3" font-family="Times,serif" font-size="14.00" fill="#000000">set_StatusFrame</text>
</g>
<!-- BacterialTyper__scripts__fastqc_caller__fastqcObject&#45;&gt;BacterialTyper__scripts__fastqc_caller__fastqcObject__set_StatusFrame -->
<g id="edge1" class="edge">
<title>BacterialTyper__scripts__fastqc_caller__fastqcObject&#45;&gt;BacterialTyper__scripts__fastqc_caller__fastqcObject__set_StatusFrame</title>
<path fill="none" stroke="transparent" stroke-dasharray="5,2" d="M1174.7849,-214C1043.857,-214 712,-214 712,-214 712,-214 712,-161.3802 712,-161.3802"/>
<polygon fill="transparent" stroke="transparent" points="715.5001,-161.3801 712,-151.3802 708.5001,-161.3802 715.5001,-161.3801"/>
</g>
<!-- BacterialTyper__scripts__fastqc_caller__fastqcObject__set_sample -->
<g id="node18" class="node">
<title>BacterialTyper__scripts__fastqc_caller__fastqcObject__set_sample</title>
<ellipse fill="#6932ff" fill-opacity="0.698039" stroke="#000000" cx="574" cy="-133" rx="50.0912" ry="18"/>
<text text-anchor="middle" x="574" y="-129.3" font-family="Times,serif" font-size="14.00" fill="#000000">set_sample</text>
</g>
<!-- BacterialTyper__scripts__fastqc_caller__fastqcObject&#45;&gt;BacterialTyper__scripts__fastqc_caller__fastqcObject__set_sample -->
<g id="edge7" class="edge">
<title>BacterialTyper__scripts__fastqc_caller__fastqcObject&#45;&gt;BacterialTyper__scripts__fastqc_caller__fastqcObject__set_sample</title>
<path fill="none" stroke="transparent" stroke-dasharray="5,2" d="M1185.6565,-220C1042.1138,-220 574,-220 574,-220 574,-220 574,-161.0265 574,-161.0265"/>
<polygon fill="transparent" stroke="transparent" points="577.5001,-161.0264 574,-151.0265 570.5001,-161.0265 577.5001,-161.0264"/>
</g>
<!-- BacterialTyper__scripts__fastqc_caller__get_files -->
<g id="node4" class="node">
<title>BacterialTyper__scripts__fastqc_caller__get_files</title>
<ellipse fill="#8e65ff" fill-opacity="0.698039" stroke="#000000" cx="465" cy="-133" rx="40.8928" ry="18"/>
<text text-anchor="middle" x="465" y="-129.3" font-family="Times,serif" font-size="14.00" fill="#000000">get_files</text>
</g>
<!-- BacterialTyper__scripts__fastqc_caller__help_options -->
<g id="node5" class="node">
<title>BacterialTyper__scripts__fastqc_caller__help_options</title>
<ellipse fill="#8e65ff" fill-opacity="0.698039" stroke="#000000" cx="196" cy="-133" rx="55.7903" ry="18"/>
<text text-anchor="middle" x="196" y="-129.3" font-family="Times,serif" font-size="14.00" fill="#000000">help_options</text>
</g>
<!-- BacterialTyper__scripts__fastqc_caller__main -->
<g id="node6" class="node">
<title>BacterialTyper__scripts__fastqc_caller__main</title>
<ellipse fill="#8e65ff" fill-opacity="0.698039" stroke="#000000" cx="284" cy="-208" rx="28.6953" ry="18"/>
<text text-anchor="middle" x="284" y="-204.3" font-family="Times,serif" font-size="14.00" fill="#000000">main</text>
</g>
<!-- BacterialTyper__scripts__fastqc_caller__main&#45;&gt;BacterialTyper__scripts__fastqc_caller__call_fastqc -->
<g id="edge17" class="edge">
<title>BacterialTyper__scripts__fastqc_caller__main&#45;&gt;BacterialTyper__scripts__fastqc_caller__call_fastqc</title>
<path fill="none" stroke="#000000" d="M260.187,-197.7949C260.187,-184.7969 260.187,-164 260.187,-164 260.187,-164 89.2486,-164 89.2486,-164 89.2486,-164 89.2486,-160.3127 89.2486,-160.3127"/>
<polygon fill="#000000" stroke="#000000" points="92.7487,-160.3127 89.2486,-150.3127 85.7487,-160.3127 92.7487,-160.3127"/>
</g>
<!-- BacterialTyper__scripts__fastqc_caller__main&#45;&gt;BacterialTyper__scripts__fastqc_caller__get_files -->
<g id="edge15" class="edge">
<title>BacterialTyper__scripts__fastqc_caller__main&#45;&gt;BacterialTyper__scripts__fastqc_caller__get_files</title>
<path fill="none" stroke="#000000" d="M305.4739,-196C353.4189,-196 465,-196 465,-196 465,-196 465,-161.2222 465,-161.2222"/>
<polygon fill="#000000" stroke="#000000" points="468.5001,-161.2222 465,-151.2222 461.5001,-161.2222 468.5001,-161.2222"/>
</g>
<!-- BacterialTyper__scripts__fastqc_caller__main&#45;&gt;BacterialTyper__scripts__fastqc_caller__help_options -->
<g id="edge14" class="edge">
<title>BacterialTyper__scripts__fastqc_caller__main&#45;&gt;BacterialTyper__scripts__fastqc_caller__help_options</title>
<path fill="none" stroke="#000000" d="M264.9715,-194.2438C264.9715,-172.592 264.9715,-133 264.9715,-133 264.9715,-133 261.9985,-133 261.9985,-133"/>
<polygon fill="#000000" stroke="#000000" points="261.9986,-129.5001 251.9985,-133 261.9985,-136.5001 261.9986,-129.5001"/>
</g>
<!-- BacterialTyper__scripts__fastqc_caller__parse_fastqcFile -->
<g id="node7" class="node">
<title>BacterialTyper__scripts__fastqc_caller__parse_fastqcFile</title>
<ellipse fill="#8e65ff" fill-opacity="0.698039" stroke="#000000" cx="338" cy="-133" rx="68.4888" ry="18"/>
<text text-anchor="middle" x="338" y="-129.3" font-family="Times,serif" font-size="14.00" fill="#000000">parse_fastqcFile</text>
</g>
<!-- BacterialTyper__scripts__fastqc_caller__main&#45;&gt;BacterialTyper__scripts__fastqc_caller__parse_fastqcFile -->
<g id="edge16" class="edge">
<title>BacterialTyper__scripts__fastqc_caller__main&#45;&gt;BacterialTyper__scripts__fastqc_caller__parse_fastqcFile</title>
<path fill="none" stroke="#000000" d="M291.1768,-190.226C291.1768,-190.226 291.1768,-156.1874 291.1768,-156.1874"/>
<polygon fill="#000000" stroke="#000000" points="294.6769,-156.1874 291.1768,-146.1874 287.6769,-156.1875 294.6769,-156.1874"/>
</g>
<!-- BacterialTyper__scripts__fastqc_caller__run_module_fastqc -->
<g id="node8" class="node">
<title>BacterialTyper__scripts__fastqc_caller__run_module_fastqc</title>
<ellipse fill="#8e65ff" fill-opacity="0.698039" stroke="#000000" cx="103" cy="-208" rx="79.0865" ry="18"/>
<text text-anchor="middle" x="103" y="-204.3" font-family="Times,serif" font-size="14.00" fill="#000000">run_module_fastqc</text>
</g>
<!-- BacterialTyper__scripts__fastqc_caller__run_module_fastqc&#45;&gt;BacterialTyper__config__set_config__get_exe -->
<g id="edge13" class="edge">
<title>BacterialTyper__scripts__fastqc_caller__run_module_fastqc&#45;&gt;BacterialTyper__config__set_config__get_exe</title>
<path fill="none" stroke="#000000" d="M161.199,-195.748C161.199,-187.0829 161.199,-177 161.199,-177 161.199,-177 1910,-177 1910,-177 1910,-177 1910,-161.1505 1910,-161.1505"/>
<polygon fill="#000000" stroke="#000000" points="1913.5001,-161.1505 1910,-151.1505 1906.5001,-161.1506 1913.5001,-161.1505"/>
</g>
<!-- BacterialTyper__scripts__fastqc_caller__run_module_fastqc&#45;&gt;BacterialTyper__scripts__fastqc_caller__call_fastqc -->
<g id="edge12" class="edge">
<title>BacterialTyper__scripts__fastqc_caller__run_module_fastqc&#45;&gt;BacterialTyper__scripts__fastqc_caller__call_fastqc</title>
<path fill="none" stroke="#000000" d="M56.7514,-193.1824C56.7514,-193.1824 56.7514,-160.1492 56.7514,-160.1492"/>
<polygon fill="#000000" stroke="#000000" points="60.2515,-160.1492 56.7514,-150.1492 53.2515,-160.1492 60.2515,-160.1492"/>
</g>
</g>
</svg>
