<?xml version="1.0" encoding="UTF-8" standalone="no"?>
<!DOCTYPE svg PUBLIC "-//W3C//DTD SVG 1.1//EN"
 "http://www.w3.org/Graphics/SVG/1.1/DTD/svg11.dtd">
<!-- Generated by graphviz version 2.40.1 (20161225.0304)
 -->
<!-- Title: G Pages: 1 -->
<svg width="2084pt" height="281pt"
 viewBox="0.00 0.00 2084.00 281.00" xmlns="http://www.w3.org/2000/svg" xmlns:xlink="http://www.w3.org/1999/xlink">
<g id="graph0" class="graph" transform="scale(1 1) rotate(0) translate(4 277)">
<title>G</title>
<polygon fill="#ffffff" stroke="transparent" points="-4,4 -4,-277 2080,-277 2080,4 -4,4"/>
<g id="clust1" class="cluster">
<title>cluster_G</title>
<path fill="#808080" fill-opacity="0.094118" stroke="#000000" d="M20,-8C20,-8 2056,-8 2056,-8 2062,-8 2068,-14 2068,-20 2068,-20 2068,-253 2068,-253 2068,-259 2062,-265 2056,-265 2056,-265 20,-265 20,-265 14,-265 8,-259 8,-253 8,-253 8,-20 8,-20 8,-14 14,-8 20,-8"/>
</g>
<g id="clust2" class="cluster">
<title>cluster_BacterialTyper__config__set_config</title>
<path fill="#808080" fill-opacity="0.094118" stroke="#000000" d="M1876,-107C1876,-107 2048,-107 2048,-107 2054,-107 2060,-113 2060,-119 2060,-119 2060,-170 2060,-170 2060,-176 2054,-182 2048,-182 2048,-182 1876,-182 1876,-182 1870,-182 1864,-176 1864,-170 1864,-170 1864,-119 1864,-119 1864,-113 1870,-107 1876,-107"/>
<text text-anchor="middle" x="1962" y="-166.8" font-family="Times,serif" font-size="14.00" fill="#000000">BacterialTyper.config.set_config</text>
</g>
<g id="clust3" class="cluster">
<title>cluster_BacterialTyper__scripts__fastqc_caller</title>
<path fill="#808080" fill-opacity="0.094118" stroke="#000000" d="M28,-99C28,-99 1844,-99 1844,-99 1850,-99 1856,-105 1856,-111 1856,-111 1856,-245 1856,-245 1856,-251 1850,-257 1844,-257 1844,-257 28,-257 28,-257 22,-257 16,-251 16,-245 16,-245 16,-111 16,-111 16,-105 22,-99 28,-99"/>
<text text-anchor="middle" x="936" y="-241.8" font-family="Times,serif" font-size="14.00" fill="#000000">BacterialTyper.scripts.fastqc_caller</text>
</g>
<g id="clust4" class="cluster">
<title>cluster_BacterialTyper__scripts__fastqc_caller__fastqcObject</title>
<path fill="#808080" fill-opacity="0.094118" stroke="#000000" d="M528,-107C528,-107 1836,-107 1836,-107 1842,-107 1848,-113 1848,-119 1848,-119 1848,-170 1848,-170 1848,-176 1842,-182 1836,-182 1836,-182 528,-182 528,-182 522,-182 516,-176 516,-170 516,-170 516,-119 516,-119 516,-113 522,-107 528,-107"/>
<text text-anchor="middle" x="1182" y="-166.8" font-family="Times,serif" font-size="14.00" fill="#000000">BacterialTyper.scripts.fastqc_caller.fastqcObject</text>
</g>
<g id="clust5" class="cluster">
<title>cluster_BacterialTyper__scripts__functions</title>
<path fill="#808080" fill-opacity="0.094118" stroke="#000000" d="M28,-16C28,-16 195,-16 195,-16 201,-16 207,-22 207,-28 207,-28 207,-79 207,-79 207,-85 201,-91 195,-91 195,-91 28,-91 28,-91 22,-91 16,-85 16,-79 16,-79 16,-28 16,-28 16,-22 22,-16 28,-16"/>
<text text-anchor="middle" x="111.5" y="-75.8" font-family="Times,serif" font-size="14.00" fill="#000000">BacterialTyper.scripts.functions</text>
</g>
<!-- BacterialTyper__config__set_config__get_exe -->
<g id="node1" class="node">
<title>BacterialTyper__config__set_config__get_exe</title>
<ellipse fill="#ff8e65" fill-opacity="0.698039" stroke="#000000" cx="1910" cy="-133" rx="38.1938" ry="18"/>
<text text-anchor="middle" x="1910" y="-129.3" font-family="Times,serif" font-size="14.00" fill="#000000">get_exe</text>
</g>
<!-- BacterialTyper__scripts__fastqc_caller__call_fastqc -->
<g id="node2" class="node">
<title>BacterialTyper__scripts__fastqc_caller__call_fastqc</title>
<ellipse fill="#8e65ff" fill-opacity="0.698039" stroke="#000000" cx="73" cy="-133" rx="48.9926" ry="18"/>
<text text-anchor="middle" x="73" y="-129.3" font-family="Times,serif" font-size="14.00" fill="#000000">call_fastqc</text>
</g>
<!-- BacterialTyper__scripts__functions__system_call -->
<g id="node19" class="node">
<title>BacterialTyper__scripts__functions__system_call</title>
<ellipse fill="#a365ff" fill-opacity="0.698039" stroke="#000000" cx="77" cy="-42" rx="52.7911" ry="18"/>
<text text-anchor="middle" x="77" y="-38.3" font-family="Times,serif" font-size="14.00" fill="#000000">system_call</text>
</g>
<!-- BacterialTyper__scripts__fastqc_caller__call_fastqc&#45;&gt;BacterialTyper__scripts__functions__system_call -->
<g id="edge11" class="edge">
<title>BacterialTyper__scripts__fastqc_caller__call_fastqc&#45;&gt;BacterialTyper__scripts__functions__system_call</title>
<path fill="none" stroke="#000000" d="M73.8095,-114.5848C74.3661,-101.9209 75.1162,-84.8558 75.7493,-70.4541"/>
<polygon fill="#000000" stroke="#000000" points="79.2628,-70.2213 76.2054,-60.0773 72.2695,-69.9139 79.2628,-70.2213"/>
</g>
<!-- BacterialTyper__scripts__fastqc_caller__fastqcObject -->
<g id="node3" class="node">
<title>BacterialTyper__scripts__fastqc_caller__fastqcObject</title>
<ellipse fill="#8e65ff" fill-opacity="0.698039" stroke="#000000" cx="1227" cy="-208" rx="55.4913" ry="18"/>
<text text-anchor="middle" x="1227" y="-204.3" font-family="Times,serif" font-size="14.00" fill="#000000">fastqcObject</text>
</g>
<!-- BacterialTyper__scripts__fastqc_caller__fastqcObject____init__ -->
<g id="node9" class="node">
<title>BacterialTyper__scripts__fastqc_caller__fastqcObject____init__</title>
<ellipse fill="#6932ff" fill-opacity="0.698039" stroke="#000000" cx="1800" cy="-133" rx="40.0939" ry="18"/>
<text text-anchor="middle" x="1800" y="-129.3" font-family="Times,serif" font-size="14.00" fill="#000000">__init__</text>
</g>
<!-- BacterialTyper__scripts__fastqc_caller__fastqcObject&#45;&gt;BacterialTyper__scripts__fastqc_caller__fastqcObject____init__ -->
<g id="edge10" class="edge">
<title>BacterialTyper__scripts__fastqc_caller__fastqcObject&#45;&gt;BacterialTyper__scripts__fastqc_caller__fastqcObject____init__</title>
<path fill="none" stroke="transparent" stroke-dasharray="5,2" d="M1282.3138,-207.4628C1408.1162,-205.925 1708.0448,-200.3591 1750,-182 1762.0045,-176.747 1772.7659,-167.2278 1781.202,-157.9675"/>
<polygon fill="transparent" stroke="transparent" points="1783.8779,-160.2236 1787.7177,-150.349 1778.5582,-155.6738 1783.8779,-160.2236"/>
</g>
<!-- BacterialTyper__scripts__fastqc_caller__fastqcObject____repr__ -->
<g id="node10" class="node">
<title>BacterialTyper__scripts__fastqc_caller__fastqcObject____repr__</title>
<ellipse fill="#6932ff" fill-opacity="0.698039" stroke="#000000" cx="1699" cy="-133" rx="42.4939" ry="18"/>
<text text-anchor="middle" x="1699" y="-129.3" font-family="Times,serif" font-size="14.00" fill="#000000">__repr__</text>
</g>
<!-- BacterialTyper__scripts__fastqc_caller__fastqcObject&#45;&gt;BacterialTyper__scripts__fastqc_caller__fastqcObject____repr__ -->
<g id="edge7" class="edge">
<title>BacterialTyper__scripts__fastqc_caller__fastqcObject&#45;&gt;BacterialTyper__scripts__fastqc_caller__fastqcObject____repr__</title>
<path fill="none" stroke="transparent" stroke-dasharray="5,2" d="M1282.1606,-206.7077C1388.7326,-203.9029 1615.3518,-196.3275 1648,-182 1660.122,-176.6803 1671.0792,-167.1506 1679.7028,-157.9005"/>
<polygon fill="transparent" stroke="transparent" points="1682.4106,-160.121 1686.372,-150.2946 1677.1474,-155.5059 1682.4106,-160.121"/>
</g>
<!-- BacterialTyper__scripts__fastqc_caller__fastqcObject____str__ -->
<g id="node11" class="node">
<title>BacterialTyper__scripts__fastqc_caller__fastqcObject____str__</title>
<ellipse fill="#6932ff" fill-opacity="0.698039" stroke="#000000" cx="1602" cy="-133" rx="37.0935" ry="18"/>
<text text-anchor="middle" x="1602" y="-129.3" font-family="Times,serif" font-size="14.00" fill="#000000">__str__</text>
</g>
<!-- BacterialTyper__scripts__fastqc_caller__fastqcObject&#45;&gt;BacterialTyper__scripts__fastqc_caller__fastqcObject____str__ -->
<g id="edge9" class="edge">
<title>BacterialTyper__scripts__fastqc_caller__fastqcObject&#45;&gt;BacterialTyper__scripts__fastqc_caller__fastqcObject____str__</title>
<path fill="none" stroke="transparent" stroke-dasharray="5,2" d="M1281.9571,-205.8194C1369.1903,-202.0354 1531.9855,-193.5386 1556,-182 1567.112,-176.6608 1576.8872,-167.3823 1584.5364,-158.3255"/>
<polygon fill="transparent" stroke="transparent" points="1587.5054,-160.2123 1590.9407,-150.1898 1582.0051,-155.8825 1587.5054,-160.2123"/>
</g>
<!-- BacterialTyper__scripts__fastqc_caller__fastqcObject__get_StatisticsFrame -->
<g id="node12" class="node">
<title>BacterialTyper__scripts__fastqc_caller__fastqcObject__get_StatisticsFrame</title>
<ellipse fill="#6932ff" fill-opacity="0.698039" stroke="#000000" cx="1466" cy="-133" rx="80.6858" ry="18"/>
<text text-anchor="middle" x="1466" y="-129.3" font-family="Times,serif" font-size="14.00" fill="#000000">get_StatisticsFrame</text>
</g>
<!-- BacterialTyper__scripts__fastqc_caller__fastqcObject&#45;&gt;BacterialTyper__scripts__fastqc_caller__fastqcObject__get_StatisticsFrame -->
<g id="edge5" class="edge">
<title>BacterialTyper__scripts__fastqc_caller__fastqcObject&#45;&gt;BacterialTyper__scripts__fastqc_caller__fastqcObject__get_StatisticsFrame</title>
<path fill="none" stroke="transparent" stroke-dasharray="5,2" d="M1280.1206,-202.9912C1309.0473,-199.2125 1345.1321,-192.7687 1376,-182 1395.1338,-175.3249 1415.0585,-164.889 1431.2823,-155.3606"/>
<polygon fill="transparent" stroke="transparent" points="1433.1177,-158.341 1439.8862,-150.19 1429.512,-152.3411 1433.1177,-158.341"/>
</g>
<!-- BacterialTyper__scripts__fastqc_caller__fastqcObject__get_StatusFrame -->
<g id="node13" class="node">
<title>BacterialTyper__scripts__fastqc_caller__fastqcObject__get_StatusFrame</title>
<ellipse fill="#6932ff" fill-opacity="0.698039" stroke="#000000" cx="1297" cy="-133" rx="70.3881" ry="18"/>
<text text-anchor="middle" x="1297" y="-129.3" font-family="Times,serif" font-size="14.00" fill="#000000">get_StatusFrame</text>
</g>
<!-- BacterialTyper__scripts__fastqc_caller__fastqcObject&#45;&gt;BacterialTyper__scripts__fastqc_caller__fastqcObject__get_StatusFrame -->
<g id="edge1" class="edge">
<title>BacterialTyper__scripts__fastqc_caller__fastqcObject&#45;&gt;BacterialTyper__scripts__fastqc_caller__fastqcObject__get_StatusFrame</title>
<path fill="none" stroke="transparent" stroke-dasharray="5,2" d="M1243.2354,-190.605C1252.2703,-180.9247 1263.6738,-168.7067 1273.6513,-158.0165"/>
<polygon fill="transparent" stroke="transparent" points="1276.3457,-160.2592 1280.6102,-150.5605 1271.2283,-155.4829 1276.3457,-160.2592"/>
</g>
<!-- BacterialTyper__scripts__fastqc_caller__fastqcObject__get_sample -->
<g id="node14" class="node">
<title>BacterialTyper__scripts__fastqc_caller__fastqcObject__get_sample</title>
<ellipse fill="#6932ff" fill-opacity="0.698039" stroke="#000000" cx="1157" cy="-133" rx="51.1914" ry="18"/>
<text text-anchor="middle" x="1157" y="-129.3" font-family="Times,serif" font-size="14.00" fill="#000000">get_sample</text>
</g>
<!-- BacterialTyper__scripts__fastqc_caller__fastqcObject&#45;&gt;BacterialTyper__scripts__fastqc_caller__fastqcObject__get_sample -->
<g id="edge6" class="edge">
<title>BacterialTyper__scripts__fastqc_caller__fastqcObject&#45;&gt;BacterialTyper__scripts__fastqc_caller__fastqcObject__get_sample</title>
<path fill="none" stroke="transparent" stroke-dasharray="5,2" d="M1210.7646,-190.605C1201.6647,-180.855 1190.162,-168.5307 1180.1336,-157.786"/>
<polygon fill="transparent" stroke="transparent" points="1182.5292,-155.2231 1173.1473,-150.3007 1177.4118,-159.9994 1182.5292,-155.2231"/>
</g>
<!-- BacterialTyper__scripts__fastqc_caller__fastqcObject__print_header -->
<g id="node15" class="node">
<title>BacterialTyper__scripts__fastqc_caller__fastqcObject__print_header</title>
<ellipse fill="#6932ff" fill-opacity="0.698039" stroke="#000000" cx="1032" cy="-133" rx="55.4913" ry="18"/>
<text text-anchor="middle" x="1032" y="-129.3" font-family="Times,serif" font-size="14.00" fill="#000000">print_header</text>
</g>
<!-- BacterialTyper__scripts__fastqc_caller__fastqcObject&#45;&gt;BacterialTyper__scripts__fastqc_caller__fastqcObject__print_header -->
<g id="edge2" class="edge">
<title>BacterialTyper__scripts__fastqc_caller__fastqcObject&#45;&gt;BacterialTyper__scripts__fastqc_caller__fastqcObject__print_header</title>
<path fill="none" stroke="transparent" stroke-dasharray="5,2" d="M1173.7935,-202.8372C1149.5874,-199.1252 1121.0453,-192.7864 1097,-182 1082.9928,-175.7166 1069.1689,-165.9424 1057.8949,-156.7715"/>
<polygon fill="transparent" stroke="transparent" points="1060.0717,-154.0288 1050.1703,-150.2589 1055.5596,-159.3806 1060.0717,-154.0288"/>
</g>
<!-- BacterialTyper__scripts__fastqc_caller__fastqcObject__set_StatisticsFrame -->
<g id="node16" class="node">
<title>BacterialTyper__scripts__fastqc_caller__fastqcObject__set_StatisticsFrame</title>
<ellipse fill="#6932ff" fill-opacity="0.698039" stroke="#000000" cx="879" cy="-133" rx="79.0865" ry="18"/>
<text text-anchor="middle" x="879" y="-129.3" font-family="Times,serif" font-size="14.00" fill="#000000">set_StatisticsFrame</text>
</g>
<!-- BacterialTyper__scripts__fastqc_caller__fastqcObject&#45;&gt;BacterialTyper__scripts__fastqc_caller__fastqcObject__set_StatisticsFrame -->
<g id="edge3" class="edge">
<title>BacterialTyper__scripts__fastqc_caller__fastqcObject&#45;&gt;BacterialTyper__scripts__fastqc_caller__fastqcObject__set_StatisticsFrame</title>
<path fill="none" stroke="transparent" stroke-dasharray="5,2" d="M1172.2202,-205.0841C1107.7595,-201.2014 1004.8398,-193.463 968,-182 948.5318,-175.9423 928.4989,-165.3647 912.3807,-155.5841"/>
<polygon fill="transparent" stroke="transparent" points="914.1941,-152.5902 903.8573,-150.2662 910.4887,-158.5291 914.1941,-152.5902"/>
</g>
<!-- BacterialTyper__scripts__fastqc_caller__fastqcObject__set_StatusFrame -->
<g id="node17" class="node">
<title>BacterialTyper__scripts__fastqc_caller__fastqcObject__set_StatusFrame</title>
<ellipse fill="#6932ff" fill-opacity="0.698039" stroke="#000000" cx="712" cy="-133" rx="69.5877" ry="18"/>
<text text-anchor="middle" x="712" y="-129.3" font-family="Times,serif" font-size="14.00" fill="#000000">set_StatusFrame</text>
</g>
<!-- BacterialTyper__scripts__fastqc_caller__fastqcObject&#45;&gt;BacterialTyper__scripts__fastqc_caller__fastqcObject__set_StatusFrame -->
<g id="edge8" class="edge">
<title>BacterialTyper__scripts__fastqc_caller__fastqcObject&#45;&gt;BacterialTyper__scripts__fastqc_caller__fastqcObject__set_StatusFrame</title>
<path fill="none" stroke="transparent" stroke-dasharray="5,2" d="M1171.7944,-206.2231C1062.5722,-202.4866 826.3696,-193.2274 791,-182 773.4202,-176.4196 755.7927,-166.0567 741.6635,-156.2932"/>
<polygon fill="transparent" stroke="transparent" points="743.5179,-153.3163 733.3497,-150.3397 739.4423,-159.0075 743.5179,-153.3163"/>
</g>
<!-- BacterialTyper__scripts__fastqc_caller__fastqcObject__set_sample -->
<g id="node18" class="node">
<title>BacterialTyper__scripts__fastqc_caller__fastqcObject__set_sample</title>
<ellipse fill="#6932ff" fill-opacity="0.698039" stroke="#000000" cx="574" cy="-133" rx="50.0912" ry="18"/>
<text text-anchor="middle" x="574" y="-129.3" font-family="Times,serif" font-size="14.00" fill="#000000">set_sample</text>
</g>
<!-- BacterialTyper__scripts__fastqc_caller__fastqcObject&#45;&gt;BacterialTyper__scripts__fastqc_caller__fastqcObject__set_sample -->
<g id="edge4" class="edge">
<title>BacterialTyper__scripts__fastqc_caller__fastqcObject&#45;&gt;BacterialTyper__scripts__fastqc_caller__fastqcObject__set_sample</title>
<path fill="none" stroke="transparent" stroke-dasharray="5,2" d="M1171.545,-207.5838C1033.5668,-206.2634 682.3526,-201.0516 633,-182 619.3402,-176.7269 606.5288,-166.9423 596.3577,-157.4952"/>
<polygon fill="transparent" stroke="transparent" points="598.7194,-154.9092 589.124,-150.417 593.8237,-159.9125 598.7194,-154.9092"/>
</g>
<!-- BacterialTyper__scripts__fastqc_caller__get_files -->
<g id="node4" class="node">
<title>BacterialTyper__scripts__fastqc_caller__get_files</title>
<ellipse fill="#8e65ff" fill-opacity="0.698039" stroke="#000000" cx="465" cy="-133" rx="40.8928" ry="18"/>
<text text-anchor="middle" x="465" y="-129.3" font-family="Times,serif" font-size="14.00" fill="#000000">get_files</text>
</g>
<!-- BacterialTyper__scripts__fastqc_caller__help_options -->
<g id="node5" class="node">
<title>BacterialTyper__scripts__fastqc_caller__help_options</title>
<ellipse fill="#8e65ff" fill-opacity="0.698039" stroke="#000000" cx="196" cy="-133" rx="55.7903" ry="18"/>
<text text-anchor="middle" x="196" y="-129.3" font-family="Times,serif" font-size="14.00" fill="#000000">help_options</text>
</g>
<!-- BacterialTyper__scripts__fastqc_caller__main -->
<g id="node6" class="node">
<title>BacterialTyper__scripts__fastqc_caller__main</title>
<ellipse fill="#8e65ff" fill-opacity="0.698039" stroke="#000000" cx="284" cy="-208" rx="28.6953" ry="18"/>
<text text-anchor="middle" x="284" y="-204.3" font-family="Times,serif" font-size="14.00" fill="#000000">main</text>
</g>
<!-- BacterialTyper__scripts__fastqc_caller__main&#45;&gt;BacterialTyper__scripts__fastqc_caller__call_fastqc -->
<g id="edge14" class="edge">
<title>BacterialTyper__scripts__fastqc_caller__main&#45;&gt;BacterialTyper__scripts__fastqc_caller__call_fastqc</title>
<path fill="none" stroke="#000000" d="M256.8103,-202.3014C238.3068,-198.5308 213.2358,-193.631 191,-190 164.449,-185.6643 155.5971,-192.8965 131,-182 118.0665,-176.2705 105.7844,-166.7342 95.8803,-157.5894"/>
<polygon fill="#000000" stroke="#000000" points="98.0976,-154.8644 88.4802,-150.4197 93.2267,-159.8918 98.0976,-154.8644"/>
</g>
<!-- BacterialTyper__scripts__fastqc_caller__main&#45;&gt;BacterialTyper__scripts__fastqc_caller__get_files -->
<g id="edge17" class="edge">
<title>BacterialTyper__scripts__fastqc_caller__main&#45;&gt;BacterialTyper__scripts__fastqc_caller__get_files</title>
<path fill="none" stroke="#000000" d="M312.2268,-204.3241C345.2144,-199.6957 397.5186,-191.2261 415,-182 426.3065,-176.0328 436.763,-166.6967 445.1592,-157.7676"/>
<polygon fill="#000000" stroke="#000000" points="447.9347,-159.9139 451.9769,-150.1205 442.7097,-155.2556 447.9347,-159.9139"/>
</g>
<!-- BacterialTyper__scripts__fastqc_caller__main&#45;&gt;BacterialTyper__scripts__fastqc_caller__help_options -->
<g id="edge16" class="edge">
<title>BacterialTyper__scripts__fastqc_caller__main&#45;&gt;BacterialTyper__scripts__fastqc_caller__help_options</title>
<path fill="none" stroke="#000000" d="M266.614,-193.1824C254.3875,-182.762 237.7692,-168.5988 223.7256,-156.6298"/>
<polygon fill="#000000" stroke="#000000" points="225.6884,-153.7039 215.8072,-149.8811 221.1478,-159.0315 225.6884,-153.7039"/>
</g>
<!-- BacterialTyper__scripts__fastqc_caller__parse_fastqcFile -->
<g id="node7" class="node">
<title>BacterialTyper__scripts__fastqc_caller__parse_fastqcFile</title>
<ellipse fill="#8e65ff" fill-opacity="0.698039" stroke="#000000" cx="338" cy="-133" rx="68.4888" ry="18"/>
<text text-anchor="middle" x="338" y="-129.3" font-family="Times,serif" font-size="14.00" fill="#000000">parse_fastqcFile</text>
</g>
<!-- BacterialTyper__scripts__fastqc_caller__main&#45;&gt;BacterialTyper__scripts__fastqc_caller__parse_fastqcFile -->
<g id="edge15" class="edge">
<title>BacterialTyper__scripts__fastqc_caller__main&#45;&gt;BacterialTyper__scripts__fastqc_caller__parse_fastqcFile</title>
<path fill="none" stroke="#000000" d="M295.9844,-191.3551C302.8003,-181.8885 311.4881,-169.8221 319.1928,-159.1212"/>
<polygon fill="#000000" stroke="#000000" points="322.1037,-161.0682 325.1064,-150.9078 316.4229,-156.9781 322.1037,-161.0682"/>
</g>
<!-- BacterialTyper__scripts__fastqc_caller__run_module_fastqc -->
<g id="node8" class="node">
<title>BacterialTyper__scripts__fastqc_caller__run_module_fastqc</title>
<ellipse fill="#8e65ff" fill-opacity="0.698039" stroke="#000000" cx="103" cy="-208" rx="79.0865" ry="18"/>
<text text-anchor="middle" x="103" y="-204.3" font-family="Times,serif" font-size="14.00" fill="#000000">run_module_fastqc</text>
</g>
<!-- BacterialTyper__scripts__fastqc_caller__run_module_fastqc&#45;&gt;BacterialTyper__config__set_config__get_exe -->
<g id="edge13" class="edge">
<title>BacterialTyper__scripts__fastqc_caller__run_module_fastqc&#45;&gt;BacterialTyper__config__set_config__get_exe</title>
<path fill="none" stroke="#000000" d="M169.0522,-198.0027C193.2027,-194.7926 220.781,-191.644 246,-190 268.2586,-188.549 1831.0713,-189.7163 1852,-182 1865.7981,-176.9127 1878.585,-166.9536 1888.6216,-157.3351"/>
<polygon fill="#000000" stroke="#000000" points="1891.1974,-159.7079 1895.7318,-150.1324 1886.2157,-154.7902 1891.1974,-159.7079"/>
</g>
<!-- BacterialTyper__scripts__fastqc_caller__run_module_fastqc&#45;&gt;BacterialTyper__scripts__fastqc_caller__call_fastqc -->
<g id="edge12" class="edge">
<title>BacterialTyper__scripts__fastqc_caller__run_module_fastqc&#45;&gt;BacterialTyper__scripts__fastqc_caller__call_fastqc</title>
<path fill="none" stroke="#000000" d="M95.7378,-189.8446C92.2003,-181.0007 87.872,-170.1801 83.9448,-160.3619"/>
<polygon fill="#000000" stroke="#000000" points="87.1589,-158.9731 80.1953,-150.9882 80.6596,-161.5729 87.1589,-158.9731"/>
</g>
</g>
</svg>
