<?xml version="1.0" encoding="UTF-8" standalone="no"?>
<!DOCTYPE svg PUBLIC "-//W3C//DTD SVG 1.1//EN"
 "http://www.w3.org/Graphics/SVG/1.1/DTD/svg11.dtd">
<!-- Generated by graphviz version 2.40.1 (20161225.0304)
 -->
<!-- Title: G Pages: 1 -->
<svg width="1528pt" height="190pt"
 viewBox="0.00 0.00 1528.00 190.00" xmlns="http://www.w3.org/2000/svg" xmlns:xlink="http://www.w3.org/1999/xlink">
<g id="graph0" class="graph" transform="scale(1 1) rotate(0) translate(4 186)">
<title>G</title>
<polygon fill="#ffffff" stroke="transparent" points="-4,4 -4,-186 1524,-186 1524,4 -4,4"/>
<g id="clust1" class="cluster">
<title>cluster_G</title>
<path fill="#808080" fill-opacity="0.094118" stroke="#000000" d="M20,-8C20,-8 1500,-8 1500,-8 1506,-8 1512,-14 1512,-20 1512,-20 1512,-162 1512,-162 1512,-168 1506,-174 1500,-174 1500,-174 20,-174 20,-174 14,-174 8,-168 8,-162 8,-162 8,-20 8,-20 8,-14 14,-8 20,-8"/>
</g>
<g id="clust2" class="cluster">
<title>cluster_BacterialTyper__config__set_config</title>
<path fill="#808080" fill-opacity="0.094118" stroke="#000000" d="M1320,-16C1320,-16 1492,-16 1492,-16 1498,-16 1504,-22 1504,-28 1504,-28 1504,-79 1504,-79 1504,-85 1498,-91 1492,-91 1492,-91 1320,-91 1320,-91 1314,-91 1308,-85 1308,-79 1308,-79 1308,-28 1308,-28 1308,-22 1314,-16 1320,-16"/>
<text text-anchor="middle" x="1406" y="-75.8" font-family="Times,serif" font-size="14.00" fill="#000000">BacterialTyper.config.set_config</text>
</g>
<g id="clust3" class="cluster">
<title>cluster_BacterialTyper__scripts__functions</title>
<path fill="#808080" fill-opacity="0.094118" stroke="#000000" d="M28,-16C28,-16 1288,-16 1288,-16 1294,-16 1300,-22 1300,-28 1300,-28 1300,-154 1300,-154 1300,-160 1294,-166 1288,-166 1288,-166 28,-166 28,-166 22,-166 16,-160 16,-154 16,-154 16,-28 16,-28 16,-22 22,-16 28,-16"/>
<text text-anchor="middle" x="658" y="-150.8" font-family="Times,serif" font-size="14.00" fill="#000000">BacterialTyper.scripts.functions</text>
</g>
<!-- BacterialTyper__config__set_config__get_exe -->
<g id="node1" class="node">
<title>BacterialTyper__config__set_config__get_exe</title>
<ellipse fill="#ff8e65" fill-opacity="0.698039" stroke="#000000" cx="1354" cy="-42" rx="38.1938" ry="18"/>
<text text-anchor="middle" x="1354" y="-38.3" font-family="Times,serif" font-size="14.00" fill="#000000">get_exe</text>
</g>
<!-- BacterialTyper__scripts__functions__blastn -->
<g id="node2" class="node">
<title>BacterialTyper__scripts__functions__blastn</title>
<ellipse fill="#a365ff" fill-opacity="0.698039" stroke="#000000" cx="1130" cy="-117" rx="31.6951" ry="18"/>
<text text-anchor="middle" x="1130" y="-113.3" font-family="Times,serif" font-size="14.00" fill="#000000">blastn</text>
</g>
<!-- BacterialTyper__scripts__functions__blastn&#45;&gt;BacterialTyper__config__set_config__get_exe -->
<g id="edge10" class="edge">
<title>BacterialTyper__scripts__functions__blastn&#45;&gt;BacterialTyper__config__set_config__get_exe</title>
<path fill="none" stroke="#000000" d="M1153.787,-104.8737C1159.3102,-102.5362 1165.2569,-100.3865 1171,-99 1199.7821,-92.0515 1276.9365,-103.0108 1304,-91 1315.977,-85.6846 1326.734,-76.1556 1335.1744,-66.9047"/>
<polygon fill="#000000" stroke="#000000" points="1337.844,-69.1682 1341.6953,-59.2981 1332.5296,-64.6123 1337.844,-69.1682"/>
</g>
<!-- BacterialTyper__scripts__functions__system_call -->
<g id="node14" class="node">
<title>BacterialTyper__scripts__functions__system_call</title>
<ellipse fill="#a365ff" fill-opacity="0.698039" stroke="#000000" cx="1066" cy="-42" rx="52.7911" ry="18"/>
<text text-anchor="middle" x="1066" y="-38.3" font-family="Times,serif" font-size="14.00" fill="#000000">system_call</text>
</g>
<!-- BacterialTyper__scripts__functions__blastn&#45;&gt;BacterialTyper__scripts__functions__system_call -->
<g id="edge9" class="edge">
<title>BacterialTyper__scripts__functions__blastn&#45;&gt;BacterialTyper__scripts__functions__system_call</title>
<path fill="none" stroke="#000000" d="M1116.113,-100.7261C1107.7113,-90.8805 1096.8259,-78.1241 1087.3478,-67.017"/>
<polygon fill="#000000" stroke="#000000" points="1089.9043,-64.6209 1080.7507,-59.286 1084.5795,-69.1648 1089.9043,-64.6209"/>
</g>
<!-- BacterialTyper__scripts__functions__concat_fasta -->
<g id="node3" class="node">
<title>BacterialTyper__scripts__functions__concat_fasta</title>
<ellipse fill="#a365ff" fill-opacity="0.698039" stroke="#000000" cx="854" cy="-117" rx="54.6905" ry="18"/>
<text text-anchor="middle" x="854" y="-113.3" font-family="Times,serif" font-size="14.00" fill="#000000">concat_fasta</text>
</g>
<!-- BacterialTyper__scripts__functions__concat_fasta&#45;&gt;BacterialTyper__scripts__functions__system_call -->
<g id="edge11" class="edge">
<title>BacterialTyper__scripts__functions__concat_fasta&#45;&gt;BacterialTyper__scripts__functions__system_call</title>
<path fill="none" stroke="#000000" d="M891.4133,-103.7641C927.095,-91.1409 980.9475,-72.0893 1019.3998,-58.4859"/>
<polygon fill="#000000" stroke="#000000" points="1021.0553,-61.6129 1029.3154,-54.978 1018.7206,-55.0137 1021.0553,-61.6129"/>
</g>
<!-- BacterialTyper__scripts__functions__create_subfolder -->
<g id="node4" class="node">
<title>BacterialTyper__scripts__functions__create_subfolder</title>
<ellipse fill="#a365ff" fill-opacity="0.698039" stroke="#000000" cx="563" cy="-42" rx="69.5877" ry="18"/>
<text text-anchor="middle" x="563" y="-38.3" font-family="Times,serif" font-size="14.00" fill="#000000">create_subfolder</text>
</g>
<!-- BacterialTyper__scripts__functions__get_fullpath_list -->
<g id="node5" class="node">
<title>BacterialTyper__scripts__functions__get_fullpath_list</title>
<ellipse fill="#a365ff" fill-opacity="0.698039" stroke="#000000" cx="119" cy="-42" rx="68.4888" ry="18"/>
<text text-anchor="middle" x="119" y="-38.3" font-family="Times,serif" font-size="14.00" fill="#000000">get_fullpath_list</text>
</g>
<!-- BacterialTyper__scripts__functions__get_symbolic_link -->
<g id="node6" class="node">
<title>BacterialTyper__scripts__functions__get_symbolic_link</title>
<ellipse fill="#a365ff" fill-opacity="0.698039" stroke="#000000" cx="1003" cy="-117" rx="76.8869" ry="18"/>
<text text-anchor="middle" x="1003" y="-113.3" font-family="Times,serif" font-size="14.00" fill="#000000">get_symbolic_link</text>
</g>
<!-- BacterialTyper__scripts__functions__get_symbolic_link&#45;&gt;BacterialTyper__scripts__functions__system_call -->
<g id="edge5" class="edge">
<title>BacterialTyper__scripts__functions__get_symbolic_link&#45;&gt;BacterialTyper__scripts__functions__system_call</title>
<path fill="none" stroke="#000000" d="M1017.9301,-99.226C1025.9909,-89.6299 1036.0754,-77.6245 1044.9233,-67.0913"/>
<polygon fill="#000000" stroke="#000000" points="1047.6424,-69.2959 1051.3944,-59.3876 1042.2824,-64.7935 1047.6424,-69.2959"/>
</g>
<!-- BacterialTyper__scripts__functions__gettime -->
<g id="node7" class="node">
<title>BacterialTyper__scripts__functions__gettime</title>
<ellipse fill="#a365ff" fill-opacity="0.698039" stroke="#000000" cx="280" cy="-42" rx="37.8943" ry="18"/>
<text text-anchor="middle" x="280" y="-38.3" font-family="Times,serif" font-size="14.00" fill="#000000">gettime</text>
</g>
<!-- BacterialTyper__scripts__functions__makeblastdb -->
<g id="node8" class="node">
<title>BacterialTyper__scripts__functions__makeblastdb</title>
<ellipse fill="#a365ff" fill-opacity="0.698039" stroke="#000000" cx="1236" cy="-117" rx="55.7903" ry="18"/>
<text text-anchor="middle" x="1236" y="-113.3" font-family="Times,serif" font-size="14.00" fill="#000000">makeblastdb</text>
</g>
<!-- BacterialTyper__scripts__functions__makeblastdb&#45;&gt;BacterialTyper__config__set_config__get_exe -->
<g id="edge8" class="edge">
<title>BacterialTyper__scripts__functions__makeblastdb&#45;&gt;BacterialTyper__config__set_config__get_exe</title>
<path fill="none" stroke="#000000" d="M1276.8726,-104.4892C1286.1471,-100.8146 1295.7015,-96.322 1304,-91 1314.6033,-84.1999 1324.8162,-74.8746 1333.217,-66.1834"/>
<polygon fill="#000000" stroke="#000000" points="1335.8481,-68.4937 1340.0972,-58.7883 1330.7231,-63.7256 1335.8481,-68.4937"/>
</g>
<!-- BacterialTyper__scripts__functions__makeblastdb&#45;&gt;BacterialTyper__scripts__functions__system_call -->
<g id="edge7" class="edge">
<title>BacterialTyper__scripts__functions__makeblastdb&#45;&gt;BacterialTyper__scripts__functions__system_call</title>
<path fill="none" stroke="#000000" d="M1202.8187,-102.3612C1175.6152,-90.3596 1136.9608,-73.3062 1107.6734,-60.3853"/>
<polygon fill="#000000" stroke="#000000" points="1109.082,-57.1813 1098.5201,-56.3471 1106.2565,-63.5858 1109.082,-57.1813"/>
</g>
<!-- BacterialTyper__scripts__functions__outdir_project -->
<g id="node9" class="node">
<title>BacterialTyper__scripts__functions__outdir_project</title>
<ellipse fill="#a365ff" fill-opacity="0.698039" stroke="#000000" cx="558" cy="-117" rx="60.3893" ry="18"/>
<text text-anchor="middle" x="558" y="-113.3" font-family="Times,serif" font-size="14.00" fill="#000000">outdir_project</text>
</g>
<!-- BacterialTyper__scripts__functions__outdir_project&#45;&gt;BacterialTyper__scripts__functions__create_subfolder -->
<g id="edge3" class="edge">
<title>BacterialTyper__scripts__functions__outdir_project&#45;&gt;BacterialTyper__scripts__functions__create_subfolder</title>
<path fill="none" stroke="#000000" d="M559.2104,-98.8446C559.7773,-90.3401 560.4662,-80.0076 561.1002,-70.4964"/>
<polygon fill="#000000" stroke="#000000" points="564.6104,-70.4589 561.7835,-60.2482 557.6259,-69.9932 564.6104,-70.4589"/>
</g>
<!-- BacterialTyper__scripts__functions__outdir_subproject -->
<g id="node10" class="node">
<title>BacterialTyper__scripts__functions__outdir_subproject</title>
<ellipse fill="#a365ff" fill-opacity="0.698039" stroke="#000000" cx="709" cy="-117" rx="72.5877" ry="18"/>
<text text-anchor="middle" x="709" y="-113.3" font-family="Times,serif" font-size="14.00" fill="#000000">outdir_subproject</text>
</g>
<!-- BacterialTyper__scripts__functions__outdir_subproject&#45;&gt;BacterialTyper__scripts__functions__create_subfolder -->
<g id="edge4" class="edge">
<title>BacterialTyper__scripts__functions__outdir_subproject&#45;&gt;BacterialTyper__scripts__functions__create_subfolder</title>
<path fill="none" stroke="#000000" d="M677.3202,-100.7261C655.6269,-89.5823 626.6746,-74.7096 603.3347,-62.7199"/>
<polygon fill="#000000" stroke="#000000" points="604.8612,-59.5693 594.3669,-58.1131 601.6626,-65.7958 604.8612,-59.5693"/>
</g>
<!-- BacterialTyper__scripts__functions__pipeline_header -->
<g id="node11" class="node">
<title>BacterialTyper__scripts__functions__pipeline_header</title>
<ellipse fill="#a365ff" fill-opacity="0.698039" stroke="#000000" cx="413" cy="-117" rx="66.8882" ry="18"/>
<text text-anchor="middle" x="413" y="-113.3" font-family="Times,serif" font-size="14.00" fill="#000000">pipeline_header</text>
</g>
<!-- BacterialTyper__scripts__functions__print_sepLine -->
<g id="node12" class="node">
<title>BacterialTyper__scripts__functions__print_sepLine</title>
<ellipse fill="#a365ff" fill-opacity="0.698039" stroke="#000000" cx="408" cy="-42" rx="59.5901" ry="18"/>
<text text-anchor="middle" x="408" y="-38.3" font-family="Times,serif" font-size="14.00" fill="#000000">print_sepLine</text>
</g>
<!-- BacterialTyper__scripts__functions__pipeline_header&#45;&gt;BacterialTyper__scripts__functions__print_sepLine -->
<g id="edge12" class="edge">
<title>BacterialTyper__scripts__functions__pipeline_header&#45;&gt;BacterialTyper__scripts__functions__print_sepLine</title>
<path fill="none" stroke="#000000" d="M411.7896,-98.8446C411.2227,-90.3401 410.5338,-80.0076 409.8998,-70.4964"/>
<polygon fill="#000000" stroke="#000000" points="413.3741,-69.9932 409.2165,-60.2482 406.3896,-70.4589 413.3741,-69.9932"/>
</g>
<!-- BacterialTyper__scripts__functions__retrieve_matching_files -->
<g id="node13" class="node">
<title>BacterialTyper__scripts__functions__retrieve_matching_files</title>
<ellipse fill="#a365ff" fill-opacity="0.698039" stroke="#000000" cx="119" cy="-117" rx="94.7833" ry="18"/>
<text text-anchor="middle" x="119" y="-113.3" font-family="Times,serif" font-size="14.00" fill="#000000">retrieve_matching_files</text>
</g>
<!-- BacterialTyper__scripts__functions__retrieve_matching_files&#45;&gt;BacterialTyper__scripts__functions__get_fullpath_list -->
<g id="edge6" class="edge">
<title>BacterialTyper__scripts__functions__retrieve_matching_files&#45;&gt;BacterialTyper__scripts__functions__get_fullpath_list</title>
<path fill="none" stroke="#000000" d="M119,-98.8446C119,-90.3401 119,-80.0076 119,-70.4964"/>
<polygon fill="#000000" stroke="#000000" points="122.5001,-70.2481 119,-60.2482 115.5001,-70.2482 122.5001,-70.2481"/>
</g>
<!-- BacterialTyper__scripts__functions__timestamp -->
<g id="node15" class="node">
<title>BacterialTyper__scripts__functions__timestamp</title>
<ellipse fill="#a365ff" fill-opacity="0.698039" stroke="#000000" cx="280" cy="-117" rx="48.1917" ry="18"/>
<text text-anchor="middle" x="280" y="-113.3" font-family="Times,serif" font-size="14.00" fill="#000000">timestamp</text>
</g>
<!-- BacterialTyper__scripts__functions__timestamp&#45;&gt;BacterialTyper__scripts__functions__gettime -->
<g id="edge1" class="edge">
<title>BacterialTyper__scripts__functions__timestamp&#45;&gt;BacterialTyper__scripts__functions__gettime</title>
<path fill="none" stroke="#000000" d="M280,-98.8446C280,-90.3401 280,-80.0076 280,-70.4964"/>
<polygon fill="#000000" stroke="#000000" points="283.5001,-70.2481 280,-60.2482 276.5001,-70.2482 283.5001,-70.2481"/>
</g>
<!-- BacterialTyper__scripts__functions__timestamp&#45;&gt;BacterialTyper__scripts__functions__print_sepLine -->
<g id="edge2" class="edge">
<title>BacterialTyper__scripts__functions__timestamp&#45;&gt;BacterialTyper__scripts__functions__print_sepLine</title>
<path fill="none" stroke="#000000" d="M307.4388,-102.0547C313.8826,-98.4804 320.7048,-94.6435 327,-91 342.0526,-82.2879 358.5011,-72.4058 372.6195,-63.8096"/>
<polygon fill="#000000" stroke="#000000" points="374.8131,-66.571 381.5228,-58.3716 371.1643,-60.5972 374.8131,-66.571"/>
</g>
</g>
</svg>
