<?xml version="1.0" encoding="UTF-8" standalone="no"?>
<!DOCTYPE svg PUBLIC "-//W3C//DTD SVG 1.1//EN"
 "http://www.w3.org/Graphics/SVG/1.1/DTD/svg11.dtd">
<!-- Generated by graphviz version 2.40.1 (20161225.0304)
 -->
<!-- Title: G Pages: 1 -->
<svg width="1528pt" height="190pt"
 viewBox="0.00 0.00 1528.00 190.00" xmlns="http://www.w3.org/2000/svg" xmlns:xlink="http://www.w3.org/1999/xlink">
<g id="graph0" class="graph" transform="scale(1 1) rotate(0) translate(4 186)">
<title>G</title>
<polygon fill="#ffffff" stroke="transparent" points="-4,4 -4,-186 1524,-186 1524,4 -4,4"/>
<g id="clust1" class="cluster">
<title>cluster_G</title>
<path fill="#808080" fill-opacity="0.094118" stroke="#000000" d="M20,-8C20,-8 1500,-8 1500,-8 1506,-8 1512,-14 1512,-20 1512,-20 1512,-162 1512,-162 1512,-168 1506,-174 1500,-174 1500,-174 20,-174 20,-174 14,-174 8,-168 8,-162 8,-162 8,-20 8,-20 8,-14 14,-8 20,-8"/>
</g>
<g id="clust2" class="cluster">
<title>cluster_BacterialTyper__config__set_config</title>
<path fill="#808080" fill-opacity="0.094118" stroke="#000000" d="M1320,-16C1320,-16 1492,-16 1492,-16 1498,-16 1504,-22 1504,-28 1504,-28 1504,-79 1504,-79 1504,-85 1498,-91 1492,-91 1492,-91 1320,-91 1320,-91 1314,-91 1308,-85 1308,-79 1308,-79 1308,-28 1308,-28 1308,-22 1314,-16 1320,-16"/>
<text text-anchor="middle" x="1406" y="-75.8" font-family="Times,serif" font-size="14.00" fill="#000000">BacterialTyper.config.set_config</text>
</g>
<g id="clust3" class="cluster">
<title>cluster_BacterialTyper__scripts__functions</title>
<path fill="#808080" fill-opacity="0.094118" stroke="#000000" d="M28,-16C28,-16 1288,-16 1288,-16 1294,-16 1300,-22 1300,-28 1300,-28 1300,-154 1300,-154 1300,-160 1294,-166 1288,-166 1288,-166 28,-166 28,-166 22,-166 16,-160 16,-154 16,-154 16,-28 16,-28 16,-22 22,-16 28,-16"/>
<text text-anchor="middle" x="658" y="-150.8" font-family="Times,serif" font-size="14.00" fill="#000000">BacterialTyper.scripts.functions</text>
</g>
<!-- BacterialTyper__config__set_config__get_exe -->
<g id="node1" class="node">
<title>BacterialTyper__config__set_config__get_exe</title>
<ellipse fill="#ff8e65" fill-opacity="0.698039" stroke="#000000" cx="1354" cy="-42" rx="38.1938" ry="18"/>
<text text-anchor="middle" x="1354" y="-38.3" font-family="Times,serif" font-size="14.00" fill="#000000">get_exe</text>
</g>
<!-- BacterialTyper__scripts__functions__blastn -->
<g id="node2" class="node">
<title>BacterialTyper__scripts__functions__blastn</title>
<ellipse fill="#a365ff" fill-opacity="0.698039" stroke="#000000" cx="1130" cy="-117" rx="31.6951" ry="18"/>
<text text-anchor="middle" x="1130" y="-113.3" font-family="Times,serif" font-size="14.00" fill="#000000">blastn</text>
</g>
<!-- BacterialTyper__scripts__functions__blastn&#45;&gt;BacterialTyper__config__set_config__get_exe -->
<g id="edge10" class="edge">
<title>BacterialTyper__scripts__functions__blastn&#45;&gt;BacterialTyper__config__set_config__get_exe</title>
<path fill="none" stroke="#000000" d="M1140.2463,-99.822C1140.2463,-76.0452 1140.2463,-36 1140.2463,-36 1140.2463,-36 1307.7396,-36 1307.7396,-36"/>
<polygon fill="#000000" stroke="#000000" points="1307.7396,-39.5001 1317.7396,-36 1307.7396,-32.5001 1307.7396,-39.5001"/>
</g>
<!-- BacterialTyper__scripts__functions__system_call -->
<g id="node14" class="node">
<title>BacterialTyper__scripts__functions__system_call</title>
<ellipse fill="#a365ff" fill-opacity="0.698039" stroke="#000000" cx="1066" cy="-42" rx="52.7911" ry="18"/>
<text text-anchor="middle" x="1066" y="-38.3" font-family="Times,serif" font-size="14.00" fill="#000000">system_call</text>
</g>
<!-- BacterialTyper__scripts__functions__blastn&#45;&gt;BacterialTyper__scripts__functions__system_call -->
<g id="edge9" class="edge">
<title>BacterialTyper__scripts__functions__blastn&#45;&gt;BacterialTyper__scripts__functions__system_call</title>
<path fill="none" stroke="#000000" d="M1108.3991,-103.5915C1108.3991,-103.5915 1108.3991,-62.8606 1108.3991,-62.8606"/>
<polygon fill="#000000" stroke="#000000" points="1111.8992,-62.8605 1108.3991,-52.8606 1104.8992,-62.8606 1111.8992,-62.8605"/>
</g>
<!-- BacterialTyper__scripts__functions__concat_fasta -->
<g id="node3" class="node">
<title>BacterialTyper__scripts__functions__concat_fasta</title>
<ellipse fill="#a365ff" fill-opacity="0.698039" stroke="#000000" cx="854" cy="-117" rx="54.6905" ry="18"/>
<text text-anchor="middle" x="854" y="-113.3" font-family="Times,serif" font-size="14.00" fill="#000000">concat_fasta</text>
</g>
<!-- BacterialTyper__scripts__functions__concat_fasta&#45;&gt;BacterialTyper__scripts__functions__system_call -->
<g id="edge11" class="edge">
<title>BacterialTyper__scripts__functions__concat_fasta&#45;&gt;BacterialTyper__scripts__functions__system_call</title>
<path fill="none" stroke="#000000" d="M854,-98.8446C854,-76.6481 854,-42 854,-42 854,-42 1003.3231,-42 1003.3231,-42"/>
<polygon fill="#000000" stroke="#000000" points="1003.3232,-45.5001 1013.3231,-42 1003.3231,-38.5001 1003.3232,-45.5001"/>
</g>
<!-- BacterialTyper__scripts__functions__create_subfolder -->
<g id="node4" class="node">
<title>BacterialTyper__scripts__functions__create_subfolder</title>
<ellipse fill="#a365ff" fill-opacity="0.698039" stroke="#000000" cx="563" cy="-42" rx="69.5877" ry="18"/>
<text text-anchor="middle" x="563" y="-38.3" font-family="Times,serif" font-size="14.00" fill="#000000">create_subfolder</text>
</g>
<!-- BacterialTyper__scripts__functions__get_fullpath_list -->
<g id="node5" class="node">
<title>BacterialTyper__scripts__functions__get_fullpath_list</title>
<ellipse fill="#a365ff" fill-opacity="0.698039" stroke="#000000" cx="119" cy="-42" rx="68.4888" ry="18"/>
<text text-anchor="middle" x="119" y="-38.3" font-family="Times,serif" font-size="14.00" fill="#000000">get_fullpath_list</text>
</g>
<!-- BacterialTyper__scripts__functions__get_symbolic_link -->
<g id="node6" class="node">
<title>BacterialTyper__scripts__functions__get_symbolic_link</title>
<ellipse fill="#a365ff" fill-opacity="0.698039" stroke="#000000" cx="1003" cy="-117" rx="76.8869" ry="18"/>
<text text-anchor="middle" x="1003" y="-113.3" font-family="Times,serif" font-size="14.00" fill="#000000">get_symbolic_link</text>
</g>
<!-- BacterialTyper__scripts__functions__get_symbolic_link&#45;&gt;BacterialTyper__scripts__functions__system_call -->
<g id="edge5" class="edge">
<title>BacterialTyper__scripts__functions__get_symbolic_link&#45;&gt;BacterialTyper__scripts__functions__system_call</title>
<path fill="none" stroke="#000000" d="M1046.5239,-101.8226C1046.5239,-101.8226 1046.5239,-68.9864 1046.5239,-68.9864"/>
<polygon fill="#000000" stroke="#000000" points="1050.024,-68.9864 1046.5239,-58.9864 1043.024,-68.9865 1050.024,-68.9864"/>
</g>
<!-- BacterialTyper__scripts__functions__gettime -->
<g id="node7" class="node">
<title>BacterialTyper__scripts__functions__gettime</title>
<ellipse fill="#a365ff" fill-opacity="0.698039" stroke="#000000" cx="280" cy="-42" rx="37.8943" ry="18"/>
<text text-anchor="middle" x="280" y="-38.3" font-family="Times,serif" font-size="14.00" fill="#000000">gettime</text>
</g>
<!-- BacterialTyper__scripts__functions__makeblastdb -->
<g id="node8" class="node">
<title>BacterialTyper__scripts__functions__makeblastdb</title>
<ellipse fill="#a365ff" fill-opacity="0.698039" stroke="#000000" cx="1236" cy="-117" rx="55.7903" ry="18"/>
<text text-anchor="middle" x="1236" y="-113.3" font-family="Times,serif" font-size="14.00" fill="#000000">makeblastdb</text>
</g>
<!-- BacterialTyper__scripts__functions__makeblastdb&#45;&gt;BacterialTyper__config__set_config__get_exe -->
<g id="edge8" class="edge">
<title>BacterialTyper__scripts__functions__makeblastdb&#45;&gt;BacterialTyper__config__set_config__get_exe</title>
<path fill="none" stroke="#000000" d="M1292.2353,-117C1322.6274,-117 1354,-117 1354,-117 1354,-117 1354,-70.1554 1354,-70.1554"/>
<polygon fill="#000000" stroke="#000000" points="1357.5001,-70.1554 1354,-60.1554 1350.5001,-70.1554 1357.5001,-70.1554"/>
</g>
<!-- BacterialTyper__scripts__functions__makeblastdb&#45;&gt;BacterialTyper__scripts__functions__system_call -->
<g id="edge7" class="edge">
<title>BacterialTyper__scripts__functions__makeblastdb&#45;&gt;BacterialTyper__scripts__functions__system_call</title>
<path fill="none" stroke="#000000" d="M1236,-98.8711C1236,-78.4276 1236,-48 1236,-48 1236,-48 1126.0861,-48 1126.0861,-48"/>
<polygon fill="#000000" stroke="#000000" points="1126.0862,-44.5001 1116.0861,-48 1126.0861,-51.5001 1126.0862,-44.5001"/>
</g>
<!-- BacterialTyper__scripts__functions__outdir_project -->
<g id="node9" class="node">
<title>BacterialTyper__scripts__functions__outdir_project</title>
<ellipse fill="#a365ff" fill-opacity="0.698039" stroke="#000000" cx="558" cy="-117" rx="60.3893" ry="18"/>
<text text-anchor="middle" x="558" y="-113.3" font-family="Times,serif" font-size="14.00" fill="#000000">outdir_project</text>
</g>
<!-- BacterialTyper__scripts__functions__outdir_project&#45;&gt;BacterialTyper__scripts__functions__create_subfolder -->
<g id="edge3" class="edge">
<title>BacterialTyper__scripts__functions__outdir_project&#45;&gt;BacterialTyper__scripts__functions__create_subfolder</title>
<path fill="none" stroke="#000000" d="M558,-98.8446C558,-98.8446 558,-69.9882 558,-69.9882"/>
<polygon fill="#000000" stroke="#000000" points="561.5001,-69.9882 558,-59.9882 554.5001,-69.9882 561.5001,-69.9882"/>
</g>
<!-- BacterialTyper__scripts__functions__outdir_subproject -->
<g id="node10" class="node">
<title>BacterialTyper__scripts__functions__outdir_subproject</title>
<ellipse fill="#a365ff" fill-opacity="0.698039" stroke="#000000" cx="709" cy="-117" rx="72.5877" ry="18"/>
<text text-anchor="middle" x="709" y="-113.3" font-family="Times,serif" font-size="14.00" fill="#000000">outdir_subproject</text>
</g>
<!-- BacterialTyper__scripts__functions__outdir_subproject&#45;&gt;BacterialTyper__scripts__functions__create_subfolder -->
<g id="edge4" class="edge">
<title>BacterialTyper__scripts__functions__outdir_subproject&#45;&gt;BacterialTyper__scripts__functions__create_subfolder</title>
<path fill="none" stroke="#000000" d="M636.0703,-117C629.6341,-117 625.4942,-117 625.4942,-117 625.4942,-117 625.4942,-60.0263 625.4942,-60.0263"/>
<polygon fill="#000000" stroke="#000000" points="628.9943,-60.0263 625.4942,-50.0263 621.9943,-60.0263 628.9943,-60.0263"/>
</g>
<!-- BacterialTyper__scripts__functions__pipeline_header -->
<g id="node11" class="node">
<title>BacterialTyper__scripts__functions__pipeline_header</title>
<ellipse fill="#a365ff" fill-opacity="0.698039" stroke="#000000" cx="413" cy="-117" rx="66.8882" ry="18"/>
<text text-anchor="middle" x="413" y="-113.3" font-family="Times,serif" font-size="14.00" fill="#000000">pipeline_header</text>
</g>
<!-- BacterialTyper__scripts__functions__print_sepLine -->
<g id="node12" class="node">
<title>BacterialTyper__scripts__functions__print_sepLine</title>
<ellipse fill="#a365ff" fill-opacity="0.698039" stroke="#000000" cx="408" cy="-42" rx="59.5901" ry="18"/>
<text text-anchor="middle" x="408" y="-38.3" font-family="Times,serif" font-size="14.00" fill="#000000">print_sepLine</text>
</g>
<!-- BacterialTyper__scripts__functions__pipeline_header&#45;&gt;BacterialTyper__scripts__functions__print_sepLine -->
<g id="edge12" class="edge">
<title>BacterialTyper__scripts__functions__pipeline_header&#45;&gt;BacterialTyper__scripts__functions__print_sepLine</title>
<path fill="none" stroke="#000000" d="M408,-98.8446C408,-98.8446 408,-70.2482 408,-70.2482"/>
<polygon fill="#000000" stroke="#000000" points="411.5001,-70.2481 408,-60.2482 404.5001,-70.2482 411.5001,-70.2481"/>
</g>
<!-- BacterialTyper__scripts__functions__retrieve_matching_files -->
<g id="node13" class="node">
<title>BacterialTyper__scripts__functions__retrieve_matching_files</title>
<ellipse fill="#a365ff" fill-opacity="0.698039" stroke="#000000" cx="119" cy="-117" rx="94.7833" ry="18"/>
<text text-anchor="middle" x="119" y="-113.3" font-family="Times,serif" font-size="14.00" fill="#000000">retrieve_matching_files</text>
</g>
<!-- BacterialTyper__scripts__functions__retrieve_matching_files&#45;&gt;BacterialTyper__scripts__functions__get_fullpath_list -->
<g id="edge6" class="edge">
<title>BacterialTyper__scripts__functions__retrieve_matching_files&#45;&gt;BacterialTyper__scripts__functions__get_fullpath_list</title>
<path fill="none" stroke="#000000" d="M119,-98.8446C119,-98.8446 119,-70.2482 119,-70.2482"/>
<polygon fill="#000000" stroke="#000000" points="122.5001,-70.2481 119,-60.2482 115.5001,-70.2482 122.5001,-70.2481"/>
</g>
<!-- BacterialTyper__scripts__functions__timestamp -->
<g id="node15" class="node">
<title>BacterialTyper__scripts__functions__timestamp</title>
<ellipse fill="#a365ff" fill-opacity="0.698039" stroke="#000000" cx="280" cy="-117" rx="48.1917" ry="18"/>
<text text-anchor="middle" x="280" y="-113.3" font-family="Times,serif" font-size="14.00" fill="#000000">timestamp</text>
</g>
<!-- BacterialTyper__scripts__functions__timestamp&#45;&gt;BacterialTyper__scripts__functions__gettime -->
<g id="edge1" class="edge">
<title>BacterialTyper__scripts__functions__timestamp&#45;&gt;BacterialTyper__scripts__functions__gettime</title>
<path fill="none" stroke="#000000" d="M280,-98.8446C280,-98.8446 280,-70.2482 280,-70.2482"/>
<polygon fill="#000000" stroke="#000000" points="283.5001,-70.2481 280,-60.2482 276.5001,-70.2482 283.5001,-70.2481"/>
</g>
<!-- BacterialTyper__scripts__functions__timestamp&#45;&gt;BacterialTyper__scripts__functions__print_sepLine -->
<g id="edge2" class="edge">
<title>BacterialTyper__scripts__functions__timestamp&#45;&gt;BacterialTyper__scripts__functions__print_sepLine</title>
<path fill="none" stroke="#000000" d="M322.8962,-108.6871C322.8962,-89.16 322.8962,-42 322.8962,-42 322.8962,-42 337.9698,-42 337.9698,-42"/>
<polygon fill="#000000" stroke="#000000" points="337.9699,-45.5001 347.9698,-42 337.9698,-38.5001 337.9699,-45.5001"/>
</g>
</g>
</svg>
