<?xml version="1.0" encoding="UTF-8" standalone="no"?>
<!DOCTYPE svg PUBLIC "-//W3C//DTD SVG 1.1//EN"
 "http://www.w3.org/Graphics/SVG/1.1/DTD/svg11.dtd">
<!-- Generated by graphviz version 2.40.1 (20161225.0304)
 -->
<!-- Title: G Pages: 1 -->
<svg width="587pt" height="115pt"
 viewBox="0.00 0.00 587.00 115.00" xmlns="http://www.w3.org/2000/svg" xmlns:xlink="http://www.w3.org/1999/xlink">
<g id="graph0" class="graph" transform="scale(1 1) rotate(0) translate(4 111)">
<title>G</title>
<polygon fill="#ffffff" stroke="transparent" points="-4,4 -4,-111 583,-111 583,4 -4,4"/>
<g id="clust1" class="cluster">
<title>cluster_G</title>
<path fill="#808080" fill-opacity="0.094118" stroke="#000000" d="M20,-8C20,-8 559,-8 559,-8 565,-8 571,-14 571,-20 571,-20 571,-87 571,-87 571,-93 565,-99 559,-99 559,-99 20,-99 20,-99 14,-99 8,-93 8,-87 8,-87 8,-20 8,-20 8,-14 14,-8 20,-8"/>
</g>
<g id="clust2" class="cluster">
<title>cluster_BacterialTyper__scripts__genomic_island</title>
<path fill="#808080" fill-opacity="0.094118" stroke="#000000" d="M333,-16C333,-16 551,-16 551,-16 557,-16 563,-22 563,-28 563,-28 563,-79 563,-79 563,-85 557,-91 551,-91 551,-91 333,-91 333,-91 327,-91 321,-85 321,-79 321,-79 321,-28 321,-28 321,-22 327,-16 333,-16"/>
<text text-anchor="middle" x="442" y="-75.8" font-family="Times,serif" font-size="14.00" fill="#000000">BacterialTyper.scripts.genomic_island</text>
</g>
<!-- BacterialTyper__scripts__genomic_island -->
<g id="node1" class="node">
<title>BacterialTyper__scripts__genomic_island</title>
<ellipse fill="#ffffff" fill-opacity="0.698039" stroke="#000000" cx="164" cy="-42" rx="147.5738" ry="18"/>
<text text-anchor="middle" x="164" y="-38.3" font-family="Times,serif" font-size="14.00" fill="#000000">BacterialTyper.scripts.genomic_island</text>
</g>
<!-- BacterialTyper__scripts__genomic_island__GI_module -->
<g id="node2" class="node">
<title>BacterialTyper__scripts__genomic_island__GI_module</title>
<ellipse fill="#ff6565" fill-opacity="0.698039" stroke="#000000" cx="504" cy="-42" rx="51.1914" ry="18"/>
<text text-anchor="middle" x="504" y="-38.3" font-family="Times,serif" font-size="14.00" fill="#000000">GI_module</text>
</g>
<!-- BacterialTyper__scripts__genomic_island__call_Dimob -->
<g id="node3" class="node">
<title>BacterialTyper__scripts__genomic_island__call_Dimob</title>
<ellipse fill="#ff6565" fill-opacity="0.698039" stroke="#000000" cx="382" cy="-42" rx="52.7911" ry="18"/>
<text text-anchor="middle" x="382" y="-38.3" font-family="Times,serif" font-size="14.00" fill="#000000">call_Dimob</text>
</g>
</g>
</svg>
