<?xml version="1.0" encoding="UTF-8" standalone="no"?>
<!DOCTYPE svg PUBLIC "-//W3C//DTD SVG 1.1//EN"
 "http://www.w3.org/Graphics/SVG/1.1/DTD/svg11.dtd">
<!-- Generated by graphviz version 2.40.1 (20161225.0304)
 -->
<!-- Title: G Pages: 1 -->
<svg width="655pt" height="303pt"
 viewBox="0.00 0.00 655.00 303.00" xmlns="http://www.w3.org/2000/svg" xmlns:xlink="http://www.w3.org/1999/xlink">
<g id="graph0" class="graph" transform="scale(1 1) rotate(0) translate(4 299)">
<title>G</title>
<polygon fill="#ffffff" stroke="transparent" points="-4,4 -4,-299 651,-299 651,4 -4,4"/>
<g id="clust1" class="cluster">
<title>cluster_G</title>
<path fill="#808080" fill-opacity="0.094118" stroke="#000000" d="M20,-8C20,-8 627,-8 627,-8 633,-8 639,-14 639,-20 639,-20 639,-275 639,-275 639,-281 633,-287 627,-287 627,-287 20,-287 20,-287 14,-287 8,-281 8,-275 8,-275 8,-20 8,-20 8,-14 14,-8 20,-8"/>
</g>
<g id="clust2" class="cluster">
<title>cluster_BacterialTyper__scripts__min_hash_caller</title>
<path fill="#808080" fill-opacity="0.094118" stroke="#000000" d="M28,-16C28,-16 619,-16 619,-16 625,-16 631,-22 631,-28 631,-28 631,-223 631,-223 631,-229 625,-235 619,-235 619,-235 28,-235 28,-235 22,-235 16,-229 16,-223 16,-223 16,-28 16,-28 16,-22 22,-16 28,-16"/>
<text text-anchor="middle" x="323.5" y="-219.8" font-family="Times,serif" font-size="14.00" fill="#000000">BacterialTyper.scripts.min_hash_caller</text>
</g>
<!-- BacterialTyper__scripts__min_hash_caller -->
<g id="node1" class="node">
<title>BacterialTyper__scripts__min_hash_caller</title>
<ellipse fill="#ffffff" fill-opacity="0.698039" stroke="#000000" cx="341" cy="-261" rx="149.4735" ry="18"/>
<text text-anchor="middle" x="341" y="-257.3" font-family="Times,serif" font-size="14.00" fill="#000000">BacterialTyper.scripts.min_hash_caller</text>
</g>
<!-- BacterialTyper__scripts__min_hash_caller__main -->
<g id="node7" class="node">
<title>BacterialTyper__scripts__min_hash_caller__main</title>
<ellipse fill="#ff6565" fill-opacity="0.698039" stroke="#000000" cx="341" cy="-186" rx="28.6953" ry="18"/>
<text text-anchor="middle" x="341" y="-182.3" font-family="Times,serif" font-size="14.00" fill="#000000">main</text>
</g>
<!-- BacterialTyper__scripts__min_hash_caller&#45;&gt;BacterialTyper__scripts__min_hash_caller__main -->
<g id="edge1" class="edge">
<title>BacterialTyper__scripts__min_hash_caller&#45;&gt;BacterialTyper__scripts__min_hash_caller__main</title>
<path fill="none" stroke="#000000" d="M341,-242.8446C341,-234.3401 341,-224.0076 341,-214.4964"/>
<polygon fill="#000000" stroke="#000000" points="344.5001,-214.2481 341,-204.2482 337.5001,-214.2482 344.5001,-214.2481"/>
</g>
<!-- BacterialTyper__scripts__min_hash_caller__compare -->
<g id="node2" class="node">
<title>BacterialTyper__scripts__min_hash_caller__compare</title>
<ellipse fill="#ff6565" fill-opacity="0.698039" stroke="#000000" cx="66" cy="-114" rx="41.6928" ry="18"/>
<text text-anchor="middle" x="66" y="-110.3" font-family="Times,serif" font-size="14.00" fill="#000000">compare</text>
</g>
<!-- BacterialTyper__scripts__min_hash_caller__generateNewick -->
<g id="node3" class="node">
<title>BacterialTyper__scripts__min_hash_caller__generateNewick</title>
<ellipse fill="#ff6565" fill-opacity="0.698039" stroke="#000000" cx="196" cy="-42" rx="67.6881" ry="18"/>
<text text-anchor="middle" x="196" y="-38.3" font-family="Times,serif" font-size="14.00" fill="#000000">generateNewick</text>
</g>
<!-- BacterialTyper__scripts__min_hash_caller__generateNewick&#45;&gt;BacterialTyper__scripts__min_hash_caller__generateNewick -->
<g id="edge2" class="edge">
<title>BacterialTyper__scripts__min_hash_caller__generateNewick&#45;&gt;BacterialTyper__scripts__min_hash_caller__generateNewick</title>
<path fill="none" stroke="#000000" d="M242.2276,-55.2619C263.2874,-56.6159 281.594,-52.1953 281.594,-42 281.594,-33.4774 268.8015,-28.99 252.302,-28.538"/>
<polygon fill="#000000" stroke="#000000" points="252.1561,-25.0401 242.2276,-28.7381 252.2952,-32.0387 252.1561,-25.0401"/>
</g>
<!-- BacterialTyper__scripts__min_hash_caller__get_Newick_tree -->
<g id="node4" class="node">
<title>BacterialTyper__scripts__min_hash_caller__get_Newick_tree</title>
<ellipse fill="#ff6565" fill-opacity="0.698039" stroke="#000000" cx="196" cy="-114" rx="70.6878" ry="18"/>
<text text-anchor="middle" x="196" y="-110.3" font-family="Times,serif" font-size="14.00" fill="#000000">get_Newick_tree</text>
</g>
<!-- BacterialTyper__scripts__min_hash_caller__get_Newick_tree&#45;&gt;BacterialTyper__scripts__min_hash_caller__generateNewick -->
<g id="edge3" class="edge">
<title>BacterialTyper__scripts__min_hash_caller__get_Newick_tree&#45;&gt;BacterialTyper__scripts__min_hash_caller__generateNewick</title>
<path fill="none" stroke="#000000" d="M196,-95.8314C196,-88.131 196,-78.9743 196,-70.4166"/>
<polygon fill="#000000" stroke="#000000" points="199.5001,-70.4132 196,-60.4133 192.5001,-70.4133 199.5001,-70.4132"/>
</g>
<!-- BacterialTyper__scripts__min_hash_caller__helpMash -->
<g id="node5" class="node">
<title>BacterialTyper__scripts__min_hash_caller__helpMash</title>
<ellipse fill="#ff6565" fill-opacity="0.698039" stroke="#000000" cx="505" cy="-186" rx="46.2923" ry="18"/>
<text text-anchor="middle" x="505" y="-182.3" font-family="Times,serif" font-size="14.00" fill="#000000">helpMash</text>
</g>
<!-- BacterialTyper__scripts__min_hash_caller__help_options -->
<g id="node6" class="node">
<title>BacterialTyper__scripts__min_hash_caller__help_options</title>
<ellipse fill="#ff6565" fill-opacity="0.698039" stroke="#000000" cx="341" cy="-114" rx="55.7903" ry="18"/>
<text text-anchor="middle" x="341" y="-110.3" font-family="Times,serif" font-size="14.00" fill="#000000">help_options</text>
</g>
<!-- BacterialTyper__scripts__min_hash_caller__main&#45;&gt;BacterialTyper__scripts__min_hash_caller__compare -->
<g id="edge5" class="edge">
<title>BacterialTyper__scripts__min_hash_caller__main&#45;&gt;BacterialTyper__scripts__min_hash_caller__compare</title>
<path fill="none" stroke="#000000" d="M313.7288,-180.4688C271.1442,-171.6051 186.4331,-153.0603 116,-132 113.0458,-131.1166 110.0107,-130.1571 106.9662,-129.1564"/>
<polygon fill="#000000" stroke="#000000" points="107.8924,-125.7745 97.2979,-125.8627 105.635,-132.4005 107.8924,-125.7745"/>
</g>
<!-- BacterialTyper__scripts__min_hash_caller__main&#45;&gt;BacterialTyper__scripts__min_hash_caller__get_Newick_tree -->
<g id="edge7" class="edge">
<title>BacterialTyper__scripts__min_hash_caller__main&#45;&gt;BacterialTyper__scripts__min_hash_caller__get_Newick_tree</title>
<path fill="none" stroke="#000000" d="M318.3438,-174.75C296.7549,-164.03 263.7374,-147.6351 237.4416,-134.5779"/>
<polygon fill="#000000" stroke="#000000" points="238.9638,-131.426 228.4506,-130.1134 235.8505,-137.6957 238.9638,-131.426"/>
</g>
<!-- BacterialTyper__scripts__min_hash_caller__main&#45;&gt;BacterialTyper__scripts__min_hash_caller__help_options -->
<g id="edge8" class="edge">
<title>BacterialTyper__scripts__min_hash_caller__main&#45;&gt;BacterialTyper__scripts__min_hash_caller__help_options</title>
<path fill="none" stroke="#000000" d="M341,-167.8314C341,-160.131 341,-150.9743 341,-142.4166"/>
<polygon fill="#000000" stroke="#000000" points="344.5001,-142.4132 341,-132.4133 337.5001,-142.4133 344.5001,-142.4132"/>
</g>
<!-- BacterialTyper__scripts__min_hash_caller__plot -->
<g id="node8" class="node">
<title>BacterialTyper__scripts__min_hash_caller__plot</title>
<ellipse fill="#ff6565" fill-opacity="0.698039" stroke="#000000" cx="442" cy="-114" rx="27" ry="18"/>
<text text-anchor="middle" x="442" y="-110.3" font-family="Times,serif" font-size="14.00" fill="#000000">plot</text>
</g>
<!-- BacterialTyper__scripts__min_hash_caller__main&#45;&gt;BacterialTyper__scripts__min_hash_caller__plot -->
<g id="edge4" class="edge">
<title>BacterialTyper__scripts__min_hash_caller__main&#45;&gt;BacterialTyper__scripts__min_hash_caller__plot</title>
<path fill="none" stroke="#000000" d="M359.9973,-172.4574C375.4715,-161.4263 397.5161,-145.7113 414.8523,-133.3528"/>
<polygon fill="#000000" stroke="#000000" points="417.318,-135.8934 423.4291,-127.2387 413.2546,-130.1935 417.318,-135.8934"/>
</g>
<!-- BacterialTyper__scripts__min_hash_caller__sketch_database -->
<g id="node10" class="node">
<title>BacterialTyper__scripts__min_hash_caller__sketch_database</title>
<ellipse fill="#ff6565" fill-opacity="0.698039" stroke="#000000" cx="555" cy="-114" rx="67.6881" ry="18"/>
<text text-anchor="middle" x="555" y="-110.3" font-family="Times,serif" font-size="14.00" fill="#000000">sketch_database</text>
</g>
<!-- BacterialTyper__scripts__min_hash_caller__main&#45;&gt;BacterialTyper__scripts__min_hash_caller__sketch_database -->
<g id="edge6" class="edge">
<title>BacterialTyper__scripts__min_hash_caller__main&#45;&gt;BacterialTyper__scripts__min_hash_caller__sketch_database</title>
<path fill="none" stroke="#000000" d="M366.389,-177.4579C399.9444,-166.1682 459.8637,-146.0085 503.1767,-131.4359"/>
<polygon fill="#000000" stroke="#000000" points="504.3387,-134.7378 512.7005,-128.2316 502.1065,-128.1032 504.3387,-134.7378"/>
</g>
<!-- BacterialTyper__scripts__min_hash_caller__read_signature -->
<g id="node9" class="node">
<title>BacterialTyper__scripts__min_hash_caller__read_signature</title>
<ellipse fill="#ff6565" fill-opacity="0.698039" stroke="#000000" cx="159" cy="-186" rx="62.2891" ry="18"/>
<text text-anchor="middle" x="159" y="-182.3" font-family="Times,serif" font-size="14.00" fill="#000000">read_signature</text>
</g>
</g>
</svg>
