<?xml version="1.0" encoding="UTF-8" standalone="no"?>
<!DOCTYPE svg PUBLIC "-//W3C//DTD SVG 1.1//EN"
 "http://www.w3.org/Graphics/SVG/1.1/DTD/svg11.dtd">
<!-- Generated by graphviz version 2.40.1 (20161225.0304)
 -->
<!-- Title: G Pages: 1 -->
<svg width="925pt" height="262pt"
 viewBox="0.00 0.00 925.00 262.00" xmlns="http://www.w3.org/2000/svg" xmlns:xlink="http://www.w3.org/1999/xlink">
<g id="graph0" class="graph" transform="scale(1 1) rotate(0) translate(4 258)">
<title>G</title>
<polygon fill="#ffffff" stroke="transparent" points="-4,4 -4,-258 921,-258 921,4 -4,4"/>
<g id="clust1" class="cluster">
<title>cluster_G</title>
<path fill="#808080" fill-opacity="0.094118" stroke="#000000" d="M20,-8C20,-8 897,-8 897,-8 903,-8 909,-14 909,-20 909,-20 909,-234 909,-234 909,-240 903,-246 897,-246 897,-246 20,-246 20,-246 14,-246 8,-240 8,-234 8,-234 8,-20 8,-20 8,-14 14,-8 20,-8"/>
</g>
<g id="clust2" class="cluster">
<title>cluster_BacterialTyper__scripts__functions</title>
<path fill="#808080" fill-opacity="0.094118" stroke="#000000" d="M651,-16C651,-16 889,-16 889,-16 895,-16 901,-22 901,-28 901,-28 901,-79 901,-79 901,-85 895,-91 889,-91 889,-91 651,-91 651,-91 645,-91 639,-85 639,-79 639,-79 639,-28 639,-28 639,-22 645,-16 651,-16"/>
<text text-anchor="middle" x="770" y="-75.8" font-family="Times,serif" font-size="14.00" fill="#000000">BacterialTyper.scripts.functions</text>
</g>
<g id="clust3" class="cluster">
<title>cluster_BacterialTyper__scripts__min_hash_caller</title>
<path fill="#808080" fill-opacity="0.094118" stroke="#000000" d="M28,-16C28,-16 619,-16 619,-16 625,-16 631,-22 631,-28 631,-28 631,-226 631,-226 631,-232 625,-238 619,-238 619,-238 28,-238 28,-238 22,-238 16,-232 16,-226 16,-226 16,-28 16,-28 16,-22 22,-16 28,-16"/>
<text text-anchor="middle" x="323.5" y="-222.8" font-family="Times,serif" font-size="14.00" fill="#000000">BacterialTyper.scripts.min_hash_caller</text>
</g>
<!-- BacterialTyper__scripts__functions__create_folder -->
<g id="node1" class="node">
<title>BacterialTyper__scripts__functions__create_folder</title>
<ellipse fill="#a365ff" fill-opacity="0.698039" stroke="#000000" cx="836" cy="-42" rx="57.3905" ry="18"/>
<text text-anchor="middle" x="836" y="-38.3" font-family="Times,serif" font-size="14.00" fill="#000000">create_folder</text>
</g>
<!-- BacterialTyper__scripts__functions__printList2file -->
<g id="node2" class="node">
<title>BacterialTyper__scripts__functions__printList2file</title>
<ellipse fill="#a365ff" fill-opacity="0.698039" stroke="#000000" cx="704" cy="-42" rx="57.3905" ry="18"/>
<text text-anchor="middle" x="704" y="-38.3" font-family="Times,serif" font-size="14.00" fill="#000000">printList2file</text>
</g>
<!-- BacterialTyper__scripts__min_hash_caller__compare -->
<g id="node3" class="node">
<title>BacterialTyper__scripts__min_hash_caller__compare</title>
<ellipse fill="#e065ff" fill-opacity="0.698039" stroke="#000000" cx="66" cy="-117" rx="41.6928" ry="18"/>
<text text-anchor="middle" x="66" y="-113.3" font-family="Times,serif" font-size="14.00" fill="#000000">compare</text>
</g>
<!-- BacterialTyper__scripts__min_hash_caller__generateNewick -->
<g id="node4" class="node">
<title>BacterialTyper__scripts__min_hash_caller__generateNewick</title>
<ellipse fill="#e065ff" fill-opacity="0.698039" stroke="#000000" cx="196" cy="-42" rx="67.6881" ry="18"/>
<text text-anchor="middle" x="196" y="-38.3" font-family="Times,serif" font-size="14.00" fill="#000000">generateNewick</text>
</g>
<!-- BacterialTyper__scripts__min_hash_caller__generateNewick&#45;&gt;BacterialTyper__scripts__min_hash_caller__generateNewick -->
<g id="edge2" class="edge">
<title>BacterialTyper__scripts__min_hash_caller__generateNewick&#45;&gt;BacterialTyper__scripts__min_hash_caller__generateNewick</title>
<path fill="none" stroke="#000000" d="M173.4687,-59.2002C173.4687,-68.8625 173.4687,-79 173.4687,-79 173.4687,-79 116.3763,-79 116.3763,-79 116.3763,-79 116.3763,-6 116.3763,-6 116.3763,-6 196,-6 196,-6 196,-6 196,-14 196,-14"/>
<polygon fill="#000000" stroke="#000000" points="192.5001,-14 196,-24 199.5001,-14 192.5001,-14"/>
</g>
<!-- BacterialTyper__scripts__min_hash_caller__get_Newick_tree -->
<g id="node5" class="node">
<title>BacterialTyper__scripts__min_hash_caller__get_Newick_tree</title>
<ellipse fill="#e065ff" fill-opacity="0.698039" stroke="#000000" cx="196" cy="-117" rx="70.6878" ry="18"/>
<text text-anchor="middle" x="196" y="-113.3" font-family="Times,serif" font-size="14.00" fill="#000000">get_Newick_tree</text>
</g>
<!-- BacterialTyper__scripts__min_hash_caller__get_Newick_tree&#45;&gt;BacterialTyper__scripts__functions__printList2file -->
<g id="edge3" class="edge">
<title>BacterialTyper__scripts__min_hash_caller__get_Newick_tree&#45;&gt;BacterialTyper__scripts__functions__printList2file</title>
<path fill="none" stroke="#000000" d="M267.1101,-117C272.5465,-117 275.9743,-117 275.9743,-117 275.9743,-117 275.9743,-42 275.9743,-42 275.9743,-42 636.7187,-42 636.7187,-42"/>
<polygon fill="#000000" stroke="#000000" points="636.7187,-45.5001 646.7187,-42 636.7187,-38.5001 636.7187,-45.5001"/>
</g>
<!-- BacterialTyper__scripts__min_hash_caller__get_Newick_tree&#45;&gt;BacterialTyper__scripts__min_hash_caller__generateNewick -->
<g id="edge4" class="edge">
<title>BacterialTyper__scripts__min_hash_caller__get_Newick_tree&#45;&gt;BacterialTyper__scripts__min_hash_caller__generateNewick</title>
<path fill="none" stroke="#000000" d="M218.5313,-99.605C218.5313,-99.605 218.5313,-69.0421 218.5313,-69.0421"/>
<polygon fill="#000000" stroke="#000000" points="222.0314,-69.0421 218.5313,-59.0421 215.0314,-69.0421 222.0314,-69.0421"/>
</g>
<!-- BacterialTyper__scripts__min_hash_caller__help_options -->
<g id="node6" class="node">
<title>BacterialTyper__scripts__min_hash_caller__help_options</title>
<ellipse fill="#e065ff" fill-opacity="0.698039" stroke="#000000" cx="341" cy="-117" rx="55.7903" ry="18"/>
<text text-anchor="middle" x="341" y="-113.3" font-family="Times,serif" font-size="14.00" fill="#000000">help_options</text>
</g>
<!-- BacterialTyper__scripts__min_hash_caller__main -->
<g id="node7" class="node">
<title>BacterialTyper__scripts__min_hash_caller__main</title>
<ellipse fill="#e065ff" fill-opacity="0.698039" stroke="#000000" cx="341" cy="-189" rx="28.6953" ry="18"/>
<text text-anchor="middle" x="341" y="-185.3" font-family="Times,serif" font-size="14.00" fill="#000000">main</text>
</g>
<!-- BacterialTyper__scripts__min_hash_caller__main&#45;&gt;BacterialTyper__scripts__min_hash_caller__compare -->
<g id="edge7" class="edge">
<title>BacterialTyper__scripts__min_hash_caller__main&#45;&gt;BacterialTyper__scripts__min_hash_caller__compare</title>
<path fill="none" stroke="#000000" d="M313.8793,-195C244.501,-195 66,-195 66,-195 66,-195 66,-145.0908 66,-145.0908"/>
<polygon fill="#000000" stroke="#000000" points="69.5001,-145.0908 66,-135.0908 62.5001,-145.0909 69.5001,-145.0908"/>
</g>
<!-- BacterialTyper__scripts__min_hash_caller__main&#45;&gt;BacterialTyper__scripts__min_hash_caller__get_Newick_tree -->
<g id="edge8" class="edge">
<title>BacterialTyper__scripts__min_hash_caller__main&#45;&gt;BacterialTyper__scripts__min_hash_caller__get_Newick_tree</title>
<path fill="none" stroke="#000000" d="M313.7266,-183C271.7236,-183 196,-183 196,-183 196,-183 196,-145.0348 196,-145.0348"/>
<polygon fill="#000000" stroke="#000000" points="199.5001,-145.0348 196,-135.0348 192.5001,-145.0348 199.5001,-145.0348"/>
</g>
<!-- BacterialTyper__scripts__min_hash_caller__main&#45;&gt;BacterialTyper__scripts__min_hash_caller__help_options -->
<g id="edge6" class="edge">
<title>BacterialTyper__scripts__min_hash_caller__main&#45;&gt;BacterialTyper__scripts__min_hash_caller__help_options</title>
<path fill="none" stroke="#000000" d="M341,-170.8314C341,-170.8314 341,-145.4133 341,-145.4133"/>
<polygon fill="#000000" stroke="#000000" points="344.5001,-145.4132 341,-135.4133 337.5001,-145.4133 344.5001,-145.4132"/>
</g>
<!-- BacterialTyper__scripts__min_hash_caller__plot -->
<g id="node8" class="node">
<title>BacterialTyper__scripts__min_hash_caller__plot</title>
<ellipse fill="#e065ff" fill-opacity="0.698039" stroke="#000000" cx="442" cy="-117" rx="27" ry="18"/>
<text text-anchor="middle" x="442" y="-113.3" font-family="Times,serif" font-size="14.00" fill="#000000">plot</text>
</g>
<!-- BacterialTyper__scripts__min_hash_caller__main&#45;&gt;BacterialTyper__scripts__min_hash_caller__plot -->
<g id="edge9" class="edge">
<title>BacterialTyper__scripts__min_hash_caller__main&#45;&gt;BacterialTyper__scripts__min_hash_caller__plot</title>
<path fill="none" stroke="#000000" d="M368.0661,-183C397.9836,-183 442,-183 442,-183 442,-183 442,-145.0348 442,-145.0348"/>
<polygon fill="#000000" stroke="#000000" points="445.5001,-145.0348 442,-135.0348 438.5001,-145.0348 445.5001,-145.0348"/>
</g>
<!-- BacterialTyper__scripts__min_hash_caller__sketch_database -->
<g id="node9" class="node">
<title>BacterialTyper__scripts__min_hash_caller__sketch_database</title>
<ellipse fill="#e065ff" fill-opacity="0.698039" stroke="#000000" cx="555" cy="-117" rx="67.6881" ry="18"/>
<text text-anchor="middle" x="555" y="-113.3" font-family="Times,serif" font-size="14.00" fill="#000000">sketch_database</text>
</g>
<!-- BacterialTyper__scripts__min_hash_caller__main&#45;&gt;BacterialTyper__scripts__min_hash_caller__sketch_database -->
<g id="edge5" class="edge">
<title>BacterialTyper__scripts__min_hash_caller__main&#45;&gt;BacterialTyper__scripts__min_hash_caller__sketch_database</title>
<path fill="none" stroke="#000000" d="M368.1032,-195C425.6877,-195 555,-195 555,-195 555,-195 555,-145.0908 555,-145.0908"/>
<polygon fill="#000000" stroke="#000000" points="558.5001,-145.0908 555,-135.0908 551.5001,-145.0909 558.5001,-145.0908"/>
</g>
<!-- BacterialTyper__scripts__min_hash_caller__sketch_database&#45;&gt;BacterialTyper__scripts__functions__create_folder -->
<g id="edge1" class="edge">
<title>BacterialTyper__scripts__min_hash_caller__sketch_database&#45;&gt;BacterialTyper__scripts__functions__create_folder</title>
<path fill="none" stroke="#000000" d="M622.6641,-117C705.8117,-117 836,-117 836,-117 836,-117 836,-70.1554 836,-70.1554"/>
<polygon fill="#000000" stroke="#000000" points="839.5001,-70.1554 836,-60.1554 832.5001,-70.1554 839.5001,-70.1554"/>
</g>
</g>
</svg>
