<?xml version="1.0" encoding="UTF-8" standalone="no"?>
<!DOCTYPE svg PUBLIC "-//W3C//DTD SVG 1.1//EN"
 "http://www.w3.org/Graphics/SVG/1.1/DTD/svg11.dtd">
<!-- Generated by graphviz version 2.40.1 (20161225.0304)
 -->
<!-- Title: G Pages: 1 -->
<svg width="925pt" height="262pt"
 viewBox="0.00 0.00 925.00 262.00" xmlns="http://www.w3.org/2000/svg" xmlns:xlink="http://www.w3.org/1999/xlink">
<g id="graph0" class="graph" transform="scale(1 1) rotate(0) translate(4 258)">
<title>G</title>
<polygon fill="#ffffff" stroke="transparent" points="-4,4 -4,-258 921,-258 921,4 -4,4"/>
<g id="clust1" class="cluster">
<title>cluster_G</title>
<path fill="#808080" fill-opacity="0.094118" stroke="#000000" d="M20,-8C20,-8 897,-8 897,-8 903,-8 909,-14 909,-20 909,-20 909,-234 909,-234 909,-240 903,-246 897,-246 897,-246 20,-246 20,-246 14,-246 8,-240 8,-234 8,-234 8,-20 8,-20 8,-14 14,-8 20,-8"/>
</g>
<g id="clust2" class="cluster">
<title>cluster_BacterialTyper__scripts__functions</title>
<path fill="#808080" fill-opacity="0.094118" stroke="#000000" d="M651,-16C651,-16 889,-16 889,-16 895,-16 901,-22 901,-28 901,-28 901,-79 901,-79 901,-85 895,-91 889,-91 889,-91 651,-91 651,-91 645,-91 639,-85 639,-79 639,-79 639,-28 639,-28 639,-22 645,-16 651,-16"/>
<text text-anchor="middle" x="770" y="-75.8" font-family="Times,serif" font-size="14.00" fill="#000000">BacterialTyper.scripts.functions</text>
</g>
<g id="clust3" class="cluster">
<title>cluster_BacterialTyper__scripts__min_hash_caller</title>
<path fill="#808080" fill-opacity="0.094118" stroke="#000000" d="M28,-16C28,-16 619,-16 619,-16 625,-16 631,-22 631,-28 631,-28 631,-226 631,-226 631,-232 625,-238 619,-238 619,-238 28,-238 28,-238 22,-238 16,-232 16,-226 16,-226 16,-28 16,-28 16,-22 22,-16 28,-16"/>
<text text-anchor="middle" x="323.5" y="-222.8" font-family="Times,serif" font-size="14.00" fill="#000000">BacterialTyper.scripts.min_hash_caller</text>
</g>
<!-- BacterialTyper__scripts__functions__create_folder -->
<g id="node1" class="node">
<title>BacterialTyper__scripts__functions__create_folder</title>
<ellipse fill="#a365ff" fill-opacity="0.698039" stroke="#000000" cx="836" cy="-42" rx="57.3905" ry="18"/>
<text text-anchor="middle" x="836" y="-38.3" font-family="Times,serif" font-size="14.00" fill="#000000">create_folder</text>
</g>
<!-- BacterialTyper__scripts__functions__printList2file -->
<g id="node2" class="node">
<title>BacterialTyper__scripts__functions__printList2file</title>
<ellipse fill="#a365ff" fill-opacity="0.698039" stroke="#000000" cx="704" cy="-42" rx="57.3905" ry="18"/>
<text text-anchor="middle" x="704" y="-38.3" font-family="Times,serif" font-size="14.00" fill="#000000">printList2file</text>
</g>
<!-- BacterialTyper__scripts__min_hash_caller__compare -->
<g id="node3" class="node">
<title>BacterialTyper__scripts__min_hash_caller__compare</title>
<ellipse fill="#e065ff" fill-opacity="0.698039" stroke="#000000" cx="66" cy="-117" rx="41.6928" ry="18"/>
<text text-anchor="middle" x="66" y="-113.3" font-family="Times,serif" font-size="14.00" fill="#000000">compare</text>
</g>
<!-- BacterialTyper__scripts__min_hash_caller__generateNewick -->
<g id="node4" class="node">
<title>BacterialTyper__scripts__min_hash_caller__generateNewick</title>
<ellipse fill="#e065ff" fill-opacity="0.698039" stroke="#000000" cx="196" cy="-42" rx="67.6881" ry="18"/>
<text text-anchor="middle" x="196" y="-38.3" font-family="Times,serif" font-size="14.00" fill="#000000">generateNewick</text>
</g>
<!-- BacterialTyper__scripts__min_hash_caller__generateNewick&#45;&gt;BacterialTyper__scripts__min_hash_caller__generateNewick -->
<g id="edge2" class="edge">
<title>BacterialTyper__scripts__min_hash_caller__generateNewick&#45;&gt;BacterialTyper__scripts__min_hash_caller__generateNewick</title>
<path fill="none" stroke="#000000" d="M240.9171,-55.5363C262.522,-57.2074 281.594,-52.6953 281.594,-42 281.594,-33.0594 268.2667,-28.4396 251.2732,-28.1405"/>
<polygon fill="#000000" stroke="#000000" points="250.803,-24.6534 240.9171,-28.4637 251.0214,-31.65 250.803,-24.6534"/>
</g>
<!-- BacterialTyper__scripts__min_hash_caller__get_Newick_tree -->
<g id="node5" class="node">
<title>BacterialTyper__scripts__min_hash_caller__get_Newick_tree</title>
<ellipse fill="#e065ff" fill-opacity="0.698039" stroke="#000000" cx="196" cy="-117" rx="70.6878" ry="18"/>
<text text-anchor="middle" x="196" y="-113.3" font-family="Times,serif" font-size="14.00" fill="#000000">get_Newick_tree</text>
</g>
<!-- BacterialTyper__scripts__min_hash_caller__get_Newick_tree&#45;&gt;BacterialTyper__scripts__functions__printList2file -->
<g id="edge3" class="edge">
<title>BacterialTyper__scripts__min_hash_caller__get_Newick_tree&#45;&gt;BacterialTyper__scripts__functions__printList2file</title>
<path fill="none" stroke="#000000" d="M246.09,-104.1285C255.9439,-102.0512 266.2499,-100.1935 276,-99 315.6032,-94.1524 597.1253,-103.5467 635,-91 650.7515,-85.782 666.0341,-75.6314 678.196,-65.9159"/>
<polygon fill="#000000" stroke="#000000" points="680.6544,-68.4228 686.0845,-59.3253 676.1663,-63.0508 680.6544,-68.4228"/>
</g>
<!-- BacterialTyper__scripts__min_hash_caller__get_Newick_tree&#45;&gt;BacterialTyper__scripts__min_hash_caller__generateNewick -->
<g id="edge4" class="edge">
<title>BacterialTyper__scripts__min_hash_caller__get_Newick_tree&#45;&gt;BacterialTyper__scripts__min_hash_caller__generateNewick</title>
<path fill="none" stroke="#000000" d="M196,-98.8446C196,-90.3401 196,-80.0076 196,-70.4964"/>
<polygon fill="#000000" stroke="#000000" points="199.5001,-70.2481 196,-60.2482 192.5001,-70.2482 199.5001,-70.2481"/>
</g>
<!-- BacterialTyper__scripts__min_hash_caller__help_options -->
<g id="node6" class="node">
<title>BacterialTyper__scripts__min_hash_caller__help_options</title>
<ellipse fill="#e065ff" fill-opacity="0.698039" stroke="#000000" cx="341" cy="-117" rx="55.7903" ry="18"/>
<text text-anchor="middle" x="341" y="-113.3" font-family="Times,serif" font-size="14.00" fill="#000000">help_options</text>
</g>
<!-- BacterialTyper__scripts__min_hash_caller__main -->
<g id="node7" class="node">
<title>BacterialTyper__scripts__min_hash_caller__main</title>
<ellipse fill="#e065ff" fill-opacity="0.698039" stroke="#000000" cx="341" cy="-189" rx="28.6953" ry="18"/>
<text text-anchor="middle" x="341" y="-185.3" font-family="Times,serif" font-size="14.00" fill="#000000">main</text>
</g>
<!-- BacterialTyper__scripts__min_hash_caller__main&#45;&gt;BacterialTyper__scripts__min_hash_caller__compare -->
<g id="edge7" class="edge">
<title>BacterialTyper__scripts__min_hash_caller__main&#45;&gt;BacterialTyper__scripts__min_hash_caller__compare</title>
<path fill="none" stroke="#000000" d="M313.7288,-183.4688C271.1442,-174.6051 186.4331,-156.0603 116,-135 113.0458,-134.1166 110.0107,-133.1571 106.9662,-132.1564"/>
<polygon fill="#000000" stroke="#000000" points="107.8924,-128.7745 97.2979,-128.8627 105.635,-135.4005 107.8924,-128.7745"/>
</g>
<!-- BacterialTyper__scripts__min_hash_caller__main&#45;&gt;BacterialTyper__scripts__min_hash_caller__get_Newick_tree -->
<g id="edge8" class="edge">
<title>BacterialTyper__scripts__min_hash_caller__main&#45;&gt;BacterialTyper__scripts__min_hash_caller__get_Newick_tree</title>
<path fill="none" stroke="#000000" d="M318.3438,-177.75C296.7549,-167.03 263.7374,-150.6351 237.4416,-137.5779"/>
<polygon fill="#000000" stroke="#000000" points="238.9638,-134.426 228.4506,-133.1134 235.8505,-140.6957 238.9638,-134.426"/>
</g>
<!-- BacterialTyper__scripts__min_hash_caller__main&#45;&gt;BacterialTyper__scripts__min_hash_caller__help_options -->
<g id="edge6" class="edge">
<title>BacterialTyper__scripts__min_hash_caller__main&#45;&gt;BacterialTyper__scripts__min_hash_caller__help_options</title>
<path fill="none" stroke="#000000" d="M341,-170.8314C341,-163.131 341,-153.9743 341,-145.4166"/>
<polygon fill="#000000" stroke="#000000" points="344.5001,-145.4132 341,-135.4133 337.5001,-145.4133 344.5001,-145.4132"/>
</g>
<!-- BacterialTyper__scripts__min_hash_caller__plot -->
<g id="node8" class="node">
<title>BacterialTyper__scripts__min_hash_caller__plot</title>
<ellipse fill="#e065ff" fill-opacity="0.698039" stroke="#000000" cx="442" cy="-117" rx="27" ry="18"/>
<text text-anchor="middle" x="442" y="-113.3" font-family="Times,serif" font-size="14.00" fill="#000000">plot</text>
</g>
<!-- BacterialTyper__scripts__min_hash_caller__main&#45;&gt;BacterialTyper__scripts__min_hash_caller__plot -->
<g id="edge9" class="edge">
<title>BacterialTyper__scripts__min_hash_caller__main&#45;&gt;BacterialTyper__scripts__min_hash_caller__plot</title>
<path fill="none" stroke="#000000" d="M359.9973,-175.4574C375.4715,-164.4263 397.5161,-148.7113 414.8523,-136.3528"/>
<polygon fill="#000000" stroke="#000000" points="417.318,-138.8934 423.4291,-130.2387 413.2546,-133.1935 417.318,-138.8934"/>
</g>
<!-- BacterialTyper__scripts__min_hash_caller__sketch_database -->
<g id="node9" class="node">
<title>BacterialTyper__scripts__min_hash_caller__sketch_database</title>
<ellipse fill="#e065ff" fill-opacity="0.698039" stroke="#000000" cx="555" cy="-117" rx="67.6881" ry="18"/>
<text text-anchor="middle" x="555" y="-113.3" font-family="Times,serif" font-size="14.00" fill="#000000">sketch_database</text>
</g>
<!-- BacterialTyper__scripts__min_hash_caller__main&#45;&gt;BacterialTyper__scripts__min_hash_caller__sketch_database -->
<g id="edge5" class="edge">
<title>BacterialTyper__scripts__min_hash_caller__main&#45;&gt;BacterialTyper__scripts__min_hash_caller__sketch_database</title>
<path fill="none" stroke="#000000" d="M366.389,-180.4579C399.9444,-169.1682 459.8637,-149.0085 503.1767,-134.4359"/>
<polygon fill="#000000" stroke="#000000" points="504.3387,-137.7378 512.7005,-131.2316 502.1065,-131.1032 504.3387,-137.7378"/>
</g>
<!-- BacterialTyper__scripts__min_hash_caller__sketch_database&#45;&gt;BacterialTyper__scripts__functions__create_folder -->
<g id="edge1" class="edge">
<title>BacterialTyper__scripts__min_hash_caller__sketch_database&#45;&gt;BacterialTyper__scripts__functions__create_folder</title>
<path fill="none" stroke="#000000" d="M620.7937,-112.753C673.8007,-108.6483 743.6765,-101.4984 770,-91 784.6133,-85.1719 798.8801,-75.2765 810.3888,-65.8977"/>
<polygon fill="#000000" stroke="#000000" points="812.8895,-68.3658 818.2469,-59.2253 808.3588,-63.0298 812.8895,-68.3658"/>
</g>
</g>
</svg>
