<?xml version="1.0" encoding="UTF-8" standalone="no"?>
<!DOCTYPE svg PUBLIC "-//W3C//DTD SVG 1.1//EN"
 "http://www.w3.org/Graphics/SVG/1.1/DTD/svg11.dtd">
<!-- Generated by graphviz version 2.40.1 (20161225.0304)
 -->
<!-- Title: G Pages: 1 -->
<svg width="995pt" height="345pt"
 viewBox="0.00 0.00 995.00 345.00" xmlns="http://www.w3.org/2000/svg" xmlns:xlink="http://www.w3.org/1999/xlink">
<g id="graph0" class="graph" transform="scale(1 1) rotate(0) translate(4 341)">
<title>G</title>
<polygon fill="#ffffff" stroke="transparent" points="-4,4 -4,-341 991,-341 991,4 -4,4"/>
<g id="clust1" class="cluster">
<title>cluster_G</title>
<path fill="#808080" fill-opacity="0.094118" stroke="#000000" d="M20,-8C20,-8 967,-8 967,-8 973,-8 979,-14 979,-20 979,-20 979,-317 979,-317 979,-323 973,-329 967,-329 967,-329 20,-329 20,-329 14,-329 8,-323 8,-317 8,-317 8,-20 8,-20 8,-14 14,-8 20,-8"/>
</g>
<g id="clust2" class="cluster">
<title>cluster_BacterialTyper__data__data_files</title>
<path fill="#808080" fill-opacity="0.094118" stroke="#000000" d="M78,-99C78,-99 234,-99 234,-99 240,-99 246,-105 246,-111 246,-111 246,-162 246,-162 246,-168 240,-174 234,-174 234,-174 78,-174 78,-174 72,-174 66,-168 66,-162 66,-162 66,-111 66,-111 66,-105 72,-99 78,-99"/>
<text text-anchor="middle" x="156" y="-158.8" font-family="Times,serif" font-size="14.00" fill="#000000">BacterialTyper.data.data_files</text>
</g>
<g id="clust3" class="cluster">
<title>cluster_BacterialTyper__other_tools__tools</title>
<path fill="#808080" fill-opacity="0.094118" stroke="#000000" d="M774,-16C774,-16 942,-16 942,-16 948,-16 954,-22 954,-28 954,-28 954,-79 954,-79 954,-85 948,-91 942,-91 942,-91 774,-91 774,-91 768,-91 762,-85 762,-79 762,-79 762,-28 762,-28 762,-22 768,-16 774,-16"/>
<text text-anchor="middle" x="858" y="-75.8" font-family="Times,serif" font-size="14.00" fill="#000000">BacterialTyper.other_tools.tools</text>
</g>
<g id="clust4" class="cluster">
<title>cluster_BacterialTyper__scripts__MLSTar</title>
<path fill="#808080" fill-opacity="0.094118" stroke="#000000" d="M266,-99C266,-99 959,-99 959,-99 965,-99 971,-105 971,-111 971,-111 971,-309 971,-309 971,-315 965,-321 959,-321 959,-321 266,-321 266,-321 260,-321 254,-315 254,-309 254,-309 254,-111 254,-111 254,-105 260,-99 266,-99"/>
<text text-anchor="middle" x="612.5" y="-305.8" font-family="Times,serif" font-size="14.00" fill="#000000">BacterialTyper.scripts.MLSTar</text>
</g>
<g id="clust5" class="cluster">
<title>cluster_BacterialTyper__scripts__functions</title>
<path fill="#808080" fill-opacity="0.094118" stroke="#000000" d="M28,-16C28,-16 742,-16 742,-16 748,-16 754,-22 754,-28 754,-28 754,-79 754,-79 754,-85 748,-91 742,-91 742,-91 28,-91 28,-91 22,-91 16,-85 16,-79 16,-79 16,-28 16,-28 16,-22 22,-16 28,-16"/>
<text text-anchor="middle" x="385" y="-75.8" font-family="Times,serif" font-size="14.00" fill="#000000">BacterialTyper.scripts.functions</text>
</g>
<!-- BacterialTyper__data__data_files__data_list -->
<g id="node1" class="node">
<title>BacterialTyper__data__data_files__data_list</title>
<ellipse fill="#ffa365" fill-opacity="0.698039" stroke="#000000" cx="198" cy="-125" rx="40.0939" ry="18"/>
<text text-anchor="middle" x="198" y="-121.3" font-family="Times,serif" font-size="14.00" fill="#000000">data_list</text>
</g>
<!-- BacterialTyper__other_tools__tools__R_scripts -->
<g id="node2" class="node">
<title>BacterialTyper__other_tools__tools__R_scripts</title>
<ellipse fill="#65ffe0" fill-opacity="0.698039" stroke="#000000" cx="814" cy="-42" rx="44.393" ry="18"/>
<text text-anchor="middle" x="814" y="-38.3" font-family="Times,serif" font-size="14.00" fill="#000000">R_scripts</text>
</g>
<!-- BacterialTyper__scripts__MLSTar__download_PubMLST -->
<g id="node3" class="node">
<title>BacterialTyper__scripts__MLSTar__download_PubMLST</title>
<ellipse fill="#65f4ff" fill-opacity="0.698039" stroke="#000000" cx="674" cy="-125" rx="87.1846" ry="18"/>
<text text-anchor="middle" x="674" y="-121.3" font-family="Times,serif" font-size="14.00" fill="#000000">download_PubMLST</text>
</g>
<!-- BacterialTyper__scripts__MLSTar__download_PubMLST&#45;&gt;BacterialTyper__other_tools__tools__R_scripts -->
<g id="edge17" class="edge">
<title>BacterialTyper__scripts__MLSTar__download_PubMLST&#45;&gt;BacterialTyper__other_tools__tools__R_scripts</title>
<path fill="none" stroke="#000000" d="M753.6179,-117.6343C753.6179,-97.3211 753.6179,-42 753.6179,-42 753.6179,-42 759.7992,-42 759.7992,-42"/>
<polygon fill="#000000" stroke="#000000" points="759.7993,-45.5001 769.7992,-42 759.7992,-38.5001 759.7993,-45.5001"/>
</g>
<!-- BacterialTyper__scripts__functions__print_time_stamp -->
<g id="node14" class="node">
<title>BacterialTyper__scripts__functions__print_time_stamp</title>
<ellipse fill="#a365ff" fill-opacity="0.698039" stroke="#000000" cx="510" cy="-42" rx="73.387" ry="18"/>
<text text-anchor="middle" x="510" y="-38.3" font-family="Times,serif" font-size="14.00" fill="#000000">print_time_stamp</text>
</g>
<!-- BacterialTyper__scripts__MLSTar__download_PubMLST&#45;&gt;BacterialTyper__scripts__functions__print_time_stamp -->
<g id="edge16" class="edge">
<title>BacterialTyper__scripts__MLSTar__download_PubMLST&#45;&gt;BacterialTyper__scripts__functions__print_time_stamp</title>
<path fill="none" stroke="#000000" d="M596.8735,-116.4302C596.8735,-95.2238 596.8735,-42 596.8735,-42 596.8735,-42 593.6793,-42 593.6793,-42"/>
<polygon fill="#000000" stroke="#000000" points="593.6793,-38.5001 583.6793,-42 593.6793,-45.5001 593.6793,-38.5001"/>
</g>
<!-- BacterialTyper__scripts__functions__read_time_stamp -->
<g id="node15" class="node">
<title>BacterialTyper__scripts__functions__read_time_stamp</title>
<ellipse fill="#a365ff" fill-opacity="0.698039" stroke="#000000" cx="674" cy="-42" rx="72.2875" ry="18"/>
<text text-anchor="middle" x="674" y="-38.3" font-family="Times,serif" font-size="14.00" fill="#000000">read_time_stamp</text>
</g>
<!-- BacterialTyper__scripts__MLSTar__download_PubMLST&#45;&gt;BacterialTyper__scripts__functions__read_time_stamp -->
<g id="edge14" class="edge">
<title>BacterialTyper__scripts__MLSTar__download_PubMLST&#45;&gt;BacterialTyper__scripts__functions__read_time_stamp</title>
<path fill="none" stroke="#000000" d="M698.0479,-107.3978C698.0479,-107.3978 698.0479,-69.0091 698.0479,-69.0091"/>
<polygon fill="#000000" stroke="#000000" points="701.548,-69.0091 698.0479,-59.0091 694.548,-69.0092 701.548,-69.0091"/>
</g>
<!-- BacterialTyper__scripts__functions__system_call -->
<g id="node16" class="node">
<title>BacterialTyper__scripts__functions__system_call</title>
<ellipse fill="#a365ff" fill-opacity="0.698039" stroke="#000000" cx="366" cy="-42" rx="52.7911" ry="18"/>
<text text-anchor="middle" x="366" y="-38.3" font-family="Times,serif" font-size="14.00" fill="#000000">system_call</text>
</g>
<!-- BacterialTyper__scripts__MLSTar__download_PubMLST&#45;&gt;BacterialTyper__scripts__functions__system_call -->
<g id="edge15" class="edge">
<title>BacterialTyper__scripts__MLSTar__download_PubMLST&#45;&gt;BacterialTyper__scripts__functions__system_call</title>
<path fill="none" stroke="#000000" d="M591.8906,-118.9291C591.8906,-110.163 591.8906,-95 591.8906,-95 591.8906,-95 397.5872,-95 397.5872,-95 397.5872,-95 397.5872,-66.4825 397.5872,-66.4825"/>
<polygon fill="#000000" stroke="#000000" points="401.0873,-66.4824 397.5872,-56.4825 394.0873,-66.4825 401.0873,-66.4824"/>
</g>
<!-- BacterialTyper__scripts__MLSTar__getPUBMLST -->
<g id="node4" class="node">
<title>BacterialTyper__scripts__MLSTar__getPUBMLST</title>
<ellipse fill="#65f4ff" fill-opacity="0.698039" stroke="#000000" cx="901" cy="-200" rx="62.2891" ry="18"/>
<text text-anchor="middle" x="901" y="-196.3" font-family="Times,serif" font-size="14.00" fill="#000000">getPUBMLST</text>
</g>
<!-- BacterialTyper__scripts__MLSTar__getPUBMLST&#45;&gt;BacterialTyper__other_tools__tools__R_scripts -->
<g id="edge10" class="edge">
<title>BacterialTyper__scripts__MLSTar__getPUBMLST&#45;&gt;BacterialTyper__other_tools__tools__R_scripts</title>
<path fill="none" stroke="#000000" d="M851.6659,-188.8897C851.6659,-188.8897 851.6659,-61.6661 851.6659,-61.6661"/>
<polygon fill="#000000" stroke="#000000" points="855.166,-61.6661 851.6659,-51.6661 848.166,-61.6661 855.166,-61.6661"/>
</g>
<!-- BacterialTyper__scripts__MLSTar__getPUBMLST&#45;&gt;BacterialTyper__scripts__functions__system_call -->
<g id="edge11" class="edge">
<title>BacterialTyper__scripts__MLSTar__getPUBMLST&#45;&gt;BacterialTyper__scripts__functions__system_call</title>
<path fill="none" stroke="#000000" d="M845.1357,-191.639C845.1357,-177.8867 845.1357,-152 845.1357,-152 845.1357,-152 355.4709,-152 355.4709,-152 355.4709,-152 355.4709,-69.6734 355.4709,-69.6734"/>
<polygon fill="#000000" stroke="#000000" points="358.971,-69.6734 355.4709,-59.6734 351.971,-69.6734 358.971,-69.6734"/>
</g>
<!-- BacterialTyper__scripts__MLSTar__get_MLSTar_species -->
<g id="node5" class="node">
<title>BacterialTyper__scripts__MLSTar__get_MLSTar_species</title>
<ellipse fill="#65f4ff" fill-opacity="0.698039" stroke="#000000" cx="348" cy="-200" rx="86.3847" ry="18"/>
<text text-anchor="middle" x="348" y="-196.3" font-family="Times,serif" font-size="14.00" fill="#000000">get_MLSTar_species</text>
</g>
<!-- BacterialTyper__scripts__MLSTar__get_MLSTar_species&#45;&gt;BacterialTyper__data__data_files__data_list -->
<g id="edge9" class="edge">
<title>BacterialTyper__scripts__MLSTar__get_MLSTar_species&#45;&gt;BacterialTyper__data__data_files__data_list</title>
<path fill="none" stroke="#000000" d="M272.8864,-190.9795C272.8864,-172.2762 272.8864,-131 272.8864,-131 272.8864,-131 246.3207,-131 246.3207,-131"/>
<polygon fill="#000000" stroke="#000000" points="246.3207,-127.5001 236.3207,-131 246.3207,-134.5001 246.3207,-127.5001"/>
</g>
<!-- BacterialTyper__scripts__MLSTar__help_MLSTar -->
<g id="node6" class="node">
<title>BacterialTyper__scripts__MLSTar__help_MLSTar</title>
<ellipse fill="#65f4ff" fill-opacity="0.698039" stroke="#000000" cx="348" cy="-272" rx="61.1893" ry="18"/>
<text text-anchor="middle" x="348" y="-268.3" font-family="Times,serif" font-size="14.00" fill="#000000">help_MLSTar</text>
</g>
<!-- BacterialTyper__scripts__MLSTar__help_MLSTar&#45;&gt;BacterialTyper__scripts__MLSTar__get_MLSTar_species -->
<g id="edge1" class="edge">
<title>BacterialTyper__scripts__MLSTar__help_MLSTar&#45;&gt;BacterialTyper__scripts__MLSTar__get_MLSTar_species</title>
<path fill="none" stroke="#000000" d="M348,-253.8314C348,-253.8314 348,-228.4133 348,-228.4133"/>
<polygon fill="#000000" stroke="#000000" points="351.5001,-228.4132 348,-218.4133 344.5001,-228.4133 351.5001,-228.4132"/>
</g>
<!-- BacterialTyper__scripts__MLSTar__help_options -->
<g id="node7" class="node">
<title>BacterialTyper__scripts__MLSTar__help_options</title>
<ellipse fill="#65f4ff" fill-opacity="0.698039" stroke="#000000" cx="508" cy="-200" rx="55.7903" ry="18"/>
<text text-anchor="middle" x="508" y="-196.3" font-family="Times,serif" font-size="14.00" fill="#000000">help_options</text>
</g>
<!-- BacterialTyper__scripts__MLSTar__main -->
<g id="node8" class="node">
<title>BacterialTyper__scripts__MLSTar__main</title>
<ellipse fill="#65f4ff" fill-opacity="0.698039" stroke="#000000" cx="640" cy="-272" rx="28.6953" ry="18"/>
<text text-anchor="middle" x="640" y="-268.3" font-family="Times,serif" font-size="14.00" fill="#000000">main</text>
</g>
<!-- BacterialTyper__scripts__MLSTar__main&#45;&gt;BacterialTyper__scripts__MLSTar__getPUBMLST -->
<g id="edge23" class="edge">
<title>BacterialTyper__scripts__MLSTar__main&#45;&gt;BacterialTyper__scripts__MLSTar__getPUBMLST</title>
<path fill="none" stroke="#000000" d="M667.4383,-278C734.449,-278 901,-278 901,-278 901,-278 901,-228.0908 901,-228.0908"/>
<polygon fill="#000000" stroke="#000000" points="904.5001,-228.0908 901,-218.0908 897.5001,-228.0909 904.5001,-228.0908"/>
</g>
<!-- BacterialTyper__scripts__MLSTar__main&#45;&gt;BacterialTyper__scripts__MLSTar__help_options -->
<g id="edge18" class="edge">
<title>BacterialTyper__scripts__MLSTar__main&#45;&gt;BacterialTyper__scripts__MLSTar__help_options</title>
<path fill="none" stroke="#000000" d="M611.358,-272C572.5357,-272 508,-272 508,-272 508,-272 508,-228.1686 508,-228.1686"/>
<polygon fill="#000000" stroke="#000000" points="511.5001,-228.1686 508,-218.1686 504.5001,-228.1687 511.5001,-228.1686"/>
</g>
<!-- BacterialTyper__scripts__MLSTar__plot_MLST -->
<g id="node9" class="node">
<title>BacterialTyper__scripts__MLSTar__plot_MLST</title>
<ellipse fill="#65f4ff" fill-opacity="0.698039" stroke="#000000" cx="768" cy="-200" rx="52.7911" ry="18"/>
<text text-anchor="middle" x="768" y="-196.3" font-family="Times,serif" font-size="14.00" fill="#000000">plot_MLST</text>
</g>
<!-- BacterialTyper__scripts__MLSTar__main&#45;&gt;BacterialTyper__scripts__MLSTar__plot_MLST -->
<g id="edge22" class="edge">
<title>BacterialTyper__scripts__MLSTar__main&#45;&gt;BacterialTyper__scripts__MLSTar__plot_MLST</title>
<path fill="none" stroke="#000000" d="M667.1455,-266C704.7188,-266 768,-266 768,-266 768,-266 768,-228.0348 768,-228.0348"/>
<polygon fill="#000000" stroke="#000000" points="771.5001,-228.0348 768,-218.0348 764.5001,-228.0348 771.5001,-228.0348"/>
</g>
<!-- BacterialTyper__scripts__MLSTar__run_MLSTar -->
<g id="node10" class="node">
<title>BacterialTyper__scripts__MLSTar__run_MLSTar</title>
<ellipse fill="#65f4ff" fill-opacity="0.698039" stroke="#000000" cx="640" cy="-200" rx="57.6901" ry="18"/>
<text text-anchor="middle" x="640" y="-196.3" font-family="Times,serif" font-size="14.00" fill="#000000">run_MLSTar</text>
</g>
<!-- BacterialTyper__scripts__MLSTar__main&#45;&gt;BacterialTyper__scripts__MLSTar__run_MLSTar -->
<g id="edge19" class="edge">
<title>BacterialTyper__scripts__MLSTar__main&#45;&gt;BacterialTyper__scripts__MLSTar__run_MLSTar</title>
<path fill="none" stroke="#000000" d="M654.2987,-256.3771C654.2987,-256.3771 654.2987,-227.6161 654.2987,-227.6161"/>
<polygon fill="#000000" stroke="#000000" points="657.7988,-227.616 654.2987,-217.6161 650.7988,-227.6161 657.7988,-227.616"/>
</g>
<!-- BacterialTyper__scripts__functions__create_folder -->
<g id="node12" class="node">
<title>BacterialTyper__scripts__functions__create_folder</title>
<ellipse fill="#a365ff" fill-opacity="0.698039" stroke="#000000" cx="81" cy="-42" rx="57.3905" ry="18"/>
<text text-anchor="middle" x="81" y="-38.3" font-family="Times,serif" font-size="14.00" fill="#000000">create_folder</text>
</g>
<!-- BacterialTyper__scripts__MLSTar__main&#45;&gt;BacterialTyper__scripts__functions__create_folder -->
<g id="edge21" class="edge">
<title>BacterialTyper__scripts__MLSTar__main&#45;&gt;BacterialTyper__scripts__functions__create_folder</title>
<path fill="none" stroke="#000000" d="M625.7013,-256.2971C625.7013,-249.0386 625.7013,-242 625.7013,-242 625.7013,-242 81,-242 81,-242 81,-242 81,-70.1014 81,-70.1014"/>
<polygon fill="#000000" stroke="#000000" points="84.5001,-70.1014 81,-60.1014 77.5001,-70.1014 84.5001,-70.1014"/>
</g>
<!-- BacterialTyper__scripts__functions__create_subfolder -->
<g id="node13" class="node">
<title>BacterialTyper__scripts__functions__create_subfolder</title>
<ellipse fill="#a365ff" fill-opacity="0.698039" stroke="#000000" cx="226" cy="-42" rx="69.5877" ry="18"/>
<text text-anchor="middle" x="226" y="-38.3" font-family="Times,serif" font-size="14.00" fill="#000000">create_subfolder</text>
</g>
<!-- BacterialTyper__scripts__MLSTar__main&#45;&gt;BacterialTyper__scripts__functions__create_subfolder -->
<g id="edge20" class="edge">
<title>BacterialTyper__scripts__MLSTar__main&#45;&gt;BacterialTyper__scripts__functions__create_subfolder</title>
<path fill="none" stroke="#000000" d="M640,-253.9445C640,-242.561 640,-230 640,-230 640,-230 249.927,-230 249.927,-230 249.927,-230 249.927,-69.0153 249.927,-69.0153"/>
<polygon fill="#000000" stroke="#000000" points="253.4271,-69.0153 249.927,-59.0153 246.4271,-69.0154 253.4271,-69.0153"/>
</g>
<!-- BacterialTyper__scripts__MLSTar__plot_MLST&#45;&gt;BacterialTyper__other_tools__tools__R_scripts -->
<g id="edge12" class="edge">
<title>BacterialTyper__scripts__MLSTar__plot_MLST&#45;&gt;BacterialTyper__other_tools__tools__R_scripts</title>
<path fill="none" stroke="#000000" d="M803.6982,-186.529C803.6982,-186.529 803.6982,-69.7076 803.6982,-69.7076"/>
<polygon fill="#000000" stroke="#000000" points="807.1983,-69.7076 803.6982,-59.7076 800.1983,-69.7077 807.1983,-69.7076"/>
</g>
<!-- BacterialTyper__scripts__MLSTar__plot_MLST&#45;&gt;BacterialTyper__scripts__functions__system_call -->
<g id="edge13" class="edge">
<title>BacterialTyper__scripts__MLSTar__plot_MLST&#45;&gt;BacterialTyper__scripts__functions__system_call</title>
<path fill="none" stroke="#000000" d="M738.2235,-184.9814C738.2235,-174.3597 738.2235,-162 738.2235,-162 738.2235,-162 334.4128,-162 334.4128,-162 334.4128,-162 334.4128,-66.7144 334.4128,-66.7144"/>
<polygon fill="#000000" stroke="#000000" points="337.9129,-66.7143 334.4128,-56.7144 330.9129,-66.7144 337.9129,-66.7143"/>
</g>
<!-- BacterialTyper__scripts__MLSTar__run_MLSTar&#45;&gt;BacterialTyper__scripts__MLSTar__download_PubMLST -->
<g id="edge4" class="edge">
<title>BacterialTyper__scripts__MLSTar__run_MLSTar&#45;&gt;BacterialTyper__scripts__MLSTar__download_PubMLST</title>
<path fill="none" stroke="#000000" d="M660.8658,-182.9813C660.8658,-182.9813 660.8658,-152.9972 660.8658,-152.9972"/>
<polygon fill="#000000" stroke="#000000" points="664.3659,-152.9971 660.8658,-142.9972 657.3659,-152.9972 664.3659,-152.9971"/>
</g>
<!-- BacterialTyper__scripts__MLSTar__run_doMLST -->
<g id="node11" class="node">
<title>BacterialTyper__scripts__MLSTar__run_doMLST</title>
<ellipse fill="#65f4ff" fill-opacity="0.698039" stroke="#000000" cx="509" cy="-125" rx="59.5901" ry="18"/>
<text text-anchor="middle" x="509" y="-121.3" font-family="Times,serif" font-size="14.00" fill="#000000">run_doMLST</text>
</g>
<!-- BacterialTyper__scripts__MLSTar__run_MLSTar&#45;&gt;BacterialTyper__scripts__MLSTar__run_doMLST -->
<g id="edge3" class="edge">
<title>BacterialTyper__scripts__MLSTar__run_MLSTar&#45;&gt;BacterialTyper__scripts__MLSTar__run_doMLST</title>
<path fill="none" stroke="#000000" d="M581.8977,-200C577.9364,-200 575.4749,-200 575.4749,-200 575.4749,-200 575.4749,-125 575.4749,-125 575.4749,-125 574.8132,-125 574.8132,-125"/>
<polygon fill="#000000" stroke="#000000" points="578.8581,-121.5002 568.858,-125 578.858,-128.5002 578.8581,-121.5002"/>
</g>
<!-- BacterialTyper__scripts__MLSTar__run_MLSTar&#45;&gt;BacterialTyper__scripts__functions__create_subfolder -->
<g id="edge2" class="edge">
<title>BacterialTyper__scripts__MLSTar__run_MLSTar&#45;&gt;BacterialTyper__scripts__functions__create_subfolder</title>
<path fill="none" stroke="#000000" d="M623.8868,-182.4262C623.8868,-176.8005 623.8868,-172 623.8868,-172 623.8868,-172 284.2151,-172 284.2151,-172 284.2151,-172 284.2151,-62.2009 284.2151,-62.2009"/>
<polygon fill="#000000" stroke="#000000" points="287.7152,-62.2008 284.2151,-52.2009 280.7152,-62.2009 287.7152,-62.2008"/>
</g>
<!-- BacterialTyper__scripts__MLSTar__run_doMLST&#45;&gt;BacterialTyper__other_tools__tools__R_scripts -->
<g id="edge8" class="edge">
<title>BacterialTyper__scripts__MLSTar__run_doMLST&#45;&gt;BacterialTyper__other_tools__tools__R_scripts</title>
<path fill="none" stroke="#000000" d="M538.8973,-109.3608C538.8973,-97.4196 538.8973,-83 538.8973,-83 538.8973,-83 786.7511,-83 786.7511,-83 786.7511,-83 786.7511,-66.3398 786.7511,-66.3398"/>
<polygon fill="#000000" stroke="#000000" points="790.2512,-66.3398 786.7511,-56.3398 783.2512,-66.3398 790.2512,-66.3398"/>
</g>
<!-- BacterialTyper__scripts__MLSTar__run_doMLST&#45;&gt;BacterialTyper__scripts__functions__print_time_stamp -->
<g id="edge7" class="edge">
<title>BacterialTyper__scripts__MLSTar__run_doMLST&#45;&gt;BacterialTyper__scripts__functions__print_time_stamp</title>
<path fill="none" stroke="#000000" d="M479.1027,-109.3883C479.1027,-109.3883 479.1027,-68.3935 479.1027,-68.3935"/>
<polygon fill="#000000" stroke="#000000" points="482.6028,-68.3934 479.1027,-58.3935 475.6028,-68.3935 482.6028,-68.3934"/>
</g>
<!-- BacterialTyper__scripts__MLSTar__run_doMLST&#45;&gt;BacterialTyper__scripts__functions__read_time_stamp -->
<g id="edge5" class="edge">
<title>BacterialTyper__scripts__MLSTar__run_doMLST&#45;&gt;BacterialTyper__scripts__functions__read_time_stamp</title>
<path fill="none" stroke="#000000" d="M509,-106.7181C509,-91.0522 509,-71 509,-71 509,-71 649.9521,-71 649.9521,-71 649.9521,-71 649.9521,-69.2046 649.9521,-69.2046"/>
<polygon fill="#000000" stroke="#000000" points="653.4522,-69.2046 649.9521,-59.2046 646.4522,-69.2046 653.4522,-69.2046"/>
</g>
<!-- BacterialTyper__scripts__MLSTar__run_doMLST&#45;&gt;BacterialTyper__scripts__functions__system_call -->
<g id="edge6" class="edge">
<title>BacterialTyper__scripts__MLSTar__run_doMLST&#45;&gt;BacterialTyper__scripts__functions__system_call</title>
<path fill="none" stroke="#000000" d="M452.4362,-119C416.4309,-119 376.5291,-119 376.5291,-119 376.5291,-119 376.5291,-69.8589 376.5291,-69.8589"/>
<polygon fill="#000000" stroke="#000000" points="380.0292,-69.8589 376.5291,-59.8589 373.0292,-69.8589 380.0292,-69.8589"/>
</g>
</g>
</svg>
