<?xml version="1.0" encoding="UTF-8" standalone="no"?>
<!DOCTYPE svg PUBLIC "-//W3C//DTD SVG 1.1//EN"
 "http://www.w3.org/Graphics/SVG/1.1/DTD/svg11.dtd">
<!-- Generated by graphviz version 2.40.1 (20161225.0304)
 -->
<!-- Title: G Pages: 1 -->
<svg width="995pt" height="345pt"
 viewBox="0.00 0.00 995.00 345.00" xmlns="http://www.w3.org/2000/svg" xmlns:xlink="http://www.w3.org/1999/xlink">
<g id="graph0" class="graph" transform="scale(1 1) rotate(0) translate(4 341)">
<title>G</title>
<polygon fill="#ffffff" stroke="transparent" points="-4,4 -4,-341 991,-341 991,4 -4,4"/>
<g id="clust1" class="cluster">
<title>cluster_G</title>
<path fill="#808080" fill-opacity="0.094118" stroke="#000000" d="M20,-8C20,-8 967,-8 967,-8 973,-8 979,-14 979,-20 979,-20 979,-317 979,-317 979,-323 973,-329 967,-329 967,-329 20,-329 20,-329 14,-329 8,-323 8,-317 8,-317 8,-20 8,-20 8,-14 14,-8 20,-8"/>
</g>
<g id="clust2" class="cluster">
<title>cluster_BacterialTyper__data__data_files</title>
<path fill="#808080" fill-opacity="0.094118" stroke="#000000" d="M78,-99C78,-99 234,-99 234,-99 240,-99 246,-105 246,-111 246,-111 246,-162 246,-162 246,-168 240,-174 234,-174 234,-174 78,-174 78,-174 72,-174 66,-168 66,-162 66,-162 66,-111 66,-111 66,-105 72,-99 78,-99"/>
<text text-anchor="middle" x="156" y="-158.8" font-family="Times,serif" font-size="14.00" fill="#000000">BacterialTyper.data.data_files</text>
</g>
<g id="clust3" class="cluster">
<title>cluster_BacterialTyper__other_tools__tools</title>
<path fill="#808080" fill-opacity="0.094118" stroke="#000000" d="M774,-16C774,-16 942,-16 942,-16 948,-16 954,-22 954,-28 954,-28 954,-79 954,-79 954,-85 948,-91 942,-91 942,-91 774,-91 774,-91 768,-91 762,-85 762,-79 762,-79 762,-28 762,-28 762,-22 768,-16 774,-16"/>
<text text-anchor="middle" x="858" y="-75.8" font-family="Times,serif" font-size="14.00" fill="#000000">BacterialTyper.other_tools.tools</text>
</g>
<g id="clust4" class="cluster">
<title>cluster_BacterialTyper__scripts__MLSTar</title>
<path fill="#808080" fill-opacity="0.094118" stroke="#000000" d="M266,-99C266,-99 959,-99 959,-99 965,-99 971,-105 971,-111 971,-111 971,-309 971,-309 971,-315 965,-321 959,-321 959,-321 266,-321 266,-321 260,-321 254,-315 254,-309 254,-309 254,-111 254,-111 254,-105 260,-99 266,-99"/>
<text text-anchor="middle" x="612.5" y="-305.8" font-family="Times,serif" font-size="14.00" fill="#000000">BacterialTyper.scripts.MLSTar</text>
</g>
<g id="clust5" class="cluster">
<title>cluster_BacterialTyper__scripts__functions</title>
<path fill="#808080" fill-opacity="0.094118" stroke="#000000" d="M28,-16C28,-16 742,-16 742,-16 748,-16 754,-22 754,-28 754,-28 754,-79 754,-79 754,-85 748,-91 742,-91 742,-91 28,-91 28,-91 22,-91 16,-85 16,-79 16,-79 16,-28 16,-28 16,-22 22,-16 28,-16"/>
<text text-anchor="middle" x="385" y="-75.8" font-family="Times,serif" font-size="14.00" fill="#000000">BacterialTyper.scripts.functions</text>
</g>
<!-- BacterialTyper__data__data_files__data_list -->
<g id="node1" class="node">
<title>BacterialTyper__data__data_files__data_list</title>
<ellipse fill="#ffa365" fill-opacity="0.698039" stroke="#000000" cx="198" cy="-125" rx="40.0939" ry="18"/>
<text text-anchor="middle" x="198" y="-121.3" font-family="Times,serif" font-size="14.00" fill="#000000">data_list</text>
</g>
<!-- BacterialTyper__other_tools__tools__R_scripts -->
<g id="node2" class="node">
<title>BacterialTyper__other_tools__tools__R_scripts</title>
<ellipse fill="#65ffe0" fill-opacity="0.698039" stroke="#000000" cx="814" cy="-42" rx="44.393" ry="18"/>
<text text-anchor="middle" x="814" y="-38.3" font-family="Times,serif" font-size="14.00" fill="#000000">R_scripts</text>
</g>
<!-- BacterialTyper__scripts__MLSTar__download_PubMLST -->
<g id="node3" class="node">
<title>BacterialTyper__scripts__MLSTar__download_PubMLST</title>
<ellipse fill="#65f4ff" fill-opacity="0.698039" stroke="#000000" cx="674" cy="-125" rx="87.1846" ry="18"/>
<text text-anchor="middle" x="674" y="-121.3" font-family="Times,serif" font-size="14.00" fill="#000000">download_PubMLST</text>
</g>
<!-- BacterialTyper__scripts__MLSTar__download_PubMLST&#45;&gt;BacterialTyper__other_tools__tools__R_scripts -->
<g id="edge14" class="edge">
<title>BacterialTyper__scripts__MLSTar__download_PubMLST&#45;&gt;BacterialTyper__other_tools__tools__R_scripts</title>
<path fill="none" stroke="#000000" d="M719.8134,-109.6663C732.5991,-104.542 746.2095,-98.2567 758,-91 769.3456,-84.0171 780.6378,-74.7087 790.0785,-66.0814"/>
<polygon fill="#000000" stroke="#000000" points="792.6531,-68.4645 797.5337,-59.0608 787.8541,-63.3685 792.6531,-68.4645"/>
</g>
<!-- BacterialTyper__scripts__functions__print_time_stamp -->
<g id="node14" class="node">
<title>BacterialTyper__scripts__functions__print_time_stamp</title>
<ellipse fill="#a365ff" fill-opacity="0.698039" stroke="#000000" cx="510" cy="-42" rx="73.387" ry="18"/>
<text text-anchor="middle" x="510" y="-38.3" font-family="Times,serif" font-size="14.00" fill="#000000">print_time_stamp</text>
</g>
<!-- BacterialTyper__scripts__MLSTar__download_PubMLST&#45;&gt;BacterialTyper__scripts__functions__print_time_stamp -->
<g id="edge17" class="edge">
<title>BacterialTyper__scripts__MLSTar__download_PubMLST&#45;&gt;BacterialTyper__scripts__functions__print_time_stamp</title>
<path fill="none" stroke="#000000" d="M632.7187,-108.9422C619.831,-103.5923 605.6753,-97.3648 593,-91 576.9011,-82.916 559.6641,-72.9657 545.0932,-64.1483"/>
<polygon fill="#000000" stroke="#000000" points="546.7565,-61.063 536.3993,-58.8315 543.1044,-67.0347 546.7565,-61.063"/>
</g>
<!-- BacterialTyper__scripts__functions__read_time_stamp -->
<g id="node15" class="node">
<title>BacterialTyper__scripts__functions__read_time_stamp</title>
<ellipse fill="#a365ff" fill-opacity="0.698039" stroke="#000000" cx="674" cy="-42" rx="72.2875" ry="18"/>
<text text-anchor="middle" x="674" y="-38.3" font-family="Times,serif" font-size="14.00" fill="#000000">read_time_stamp</text>
</g>
<!-- BacterialTyper__scripts__MLSTar__download_PubMLST&#45;&gt;BacterialTyper__scripts__functions__read_time_stamp -->
<g id="edge15" class="edge">
<title>BacterialTyper__scripts__MLSTar__download_PubMLST&#45;&gt;BacterialTyper__scripts__functions__read_time_stamp</title>
<path fill="none" stroke="#000000" d="M674,-106.9902C674,-96.2963 674,-82.4994 674,-70.3706"/>
<polygon fill="#000000" stroke="#000000" points="677.5001,-70.2612 674,-60.2612 670.5001,-70.2613 677.5001,-70.2612"/>
</g>
<!-- BacterialTyper__scripts__functions__system_call -->
<g id="node16" class="node">
<title>BacterialTyper__scripts__functions__system_call</title>
<ellipse fill="#a365ff" fill-opacity="0.698039" stroke="#000000" cx="366" cy="-42" rx="52.7911" ry="18"/>
<text text-anchor="middle" x="366" y="-38.3" font-family="Times,serif" font-size="14.00" fill="#000000">system_call</text>
</g>
<!-- BacterialTyper__scripts__MLSTar__download_PubMLST&#45;&gt;BacterialTyper__scripts__functions__system_call -->
<g id="edge16" class="edge">
<title>BacterialTyper__scripts__MLSTar__download_PubMLST&#45;&gt;BacterialTyper__scripts__functions__system_call</title>
<path fill="none" stroke="#000000" d="M626.0879,-109.891C610.8612,-105.6668 593.8561,-101.5407 578,-99 545.0397,-93.7186 459.2286,-102.7919 428,-91 413.8854,-85.6703 400.4564,-75.8777 389.7286,-66.4399"/>
<polygon fill="#000000" stroke="#000000" points="391.8032,-63.5913 382.0848,-59.3717 387.0507,-68.7308 391.8032,-63.5913"/>
</g>
<!-- BacterialTyper__scripts__MLSTar__getPUBMLST -->
<g id="node4" class="node">
<title>BacterialTyper__scripts__MLSTar__getPUBMLST</title>
<ellipse fill="#65f4ff" fill-opacity="0.698039" stroke="#000000" cx="901" cy="-200" rx="62.2891" ry="18"/>
<text text-anchor="middle" x="901" y="-196.3" font-family="Times,serif" font-size="14.00" fill="#000000">getPUBMLST</text>
</g>
<!-- BacterialTyper__scripts__MLSTar__getPUBMLST&#45;&gt;BacterialTyper__other_tools__tools__R_scripts -->
<g id="edge10" class="edge">
<title>BacterialTyper__scripts__MLSTar__getPUBMLST&#45;&gt;BacterialTyper__other_tools__tools__R_scripts</title>
<path fill="none" stroke="#000000" d="M891.1891,-182.1825C875.9813,-154.5637 846.6187,-101.2385 828.8174,-68.9098"/>
<polygon fill="#000000" stroke="#000000" points="831.798,-67.0664 823.9085,-59.9948 825.6661,-70.4428 831.798,-67.0664"/>
</g>
<!-- BacterialTyper__scripts__MLSTar__getPUBMLST&#45;&gt;BacterialTyper__scripts__functions__system_call -->
<g id="edge11" class="edge">
<title>BacterialTyper__scripts__MLSTar__getPUBMLST&#45;&gt;BacterialTyper__scripts__functions__system_call</title>
<path fill="none" stroke="#000000" d="M856.9924,-187.1904C848.1268,-185.079 838.8212,-183.1928 830,-182 808.5242,-179.0961 458.5856,-185.1453 440,-174 402.1454,-151.2997 382.1052,-101.542 372.801,-70.0185"/>
<polygon fill="#000000" stroke="#000000" points="376.0932,-68.7926 370.047,-60.0924 369.348,-70.6641 376.0932,-68.7926"/>
</g>
<!-- BacterialTyper__scripts__MLSTar__get_MLSTar_species -->
<g id="node5" class="node">
<title>BacterialTyper__scripts__MLSTar__get_MLSTar_species</title>
<ellipse fill="#65f4ff" fill-opacity="0.698039" stroke="#000000" cx="348" cy="-200" rx="86.3847" ry="18"/>
<text text-anchor="middle" x="348" y="-196.3" font-family="Times,serif" font-size="14.00" fill="#000000">get_MLSTar_species</text>
</g>
<!-- BacterialTyper__scripts__MLSTar__get_MLSTar_species&#45;&gt;BacterialTyper__data__data_files__data_list -->
<g id="edge9" class="edge">
<title>BacterialTyper__scripts__MLSTar__get_MLSTar_species&#45;&gt;BacterialTyper__data__data_files__data_list</title>
<path fill="none" stroke="#000000" d="M283.7368,-187.8622C272.1054,-184.3116 260.384,-179.7746 250,-174 238.7645,-167.7519 228.1034,-158.5317 219.3932,-149.77"/>
<polygon fill="#000000" stroke="#000000" points="221.6996,-147.1159 212.2756,-142.2745 216.6236,-151.9361 221.6996,-147.1159"/>
</g>
<!-- BacterialTyper__scripts__MLSTar__help_MLSTar -->
<g id="node6" class="node">
<title>BacterialTyper__scripts__MLSTar__help_MLSTar</title>
<ellipse fill="#65f4ff" fill-opacity="0.698039" stroke="#000000" cx="348" cy="-272" rx="61.1893" ry="18"/>
<text text-anchor="middle" x="348" y="-268.3" font-family="Times,serif" font-size="14.00" fill="#000000">help_MLSTar</text>
</g>
<!-- BacterialTyper__scripts__MLSTar__help_MLSTar&#45;&gt;BacterialTyper__scripts__MLSTar__get_MLSTar_species -->
<g id="edge1" class="edge">
<title>BacterialTyper__scripts__MLSTar__help_MLSTar&#45;&gt;BacterialTyper__scripts__MLSTar__get_MLSTar_species</title>
<path fill="none" stroke="#000000" d="M348,-253.8314C348,-246.131 348,-236.9743 348,-228.4166"/>
<polygon fill="#000000" stroke="#000000" points="351.5001,-228.4132 348,-218.4133 344.5001,-228.4133 351.5001,-228.4132"/>
</g>
<!-- BacterialTyper__scripts__MLSTar__help_options -->
<g id="node7" class="node">
<title>BacterialTyper__scripts__MLSTar__help_options</title>
<ellipse fill="#65f4ff" fill-opacity="0.698039" stroke="#000000" cx="508" cy="-200" rx="55.7903" ry="18"/>
<text text-anchor="middle" x="508" y="-196.3" font-family="Times,serif" font-size="14.00" fill="#000000">help_options</text>
</g>
<!-- BacterialTyper__scripts__MLSTar__main -->
<g id="node8" class="node">
<title>BacterialTyper__scripts__MLSTar__main</title>
<ellipse fill="#65f4ff" fill-opacity="0.698039" stroke="#000000" cx="640" cy="-272" rx="28.6953" ry="18"/>
<text text-anchor="middle" x="640" y="-268.3" font-family="Times,serif" font-size="14.00" fill="#000000">main</text>
</g>
<!-- BacterialTyper__scripts__MLSTar__main&#45;&gt;BacterialTyper__scripts__MLSTar__getPUBMLST -->
<g id="edge19" class="edge">
<title>BacterialTyper__scripts__MLSTar__main&#45;&gt;BacterialTyper__scripts__MLSTar__getPUBMLST</title>
<path fill="none" stroke="#000000" d="M666.4624,-264.7C708.3096,-253.156 790.6591,-230.4389 845.7793,-215.2333"/>
<polygon fill="#000000" stroke="#000000" points="847.0296,-218.5192 855.7387,-212.4859 845.168,-211.7713 847.0296,-218.5192"/>
</g>
<!-- BacterialTyper__scripts__MLSTar__main&#45;&gt;BacterialTyper__scripts__MLSTar__help_options -->
<g id="edge18" class="edge">
<title>BacterialTyper__scripts__MLSTar__main&#45;&gt;BacterialTyper__scripts__MLSTar__help_options</title>
<path fill="none" stroke="#000000" d="M618.2029,-260.1107C598.5509,-249.3914 569.2221,-233.3939 545.7607,-220.5967"/>
<polygon fill="#000000" stroke="#000000" points="547.2191,-217.4055 536.7641,-215.6895 543.8671,-223.5507 547.2191,-217.4055"/>
</g>
<!-- BacterialTyper__scripts__MLSTar__plot_MLST -->
<g id="node9" class="node">
<title>BacterialTyper__scripts__MLSTar__plot_MLST</title>
<ellipse fill="#65f4ff" fill-opacity="0.698039" stroke="#000000" cx="768" cy="-200" rx="52.7911" ry="18"/>
<text text-anchor="middle" x="768" y="-196.3" font-family="Times,serif" font-size="14.00" fill="#000000">plot_MLST</text>
</g>
<!-- BacterialTyper__scripts__MLSTar__main&#45;&gt;BacterialTyper__scripts__MLSTar__plot_MLST -->
<g id="edge23" class="edge">
<title>BacterialTyper__scripts__MLSTar__main&#45;&gt;BacterialTyper__scripts__MLSTar__plot_MLST</title>
<path fill="none" stroke="#000000" d="M661.4243,-259.9488C680.4398,-249.2526 708.6323,-233.3943 731.2454,-220.6745"/>
<polygon fill="#000000" stroke="#000000" points="733.2359,-223.5706 740.2358,-215.6174 729.8041,-217.4695 733.2359,-223.5706"/>
</g>
<!-- BacterialTyper__scripts__MLSTar__run_MLSTar -->
<g id="node10" class="node">
<title>BacterialTyper__scripts__MLSTar__run_MLSTar</title>
<ellipse fill="#65f4ff" fill-opacity="0.698039" stroke="#000000" cx="640" cy="-200" rx="57.6901" ry="18"/>
<text text-anchor="middle" x="640" y="-196.3" font-family="Times,serif" font-size="14.00" fill="#000000">run_MLSTar</text>
</g>
<!-- BacterialTyper__scripts__MLSTar__main&#45;&gt;BacterialTyper__scripts__MLSTar__run_MLSTar -->
<g id="edge20" class="edge">
<title>BacterialTyper__scripts__MLSTar__main&#45;&gt;BacterialTyper__scripts__MLSTar__run_MLSTar</title>
<path fill="none" stroke="#000000" d="M640,-253.8314C640,-246.131 640,-236.9743 640,-228.4166"/>
<polygon fill="#000000" stroke="#000000" points="643.5001,-228.4132 640,-218.4133 636.5001,-228.4133 643.5001,-228.4132"/>
</g>
<!-- BacterialTyper__scripts__functions__create_folder -->
<g id="node12" class="node">
<title>BacterialTyper__scripts__functions__create_folder</title>
<ellipse fill="#a365ff" fill-opacity="0.698039" stroke="#000000" cx="81" cy="-42" rx="57.3905" ry="18"/>
<text text-anchor="middle" x="81" y="-38.3" font-family="Times,serif" font-size="14.00" fill="#000000">create_folder</text>
</g>
<!-- BacterialTyper__scripts__MLSTar__main&#45;&gt;BacterialTyper__scripts__functions__create_folder -->
<g id="edge22" class="edge">
<title>BacterialTyper__scripts__MLSTar__main&#45;&gt;BacterialTyper__scripts__functions__create_folder</title>
<path fill="none" stroke="#000000" d="M611.4042,-269.7261C494.9687,-260.4245 62.1568,-225.4145 50,-218 3.6135,-189.7088 .7757,-149.0163 22,-99 27.5862,-85.8359 37.8664,-74.2297 48.2992,-64.9844"/>
<polygon fill="#000000" stroke="#000000" points="50.7807,-67.4729 56.2318,-58.388 46.305,-62.0907 50.7807,-67.4729"/>
</g>
<!-- BacterialTyper__scripts__functions__create_subfolder -->
<g id="node13" class="node">
<title>BacterialTyper__scripts__functions__create_subfolder</title>
<ellipse fill="#a365ff" fill-opacity="0.698039" stroke="#000000" cx="226" cy="-42" rx="69.5877" ry="18"/>
<text text-anchor="middle" x="226" y="-38.3" font-family="Times,serif" font-size="14.00" fill="#000000">create_subfolder</text>
</g>
<!-- BacterialTyper__scripts__MLSTar__main&#45;&gt;BacterialTyper__scripts__functions__create_subfolder -->
<g id="edge21" class="edge">
<title>BacterialTyper__scripts__MLSTar__main&#45;&gt;BacterialTyper__scripts__functions__create_subfolder</title>
<path fill="none" stroke="#000000" d="M611.5791,-269.5345C497.6882,-259.3673 78.6665,-219.1013 42,-174 20.9728,-148.1356 19.3428,-123.4492 42,-99 49.953,-90.418 135.8774,-94.6318 147,-91 164.5332,-85.275 182.1557,-74.8965 196.2937,-65.1602"/>
<polygon fill="#000000" stroke="#000000" points="198.5035,-67.8832 204.6144,-59.2283 194.44,-62.1834 198.5035,-67.8832"/>
</g>
<!-- BacterialTyper__scripts__MLSTar__plot_MLST&#45;&gt;BacterialTyper__other_tools__tools__R_scripts -->
<g id="edge12" class="edge">
<title>BacterialTyper__scripts__MLSTar__plot_MLST&#45;&gt;BacterialTyper__other_tools__tools__R_scripts</title>
<path fill="none" stroke="#000000" d="M773.2768,-181.8754C781.2835,-154.3741 796.561,-101.8991 805.9573,-69.6248"/>
<polygon fill="#000000" stroke="#000000" points="809.3498,-70.493 808.7848,-59.9132 802.6289,-68.5362 809.3498,-70.493"/>
</g>
<!-- BacterialTyper__scripts__MLSTar__plot_MLST&#45;&gt;BacterialTyper__scripts__functions__system_call -->
<g id="edge13" class="edge">
<title>BacterialTyper__scripts__MLSTar__plot_MLST&#45;&gt;BacterialTyper__scripts__functions__system_call</title>
<path fill="none" stroke="#000000" d="M730.6186,-187.2171C722.8961,-185.0741 714.752,-183.169 707,-182 689.2823,-179.3282 74.5912,-186.7483 62,-174 38.5764,-150.2841 38.8208,-122.9549 62,-99 71.3927,-89.293 292.3341,-95.6928 305,-91 319.0075,-85.8102 332.2369,-76.0373 342.7718,-66.5764"/>
<polygon fill="#000000" stroke="#000000" points="345.4109,-68.8979 350.271,-59.4836 340.6008,-63.8123 345.4109,-68.8979"/>
</g>
<!-- BacterialTyper__scripts__MLSTar__run_MLSTar&#45;&gt;BacterialTyper__scripts__MLSTar__download_PubMLST -->
<g id="edge4" class="edge">
<title>BacterialTyper__scripts__MLSTar__run_MLSTar&#45;&gt;BacterialTyper__scripts__MLSTar__download_PubMLST</title>
<path fill="none" stroke="#000000" d="M648.2305,-181.8446C652.2397,-173.0007 657.145,-162.1801 661.5959,-152.3619"/>
<polygon fill="#000000" stroke="#000000" points="664.9041,-153.5412 665.8453,-142.9882 658.5287,-150.6509 664.9041,-153.5412"/>
</g>
<!-- BacterialTyper__scripts__MLSTar__run_doMLST -->
<g id="node11" class="node">
<title>BacterialTyper__scripts__MLSTar__run_doMLST</title>
<ellipse fill="#65f4ff" fill-opacity="0.698039" stroke="#000000" cx="509" cy="-125" rx="59.5901" ry="18"/>
<text text-anchor="middle" x="509" y="-121.3" font-family="Times,serif" font-size="14.00" fill="#000000">run_doMLST</text>
</g>
<!-- BacterialTyper__scripts__MLSTar__run_MLSTar&#45;&gt;BacterialTyper__scripts__MLSTar__run_doMLST -->
<g id="edge2" class="edge">
<title>BacterialTyper__scripts__MLSTar__run_MLSTar&#45;&gt;BacterialTyper__scripts__MLSTar__run_doMLST</title>
<path fill="none" stroke="#000000" d="M602.9751,-186.0456C594.5947,-182.4581 585.8556,-178.3662 578,-174 564.4626,-166.4758 550.3744,-156.8398 538.4844,-148.107"/>
<polygon fill="#000000" stroke="#000000" points="540.3585,-145.138 530.2544,-141.9509 536.1656,-150.7434 540.3585,-145.138"/>
</g>
<!-- BacterialTyper__scripts__MLSTar__run_MLSTar&#45;&gt;BacterialTyper__scripts__functions__create_subfolder -->
<g id="edge3" class="edge">
<title>BacterialTyper__scripts__MLSTar__run_MLSTar&#45;&gt;BacterialTyper__scripts__functions__create_subfolder</title>
<path fill="none" stroke="#000000" d="M598.4841,-187.3422C590.1169,-185.2183 581.332,-183.2886 573,-182 533.4309,-175.8805 430.52,-187.979 393,-174 332.9805,-151.6382 277.6862,-99.0546 248.2281,-67.4187"/>
<polygon fill="#000000" stroke="#000000" points="250.6417,-64.8719 241.3082,-59.8582 245.478,-69.598 250.6417,-64.8719"/>
</g>
<!-- BacterialTyper__scripts__MLSTar__run_doMLST&#45;&gt;BacterialTyper__other_tools__tools__R_scripts -->
<g id="edge5" class="edge">
<title>BacterialTyper__scripts__MLSTar__run_doMLST&#45;&gt;BacterialTyper__other_tools__tools__R_scripts</title>
<path fill="none" stroke="#000000" d="M542.4105,-109.9846C553.5135,-105.6552 566.0869,-101.4445 578,-99 617.2223,-90.9518 720.8409,-105.9118 758,-91 771.0552,-85.761 783.136,-76.1135 792.7095,-66.7557"/>
<polygon fill="#000000" stroke="#000000" points="795.3845,-69.0244 799.8203,-59.4028 790.3526,-64.1581 795.3845,-69.0244"/>
</g>
<!-- BacterialTyper__scripts__MLSTar__run_doMLST&#45;&gt;BacterialTyper__scripts__functions__print_time_stamp -->
<g id="edge8" class="edge">
<title>BacterialTyper__scripts__MLSTar__run_doMLST&#45;&gt;BacterialTyper__scripts__functions__print_time_stamp</title>
<path fill="none" stroke="#000000" d="M509.217,-106.9902C509.3458,-96.2963 509.5121,-82.4994 509.6582,-70.3706"/>
<polygon fill="#000000" stroke="#000000" points="513.1592,-70.3027 509.78,-60.2612 506.1597,-70.2183 513.1592,-70.3027"/>
</g>
<!-- BacterialTyper__scripts__MLSTar__run_doMLST&#45;&gt;BacterialTyper__scripts__functions__read_time_stamp -->
<g id="edge6" class="edge">
<title>BacterialTyper__scripts__MLSTar__run_doMLST&#45;&gt;BacterialTyper__scripts__functions__read_time_stamp</title>
<path fill="none" stroke="#000000" d="M546.7159,-110.9355C561.1013,-105.2128 577.5154,-98.2434 592,-91 607.9686,-83.0146 625.008,-73.0799 639.3937,-64.2476"/>
<polygon fill="#000000" stroke="#000000" points="641.3264,-67.1674 647.9745,-58.918 637.633,-61.221 641.3264,-67.1674"/>
</g>
<!-- BacterialTyper__scripts__MLSTar__run_doMLST&#45;&gt;BacterialTyper__scripts__functions__system_call -->
<g id="edge7" class="edge">
<title>BacterialTyper__scripts__MLSTar__run_doMLST&#45;&gt;BacterialTyper__scripts__functions__system_call</title>
<path fill="none" stroke="#000000" d="M470.0551,-111.1455C456.3675,-105.6344 441.1347,-98.7509 428,-91 415.5713,-83.6657 402.8888,-74.0859 392.2594,-65.3442"/>
<polygon fill="#000000" stroke="#000000" points="394.4746,-62.6339 384.5694,-58.8738 389.9678,-67.9902 394.4746,-62.6339"/>
</g>
</g>
</svg>
