<?xml version="1.0" encoding="UTF-8" standalone="no"?>
<!DOCTYPE svg PUBLIC "-//W3C//DTD SVG 1.1//EN"
 "http://www.w3.org/Graphics/SVG/1.1/DTD/svg11.dtd">
<!-- Generated by graphviz version 2.40.1 (20161225.0304)
 -->
<!-- Title: G Pages: 1 -->
<svg width="757pt" height="303pt"
 viewBox="0.00 0.00 757.00 303.00" xmlns="http://www.w3.org/2000/svg" xmlns:xlink="http://www.w3.org/1999/xlink">
<g id="graph0" class="graph" transform="scale(1 1) rotate(0) translate(4 299)">
<title>G</title>
<polygon fill="#ffffff" stroke="transparent" points="-4,4 -4,-299 753,-299 753,4 -4,4"/>
<g id="clust1" class="cluster">
<title>cluster_G</title>
<path fill="#808080" fill-opacity="0.094118" stroke="#000000" d="M20,-8C20,-8 729,-8 729,-8 735,-8 741,-14 741,-20 741,-20 741,-275 741,-275 741,-281 735,-287 729,-287 729,-287 20,-287 20,-287 14,-287 8,-281 8,-275 8,-275 8,-20 8,-20 8,-14 14,-8 20,-8"/>
</g>
<g id="clust2" class="cluster">
<title>cluster_BacterialTyper__scripts__MLSTar</title>
<path fill="#808080" fill-opacity="0.094118" stroke="#000000" d="M28,-16C28,-16 721,-16 721,-16 727,-16 733,-22 733,-28 733,-28 733,-223 733,-223 733,-229 727,-235 721,-235 721,-235 28,-235 28,-235 22,-235 16,-229 16,-223 16,-223 16,-28 16,-28 16,-22 22,-16 28,-16"/>
<text text-anchor="middle" x="374.5" y="-219.8" font-family="Times,serif" font-size="14.00" fill="#000000">BacterialTyper.scripts.MLSTar</text>
</g>
<!-- BacterialTyper__scripts__MLSTar -->
<g id="node1" class="node">
<title>BacterialTyper__scripts__MLSTar</title>
<ellipse fill="#ffffff" fill-opacity="0.698039" stroke="#000000" cx="334" cy="-261" rx="122.3786" ry="18"/>
<text text-anchor="middle" x="334" y="-257.3" font-family="Times,serif" font-size="14.00" fill="#000000">BacterialTyper.scripts.MLSTar</text>
</g>
<!-- BacterialTyper__scripts__MLSTar__main -->
<g id="node7" class="node">
<title>BacterialTyper__scripts__MLSTar__main</title>
<ellipse fill="#ff6565" fill-opacity="0.698039" stroke="#000000" cx="334" cy="-186" rx="28.6953" ry="18"/>
<text text-anchor="middle" x="334" y="-182.3" font-family="Times,serif" font-size="14.00" fill="#000000">main</text>
</g>
<!-- BacterialTyper__scripts__MLSTar&#45;&gt;BacterialTyper__scripts__MLSTar__main -->
<g id="edge1" class="edge">
<title>BacterialTyper__scripts__MLSTar&#45;&gt;BacterialTyper__scripts__MLSTar__main</title>
<path fill="none" stroke="#000000" d="M334,-242.8446C334,-234.3401 334,-224.0076 334,-214.4964"/>
<polygon fill="#000000" stroke="#000000" points="337.5001,-214.2481 334,-204.2482 330.5001,-214.2482 337.5001,-214.2481"/>
</g>
<!-- BacterialTyper__scripts__MLSTar__download_PubMLST -->
<g id="node2" class="node">
<title>BacterialTyper__scripts__MLSTar__download_PubMLST</title>
<ellipse fill="#ff6565" fill-opacity="0.698039" stroke="#000000" cx="394" cy="-42" rx="87.1846" ry="18"/>
<text text-anchor="middle" x="394" y="-38.3" font-family="Times,serif" font-size="14.00" fill="#000000">download_PubMLST</text>
</g>
<!-- BacterialTyper__scripts__MLSTar__getPUBMLST -->
<g id="node3" class="node">
<title>BacterialTyper__scripts__MLSTar__getPUBMLST</title>
<ellipse fill="#ff6565" fill-opacity="0.698039" stroke="#000000" cx="86" cy="-114" rx="62.2891" ry="18"/>
<text text-anchor="middle" x="86" y="-110.3" font-family="Times,serif" font-size="14.00" fill="#000000">getPUBMLST</text>
</g>
<!-- BacterialTyper__scripts__MLSTar__get_MLSTar_species -->
<g id="node4" class="node">
<title>BacterialTyper__scripts__MLSTar__get_MLSTar_species</title>
<ellipse fill="#ff6565" fill-opacity="0.698039" stroke="#000000" cx="639" cy="-114" rx="86.3847" ry="18"/>
<text text-anchor="middle" x="639" y="-110.3" font-family="Times,serif" font-size="14.00" fill="#000000">get_MLSTar_species</text>
</g>
<!-- BacterialTyper__scripts__MLSTar__help_MLSTar -->
<g id="node5" class="node">
<title>BacterialTyper__scripts__MLSTar__help_MLSTar</title>
<ellipse fill="#ff6565" fill-opacity="0.698039" stroke="#000000" cx="639" cy="-186" rx="61.1893" ry="18"/>
<text text-anchor="middle" x="639" y="-182.3" font-family="Times,serif" font-size="14.00" fill="#000000">help_MLSTar</text>
</g>
<!-- BacterialTyper__scripts__MLSTar__help_MLSTar&#45;&gt;BacterialTyper__scripts__MLSTar__get_MLSTar_species -->
<g id="edge2" class="edge">
<title>BacterialTyper__scripts__MLSTar__help_MLSTar&#45;&gt;BacterialTyper__scripts__MLSTar__get_MLSTar_species</title>
<path fill="none" stroke="#000000" d="M639,-167.8314C639,-160.131 639,-150.9743 639,-142.4166"/>
<polygon fill="#000000" stroke="#000000" points="642.5001,-142.4132 639,-132.4133 635.5001,-142.4133 642.5001,-142.4132"/>
</g>
<!-- BacterialTyper__scripts__MLSTar__help_options -->
<g id="node6" class="node">
<title>BacterialTyper__scripts__MLSTar__help_options</title>
<ellipse fill="#ff6565" fill-opacity="0.698039" stroke="#000000" cx="222" cy="-114" rx="55.7903" ry="18"/>
<text text-anchor="middle" x="222" y="-110.3" font-family="Times,serif" font-size="14.00" fill="#000000">help_options</text>
</g>
<!-- BacterialTyper__scripts__MLSTar__main&#45;&gt;BacterialTyper__scripts__MLSTar__getPUBMLST -->
<g id="edge7" class="edge">
<title>BacterialTyper__scripts__MLSTar__main&#45;&gt;BacterialTyper__scripts__MLSTar__getPUBMLST</title>
<path fill="none" stroke="#000000" d="M309.9097,-175.7429C303.2005,-173.0568 295.8684,-170.278 289,-168 274.9879,-163.3527 197.488,-142.9808 142.4191,-128.6353"/>
<polygon fill="#000000" stroke="#000000" points="142.9771,-125.164 132.4179,-126.032 141.2137,-131.9383 142.9771,-125.164"/>
</g>
<!-- BacterialTyper__scripts__MLSTar__main&#45;&gt;BacterialTyper__scripts__MLSTar__help_options -->
<g id="edge6" class="edge">
<title>BacterialTyper__scripts__MLSTar__main&#45;&gt;BacterialTyper__scripts__MLSTar__help_options</title>
<path fill="none" stroke="#000000" d="M313.9766,-173.1278C297.8986,-162.7919 274.9591,-148.0451 256.0119,-135.8648"/>
<polygon fill="#000000" stroke="#000000" points="257.6578,-132.762 247.3533,-130.2985 253.8724,-138.6503 257.6578,-132.762"/>
</g>
<!-- BacterialTyper__scripts__MLSTar__plot_MLST -->
<g id="node8" class="node">
<title>BacterialTyper__scripts__MLSTar__plot_MLST</title>
<ellipse fill="#ff6565" fill-opacity="0.698039" stroke="#000000" cx="349" cy="-114" rx="52.7911" ry="18"/>
<text text-anchor="middle" x="349" y="-110.3" font-family="Times,serif" font-size="14.00" fill="#000000">plot_MLST</text>
</g>
<!-- BacterialTyper__scripts__MLSTar__main&#45;&gt;BacterialTyper__scripts__MLSTar__plot_MLST -->
<g id="edge5" class="edge">
<title>BacterialTyper__scripts__MLSTar__main&#45;&gt;BacterialTyper__scripts__MLSTar__plot_MLST</title>
<path fill="none" stroke="#000000" d="M337.7851,-167.8314C339.3894,-160.131 341.297,-150.9743 343.0799,-142.4166"/>
<polygon fill="#000000" stroke="#000000" points="346.5507,-142.9169 345.1639,-132.4133 339.6979,-141.4892 346.5507,-142.9169"/>
</g>
<!-- BacterialTyper__scripts__MLSTar__run_MLSTar -->
<g id="node9" class="node">
<title>BacterialTyper__scripts__MLSTar__run_MLSTar</title>
<ellipse fill="#ff6565" fill-opacity="0.698039" stroke="#000000" cx="477" cy="-114" rx="57.6901" ry="18"/>
<text text-anchor="middle" x="477" y="-110.3" font-family="Times,serif" font-size="14.00" fill="#000000">run_MLSTar</text>
</g>
<!-- BacterialTyper__scripts__MLSTar__main&#45;&gt;BacterialTyper__scripts__MLSTar__run_MLSTar -->
<g id="edge8" class="edge">
<title>BacterialTyper__scripts__MLSTar__main&#45;&gt;BacterialTyper__scripts__MLSTar__run_MLSTar</title>
<path fill="none" stroke="#000000" d="M356.3438,-174.75C377.9616,-163.8655 411.1991,-147.1305 437.3194,-133.9791"/>
<polygon fill="#000000" stroke="#000000" points="439.2281,-136.9367 446.5859,-129.3134 436.0801,-130.6844 439.2281,-136.9367"/>
</g>
<!-- BacterialTyper__scripts__MLSTar__run_MLSTar&#45;&gt;BacterialTyper__scripts__MLSTar__download_PubMLST -->
<g id="edge4" class="edge">
<title>BacterialTyper__scripts__MLSTar__run_MLSTar&#45;&gt;BacterialTyper__scripts__MLSTar__download_PubMLST</title>
<path fill="none" stroke="#000000" d="M457.3302,-96.937C446.8138,-87.8144 433.6828,-76.4237 422.1085,-66.3833"/>
<polygon fill="#000000" stroke="#000000" points="424.2428,-63.6014 414.3954,-59.6924 419.6559,-68.8891 424.2428,-63.6014"/>
</g>
<!-- BacterialTyper__scripts__MLSTar__run_doMLST -->
<g id="node10" class="node">
<title>BacterialTyper__scripts__MLSTar__run_doMLST</title>
<ellipse fill="#ff6565" fill-opacity="0.698039" stroke="#000000" cx="559" cy="-42" rx="59.5901" ry="18"/>
<text text-anchor="middle" x="559" y="-38.3" font-family="Times,serif" font-size="14.00" fill="#000000">run_doMLST</text>
</g>
<!-- BacterialTyper__scripts__MLSTar__run_MLSTar&#45;&gt;BacterialTyper__scripts__MLSTar__run_doMLST -->
<g id="edge3" class="edge">
<title>BacterialTyper__scripts__MLSTar__run_MLSTar&#45;&gt;BacterialTyper__scripts__MLSTar__run_doMLST</title>
<path fill="none" stroke="#000000" d="M496.4329,-96.937C506.9765,-87.6792 520.1802,-76.0857 531.7374,-65.9379"/>
<polygon fill="#000000" stroke="#000000" points="534.2174,-68.4181 539.4225,-59.19 529.5987,-63.158 534.2174,-68.4181"/>
</g>
<!-- BacterialTyper__scripts__MLSTar__update_MLSTar_profile_alleles -->
<g id="node11" class="node">
<title>BacterialTyper__scripts__MLSTar__update_MLSTar_profile_alleles</title>
<ellipse fill="#ff6565" fill-opacity="0.698039" stroke="#000000" cx="156" cy="-186" rx="124.2781" ry="18"/>
<text text-anchor="middle" x="156" y="-182.3" font-family="Times,serif" font-size="14.00" fill="#000000">update_MLSTar_profile_alleles</text>
</g>
</g>
</svg>
