<?xml version="1.0" encoding="UTF-8" standalone="no"?>
<!DOCTYPE svg PUBLIC "-//W3C//DTD SVG 1.1//EN"
 "http://www.w3.org/Graphics/SVG/1.1/DTD/svg11.dtd">
<!-- Generated by graphviz version 2.40.1 (20161225.0304)
 -->
<!-- Title: G Pages: 1 -->
<svg width="347pt" height="270pt"
 viewBox="0.00 0.00 347.00 270.00" xmlns="http://www.w3.org/2000/svg" xmlns:xlink="http://www.w3.org/1999/xlink">
<g id="graph0" class="graph" transform="scale(1 1) rotate(0) translate(4 266)">
<title>G</title>
<polygon fill="#ffffff" stroke="transparent" points="-4,4 -4,-266 343,-266 343,4 -4,4"/>
<g id="clust1" class="cluster">
<title>cluster_G</title>
<path fill="#808080" fill-opacity="0.094118" stroke="#000000" d="M20,-8C20,-8 319,-8 319,-8 325,-8 331,-14 331,-20 331,-20 331,-242 331,-242 331,-248 325,-254 319,-254 319,-254 20,-254 20,-254 14,-254 8,-248 8,-242 8,-242 8,-20 8,-20 8,-14 14,-8 20,-8"/>
</g>
<g id="clust2" class="cluster">
<title>cluster_BacterialTyper__scripts__functions</title>
<path fill="#808080" fill-opacity="0.094118" stroke="#000000" d="M73,-16C73,-16 303,-16 303,-16 309,-16 315,-22 315,-28 315,-28 315,-79 315,-79 315,-85 309,-91 303,-91 303,-91 73,-91 73,-91 67,-91 61,-85 61,-79 61,-79 61,-28 61,-28 61,-22 67,-16 73,-16"/>
<text text-anchor="middle" x="188" y="-75.8" font-family="Times,serif" font-size="14.00" fill="#000000">BacterialTyper.scripts.functions</text>
</g>
<g id="clust3" class="cluster">
<title>cluster_BacterialTyper__scripts__multiQC_report</title>
<path fill="#808080" fill-opacity="0.094118" stroke="#000000" d="M28,-99C28,-99 299,-99 299,-99 305,-99 311,-105 311,-111 311,-111 311,-234 311,-234 311,-240 305,-246 299,-246 299,-246 28,-246 28,-246 22,-246 16,-240 16,-234 16,-234 16,-111 16,-111 16,-105 22,-99 28,-99"/>
<text text-anchor="middle" x="163.5" y="-230.8" font-family="Times,serif" font-size="14.00" fill="#000000">BacterialTyper.scripts.multiQC_report</text>
</g>
<!-- BacterialTyper__scripts__functions__printList2file -->
<g id="node1" class="node">
<title>BacterialTyper__scripts__functions__printList2file</title>
<ellipse fill="#a365ff" fill-opacity="0.698039" stroke="#000000" cx="250" cy="-42" rx="57.3905" ry="18"/>
<text text-anchor="middle" x="250" y="-38.3" font-family="Times,serif" font-size="14.00" fill="#000000">printList2file</text>
</g>
<!-- BacterialTyper__scripts__functions__system_call -->
<g id="node2" class="node">
<title>BacterialTyper__scripts__functions__system_call</title>
<ellipse fill="#a365ff" fill-opacity="0.698039" stroke="#000000" cx="122" cy="-42" rx="52.7911" ry="18"/>
<text text-anchor="middle" x="122" y="-38.3" font-family="Times,serif" font-size="14.00" fill="#000000">system_call</text>
</g>
<!-- BacterialTyper__scripts__multiQC_report__help_options -->
<g id="node3" class="node">
<title>BacterialTyper__scripts__multiQC_report__help_options</title>
<ellipse fill="#f465ff" fill-opacity="0.698039" stroke="#000000" cx="247" cy="-125" rx="55.7903" ry="18"/>
<text text-anchor="middle" x="247" y="-121.3" font-family="Times,serif" font-size="14.00" fill="#000000">help_options</text>
</g>
<!-- BacterialTyper__scripts__multiQC_report__main -->
<g id="node4" class="node">
<title>BacterialTyper__scripts__multiQC_report__main</title>
<ellipse fill="#f465ff" fill-opacity="0.698039" stroke="#000000" cx="251" cy="-197" rx="28.6953" ry="18"/>
<text text-anchor="middle" x="251" y="-193.3" font-family="Times,serif" font-size="14.00" fill="#000000">main</text>
</g>
<!-- BacterialTyper__scripts__multiQC_report__main&#45;&gt;BacterialTyper__scripts__multiQC_report__help_options -->
<g id="edge4" class="edge">
<title>BacterialTyper__scripts__multiQC_report__main&#45;&gt;BacterialTyper__scripts__multiQC_report__help_options</title>
<path fill="none" stroke="#000000" d="M260.5325,-179.937C260.5325,-179.937 260.5325,-152.6924 260.5325,-152.6924"/>
<polygon fill="#000000" stroke="#000000" points="264.0326,-152.6924 260.5325,-142.6924 257.0326,-152.6925 264.0326,-152.6924"/>
</g>
<!-- BacterialTyper__scripts__multiQC_report__multiQC_call -->
<g id="node5" class="node">
<title>BacterialTyper__scripts__multiQC_report__multiQC_call</title>
<ellipse fill="#f465ff" fill-opacity="0.698039" stroke="#000000" cx="114" cy="-125" rx="59.2899" ry="18"/>
<text text-anchor="middle" x="114" y="-121.3" font-family="Times,serif" font-size="14.00" fill="#000000">multiQC_call</text>
</g>
<!-- BacterialTyper__scripts__multiQC_report__main&#45;&gt;BacterialTyper__scripts__multiQC_report__multiQC_call -->
<g id="edge5" class="edge">
<title>BacterialTyper__scripts__multiQC_report__main&#45;&gt;BacterialTyper__scripts__multiQC_report__multiQC_call</title>
<path fill="none" stroke="#000000" d="M241.4675,-179.8435C241.4675,-170.5713 241.4675,-161 241.4675,-161 241.4675,-161 133.7149,-161 133.7149,-161 133.7149,-161 133.7149,-152.1565 133.7149,-152.1565"/>
<polygon fill="#000000" stroke="#000000" points="137.215,-152.1565 133.7149,-142.1565 130.215,-152.1566 137.215,-152.1565"/>
</g>
<!-- BacterialTyper__scripts__multiQC_report__multiQC_call&#45;&gt;BacterialTyper__scripts__functions__system_call -->
<g id="edge3" class="edge">
<title>BacterialTyper__scripts__multiQC_report__multiQC_call&#45;&gt;BacterialTyper__scripts__functions__system_call</title>
<path fill="none" stroke="#000000" d="M121.2497,-106.9902C121.2497,-106.9902 121.2497,-70.2612 121.2497,-70.2612"/>
<polygon fill="#000000" stroke="#000000" points="124.7498,-70.2612 121.2497,-60.2612 117.7498,-70.2613 124.7498,-70.2612"/>
</g>
<!-- BacterialTyper__scripts__multiQC_report__multiQC_module_call -->
<g id="node6" class="node">
<title>BacterialTyper__scripts__multiQC_report__multiQC_module_call</title>
<ellipse fill="#f465ff" fill-opacity="0.698039" stroke="#000000" cx="114" cy="-197" rx="90.1842" ry="18"/>
<text text-anchor="middle" x="114" y="-193.3" font-family="Times,serif" font-size="14.00" fill="#000000">multiQC_module_call</text>
</g>
<!-- BacterialTyper__scripts__multiQC_report__multiQC_module_call&#45;&gt;BacterialTyper__scripts__functions__printList2file -->
<g id="edge1" class="edge">
<title>BacterialTyper__scripts__multiQC_report__multiQC_module_call&#45;&gt;BacterialTyper__scripts__functions__printList2file</title>
<path fill="none" stroke="#000000" d="M182.8751,-185.3498C182.8751,-149.3028 182.8751,-42 182.8751,-42 182.8751,-42 183.8656,-42 183.8656,-42"/>
<polygon fill="#000000" stroke="#000000" points="182.7797,-45.5001 192.7796,-42 182.7796,-38.5001 182.7797,-45.5001"/>
</g>
<!-- BacterialTyper__scripts__multiQC_report__multiQC_module_call&#45;&gt;BacterialTyper__scripts__multiQC_report__multiQC_call -->
<g id="edge2" class="edge">
<title>BacterialTyper__scripts__multiQC_report__multiQC_module_call&#45;&gt;BacterialTyper__scripts__multiQC_report__multiQC_call</title>
<path fill="none" stroke="#000000" d="M94.2851,-179.2022C94.2851,-179.2022 94.2851,-152.0972 94.2851,-152.0972"/>
<polygon fill="#000000" stroke="#000000" points="97.7852,-152.0972 94.2851,-142.0972 90.7852,-152.0973 97.7852,-152.0972"/>
</g>
</g>
</svg>
