<?xml version="1.0" encoding="UTF-8" standalone="no"?>
<!DOCTYPE svg PUBLIC "-//W3C//DTD SVG 1.1//EN"
 "http://www.w3.org/Graphics/SVG/1.1/DTD/svg11.dtd">
<!-- Generated by graphviz version 2.40.1 (20161225.0304)
 -->
<!-- Title: G Pages: 1 -->
<svg width="347pt" height="270pt"
 viewBox="0.00 0.00 347.00 270.00" xmlns="http://www.w3.org/2000/svg" xmlns:xlink="http://www.w3.org/1999/xlink">
<g id="graph0" class="graph" transform="scale(1 1) rotate(0) translate(4 266)">
<title>G</title>
<polygon fill="#ffffff" stroke="transparent" points="-4,4 -4,-266 343,-266 343,4 -4,4"/>
<g id="clust1" class="cluster">
<title>cluster_G</title>
<path fill="#808080" fill-opacity="0.094118" stroke="#000000" d="M20,-8C20,-8 319,-8 319,-8 325,-8 331,-14 331,-20 331,-20 331,-242 331,-242 331,-248 325,-254 319,-254 319,-254 20,-254 20,-254 14,-254 8,-248 8,-242 8,-242 8,-20 8,-20 8,-14 14,-8 20,-8"/>
</g>
<g id="clust2" class="cluster">
<title>cluster_BacterialTyper__scripts__functions</title>
<path fill="#808080" fill-opacity="0.094118" stroke="#000000" d="M73,-16C73,-16 303,-16 303,-16 309,-16 315,-22 315,-28 315,-28 315,-79 315,-79 315,-85 309,-91 303,-91 303,-91 73,-91 73,-91 67,-91 61,-85 61,-79 61,-79 61,-28 61,-28 61,-22 67,-16 73,-16"/>
<text text-anchor="middle" x="188" y="-75.8" font-family="Times,serif" font-size="14.00" fill="#000000">BacterialTyper.scripts.functions</text>
</g>
<g id="clust3" class="cluster">
<title>cluster_BacterialTyper__scripts__multiQC_report</title>
<path fill="#808080" fill-opacity="0.094118" stroke="#000000" d="M28,-99C28,-99 299,-99 299,-99 305,-99 311,-105 311,-111 311,-111 311,-234 311,-234 311,-240 305,-246 299,-246 299,-246 28,-246 28,-246 22,-246 16,-240 16,-234 16,-234 16,-111 16,-111 16,-105 22,-99 28,-99"/>
<text text-anchor="middle" x="163.5" y="-230.8" font-family="Times,serif" font-size="14.00" fill="#000000">BacterialTyper.scripts.multiQC_report</text>
</g>
<!-- BacterialTyper__scripts__functions__printList2file -->
<g id="node1" class="node">
<title>BacterialTyper__scripts__functions__printList2file</title>
<ellipse fill="#a365ff" fill-opacity="0.698039" stroke="#000000" cx="250" cy="-42" rx="57.3905" ry="18"/>
<text text-anchor="middle" x="250" y="-38.3" font-family="Times,serif" font-size="14.00" fill="#000000">printList2file</text>
</g>
<!-- BacterialTyper__scripts__functions__system_call -->
<g id="node2" class="node">
<title>BacterialTyper__scripts__functions__system_call</title>
<ellipse fill="#a365ff" fill-opacity="0.698039" stroke="#000000" cx="122" cy="-42" rx="52.7911" ry="18"/>
<text text-anchor="middle" x="122" y="-38.3" font-family="Times,serif" font-size="14.00" fill="#000000">system_call</text>
</g>
<!-- BacterialTyper__scripts__multiQC_report__help_options -->
<g id="node3" class="node">
<title>BacterialTyper__scripts__multiQC_report__help_options</title>
<ellipse fill="#f465ff" fill-opacity="0.698039" stroke="#000000" cx="247" cy="-125" rx="55.7903" ry="18"/>
<text text-anchor="middle" x="247" y="-121.3" font-family="Times,serif" font-size="14.00" fill="#000000">help_options</text>
</g>
<!-- BacterialTyper__scripts__multiQC_report__main -->
<g id="node4" class="node">
<title>BacterialTyper__scripts__multiQC_report__main</title>
<ellipse fill="#f465ff" fill-opacity="0.698039" stroke="#000000" cx="251" cy="-197" rx="28.6953" ry="18"/>
<text text-anchor="middle" x="251" y="-193.3" font-family="Times,serif" font-size="14.00" fill="#000000">main</text>
</g>
<!-- BacterialTyper__scripts__multiQC_report__main&#45;&gt;BacterialTyper__scripts__multiQC_report__help_options -->
<g id="edge5" class="edge">
<title>BacterialTyper__scripts__multiQC_report__main&#45;&gt;BacterialTyper__scripts__multiQC_report__help_options</title>
<path fill="none" stroke="#000000" d="M249.9906,-178.8314C249.5628,-171.131 249.0541,-161.9743 248.5787,-153.4166"/>
<polygon fill="#000000" stroke="#000000" points="252.0724,-153.2037 248.023,-143.4133 245.0831,-153.592 252.0724,-153.2037"/>
</g>
<!-- BacterialTyper__scripts__multiQC_report__multiQC_call -->
<g id="node5" class="node">
<title>BacterialTyper__scripts__multiQC_report__multiQC_call</title>
<ellipse fill="#f465ff" fill-opacity="0.698039" stroke="#000000" cx="114" cy="-125" rx="59.2899" ry="18"/>
<text text-anchor="middle" x="114" y="-121.3" font-family="Times,serif" font-size="14.00" fill="#000000">multiQC_call</text>
</g>
<!-- BacterialTyper__scripts__multiQC_report__main&#45;&gt;BacterialTyper__scripts__multiQC_report__multiQC_call -->
<g id="edge4" class="edge">
<title>BacterialTyper__scripts__multiQC_report__main&#45;&gt;BacterialTyper__scripts__multiQC_report__multiQC_call</title>
<path fill="none" stroke="#000000" d="M228.9886,-185.432C208.5323,-174.6812 177.6031,-158.4264 152.9726,-145.482"/>
<polygon fill="#000000" stroke="#000000" points="154.3564,-142.2553 143.8761,-140.7013 151.0999,-148.4517 154.3564,-142.2553"/>
</g>
<!-- BacterialTyper__scripts__multiQC_report__multiQC_call&#45;&gt;BacterialTyper__scripts__functions__system_call -->
<g id="edge3" class="edge">
<title>BacterialTyper__scripts__multiQC_report__multiQC_call&#45;&gt;BacterialTyper__scripts__functions__system_call</title>
<path fill="none" stroke="#000000" d="M115.7359,-106.9902C116.7666,-96.2963 118.0964,-82.4994 119.2655,-70.3706"/>
<polygon fill="#000000" stroke="#000000" points="122.7642,-70.5509 120.2399,-60.2612 115.7965,-69.8793 122.7642,-70.5509"/>
</g>
<!-- BacterialTyper__scripts__multiQC_report__multiQC_module_call -->
<g id="node6" class="node">
<title>BacterialTyper__scripts__multiQC_report__multiQC_module_call</title>
<ellipse fill="#f465ff" fill-opacity="0.698039" stroke="#000000" cx="114" cy="-197" rx="90.1842" ry="18"/>
<text text-anchor="middle" x="114" y="-193.3" font-family="Times,serif" font-size="14.00" fill="#000000">multiQC_module_call</text>
</g>
<!-- BacterialTyper__scripts__multiQC_report__multiQC_module_call&#45;&gt;BacterialTyper__scripts__functions__printList2file -->
<g id="edge1" class="edge">
<title>BacterialTyper__scripts__multiQC_report__multiQC_module_call&#45;&gt;BacterialTyper__scripts__functions__printList2file</title>
<path fill="none" stroke="#000000" d="M176.3847,-183.9473C231.1948,-171.8494 303.5247,-154.0962 312,-143 323.8701,-127.4591 319.8612,-116.9059 312,-99 306.0405,-85.4258 295.0762,-73.6628 284.0063,-64.4056"/>
<polygon fill="#000000" stroke="#000000" points="286.024,-61.5399 275.9971,-58.1177 281.7014,-67.0459 286.024,-61.5399"/>
</g>
<!-- BacterialTyper__scripts__multiQC_report__multiQC_module_call&#45;&gt;BacterialTyper__scripts__multiQC_report__multiQC_call -->
<g id="edge2" class="edge">
<title>BacterialTyper__scripts__multiQC_report__multiQC_module_call&#45;&gt;BacterialTyper__scripts__multiQC_report__multiQC_call</title>
<path fill="none" stroke="#000000" d="M114,-178.8314C114,-171.131 114,-161.9743 114,-153.4166"/>
<polygon fill="#000000" stroke="#000000" points="117.5001,-153.4132 114,-143.4133 110.5001,-153.4133 117.5001,-153.4132"/>
</g>
</g>
</svg>
