<?xml version="1.0" encoding="UTF-8" standalone="no"?>
<!DOCTYPE svg PUBLIC "-//W3C//DTD SVG 1.1//EN"
 "http://www.w3.org/Graphics/SVG/1.1/DTD/svg11.dtd">
<!-- Generated by graphviz version 2.40.1 (20161225.0304)
 -->
<!-- Title: G Pages: 1 -->
<svg width="1433pt" height="334pt"
 viewBox="0.00 0.00 1433.00 334.00" xmlns="http://www.w3.org/2000/svg" xmlns:xlink="http://www.w3.org/1999/xlink">
<g id="graph0" class="graph" transform="scale(1 1) rotate(0) translate(4 330)">
<title>G</title>
<polygon fill="#ffffff" stroke="transparent" points="-4,4 -4,-330 1429,-330 1429,4 -4,4"/>
<g id="clust1" class="cluster">
<title>cluster_G</title>
<path fill="#808080" fill-opacity="0.094118" stroke="#000000" d="M20,-8C20,-8 1405,-8 1405,-8 1411,-8 1417,-14 1417,-20 1417,-20 1417,-306 1417,-306 1417,-312 1411,-318 1405,-318 1405,-318 20,-318 20,-318 14,-318 8,-312 8,-306 8,-306 8,-20 8,-20 8,-14 14,-8 20,-8"/>
</g>
<g id="clust2" class="cluster">
<title>cluster_BacterialTyper__scripts__functions</title>
<path fill="#808080" fill-opacity="0.094118" stroke="#000000" d="M688,-16C688,-16 1385,-16 1385,-16 1391,-16 1397,-22 1397,-28 1397,-28 1397,-151 1397,-151 1397,-157 1391,-163 1385,-163 1385,-163 688,-163 688,-163 682,-163 676,-157 676,-151 676,-151 676,-28 676,-28 676,-22 682,-16 688,-16"/>
<text text-anchor="middle" x="1036.5" y="-147.8" font-family="Times,serif" font-size="14.00" fill="#000000">BacterialTyper.scripts.functions</text>
</g>
<g id="clust3" class="cluster">
<title>cluster_BacterialTyper__scripts__sampleParser</title>
<path fill="#808080" fill-opacity="0.094118" stroke="#000000" d="M28,-88C28,-88 656,-88 656,-88 662,-88 668,-94 668,-100 668,-100 668,-298 668,-298 668,-304 662,-310 656,-310 656,-310 28,-310 28,-310 22,-310 16,-304 16,-298 16,-298 16,-100 16,-100 16,-94 22,-88 28,-88"/>
<text text-anchor="middle" x="342" y="-294.8" font-family="Times,serif" font-size="14.00" fill="#000000">BacterialTyper.scripts.sampleParser</text>
</g>
<!-- BacterialTyper__scripts__functions__boxymcboxface -->
<g id="node1" class="node">
<title>BacterialTyper__scripts__functions__boxymcboxface</title>
<ellipse fill="#a365ff" fill-opacity="0.698039" stroke="#000000" cx="1321" cy="-114" rx="67.6881" ry="18"/>
<text text-anchor="middle" x="1321" y="-110.3" font-family="Times,serif" font-size="14.00" fill="#000000">boxymcboxface</text>
</g>
<!-- BacterialTyper__scripts__functions__create_human_timestamp -->
<g id="node2" class="node">
<title>BacterialTyper__scripts__functions__create_human_timestamp</title>
<ellipse fill="#a365ff" fill-opacity="0.698039" stroke="#000000" cx="787" cy="-114" rx="102.8821" ry="18"/>
<text text-anchor="middle" x="787" y="-110.3" font-family="Times,serif" font-size="14.00" fill="#000000">create_human_timestamp</text>
</g>
<!-- BacterialTyper__scripts__functions__get_fullpath_list -->
<g id="node3" class="node">
<title>BacterialTyper__scripts__functions__get_fullpath_list</title>
<ellipse fill="#a365ff" fill-opacity="0.698039" stroke="#000000" cx="1003" cy="-42" rx="68.4888" ry="18"/>
<text text-anchor="middle" x="1003" y="-38.3" font-family="Times,serif" font-size="14.00" fill="#000000">get_fullpath_list</text>
</g>
<!-- BacterialTyper__scripts__functions__print_sepLine -->
<g id="node4" class="node">
<title>BacterialTyper__scripts__functions__print_sepLine</title>
<ellipse fill="#a365ff" fill-opacity="0.698039" stroke="#000000" cx="1176" cy="-114" rx="59.5901" ry="18"/>
<text text-anchor="middle" x="1176" y="-110.3" font-family="Times,serif" font-size="14.00" fill="#000000">print_sepLine</text>
</g>
<!-- BacterialTyper__scripts__functions__retrieve_matching_files -->
<g id="node5" class="node">
<title>BacterialTyper__scripts__functions__retrieve_matching_files</title>
<ellipse fill="#a365ff" fill-opacity="0.698039" stroke="#000000" cx="1003" cy="-114" rx="94.7833" ry="18"/>
<text text-anchor="middle" x="1003" y="-110.3" font-family="Times,serif" font-size="14.00" fill="#000000">retrieve_matching_files</text>
</g>
<!-- BacterialTyper__scripts__functions__retrieve_matching_files&#45;&gt;BacterialTyper__scripts__functions__get_fullpath_list -->
<g id="edge1" class="edge">
<title>BacterialTyper__scripts__functions__retrieve_matching_files&#45;&gt;BacterialTyper__scripts__functions__get_fullpath_list</title>
<path fill="none" stroke="#000000" d="M1003,-95.8314C1003,-88.131 1003,-78.9743 1003,-70.4166"/>
<polygon fill="#000000" stroke="#000000" points="1006.5001,-70.4132 1003,-60.4133 999.5001,-70.4133 1006.5001,-70.4132"/>
</g>
<!-- BacterialTyper__scripts__sampleParser__get_fields -->
<g id="node6" class="node">
<title>BacterialTyper__scripts__sampleParser__get_fields</title>
<ellipse fill="#ff65f4" fill-opacity="0.698039" stroke="#000000" cx="406" cy="-114" rx="45.4919" ry="18"/>
<text text-anchor="middle" x="406" y="-110.3" font-family="Times,serif" font-size="14.00" fill="#000000">get_fields</text>
</g>
<!-- BacterialTyper__scripts__sampleParser__get_files -->
<g id="node7" class="node">
<title>BacterialTyper__scripts__sampleParser__get_files</title>
<ellipse fill="#ff65f4" fill-opacity="0.698039" stroke="#000000" cx="493" cy="-261" rx="40.8928" ry="18"/>
<text text-anchor="middle" x="493" y="-257.3" font-family="Times,serif" font-size="14.00" fill="#000000">get_files</text>
</g>
<!-- BacterialTyper__scripts__sampleParser__get_files&#45;&gt;BacterialTyper__scripts__functions__get_fullpath_list -->
<g id="edge10" class="edge">
<title>BacterialTyper__scripts__sampleParser__get_files&#45;&gt;BacterialTyper__scripts__functions__get_fullpath_list</title>
<path fill="none" stroke="#000000" d="M523.3115,-248.7114C529.725,-246.5023 536.5166,-244.4459 543,-243 729.2543,-201.4622 1269.5019,-304.0826 1398,-163 1420.4455,-138.3563 1420.1651,-112.8962 1398,-88 1377.3198,-64.7717 1190.0624,-51.4531 1080.9663,-45.6018"/>
<polygon fill="#000000" stroke="#000000" points="1080.8311,-42.09 1070.6608,-45.0588 1080.4627,-49.0803 1080.8311,-42.09"/>
</g>
<!-- BacterialTyper__scripts__sampleParser__get_files&#45;&gt;BacterialTyper__scripts__functions__print_sepLine -->
<g id="edge11" class="edge">
<title>BacterialTyper__scripts__sampleParser__get_files&#45;&gt;BacterialTyper__scripts__functions__print_sepLine</title>
<path fill="none" stroke="#000000" d="M523.6335,-248.8513C529.9639,-246.6592 536.6415,-244.5738 543,-243 654.5318,-215.3949 685.6717,-225.9228 799,-207 882.051,-193.1327 901.4916,-181.776 985,-171 1011.9459,-167.5229 1081.3995,-172.0988 1107,-163 1122.5227,-157.483 1137.6844,-147.3989 1149.8235,-137.8067"/>
<polygon fill="#000000" stroke="#000000" points="1152.2201,-140.3671 1157.712,-131.3068 1147.7686,-134.9648 1152.2201,-140.3671"/>
</g>
<!-- BacterialTyper__scripts__sampleParser__get_files&#45;&gt;BacterialTyper__scripts__functions__retrieve_matching_files -->
<g id="edge7" class="edge">
<title>BacterialTyper__scripts__sampleParser__get_files&#45;&gt;BacterialTyper__scripts__functions__retrieve_matching_files</title>
<path fill="none" stroke="#000000" d="M524.0093,-249.1604C530.2512,-246.969 536.7993,-244.8052 543,-243 698.7037,-197.6697 745.6178,-215.6532 899,-163 920.4788,-155.6267 943.4084,-145.1285 962.2566,-135.7395"/>
<polygon fill="#000000" stroke="#000000" points="964.091,-138.734 971.4336,-131.0961 960.9306,-132.488 964.091,-138.734"/>
</g>
<!-- BacterialTyper__scripts__sampleParser__select_other_samples -->
<g id="node13" class="node">
<title>BacterialTyper__scripts__sampleParser__select_other_samples</title>
<ellipse fill="#ff65f4" fill-opacity="0.698039" stroke="#000000" cx="574" cy="-189" rx="86.3847" ry="18"/>
<text text-anchor="middle" x="574" y="-185.3" font-family="Times,serif" font-size="14.00" fill="#000000">select_other_samples</text>
</g>
<!-- BacterialTyper__scripts__sampleParser__get_files&#45;&gt;BacterialTyper__scripts__sampleParser__select_other_samples -->
<g id="edge9" class="edge">
<title>BacterialTyper__scripts__sampleParser__get_files&#45;&gt;BacterialTyper__scripts__sampleParser__select_other_samples</title>
<path fill="none" stroke="#000000" d="M511.3802,-244.6621C521.7715,-235.4253 534.9654,-223.6974 546.56,-213.3911"/>
<polygon fill="#000000" stroke="#000000" points="549.1286,-215.7908 554.2774,-206.5312 544.478,-210.5589 549.1286,-215.7908"/>
</g>
<!-- BacterialTyper__scripts__sampleParser__select_samples -->
<g id="node14" class="node">
<title>BacterialTyper__scripts__sampleParser__select_samples</title>
<ellipse fill="#ff65f4" fill-opacity="0.698039" stroke="#000000" cx="406" cy="-189" rx="63.8893" ry="18"/>
<text text-anchor="middle" x="406" y="-185.3" font-family="Times,serif" font-size="14.00" fill="#000000">select_samples</text>
</g>
<!-- BacterialTyper__scripts__sampleParser__get_files&#45;&gt;BacterialTyper__scripts__sampleParser__select_samples -->
<g id="edge8" class="edge">
<title>BacterialTyper__scripts__sampleParser__get_files&#45;&gt;BacterialTyper__scripts__sampleParser__select_samples</title>
<path fill="none" stroke="#000000" d="M473.6919,-245.0209C462.2758,-235.5731 447.6002,-223.4277 434.8335,-212.8622"/>
<polygon fill="#000000" stroke="#000000" points="436.7085,-209.8708 426.773,-206.1915 432.2455,-215.2636 436.7085,-209.8708"/>
</g>
<!-- BacterialTyper__scripts__sampleParser__gunzip_merge -->
<g id="node8" class="node">
<title>BacterialTyper__scripts__sampleParser__gunzip_merge</title>
<ellipse fill="#ff65f4" fill-opacity="0.698039" stroke="#000000" cx="239" cy="-114" rx="61.99" ry="18"/>
<text text-anchor="middle" x="239" y="-110.3" font-family="Times,serif" font-size="14.00" fill="#000000">gunzip_merge</text>
</g>
<!-- BacterialTyper__scripts__sampleParser__help_format -->
<g id="node9" class="node">
<title>BacterialTyper__scripts__sampleParser__help_format</title>
<ellipse fill="#ff65f4" fill-opacity="0.698039" stroke="#000000" cx="606" cy="-261" rx="53.8905" ry="18"/>
<text text-anchor="middle" x="606" y="-257.3" font-family="Times,serif" font-size="14.00" fill="#000000">help_format</text>
</g>
<!-- BacterialTyper__scripts__sampleParser__help_format&#45;&gt;BacterialTyper__scripts__functions__boxymcboxface -->
<g id="edge3" class="edge">
<title>BacterialTyper__scripts__sampleParser__help_format&#45;&gt;BacterialTyper__scripts__functions__boxymcboxface</title>
<path fill="none" stroke="#000000" d="M658.346,-256.2078C791.1938,-243.5333 1138.4285,-207.0619 1245,-163 1261.0665,-156.3573 1277.4546,-146.2923 1290.8796,-137.0089"/>
<polygon fill="#000000" stroke="#000000" points="1293.1182,-139.7118 1299.2407,-131.065 1289.0624,-134.0065 1293.1182,-139.7118"/>
</g>
<!-- BacterialTyper__scripts__sampleParser__help_format&#45;&gt;BacterialTyper__scripts__functions__print_sepLine -->
<g id="edge2" class="edge">
<title>BacterialTyper__scripts__sampleParser__help_format&#45;&gt;BacterialTyper__scripts__functions__print_sepLine</title>
<path fill="none" stroke="#000000" d="M659.8098,-258.9608C754.5068,-253.5681 955.2749,-233.9775 1107,-163 1121.35,-156.287 1135.853,-146.5359 1147.8341,-137.4969"/>
<polygon fill="#000000" stroke="#000000" points="1150.325,-139.9939 1156.0743,-131.0947 1146.0302,-134.4662 1150.325,-139.9939"/>
</g>
<!-- BacterialTyper__scripts__sampleParser__help_options -->
<g id="node10" class="node">
<title>BacterialTyper__scripts__sampleParser__help_options</title>
<ellipse fill="#ff65f4" fill-opacity="0.698039" stroke="#000000" cx="80" cy="-189" rx="55.7903" ry="18"/>
<text text-anchor="middle" x="80" y="-185.3" font-family="Times,serif" font-size="14.00" fill="#000000">help_options</text>
</g>
<!-- BacterialTyper__scripts__sampleParser__main -->
<g id="node11" class="node">
<title>BacterialTyper__scripts__sampleParser__main</title>
<ellipse fill="#ff65f4" fill-opacity="0.698039" stroke="#000000" cx="239" cy="-261" rx="28.6953" ry="18"/>
<text text-anchor="middle" x="239" y="-257.3" font-family="Times,serif" font-size="14.00" fill="#000000">main</text>
</g>
<!-- BacterialTyper__scripts__sampleParser__main&#45;&gt;BacterialTyper__scripts__sampleParser__help_options -->
<g id="edge14" class="edge">
<title>BacterialTyper__scripts__sampleParser__main&#45;&gt;BacterialTyper__scripts__sampleParser__help_options</title>
<path fill="none" stroke="#000000" d="M215.539,-250.3762C190.9854,-239.2575 151.9214,-221.5682 122.0253,-208.0303"/>
<polygon fill="#000000" stroke="#000000" points="123.2242,-204.7312 112.6709,-203.7944 120.3366,-211.1078 123.2242,-204.7312"/>
</g>
<!-- BacterialTyper__scripts__sampleParser__one_file_per_sample -->
<g id="node12" class="node">
<title>BacterialTyper__scripts__sampleParser__one_file_per_sample</title>
<ellipse fill="#ff65f4" fill-opacity="0.698039" stroke="#000000" cx="239" cy="-189" rx="85.2851" ry="18"/>
<text text-anchor="middle" x="239" y="-185.3" font-family="Times,serif" font-size="14.00" fill="#000000">one_file_per_sample</text>
</g>
<!-- BacterialTyper__scripts__sampleParser__main&#45;&gt;BacterialTyper__scripts__sampleParser__one_file_per_sample -->
<g id="edge13" class="edge">
<title>BacterialTyper__scripts__sampleParser__main&#45;&gt;BacterialTyper__scripts__sampleParser__one_file_per_sample</title>
<path fill="none" stroke="#000000" d="M239,-242.8314C239,-235.131 239,-225.9743 239,-217.4166"/>
<polygon fill="#000000" stroke="#000000" points="242.5001,-217.4132 239,-207.4133 235.5001,-217.4133 242.5001,-217.4132"/>
</g>
<!-- BacterialTyper__scripts__sampleParser__main&#45;&gt;BacterialTyper__scripts__sampleParser__select_samples -->
<g id="edge12" class="edge">
<title>BacterialTyper__scripts__sampleParser__main&#45;&gt;BacterialTyper__scripts__sampleParser__select_samples</title>
<path fill="none" stroke="#000000" d="M262.927,-250.6842C288.5916,-239.6192 329.9231,-221.7996 361.5789,-208.1516"/>
<polygon fill="#000000" stroke="#000000" points="363.2672,-211.2352 371.0644,-204.062 360.4958,-204.8072 363.2672,-211.2352"/>
</g>
<!-- BacterialTyper__scripts__sampleParser__one_file_per_sample&#45;&gt;BacterialTyper__scripts__functions__create_human_timestamp -->
<g id="edge6" class="edge">
<title>BacterialTyper__scripts__sampleParser__one_file_per_sample&#45;&gt;BacterialTyper__scripts__functions__create_human_timestamp</title>
<path fill="none" stroke="#000000" d="M298.4492,-176.0767C309.8663,-174.0324 321.765,-172.1999 333,-171 407.9282,-162.9977 598.3517,-178.9436 672,-163 697.6824,-157.4402 724.7968,-146.1781 746.2432,-135.8515"/>
<polygon fill="#000000" stroke="#000000" points="747.9489,-138.9128 755.3688,-131.3501 744.8522,-132.635 747.9489,-138.9128"/>
</g>
<!-- BacterialTyper__scripts__sampleParser__one_file_per_sample&#45;&gt;BacterialTyper__scripts__sampleParser__gunzip_merge -->
<g id="edge5" class="edge">
<title>BacterialTyper__scripts__sampleParser__one_file_per_sample&#45;&gt;BacterialTyper__scripts__sampleParser__gunzip_merge</title>
<path fill="none" stroke="#000000" d="M239,-170.8446C239,-162.3401 239,-152.0076 239,-142.4964"/>
<polygon fill="#000000" stroke="#000000" points="242.5001,-142.2481 239,-132.2482 235.5001,-142.2482 242.5001,-142.2481"/>
</g>
<!-- BacterialTyper__scripts__sampleParser__select_samples&#45;&gt;BacterialTyper__scripts__sampleParser__get_fields -->
<g id="edge4" class="edge">
<title>BacterialTyper__scripts__sampleParser__select_samples&#45;&gt;BacterialTyper__scripts__sampleParser__get_fields</title>
<path fill="none" stroke="#000000" d="M406,-170.8446C406,-162.3401 406,-152.0076 406,-142.4964"/>
<polygon fill="#000000" stroke="#000000" points="409.5001,-142.2481 406,-132.2482 402.5001,-142.2482 409.5001,-142.2481"/>
</g>
</g>
</svg>
