<?xml version="1.0" encoding="UTF-8" standalone="no"?>
<!DOCTYPE svg PUBLIC "-//W3C//DTD SVG 1.1//EN"
 "http://www.w3.org/Graphics/SVG/1.1/DTD/svg11.dtd">
<!-- Generated by graphviz version 2.40.1 (20161225.0304)
 -->
<!-- Title: G Pages: 1 -->
<svg width="1433pt" height="334pt"
 viewBox="0.00 0.00 1433.00 334.00" xmlns="http://www.w3.org/2000/svg" xmlns:xlink="http://www.w3.org/1999/xlink">
<g id="graph0" class="graph" transform="scale(1 1) rotate(0) translate(4 330)">
<title>G</title>
<polygon fill="#ffffff" stroke="transparent" points="-4,4 -4,-330 1429,-330 1429,4 -4,4"/>
<g id="clust1" class="cluster">
<title>cluster_G</title>
<path fill="#808080" fill-opacity="0.094118" stroke="#000000" d="M20,-8C20,-8 1405,-8 1405,-8 1411,-8 1417,-14 1417,-20 1417,-20 1417,-306 1417,-306 1417,-312 1411,-318 1405,-318 1405,-318 20,-318 20,-318 14,-318 8,-312 8,-306 8,-306 8,-20 8,-20 8,-14 14,-8 20,-8"/>
</g>
<g id="clust2" class="cluster">
<title>cluster_BacterialTyper__scripts__functions</title>
<path fill="#808080" fill-opacity="0.094118" stroke="#000000" d="M688,-16C688,-16 1385,-16 1385,-16 1391,-16 1397,-22 1397,-28 1397,-28 1397,-151 1397,-151 1397,-157 1391,-163 1385,-163 1385,-163 688,-163 688,-163 682,-163 676,-157 676,-151 676,-151 676,-28 676,-28 676,-22 682,-16 688,-16"/>
<text text-anchor="middle" x="1036.5" y="-147.8" font-family="Times,serif" font-size="14.00" fill="#000000">BacterialTyper.scripts.functions</text>
</g>
<g id="clust3" class="cluster">
<title>cluster_BacterialTyper__scripts__sampleParser</title>
<path fill="#808080" fill-opacity="0.094118" stroke="#000000" d="M28,-88C28,-88 656,-88 656,-88 662,-88 668,-94 668,-100 668,-100 668,-298 668,-298 668,-304 662,-310 656,-310 656,-310 28,-310 28,-310 22,-310 16,-304 16,-298 16,-298 16,-100 16,-100 16,-94 22,-88 28,-88"/>
<text text-anchor="middle" x="342" y="-294.8" font-family="Times,serif" font-size="14.00" fill="#000000">BacterialTyper.scripts.sampleParser</text>
</g>
<!-- BacterialTyper__scripts__functions__boxymcboxface -->
<g id="node1" class="node">
<title>BacterialTyper__scripts__functions__boxymcboxface</title>
<ellipse fill="#a365ff" fill-opacity="0.698039" stroke="#000000" cx="1321" cy="-114" rx="67.6881" ry="18"/>
<text text-anchor="middle" x="1321" y="-110.3" font-family="Times,serif" font-size="14.00" fill="#000000">boxymcboxface</text>
</g>
<!-- BacterialTyper__scripts__functions__create_human_timestamp -->
<g id="node2" class="node">
<title>BacterialTyper__scripts__functions__create_human_timestamp</title>
<ellipse fill="#a365ff" fill-opacity="0.698039" stroke="#000000" cx="787" cy="-114" rx="102.8821" ry="18"/>
<text text-anchor="middle" x="787" y="-110.3" font-family="Times,serif" font-size="14.00" fill="#000000">create_human_timestamp</text>
</g>
<!-- BacterialTyper__scripts__functions__get_fullpath_list -->
<g id="node3" class="node">
<title>BacterialTyper__scripts__functions__get_fullpath_list</title>
<ellipse fill="#a365ff" fill-opacity="0.698039" stroke="#000000" cx="1003" cy="-42" rx="68.4888" ry="18"/>
<text text-anchor="middle" x="1003" y="-38.3" font-family="Times,serif" font-size="14.00" fill="#000000">get_fullpath_list</text>
</g>
<!-- BacterialTyper__scripts__functions__print_sepLine -->
<g id="node4" class="node">
<title>BacterialTyper__scripts__functions__print_sepLine</title>
<ellipse fill="#a365ff" fill-opacity="0.698039" stroke="#000000" cx="1176" cy="-114" rx="59.5901" ry="18"/>
<text text-anchor="middle" x="1176" y="-110.3" font-family="Times,serif" font-size="14.00" fill="#000000">print_sepLine</text>
</g>
<!-- BacterialTyper__scripts__functions__retrieve_matching_files -->
<g id="node5" class="node">
<title>BacterialTyper__scripts__functions__retrieve_matching_files</title>
<ellipse fill="#a365ff" fill-opacity="0.698039" stroke="#000000" cx="1003" cy="-114" rx="94.7833" ry="18"/>
<text text-anchor="middle" x="1003" y="-110.3" font-family="Times,serif" font-size="14.00" fill="#000000">retrieve_matching_files</text>
</g>
<!-- BacterialTyper__scripts__functions__retrieve_matching_files&#45;&gt;BacterialTyper__scripts__functions__get_fullpath_list -->
<g id="edge1" class="edge">
<title>BacterialTyper__scripts__functions__retrieve_matching_files&#45;&gt;BacterialTyper__scripts__functions__get_fullpath_list</title>
<path fill="none" stroke="#000000" d="M1003,-95.8314C1003,-95.8314 1003,-70.4133 1003,-70.4133"/>
<polygon fill="#000000" stroke="#000000" points="1006.5001,-70.4132 1003,-60.4133 999.5001,-70.4133 1006.5001,-70.4132"/>
</g>
<!-- BacterialTyper__scripts__sampleParser__get_fields -->
<g id="node6" class="node">
<title>BacterialTyper__scripts__sampleParser__get_fields</title>
<ellipse fill="#ff65f4" fill-opacity="0.698039" stroke="#000000" cx="406" cy="-114" rx="45.4919" ry="18"/>
<text text-anchor="middle" x="406" y="-110.3" font-family="Times,serif" font-size="14.00" fill="#000000">get_fields</text>
</g>
<!-- BacterialTyper__scripts__sampleParser__get_files -->
<g id="node7" class="node">
<title>BacterialTyper__scripts__sampleParser__get_files</title>
<ellipse fill="#ff65f4" fill-opacity="0.698039" stroke="#000000" cx="493" cy="-261" rx="40.8928" ry="18"/>
<text text-anchor="middle" x="493" y="-257.3" font-family="Times,serif" font-size="14.00" fill="#000000">get_files</text>
</g>
<!-- BacterialTyper__scripts__sampleParser__get_files&#45;&gt;BacterialTyper__scripts__functions__get_fullpath_list -->
<g id="edge10" class="edge">
<title>BacterialTyper__scripts__sampleParser__get_files&#45;&gt;BacterialTyper__scripts__functions__get_fullpath_list</title>
<path fill="none" stroke="#000000" d="M478.626,-243.8154C478.626,-192.1882 478.626,-42 478.626,-42 478.626,-42 924.7163,-42 924.7163,-42"/>
<polygon fill="#000000" stroke="#000000" points="924.7163,-45.5001 934.7163,-42 924.7162,-38.5001 924.7163,-45.5001"/>
</g>
<!-- BacterialTyper__scripts__sampleParser__get_files&#45;&gt;BacterialTyper__scripts__functions__print_sepLine -->
<g id="edge11" class="edge">
<title>BacterialTyper__scripts__sampleParser__get_files&#45;&gt;BacterialTyper__scripts__functions__print_sepLine</title>
<path fill="none" stroke="#000000" d="M522.3492,-248.1032C522.3492,-239.9722 522.3492,-231 522.3492,-231 522.3492,-231 1156.0684,-231 1156.0684,-231 1156.0684,-231 1156.0684,-141.0128 1156.0684,-141.0128"/>
<polygon fill="#000000" stroke="#000000" points="1159.5685,-141.0128 1156.0684,-131.0128 1152.5685,-141.0128 1159.5685,-141.0128"/>
</g>
<!-- BacterialTyper__scripts__sampleParser__get_files&#45;&gt;BacterialTyper__scripts__functions__retrieve_matching_files -->
<g id="edge7" class="edge">
<title>BacterialTyper__scripts__sampleParser__get_files&#45;&gt;BacterialTyper__scripts__functions__retrieve_matching_files</title>
<path fill="none" stroke="#000000" d="M510.752,-244.4005C510.752,-232.6608 510.752,-219 510.752,-219 510.752,-219 1003,-219 1003,-219 1003,-219 1003,-142.2896 1003,-142.2896"/>
<polygon fill="#000000" stroke="#000000" points="1006.5001,-142.2896 1003,-132.2896 999.5001,-142.2896 1006.5001,-142.2896"/>
</g>
<!-- BacterialTyper__scripts__sampleParser__select_other_samples -->
<g id="node13" class="node">
<title>BacterialTyper__scripts__sampleParser__select_other_samples</title>
<ellipse fill="#ff65f4" fill-opacity="0.698039" stroke="#000000" cx="574" cy="-189" rx="86.3847" ry="18"/>
<text text-anchor="middle" x="574" y="-185.3" font-family="Times,serif" font-size="14.00" fill="#000000">select_other_samples</text>
</g>
<!-- BacterialTyper__scripts__sampleParser__get_files&#45;&gt;BacterialTyper__scripts__sampleParser__select_other_samples -->
<g id="edge9" class="edge">
<title>BacterialTyper__scripts__sampleParser__get_files&#45;&gt;BacterialTyper__scripts__sampleParser__select_other_samples</title>
<path fill="none" stroke="#000000" d="M499.1548,-243.2022C499.1548,-243.2022 499.1548,-208.0505 499.1548,-208.0505"/>
<polygon fill="#000000" stroke="#000000" points="502.6549,-208.0505 499.1548,-198.0505 495.6549,-208.0505 502.6549,-208.0505"/>
</g>
<!-- BacterialTyper__scripts__sampleParser__select_samples -->
<g id="node14" class="node">
<title>BacterialTyper__scripts__sampleParser__select_samples</title>
<ellipse fill="#ff65f4" fill-opacity="0.698039" stroke="#000000" cx="406" cy="-189" rx="63.8893" ry="18"/>
<text text-anchor="middle" x="406" y="-185.3" font-family="Times,serif" font-size="14.00" fill="#000000">select_samples</text>
</g>
<!-- BacterialTyper__scripts__sampleParser__get_files&#45;&gt;BacterialTyper__scripts__sampleParser__select_samples -->
<g id="edge8" class="edge">
<title>BacterialTyper__scripts__sampleParser__get_files&#45;&gt;BacterialTyper__scripts__sampleParser__select_samples</title>
<path fill="none" stroke="#000000" d="M460.874,-249.75C460.874,-249.75 460.874,-208.561 460.874,-208.561"/>
<polygon fill="#000000" stroke="#000000" points="464.3741,-208.561 460.874,-198.561 457.3741,-208.5611 464.3741,-208.561"/>
</g>
<!-- BacterialTyper__scripts__sampleParser__gunzip_merge -->
<g id="node8" class="node">
<title>BacterialTyper__scripts__sampleParser__gunzip_merge</title>
<ellipse fill="#ff65f4" fill-opacity="0.698039" stroke="#000000" cx="239" cy="-114" rx="61.99" ry="18"/>
<text text-anchor="middle" x="239" y="-110.3" font-family="Times,serif" font-size="14.00" fill="#000000">gunzip_merge</text>
</g>
<!-- BacterialTyper__scripts__sampleParser__help_format -->
<g id="node9" class="node">
<title>BacterialTyper__scripts__sampleParser__help_format</title>
<ellipse fill="#ff65f4" fill-opacity="0.698039" stroke="#000000" cx="606" cy="-261" rx="53.8905" ry="18"/>
<text text-anchor="middle" x="606" y="-257.3" font-family="Times,serif" font-size="14.00" fill="#000000">help_format</text>
</g>
<!-- BacterialTyper__scripts__sampleParser__help_format&#45;&gt;BacterialTyper__scripts__functions__boxymcboxface -->
<g id="edge3" class="edge">
<title>BacterialTyper__scripts__sampleParser__help_format&#45;&gt;BacterialTyper__scripts__functions__boxymcboxface</title>
<path fill="none" stroke="#000000" d="M657.1341,-267C820.7802,-267 1321,-267 1321,-267 1321,-267 1321,-142.1519 1321,-142.1519"/>
<polygon fill="#000000" stroke="#000000" points="1324.5001,-142.1519 1321,-132.1519 1317.5001,-142.152 1324.5001,-142.1519"/>
</g>
<!-- BacterialTyper__scripts__sampleParser__help_format&#45;&gt;BacterialTyper__scripts__functions__print_sepLine -->
<g id="edge2" class="edge">
<title>BacterialTyper__scripts__sampleParser__help_format&#45;&gt;BacterialTyper__scripts__functions__print_sepLine</title>
<path fill="none" stroke="#000000" d="M657.0639,-255C800.3757,-255 1195.9316,-255 1195.9316,-255 1195.9316,-255 1195.9316,-141.0079 1195.9316,-141.0079"/>
<polygon fill="#000000" stroke="#000000" points="1199.4317,-141.0079 1195.9316,-131.0079 1192.4317,-141.0079 1199.4317,-141.0079"/>
</g>
<!-- BacterialTyper__scripts__sampleParser__help_options -->
<g id="node10" class="node">
<title>BacterialTyper__scripts__sampleParser__help_options</title>
<ellipse fill="#ff65f4" fill-opacity="0.698039" stroke="#000000" cx="80" cy="-189" rx="55.7903" ry="18"/>
<text text-anchor="middle" x="80" y="-185.3" font-family="Times,serif" font-size="14.00" fill="#000000">help_options</text>
</g>
<!-- BacterialTyper__scripts__sampleParser__main -->
<g id="node11" class="node">
<title>BacterialTyper__scripts__sampleParser__main</title>
<ellipse fill="#ff65f4" fill-opacity="0.698039" stroke="#000000" cx="239" cy="-261" rx="28.6953" ry="18"/>
<text text-anchor="middle" x="239" y="-257.3" font-family="Times,serif" font-size="14.00" fill="#000000">main</text>
</g>
<!-- BacterialTyper__scripts__sampleParser__main&#45;&gt;BacterialTyper__scripts__sampleParser__help_options -->
<g id="edge14" class="edge">
<title>BacterialTyper__scripts__sampleParser__main&#45;&gt;BacterialTyper__scripts__sampleParser__help_options</title>
<path fill="none" stroke="#000000" d="M210.2063,-261C164.3869,-261 80,-261 80,-261 80,-261 80,-217.1686 80,-217.1686"/>
<polygon fill="#000000" stroke="#000000" points="83.5001,-217.1686 80,-207.1686 76.5001,-217.1687 83.5001,-217.1686"/>
</g>
<!-- BacterialTyper__scripts__sampleParser__one_file_per_sample -->
<g id="node12" class="node">
<title>BacterialTyper__scripts__sampleParser__one_file_per_sample</title>
<ellipse fill="#ff65f4" fill-opacity="0.698039" stroke="#000000" cx="239" cy="-189" rx="85.2851" ry="18"/>
<text text-anchor="middle" x="239" y="-185.3" font-family="Times,serif" font-size="14.00" fill="#000000">one_file_per_sample</text>
</g>
<!-- BacterialTyper__scripts__sampleParser__main&#45;&gt;BacterialTyper__scripts__sampleParser__one_file_per_sample -->
<g id="edge13" class="edge">
<title>BacterialTyper__scripts__sampleParser__main&#45;&gt;BacterialTyper__scripts__sampleParser__one_file_per_sample</title>
<path fill="none" stroke="#000000" d="M239,-242.8314C239,-242.8314 239,-217.4133 239,-217.4133"/>
<polygon fill="#000000" stroke="#000000" points="242.5001,-217.4132 239,-207.4133 235.5001,-217.4133 242.5001,-217.4132"/>
</g>
<!-- BacterialTyper__scripts__sampleParser__main&#45;&gt;BacterialTyper__scripts__sampleParser__select_samples -->
<g id="edge12" class="edge">
<title>BacterialTyper__scripts__sampleParser__main&#45;&gt;BacterialTyper__scripts__sampleParser__select_samples</title>
<path fill="none" stroke="#000000" d="M267.6451,-261C313.2282,-261 397.1796,-261 397.1796,-261 397.1796,-261 397.1796,-217.1686 397.1796,-217.1686"/>
<polygon fill="#000000" stroke="#000000" points="400.6797,-217.1686 397.1796,-207.1686 393.6797,-217.1687 400.6797,-217.1686"/>
</g>
<!-- BacterialTyper__scripts__sampleParser__one_file_per_sample&#45;&gt;BacterialTyper__scripts__functions__create_human_timestamp -->
<g id="edge6" class="edge">
<title>BacterialTyper__scripts__sampleParser__one_file_per_sample&#45;&gt;BacterialTyper__scripts__functions__create_human_timestamp</title>
<path fill="none" stroke="#000000" d="M312.4435,-179.8013C312.4435,-168.5551 312.4435,-151 312.4435,-151 312.4435,-151 787,-151 787,-151 787,-151 787,-142.0664 787,-142.0664"/>
<polygon fill="#000000" stroke="#000000" points="790.5001,-142.0664 787,-132.0664 783.5001,-142.0665 790.5001,-142.0664"/>
</g>
<!-- BacterialTyper__scripts__sampleParser__one_file_per_sample&#45;&gt;BacterialTyper__scripts__sampleParser__gunzip_merge -->
<g id="edge5" class="edge">
<title>BacterialTyper__scripts__sampleParser__one_file_per_sample&#45;&gt;BacterialTyper__scripts__sampleParser__gunzip_merge</title>
<path fill="none" stroke="#000000" d="M239,-170.8446C239,-170.8446 239,-142.2482 239,-142.2482"/>
<polygon fill="#000000" stroke="#000000" points="242.5001,-142.2481 239,-132.2482 235.5001,-142.2482 242.5001,-142.2481"/>
</g>
<!-- BacterialTyper__scripts__sampleParser__select_samples&#45;&gt;BacterialTyper__scripts__sampleParser__get_fields -->
<g id="edge4" class="edge">
<title>BacterialTyper__scripts__sampleParser__select_samples&#45;&gt;BacterialTyper__scripts__sampleParser__get_fields</title>
<path fill="none" stroke="#000000" d="M406,-170.8446C406,-170.8446 406,-142.2482 406,-142.2482"/>
<polygon fill="#000000" stroke="#000000" points="409.5001,-142.2481 406,-132.2482 402.5001,-142.2482 409.5001,-142.2481"/>
</g>
</g>
</svg>
