<?xml version="1.0" encoding="UTF-8" standalone="no"?>
<!DOCTYPE svg PUBLIC "-//W3C//DTD SVG 1.1//EN"
 "http://www.w3.org/Graphics/SVG/1.1/DTD/svg11.dtd">
<!-- Generated by graphviz version 2.40.1 (20161225.0304)
 -->
<!-- Title: G Pages: 1 -->
<svg width="1530pt" height="420pt"
 viewBox="0.00 0.00 1530.00 420.00" xmlns="http://www.w3.org/2000/svg" xmlns:xlink="http://www.w3.org/1999/xlink">
<g id="graph0" class="graph" transform="scale(1 1) rotate(0) translate(4 416)">
<title>G</title>
<polygon fill="#ffffff" stroke="transparent" points="-4,4 -4,-416 1526,-416 1526,4 -4,4"/>
<g id="clust1" class="cluster">
<title>cluster_G</title>
<path fill="#808080" fill-opacity="0.094118" stroke="#000000" d="M20,-8C20,-8 1502,-8 1502,-8 1508,-8 1514,-14 1514,-20 1514,-20 1514,-392 1514,-392 1514,-398 1508,-404 1502,-404 1502,-404 20,-404 20,-404 14,-404 8,-398 8,-392 8,-392 8,-20 8,-20 8,-14 14,-8 20,-8"/>
</g>
<g id="clust2" class="cluster">
<title>cluster_BacterialTyper__config__set_config</title>
<path fill="#808080" fill-opacity="0.094118" stroke="#000000" d="M1322,-16C1322,-16 1494,-16 1494,-16 1500,-16 1506,-22 1506,-28 1506,-28 1506,-79 1506,-79 1506,-85 1500,-91 1494,-91 1494,-91 1322,-91 1322,-91 1316,-91 1310,-85 1310,-79 1310,-79 1310,-28 1310,-28 1310,-22 1316,-16 1322,-16"/>
<text text-anchor="middle" x="1408" y="-75.8" font-family="Times,serif" font-size="14.00" fill="#000000">BacterialTyper.config.set_config</text>
</g>
<g id="clust3" class="cluster">
<title>cluster_BacterialTyper__other_tools__tools</title>
<path fill="#808080" fill-opacity="0.094118" stroke="#000000" d="M932,-174C932,-174 1100,-174 1100,-174 1106,-174 1112,-180 1112,-186 1112,-186 1112,-237 1112,-237 1112,-243 1106,-249 1100,-249 1100,-249 932,-249 932,-249 926,-249 920,-243 920,-237 920,-237 920,-186 920,-186 920,-180 926,-174 932,-174"/>
<text text-anchor="middle" x="1016" y="-233.8" font-family="Times,serif" font-size="14.00" fill="#000000">BacterialTyper.other_tools.tools</text>
</g>
<g id="clust4" class="cluster">
<title>cluster_BacterialTyper__scripts__blast_parser</title>
<path fill="#808080" fill-opacity="0.094118" stroke="#000000" d="M1142,-174C1142,-174 1324,-174 1324,-174 1330,-174 1336,-180 1336,-186 1336,-186 1336,-237 1336,-237 1336,-243 1330,-249 1324,-249 1324,-249 1142,-249 1142,-249 1136,-249 1130,-243 1130,-237 1130,-237 1130,-186 1130,-186 1130,-180 1136,-174 1142,-174"/>
<text text-anchor="middle" x="1233" y="-233.8" font-family="Times,serif" font-size="14.00" fill="#000000">BacterialTyper.scripts.blast_parser</text>
</g>
<g id="clust5" class="cluster">
<title>cluster_BacterialTyper__scripts__functions</title>
<path fill="#808080" fill-opacity="0.094118" stroke="#000000" d="M108,-16C108,-16 1290,-16 1290,-16 1296,-16 1302,-22 1302,-28 1302,-28 1302,-154 1302,-154 1302,-160 1296,-166 1290,-166 1290,-166 108,-166 108,-166 102,-166 96,-160 96,-154 96,-154 96,-28 96,-28 96,-22 102,-16 108,-16"/>
<text text-anchor="middle" x="699" y="-150.8" font-family="Times,serif" font-size="14.00" fill="#000000">BacterialTyper.scripts.functions</text>
</g>
<g id="clust6" class="cluster">
<title>cluster_BacterialTyper__scripts__spades_assembler</title>
<path fill="#808080" fill-opacity="0.094118" stroke="#000000" d="M28,-174C28,-174 900,-174 900,-174 906,-174 912,-180 912,-186 912,-186 912,-384 912,-384 912,-390 906,-396 900,-396 900,-396 28,-396 28,-396 22,-396 16,-390 16,-384 16,-384 16,-186 16,-186 16,-180 22,-174 28,-174"/>
<text text-anchor="middle" x="464" y="-380.8" font-family="Times,serif" font-size="14.00" fill="#000000">BacterialTyper.scripts.spades_assembler</text>
</g>
<!-- BacterialTyper__config__set_config__get_exe -->
<g id="node1" class="node">
<title>BacterialTyper__config__set_config__get_exe</title>
<ellipse fill="#ff8e65" fill-opacity="0.698039" stroke="#000000" cx="1408" cy="-42" rx="38.1938" ry="18"/>
<text text-anchor="middle" x="1408" y="-38.3" font-family="Times,serif" font-size="14.00" fill="#000000">get_exe</text>
</g>
<!-- BacterialTyper__other_tools__tools__perl_scripts -->
<g id="node2" class="node">
<title>BacterialTyper__other_tools__tools__perl_scripts</title>
<ellipse fill="#65ffe0" fill-opacity="0.698039" stroke="#000000" cx="980" cy="-200" rx="51.9908" ry="18"/>
<text text-anchor="middle" x="980" y="-196.3" font-family="Times,serif" font-size="14.00" fill="#000000">perl_scripts</text>
</g>
<!-- BacterialTyper__scripts__blast_parser__parse -->
<g id="node3" class="node">
<title>BacterialTyper__scripts__blast_parser__parse</title>
<ellipse fill="#65a3ff" fill-opacity="0.698039" stroke="#000000" cx="1169" cy="-200" rx="29.4969" ry="18"/>
<text text-anchor="middle" x="1169" y="-196.3" font-family="Times,serif" font-size="14.00" fill="#000000">parse</text>
</g>
<!-- BacterialTyper__scripts__functions__blastn -->
<g id="node4" class="node">
<title>BacterialTyper__scripts__functions__blastn</title>
<ellipse fill="#a365ff" fill-opacity="0.698039" stroke="#000000" cx="1130" cy="-117" rx="31.6951" ry="18"/>
<text text-anchor="middle" x="1130" y="-113.3" font-family="Times,serif" font-size="14.00" fill="#000000">blastn</text>
</g>
<!-- BacterialTyper__scripts__functions__blastn&#45;&gt;BacterialTyper__config__set_config__get_exe -->
<g id="edge4" class="edge">
<title>BacterialTyper__scripts__functions__blastn&#45;&gt;BacterialTyper__config__set_config__get_exe</title>
<path fill="none" stroke="#000000" d="M1140.6157,-99.9813C1140.6157,-77.8532 1140.6157,-42 1140.6157,-42 1140.6157,-42 1359.4056,-42 1359.4056,-42"/>
<polygon fill="#000000" stroke="#000000" points="1359.4056,-45.5001 1369.4056,-42 1359.4056,-38.5001 1359.4056,-45.5001"/>
</g>
<!-- BacterialTyper__scripts__functions__system_call -->
<g id="node12" class="node">
<title>BacterialTyper__scripts__functions__system_call</title>
<ellipse fill="#a365ff" fill-opacity="0.698039" stroke="#000000" cx="644" cy="-42" rx="52.7911" ry="18"/>
<text text-anchor="middle" x="644" y="-38.3" font-family="Times,serif" font-size="14.00" fill="#000000">system_call</text>
</g>
<!-- BacterialTyper__scripts__functions__blastn&#45;&gt;BacterialTyper__scripts__functions__system_call -->
<g id="edge3" class="edge">
<title>BacterialTyper__scripts__functions__blastn&#45;&gt;BacterialTyper__scripts__functions__system_call</title>
<path fill="none" stroke="#000000" d="M1119.3843,-100.0034C1119.3843,-80.448 1119.3843,-51 1119.3843,-51 1119.3843,-51 700.0138,-51 700.0138,-51"/>
<polygon fill="#000000" stroke="#000000" points="700.0138,-47.5001 690.0138,-51 700.0138,-54.5001 700.0138,-47.5001"/>
</g>
<!-- BacterialTyper__scripts__functions__create_folder -->
<g id="node5" class="node">
<title>BacterialTyper__scripts__functions__create_folder</title>
<ellipse fill="#a365ff" fill-opacity="0.698039" stroke="#000000" cx="1237" cy="-117" rx="57.3905" ry="18"/>
<text text-anchor="middle" x="1237" y="-113.3" font-family="Times,serif" font-size="14.00" fill="#000000">create_folder</text>
</g>
<!-- BacterialTyper__scripts__functions__create_subfolder -->
<g id="node6" class="node">
<title>BacterialTyper__scripts__functions__create_subfolder</title>
<ellipse fill="#a365ff" fill-opacity="0.698039" stroke="#000000" cx="336" cy="-117" rx="69.5877" ry="18"/>
<text text-anchor="middle" x="336" y="-113.3" font-family="Times,serif" font-size="14.00" fill="#000000">create_subfolder</text>
</g>
<!-- BacterialTyper__scripts__functions__makeblastdb -->
<g id="node7" class="node">
<title>BacterialTyper__scripts__functions__makeblastdb</title>
<ellipse fill="#a365ff" fill-opacity="0.698039" stroke="#000000" cx="644" cy="-117" rx="55.7903" ry="18"/>
<text text-anchor="middle" x="644" y="-113.3" font-family="Times,serif" font-size="14.00" fill="#000000">makeblastdb</text>
</g>
<!-- BacterialTyper__scripts__functions__makeblastdb&#45;&gt;BacterialTyper__config__set_config__get_exe -->
<g id="edge2" class="edge">
<title>BacterialTyper__scripts__functions__makeblastdb&#45;&gt;BacterialTyper__config__set_config__get_exe</title>
<path fill="none" stroke="#000000" d="M700.04,-117C705.3353,-117 708.776,-117 708.776,-117 708.776,-117 708.776,-33 708.776,-33 708.776,-33 1364.7454,-33 1364.7454,-33"/>
<polygon fill="#000000" stroke="#000000" points="1364.7454,-36.5001 1374.7454,-33 1364.7453,-29.5001 1364.7454,-36.5001"/>
</g>
<!-- BacterialTyper__scripts__functions__makeblastdb&#45;&gt;BacterialTyper__scripts__functions__system_call -->
<g id="edge1" class="edge">
<title>BacterialTyper__scripts__functions__makeblastdb&#45;&gt;BacterialTyper__scripts__functions__system_call</title>
<path fill="none" stroke="#000000" d="M644,-98.8446C644,-98.8446 644,-70.2482 644,-70.2482"/>
<polygon fill="#000000" stroke="#000000" points="647.5001,-70.2481 644,-60.2482 640.5001,-70.2482 647.5001,-70.2481"/>
</g>
<!-- BacterialTyper__scripts__functions__print_time_stamp -->
<g id="node8" class="node">
<title>BacterialTyper__scripts__functions__print_time_stamp</title>
<ellipse fill="#a365ff" fill-opacity="0.698039" stroke="#000000" cx="497" cy="-117" rx="73.387" ry="18"/>
<text text-anchor="middle" x="497" y="-113.3" font-family="Times,serif" font-size="14.00" fill="#000000">print_time_stamp</text>
</g>
<!-- BacterialTyper__scripts__functions__read_time_stamp -->
<g id="node9" class="node">
<title>BacterialTyper__scripts__functions__read_time_stamp</title>
<ellipse fill="#a365ff" fill-opacity="0.698039" stroke="#000000" cx="176" cy="-117" rx="72.2875" ry="18"/>
<text text-anchor="middle" x="176" y="-113.3" font-family="Times,serif" font-size="14.00" fill="#000000">read_time_stamp</text>
</g>
<!-- BacterialTyper__scripts__functions__rename_fasta_seqs -->
<g id="node10" class="node">
<title>BacterialTyper__scripts__functions__rename_fasta_seqs</title>
<ellipse fill="#a365ff" fill-opacity="0.698039" stroke="#000000" cx="795" cy="-117" rx="77.1866" ry="18"/>
<text text-anchor="middle" x="795" y="-113.3" font-family="Times,serif" font-size="14.00" fill="#000000">rename_fasta_seqs</text>
</g>
<!-- BacterialTyper__scripts__functions__retrieve_matching_files -->
<g id="node11" class="node">
<title>BacterialTyper__scripts__functions__retrieve_matching_files</title>
<ellipse fill="#a365ff" fill-opacity="0.698039" stroke="#000000" cx="985" cy="-117" rx="94.7833" ry="18"/>
<text text-anchor="middle" x="985" y="-113.3" font-family="Times,serif" font-size="14.00" fill="#000000">retrieve_matching_files</text>
</g>
<!-- BacterialTyper__scripts__spades_assembler__SPADES_systemCall -->
<g id="node13" class="node">
<title>BacterialTyper__scripts__spades_assembler__SPADES_systemCall</title>
<ellipse fill="#ff65e0" fill-opacity="0.698039" stroke="#000000" cx="375" cy="-200" rx="87.1846" ry="18"/>
<text text-anchor="middle" x="375" y="-196.3" font-family="Times,serif" font-size="14.00" fill="#000000">SPADES_systemCall</text>
</g>
<!-- BacterialTyper__scripts__spades_assembler__SPADES_systemCall&#45;&gt;BacterialTyper__scripts__functions__print_time_stamp -->
<g id="edge11" class="edge">
<title>BacterialTyper__scripts__spades_assembler__SPADES_systemCall&#45;&gt;BacterialTyper__scripts__functions__print_time_stamp</title>
<path fill="none" stroke="#000000" d="M442.8244,-188.4592C442.8244,-188.4592 442.8244,-139.2525 442.8244,-139.2525"/>
<polygon fill="#000000" stroke="#000000" points="446.3245,-139.2525 442.8244,-129.2525 439.3245,-139.2525 446.3245,-139.2525"/>
</g>
<!-- BacterialTyper__scripts__spades_assembler__SPADES_systemCall&#45;&gt;BacterialTyper__scripts__functions__read_time_stamp -->
<g id="edge12" class="edge">
<title>BacterialTyper__scripts__spades_assembler__SPADES_systemCall&#45;&gt;BacterialTyper__scripts__functions__read_time_stamp</title>
<path fill="none" stroke="#000000" d="M287.8576,-200C243.2111,-200 198.1243,-200 198.1243,-200 198.1243,-200 198.1243,-144.1977 198.1243,-144.1977"/>
<polygon fill="#000000" stroke="#000000" points="201.6244,-144.1976 198.1243,-134.1977 194.6244,-144.1977 201.6244,-144.1976"/>
</g>
<!-- BacterialTyper__scripts__spades_assembler__SPADES_systemCall&#45;&gt;BacterialTyper__scripts__functions__system_call -->
<g id="edge10" class="edge">
<title>BacterialTyper__scripts__spades_assembler__SPADES_systemCall&#45;&gt;BacterialTyper__scripts__functions__system_call</title>
<path fill="none" stroke="#000000" d="M414.5502,-183.7333C414.5502,-144.5215 414.5502,-48 414.5502,-48 414.5502,-48 584.2128,-48 584.2128,-48"/>
<polygon fill="#000000" stroke="#000000" points="584.2128,-51.5001 594.2128,-48 584.2128,-44.5001 584.2128,-51.5001"/>
</g>
<!-- BacterialTyper__scripts__spades_assembler__contig_stats -->
<g id="node14" class="node">
<title>BacterialTyper__scripts__spades_assembler__contig_stats</title>
<ellipse fill="#ff65e0" fill-opacity="0.698039" stroke="#000000" cx="77" cy="-275" rx="52.7911" ry="18"/>
<text text-anchor="middle" x="77" y="-271.3" font-family="Times,serif" font-size="14.00" fill="#000000">contig_stats</text>
</g>
<!-- BacterialTyper__scripts__spades_assembler__contig_stats&#45;&gt;BacterialTyper__other_tools__tools__perl_scripts -->
<g id="edge21" class="edge">
<title>BacterialTyper__scripts__spades_assembler__contig_stats&#45;&gt;BacterialTyper__other_tools__tools__perl_scripts</title>
<path fill="none" stroke="#000000" d="M116.7509,-263.0857C116.7509,-256.6467 116.7509,-250 116.7509,-250 116.7509,-250 980,-250 980,-250 980,-250 980,-228.0511 980,-228.0511"/>
<polygon fill="#000000" stroke="#000000" points="983.5001,-228.0511 980,-218.0511 976.5001,-228.0512 983.5001,-228.0511"/>
</g>
<!-- BacterialTyper__scripts__spades_assembler__contig_stats&#45;&gt;BacterialTyper__scripts__functions__system_call -->
<g id="edge20" class="edge">
<title>BacterialTyper__scripts__spades_assembler__contig_stats&#45;&gt;BacterialTyper__scripts__functions__system_call</title>
<path fill="none" stroke="#000000" d="M64.1055,-257.4258C64.1055,-202.2317 64.1055,-36 64.1055,-36 64.1055,-36 584.3078,-36 584.3078,-36"/>
<polygon fill="#000000" stroke="#000000" points="584.3079,-39.5001 594.3078,-36 584.3078,-32.5001 584.3079,-39.5001"/>
</g>
<!-- BacterialTyper__scripts__spades_assembler__discardPlasmids -->
<g id="node15" class="node">
<title>BacterialTyper__scripts__spades_assembler__discardPlasmids</title>
<ellipse fill="#ff65e0" fill-opacity="0.698039" stroke="#000000" cx="836" cy="-275" rx="68.4888" ry="18"/>
<text text-anchor="middle" x="836" y="-271.3" font-family="Times,serif" font-size="14.00" fill="#000000">discardPlasmids</text>
</g>
<!-- BacterialTyper__scripts__spades_assembler__discardPlasmids&#45;&gt;BacterialTyper__scripts__blast_parser__parse -->
<g id="edge16" class="edge">
<title>BacterialTyper__scripts__spades_assembler__discardPlasmids&#45;&gt;BacterialTyper__scripts__blast_parser__parse</title>
<path fill="none" stroke="#000000" d="M900.6006,-281C997.4388,-281 1169,-281 1169,-281 1169,-281 1169,-228.3802 1169,-228.3802"/>
<polygon fill="#000000" stroke="#000000" points="1172.5001,-228.3801 1169,-218.3802 1165.5001,-228.3802 1172.5001,-228.3801"/>
</g>
<!-- BacterialTyper__scripts__spades_assembler__discardPlasmids&#45;&gt;BacterialTyper__scripts__functions__blastn -->
<g id="edge19" class="edge">
<title>BacterialTyper__scripts__spades_assembler__discardPlasmids&#45;&gt;BacterialTyper__scripts__functions__blastn</title>
<path fill="none" stroke="#000000" d="M900.5604,-269C984.0711,-269 1118.9527,-269 1118.9527,-269 1118.9527,-269 1118.9527,-144.1409 1118.9527,-144.1409"/>
<polygon fill="#000000" stroke="#000000" points="1122.4528,-144.1408 1118.9527,-134.1409 1115.4528,-144.1409 1122.4528,-144.1408"/>
</g>
<!-- BacterialTyper__scripts__spades_assembler__discardPlasmids&#45;&gt;BacterialTyper__scripts__functions__create_subfolder -->
<g id="edge17" class="edge">
<title>BacterialTyper__scripts__spades_assembler__discardPlasmids&#45;&gt;BacterialTyper__scripts__functions__create_subfolder</title>
<path fill="none" stroke="#000000" d="M837.4808,-256.9752C837.4808,-224.1557 837.4808,-158 837.4808,-158 837.4808,-158 346.7258,-158 346.7258,-158 346.7258,-158 346.7258,-145.1025 346.7258,-145.1025"/>
<polygon fill="#000000" stroke="#000000" points="350.2259,-145.1025 346.7258,-135.1025 343.2259,-145.1026 350.2259,-145.1025"/>
</g>
<!-- BacterialTyper__scripts__spades_assembler__discardPlasmids&#45;&gt;BacterialTyper__scripts__functions__makeblastdb -->
<g id="edge18" class="edge">
<title>BacterialTyper__scripts__spades_assembler__discardPlasmids&#45;&gt;BacterialTyper__scripts__functions__makeblastdb</title>
<path fill="none" stroke="#000000" d="M802.6184,-259.1428C802.6184,-244.1717 802.6184,-224 802.6184,-224 802.6184,-224 644,-224 644,-224 644,-224 644,-145.1511 644,-145.1511"/>
<polygon fill="#000000" stroke="#000000" points="647.5001,-145.1511 644,-135.1511 640.5001,-145.1511 647.5001,-145.1511"/>
</g>
<!-- BacterialTyper__scripts__spades_assembler__help_options -->
<g id="node16" class="node">
<title>BacterialTyper__scripts__spades_assembler__help_options</title>
<ellipse fill="#ff65e0" fill-opacity="0.698039" stroke="#000000" cx="204" cy="-275" rx="55.7903" ry="18"/>
<text text-anchor="middle" x="204" y="-271.3" font-family="Times,serif" font-size="14.00" fill="#000000">help_options</text>
</g>
<!-- BacterialTyper__scripts__spades_assembler__main -->
<g id="node17" class="node">
<title>BacterialTyper__scripts__spades_assembler__main</title>
<ellipse fill="#ff65e0" fill-opacity="0.698039" stroke="#000000" cx="375" cy="-347" rx="28.6953" ry="18"/>
<text text-anchor="middle" x="375" y="-343.3" font-family="Times,serif" font-size="14.00" fill="#000000">main</text>
</g>
<!-- BacterialTyper__scripts__spades_assembler__main&#45;&gt;BacterialTyper__scripts__functions__create_subfolder -->
<g id="edge22" class="edge">
<title>BacterialTyper__scripts__spades_assembler__main&#45;&gt;BacterialTyper__scripts__functions__create_subfolder</title>
<path fill="none" stroke="#000000" d="M375,-328.8533C375,-315.2605 375,-299 375,-299 375,-299 272.3074,-299 272.3074,-299 272.3074,-299 272.3074,-134.36 272.3074,-134.36"/>
<polygon fill="#000000" stroke="#000000" points="275.8075,-134.36 272.3074,-124.36 268.8075,-134.3601 275.8075,-134.36"/>
</g>
<!-- BacterialTyper__scripts__spades_assembler__main&#45;&gt;BacterialTyper__scripts__spades_assembler__contig_stats -->
<g id="edge26" class="edge">
<title>BacterialTyper__scripts__spades_assembler__main&#45;&gt;BacterialTyper__scripts__spades_assembler__contig_stats</title>
<path fill="none" stroke="#000000" d="M355.935,-333.1844C355.935,-323.0322 355.935,-311 355.935,-311 355.935,-311 94.5484,-311 94.5484,-311 94.5484,-311 94.5484,-302.1565 94.5484,-302.1565"/>
<polygon fill="#000000" stroke="#000000" points="98.0485,-302.1565 94.5484,-292.1565 91.0485,-302.1566 98.0485,-302.1565"/>
</g>
<!-- BacterialTyper__scripts__spades_assembler__main&#45;&gt;BacterialTyper__scripts__spades_assembler__discardPlasmids -->
<g id="edge25" class="edge">
<title>BacterialTyper__scripts__spades_assembler__main&#45;&gt;BacterialTyper__scripts__spades_assembler__discardPlasmids</title>
<path fill="none" stroke="#000000" d="M394.065,-333.4044C394.065,-325.4668 394.065,-317 394.065,-317 394.065,-317 813.252,-317 813.252,-317 813.252,-317 813.252,-302.083 813.252,-302.083"/>
<polygon fill="#000000" stroke="#000000" points="816.7521,-302.083 813.252,-292.083 809.7521,-302.083 816.7521,-302.083"/>
</g>
<!-- BacterialTyper__scripts__spades_assembler__main&#45;&gt;BacterialTyper__scripts__spades_assembler__help_options -->
<g id="edge27" class="edge">
<title>BacterialTyper__scripts__spades_assembler__main&#45;&gt;BacterialTyper__scripts__spades_assembler__help_options</title>
<path fill="none" stroke="#000000" d="M365.4675,-329.917C365.4675,-318.2891 365.4675,-305 365.4675,-305 365.4675,-305 204,-305 204,-305 204,-305 204,-303.1432 204,-303.1432"/>
<polygon fill="#000000" stroke="#000000" points="207.5001,-303.1432 204,-293.1432 200.5001,-303.1432 207.5001,-303.1432"/>
</g>
<!-- BacterialTyper__scripts__spades_assembler__run_SPADES_assembly -->
<g id="node18" class="node">
<title>BacterialTyper__scripts__spades_assembler__run_SPADES_assembly</title>
<ellipse fill="#ff65e0" fill-opacity="0.698039" stroke="#000000" cx="375" cy="-275" rx="96.6831" ry="18"/>
<text text-anchor="middle" x="375" y="-271.3" font-family="Times,serif" font-size="14.00" fill="#000000">run_SPADES_assembly</text>
</g>
<!-- BacterialTyper__scripts__spades_assembler__main&#45;&gt;BacterialTyper__scripts__spades_assembler__run_SPADES_assembly -->
<g id="edge24" class="edge">
<title>BacterialTyper__scripts__spades_assembler__main&#45;&gt;BacterialTyper__scripts__spades_assembler__run_SPADES_assembly</title>
<path fill="none" stroke="#000000" d="M384.5325,-329.937C384.5325,-329.937 384.5325,-302.9453 384.5325,-302.9453"/>
<polygon fill="#000000" stroke="#000000" points="388.0326,-302.9452 384.5325,-292.9453 381.0326,-302.9453 388.0326,-302.9452"/>
</g>
<!-- BacterialTyper__scripts__spades_assembler__run_SPADES_plasmid_assembly -->
<g id="node19" class="node">
<title>BacterialTyper__scripts__spades_assembler__run_SPADES_plasmid_assembly</title>
<ellipse fill="#ff65e0" fill-opacity="0.698039" stroke="#000000" cx="620" cy="-275" rx="129.9769" ry="18"/>
<text text-anchor="middle" x="620" y="-271.3" font-family="Times,serif" font-size="14.00" fill="#000000">run_SPADES_plasmid_assembly</text>
</g>
<!-- BacterialTyper__scripts__spades_assembler__main&#45;&gt;BacterialTyper__scripts__spades_assembler__run_SPADES_plasmid_assembly -->
<g id="edge23" class="edge">
<title>BacterialTyper__scripts__spades_assembler__main&#45;&gt;BacterialTyper__scripts__spades_assembler__run_SPADES_plasmid_assembly</title>
<path fill="none" stroke="#000000" d="M400.0339,-338C436.9612,-338 501.7105,-338 501.7105,-338 501.7105,-338 501.7105,-292.725 501.7105,-292.725"/>
<polygon fill="#000000" stroke="#000000" points="505.2106,-292.725 501.7105,-282.725 498.2106,-292.7251 505.2106,-292.725"/>
</g>
<!-- BacterialTyper__scripts__spades_assembler__run_SPADES_assembly&#45;&gt;BacterialTyper__scripts__functions__rename_fasta_seqs -->
<g id="edge7" class="edge">
<title>BacterialTyper__scripts__spades_assembler__run_SPADES_assembly&#45;&gt;BacterialTyper__scripts__functions__rename_fasta_seqs</title>
<path fill="none" stroke="#000000" d="M465.342,-268.5076C465.342,-256.2683 465.342,-231 465.342,-231 465.342,-231 728.4341,-231 728.4341,-231 728.4341,-231 728.4341,-136.3291 728.4341,-136.3291"/>
<polygon fill="#000000" stroke="#000000" points="731.9342,-136.3291 728.4341,-126.3291 724.9342,-136.3291 731.9342,-136.3291"/>
</g>
<!-- BacterialTyper__scripts__spades_assembler__run_SPADES_assembly&#45;&gt;BacterialTyper__scripts__functions__retrieve_matching_files -->
<g id="edge8" class="edge">
<title>BacterialTyper__scripts__spades_assembler__run_SPADES_assembly&#45;&gt;BacterialTyper__scripts__functions__retrieve_matching_files</title>
<path fill="none" stroke="#000000" d="M468.5917,-270.3405C468.5917,-260.1934 468.5917,-237 468.5917,-237 468.5917,-237 894.8203,-237 894.8203,-237 894.8203,-237 894.8203,-132.7878 894.8203,-132.7878"/>
<polygon fill="#000000" stroke="#000000" points="898.3204,-132.7878 894.8203,-122.7878 891.3204,-132.7879 898.3204,-132.7878"/>
</g>
<!-- BacterialTyper__scripts__spades_assembler__run_SPADES_assembly&#45;&gt;BacterialTyper__scripts__spades_assembler__SPADES_systemCall -->
<g id="edge9" class="edge">
<title>BacterialTyper__scripts__spades_assembler__run_SPADES_assembly&#45;&gt;BacterialTyper__scripts__spades_assembler__SPADES_systemCall</title>
<path fill="none" stroke="#000000" d="M375,-256.8446C375,-256.8446 375,-228.2482 375,-228.2482"/>
<polygon fill="#000000" stroke="#000000" points="378.5001,-228.2481 375,-218.2482 371.5001,-228.2482 378.5001,-228.2481"/>
</g>
<!-- BacterialTyper__scripts__spades_assembler__run_SPADES_plasmid_assembly&#45;&gt;BacterialTyper__scripts__functions__retrieve_matching_files -->
<g id="edge5" class="edge">
<title>BacterialTyper__scripts__spades_assembler__run_SPADES_plasmid_assembly&#45;&gt;BacterialTyper__scripts__functions__retrieve_matching_files</title>
<path fill="none" stroke="#000000" d="M739.2113,-267.8101C739.2113,-258.6523 739.2113,-244 739.2113,-244 739.2113,-244 899.5321,-244 899.5321,-244 899.5321,-244 899.5321,-134.9444 899.5321,-134.9444"/>
<polygon fill="#000000" stroke="#000000" points="903.0322,-134.9444 899.5321,-124.9444 896.0322,-134.9445 903.0322,-134.9444"/>
</g>
<!-- BacterialTyper__scripts__spades_assembler__run_SPADES_plasmid_assembly&#45;&gt;BacterialTyper__scripts__spades_assembler__SPADES_systemCall -->
<g id="edge6" class="edge">
<title>BacterialTyper__scripts__spades_assembler__run_SPADES_plasmid_assembly&#45;&gt;BacterialTyper__scripts__spades_assembler__SPADES_systemCall</title>
<path fill="none" stroke="#000000" d="M530.2275,-261.936C530.2275,-240.448 530.2275,-200 530.2275,-200 530.2275,-200 472.1425,-200 472.1425,-200"/>
<polygon fill="#000000" stroke="#000000" points="472.1425,-196.5001 462.1425,-200 472.1424,-203.5001 472.1425,-196.5001"/>
</g>
<!-- BacterialTyper__scripts__spades_assembler__run_module_SPADES_old -->
<g id="node20" class="node">
<title>BacterialTyper__scripts__spades_assembler__run_module_SPADES_old</title>
<ellipse fill="#ff65e0" fill-opacity="0.698039" stroke="#000000" cx="620" cy="-347" rx="106.6812" ry="18"/>
<text text-anchor="middle" x="620" y="-343.3" font-family="Times,serif" font-size="14.00" fill="#000000">run_module_SPADES_old</text>
</g>
<!-- BacterialTyper__scripts__spades_assembler__run_module_SPADES_old&#45;&gt;BacterialTyper__config__set_config__get_exe -->
<g id="edge32" class="edge">
<title>BacterialTyper__scripts__spades_assembler__run_module_SPADES_old&#45;&gt;BacterialTyper__config__set_config__get_exe</title>
<path fill="none" stroke="#000000" d="M712.6422,-356C923.4328,-356 1420.7822,-356 1420.7822,-356 1420.7822,-356 1420.7822,-69.3293 1420.7822,-69.3293"/>
<polygon fill="#000000" stroke="#000000" points="1424.2823,-69.3292 1420.7822,-59.3293 1417.2823,-69.3293 1424.2823,-69.3292"/>
</g>
<!-- BacterialTyper__scripts__spades_assembler__run_module_SPADES_old&#45;&gt;BacterialTyper__scripts__functions__create_folder -->
<g id="edge30" class="edge">
<title>BacterialTyper__scripts__spades_assembler__run_module_SPADES_old&#45;&gt;BacterialTyper__scripts__functions__create_folder</title>
<path fill="none" stroke="#000000" d="M726.9397,-347C905.7959,-347 1246.2212,-347 1246.2212,-347 1246.2212,-347 1246.2212,-145.0477 1246.2212,-145.0477"/>
<polygon fill="#000000" stroke="#000000" points="1249.7213,-145.0477 1246.2212,-135.0477 1242.7213,-145.0477 1249.7213,-145.0477"/>
</g>
<!-- BacterialTyper__scripts__spades_assembler__run_module_SPADES_old&#45;&gt;BacterialTyper__scripts__functions__print_time_stamp -->
<g id="edge31" class="edge">
<title>BacterialTyper__scripts__spades_assembler__run_module_SPADES_old&#45;&gt;BacterialTyper__scripts__functions__print_time_stamp</title>
<path fill="none" stroke="#000000" d="M513.1823,-347C494.5079,-347 480.9265,-347 480.9265,-347 480.9265,-347 480.9265,-144.6658 480.9265,-144.6658"/>
<polygon fill="#000000" stroke="#000000" points="484.4266,-144.6658 480.9265,-134.6658 477.4266,-144.6658 484.4266,-144.6658"/>
</g>
<!-- BacterialTyper__scripts__spades_assembler__run_module_SPADES_old&#45;&gt;BacterialTyper__scripts__spades_assembler__discardPlasmids -->
<g id="edge28" class="edge">
<title>BacterialTyper__scripts__spades_assembler__run_module_SPADES_old&#45;&gt;BacterialTyper__scripts__spades_assembler__discardPlasmids</title>
<path fill="none" stroke="#000000" d="M712.6479,-338C779.7583,-338 858.748,-338 858.748,-338 858.748,-338 858.748,-302.215 858.748,-302.215"/>
<polygon fill="#000000" stroke="#000000" points="862.2481,-302.215 858.748,-292.215 855.2481,-302.2151 862.2481,-302.215"/>
</g>
<!-- BacterialTyper__scripts__spades_assembler__run_module_SPADES_old&#45;&gt;BacterialTyper__scripts__spades_assembler__run_SPADES_assembly -->
<g id="edge33" class="edge">
<title>BacterialTyper__scripts__spades_assembler__run_module_SPADES_old&#45;&gt;BacterialTyper__scripts__spades_assembler__run_SPADES_assembly</title>
<path fill="none" stroke="#000000" d="M527.5247,-356C482.4039,-356 437.7194,-356 437.7194,-356 437.7194,-356 437.7194,-298.7405 437.7194,-298.7405"/>
<polygon fill="#000000" stroke="#000000" points="441.2195,-298.7405 437.7194,-288.7405 434.2195,-298.7406 441.2195,-298.7405"/>
</g>
<!-- BacterialTyper__scripts__spades_assembler__run_module_SPADES_old&#45;&gt;BacterialTyper__scripts__spades_assembler__run_SPADES_plasmid_assembly -->
<g id="edge29" class="edge">
<title>BacterialTyper__scripts__spades_assembler__run_module_SPADES_old&#45;&gt;BacterialTyper__scripts__spades_assembler__run_SPADES_plasmid_assembly</title>
<path fill="none" stroke="#000000" d="M620,-328.8314C620,-328.8314 620,-303.4133 620,-303.4133"/>
<polygon fill="#000000" stroke="#000000" points="623.5001,-303.4132 620,-293.4133 616.5001,-303.4133 623.5001,-303.4132"/>
</g>
<!-- BacterialTyper__scripts__spades_assembler__run_module_assembly -->
<g id="node21" class="node">
<title>BacterialTyper__scripts__spades_assembler__run_module_assembly</title>
<ellipse fill="#ff65e0" fill-opacity="0.698039" stroke="#000000" cx="237" cy="-347" rx="90.9839" ry="18"/>
<text text-anchor="middle" x="237" y="-343.3" font-family="Times,serif" font-size="14.00" fill="#000000">run_module_assembly</text>
</g>
<!-- BacterialTyper__scripts__spades_assembler__run_module_assembly&#45;&gt;BacterialTyper__config__set_config__get_exe -->
<g id="edge14" class="edge">
<title>BacterialTyper__scripts__spades_assembler__run_module_assembly&#45;&gt;BacterialTyper__config__set_config__get_exe</title>
<path fill="none" stroke="#000000" d="M311.3808,-336.4034C311.3808,-329.9741 311.3808,-323 311.3808,-323 311.3808,-323 1395.2178,-323 1395.2178,-323 1395.2178,-323 1395.2178,-69.1548 1395.2178,-69.1548"/>
<polygon fill="#000000" stroke="#000000" points="1398.7179,-69.1548 1395.2178,-59.1548 1391.7179,-69.1548 1398.7179,-69.1548"/>
</g>
<!-- BacterialTyper__scripts__spades_assembler__run_module_assembly&#45;&gt;BacterialTyper__scripts__spades_assembler__contig_stats -->
<g id="edge13" class="edge">
<title>BacterialTyper__scripts__spades_assembler__run_module_assembly&#45;&gt;BacterialTyper__scripts__spades_assembler__contig_stats</title>
<path fill="none" stroke="#000000" d="M145.8853,-347C102.2919,-347 59.4516,-347 59.4516,-347 59.4516,-347 59.4516,-302.063 59.4516,-302.063"/>
<polygon fill="#000000" stroke="#000000" points="62.9517,-302.063 59.4516,-292.063 55.9517,-302.063 62.9517,-302.063"/>
</g>
<!-- BacterialTyper__scripts__spades_assembler__run_module_assembly&#45;&gt;BacterialTyper__scripts__spades_assembler__run_SPADES_assembly -->
<g id="edge15" class="edge">
<title>BacterialTyper__scripts__spades_assembler__run_module_assembly&#45;&gt;BacterialTyper__scripts__spades_assembler__run_SPADES_assembly</title>
<path fill="none" stroke="#000000" d="M294.7697,-332.7751C294.7697,-332.7751 294.7697,-295.4622 294.7697,-295.4622"/>
<polygon fill="#000000" stroke="#000000" points="298.2698,-295.4622 294.7697,-285.4622 291.2698,-295.4622 298.2698,-295.4622"/>
</g>
</g>
</svg>
