<?xml version="1.0" encoding="UTF-8" standalone="no"?>
<!DOCTYPE svg PUBLIC "-//W3C//DTD SVG 1.1//EN"
 "http://www.w3.org/Graphics/SVG/1.1/DTD/svg11.dtd">
<!-- Generated by graphviz version 2.40.1 (20161225.0304)
 -->
<!-- Title: G Pages: 1 -->
<svg width="1536pt" height="420pt"
 viewBox="0.00 0.00 1535.72 420.00" xmlns="http://www.w3.org/2000/svg" xmlns:xlink="http://www.w3.org/1999/xlink">
<g id="graph0" class="graph" transform="scale(1 1) rotate(0) translate(4 416)">
<title>G</title>
<polygon fill="#ffffff" stroke="transparent" points="-4,4 -4,-416 1531.7196,-416 1531.7196,4 -4,4"/>
<g id="clust1" class="cluster">
<title>cluster_G</title>
<path fill="#808080" fill-opacity="0.094118" stroke="#000000" d="M20,-8C20,-8 1502,-8 1502,-8 1508,-8 1514,-14 1514,-20 1514,-20 1514,-392 1514,-392 1514,-398 1508,-404 1502,-404 1502,-404 20,-404 20,-404 14,-404 8,-398 8,-392 8,-392 8,-20 8,-20 8,-14 14,-8 20,-8"/>
</g>
<g id="clust2" class="cluster">
<title>cluster_BacterialTyper__config__set_config</title>
<path fill="#808080" fill-opacity="0.094118" stroke="#000000" d="M1322,-16C1322,-16 1494,-16 1494,-16 1500,-16 1506,-22 1506,-28 1506,-28 1506,-79 1506,-79 1506,-85 1500,-91 1494,-91 1494,-91 1322,-91 1322,-91 1316,-91 1310,-85 1310,-79 1310,-79 1310,-28 1310,-28 1310,-22 1316,-16 1322,-16"/>
<text text-anchor="middle" x="1408" y="-75.8" font-family="Times,serif" font-size="14.00" fill="#000000">BacterialTyper.config.set_config</text>
</g>
<g id="clust3" class="cluster">
<title>cluster_BacterialTyper__other_tools__tools</title>
<path fill="#808080" fill-opacity="0.094118" stroke="#000000" d="M932,-174C932,-174 1100,-174 1100,-174 1106,-174 1112,-180 1112,-186 1112,-186 1112,-237 1112,-237 1112,-243 1106,-249 1100,-249 1100,-249 932,-249 932,-249 926,-249 920,-243 920,-237 920,-237 920,-186 920,-186 920,-180 926,-174 932,-174"/>
<text text-anchor="middle" x="1016" y="-233.8" font-family="Times,serif" font-size="14.00" fill="#000000">BacterialTyper.other_tools.tools</text>
</g>
<g id="clust4" class="cluster">
<title>cluster_BacterialTyper__scripts__blast_parser</title>
<path fill="#808080" fill-opacity="0.094118" stroke="#000000" d="M1142,-174C1142,-174 1324,-174 1324,-174 1330,-174 1336,-180 1336,-186 1336,-186 1336,-237 1336,-237 1336,-243 1330,-249 1324,-249 1324,-249 1142,-249 1142,-249 1136,-249 1130,-243 1130,-237 1130,-237 1130,-186 1130,-186 1130,-180 1136,-174 1142,-174"/>
<text text-anchor="middle" x="1233" y="-233.8" font-family="Times,serif" font-size="14.00" fill="#000000">BacterialTyper.scripts.blast_parser</text>
</g>
<g id="clust5" class="cluster">
<title>cluster_BacterialTyper__scripts__functions</title>
<path fill="#808080" fill-opacity="0.094118" stroke="#000000" d="M108,-16C108,-16 1290,-16 1290,-16 1296,-16 1302,-22 1302,-28 1302,-28 1302,-154 1302,-154 1302,-160 1296,-166 1290,-166 1290,-166 108,-166 108,-166 102,-166 96,-160 96,-154 96,-154 96,-28 96,-28 96,-22 102,-16 108,-16"/>
<text text-anchor="middle" x="699" y="-150.8" font-family="Times,serif" font-size="14.00" fill="#000000">BacterialTyper.scripts.functions</text>
</g>
<g id="clust6" class="cluster">
<title>cluster_BacterialTyper__scripts__spades_assembler</title>
<path fill="#808080" fill-opacity="0.094118" stroke="#000000" d="M28,-174C28,-174 900,-174 900,-174 906,-174 912,-180 912,-186 912,-186 912,-384 912,-384 912,-390 906,-396 900,-396 900,-396 28,-396 28,-396 22,-396 16,-390 16,-384 16,-384 16,-186 16,-186 16,-180 22,-174 28,-174"/>
<text text-anchor="middle" x="464" y="-380.8" font-family="Times,serif" font-size="14.00" fill="#000000">BacterialTyper.scripts.spades_assembler</text>
</g>
<!-- BacterialTyper__config__set_config__get_exe -->
<g id="node1" class="node">
<title>BacterialTyper__config__set_config__get_exe</title>
<ellipse fill="#ff8e65" fill-opacity="0.698039" stroke="#000000" cx="1408" cy="-42" rx="38.1938" ry="18"/>
<text text-anchor="middle" x="1408" y="-38.3" font-family="Times,serif" font-size="14.00" fill="#000000">get_exe</text>
</g>
<!-- BacterialTyper__other_tools__tools__perl_scripts -->
<g id="node2" class="node">
<title>BacterialTyper__other_tools__tools__perl_scripts</title>
<ellipse fill="#65ffe0" fill-opacity="0.698039" stroke="#000000" cx="980" cy="-200" rx="51.9908" ry="18"/>
<text text-anchor="middle" x="980" y="-196.3" font-family="Times,serif" font-size="14.00" fill="#000000">perl_scripts</text>
</g>
<!-- BacterialTyper__scripts__blast_parser__parse -->
<g id="node3" class="node">
<title>BacterialTyper__scripts__blast_parser__parse</title>
<ellipse fill="#65a3ff" fill-opacity="0.698039" stroke="#000000" cx="1169" cy="-200" rx="29.4969" ry="18"/>
<text text-anchor="middle" x="1169" y="-196.3" font-family="Times,serif" font-size="14.00" fill="#000000">parse</text>
</g>
<!-- BacterialTyper__scripts__functions__blastn -->
<g id="node4" class="node">
<title>BacterialTyper__scripts__functions__blastn</title>
<ellipse fill="#a365ff" fill-opacity="0.698039" stroke="#000000" cx="1130" cy="-117" rx="31.6951" ry="18"/>
<text text-anchor="middle" x="1130" y="-113.3" font-family="Times,serif" font-size="14.00" fill="#000000">blastn</text>
</g>
<!-- BacterialTyper__scripts__functions__blastn&#45;&gt;BacterialTyper__config__set_config__get_exe -->
<g id="edge4" class="edge">
<title>BacterialTyper__scripts__functions__blastn&#45;&gt;BacterialTyper__config__set_config__get_exe</title>
<path fill="none" stroke="#000000" d="M1153.7861,-104.8699C1159.3094,-102.5326 1165.2563,-100.3839 1171,-99 1229.433,-84.9208 1247.8159,-106.0749 1306,-91 1330.6265,-84.6195 1356.4374,-72.1567 1375.9335,-61.3972"/>
<polygon fill="#000000" stroke="#000000" points="1377.7099,-64.4136 1384.6914,-56.4443 1374.264,-58.3204 1377.7099,-64.4136"/>
</g>
<!-- BacterialTyper__scripts__functions__system_call -->
<g id="node12" class="node">
<title>BacterialTyper__scripts__functions__system_call</title>
<ellipse fill="#a365ff" fill-opacity="0.698039" stroke="#000000" cx="644" cy="-42" rx="52.7911" ry="18"/>
<text text-anchor="middle" x="644" y="-38.3" font-family="Times,serif" font-size="14.00" fill="#000000">system_call</text>
</g>
<!-- BacterialTyper__scripts__functions__blastn&#45;&gt;BacterialTyper__scripts__functions__system_call -->
<g id="edge3" class="edge">
<title>BacterialTyper__scripts__functions__blastn&#45;&gt;BacterialTyper__scripts__functions__system_call</title>
<path fill="none" stroke="#000000" d="M1105.7024,-104.9737C1100.3078,-102.69 1094.5434,-100.5374 1089,-99 955.978,-62.1073 793.8537,-48.9773 706.6805,-44.39"/>
<polygon fill="#000000" stroke="#000000" points="706.8489,-40.8942 696.6848,-43.8844 706.4952,-47.8852 706.8489,-40.8942"/>
</g>
<!-- BacterialTyper__scripts__functions__create_folder -->
<g id="node5" class="node">
<title>BacterialTyper__scripts__functions__create_folder</title>
<ellipse fill="#a365ff" fill-opacity="0.698039" stroke="#000000" cx="1237" cy="-117" rx="57.3905" ry="18"/>
<text text-anchor="middle" x="1237" y="-113.3" font-family="Times,serif" font-size="14.00" fill="#000000">create_folder</text>
</g>
<!-- BacterialTyper__scripts__functions__create_subfolder -->
<g id="node6" class="node">
<title>BacterialTyper__scripts__functions__create_subfolder</title>
<ellipse fill="#a365ff" fill-opacity="0.698039" stroke="#000000" cx="336" cy="-117" rx="69.5877" ry="18"/>
<text text-anchor="middle" x="336" y="-113.3" font-family="Times,serif" font-size="14.00" fill="#000000">create_subfolder</text>
</g>
<!-- BacterialTyper__scripts__functions__makeblastdb -->
<g id="node7" class="node">
<title>BacterialTyper__scripts__functions__makeblastdb</title>
<ellipse fill="#a365ff" fill-opacity="0.698039" stroke="#000000" cx="644" cy="-117" rx="55.7903" ry="18"/>
<text text-anchor="middle" x="644" y="-113.3" font-family="Times,serif" font-size="14.00" fill="#000000">makeblastdb</text>
</g>
<!-- BacterialTyper__scripts__functions__makeblastdb&#45;&gt;BacterialTyper__config__set_config__get_exe -->
<g id="edge2" class="edge">
<title>BacterialTyper__scripts__functions__makeblastdb&#45;&gt;BacterialTyper__config__set_config__get_exe</title>
<path fill="none" stroke="#000000" d="M683.8797,-104.2261C692.1049,-102.0824 700.7697,-100.1747 709,-99 774.6737,-89.6261 1241.417,-106.1639 1306,-91 1330.9312,-85.1462 1356.9196,-72.549 1376.4242,-61.5936"/>
<polygon fill="#000000" stroke="#000000" points="1378.2609,-64.5747 1385.1732,-56.5454 1374.7624,-58.5116 1378.2609,-64.5747"/>
</g>
<!-- BacterialTyper__scripts__functions__makeblastdb&#45;&gt;BacterialTyper__scripts__functions__system_call -->
<g id="edge1" class="edge">
<title>BacterialTyper__scripts__functions__makeblastdb&#45;&gt;BacterialTyper__scripts__functions__system_call</title>
<path fill="none" stroke="#000000" d="M644,-98.8446C644,-90.3401 644,-80.0076 644,-70.4964"/>
<polygon fill="#000000" stroke="#000000" points="647.5001,-70.2481 644,-60.2482 640.5001,-70.2482 647.5001,-70.2481"/>
</g>
<!-- BacterialTyper__scripts__functions__print_time_stamp -->
<g id="node8" class="node">
<title>BacterialTyper__scripts__functions__print_time_stamp</title>
<ellipse fill="#a365ff" fill-opacity="0.698039" stroke="#000000" cx="497" cy="-117" rx="73.387" ry="18"/>
<text text-anchor="middle" x="497" y="-113.3" font-family="Times,serif" font-size="14.00" fill="#000000">print_time_stamp</text>
</g>
<!-- BacterialTyper__scripts__functions__read_time_stamp -->
<g id="node9" class="node">
<title>BacterialTyper__scripts__functions__read_time_stamp</title>
<ellipse fill="#a365ff" fill-opacity="0.698039" stroke="#000000" cx="176" cy="-117" rx="72.2875" ry="18"/>
<text text-anchor="middle" x="176" y="-113.3" font-family="Times,serif" font-size="14.00" fill="#000000">read_time_stamp</text>
</g>
<!-- BacterialTyper__scripts__functions__rename_fasta_seqs -->
<g id="node10" class="node">
<title>BacterialTyper__scripts__functions__rename_fasta_seqs</title>
<ellipse fill="#a365ff" fill-opacity="0.698039" stroke="#000000" cx="795" cy="-117" rx="77.1866" ry="18"/>
<text text-anchor="middle" x="795" y="-113.3" font-family="Times,serif" font-size="14.00" fill="#000000">rename_fasta_seqs</text>
</g>
<!-- BacterialTyper__scripts__functions__retrieve_matching_files -->
<g id="node11" class="node">
<title>BacterialTyper__scripts__functions__retrieve_matching_files</title>
<ellipse fill="#a365ff" fill-opacity="0.698039" stroke="#000000" cx="985" cy="-117" rx="94.7833" ry="18"/>
<text text-anchor="middle" x="985" y="-113.3" font-family="Times,serif" font-size="14.00" fill="#000000">retrieve_matching_files</text>
</g>
<!-- BacterialTyper__scripts__spades_assembler__SPADES_systemCall -->
<g id="node13" class="node">
<title>BacterialTyper__scripts__spades_assembler__SPADES_systemCall</title>
<ellipse fill="#ff65e0" fill-opacity="0.698039" stroke="#000000" cx="375" cy="-200" rx="87.1846" ry="18"/>
<text text-anchor="middle" x="375" y="-196.3" font-family="Times,serif" font-size="14.00" fill="#000000">SPADES_systemCall</text>
</g>
<!-- BacterialTyper__scripts__spades_assembler__SPADES_systemCall&#45;&gt;BacterialTyper__scripts__functions__print_time_stamp -->
<g id="edge12" class="edge">
<title>BacterialTyper__scripts__spades_assembler__SPADES_systemCall&#45;&gt;BacterialTyper__scripts__functions__print_time_stamp</title>
<path fill="none" stroke="#000000" d="M400.5752,-182.6005C418.8346,-170.1781 443.5747,-153.3467 463.423,-139.8434"/>
<polygon fill="#000000" stroke="#000000" points="465.5771,-142.6111 471.8764,-134.0923 461.6396,-136.8235 465.5771,-142.6111"/>
</g>
<!-- BacterialTyper__scripts__spades_assembler__SPADES_systemCall&#45;&gt;BacterialTyper__scripts__functions__read_time_stamp -->
<g id="edge10" class="edge">
<title>BacterialTyper__scripts__spades_assembler__SPADES_systemCall&#45;&gt;BacterialTyper__scripts__functions__read_time_stamp</title>
<path fill="none" stroke="#000000" d="M316.9124,-186.5349C297.4771,-181.1749 275.9471,-174.2866 257,-166 240.4148,-158.7464 223.1073,-148.6642 208.7691,-139.5301"/>
<polygon fill="#000000" stroke="#000000" points="210.5503,-136.5135 200.2582,-133.9991 206.7359,-142.383 210.5503,-136.5135"/>
</g>
<!-- BacterialTyper__scripts__spades_assembler__SPADES_systemCall&#45;&gt;BacterialTyper__scripts__functions__system_call -->
<g id="edge11" class="edge">
<title>BacterialTyper__scripts__spades_assembler__SPADES_systemCall&#45;&gt;BacterialTyper__scripts__functions__system_call</title>
<path fill="none" stroke="#000000" d="M290.7904,-195.3547C213.1236,-190.187 107.9278,-180.5926 95,-166 75.2538,-143.7109 75.0608,-121.1166 95,-99 127.0493,-63.4509 443.4691,-48.6716 580.8649,-43.8955"/>
<polygon fill="#000000" stroke="#000000" points="581.3555,-47.3809 591.2305,-43.5424 581.1171,-40.385 581.3555,-47.3809"/>
</g>
<!-- BacterialTyper__scripts__spades_assembler__contig_stats -->
<g id="node14" class="node">
<title>BacterialTyper__scripts__spades_assembler__contig_stats</title>
<ellipse fill="#ff65e0" fill-opacity="0.698039" stroke="#000000" cx="77" cy="-275" rx="52.7911" ry="18"/>
<text text-anchor="middle" x="77" y="-271.3" font-family="Times,serif" font-size="14.00" fill="#000000">contig_stats</text>
</g>
<!-- BacterialTyper__scripts__spades_assembler__contig_stats&#45;&gt;BacterialTyper__other_tools__tools__perl_scripts -->
<g id="edge21" class="edge">
<title>BacterialTyper__scripts__spades_assembler__contig_stats&#45;&gt;BacterialTyper__other_tools__tools__perl_scripts</title>
<path fill="none" stroke="#000000" d="M114.6727,-262.2954C122.6192,-260.1164 131.0164,-258.1774 139,-257 181.707,-250.7015 875.1864,-263.0646 916,-249 930.9047,-243.8638 945.0853,-233.7589 956.2928,-224.0532"/>
<polygon fill="#000000" stroke="#000000" points="958.8563,-226.4526 963.8959,-217.1331 954.1445,-221.2758 958.8563,-226.4526"/>
</g>
<!-- BacterialTyper__scripts__spades_assembler__contig_stats&#45;&gt;BacterialTyper__scripts__functions__system_call -->
<g id="edge20" class="edge">
<title>BacterialTyper__scripts__spades_assembler__contig_stats&#45;&gt;BacterialTyper__scripts__functions__system_call</title>
<path fill="none" stroke="#000000" d="M70.0976,-257.0392C57.8453,-221.7718 37.1333,-143.0754 77,-99 110.344,-62.1359 440.7719,-48.023 581.2876,-43.659"/>
<polygon fill="#000000" stroke="#000000" points="581.5833,-47.1517 591.4724,-43.3494 581.3706,-40.1549 581.5833,-47.1517"/>
</g>
<!-- BacterialTyper__scripts__spades_assembler__discardPlasmids -->
<g id="node15" class="node">
<title>BacterialTyper__scripts__spades_assembler__discardPlasmids</title>
<ellipse fill="#ff65e0" fill-opacity="0.698039" stroke="#000000" cx="836" cy="-275" rx="68.4888" ry="18"/>
<text text-anchor="middle" x="836" y="-271.3" font-family="Times,serif" font-size="14.00" fill="#000000">discardPlasmids</text>
</g>
<!-- BacterialTyper__scripts__spades_assembler__discardPlasmids&#45;&gt;BacterialTyper__scripts__blast_parser__parse -->
<g id="edge16" class="edge">
<title>BacterialTyper__scripts__spades_assembler__discardPlasmids&#45;&gt;BacterialTyper__scripts__blast_parser__parse</title>
<path fill="none" stroke="#000000" d="M903.2664,-271.5992C982.7325,-267.1723 1106.6486,-258.8291 1126,-249 1136.6617,-243.5846 1145.8474,-234.2927 1152.9593,-225.2467"/>
<polygon fill="#000000" stroke="#000000" points="1155.8184,-227.2661 1158.8904,-217.1264 1150.1657,-223.1373 1155.8184,-227.2661"/>
</g>
<!-- BacterialTyper__scripts__spades_assembler__discardPlasmids&#45;&gt;BacterialTyper__scripts__functions__blastn -->
<g id="edge19" class="edge">
<title>BacterialTyper__scripts__spades_assembler__discardPlasmids&#45;&gt;BacterialTyper__scripts__functions__blastn</title>
<path fill="none" stroke="#000000" d="M904.4668,-274.3938C1052.9709,-272.7425 1392.7908,-267.0064 1410,-249 1433.0308,-224.9024 1433.1726,-197.9612 1410,-174 1391.5288,-154.9002 1194.8817,-177.647 1171,-166 1160.5739,-160.9152 1151.8241,-151.8077 1145.1209,-142.8127"/>
<polygon fill="#000000" stroke="#000000" points="1147.8701,-140.6327 1139.3332,-134.358 1142.0939,-144.5869 1147.8701,-140.6327"/>
</g>
<!-- BacterialTyper__scripts__spades_assembler__discardPlasmids&#45;&gt;BacterialTyper__scripts__functions__create_subfolder -->
<g id="edge17" class="edge">
<title>BacterialTyper__scripts__spades_assembler__discardPlasmids&#45;&gt;BacterialTyper__scripts__functions__create_subfolder</title>
<path fill="none" stroke="#000000" d="M792.6191,-261.0473C724.6865,-239.6424 588.7791,-198.6027 471,-174 446.3896,-168.8592 438.6299,-174.5864 415,-166 397.916,-159.7922 380.5736,-149.5626 366.5068,-140.0515"/>
<polygon fill="#000000" stroke="#000000" points="368.4085,-137.1108 358.203,-134.2647 364.4062,-142.8538 368.4085,-137.1108"/>
</g>
<!-- BacterialTyper__scripts__spades_assembler__discardPlasmids&#45;&gt;BacterialTyper__scripts__functions__makeblastdb -->
<g id="edge18" class="edge">
<title>BacterialTyper__scripts__spades_assembler__discardPlasmids&#45;&gt;BacterialTyper__scripts__functions__makeblastdb</title>
<path fill="none" stroke="#000000" d="M904.1449,-273.3833C982.435,-270.8063 1101.9821,-264.3798 1116,-249 1127.2271,-236.6821 1127.6687,-185.9004 1116,-174 1100.1664,-157.8521 730.3746,-173.3884 709,-166 694.0605,-160.836 679.7673,-150.8304 668.4075,-141.1999"/>
<polygon fill="#000000" stroke="#000000" points="670.4838,-138.3623 660.687,-134.3282 665.8298,-143.5912 670.4838,-138.3623"/>
</g>
<!-- BacterialTyper__scripts__spades_assembler__help_options -->
<g id="node16" class="node">
<title>BacterialTyper__scripts__spades_assembler__help_options</title>
<ellipse fill="#ff65e0" fill-opacity="0.698039" stroke="#000000" cx="204" cy="-275" rx="55.7903" ry="18"/>
<text text-anchor="middle" x="204" y="-271.3" font-family="Times,serif" font-size="14.00" fill="#000000">help_options</text>
</g>
<!-- BacterialTyper__scripts__spades_assembler__main -->
<g id="node17" class="node">
<title>BacterialTyper__scripts__spades_assembler__main</title>
<ellipse fill="#ff65e0" fill-opacity="0.698039" stroke="#000000" cx="375" cy="-347" rx="28.6953" ry="18"/>
<text text-anchor="middle" x="375" y="-343.3" font-family="Times,serif" font-size="14.00" fill="#000000">main</text>
</g>
<!-- BacterialTyper__scripts__spades_assembler__main&#45;&gt;BacterialTyper__scripts__functions__create_subfolder -->
<g id="edge22" class="edge">
<title>BacterialTyper__scripts__spades_assembler__main&#45;&gt;BacterialTyper__scripts__functions__create_subfolder</title>
<path fill="none" stroke="#000000" d="M402.8801,-342.6925C428.9724,-338.7604 469.0622,-332.9725 504,-329 596.7158,-318.458 1277.4906,-318.2816 1340,-249 1362.3296,-224.2512 1363.4681,-197.6719 1340,-174 1330.9547,-164.8761 427.3405,-169.5742 415,-166 397.0271,-160.7946 379.1304,-150.2541 364.9271,-140.2784"/>
<polygon fill="#000000" stroke="#000000" points="366.7333,-137.2636 356.5932,-134.1929 362.6053,-142.9168 366.7333,-137.2636"/>
</g>
<!-- BacterialTyper__scripts__spades_assembler__main&#45;&gt;BacterialTyper__scripts__spades_assembler__contig_stats -->
<g id="edge26" class="edge">
<title>BacterialTyper__scripts__spades_assembler__main&#45;&gt;BacterialTyper__scripts__spades_assembler__contig_stats</title>
<path fill="none" stroke="#000000" d="M352.8923,-335.3362C347.7764,-332.9747 342.2816,-330.6983 337,-329 251.8511,-301.6199 226.0628,-313.4958 139,-293 134.711,-291.9903 130.2771,-290.8662 125.8441,-289.6867"/>
<polygon fill="#000000" stroke="#000000" points="126.7671,-286.3107 116.1973,-287.0389 124.9142,-293.061 126.7671,-286.3107"/>
</g>
<!-- BacterialTyper__scripts__spades_assembler__main&#45;&gt;BacterialTyper__scripts__spades_assembler__discardPlasmids -->
<g id="edge25" class="edge">
<title>BacterialTyper__scripts__spades_assembler__main&#45;&gt;BacterialTyper__scripts__spades_assembler__discardPlasmids</title>
<path fill="none" stroke="#000000" d="M403.1167,-343.0805C490.2064,-330.9358 750.1901,-294.6457 759,-293 764.4824,-291.9759 770.1638,-290.8235 775.8431,-289.6094"/>
<polygon fill="#000000" stroke="#000000" points="777.0049,-292.9376 786.0199,-287.3716 775.5016,-286.1009 777.0049,-292.9376"/>
</g>
<!-- BacterialTyper__scripts__spades_assembler__main&#45;&gt;BacterialTyper__scripts__spades_assembler__help_options -->
<g id="edge27" class="edge">
<title>BacterialTyper__scripts__spades_assembler__main&#45;&gt;BacterialTyper__scripts__spades_assembler__help_options</title>
<path fill="none" stroke="#000000" d="M352.1888,-335.9378C347.2071,-333.5941 341.9455,-331.1732 337,-329 308.07,-316.2874 275.1691,-302.92 249.3286,-292.6655"/>
<polygon fill="#000000" stroke="#000000" points="250.3801,-289.3176 239.7936,-288.8956 247.8063,-295.8273 250.3801,-289.3176"/>
</g>
<!-- BacterialTyper__scripts__spades_assembler__run_SPADES_assembly -->
<g id="node18" class="node">
<title>BacterialTyper__scripts__spades_assembler__run_SPADES_assembly</title>
<ellipse fill="#ff65e0" fill-opacity="0.698039" stroke="#000000" cx="375" cy="-275" rx="96.6831" ry="18"/>
<text text-anchor="middle" x="375" y="-271.3" font-family="Times,serif" font-size="14.00" fill="#000000">run_SPADES_assembly</text>
</g>
<!-- BacterialTyper__scripts__spades_assembler__main&#45;&gt;BacterialTyper__scripts__spades_assembler__run_SPADES_assembly -->
<g id="edge24" class="edge">
<title>BacterialTyper__scripts__spades_assembler__main&#45;&gt;BacterialTyper__scripts__spades_assembler__run_SPADES_assembly</title>
<path fill="none" stroke="#000000" d="M375,-328.8314C375,-321.131 375,-311.9743 375,-303.4166"/>
<polygon fill="#000000" stroke="#000000" points="378.5001,-303.4132 375,-293.4133 371.5001,-303.4133 378.5001,-303.4132"/>
</g>
<!-- BacterialTyper__scripts__spades_assembler__run_SPADES_plasmid_assembly -->
<g id="node19" class="node">
<title>BacterialTyper__scripts__spades_assembler__run_SPADES_plasmid_assembly</title>
<ellipse fill="#ff65e0" fill-opacity="0.698039" stroke="#000000" cx="620" cy="-275" rx="129.9769" ry="18"/>
<text text-anchor="middle" x="620" y="-271.3" font-family="Times,serif" font-size="14.00" fill="#000000">run_SPADES_plasmid_assembly</text>
</g>
<!-- BacterialTyper__scripts__spades_assembler__main&#45;&gt;BacterialTyper__scripts__spades_assembler__run_SPADES_plasmid_assembly -->
<g id="edge23" class="edge">
<title>BacterialTyper__scripts__spades_assembler__main&#45;&gt;BacterialTyper__scripts__spades_assembler__run_SPADES_plasmid_assembly</title>
<path fill="none" stroke="#000000" d="M401.2193,-339.2947C437.5581,-328.6156 504.4329,-308.9626 554.7178,-294.185"/>
<polygon fill="#000000" stroke="#000000" points="555.9322,-297.4762 564.5397,-291.2985 553.9585,-290.7602 555.9322,-297.4762"/>
</g>
<!-- BacterialTyper__scripts__spades_assembler__run_SPADES_assembly&#45;&gt;BacterialTyper__scripts__functions__rename_fasta_seqs -->
<g id="edge7" class="edge">
<title>BacterialTyper__scripts__spades_assembler__run_SPADES_assembly&#45;&gt;BacterialTyper__scripts__functions__rename_fasta_seqs</title>
<path fill="none" stroke="#000000" d="M442.0807,-261.9558C454.9515,-259.9226 468.3569,-258.1252 481,-257 492.8841,-255.9424 1331.6028,-257.4757 1340,-249 1363.4602,-225.3203 1363.3639,-197.7747 1340,-174 1331.0619,-164.9048 893.2979,-169.3726 881,-166 861.744,-160.7192 842.2509,-150.1375 826.7029,-140.1548"/>
<polygon fill="#000000" stroke="#000000" points="828.301,-137.0143 818.036,-134.391 824.4246,-142.843 828.301,-137.0143"/>
</g>
<!-- BacterialTyper__scripts__spades_assembler__run_SPADES_assembly&#45;&gt;BacterialTyper__scripts__functions__retrieve_matching_files -->
<g id="edge8" class="edge">
<title>BacterialTyper__scripts__spades_assembler__run_SPADES_assembly&#45;&gt;BacterialTyper__scripts__functions__retrieve_matching_files</title>
<path fill="none" stroke="#000000" d="M442.0806,-261.9543C454.9514,-259.9213 468.3569,-258.1243 481,-257 493.064,-255.9272 1344.4752,-257.6034 1353,-249 1376.4619,-225.3219 1376.2105,-197.9245 1353,-174 1342.7827,-163.4684 1103.2691,-169.4209 1089,-166 1065.815,-160.4416 1041.6232,-149.4018 1022.4121,-139.2062"/>
<polygon fill="#000000" stroke="#000000" points="1023.8628,-136.0107 1013.4075,-134.2966 1020.5118,-142.1566 1023.8628,-136.0107"/>
</g>
<!-- BacterialTyper__scripts__spades_assembler__run_SPADES_assembly&#45;&gt;BacterialTyper__scripts__spades_assembler__SPADES_systemCall -->
<g id="edge9" class="edge">
<title>BacterialTyper__scripts__spades_assembler__run_SPADES_assembly&#45;&gt;BacterialTyper__scripts__spades_assembler__SPADES_systemCall</title>
<path fill="none" stroke="#000000" d="M375,-256.8446C375,-248.3401 375,-238.0076 375,-228.4964"/>
<polygon fill="#000000" stroke="#000000" points="378.5001,-228.2481 375,-218.2482 371.5001,-228.2482 378.5001,-228.2481"/>
</g>
<!-- BacterialTyper__scripts__spades_assembler__run_SPADES_plasmid_assembly&#45;&gt;BacterialTyper__scripts__functions__retrieve_matching_files -->
<g id="edge5" class="edge">
<title>BacterialTyper__scripts__spades_assembler__run_SPADES_plasmid_assembly&#45;&gt;BacterialTyper__scripts__functions__retrieve_matching_files</title>
<path fill="none" stroke="#000000" d="M709.2008,-261.8926C725.7239,-259.9076 742.8587,-258.1436 759,-257 767.7427,-256.3806 1383.8419,-255.2367 1390,-249 1413.4203,-225.2808 1413.255,-197.8813 1390,-174 1378.3296,-162.0153 1105.2744,-169.8696 1089,-166 1065.8047,-160.4848 1041.6122,-149.4478 1022.4033,-139.243"/>
<polygon fill="#000000" stroke="#000000" points="1023.8544,-136.0476 1013.4,-134.328 1020.5002,-142.1917 1023.8544,-136.0476"/>
</g>
<!-- BacterialTyper__scripts__spades_assembler__run_SPADES_plasmid_assembly&#45;&gt;BacterialTyper__scripts__spades_assembler__SPADES_systemCall -->
<g id="edge6" class="edge">
<title>BacterialTyper__scripts__spades_assembler__run_SPADES_plasmid_assembly&#45;&gt;BacterialTyper__scripts__spades_assembler__SPADES_systemCall</title>
<path fill="none" stroke="#000000" d="M566.2337,-258.5409C527.0648,-246.5504 474.034,-230.3165 433.752,-217.9853"/>
<polygon fill="#000000" stroke="#000000" points="434.6494,-214.5998 424.0629,-215.0193 432.6004,-221.2932 434.6494,-214.5998"/>
</g>
<!-- BacterialTyper__scripts__spades_assembler__run_module_SPADES_old -->
<g id="node20" class="node">
<title>BacterialTyper__scripts__spades_assembler__run_module_SPADES_old</title>
<ellipse fill="#ff65e0" fill-opacity="0.698039" stroke="#000000" cx="620" cy="-347" rx="106.6812" ry="18"/>
<text text-anchor="middle" x="620" y="-343.3" font-family="Times,serif" font-size="14.00" fill="#000000">run_module_SPADES_old</text>
</g>
<!-- BacterialTyper__scripts__spades_assembler__run_module_SPADES_old&#45;&gt;BacterialTyper__config__set_config__get_exe -->
<g id="edge33" class="edge">
<title>BacterialTyper__scripts__spades_assembler__run_module_SPADES_old&#45;&gt;BacterialTyper__config__set_config__get_exe</title>
<path fill="none" stroke="#000000" d="M725.4997,-344.2646C951.5248,-337.889 1464.187,-320.4648 1490,-293 1549.0496,-230.1716 1529.9437,-175.4118 1490,-99 1480.7156,-81.239 1463.097,-67.8961 1446.5636,-58.6025"/>
<polygon fill="#000000" stroke="#000000" points="1448.0285,-55.4183 1437.5498,-53.8536 1444.7657,-61.6114 1448.0285,-55.4183"/>
</g>
<!-- BacterialTyper__scripts__spades_assembler__run_module_SPADES_old&#45;&gt;BacterialTyper__scripts__functions__create_folder -->
<g id="edge31" class="edge">
<title>BacterialTyper__scripts__spades_assembler__run_module_SPADES_old&#45;&gt;BacterialTyper__scripts__functions__create_folder</title>
<path fill="none" stroke="#000000" d="M726.5056,-345.7933C892.0608,-342.7156 1202.8447,-331.789 1306,-293 1361.2552,-272.2226 1397.1497,-223.51 1365,-174 1349.7871,-150.5724 1322.468,-136.6934 1296.9642,-128.5106"/>
<polygon fill="#000000" stroke="#000000" points="1297.8901,-125.1346 1287.3076,-125.6453 1295.8988,-131.8454 1297.8901,-125.1346"/>
</g>
<!-- BacterialTyper__scripts__spades_assembler__run_module_SPADES_old&#45;&gt;BacterialTyper__scripts__functions__print_time_stamp -->
<g id="edge30" class="edge">
<title>BacterialTyper__scripts__spades_assembler__run_module_SPADES_old&#45;&gt;BacterialTyper__scripts__functions__print_time_stamp</title>
<path fill="none" stroke="#000000" d="M723.4705,-342.557C877.4126,-335.212 1159.122,-318.7409 1257,-293 1302.3912,-281.0626 1327.6521,-288.5013 1353,-249 1371.0022,-220.9459 1376.4481,-197.6917 1353,-174 1337.8752,-158.718 599.6963,-171.8278 579,-166 560.4513,-160.7769 541.8475,-150.2005 527.0599,-140.2065"/>
<polygon fill="#000000" stroke="#000000" points="529.0214,-137.3072 518.8234,-134.4343 525.004,-143.0396 529.0214,-137.3072"/>
</g>
<!-- BacterialTyper__scripts__spades_assembler__run_module_SPADES_old&#45;&gt;BacterialTyper__scripts__spades_assembler__discardPlasmids -->
<g id="edge28" class="edge">
<title>BacterialTyper__scripts__spades_assembler__run_module_SPADES_old&#45;&gt;BacterialTyper__scripts__spades_assembler__discardPlasmids</title>
<path fill="none" stroke="#000000" d="M668.2058,-330.9314C702.5284,-319.4905 748.6163,-304.1279 783.8057,-292.3981"/>
<polygon fill="#000000" stroke="#000000" points="785.043,-295.675 793.4231,-289.1923 782.8294,-289.0343 785.043,-295.675"/>
</g>
<!-- BacterialTyper__scripts__spades_assembler__run_module_SPADES_old&#45;&gt;BacterialTyper__scripts__spades_assembler__run_SPADES_assembly -->
<g id="edge32" class="edge">
<title>BacterialTyper__scripts__spades_assembler__run_module_SPADES_old&#45;&gt;BacterialTyper__scripts__spades_assembler__run_SPADES_assembly</title>
<path fill="none" stroke="#000000" d="M566.8386,-331.3771C528.4842,-320.1055 476.6077,-304.8602 436.4712,-293.065"/>
<polygon fill="#000000" stroke="#000000" points="437.3779,-289.6835 426.7967,-290.2219 435.4042,-296.3995 437.3779,-289.6835"/>
</g>
<!-- BacterialTyper__scripts__spades_assembler__run_module_SPADES_old&#45;&gt;BacterialTyper__scripts__spades_assembler__run_SPADES_plasmid_assembly -->
<g id="edge29" class="edge">
<title>BacterialTyper__scripts__spades_assembler__run_module_SPADES_old&#45;&gt;BacterialTyper__scripts__spades_assembler__run_SPADES_plasmid_assembly</title>
<path fill="none" stroke="#000000" d="M620,-328.8314C620,-321.131 620,-311.9743 620,-303.4166"/>
<polygon fill="#000000" stroke="#000000" points="623.5001,-303.4132 620,-293.4133 616.5001,-303.4133 623.5001,-303.4132"/>
</g>
<!-- BacterialTyper__scripts__spades_assembler__run_module_assembly -->
<g id="node21" class="node">
<title>BacterialTyper__scripts__spades_assembler__run_module_assembly</title>
<ellipse fill="#ff65e0" fill-opacity="0.698039" stroke="#000000" cx="237" cy="-347" rx="90.9839" ry="18"/>
<text text-anchor="middle" x="237" y="-343.3" font-family="Times,serif" font-size="14.00" fill="#000000">run_module_assembly</text>
</g>
<!-- BacterialTyper__scripts__spades_assembler__run_module_assembly&#45;&gt;BacterialTyper__config__set_config__get_exe -->
<g id="edge15" class="edge">
<title>BacterialTyper__scripts__spades_assembler__run_module_assembly&#45;&gt;BacterialTyper__config__set_config__get_exe</title>
<path fill="none" stroke="#000000" d="M301.3865,-334.2804C313.1963,-332.2696 325.4416,-330.3967 337,-329 457.1198,-314.4849 1341.2042,-338.1566 1423,-249 1468.2919,-199.6323 1439.8781,-112.7775 1420.9329,-68.9341"/>
<polygon fill="#000000" stroke="#000000" points="1424.1083,-67.4612 1416.8329,-59.7593 1417.7175,-70.3172 1424.1083,-67.4612"/>
</g>
<!-- BacterialTyper__scripts__spades_assembler__run_module_assembly&#45;&gt;BacterialTyper__scripts__spades_assembler__contig_stats -->
<g id="edge13" class="edge">
<title>BacterialTyper__scripts__spades_assembler__run_module_assembly&#45;&gt;BacterialTyper__scripts__spades_assembler__contig_stats</title>
<path fill="none" stroke="#000000" d="M200.2928,-330.4817C175.8318,-319.4743 143.6434,-304.9895 118.2897,-293.5804"/>
<polygon fill="#000000" stroke="#000000" points="119.4932,-290.2839 108.9376,-289.3719 116.6206,-296.6674 119.4932,-290.2839"/>
</g>
<!-- BacterialTyper__scripts__spades_assembler__run_module_assembly&#45;&gt;BacterialTyper__scripts__spades_assembler__run_SPADES_assembly -->
<g id="edge14" class="edge">
<title>BacterialTyper__scripts__spades_assembler__run_module_assembly&#45;&gt;BacterialTyper__scripts__spades_assembler__run_SPADES_assembly</title>
<path fill="none" stroke="#000000" d="M269.3549,-330.1192C288.4223,-320.171 312.7491,-307.4787 333.2515,-296.7819"/>
<polygon fill="#000000" stroke="#000000" points="335.1228,-299.7533 342.3697,-292.0245 331.8848,-293.5472 335.1228,-299.7533"/>
</g>
</g>
</svg>
