<?xml version="1.0" encoding="UTF-8" standalone="no"?>
<!DOCTYPE svg PUBLIC "-//W3C//DTD SVG 1.1//EN"
 "http://www.w3.org/Graphics/SVG/1.1/DTD/svg11.dtd">
<!-- Generated by graphviz version 2.40.1 (20161225.0304)
 -->
<!-- Title: G Pages: 1 -->
<svg width="935pt" height="303pt"
 viewBox="0.00 0.00 935.00 303.00" xmlns="http://www.w3.org/2000/svg" xmlns:xlink="http://www.w3.org/1999/xlink">
<g id="graph0" class="graph" transform="scale(1 1) rotate(0) translate(4 299)">
<title>G</title>
<polygon fill="#ffffff" stroke="transparent" points="-4,4 -4,-299 931,-299 931,4 -4,4"/>
<g id="clust1" class="cluster">
<title>cluster_G</title>
<path fill="#808080" fill-opacity="0.094118" stroke="#000000" d="M20,-8C20,-8 907,-8 907,-8 913,-8 919,-14 919,-20 919,-20 919,-275 919,-275 919,-281 913,-287 907,-287 907,-287 20,-287 20,-287 14,-287 8,-281 8,-275 8,-275 8,-20 8,-20 8,-14 14,-8 20,-8"/>
</g>
<g id="clust2" class="cluster">
<title>cluster_BacterialTyper__scripts__spades_assembler</title>
<path fill="#808080" fill-opacity="0.094118" stroke="#000000" d="M28,-16C28,-16 899,-16 899,-16 905,-16 911,-22 911,-28 911,-28 911,-223 911,-223 911,-229 905,-235 899,-235 899,-235 28,-235 28,-235 22,-235 16,-229 16,-223 16,-223 16,-28 16,-28 16,-22 22,-16 28,-16"/>
<text text-anchor="middle" x="463.5" y="-219.8" font-family="Times,serif" font-size="14.00" fill="#000000">BacterialTyper.scripts.spades_assembler</text>
</g>
<!-- BacterialTyper__scripts__spades_assembler -->
<g id="node1" class="node">
<title>BacterialTyper__scripts__spades_assembler</title>
<ellipse fill="#ffffff" fill-opacity="0.698039" stroke="#000000" cx="409" cy="-261" rx="154.8728" ry="18"/>
<text text-anchor="middle" x="409" y="-257.3" font-family="Times,serif" font-size="14.00" fill="#000000">BacterialTyper.scripts.spades_assembler</text>
</g>
<!-- BacterialTyper__scripts__spades_assembler__main -->
<g id="node6" class="node">
<title>BacterialTyper__scripts__spades_assembler__main</title>
<ellipse fill="#ff6565" fill-opacity="0.698039" stroke="#000000" cx="409" cy="-186" rx="28.6953" ry="18"/>
<text text-anchor="middle" x="409" y="-182.3" font-family="Times,serif" font-size="14.00" fill="#000000">main</text>
</g>
<!-- BacterialTyper__scripts__spades_assembler&#45;&gt;BacterialTyper__scripts__spades_assembler__main -->
<g id="edge1" class="edge">
<title>BacterialTyper__scripts__spades_assembler&#45;&gt;BacterialTyper__scripts__spades_assembler__main</title>
<path fill="none" stroke="#000000" d="M409,-242.8446C409,-234.3401 409,-224.0076 409,-214.4964"/>
<polygon fill="#000000" stroke="#000000" points="412.5001,-214.2481 409,-204.2482 405.5001,-214.2482 412.5001,-214.2481"/>
</g>
<!-- BacterialTyper__scripts__spades_assembler__SPADES_systemCall -->
<g id="node2" class="node">
<title>BacterialTyper__scripts__spades_assembler__SPADES_systemCall</title>
<ellipse fill="#ff6565" fill-opacity="0.698039" stroke="#000000" cx="508" cy="-42" rx="87.1846" ry="18"/>
<text text-anchor="middle" x="508" y="-38.3" font-family="Times,serif" font-size="14.00" fill="#000000">SPADES_systemCall</text>
</g>
<!-- BacterialTyper__scripts__spades_assembler__contig_stats -->
<g id="node3" class="node">
<title>BacterialTyper__scripts__spades_assembler__contig_stats</title>
<ellipse fill="#ff6565" fill-opacity="0.698039" stroke="#000000" cx="77" cy="-114" rx="52.7911" ry="18"/>
<text text-anchor="middle" x="77" y="-110.3" font-family="Times,serif" font-size="14.00" fill="#000000">contig_stats</text>
</g>
<!-- BacterialTyper__scripts__spades_assembler__discardPlasmids -->
<g id="node4" class="node">
<title>BacterialTyper__scripts__spades_assembler__discardPlasmids</title>
<ellipse fill="#ff6565" fill-opacity="0.698039" stroke="#000000" cx="557" cy="-114" rx="68.4888" ry="18"/>
<text text-anchor="middle" x="557" y="-110.3" font-family="Times,serif" font-size="14.00" fill="#000000">discardPlasmids</text>
</g>
<!-- BacterialTyper__scripts__spades_assembler__help_options -->
<g id="node5" class="node">
<title>BacterialTyper__scripts__spades_assembler__help_options</title>
<ellipse fill="#ff6565" fill-opacity="0.698039" stroke="#000000" cx="415" cy="-114" rx="55.7903" ry="18"/>
<text text-anchor="middle" x="415" y="-110.3" font-family="Times,serif" font-size="14.00" fill="#000000">help_options</text>
</g>
<!-- BacterialTyper__scripts__spades_assembler__main&#45;&gt;BacterialTyper__scripts__spades_assembler__contig_stats -->
<g id="edge7" class="edge">
<title>BacterialTyper__scripts__spades_assembler__main&#45;&gt;BacterialTyper__scripts__spades_assembler__contig_stats</title>
<path fill="none" stroke="#000000" d="M381.1183,-181.3013C331.7903,-172.7981 226.032,-153.7121 138,-132 134.1306,-131.0457 130.1397,-130.0026 126.1385,-128.9148"/>
<polygon fill="#000000" stroke="#000000" points="126.8079,-125.4678 116.2346,-126.1439 124.9217,-132.2089 126.8079,-125.4678"/>
</g>
<!-- BacterialTyper__scripts__spades_assembler__main&#45;&gt;BacterialTyper__scripts__spades_assembler__discardPlasmids -->
<g id="edge6" class="edge">
<title>BacterialTyper__scripts__spades_assembler__main&#45;&gt;BacterialTyper__scripts__spades_assembler__discardPlasmids</title>
<path fill="none" stroke="#000000" d="M431.8007,-174.9078C453.9231,-164.1455 488.0196,-147.558 515.047,-134.4095"/>
<polygon fill="#000000" stroke="#000000" points="516.8197,-137.4394 524.2809,-129.9174 513.7574,-131.1448 516.8197,-137.4394"/>
</g>
<!-- BacterialTyper__scripts__spades_assembler__main&#45;&gt;BacterialTyper__scripts__spades_assembler__help_options -->
<g id="edge10" class="edge">
<title>BacterialTyper__scripts__spades_assembler__main&#45;&gt;BacterialTyper__scripts__spades_assembler__help_options</title>
<path fill="none" stroke="#000000" d="M410.5141,-167.8314C411.1558,-160.131 411.9188,-150.9743 412.6319,-142.4166"/>
<polygon fill="#000000" stroke="#000000" points="416.1229,-142.6694 413.4656,-132.4133 409.1471,-142.088 416.1229,-142.6694"/>
</g>
<!-- BacterialTyper__scripts__spades_assembler__run_SPADES_assembly -->
<g id="node7" class="node">
<title>BacterialTyper__scripts__spades_assembler__run_SPADES_assembly</title>
<ellipse fill="#ff6565" fill-opacity="0.698039" stroke="#000000" cx="244" cy="-114" rx="96.6831" ry="18"/>
<text text-anchor="middle" x="244" y="-110.3" font-family="Times,serif" font-size="14.00" fill="#000000">run_SPADES_assembly</text>
</g>
<!-- BacterialTyper__scripts__spades_assembler__main&#45;&gt;BacterialTyper__scripts__spades_assembler__run_SPADES_assembly -->
<g id="edge9" class="edge">
<title>BacterialTyper__scripts__spades_assembler__main&#45;&gt;BacterialTyper__scripts__spades_assembler__run_SPADES_assembly</title>
<path fill="none" stroke="#000000" d="M385.3595,-175.6842C360.9714,-165.0421 322.2645,-148.1518 291.5155,-134.734"/>
<polygon fill="#000000" stroke="#000000" points="292.818,-131.4838 282.2528,-130.6921 290.0184,-137.8995 292.818,-131.4838"/>
</g>
<!-- BacterialTyper__scripts__spades_assembler__run_SPADES_plasmid_assembly -->
<g id="node8" class="node">
<title>BacterialTyper__scripts__spades_assembler__run_SPADES_plasmid_assembly</title>
<ellipse fill="#ff6565" fill-opacity="0.698039" stroke="#000000" cx="773" cy="-114" rx="129.9769" ry="18"/>
<text text-anchor="middle" x="773" y="-110.3" font-family="Times,serif" font-size="14.00" fill="#000000">run_SPADES_plasmid_assembly</text>
</g>
<!-- BacterialTyper__scripts__spades_assembler__main&#45;&gt;BacterialTyper__scripts__spades_assembler__run_SPADES_plasmid_assembly -->
<g id="edge8" class="edge">
<title>BacterialTyper__scripts__spades_assembler__main&#45;&gt;BacterialTyper__scripts__spades_assembler__run_SPADES_plasmid_assembly</title>
<path fill="none" stroke="#000000" d="M430.8749,-174.0741C435.7464,-171.7842 440.963,-169.6036 446,-168 486.4861,-155.1106 589.0861,-139.1215 668.6606,-127.8986"/>
<polygon fill="#000000" stroke="#000000" points="669.3208,-131.3404 678.7378,-126.4854 668.3485,-124.4082 669.3208,-131.3404"/>
</g>
<!-- BacterialTyper__scripts__spades_assembler__run_SPADES_assembly&#45;&gt;BacterialTyper__scripts__spades_assembler__SPADES_systemCall -->
<g id="edge3" class="edge">
<title>BacterialTyper__scripts__spades_assembler__run_SPADES_assembly&#45;&gt;BacterialTyper__scripts__spades_assembler__SPADES_systemCall</title>
<path fill="none" stroke="#000000" d="M298.701,-99.0816C341.3858,-87.4402 400.7211,-71.2579 445.3184,-59.095"/>
<polygon fill="#000000" stroke="#000000" points="446.4439,-62.4159 455.1706,-56.408 444.602,-55.6626 446.4439,-62.4159"/>
</g>
<!-- BacterialTyper__scripts__spades_assembler__run_SPADES_plasmid_assembly&#45;&gt;BacterialTyper__scripts__spades_assembler__SPADES_systemCall -->
<g id="edge2" class="edge">
<title>BacterialTyper__scripts__spades_assembler__run_SPADES_plasmid_assembly&#45;&gt;BacterialTyper__scripts__spades_assembler__SPADES_systemCall</title>
<path fill="none" stroke="#000000" d="M713.8587,-97.9314C671.4031,-86.3963 614.2746,-70.8746 570.9708,-59.109"/>
<polygon fill="#000000" stroke="#000000" points="571.6843,-55.6761 561.1165,-56.4316 569.8489,-62.4312 571.6843,-55.6761"/>
</g>
<!-- BacterialTyper__scripts__spades_assembler__run_module_SPADES_old -->
<g id="node9" class="node">
<title>BacterialTyper__scripts__spades_assembler__run_module_SPADES_old</title>
<ellipse fill="#ff6565" fill-opacity="0.698039" stroke="#000000" cx="562" cy="-186" rx="106.6812" ry="18"/>
<text text-anchor="middle" x="562" y="-182.3" font-family="Times,serif" font-size="14.00" fill="#000000">run_module_SPADES_old</text>
</g>
<!-- BacterialTyper__scripts__spades_assembler__run_module_SPADES_old&#45;&gt;BacterialTyper__scripts__spades_assembler__discardPlasmids -->
<g id="edge11" class="edge">
<title>BacterialTyper__scripts__spades_assembler__run_module_SPADES_old&#45;&gt;BacterialTyper__scripts__spades_assembler__discardPlasmids</title>
<path fill="none" stroke="#000000" d="M560.7383,-167.8314C560.2035,-160.131 559.5677,-150.9743 558.9734,-142.4166"/>
<polygon fill="#000000" stroke="#000000" points="562.4632,-142.1467 558.2787,-132.4133 555.48,-142.6317 562.4632,-142.1467"/>
</g>
<!-- BacterialTyper__scripts__spades_assembler__run_module_SPADES_old&#45;&gt;BacterialTyper__scripts__spades_assembler__run_SPADES_assembly -->
<g id="edge12" class="edge">
<title>BacterialTyper__scripts__spades_assembler__run_module_SPADES_old&#45;&gt;BacterialTyper__scripts__spades_assembler__run_SPADES_assembly</title>
<path fill="none" stroke="#000000" d="M498.0305,-171.5163C445.2711,-159.5708 370.4619,-142.6329 315.689,-130.2315"/>
<polygon fill="#000000" stroke="#000000" points="316.2307,-126.7656 305.7047,-127.9709 314.6849,-133.5928 316.2307,-126.7656"/>
</g>
<!-- BacterialTyper__scripts__spades_assembler__run_module_SPADES_old&#45;&gt;BacterialTyper__scripts__spades_assembler__run_SPADES_plasmid_assembly -->
<g id="edge13" class="edge">
<title>BacterialTyper__scripts__spades_assembler__run_module_SPADES_old&#45;&gt;BacterialTyper__scripts__spades_assembler__run_SPADES_plasmid_assembly</title>
<path fill="none" stroke="#000000" d="M609.3525,-169.8418C640.4275,-159.238 681.2906,-145.2942 714.4094,-133.993"/>
<polygon fill="#000000" stroke="#000000" points="715.64,-137.2713 723.9738,-130.7293 713.3793,-130.6464 715.64,-137.2713"/>
</g>
<!-- BacterialTyper__scripts__spades_assembler__run_module_assembly -->
<g id="node10" class="node">
<title>BacterialTyper__scripts__spades_assembler__run_module_assembly</title>
<ellipse fill="#ff6565" fill-opacity="0.698039" stroke="#000000" cx="180" cy="-186" rx="90.9839" ry="18"/>
<text text-anchor="middle" x="180" y="-182.3" font-family="Times,serif" font-size="14.00" fill="#000000">run_module_assembly</text>
</g>
<!-- BacterialTyper__scripts__spades_assembler__run_module_assembly&#45;&gt;BacterialTyper__scripts__spades_assembler__contig_stats -->
<g id="edge4" class="edge">
<title>BacterialTyper__scripts__spades_assembler__run_module_assembly&#45;&gt;BacterialTyper__scripts__spades_assembler__contig_stats</title>
<path fill="none" stroke="#000000" d="M155.0666,-168.5708C141.1311,-158.8295 123.6219,-146.59 108.7187,-136.1723"/>
<polygon fill="#000000" stroke="#000000" points="110.4932,-133.1424 100.2919,-130.2817 106.4827,-138.8796 110.4932,-133.1424"/>
</g>
<!-- BacterialTyper__scripts__spades_assembler__run_module_assembly&#45;&gt;BacterialTyper__scripts__spades_assembler__run_SPADES_assembly -->
<g id="edge5" class="edge">
<title>BacterialTyper__scripts__spades_assembler__run_module_assembly&#45;&gt;BacterialTyper__scripts__spades_assembler__run_SPADES_assembly</title>
<path fill="none" stroke="#000000" d="M195.8202,-168.2022C203.5126,-159.5483 212.8978,-148.99 221.3344,-139.4988"/>
<polygon fill="#000000" stroke="#000000" points="224.1122,-141.6419 228.14,-131.8425 218.8803,-136.9914 224.1122,-141.6419"/>
</g>
</g>
</svg>
