<?xml version="1.0" encoding="UTF-8" standalone="no"?>
<!DOCTYPE svg PUBLIC "-//W3C//DTD SVG 1.1//EN"
 "http://www.w3.org/Graphics/SVG/1.1/DTD/svg11.dtd">
<!-- Generated by graphviz version 2.40.1 (20161225.0304)
 -->
<!-- Title: G Pages: 1 -->
<svg width="1345pt" height="342pt"
 viewBox="0.00 0.00 1345.00 342.00" xmlns="http://www.w3.org/2000/svg" xmlns:xlink="http://www.w3.org/1999/xlink">
<g id="graph0" class="graph" transform="scale(1 1) rotate(0) translate(4 338)">
<title>G</title>
<polygon fill="#ffffff" stroke="transparent" points="-4,4 -4,-338 1341,-338 1341,4 -4,4"/>
<g id="clust1" class="cluster">
<title>cluster_G</title>
<path fill="#808080" fill-opacity="0.094118" stroke="#000000" d="M20,-8C20,-8 1317,-8 1317,-8 1323,-8 1329,-14 1329,-20 1329,-20 1329,-314 1329,-314 1329,-320 1323,-326 1317,-326 1317,-326 20,-326 20,-326 14,-326 8,-320 8,-314 8,-314 8,-20 8,-20 8,-14 14,-8 20,-8"/>
</g>
<g id="clust2" class="cluster">
<title>cluster_BacterialTyper__scripts__functions</title>
<path fill="#808080" fill-opacity="0.094118" stroke="#000000" d="M28,-16C28,-16 1309,-16 1309,-16 1315,-16 1321,-22 1321,-28 1321,-28 1321,-79 1321,-79 1321,-85 1315,-91 1309,-91 1309,-91 28,-91 28,-91 22,-91 16,-85 16,-79 16,-79 16,-28 16,-28 16,-22 22,-16 28,-16"/>
<text text-anchor="middle" x="668.5" y="-75.8" font-family="Times,serif" font-size="14.00" fill="#000000">BacterialTyper.scripts.functions</text>
</g>
<g id="clust3" class="cluster">
<title>cluster_BacterialTyper__scripts__species_identification_KMA</title>
<path fill="#808080" fill-opacity="0.094118" stroke="#000000" d="M133,-99C133,-99 795,-99 795,-99 801,-99 807,-105 807,-111 807,-111 807,-306 807,-306 807,-312 801,-318 795,-318 795,-318 133,-318 133,-318 127,-318 121,-312 121,-306 121,-306 121,-111 121,-111 121,-105 127,-99 133,-99"/>
<text text-anchor="middle" x="464" y="-302.8" font-family="Times,serif" font-size="14.00" fill="#000000">BacterialTyper.scripts.species_identification_KMA</text>
</g>
<!-- BacterialTyper__scripts__functions__check_md5sum -->
<g id="node1" class="node">
<title>BacterialTyper__scripts__functions__check_md5sum</title>
<ellipse fill="#a365ff" fill-opacity="0.698039" stroke="#000000" cx="657" cy="-42" rx="66.8882" ry="18"/>
<text text-anchor="middle" x="657" y="-38.3" font-family="Times,serif" font-size="14.00" fill="#000000">check_md5sum</text>
</g>
<!-- BacterialTyper__scripts__functions__extract -->
<g id="node2" class="node">
<title>BacterialTyper__scripts__functions__extract</title>
<ellipse fill="#a365ff" fill-opacity="0.698039" stroke="#000000" cx="538" cy="-42" rx="34.394" ry="18"/>
<text text-anchor="middle" x="538" y="-38.3" font-family="Times,serif" font-size="14.00" fill="#000000">extract</text>
</g>
<!-- BacterialTyper__scripts__functions__get_number_lines -->
<g id="node3" class="node">
<title>BacterialTyper__scripts__functions__get_number_lines</title>
<ellipse fill="#a365ff" fill-opacity="0.698039" stroke="#000000" cx="260" cy="-42" rx="74.187" ry="18"/>
<text text-anchor="middle" x="260" y="-38.3" font-family="Times,serif" font-size="14.00" fill="#000000">get_number_lines</text>
</g>
<!-- BacterialTyper__scripts__functions__printList2file -->
<g id="node4" class="node">
<title>BacterialTyper__scripts__functions__printList2file</title>
<ellipse fill="#a365ff" fill-opacity="0.698039" stroke="#000000" cx="968" cy="-42" rx="57.3905" ry="18"/>
<text text-anchor="middle" x="968" y="-38.3" font-family="Times,serif" font-size="14.00" fill="#000000">printList2file</text>
</g>
<!-- BacterialTyper__scripts__functions__print_time_stamp -->
<g id="node5" class="node">
<title>BacterialTyper__scripts__functions__print_time_stamp</title>
<ellipse fill="#a365ff" fill-opacity="0.698039" stroke="#000000" cx="1240" cy="-42" rx="73.387" ry="18"/>
<text text-anchor="middle" x="1240" y="-38.3" font-family="Times,serif" font-size="14.00" fill="#000000">print_time_stamp</text>
</g>
<!-- BacterialTyper__scripts__functions__readList_fromFile -->
<g id="node6" class="node">
<title>BacterialTyper__scripts__functions__readList_fromFile</title>
<ellipse fill="#a365ff" fill-opacity="0.698039" stroke="#000000" cx="817" cy="-42" rx="75.2868" ry="18"/>
<text text-anchor="middle" x="817" y="-38.3" font-family="Times,serif" font-size="14.00" fill="#000000">readList_fromFile</text>
</g>
<!-- BacterialTyper__scripts__functions__read_time_stamp -->
<g id="node7" class="node">
<title>BacterialTyper__scripts__functions__read_time_stamp</title>
<ellipse fill="#a365ff" fill-opacity="0.698039" stroke="#000000" cx="96" cy="-42" rx="72.2875" ry="18"/>
<text text-anchor="middle" x="96" y="-38.3" font-family="Times,serif" font-size="14.00" fill="#000000">read_time_stamp</text>
</g>
<!-- BacterialTyper__scripts__functions__system_call -->
<g id="node8" class="node">
<title>BacterialTyper__scripts__functions__system_call</title>
<ellipse fill="#a365ff" fill-opacity="0.698039" stroke="#000000" cx="1096" cy="-42" rx="52.7911" ry="18"/>
<text text-anchor="middle" x="1096" y="-38.3" font-family="Times,serif" font-size="14.00" fill="#000000">system_call</text>
</g>
<!-- BacterialTyper__scripts__functions__wget_download -->
<g id="node9" class="node">
<title>BacterialTyper__scripts__functions__wget_download</title>
<ellipse fill="#a365ff" fill-opacity="0.698039" stroke="#000000" cx="419" cy="-42" rx="66.8882" ry="18"/>
<text text-anchor="middle" x="419" y="-38.3" font-family="Times,serif" font-size="14.00" fill="#000000">wget_download</text>
</g>
<!-- BacterialTyper__scripts__species_identification_KMA__check_db_indexed -->
<g id="node10" class="node">
<title>BacterialTyper__scripts__species_identification_KMA__check_db_indexed</title>
<ellipse fill="#ff65cb" fill-opacity="0.698039" stroke="#000000" cx="516" cy="-125" rx="76.8869" ry="18"/>
<text text-anchor="middle" x="516" y="-121.3" font-family="Times,serif" font-size="14.00" fill="#000000">check_db_indexed</text>
</g>
<!-- BacterialTyper__scripts__species_identification_KMA__check_db_indexed&#45;&gt;BacterialTyper__scripts__functions__get_number_lines -->
<g id="edge7" class="edge">
<title>BacterialTyper__scripts__species_identification_KMA__check_db_indexed&#45;&gt;BacterialTyper__scripts__functions__get_number_lines</title>
<path fill="none" stroke="#000000" d="M447.1452,-116.9485C414.8162,-111.7954 376.1844,-103.6303 343,-91 325.5161,-84.3454 307.4737,-74.1582 292.6951,-64.7928"/>
<polygon fill="#000000" stroke="#000000" points="294.2408,-61.6231 283.9492,-59.1066 290.4253,-67.4918 294.2408,-61.6231"/>
</g>
<!-- BacterialTyper__scripts__species_identification_KMA__check_db_indexed&#45;&gt;BacterialTyper__scripts__functions__readList_fromFile -->
<g id="edge6" class="edge">
<title>BacterialTyper__scripts__species_identification_KMA__check_db_indexed&#45;&gt;BacterialTyper__scripts__functions__readList_fromFile</title>
<path fill="none" stroke="#000000" d="M590.0091,-120.2685C632.7621,-115.858 687.0121,-107.358 733,-91 751.0841,-84.5674 769.6725,-74.1845 784.7507,-64.6285"/>
<polygon fill="#000000" stroke="#000000" points="786.7209,-67.5223 793.1926,-59.1337 782.9023,-61.6555 786.7209,-67.5223"/>
</g>
<!-- BacterialTyper__scripts__species_identification_KMA__check_db_indexed&#45;&gt;BacterialTyper__scripts__functions__read_time_stamp -->
<g id="edge8" class="edge">
<title>BacterialTyper__scripts__species_identification_KMA__check_db_indexed&#45;&gt;BacterialTyper__scripts__functions__read_time_stamp</title>
<path fill="none" stroke="#000000" d="M440.8294,-121.3263C356.1804,-116.5105 224.2722,-106.7706 177,-91 159.3119,-85.099 141.3929,-74.8045 126.9216,-65.1697"/>
<polygon fill="#000000" stroke="#000000" points="128.6123,-62.0846 118.3897,-59.3011 124.6453,-67.852 128.6123,-62.0846"/>
</g>
<!-- BacterialTyper__scripts__species_identification_KMA__download_kma_database -->
<g id="node11" class="node">
<title>BacterialTyper__scripts__species_identification_KMA__download_kma_database</title>
<ellipse fill="#ff65cb" fill-opacity="0.698039" stroke="#000000" cx="699" cy="-197" rx="100.1823" ry="18"/>
<text text-anchor="middle" x="699" y="-193.3" font-family="Times,serif" font-size="14.00" fill="#000000">download_kma_database</text>
</g>
<!-- BacterialTyper__scripts__species_identification_KMA__download_kma_database&#45;&gt;BacterialTyper__scripts__functions__check_md5sum -->
<g id="edge4" class="edge">
<title>BacterialTyper__scripts__species_identification_KMA__download_kma_database&#45;&gt;BacterialTyper__scripts__functions__check_md5sum</title>
<path fill="none" stroke="#000000" d="M694.0999,-178.9162C686.8288,-152.0826 673.1224,-101.4994 664.5591,-69.8967"/>
<polygon fill="#000000" stroke="#000000" points="667.8625,-68.7052 661.8689,-59.9686 661.1062,-70.536 667.8625,-68.7052"/>
</g>
<!-- BacterialTyper__scripts__species_identification_KMA__download_kma_database&#45;&gt;BacterialTyper__scripts__functions__extract -->
<g id="edge2" class="edge">
<title>BacterialTyper__scripts__species_identification_KMA__download_kma_database&#45;&gt;BacterialTyper__scripts__functions__extract</title>
<path fill="none" stroke="#000000" d="M689.6527,-178.9798C677.0118,-156.5126 652.2839,-118.6749 620,-99 604.8906,-89.7918 596.2986,-99.8904 581,-91 570.9146,-85.1392 561.9804,-76.0556 554.9051,-67.294"/>
<polygon fill="#000000" stroke="#000000" points="557.5379,-64.9728 548.7143,-59.1081 551.9548,-69.1952 557.5379,-64.9728"/>
</g>
<!-- BacterialTyper__scripts__species_identification_KMA__download_kma_database&#45;&gt;BacterialTyper__scripts__functions__print_time_stamp -->
<g id="edge3" class="edge">
<title>BacterialTyper__scripts__species_identification_KMA__download_kma_database&#45;&gt;BacterialTyper__scripts__functions__print_time_stamp</title>
<path fill="none" stroke="#000000" d="M779.2422,-186.2275C872.7003,-171.9328 1030.5456,-142.3199 1158,-91 1175.0713,-84.1262 1192.7504,-74.0046 1207.3027,-64.7424"/>
<polygon fill="#000000" stroke="#000000" points="1209.4587,-67.5151 1215.9261,-59.1232 1205.637,-61.6503 1209.4587,-67.5151"/>
</g>
<!-- BacterialTyper__scripts__species_identification_KMA__download_kma_database&#45;&gt;BacterialTyper__scripts__functions__wget_download -->
<g id="edge1" class="edge">
<title>BacterialTyper__scripts__species_identification_KMA__download_kma_database&#45;&gt;BacterialTyper__scripts__functions__wget_download</title>
<path fill="none" stroke="#000000" d="M665.2273,-179.8983C649.7699,-170.6955 632.2185,-158.117 620,-143 606.7184,-126.5677 619.0905,-111.4231 602,-99 582.713,-84.9802 517.6062,-98.5831 495,-91 478.1508,-85.3481 461.342,-75.1132 447.8325,-65.4538"/>
<polygon fill="#000000" stroke="#000000" points="449.58,-62.3922 439.464,-59.2432 445.4083,-68.0133 449.58,-62.3922"/>
</g>
<!-- BacterialTyper__scripts__species_identification_KMA__download_kma_database&#45;&gt;BacterialTyper__scripts__species_identification_KMA__check_db_indexed -->
<g id="edge5" class="edge">
<title>BacterialTyper__scripts__species_identification_KMA__download_kma_database&#45;&gt;BacterialTyper__scripts__species_identification_KMA__check_db_indexed</title>
<path fill="none" stroke="#000000" d="M657.0161,-180.4817C629.6172,-169.7018 593.7416,-155.5869 565.0332,-144.2918"/>
<polygon fill="#000000" stroke="#000000" points="566.1818,-140.9826 555.5947,-140.5782 563.6189,-147.4965 566.1818,-140.9826"/>
</g>
<!-- BacterialTyper__scripts__species_identification_KMA__generate_db -->
<g id="node12" class="node">
<title>BacterialTyper__scripts__species_identification_KMA__generate_db</title>
<ellipse fill="#ff65cb" fill-opacity="0.698039" stroke="#000000" cx="516" cy="-269" rx="53.8905" ry="18"/>
<text text-anchor="middle" x="516" y="-265.3" font-family="Times,serif" font-size="14.00" fill="#000000">generate_db</text>
</g>
<!-- BacterialTyper__scripts__species_identification_KMA__generate_db&#45;&gt;BacterialTyper__scripts__functions__printList2file -->
<g id="edge13" class="edge">
<title>BacterialTyper__scripts__species_identification_KMA__generate_db&#45;&gt;BacterialTyper__scripts__functions__printList2file</title>
<path fill="none" stroke="#000000" d="M565.9429,-262.0877C646.9404,-250.5952 800.1422,-227.5805 822,-215 883.6489,-179.5174 931.1037,-107.7345 953.62,-68.715"/>
<polygon fill="#000000" stroke="#000000" points="956.6736,-70.4255 958.549,-59.9979 950.5802,-66.98 956.6736,-70.4255"/>
</g>
<!-- BacterialTyper__scripts__species_identification_KMA__generate_db&#45;&gt;BacterialTyper__scripts__functions__readList_fromFile -->
<g id="edge12" class="edge">
<title>BacterialTyper__scripts__species_identification_KMA__generate_db&#45;&gt;BacterialTyper__scripts__functions__readList_fromFile</title>
<path fill="none" stroke="#000000" d="M566.9732,-263.0195C646.3943,-253.1988 792.2574,-232.9508 808,-215 843.0738,-175.0064 833.9786,-107.6952 825.0049,-69.9048"/>
<polygon fill="#000000" stroke="#000000" points="828.3635,-68.9097 822.5139,-60.0761 821.578,-70.6295 828.3635,-68.9097"/>
</g>
<!-- BacterialTyper__scripts__species_identification_KMA__generate_db&#45;&gt;BacterialTyper__scripts__species_identification_KMA__check_db_indexed -->
<g id="edge14" class="edge">
<title>BacterialTyper__scripts__species_identification_KMA__generate_db&#45;&gt;BacterialTyper__scripts__species_identification_KMA__check_db_indexed</title>
<path fill="none" stroke="#000000" d="M483.626,-254.3207C468.0091,-245.3723 450.7908,-232.2974 442,-215 434.751,-200.7363 434.751,-193.2637 442,-179 448.668,-165.8796 460.1847,-155.1887 472.1734,-146.8852"/>
<polygon fill="#000000" stroke="#000000" points="474.4045,-149.6118 480.924,-141.2603 470.6194,-143.7234 474.4045,-149.6118"/>
</g>
<!-- BacterialTyper__scripts__species_identification_KMA__index_database -->
<g id="node14" class="node">
<title>BacterialTyper__scripts__species_identification_KMA__index_database</title>
<ellipse fill="#ff65cb" fill-opacity="0.698039" stroke="#000000" cx="516" cy="-197" rx="64.9885" ry="18"/>
<text text-anchor="middle" x="516" y="-193.3" font-family="Times,serif" font-size="14.00" fill="#000000">index_database</text>
</g>
<!-- BacterialTyper__scripts__species_identification_KMA__generate_db&#45;&gt;BacterialTyper__scripts__species_identification_KMA__index_database -->
<g id="edge11" class="edge">
<title>BacterialTyper__scripts__species_identification_KMA__generate_db&#45;&gt;BacterialTyper__scripts__species_identification_KMA__index_database</title>
<path fill="none" stroke="#000000" d="M516,-250.8314C516,-243.131 516,-233.9743 516,-225.4166"/>
<polygon fill="#000000" stroke="#000000" points="519.5001,-225.4132 516,-215.4133 512.5001,-225.4133 519.5001,-225.4132"/>
</g>
<!-- BacterialTyper__scripts__species_identification_KMA__help_options -->
<g id="node13" class="node">
<title>BacterialTyper__scripts__species_identification_KMA__help_options</title>
<ellipse fill="#ff65cb" fill-opacity="0.698039" stroke="#000000" cx="357" cy="-197" rx="55.7903" ry="18"/>
<text text-anchor="middle" x="357" y="-193.3" font-family="Times,serif" font-size="14.00" fill="#000000">help_options</text>
</g>
<!-- BacterialTyper__scripts__species_identification_KMA__index_database&#45;&gt;BacterialTyper__scripts__functions__system_call -->
<g id="edge9" class="edge">
<title>BacterialTyper__scripts__species_identification_KMA__index_database&#45;&gt;BacterialTyper__scripts__functions__system_call</title>
<path fill="none" stroke="#000000" d="M564.4932,-184.8888C572.9801,-182.8595 581.7367,-180.823 590,-179 590.7674,-178.8307 1033.2864,-91.3292 1034,-91 1047.5012,-84.7715 1060.6827,-75.0349 1071.3954,-65.8767"/>
<polygon fill="#000000" stroke="#000000" points="1073.9222,-68.3136 1079.0708,-59.0538 1069.2715,-63.0818 1073.9222,-68.3136"/>
</g>
<!-- BacterialTyper__scripts__species_identification_KMA__index_database&#45;&gt;BacterialTyper__scripts__species_identification_KMA__check_db_indexed -->
<g id="edge10" class="edge">
<title>BacterialTyper__scripts__species_identification_KMA__index_database&#45;&gt;BacterialTyper__scripts__species_identification_KMA__check_db_indexed</title>
<path fill="none" stroke="#000000" d="M516,-178.8314C516,-171.131 516,-161.9743 516,-153.4166"/>
<polygon fill="#000000" stroke="#000000" points="519.5001,-153.4132 516,-143.4133 512.5001,-153.4133 519.5001,-153.4132"/>
</g>
<!-- BacterialTyper__scripts__species_identification_KMA__kma_ident_call -->
<g id="node15" class="node">
<title>BacterialTyper__scripts__species_identification_KMA__kma_ident_call</title>
<ellipse fill="#ff65cb" fill-opacity="0.698039" stroke="#000000" cx="733" cy="-269" rx="65.7887" ry="18"/>
<text text-anchor="middle" x="733" y="-265.3" font-family="Times,serif" font-size="14.00" fill="#000000">kma_ident_call</text>
</g>
<!-- BacterialTyper__scripts__species_identification_KMA__kma_ident_call&#45;&gt;BacterialTyper__scripts__functions__print_time_stamp -->
<g id="edge16" class="edge">
<title>BacterialTyper__scripts__species_identification_KMA__kma_ident_call&#45;&gt;BacterialTyper__scripts__functions__print_time_stamp</title>
<path fill="none" stroke="#000000" d="M787.031,-258.6009C828.859,-249.627 887.7667,-234.9529 937,-215 1041.3807,-172.6974 1060.5394,-147.4471 1158,-91 1172.9508,-82.3408 1189.3131,-72.6145 1203.462,-64.1236"/>
<polygon fill="#000000" stroke="#000000" points="1205.6377,-66.8994 1212.4032,-58.746 1202.0298,-60.9008 1205.6377,-66.8994"/>
</g>
<!-- BacterialTyper__scripts__species_identification_KMA__kma_ident_call&#45;&gt;BacterialTyper__scripts__functions__system_call -->
<g id="edge15" class="edge">
<title>BacterialTyper__scripts__species_identification_KMA__kma_ident_call&#45;&gt;BacterialTyper__scripts__functions__system_call</title>
<path fill="none" stroke="#000000" d="M787.1984,-258.8215C823.1156,-250.5412 870.3702,-236.6247 908,-215 977.7188,-174.9347 1042.9738,-104.8567 1075.1237,-67.3661"/>
<polygon fill="#000000" stroke="#000000" points="1078.0411,-69.3373 1081.8378,-59.4461 1072.7015,-64.8107 1078.0411,-69.3373"/>
</g>
<!-- BacterialTyper__scripts__species_identification_KMA__main -->
<g id="node16" class="node">
<title>BacterialTyper__scripts__species_identification_KMA__main</title>
<ellipse fill="#ff65cb" fill-opacity="0.698039" stroke="#000000" cx="281" cy="-269" rx="28.6953" ry="18"/>
<text text-anchor="middle" x="281" y="-265.3" font-family="Times,serif" font-size="14.00" fill="#000000">main</text>
</g>
<!-- BacterialTyper__scripts__species_identification_KMA__main&#45;&gt;BacterialTyper__scripts__species_identification_KMA__help_options -->
<g id="edge17" class="edge">
<title>BacterialTyper__scripts__species_identification_KMA__main&#45;&gt;BacterialTyper__scripts__species_identification_KMA__help_options</title>
<path fill="none" stroke="#000000" d="M297.1176,-253.7307C307.0304,-244.3396 319.9568,-232.0936 331.2616,-221.3838"/>
<polygon fill="#000000" stroke="#000000" points="333.9195,-223.687 338.7719,-214.2687 329.1053,-218.6053 333.9195,-223.687"/>
</g>
<!-- BacterialTyper__scripts__species_identification_KMA__parse_kma_results -->
<g id="node17" class="node">
<title>BacterialTyper__scripts__species_identification_KMA__parse_kma_results</title>
<ellipse fill="#ff65cb" fill-opacity="0.698039" stroke="#000000" cx="206" cy="-197" rx="76.8869" ry="18"/>
<text text-anchor="middle" x="206" y="-193.3" font-family="Times,serif" font-size="14.00" fill="#000000">parse_kma_results</text>
</g>
<!-- BacterialTyper__scripts__species_identification_KMA__main&#45;&gt;BacterialTyper__scripts__species_identification_KMA__parse_kma_results -->
<g id="edge18" class="edge">
<title>BacterialTyper__scripts__species_identification_KMA__main&#45;&gt;BacterialTyper__scripts__species_identification_KMA__parse_kma_results</title>
<path fill="none" stroke="#000000" d="M265.0944,-253.7307C255.382,-244.4067 242.7379,-232.2684 231.6391,-221.6135"/>
<polygon fill="#000000" stroke="#000000" points="233.8949,-218.9273 224.2571,-214.5269 229.0472,-223.9771 233.8949,-218.9273"/>
</g>
</g>
</svg>
