<?xml version="1.0" encoding="UTF-8" standalone="no"?>
<!DOCTYPE svg PUBLIC "-//W3C//DTD SVG 1.1//EN"
 "http://www.w3.org/Graphics/SVG/1.1/DTD/svg11.dtd">
<!-- Generated by graphviz version 2.40.1 (20161225.0304)
 -->
<!-- Title: G Pages: 1 -->
<svg width="1345pt" height="342pt"
 viewBox="0.00 0.00 1345.00 342.00" xmlns="http://www.w3.org/2000/svg" xmlns:xlink="http://www.w3.org/1999/xlink">
<g id="graph0" class="graph" transform="scale(1 1) rotate(0) translate(4 338)">
<title>G</title>
<polygon fill="#ffffff" stroke="transparent" points="-4,4 -4,-338 1341,-338 1341,4 -4,4"/>
<g id="clust1" class="cluster">
<title>cluster_G</title>
<path fill="#808080" fill-opacity="0.094118" stroke="#000000" d="M20,-8C20,-8 1317,-8 1317,-8 1323,-8 1329,-14 1329,-20 1329,-20 1329,-314 1329,-314 1329,-320 1323,-326 1317,-326 1317,-326 20,-326 20,-326 14,-326 8,-320 8,-314 8,-314 8,-20 8,-20 8,-14 14,-8 20,-8"/>
</g>
<g id="clust2" class="cluster">
<title>cluster_BacterialTyper__scripts__functions</title>
<path fill="#808080" fill-opacity="0.094118" stroke="#000000" d="M28,-16C28,-16 1309,-16 1309,-16 1315,-16 1321,-22 1321,-28 1321,-28 1321,-79 1321,-79 1321,-85 1315,-91 1309,-91 1309,-91 28,-91 28,-91 22,-91 16,-85 16,-79 16,-79 16,-28 16,-28 16,-22 22,-16 28,-16"/>
<text text-anchor="middle" x="668.5" y="-75.8" font-family="Times,serif" font-size="14.00" fill="#000000">BacterialTyper.scripts.functions</text>
</g>
<g id="clust3" class="cluster">
<title>cluster_BacterialTyper__scripts__species_identification_KMA</title>
<path fill="#808080" fill-opacity="0.094118" stroke="#000000" d="M133,-99C133,-99 795,-99 795,-99 801,-99 807,-105 807,-111 807,-111 807,-306 807,-306 807,-312 801,-318 795,-318 795,-318 133,-318 133,-318 127,-318 121,-312 121,-306 121,-306 121,-111 121,-111 121,-105 127,-99 133,-99"/>
<text text-anchor="middle" x="464" y="-302.8" font-family="Times,serif" font-size="14.00" fill="#000000">BacterialTyper.scripts.species_identification_KMA</text>
</g>
<!-- BacterialTyper__scripts__functions__check_md5sum -->
<g id="node1" class="node">
<title>BacterialTyper__scripts__functions__check_md5sum</title>
<ellipse fill="#a365ff" fill-opacity="0.698039" stroke="#000000" cx="657" cy="-42" rx="66.8882" ry="18"/>
<text text-anchor="middle" x="657" y="-38.3" font-family="Times,serif" font-size="14.00" fill="#000000">check_md5sum</text>
</g>
<!-- BacterialTyper__scripts__functions__extract -->
<g id="node2" class="node">
<title>BacterialTyper__scripts__functions__extract</title>
<ellipse fill="#a365ff" fill-opacity="0.698039" stroke="#000000" cx="538" cy="-42" rx="34.394" ry="18"/>
<text text-anchor="middle" x="538" y="-38.3" font-family="Times,serif" font-size="14.00" fill="#000000">extract</text>
</g>
<!-- BacterialTyper__scripts__functions__get_number_lines -->
<g id="node3" class="node">
<title>BacterialTyper__scripts__functions__get_number_lines</title>
<ellipse fill="#a365ff" fill-opacity="0.698039" stroke="#000000" cx="260" cy="-42" rx="74.187" ry="18"/>
<text text-anchor="middle" x="260" y="-38.3" font-family="Times,serif" font-size="14.00" fill="#000000">get_number_lines</text>
</g>
<!-- BacterialTyper__scripts__functions__printList2file -->
<g id="node4" class="node">
<title>BacterialTyper__scripts__functions__printList2file</title>
<ellipse fill="#a365ff" fill-opacity="0.698039" stroke="#000000" cx="968" cy="-42" rx="57.3905" ry="18"/>
<text text-anchor="middle" x="968" y="-38.3" font-family="Times,serif" font-size="14.00" fill="#000000">printList2file</text>
</g>
<!-- BacterialTyper__scripts__functions__print_time_stamp -->
<g id="node5" class="node">
<title>BacterialTyper__scripts__functions__print_time_stamp</title>
<ellipse fill="#a365ff" fill-opacity="0.698039" stroke="#000000" cx="1240" cy="-42" rx="73.387" ry="18"/>
<text text-anchor="middle" x="1240" y="-38.3" font-family="Times,serif" font-size="14.00" fill="#000000">print_time_stamp</text>
</g>
<!-- BacterialTyper__scripts__functions__readList_fromFile -->
<g id="node6" class="node">
<title>BacterialTyper__scripts__functions__readList_fromFile</title>
<ellipse fill="#a365ff" fill-opacity="0.698039" stroke="#000000" cx="817" cy="-42" rx="75.2868" ry="18"/>
<text text-anchor="middle" x="817" y="-38.3" font-family="Times,serif" font-size="14.00" fill="#000000">readList_fromFile</text>
</g>
<!-- BacterialTyper__scripts__functions__read_time_stamp -->
<g id="node7" class="node">
<title>BacterialTyper__scripts__functions__read_time_stamp</title>
<ellipse fill="#a365ff" fill-opacity="0.698039" stroke="#000000" cx="96" cy="-42" rx="72.2875" ry="18"/>
<text text-anchor="middle" x="96" y="-38.3" font-family="Times,serif" font-size="14.00" fill="#000000">read_time_stamp</text>
</g>
<!-- BacterialTyper__scripts__functions__system_call -->
<g id="node8" class="node">
<title>BacterialTyper__scripts__functions__system_call</title>
<ellipse fill="#a365ff" fill-opacity="0.698039" stroke="#000000" cx="1096" cy="-42" rx="52.7911" ry="18"/>
<text text-anchor="middle" x="1096" y="-38.3" font-family="Times,serif" font-size="14.00" fill="#000000">system_call</text>
</g>
<!-- BacterialTyper__scripts__functions__wget_download -->
<g id="node9" class="node">
<title>BacterialTyper__scripts__functions__wget_download</title>
<ellipse fill="#a365ff" fill-opacity="0.698039" stroke="#000000" cx="419" cy="-42" rx="66.8882" ry="18"/>
<text text-anchor="middle" x="419" y="-38.3" font-family="Times,serif" font-size="14.00" fill="#000000">wget_download</text>
</g>
<!-- BacterialTyper__scripts__species_identification_KMA__check_db_indexed -->
<g id="node10" class="node">
<title>BacterialTyper__scripts__species_identification_KMA__check_db_indexed</title>
<ellipse fill="#ff65cb" fill-opacity="0.698039" stroke="#000000" cx="516" cy="-125" rx="76.8869" ry="18"/>
<text text-anchor="middle" x="516" y="-121.3" font-family="Times,serif" font-size="14.00" fill="#000000">check_db_indexed</text>
</g>
<!-- BacterialTyper__scripts__species_identification_KMA__check_db_indexed&#45;&gt;BacterialTyper__scripts__functions__get_number_lines -->
<g id="edge6" class="edge">
<title>BacterialTyper__scripts__species_identification_KMA__check_db_indexed&#45;&gt;BacterialTyper__scripts__functions__get_number_lines</title>
<path fill="none" stroke="#000000" d="M443.5306,-119C386.8547,-119 317.5992,-119 317.5992,-119 317.5992,-119 317.5992,-63.3616 317.5992,-63.3616"/>
<polygon fill="#000000" stroke="#000000" points="321.0993,-63.3616 317.5992,-53.3616 314.0993,-63.3617 321.0993,-63.3616"/>
</g>
<!-- BacterialTyper__scripts__species_identification_KMA__check_db_indexed&#45;&gt;BacterialTyper__scripts__functions__readList_fromFile -->
<g id="edge8" class="edge">
<title>BacterialTyper__scripts__species_identification_KMA__check_db_indexed&#45;&gt;BacterialTyper__scripts__functions__readList_fromFile</title>
<path fill="none" stroke="#000000" d="M593.0033,-125C667.8648,-125 770.3489,-125 770.3489,-125 770.3489,-125 770.3489,-66.4575 770.3489,-66.4575"/>
<polygon fill="#000000" stroke="#000000" points="773.849,-66.4575 770.3489,-56.4575 766.849,-66.4575 773.849,-66.4575"/>
</g>
<!-- BacterialTyper__scripts__species_identification_KMA__check_db_indexed&#45;&gt;BacterialTyper__scripts__functions__read_time_stamp -->
<g id="edge7" class="edge">
<title>BacterialTyper__scripts__species_identification_KMA__check_db_indexed&#45;&gt;BacterialTyper__scripts__functions__read_time_stamp</title>
<path fill="none" stroke="#000000" d="M443.4383,-131C336.4032,-131 148.7252,-131 148.7252,-131 148.7252,-131 148.7252,-64.3751 148.7252,-64.3751"/>
<polygon fill="#000000" stroke="#000000" points="152.2251,-64.3751 148.7252,-54.3751 145.2251,-64.375 152.2251,-64.3751"/>
</g>
<!-- BacterialTyper__scripts__species_identification_KMA__download_kma_database -->
<g id="node11" class="node">
<title>BacterialTyper__scripts__species_identification_KMA__download_kma_database</title>
<ellipse fill="#ff65cb" fill-opacity="0.698039" stroke="#000000" cx="699" cy="-197" rx="100.1823" ry="18"/>
<text text-anchor="middle" x="699" y="-193.3" font-family="Times,serif" font-size="14.00" fill="#000000">download_kma_database</text>
</g>
<!-- BacterialTyper__scripts__species_identification_KMA__download_kma_database&#45;&gt;BacterialTyper__scripts__functions__check_md5sum -->
<g id="edge4" class="edge">
<title>BacterialTyper__scripts__species_identification_KMA__download_kma_database&#45;&gt;BacterialTyper__scripts__functions__check_md5sum</title>
<path fill="none" stroke="#000000" d="M692.6853,-178.9162C692.6853,-178.9162 692.6853,-67.6434 692.6853,-67.6434"/>
<polygon fill="#000000" stroke="#000000" points="696.1854,-67.6433 692.6853,-57.6434 689.1854,-67.6434 696.1854,-67.6433"/>
</g>
<!-- BacterialTyper__scripts__species_identification_KMA__download_kma_database&#45;&gt;BacterialTyper__scripts__functions__extract -->
<g id="edge2" class="edge">
<title>BacterialTyper__scripts__species_identification_KMA__download_kma_database&#45;&gt;BacterialTyper__scripts__functions__extract</title>
<path fill="none" stroke="#000000" d="M661.4265,-180.2922C661.4265,-146.8795 661.4265,-75 661.4265,-75 661.4265,-75 538,-75 538,-75 538,-75 538,-70.0449 538,-70.0449"/>
<polygon fill="#000000" stroke="#000000" points="541.5001,-70.0448 538,-60.0449 534.5001,-70.0449 541.5001,-70.0448"/>
</g>
<!-- BacterialTyper__scripts__species_identification_KMA__download_kma_database&#45;&gt;BacterialTyper__scripts__functions__print_time_stamp -->
<g id="edge3" class="edge">
<title>BacterialTyper__scripts__species_identification_KMA__download_kma_database&#45;&gt;BacterialTyper__scripts__functions__print_time_stamp</title>
<path fill="none" stroke="#000000" d="M799.2025,-197C949.409,-197 1215.5188,-197 1215.5188,-197 1215.5188,-197 1215.5188,-69.1799 1215.5188,-69.1799"/>
<polygon fill="#000000" stroke="#000000" points="1219.0189,-69.1799 1215.5188,-59.1799 1212.0189,-69.18 1219.0189,-69.1799"/>
</g>
<!-- BacterialTyper__scripts__species_identification_KMA__download_kma_database&#45;&gt;BacterialTyper__scripts__functions__wget_download -->
<g id="edge1" class="edge">
<title>BacterialTyper__scripts__species_identification_KMA__download_kma_database&#45;&gt;BacterialTyper__scripts__functions__wget_download</title>
<path fill="none" stroke="#000000" d="M630.1677,-183.575C630.1677,-155.0519 630.1677,-91 630.1677,-91 630.1677,-91 462.6254,-91 462.6254,-91 462.6254,-91 462.6254,-65.9104 462.6254,-65.9104"/>
<polygon fill="#000000" stroke="#000000" points="466.1255,-65.9103 462.6254,-55.9104 459.1255,-65.9104 466.1255,-65.9103"/>
</g>
<!-- BacterialTyper__scripts__species_identification_KMA__download_kma_database&#45;&gt;BacterialTyper__scripts__species_identification_KMA__check_db_indexed -->
<g id="edge5" class="edge">
<title>BacterialTyper__scripts__species_identification_KMA__download_kma_database&#45;&gt;BacterialTyper__scripts__species_identification_KMA__check_db_indexed</title>
<path fill="none" stroke="#000000" d="M598.5736,-197C592.5082,-197 588.7935,-197 588.7935,-197 588.7935,-197 588.7935,-141.1387 588.7935,-141.1387"/>
<polygon fill="#000000" stroke="#000000" points="592.2936,-141.1386 588.7935,-131.1387 585.2936,-141.1387 592.2936,-141.1386"/>
</g>
<!-- BacterialTyper__scripts__species_identification_KMA__generate_db -->
<g id="node12" class="node">
<title>BacterialTyper__scripts__species_identification_KMA__generate_db</title>
<ellipse fill="#ff65cb" fill-opacity="0.698039" stroke="#000000" cx="516" cy="-269" rx="53.8905" ry="18"/>
<text text-anchor="middle" x="516" y="-265.3" font-family="Times,serif" font-size="14.00" fill="#000000">generate_db</text>
</g>
<!-- BacterialTyper__scripts__species_identification_KMA__generate_db&#45;&gt;BacterialTyper__scripts__functions__printList2file -->
<g id="edge11" class="edge">
<title>BacterialTyper__scripts__species_identification_KMA__generate_db&#45;&gt;BacterialTyper__scripts__functions__printList2file</title>
<path fill="none" stroke="#000000" d="M542.9726,-253.2971C542.9726,-246.0386 542.9726,-239 542.9726,-239 542.9726,-239 968,-239 968,-239 968,-239 968,-70.1802 968,-70.1802"/>
<polygon fill="#000000" stroke="#000000" points="971.5001,-70.1801 968,-60.1802 964.5001,-70.1802 971.5001,-70.1801"/>
</g>
<!-- BacterialTyper__scripts__species_identification_KMA__generate_db&#45;&gt;BacterialTyper__scripts__functions__readList_fromFile -->
<g id="edge13" class="edge">
<title>BacterialTyper__scripts__species_identification_KMA__generate_db&#45;&gt;BacterialTyper__scripts__functions__readList_fromFile</title>
<path fill="none" stroke="#000000" d="M516,-250.9445C516,-239.561 516,-227 516,-227 516,-227 845.7422,-227 845.7422,-227 845.7422,-227 845.7422,-68.7438 845.7422,-68.7438"/>
<polygon fill="#000000" stroke="#000000" points="849.2423,-68.7438 845.7422,-58.7438 842.2423,-68.7438 849.2423,-68.7438"/>
</g>
<!-- BacterialTyper__scripts__species_identification_KMA__generate_db&#45;&gt;BacterialTyper__scripts__species_identification_KMA__check_db_indexed -->
<g id="edge14" class="edge">
<title>BacterialTyper__scripts__species_identification_KMA__generate_db&#45;&gt;BacterialTyper__scripts__species_identification_KMA__check_db_indexed</title>
<path fill="none" stroke="#000000" d="M570.2833,-269C578.8219,-269 584.8939,-269 584.8939,-269 584.8939,-269 584.8939,-143.1547 584.8939,-143.1547"/>
<polygon fill="#000000" stroke="#000000" points="588.394,-143.1546 584.8939,-133.1547 581.394,-143.1547 588.394,-143.1546"/>
</g>
<!-- BacterialTyper__scripts__species_identification_KMA__index_database -->
<g id="node14" class="node">
<title>BacterialTyper__scripts__species_identification_KMA__index_database</title>
<ellipse fill="#ff65cb" fill-opacity="0.698039" stroke="#000000" cx="516" cy="-197" rx="64.9885" ry="18"/>
<text text-anchor="middle" x="516" y="-193.3" font-family="Times,serif" font-size="14.00" fill="#000000">index_database</text>
</g>
<!-- BacterialTyper__scripts__species_identification_KMA__generate_db&#45;&gt;BacterialTyper__scripts__species_identification_KMA__index_database -->
<g id="edge12" class="edge">
<title>BacterialTyper__scripts__species_identification_KMA__generate_db&#45;&gt;BacterialTyper__scripts__species_identification_KMA__index_database</title>
<path fill="none" stroke="#000000" d="M489.0274,-253.3771C489.0274,-253.3771 489.0274,-223.5945 489.0274,-223.5945"/>
<polygon fill="#000000" stroke="#000000" points="492.5275,-223.5945 489.0274,-213.5945 485.5275,-223.5946 492.5275,-223.5945"/>
</g>
<!-- BacterialTyper__scripts__species_identification_KMA__help_options -->
<g id="node13" class="node">
<title>BacterialTyper__scripts__species_identification_KMA__help_options</title>
<ellipse fill="#ff65cb" fill-opacity="0.698039" stroke="#000000" cx="357" cy="-197" rx="55.7903" ry="18"/>
<text text-anchor="middle" x="357" y="-193.3" font-family="Times,serif" font-size="14.00" fill="#000000">help_options</text>
</g>
<!-- BacterialTyper__scripts__species_identification_KMA__index_database&#45;&gt;BacterialTyper__scripts__functions__system_call -->
<g id="edge9" class="edge">
<title>BacterialTyper__scripts__species_identification_KMA__index_database&#45;&gt;BacterialTyper__scripts__functions__system_call</title>
<path fill="none" stroke="#000000" d="M537.6647,-179.8435C537.6647,-170.5713 537.6647,-161 537.6647,-161 537.6647,-161 1078.4516,-161 1078.4516,-161 1078.4516,-161 1078.4516,-69.0498 1078.4516,-69.0498"/>
<polygon fill="#000000" stroke="#000000" points="1081.9517,-69.0498 1078.4516,-59.0498 1074.9517,-69.0498 1081.9517,-69.0498"/>
</g>
<!-- BacterialTyper__scripts__species_identification_KMA__index_database&#45;&gt;BacterialTyper__scripts__species_identification_KMA__check_db_indexed -->
<g id="edge10" class="edge">
<title>BacterialTyper__scripts__species_identification_KMA__index_database&#45;&gt;BacterialTyper__scripts__species_identification_KMA__check_db_indexed</title>
<path fill="none" stroke="#000000" d="M494.3353,-179.937C494.3353,-179.937 494.3353,-152.4407 494.3353,-152.4407"/>
<polygon fill="#000000" stroke="#000000" points="497.8354,-152.4406 494.3353,-142.4407 490.8354,-152.4407 497.8354,-152.4406"/>
</g>
<!-- BacterialTyper__scripts__species_identification_KMA__kma_ident_call -->
<g id="node15" class="node">
<title>BacterialTyper__scripts__species_identification_KMA__kma_ident_call</title>
<ellipse fill="#ff65cb" fill-opacity="0.698039" stroke="#000000" cx="733" cy="-269" rx="65.7887" ry="18"/>
<text text-anchor="middle" x="733" y="-265.3" font-family="Times,serif" font-size="14.00" fill="#000000">kma_ident_call</text>
</g>
<!-- BacterialTyper__scripts__species_identification_KMA__kma_ident_call&#45;&gt;BacterialTyper__scripts__functions__print_time_stamp -->
<g id="edge15" class="edge">
<title>BacterialTyper__scripts__species_identification_KMA__kma_ident_call&#45;&gt;BacterialTyper__scripts__functions__print_time_stamp</title>
<path fill="none" stroke="#000000" d="M795.0078,-275C935.2067,-275 1264.4812,-275 1264.4812,-275 1264.4812,-275 1264.4812,-69.133 1264.4812,-69.133"/>
<polygon fill="#000000" stroke="#000000" points="1267.9813,-69.133 1264.4812,-59.133 1260.9813,-69.1331 1267.9813,-69.133"/>
</g>
<!-- BacterialTyper__scripts__species_identification_KMA__kma_ident_call&#45;&gt;BacterialTyper__scripts__functions__system_call -->
<g id="edge16" class="edge">
<title>BacterialTyper__scripts__species_identification_KMA__kma_ident_call&#45;&gt;BacterialTyper__scripts__functions__system_call</title>
<path fill="none" stroke="#000000" d="M794.9886,-263C902.8215,-263 1113.5484,-263 1113.5484,-263 1113.5484,-263 1113.5484,-68.9745 1113.5484,-68.9745"/>
<polygon fill="#000000" stroke="#000000" points="1117.0485,-68.9745 1113.5484,-58.9745 1110.0485,-68.9746 1117.0485,-68.9745"/>
</g>
<!-- BacterialTyper__scripts__species_identification_KMA__main -->
<g id="node16" class="node">
<title>BacterialTyper__scripts__species_identification_KMA__main</title>
<ellipse fill="#ff65cb" fill-opacity="0.698039" stroke="#000000" cx="281" cy="-269" rx="28.6953" ry="18"/>
<text text-anchor="middle" x="281" y="-265.3" font-family="Times,serif" font-size="14.00" fill="#000000">main</text>
</g>
<!-- BacterialTyper__scripts__species_identification_KMA__main&#45;&gt;BacterialTyper__scripts__species_identification_KMA__help_options -->
<g id="edge17" class="edge">
<title>BacterialTyper__scripts__species_identification_KMA__main&#45;&gt;BacterialTyper__scripts__species_identification_KMA__help_options</title>
<path fill="none" stroke="#000000" d="M305.3512,-259.2898C305.3512,-259.2898 305.3512,-213.9691 305.3512,-213.9691"/>
<polygon fill="#000000" stroke="#000000" points="308.8513,-213.969 305.3512,-203.9691 301.8513,-213.9691 308.8513,-213.969"/>
</g>
<!-- BacterialTyper__scripts__species_identification_KMA__parse_kma_results -->
<g id="node17" class="node">
<title>BacterialTyper__scripts__species_identification_KMA__parse_kma_results</title>
<ellipse fill="#ff65cb" fill-opacity="0.698039" stroke="#000000" cx="206" cy="-197" rx="76.8869" ry="18"/>
<text text-anchor="middle" x="206" y="-193.3" font-family="Times,serif" font-size="14.00" fill="#000000">parse_kma_results</text>
</g>
<!-- BacterialTyper__scripts__species_identification_KMA__main&#45;&gt;BacterialTyper__scripts__species_identification_KMA__parse_kma_results -->
<g id="edge18" class="edge">
<title>BacterialTyper__scripts__species_identification_KMA__main&#45;&gt;BacterialTyper__scripts__species_identification_KMA__parse_kma_results</title>
<path fill="none" stroke="#000000" d="M267.5479,-253.0209C267.5479,-253.0209 267.5479,-217.8035 267.5479,-217.8035"/>
<polygon fill="#000000" stroke="#000000" points="271.048,-217.8034 267.5479,-207.8035 264.048,-217.8035 271.048,-217.8034"/>
</g>
</g>
</svg>
