<?xml version="1.0" encoding="UTF-8" standalone="no"?>
<!DOCTYPE svg PUBLIC "-//W3C//DTD SVG 1.1//EN"
 "http://www.w3.org/Graphics/SVG/1.1/DTD/svg11.dtd">
<!-- Generated by graphviz version 2.40.1 (20161225.0304)
 -->
<!-- Title: G Pages: 1 -->
<svg width="448pt" height="231pt"
 viewBox="0.00 0.00 448.00 231.00" xmlns="http://www.w3.org/2000/svg" xmlns:xlink="http://www.w3.org/1999/xlink">
<g id="graph0" class="graph" transform="scale(1 1) rotate(0) translate(4 227)">
<title>G</title>
<polygon fill="#ffffff" stroke="transparent" points="-4,4 -4,-227 444,-227 444,4 -4,4"/>
<g id="clust1" class="cluster">
<title>cluster_G</title>
<path fill="#808080" fill-opacity="0.094118" stroke="#000000" d="M20,-8C20,-8 420,-8 420,-8 426,-8 432,-14 432,-20 432,-20 432,-203 432,-203 432,-209 426,-215 420,-215 420,-215 20,-215 20,-215 14,-215 8,-209 8,-203 8,-203 8,-20 8,-20 8,-14 14,-8 20,-8"/>
</g>
<g id="clust2" class="cluster">
<title>cluster_BacterialTyper__scripts__trimmomatic_call</title>
<path fill="#808080" fill-opacity="0.094118" stroke="#000000" d="M28,-16C28,-16 412,-16 412,-16 418,-16 424,-22 424,-28 424,-28 424,-151 424,-151 424,-157 418,-163 412,-163 412,-163 28,-163 28,-163 22,-163 16,-157 16,-151 16,-151 16,-28 16,-28 16,-22 22,-16 28,-16"/>
<text text-anchor="middle" x="220" y="-147.8" font-family="Times,serif" font-size="14.00" fill="#000000">BacterialTyper.scripts.trimmomatic_call</text>
</g>
<!-- BacterialTyper__scripts__trimmomatic_call -->
<g id="node1" class="node">
<title>BacterialTyper__scripts__trimmomatic_call</title>
<ellipse fill="#ffffff" fill-opacity="0.698039" stroke="#000000" cx="269" cy="-189" rx="155.1726" ry="18"/>
<text text-anchor="middle" x="269" y="-185.3" font-family="Times,serif" font-size="14.00" fill="#000000">BacterialTyper.scripts.trimmomatic_call</text>
</g>
<!-- BacterialTyper__scripts__trimmomatic_call__main -->
<g id="node3" class="node">
<title>BacterialTyper__scripts__trimmomatic_call__main</title>
<ellipse fill="#ff6565" fill-opacity="0.698039" stroke="#000000" cx="387" cy="-114" rx="28.6953" ry="18"/>
<text text-anchor="middle" x="387" y="-110.3" font-family="Times,serif" font-size="14.00" fill="#000000">main</text>
</g>
<!-- BacterialTyper__scripts__trimmomatic_call&#45;&gt;BacterialTyper__scripts__trimmomatic_call__main -->
<g id="edge1" class="edge">
<title>BacterialTyper__scripts__trimmomatic_call&#45;&gt;BacterialTyper__scripts__trimmomatic_call__main</title>
<path fill="none" stroke="#000000" d="M333.1567,-172.5889C339.0972,-169.8509 344.8214,-166.6761 350,-163 358.6448,-156.8633 366.157,-148.0995 372.1118,-139.6758"/>
<polygon fill="#000000" stroke="#000000" points="375.1538,-141.4205 377.7358,-131.1451 369.3095,-137.5675 375.1538,-141.4205"/>
</g>
<!-- BacterialTyper__scripts__trimmomatic_call__help_options -->
<g id="node2" class="node">
<title>BacterialTyper__scripts__trimmomatic_call__help_options</title>
<ellipse fill="#ff6565" fill-opacity="0.698039" stroke="#000000" cx="360" cy="-42" rx="55.7903" ry="18"/>
<text text-anchor="middle" x="360" y="-38.3" font-family="Times,serif" font-size="14.00" fill="#000000">help_options</text>
</g>
<!-- BacterialTyper__scripts__trimmomatic_call__main&#45;&gt;BacterialTyper__scripts__trimmomatic_call__help_options -->
<g id="edge4" class="edge">
<title>BacterialTyper__scripts__trimmomatic_call__main&#45;&gt;BacterialTyper__scripts__trimmomatic_call__help_options</title>
<path fill="none" stroke="#000000" d="M380.3258,-96.2022C377.3305,-88.2146 373.7267,-78.6045 370.3908,-69.7087"/>
<polygon fill="#000000" stroke="#000000" points="373.5734,-68.2275 366.7849,-60.0931 367.0191,-70.6854 373.5734,-68.2275"/>
</g>
<!-- BacterialTyper__scripts__trimmomatic_call__trimmo_call -->
<g id="node5" class="node">
<title>BacterialTyper__scripts__trimmomatic_call__trimmo_call</title>
<ellipse fill="#ff6565" fill-opacity="0.698039" stroke="#000000" cx="162" cy="-42" rx="54.6905" ry="18"/>
<text text-anchor="middle" x="162" y="-38.3" font-family="Times,serif" font-size="14.00" fill="#000000">trimmo_call</text>
</g>
<!-- BacterialTyper__scripts__trimmomatic_call__main&#45;&gt;BacterialTyper__scripts__trimmomatic_call__trimmo_call -->
<g id="edge3" class="edge">
<title>BacterialTyper__scripts__trimmomatic_call__main&#45;&gt;BacterialTyper__scripts__trimmomatic_call__trimmo_call</title>
<path fill="none" stroke="#000000" d="M364.9713,-102.5129C360.1094,-100.1956 354.9356,-97.893 350,-96 306.0506,-79.1434 254.5775,-64.7095 216.6131,-55.0168"/>
<polygon fill="#000000" stroke="#000000" points="217.3266,-51.5871 206.7741,-52.5335 215.6135,-58.3743 217.3266,-51.5871"/>
</g>
<!-- BacterialTyper__scripts__trimmomatic_call__print_help_adapters -->
<g id="node4" class="node">
<title>BacterialTyper__scripts__trimmomatic_call__print_help_adapters</title>
<ellipse fill="#ff6565" fill-opacity="0.698039" stroke="#000000" cx="260" cy="-114" rx="80.6858" ry="18"/>
<text text-anchor="middle" x="260" y="-110.3" font-family="Times,serif" font-size="14.00" fill="#000000">print_help_adapters</text>
</g>
<!-- BacterialTyper__scripts__trimmomatic_call__trimmo_module -->
<g id="node6" class="node">
<title>BacterialTyper__scripts__trimmomatic_call__trimmo_module</title>
<ellipse fill="#ff6565" fill-opacity="0.698039" stroke="#000000" cx="93" cy="-114" rx="68.7879" ry="18"/>
<text text-anchor="middle" x="93" y="-110.3" font-family="Times,serif" font-size="14.00" fill="#000000">trimmo_module</text>
</g>
<!-- BacterialTyper__scripts__trimmomatic_call__trimmo_module&#45;&gt;BacterialTyper__scripts__trimmomatic_call__trimmo_call -->
<g id="edge2" class="edge">
<title>BacterialTyper__scripts__trimmomatic_call__trimmo_module&#45;&gt;BacterialTyper__scripts__trimmomatic_call__trimmo_call</title>
<path fill="none" stroke="#000000" d="M110.0562,-96.2022C118.5585,-87.3303 128.9788,-76.4569 138.2489,-66.7837"/>
<polygon fill="#000000" stroke="#000000" points="140.986,-68.9862 145.3781,-59.3446 135.9321,-64.1428 140.986,-68.9862"/>
</g>
</g>
</svg>
