<?xml version="1.0" encoding="UTF-8" standalone="no"?>
<!DOCTYPE svg PUBLIC "-//W3C//DTD SVG 1.1//EN"
 "http://www.w3.org/Graphics/SVG/1.1/DTD/svg11.dtd">
<!-- Generated by graphviz version 2.40.1 (20161225.0304)
 -->
<!-- Title: G Pages: 1 -->
<svg width="500pt" height="273pt"
 viewBox="0.00 0.00 500.00 273.00" xmlns="http://www.w3.org/2000/svg" xmlns:xlink="http://www.w3.org/1999/xlink">
<g id="graph0" class="graph" transform="scale(1 1) rotate(0) translate(4 269)">
<title>G</title>
<polygon fill="#ffffff" stroke="transparent" points="-4,4 -4,-269 496,-269 496,4 -4,4"/>
<g id="clust1" class="cluster">
<title>cluster_G</title>
<path fill="#808080" fill-opacity="0.094118" stroke="#000000" d="M20,-8C20,-8 472,-8 472,-8 478,-8 484,-14 484,-20 484,-20 484,-245 484,-245 484,-251 478,-257 472,-257 472,-257 20,-257 20,-257 14,-257 8,-251 8,-245 8,-245 8,-20 8,-20 8,-14 14,-8 20,-8"/>
</g>
<g id="clust2" class="cluster">
<title>cluster_BacterialTyper__config__set_config</title>
<path fill="#808080" fill-opacity="0.094118" stroke="#000000" d="M292,-99C292,-99 464,-99 464,-99 470,-99 476,-105 476,-111 476,-111 476,-162 476,-162 476,-168 470,-174 464,-174 464,-174 292,-174 292,-174 286,-174 280,-168 280,-162 280,-162 280,-111 280,-111 280,-105 286,-99 292,-99"/>
<text text-anchor="middle" x="378" y="-158.8" font-family="Times,serif" font-size="14.00" fill="#000000">BacterialTyper.config.set_config</text>
</g>
<g id="clust3" class="cluster">
<title>cluster_BacterialTyper__scripts__functions</title>
<path fill="#808080" fill-opacity="0.094118" stroke="#000000" d="M29,-16C29,-16 291,-16 291,-16 297,-16 303,-22 303,-28 303,-28 303,-79 303,-79 303,-85 297,-91 291,-91 291,-91 29,-91 29,-91 23,-91 17,-85 17,-79 17,-79 17,-28 17,-28 17,-22 23,-16 29,-16"/>
<text text-anchor="middle" x="160" y="-75.8" font-family="Times,serif" font-size="14.00" fill="#000000">BacterialTyper.scripts.functions</text>
</g>
<g id="clust4" class="cluster">
<title>cluster_BacterialTyper__scripts__trimmomatic_call</title>
<path fill="#808080" fill-opacity="0.094118" stroke="#000000" d="M28,-99C28,-99 260,-99 260,-99 266,-99 272,-105 272,-111 272,-111 272,-237 272,-237 272,-243 266,-249 260,-249 260,-249 28,-249 28,-249 22,-249 16,-243 16,-237 16,-237 16,-111 16,-111 16,-105 22,-99 28,-99"/>
<text text-anchor="middle" x="144" y="-233.8" font-family="Times,serif" font-size="14.00" fill="#000000">BacterialTyper.scripts.trimmomatic_call</text>
</g>
<!-- BacterialTyper__config__set_config__get_exe -->
<g id="node1" class="node">
<title>BacterialTyper__config__set_config__get_exe</title>
<ellipse fill="#ff8e65" fill-opacity="0.698039" stroke="#000000" cx="326" cy="-125" rx="38.1938" ry="18"/>
<text text-anchor="middle" x="326" y="-121.3" font-family="Times,serif" font-size="14.00" fill="#000000">get_exe</text>
</g>
<!-- BacterialTyper__scripts__functions__print_time_stamp -->
<g id="node2" class="node">
<title>BacterialTyper__scripts__functions__print_time_stamp</title>
<ellipse fill="#a365ff" fill-opacity="0.698039" stroke="#000000" cx="222" cy="-42" rx="73.387" ry="18"/>
<text text-anchor="middle" x="222" y="-38.3" font-family="Times,serif" font-size="14.00" fill="#000000">print_time_stamp</text>
</g>
<!-- BacterialTyper__scripts__functions__system_call -->
<g id="node3" class="node">
<title>BacterialTyper__scripts__functions__system_call</title>
<ellipse fill="#a365ff" fill-opacity="0.698039" stroke="#000000" cx="78" cy="-42" rx="52.7911" ry="18"/>
<text text-anchor="middle" x="78" y="-38.3" font-family="Times,serif" font-size="14.00" fill="#000000">system_call</text>
</g>
<!-- BacterialTyper__scripts__trimmomatic_call__help_options -->
<g id="node4" class="node">
<title>BacterialTyper__scripts__trimmomatic_call__help_options</title>
<ellipse fill="#ff65b7" fill-opacity="0.698039" stroke="#000000" cx="208" cy="-125" rx="55.7903" ry="18"/>
<text text-anchor="middle" x="208" y="-121.3" font-family="Times,serif" font-size="14.00" fill="#000000">help_options</text>
</g>
<!-- BacterialTyper__scripts__trimmomatic_call__main -->
<g id="node5" class="node">
<title>BacterialTyper__scripts__trimmomatic_call__main</title>
<ellipse fill="#ff65b7" fill-opacity="0.698039" stroke="#000000" cx="208" cy="-200" rx="28.6953" ry="18"/>
<text text-anchor="middle" x="208" y="-196.3" font-family="Times,serif" font-size="14.00" fill="#000000">main</text>
</g>
<!-- BacterialTyper__scripts__trimmomatic_call__main&#45;&gt;BacterialTyper__scripts__trimmomatic_call__help_options -->
<g id="edge5" class="edge">
<title>BacterialTyper__scripts__trimmomatic_call__main&#45;&gt;BacterialTyper__scripts__trimmomatic_call__help_options</title>
<path fill="none" stroke="#000000" d="M208,-181.8446C208,-173.3401 208,-163.0076 208,-153.4964"/>
<polygon fill="#000000" stroke="#000000" points="211.5001,-153.2481 208,-143.2482 204.5001,-153.2482 211.5001,-153.2481"/>
</g>
<!-- BacterialTyper__scripts__trimmomatic_call__trimmo_call -->
<g id="node6" class="node">
<title>BacterialTyper__scripts__trimmomatic_call__trimmo_call</title>
<ellipse fill="#ff65b7" fill-opacity="0.698039" stroke="#000000" cx="80" cy="-125" rx="54.6905" ry="18"/>
<text text-anchor="middle" x="80" y="-121.3" font-family="Times,serif" font-size="14.00" fill="#000000">trimmo_call</text>
</g>
<!-- BacterialTyper__scripts__trimmomatic_call__main&#45;&gt;BacterialTyper__scripts__trimmomatic_call__trimmo_call -->
<g id="edge6" class="edge">
<title>BacterialTyper__scripts__trimmomatic_call__main&#45;&gt;BacterialTyper__scripts__trimmomatic_call__trimmo_call</title>
<path fill="none" stroke="#000000" d="M185.9733,-188.5077C181.1112,-186.1907 175.9369,-183.8895 171,-182 158.9127,-177.3737 154.541,-179.8577 143,-174 129.8062,-167.3035 116.6581,-157.6681 105.813,-148.7107"/>
<polygon fill="#000000" stroke="#000000" points="107.886,-145.8787 98.006,-142.053 103.3438,-151.205 107.886,-145.8787"/>
</g>
<!-- BacterialTyper__scripts__trimmomatic_call__trimmo_call&#45;&gt;BacterialTyper__scripts__functions__print_time_stamp -->
<g id="edge3" class="edge">
<title>BacterialTyper__scripts__trimmomatic_call__trimmo_call&#45;&gt;BacterialTyper__scripts__functions__print_time_stamp</title>
<path fill="none" stroke="#000000" d="M107.8572,-109.3906C118.0048,-103.6581 129.5487,-97.0828 140,-91 154.9324,-82.3092 171.2913,-72.577 185.4426,-64.0903"/>
<polygon fill="#000000" stroke="#000000" points="187.617,-66.867 194.3862,-58.7166 184.0118,-60.8668 187.617,-66.867"/>
</g>
<!-- BacterialTyper__scripts__trimmomatic_call__trimmo_call&#45;&gt;BacterialTyper__scripts__functions__system_call -->
<g id="edge4" class="edge">
<title>BacterialTyper__scripts__trimmomatic_call__trimmo_call&#45;&gt;BacterialTyper__scripts__functions__system_call</title>
<path fill="none" stroke="#000000" d="M79.566,-106.9902C79.3083,-96.2963 78.9759,-82.4994 78.6836,-70.3706"/>
<polygon fill="#000000" stroke="#000000" points="82.18,-70.174 78.44,-60.2612 75.182,-70.3427 82.18,-70.174"/>
</g>
<!-- BacterialTyper__scripts__trimmomatic_call__trimmo_module -->
<g id="node7" class="node">
<title>BacterialTyper__scripts__trimmomatic_call__trimmo_module</title>
<ellipse fill="#ff65b7" fill-opacity="0.698039" stroke="#000000" cx="93" cy="-200" rx="68.7879" ry="18"/>
<text text-anchor="middle" x="93" y="-196.3" font-family="Times,serif" font-size="14.00" fill="#000000">trimmo_module</text>
</g>
<!-- BacterialTyper__scripts__trimmomatic_call__trimmo_module&#45;&gt;BacterialTyper__config__set_config__get_exe -->
<g id="edge1" class="edge">
<title>BacterialTyper__scripts__trimmomatic_call__trimmo_module&#45;&gt;BacterialTyper__config__set_config__get_exe</title>
<path fill="none" stroke="#000000" d="M142.072,-187.338C151.3018,-185.2959 160.9087,-183.3971 170,-182 193.3484,-178.4118 254.482,-183.7468 276,-174 287.9361,-168.5934 298.6867,-159.05 307.1333,-149.8131"/>
<polygon fill="#000000" stroke="#000000" points="309.7938,-152.0872 313.6619,-142.2237 304.4871,-147.5222 309.7938,-152.0872"/>
</g>
<!-- BacterialTyper__scripts__trimmomatic_call__trimmo_module&#45;&gt;BacterialTyper__scripts__trimmomatic_call__trimmo_call -->
<g id="edge2" class="edge">
<title>BacterialTyper__scripts__trimmomatic_call__trimmo_module&#45;&gt;BacterialTyper__scripts__trimmomatic_call__trimmo_call</title>
<path fill="none" stroke="#000000" d="M89.8531,-181.8446C88.3521,-173.1849 86.5225,-162.6301 84.8493,-152.9768"/>
<polygon fill="#000000" stroke="#000000" points="88.2745,-152.2435 83.118,-142.9882 81.3773,-153.4391 88.2745,-152.2435"/>
</g>
</g>
</svg>
