<?xml version="1.0" encoding="UTF-8" standalone="no"?>
<!DOCTYPE svg PUBLIC "-//W3C//DTD SVG 1.1//EN"
 "http://www.w3.org/Graphics/SVG/1.1/DTD/svg11.dtd">
<!-- Generated by graphviz version 2.40.1 (20161225.0304)
 -->
<!-- Title: G Pages: 1 -->
<svg width="261pt" height="187pt"
 viewBox="0.00 0.00 261.00 187.00" xmlns="http://www.w3.org/2000/svg" xmlns:xlink="http://www.w3.org/1999/xlink">
<g id="graph0" class="graph" transform="scale(1 1) rotate(0) translate(4 183)">
<title>G</title>
<polygon fill="#ffffff" stroke="transparent" points="-4,4 -4,-183 257,-183 257,4 -4,4"/>
<g id="clust1" class="cluster">
<title>cluster_G</title>
<path fill="#808080" fill-opacity="0.094118" stroke="#000000" d="M20,-8C20,-8 233,-8 233,-8 239,-8 245,-14 245,-20 245,-20 245,-159 245,-159 245,-165 239,-171 233,-171 233,-171 20,-171 20,-171 14,-171 8,-165 8,-159 8,-159 8,-20 8,-20 8,-14 14,-8 20,-8"/>
</g>
<g id="clust2" class="cluster">
<title>cluster_BacterialTyper__scripts__variant_calling</title>
<path fill="#808080" fill-opacity="0.094118" stroke="#000000" d="M28,-16C28,-16 225,-16 225,-16 231,-16 237,-22 237,-28 237,-28 237,-151 237,-151 237,-157 231,-163 225,-163 225,-163 28,-163 28,-163 22,-163 16,-157 16,-151 16,-151 16,-28 16,-28 16,-22 22,-16 28,-16"/>
<text text-anchor="middle" x="126.5" y="-147.8" font-family="Times,serif" font-size="14.00" fill="#000000">BacterialTyper.scripts.variant_calling</text>
</g>
<!-- BacterialTyper__scripts__variant_calling__help_options -->
<g id="node1" class="node">
<title>BacterialTyper__scripts__variant_calling__help_options</title>
<ellipse fill="#ff65a3" fill-opacity="0.698039" stroke="#000000" cx="126" cy="-42" rx="55.7903" ry="18"/>
<text text-anchor="middle" x="126" y="-38.3" font-family="Times,serif" font-size="14.00" fill="#000000">help_options</text>
</g>
<!-- BacterialTyper__scripts__variant_calling__main -->
<g id="node2" class="node">
<title>BacterialTyper__scripts__variant_calling__main</title>
<ellipse fill="#ff65a3" fill-opacity="0.698039" stroke="#000000" cx="126" cy="-114" rx="28.6953" ry="18"/>
<text text-anchor="middle" x="126" y="-110.3" font-family="Times,serif" font-size="14.00" fill="#000000">main</text>
</g>
<!-- BacterialTyper__scripts__variant_calling__main&#45;&gt;BacterialTyper__scripts__variant_calling__help_options -->
<g id="edge1" class="edge">
<title>BacterialTyper__scripts__variant_calling__main&#45;&gt;BacterialTyper__scripts__variant_calling__help_options</title>
<path fill="none" stroke="#000000" d="M126,-95.8314C126,-88.131 126,-78.9743 126,-70.4166"/>
<polygon fill="#000000" stroke="#000000" points="129.5001,-70.4132 126,-60.4133 122.5001,-70.4133 129.5001,-70.4132"/>
</g>
</g>
</svg>
