<?xml version="1.0" encoding="UTF-8" standalone="no"?>
<!DOCTYPE svg PUBLIC "-//W3C//DTD SVG 1.1//EN"
 "http://www.w3.org/Graphics/SVG/1.1/DTD/svg11.dtd">
<!-- Generated by graphviz version 2.40.1 (20161225.0304)
 -->
<!-- Title: G Pages: 1 -->
<svg width="328pt" height="231pt"
 viewBox="0.00 0.00 328.00 231.00" xmlns="http://www.w3.org/2000/svg" xmlns:xlink="http://www.w3.org/1999/xlink">
<g id="graph0" class="graph" transform="scale(1 1) rotate(0) translate(4 227)">
<title>G</title>
<polygon fill="#ffffff" stroke="transparent" points="-4,4 -4,-227 324,-227 324,4 -4,4"/>
<g id="clust1" class="cluster">
<title>cluster_G</title>
<path fill="#808080" fill-opacity="0.094118" stroke="#000000" d="M20,-8C20,-8 300,-8 300,-8 306,-8 312,-14 312,-20 312,-20 312,-203 312,-203 312,-209 306,-215 300,-215 300,-215 20,-215 20,-215 14,-215 8,-209 8,-203 8,-203 8,-20 8,-20 8,-14 14,-8 20,-8"/>
</g>
<g id="clust2" class="cluster">
<title>cluster_BacterialTyper__scripts__variant_calling</title>
<path fill="#808080" fill-opacity="0.094118" stroke="#000000" d="M62,-16C62,-16 259,-16 259,-16 265,-16 271,-22 271,-28 271,-28 271,-151 271,-151 271,-157 265,-163 259,-163 259,-163 62,-163 62,-163 56,-163 50,-157 50,-151 50,-151 50,-28 50,-28 50,-22 56,-16 62,-16"/>
<text text-anchor="middle" x="160.5" y="-147.8" font-family="Times,serif" font-size="14.00" fill="#000000">BacterialTyper.scripts.variant_calling</text>
</g>
<!-- BacterialTyper__scripts__variant_calling -->
<g id="node1" class="node">
<title>BacterialTyper__scripts__variant_calling</title>
<ellipse fill="#ffffff" fill-opacity="0.698039" stroke="#000000" cx="160" cy="-189" rx="143.7746" ry="18"/>
<text text-anchor="middle" x="160" y="-185.3" font-family="Times,serif" font-size="14.00" fill="#000000">BacterialTyper.scripts.variant_calling</text>
</g>
<!-- BacterialTyper__scripts__variant_calling__main -->
<g id="node3" class="node">
<title>BacterialTyper__scripts__variant_calling__main</title>
<ellipse fill="#ff6565" fill-opacity="0.698039" stroke="#000000" cx="160" cy="-114" rx="28.6953" ry="18"/>
<text text-anchor="middle" x="160" y="-110.3" font-family="Times,serif" font-size="14.00" fill="#000000">main</text>
</g>
<!-- BacterialTyper__scripts__variant_calling&#45;&gt;BacterialTyper__scripts__variant_calling__main -->
<g id="edge1" class="edge">
<title>BacterialTyper__scripts__variant_calling&#45;&gt;BacterialTyper__scripts__variant_calling__main</title>
<path fill="none" stroke="#000000" d="M160,-170.8446C160,-162.3401 160,-152.0076 160,-142.4964"/>
<polygon fill="#000000" stroke="#000000" points="163.5001,-142.2481 160,-132.2482 156.5001,-142.2482 163.5001,-142.2481"/>
</g>
<!-- BacterialTyper__scripts__variant_calling__help_options -->
<g id="node2" class="node">
<title>BacterialTyper__scripts__variant_calling__help_options</title>
<ellipse fill="#ff6565" fill-opacity="0.698039" stroke="#000000" cx="160" cy="-42" rx="55.7903" ry="18"/>
<text text-anchor="middle" x="160" y="-38.3" font-family="Times,serif" font-size="14.00" fill="#000000">help_options</text>
</g>
<!-- BacterialTyper__scripts__variant_calling__main&#45;&gt;BacterialTyper__scripts__variant_calling__help_options -->
<g id="edge2" class="edge">
<title>BacterialTyper__scripts__variant_calling__main&#45;&gt;BacterialTyper__scripts__variant_calling__help_options</title>
<path fill="none" stroke="#000000" d="M160,-95.8314C160,-88.131 160,-78.9743 160,-70.4166"/>
<polygon fill="#000000" stroke="#000000" points="163.5001,-70.4132 160,-60.4133 156.5001,-70.4133 163.5001,-70.4132"/>
</g>
</g>
</svg>
