<?xml version="1.0" encoding="UTF-8" standalone="no"?>
<!DOCTYPE svg PUBLIC "-//W3C//DTD SVG 1.1//EN"
 "http://www.w3.org/Graphics/SVG/1.1/DTD/svg11.dtd">
<!-- Generated by graphviz version 2.40.1 (20161225.0304)
 -->
<!-- Title: G Pages: 1 -->
<svg width="589pt" height="447pt"
 viewBox="0.00 0.00 589.00 447.00" xmlns="http://www.w3.org/2000/svg" xmlns:xlink="http://www.w3.org/1999/xlink">
<g id="graph0" class="graph" transform="scale(1 1) rotate(0) translate(4 443)">
<title>G</title>
<polygon fill="#ffffff" stroke="transparent" points="-4,4 -4,-443 585,-443 585,4 -4,4"/>
<g id="clust1" class="cluster">
<title>cluster_G</title>
<path fill="#808080" fill-opacity="0.094118" stroke="#000000" d="M20,-8C20,-8 561,-8 561,-8 567,-8 573,-14 573,-20 573,-20 573,-419 573,-419 573,-425 567,-431 561,-431 561,-431 20,-431 20,-431 14,-431 8,-425 8,-419 8,-419 8,-20 8,-20 8,-14 14,-8 20,-8"/>
</g>
<g id="clust2" class="cluster">
<title>cluster_BacterialTyper__scripts__virulence_resistance</title>
<path fill="#808080" fill-opacity="0.094118" stroke="#000000" d="M28,-16C28,-16 553,-16 553,-16 559,-16 565,-22 565,-28 565,-28 565,-367 565,-367 565,-373 559,-379 553,-379 553,-379 28,-379 28,-379 22,-379 16,-373 16,-367 16,-367 16,-28 16,-28 16,-22 22,-16 28,-16"/>
<text text-anchor="middle" x="290.5" y="-363.8" font-family="Times,serif" font-size="14.00" fill="#000000">BacterialTyper.scripts.virulence_resistance</text>
</g>
<!-- BacterialTyper__scripts__virulence_resistance -->
<g id="node1" class="node">
<title>BacterialTyper__scripts__virulence_resistance</title>
<ellipse fill="#ffffff" fill-opacity="0.698039" stroke="#000000" cx="223" cy="-405" rx="163.2712" ry="18"/>
<text text-anchor="middle" x="223" y="-401.3" font-family="Times,serif" font-size="14.00" fill="#000000">BacterialTyper.scripts.virulence_resistance</text>
</g>
<!-- BacterialTyper__scripts__virulence_resistance__main -->
<g id="node9" class="node">
<title>BacterialTyper__scripts__virulence_resistance__main</title>
<ellipse fill="#ff6565" fill-opacity="0.698039" stroke="#000000" cx="223" cy="-330" rx="28.6953" ry="18"/>
<text text-anchor="middle" x="223" y="-326.3" font-family="Times,serif" font-size="14.00" fill="#000000">main</text>
</g>
<!-- BacterialTyper__scripts__virulence_resistance&#45;&gt;BacterialTyper__scripts__virulence_resistance__main -->
<g id="edge1" class="edge">
<title>BacterialTyper__scripts__virulence_resistance&#45;&gt;BacterialTyper__scripts__virulence_resistance__main</title>
<path fill="none" stroke="#000000" d="M223,-386.8446C223,-378.3401 223,-368.0076 223,-358.4964"/>
<polygon fill="#000000" stroke="#000000" points="226.5001,-358.2481 223,-348.2482 219.5001,-358.2482 226.5001,-358.2481"/>
</g>
<!-- BacterialTyper__scripts__virulence_resistance__check_VFDB -->
<g id="node2" class="node">
<title>BacterialTyper__scripts__virulence_resistance__check_VFDB</title>
<ellipse fill="#ff6565" fill-opacity="0.698039" stroke="#000000" cx="464" cy="-330" rx="59.2899" ry="18"/>
<text text-anchor="middle" x="464" y="-326.3" font-family="Times,serif" font-size="14.00" fill="#000000">check_VFDB</text>
</g>
<!-- BacterialTyper__scripts__virulence_resistance__download_VFDB_files -->
<g id="node4" class="node">
<title>BacterialTyper__scripts__virulence_resistance__download_VFDB_files</title>
<ellipse fill="#ff6565" fill-opacity="0.698039" stroke="#000000" cx="464" cy="-258" rx="92.8835" ry="18"/>
<text text-anchor="middle" x="464" y="-254.3" font-family="Times,serif" font-size="14.00" fill="#000000">download_VFDB_files</text>
</g>
<!-- BacterialTyper__scripts__virulence_resistance__check_VFDB&#45;&gt;BacterialTyper__scripts__virulence_resistance__download_VFDB_files -->
<g id="edge12" class="edge">
<title>BacterialTyper__scripts__virulence_resistance__check_VFDB&#45;&gt;BacterialTyper__scripts__virulence_resistance__download_VFDB_files</title>
<path fill="none" stroke="#000000" d="M464,-311.8314C464,-304.131 464,-294.9743 464,-286.4166"/>
<polygon fill="#000000" stroke="#000000" points="467.5001,-286.4132 464,-276.4133 460.5001,-286.4133 467.5001,-286.4132"/>
</g>
<!-- BacterialTyper__scripts__virulence_resistance__check_results -->
<g id="node3" class="node">
<title>BacterialTyper__scripts__virulence_resistance__check_results</title>
<ellipse fill="#ff6565" fill-opacity="0.698039" stroke="#000000" cx="328" cy="-330" rx="58.4896" ry="18"/>
<text text-anchor="middle" x="328" y="-326.3" font-family="Times,serif" font-size="14.00" fill="#000000">check_results</text>
</g>
<!-- BacterialTyper__scripts__virulence_resistance__results_parser -->
<g id="node13" class="node">
<title>BacterialTyper__scripts__virulence_resistance__results_parser</title>
<ellipse fill="#ff6565" fill-opacity="0.698039" stroke="#000000" cx="293" cy="-258" rx="59.5901" ry="18"/>
<text text-anchor="middle" x="293" y="-254.3" font-family="Times,serif" font-size="14.00" fill="#000000">results_parser</text>
</g>
<!-- BacterialTyper__scripts__virulence_resistance__check_results&#45;&gt;BacterialTyper__scripts__virulence_resistance__results_parser -->
<g id="edge8" class="edge">
<title>BacterialTyper__scripts__virulence_resistance__check_results&#45;&gt;BacterialTyper__scripts__virulence_resistance__results_parser</title>
<path fill="none" stroke="#000000" d="M319.168,-311.8314C315.2419,-303.7547 310.537,-294.0761 306.2061,-285.1668"/>
<polygon fill="#000000" stroke="#000000" points="309.2277,-283.3769 301.7079,-275.9134 302.9321,-286.4373 309.2277,-283.3769"/>
</g>
<!-- BacterialTyper__scripts__virulence_resistance__found_results -->
<g id="node5" class="node">
<title>BacterialTyper__scripts__virulence_resistance__found_results</title>
<ellipse fill="#ff6565" fill-opacity="0.698039" stroke="#000000" cx="220" cy="-114" rx="58.4896" ry="18"/>
<text text-anchor="middle" x="220" y="-110.3" font-family="Times,serif" font-size="14.00" fill="#000000">found_results</text>
</g>
<!-- BacterialTyper__scripts__virulence_resistance__get_id -->
<g id="node6" class="node">
<title>BacterialTyper__scripts__virulence_resistance__get_id</title>
<ellipse fill="#ff6565" fill-opacity="0.698039" stroke="#000000" cx="294" cy="-42" rx="32.4942" ry="18"/>
<text text-anchor="middle" x="294" y="-38.3" font-family="Times,serif" font-size="14.00" fill="#000000">get_id</text>
</g>
<!-- BacterialTyper__scripts__virulence_resistance__found_results&#45;&gt;BacterialTyper__scripts__virulence_resistance__get_id -->
<g id="edge6" class="edge">
<title>BacterialTyper__scripts__virulence_resistance__found_results&#45;&gt;BacterialTyper__scripts__virulence_resistance__get_id</title>
<path fill="none" stroke="#000000" d="M237.9133,-96.5708C247.6886,-87.0597 259.9116,-75.1671 270.4496,-64.9139"/>
<polygon fill="#000000" stroke="#000000" points="273.0396,-67.2773 277.7661,-57.7951 268.1581,-62.2602 273.0396,-67.2773"/>
</g>
<!-- BacterialTyper__scripts__virulence_resistance__help_options -->
<g id="node7" class="node">
<title>BacterialTyper__scripts__virulence_resistance__help_options</title>
<ellipse fill="#ff6565" fill-opacity="0.698039" stroke="#000000" cx="159" cy="-258" rx="55.7903" ry="18"/>
<text text-anchor="middle" x="159" y="-254.3" font-family="Times,serif" font-size="14.00" fill="#000000">help_options</text>
</g>
<!-- BacterialTyper__scripts__virulence_resistance__identified_results -->
<g id="node8" class="node">
<title>BacterialTyper__scripts__virulence_resistance__identified_results</title>
<ellipse fill="#ff6565" fill-opacity="0.698039" stroke="#000000" cx="368" cy="-114" rx="71.4873" ry="18"/>
<text text-anchor="middle" x="368" y="-110.3" font-family="Times,serif" font-size="14.00" fill="#000000">identified_results</text>
</g>
<!-- BacterialTyper__scripts__virulence_resistance__identified_results&#45;&gt;BacterialTyper__scripts__virulence_resistance__get_id -->
<g id="edge7" class="edge">
<title>BacterialTyper__scripts__virulence_resistance__identified_results&#45;&gt;BacterialTyper__scripts__virulence_resistance__get_id</title>
<path fill="none" stroke="#000000" d="M350.0867,-96.5708C340.3114,-87.0597 328.0884,-75.1671 317.5504,-64.9139"/>
<polygon fill="#000000" stroke="#000000" points="319.8419,-62.2602 310.2339,-57.7951 314.9604,-67.2773 319.8419,-62.2602"/>
</g>
<!-- BacterialTyper__scripts__virulence_resistance__main&#45;&gt;BacterialTyper__scripts__virulence_resistance__help_options -->
<g id="edge13" class="edge">
<title>BacterialTyper__scripts__virulence_resistance__main&#45;&gt;BacterialTyper__scripts__virulence_resistance__help_options</title>
<path fill="none" stroke="#000000" d="M208.7963,-314.0209C200.6969,-304.909 190.3672,-293.2881 181.2179,-282.9951"/>
<polygon fill="#000000" stroke="#000000" points="183.7675,-280.5952 174.5079,-275.4464 178.5357,-285.2458 183.7675,-280.5952"/>
</g>
<!-- BacterialTyper__scripts__virulence_resistance__parse_card -->
<g id="node10" class="node">
<title>BacterialTyper__scripts__virulence_resistance__parse_card</title>
<ellipse fill="#ff6565" fill-opacity="0.698039" stroke="#000000" cx="170" cy="-186" rx="48.9926" ry="18"/>
<text text-anchor="middle" x="170" y="-182.3" font-family="Times,serif" font-size="14.00" fill="#000000">parse_card</text>
</g>
<!-- BacterialTyper__scripts__virulence_resistance__parse_card&#45;&gt;BacterialTyper__scripts__virulence_resistance__found_results -->
<g id="edge5" class="edge">
<title>BacterialTyper__scripts__virulence_resistance__parse_card&#45;&gt;BacterialTyper__scripts__virulence_resistance__found_results</title>
<path fill="none" stroke="#000000" d="M182.3596,-168.2022C188.2491,-159.7214 195.4087,-149.4115 201.8961,-140.0696"/>
<polygon fill="#000000" stroke="#000000" points="204.7801,-142.0527 207.6093,-131.8425 199.0305,-138.0599 204.7801,-142.0527"/>
</g>
<!-- BacterialTyper__scripts__virulence_resistance__parse_card&#45;&gt;BacterialTyper__scripts__virulence_resistance__identified_results -->
<g id="edge4" class="edge">
<title>BacterialTyper__scripts__virulence_resistance__parse_card&#45;&gt;BacterialTyper__scripts__virulence_resistance__identified_results</title>
<path fill="none" stroke="#000000" d="M204.9426,-173.2936C236.198,-161.928 282.3817,-145.1339 317.6263,-132.3177"/>
<polygon fill="#000000" stroke="#000000" points="319.0537,-135.5229 327.2556,-128.8162 316.6615,-128.9444 319.0537,-135.5229"/>
</g>
<!-- BacterialTyper__scripts__virulence_resistance__parse_results -->
<g id="node11" class="node">
<title>BacterialTyper__scripts__virulence_resistance__parse_results</title>
<ellipse fill="#ff6565" fill-opacity="0.698039" stroke="#000000" cx="293" cy="-186" rx="56.59" ry="18"/>
<text text-anchor="middle" x="293" y="-182.3" font-family="Times,serif" font-size="14.00" fill="#000000">parse_results</text>
</g>
<!-- BacterialTyper__scripts__virulence_resistance__parse_vfdb -->
<g id="node12" class="node">
<title>BacterialTyper__scripts__virulence_resistance__parse_vfdb</title>
<ellipse fill="#ff6565" fill-opacity="0.698039" stroke="#000000" cx="418" cy="-186" rx="50.0912" ry="18"/>
<text text-anchor="middle" x="418" y="-182.3" font-family="Times,serif" font-size="14.00" fill="#000000">parse_vfdb</text>
</g>
<!-- BacterialTyper__scripts__virulence_resistance__parse_vfdb&#45;&gt;BacterialTyper__scripts__virulence_resistance__found_results -->
<g id="edge3" class="edge">
<title>BacterialTyper__scripts__virulence_resistance__parse_vfdb&#45;&gt;BacterialTyper__scripts__virulence_resistance__found_results</title>
<path fill="none" stroke="#000000" d="M382.6016,-173.1278C350.4723,-161.4445 302.8443,-144.1252 267.4303,-131.2474"/>
<polygon fill="#000000" stroke="#000000" points="268.3827,-127.8695 257.7886,-127.7413 265.9905,-134.4481 268.3827,-127.8695"/>
</g>
<!-- BacterialTyper__scripts__virulence_resistance__parse_vfdb&#45;&gt;BacterialTyper__scripts__virulence_resistance__identified_results -->
<g id="edge2" class="edge">
<title>BacterialTyper__scripts__virulence_resistance__parse_vfdb&#45;&gt;BacterialTyper__scripts__virulence_resistance__identified_results</title>
<path fill="none" stroke="#000000" d="M405.6404,-168.2022C399.7509,-159.7214 392.5913,-149.4115 386.1039,-140.0696"/>
<polygon fill="#000000" stroke="#000000" points="388.9695,-138.0599 380.3907,-131.8425 383.2199,-142.0527 388.9695,-138.0599"/>
</g>
<!-- BacterialTyper__scripts__virulence_resistance__results_parser&#45;&gt;BacterialTyper__scripts__virulence_resistance__parse_card -->
<g id="edge10" class="edge">
<title>BacterialTyper__scripts__virulence_resistance__results_parser&#45;&gt;BacterialTyper__scripts__virulence_resistance__parse_card</title>
<path fill="none" stroke="#000000" d="M265.3964,-241.8418C247.5419,-231.3904 224.1444,-217.6943 204.9899,-206.4819"/>
<polygon fill="#000000" stroke="#000000" points="206.6458,-203.3957 196.2475,-201.3644 203.1095,-209.4368 206.6458,-203.3957"/>
</g>
<!-- BacterialTyper__scripts__virulence_resistance__results_parser&#45;&gt;BacterialTyper__scripts__virulence_resistance__parse_results -->
<g id="edge11" class="edge">
<title>BacterialTyper__scripts__virulence_resistance__results_parser&#45;&gt;BacterialTyper__scripts__virulence_resistance__parse_results</title>
<path fill="none" stroke="#000000" d="M293,-239.8314C293,-232.131 293,-222.9743 293,-214.4166"/>
<polygon fill="#000000" stroke="#000000" points="296.5001,-214.4132 293,-204.4133 289.5001,-214.4133 296.5001,-214.4132"/>
</g>
<!-- BacterialTyper__scripts__virulence_resistance__results_parser&#45;&gt;BacterialTyper__scripts__virulence_resistance__parse_vfdb -->
<g id="edge9" class="edge">
<title>BacterialTyper__scripts__virulence_resistance__results_parser&#45;&gt;BacterialTyper__scripts__virulence_resistance__parse_vfdb</title>
<path fill="none" stroke="#000000" d="M320.7416,-242.0209C338.8725,-231.5775 362.7256,-217.8381 382.2714,-206.5797"/>
<polygon fill="#000000" stroke="#000000" points="384.2756,-209.4644 391.194,-201.4403 380.7817,-203.3987 384.2756,-209.4644"/>
</g>
<!-- BacterialTyper__scripts__virulence_resistance__subsetting_species -->
<g id="node14" class="node">
<title>BacterialTyper__scripts__virulence_resistance__subsetting_species</title>
<ellipse fill="#ff6565" fill-opacity="0.698039" stroke="#000000" cx="100" cy="-330" rx="76.0865" ry="18"/>
<text text-anchor="middle" x="100" y="-326.3" font-family="Times,serif" font-size="14.00" fill="#000000">subsetting_species</text>
</g>
</g>
</svg>
