<?xml version="1.0" encoding="UTF-8" standalone="no"?>
<!DOCTYPE svg PUBLIC "-//W3C//DTD SVG 1.1//EN"
 "http://www.w3.org/Graphics/SVG/1.1/DTD/svg11.dtd">
<!-- Generated by graphviz version 2.40.1 (20161225.0304)
 -->
<!-- Title: G Pages: 1 -->
<svg width="1689pt" height="417pt"
 viewBox="0.00 0.00 1689.00 417.00" xmlns="http://www.w3.org/2000/svg" xmlns:xlink="http://www.w3.org/1999/xlink">
<g id="graph0" class="graph" transform="scale(1 1) rotate(0) translate(4 413)">
<title>G</title>
<polygon fill="#ffffff" stroke="transparent" points="-4,4 -4,-413 1685,-413 1685,4 -4,4"/>
<g id="clust1" class="cluster">
<title>cluster_G</title>
<path fill="#808080" fill-opacity="0.094118" stroke="#000000" d="M20,-8C20,-8 1661,-8 1661,-8 1667,-8 1673,-14 1673,-20 1673,-20 1673,-389 1673,-389 1673,-395 1667,-401 1661,-401 1661,-401 20,-401 20,-401 14,-401 8,-395 8,-389 8,-389 8,-20 8,-20 8,-14 14,-8 20,-8"/>
</g>
<g id="clust2" class="cluster">
<title>cluster_BacterialTyper__scripts__ariba_caller</title>
<path fill="#808080" fill-opacity="0.094118" stroke="#000000" d="M531,-171C531,-171 996,-171 996,-171 1002,-171 1008,-177 1008,-183 1008,-183 1008,-234 1008,-234 1008,-240 1002,-246 996,-246 996,-246 531,-246 531,-246 525,-246 519,-240 519,-234 519,-234 519,-183 519,-183 519,-177 525,-171 531,-171"/>
<text text-anchor="middle" x="763.5" y="-230.8" font-family="Times,serif" font-size="14.00" fill="#000000">BacterialTyper.scripts.ariba_caller</text>
</g>
<g id="clust3" class="cluster">
<title>cluster_BacterialTyper__scripts__card_trick_caller</title>
<path fill="#808080" fill-opacity="0.094118" stroke="#000000" d="M506,-88C506,-88 714,-88 714,-88 720,-88 726,-94 726,-100 726,-100 726,-151 726,-151 726,-157 720,-163 714,-163 714,-163 506,-163 506,-163 500,-163 494,-157 494,-151 494,-151 494,-100 494,-100 494,-94 500,-88 506,-88"/>
<text text-anchor="middle" x="610" y="-147.8" font-family="Times,serif" font-size="14.00" fill="#000000">BacterialTyper.scripts.card_trick_caller</text>
</g>
<g id="clust4" class="cluster">
<title>cluster_BacterialTyper__scripts__functions</title>
<path fill="#808080" fill-opacity="0.094118" stroke="#000000" d="M746,-88C746,-88 1653,-88 1653,-88 1659,-88 1665,-94 1665,-100 1665,-100 1665,-151 1665,-151 1665,-157 1659,-163 1653,-163 1653,-163 746,-163 746,-163 740,-163 734,-157 734,-151 734,-151 734,-100 734,-100 734,-94 740,-88 746,-88"/>
<text text-anchor="middle" x="1199.5" y="-147.8" font-family="Times,serif" font-size="14.00" fill="#000000">BacterialTyper.scripts.functions</text>
</g>
<g id="clust5" class="cluster">
<title>cluster_BacterialTyper__scripts__virulence_resistance</title>
<path fill="#808080" fill-opacity="0.094118" stroke="#000000" d="M28,-16C28,-16 474,-16 474,-16 480,-16 486,-22 486,-28 486,-28 486,-381 486,-381 486,-387 480,-393 474,-393 474,-393 28,-393 28,-393 22,-393 16,-387 16,-381 16,-381 16,-28 16,-28 16,-22 22,-16 28,-16"/>
<text text-anchor="middle" x="251" y="-377.8" font-family="Times,serif" font-size="14.00" fill="#000000">BacterialTyper.scripts.virulence_resistance</text>
</g>
<!-- BacterialTyper__scripts__ariba_caller__ariba_expandflag -->
<g id="node1" class="node">
<title>BacterialTyper__scripts__ariba_caller__ariba_expandflag</title>
<ellipse fill="#65cbff" fill-opacity="0.698039" stroke="#000000" cx="929" cy="-197" rx="71.4873" ry="18"/>
<text text-anchor="middle" x="929" y="-193.3" font-family="Times,serif" font-size="14.00" fill="#000000">ariba_expandflag</text>
</g>
<!-- BacterialTyper__scripts__ariba_caller__ariba_summary -->
<g id="node2" class="node">
<title>BacterialTyper__scripts__ariba_caller__ariba_summary</title>
<ellipse fill="#65cbff" fill-opacity="0.698039" stroke="#000000" cx="773" cy="-197" rx="66.0889" ry="18"/>
<text text-anchor="middle" x="773" y="-193.3" font-family="Times,serif" font-size="14.00" fill="#000000">ariba_summary</text>
</g>
<!-- BacterialTyper__scripts__ariba_caller__fix_ariba_summary -->
<g id="node3" class="node">
<title>BacterialTyper__scripts__ariba_caller__fix_ariba_summary</title>
<ellipse fill="#65cbff" fill-opacity="0.698039" stroke="#000000" cx="608" cy="-197" rx="80.6858" ry="18"/>
<text text-anchor="middle" x="608" y="-193.3" font-family="Times,serif" font-size="14.00" fill="#000000">fix_ariba_summary</text>
</g>
<!-- BacterialTyper__scripts__card_trick_caller__get_info_CARD -->
<g id="node4" class="node">
<title>BacterialTyper__scripts__card_trick_caller__get_info_CARD</title>
<ellipse fill="#658eff" fill-opacity="0.698039" stroke="#000000" cx="571" cy="-114" rx="68.7879" ry="18"/>
<text text-anchor="middle" x="571" y="-110.3" font-family="Times,serif" font-size="14.00" fill="#000000">get_info_CARD</text>
</g>
<!-- BacterialTyper__scripts__functions__create_folder -->
<g id="node5" class="node">
<title>BacterialTyper__scripts__functions__create_folder</title>
<ellipse fill="#a365ff" fill-opacity="0.698039" stroke="#000000" cx="1049" cy="-114" rx="57.3905" ry="18"/>
<text text-anchor="middle" x="1049" y="-110.3" font-family="Times,serif" font-size="14.00" fill="#000000">create_folder</text>
</g>
<!-- BacterialTyper__scripts__functions__extract -->
<g id="node6" class="node">
<title>BacterialTyper__scripts__functions__extract</title>
<ellipse fill="#a365ff" fill-opacity="0.698039" stroke="#000000" cx="1623" cy="-114" rx="34.394" ry="18"/>
<text text-anchor="middle" x="1623" y="-110.3" font-family="Times,serif" font-size="14.00" fill="#000000">extract</text>
</g>
<!-- BacterialTyper__scripts__functions__get_data -->
<g id="node7" class="node">
<title>BacterialTyper__scripts__functions__get_data</title>
<ellipse fill="#a365ff" fill-opacity="0.698039" stroke="#000000" cx="782" cy="-114" rx="40.0939" ry="18"/>
<text text-anchor="middle" x="782" y="-110.3" font-family="Times,serif" font-size="14.00" fill="#000000">get_data</text>
</g>
<!-- BacterialTyper__scripts__functions__get_diff_time -->
<g id="node8" class="node">
<title>BacterialTyper__scripts__functions__get_diff_time</title>
<ellipse fill="#a365ff" fill-opacity="0.698039" stroke="#000000" cx="1349" cy="-114" rx="59.2899" ry="18"/>
<text text-anchor="middle" x="1349" y="-110.3" font-family="Times,serif" font-size="14.00" fill="#000000">get_diff_time</text>
</g>
<!-- BacterialTyper__scripts__functions__print_time_stamp -->
<g id="node9" class="node">
<title>BacterialTyper__scripts__functions__print_time_stamp</title>
<ellipse fill="#a365ff" fill-opacity="0.698039" stroke="#000000" cx="1198" cy="-114" rx="73.387" ry="18"/>
<text text-anchor="middle" x="1198" y="-110.3" font-family="Times,serif" font-size="14.00" fill="#000000">print_time_stamp</text>
</g>
<!-- BacterialTyper__scripts__functions__read_time_stamp -->
<g id="node10" class="node">
<title>BacterialTyper__scripts__functions__read_time_stamp</title>
<ellipse fill="#a365ff" fill-opacity="0.698039" stroke="#000000" cx="1498" cy="-114" rx="72.2875" ry="18"/>
<text text-anchor="middle" x="1498" y="-110.3" font-family="Times,serif" font-size="14.00" fill="#000000">read_time_stamp</text>
</g>
<!-- BacterialTyper__scripts__functions__wget_download -->
<g id="node11" class="node">
<title>BacterialTyper__scripts__functions__wget_download</title>
<ellipse fill="#a365ff" fill-opacity="0.698039" stroke="#000000" cx="907" cy="-114" rx="66.8882" ry="18"/>
<text text-anchor="middle" x="907" y="-110.3" font-family="Times,serif" font-size="14.00" fill="#000000">wget_download</text>
</g>
<!-- BacterialTyper__scripts__virulence_resistance__check_VFDB -->
<g id="node12" class="node">
<title>BacterialTyper__scripts__virulence_resistance__check_VFDB</title>
<ellipse fill="#ff658e" fill-opacity="0.698039" stroke="#000000" cx="385" cy="-344" rx="59.2899" ry="18"/>
<text text-anchor="middle" x="385" y="-340.3" font-family="Times,serif" font-size="14.00" fill="#000000">check_VFDB</text>
</g>
<!-- BacterialTyper__scripts__virulence_resistance__download_VFDB_files -->
<g id="node14" class="node">
<title>BacterialTyper__scripts__virulence_resistance__download_VFDB_files</title>
<ellipse fill="#ff658e" fill-opacity="0.698039" stroke="#000000" cx="385" cy="-272" rx="92.8835" ry="18"/>
<text text-anchor="middle" x="385" y="-268.3" font-family="Times,serif" font-size="14.00" fill="#000000">download_VFDB_files</text>
</g>
<!-- BacterialTyper__scripts__virulence_resistance__check_VFDB&#45;&gt;BacterialTyper__scripts__virulence_resistance__download_VFDB_files -->
<g id="edge19" class="edge">
<title>BacterialTyper__scripts__virulence_resistance__check_VFDB&#45;&gt;BacterialTyper__scripts__virulence_resistance__download_VFDB_files</title>
<path fill="none" stroke="#000000" d="M385,-325.8314C385,-325.8314 385,-300.4133 385,-300.4133"/>
<polygon fill="#000000" stroke="#000000" points="388.5001,-300.4132 385,-290.4133 381.5001,-300.4133 388.5001,-300.4132"/>
</g>
<!-- BacterialTyper__scripts__virulence_resistance__check_results -->
<g id="node13" class="node">
<title>BacterialTyper__scripts__virulence_resistance__check_results</title>
<ellipse fill="#ff658e" fill-opacity="0.698039" stroke="#000000" cx="214" cy="-344" rx="58.4896" ry="18"/>
<text text-anchor="middle" x="214" y="-340.3" font-family="Times,serif" font-size="14.00" fill="#000000">check_results</text>
</g>
<!-- BacterialTyper__scripts__virulence_resistance__check_results&#45;&gt;BacterialTyper__scripts__functions__read_time_stamp -->
<g id="edge9" class="edge">
<title>BacterialTyper__scripts__virulence_resistance__check_results&#45;&gt;BacterialTyper__scripts__functions__read_time_stamp</title>
<path fill="none" stroke="#000000" d="M233.4983,-326.8435C233.4983,-317.5713 233.4983,-308 233.4983,-308 233.4983,-308 1522.0479,-308 1522.0479,-308 1522.0479,-308 1522.0479,-141.2162 1522.0479,-141.2162"/>
<polygon fill="#000000" stroke="#000000" points="1525.548,-141.2162 1522.0479,-131.2162 1518.548,-141.2162 1525.548,-141.2162"/>
</g>
<!-- BacterialTyper__scripts__virulence_resistance__results_parser -->
<g id="node23" class="node">
<title>BacterialTyper__scripts__virulence_resistance__results_parser</title>
<ellipse fill="#ff658e" fill-opacity="0.698039" stroke="#000000" cx="214" cy="-272" rx="59.5901" ry="18"/>
<text text-anchor="middle" x="214" y="-268.3" font-family="Times,serif" font-size="14.00" fill="#000000">results_parser</text>
</g>
<!-- BacterialTyper__scripts__virulence_resistance__check_results&#45;&gt;BacterialTyper__scripts__virulence_resistance__results_parser -->
<g id="edge10" class="edge">
<title>BacterialTyper__scripts__virulence_resistance__check_results&#45;&gt;BacterialTyper__scripts__virulence_resistance__results_parser</title>
<path fill="none" stroke="#000000" d="M194.5017,-326.937C194.5017,-326.937 194.5017,-299.4407 194.5017,-299.4407"/>
<polygon fill="#000000" stroke="#000000" points="198.0018,-299.4406 194.5017,-289.4407 191.0018,-299.4407 198.0018,-299.4406"/>
</g>
<!-- BacterialTyper__scripts__virulence_resistance__download_VFDB_files&#45;&gt;BacterialTyper__scripts__functions__create_folder -->
<g id="edge25" class="edge">
<title>BacterialTyper__scripts__virulence_resistance__download_VFDB_files&#45;&gt;BacterialTyper__scripts__functions__create_folder</title>
<path fill="none" stroke="#000000" d="M468.2949,-264C647.4564,-264 1053.3443,-264 1053.3443,-264 1053.3443,-264 1053.3443,-142.0935 1053.3443,-142.0935"/>
<polygon fill="#000000" stroke="#000000" points="1056.8444,-142.0935 1053.3443,-132.0935 1049.8444,-142.0935 1056.8444,-142.0935"/>
</g>
<!-- BacterialTyper__scripts__virulence_resistance__download_VFDB_files&#45;&gt;BacterialTyper__scripts__functions__extract -->
<g id="edge23" class="edge">
<title>BacterialTyper__scripts__virulence_resistance__download_VFDB_files&#45;&gt;BacterialTyper__scripts__functions__extract</title>
<path fill="none" stroke="#000000" d="M454.4055,-284C716.9435,-284 1634.4823,-284 1634.4823,-284 1634.4823,-284 1634.4823,-141.236 1634.4823,-141.236"/>
<polygon fill="#000000" stroke="#000000" points="1637.9824,-141.236 1634.4823,-131.236 1630.9824,-141.2361 1637.9824,-141.236"/>
</g>
<!-- BacterialTyper__scripts__virulence_resistance__download_VFDB_files&#45;&gt;BacterialTyper__scripts__functions__get_diff_time -->
<g id="edge20" class="edge">
<title>BacterialTyper__scripts__virulence_resistance__download_VFDB_files&#45;&gt;BacterialTyper__scripts__functions__get_diff_time</title>
<path fill="none" stroke="#000000" d="M477.4324,-274C718.7138,-274 1349,-274 1349,-274 1349,-274 1349,-142.043 1349,-142.043"/>
<polygon fill="#000000" stroke="#000000" points="1352.5001,-142.043 1349,-132.043 1345.5001,-142.0431 1352.5001,-142.043"/>
</g>
<!-- BacterialTyper__scripts__virulence_resistance__download_VFDB_files&#45;&gt;BacterialTyper__scripts__functions__print_time_stamp -->
<g id="edge24" class="edge">
<title>BacterialTyper__scripts__virulence_resistance__download_VFDB_files&#45;&gt;BacterialTyper__scripts__functions__print_time_stamp</title>
<path fill="none" stroke="#000000" d="M477.0208,-269C694.5756,-269 1222.4812,-269 1222.4812,-269 1222.4812,-269 1222.4812,-141.1799 1222.4812,-141.1799"/>
<polygon fill="#000000" stroke="#000000" points="1225.9813,-141.1799 1222.4812,-131.1799 1218.9813,-141.18 1225.9813,-141.1799"/>
</g>
<!-- BacterialTyper__scripts__virulence_resistance__download_VFDB_files&#45;&gt;BacterialTyper__scripts__functions__read_time_stamp -->
<g id="edge22" class="edge">
<title>BacterialTyper__scripts__virulence_resistance__download_VFDB_files&#45;&gt;BacterialTyper__scripts__functions__read_time_stamp</title>
<path fill="none" stroke="#000000" d="M470.9028,-279C728.0389,-279 1473.9521,-279 1473.9521,-279 1473.9521,-279 1473.9521,-141.0364 1473.9521,-141.0364"/>
<polygon fill="#000000" stroke="#000000" points="1477.4522,-141.0364 1473.9521,-131.0364 1470.4522,-141.0365 1477.4522,-141.0364"/>
</g>
<!-- BacterialTyper__scripts__virulence_resistance__download_VFDB_files&#45;&gt;BacterialTyper__scripts__functions__wget_download -->
<g id="edge21" class="edge">
<title>BacterialTyper__scripts__virulence_resistance__download_VFDB_files&#45;&gt;BacterialTyper__scripts__functions__wget_download</title>
<path fill="none" stroke="#000000" d="M449.4868,-259C576.9212,-259 848.7811,-259 848.7811,-259 848.7811,-259 848.7811,-133.0704 848.7811,-133.0704"/>
<polygon fill="#000000" stroke="#000000" points="852.2812,-133.0704 848.7811,-123.0704 845.2812,-133.0704 852.2812,-133.0704"/>
</g>
<!-- BacterialTyper__scripts__virulence_resistance__found_results -->
<g id="node15" class="node">
<title>BacterialTyper__scripts__virulence_resistance__found_results</title>
<ellipse fill="#ff658e" fill-opacity="0.698039" stroke="#000000" cx="141" cy="-114" rx="58.4896" ry="18"/>
<text text-anchor="middle" x="141" y="-110.3" font-family="Times,serif" font-size="14.00" fill="#000000">found_results</text>
</g>
<!-- BacterialTyper__scripts__virulence_resistance__get_id -->
<g id="node16" class="node">
<title>BacterialTyper__scripts__virulence_resistance__get_id</title>
<ellipse fill="#ff658e" fill-opacity="0.698039" stroke="#000000" cx="215" cy="-42" rx="32.4942" ry="18"/>
<text text-anchor="middle" x="215" y="-38.3" font-family="Times,serif" font-size="14.00" fill="#000000">get_id</text>
</g>
<!-- BacterialTyper__scripts__virulence_resistance__found_results&#45;&gt;BacterialTyper__scripts__virulence_resistance__get_id -->
<g id="edge7" class="edge">
<title>BacterialTyper__scripts__virulence_resistance__found_results&#45;&gt;BacterialTyper__scripts__virulence_resistance__get_id</title>
<path fill="none" stroke="#000000" d="M190.9988,-104.5873C190.9988,-104.5873 190.9988,-64.562 190.9988,-64.562"/>
<polygon fill="#000000" stroke="#000000" points="194.4989,-64.562 190.9988,-54.562 187.4989,-64.5621 194.4989,-64.562"/>
</g>
<!-- BacterialTyper__scripts__virulence_resistance__help_options -->
<g id="node17" class="node">
<title>BacterialTyper__scripts__virulence_resistance__help_options</title>
<ellipse fill="#ff658e" fill-opacity="0.698039" stroke="#000000" cx="80" cy="-272" rx="55.7903" ry="18"/>
<text text-anchor="middle" x="80" y="-268.3" font-family="Times,serif" font-size="14.00" fill="#000000">help_options</text>
</g>
<!-- BacterialTyper__scripts__virulence_resistance__identified_results -->
<g id="node18" class="node">
<title>BacterialTyper__scripts__virulence_resistance__identified_results</title>
<ellipse fill="#ff658e" fill-opacity="0.698039" stroke="#000000" cx="289" cy="-114" rx="71.4873" ry="18"/>
<text text-anchor="middle" x="289" y="-110.3" font-family="Times,serif" font-size="14.00" fill="#000000">identified_results</text>
</g>
<!-- BacterialTyper__scripts__virulence_resistance__identified_results&#45;&gt;BacterialTyper__scripts__virulence_resistance__get_id -->
<g id="edge8" class="edge">
<title>BacterialTyper__scripts__virulence_resistance__identified_results&#45;&gt;BacterialTyper__scripts__virulence_resistance__get_id</title>
<path fill="none" stroke="#000000" d="M232.5017,-102.75C232.5017,-102.75 232.5017,-67.1814 232.5017,-67.1814"/>
<polygon fill="#000000" stroke="#000000" points="236.0018,-67.1813 232.5017,-57.1814 229.0018,-67.1814 236.0018,-67.1813"/>
</g>
<!-- BacterialTyper__scripts__virulence_resistance__main -->
<g id="node19" class="node">
<title>BacterialTyper__scripts__virulence_resistance__main</title>
<ellipse fill="#ff658e" fill-opacity="0.698039" stroke="#000000" cx="80" cy="-344" rx="28.6953" ry="18"/>
<text text-anchor="middle" x="80" y="-340.3" font-family="Times,serif" font-size="14.00" fill="#000000">main</text>
</g>
<!-- BacterialTyper__scripts__virulence_resistance__main&#45;&gt;BacterialTyper__scripts__virulence_resistance__help_options -->
<g id="edge26" class="edge">
<title>BacterialTyper__scripts__virulence_resistance__main&#45;&gt;BacterialTyper__scripts__virulence_resistance__help_options</title>
<path fill="none" stroke="#000000" d="M80,-325.8314C80,-325.8314 80,-300.4133 80,-300.4133"/>
<polygon fill="#000000" stroke="#000000" points="83.5001,-300.4132 80,-290.4133 76.5001,-300.4133 83.5001,-300.4132"/>
</g>
<!-- BacterialTyper__scripts__virulence_resistance__parse_card -->
<g id="node20" class="node">
<title>BacterialTyper__scripts__virulence_resistance__parse_card</title>
<ellipse fill="#ff658e" fill-opacity="0.698039" stroke="#000000" cx="91" cy="-197" rx="48.9926" ry="18"/>
<text text-anchor="middle" x="91" y="-193.3" font-family="Times,serif" font-size="14.00" fill="#000000">parse_card</text>
</g>
<!-- BacterialTyper__scripts__virulence_resistance__parse_card&#45;&gt;BacterialTyper__scripts__card_trick_caller__get_info_CARD -->
<g id="edge6" class="edge">
<title>BacterialTyper__scripts__virulence_resistance__parse_card&#45;&gt;BacterialTyper__scripts__card_trick_caller__get_info_CARD</title>
<path fill="none" stroke="#000000" d="M116.8495,-181.5231C116.8495,-171.3841 116.8495,-160 116.8495,-160 116.8495,-160 514.7566,-160 514.7566,-160 514.7566,-160 514.7566,-134.6689 514.7566,-134.6689"/>
<polygon fill="#000000" stroke="#000000" points="518.2567,-134.6689 514.7566,-124.6689 511.2567,-134.669 518.2567,-134.6689"/>
</g>
<!-- BacterialTyper__scripts__virulence_resistance__parse_card&#45;&gt;BacterialTyper__scripts__functions__get_data -->
<g id="edge3" class="edge">
<title>BacterialTyper__scripts__virulence_resistance__parse_card&#45;&gt;BacterialTyper__scripts__functions__get_data</title>
<path fill="none" stroke="#000000" d="M128.2976,-185.2877C128.2976,-177.615 128.2976,-169 128.2976,-169 128.2976,-169 782,-169 782,-169 782,-169 782,-142.0091 782,-142.0091"/>
<polygon fill="#000000" stroke="#000000" points="785.5001,-142.009 782,-132.0091 778.5001,-142.0091 785.5001,-142.009"/>
</g>
<!-- BacterialTyper__scripts__virulence_resistance__parse_card&#45;&gt;BacterialTyper__scripts__virulence_resistance__found_results -->
<g id="edge4" class="edge">
<title>BacterialTyper__scripts__virulence_resistance__parse_card&#45;&gt;BacterialTyper__scripts__virulence_resistance__found_results</title>
<path fill="none" stroke="#000000" d="M93.9533,-178.9902C93.9533,-178.9902 93.9533,-135.1023 93.9533,-135.1023"/>
<polygon fill="#000000" stroke="#000000" points="97.4534,-135.1022 93.9533,-125.1023 90.4534,-135.1023 97.4534,-135.1022"/>
</g>
<!-- BacterialTyper__scripts__virulence_resistance__parse_card&#45;&gt;BacterialTyper__scripts__virulence_resistance__identified_results -->
<g id="edge5" class="edge">
<title>BacterialTyper__scripts__virulence_resistance__parse_card&#45;&gt;BacterialTyper__scripts__virulence_resistance__identified_results</title>
<path fill="none" stroke="#000000" d="M105.4014,-179.5882C105.4014,-163.1493 105.4014,-141 105.4014,-141 105.4014,-141 244.0257,-141 244.0257,-141 244.0257,-141 244.0257,-138.1326 244.0257,-138.1326"/>
<polygon fill="#000000" stroke="#000000" points="247.5258,-138.1326 244.0257,-128.1326 240.5258,-138.1326 247.5258,-138.1326"/>
</g>
<!-- BacterialTyper__scripts__virulence_resistance__parse_results -->
<g id="node21" class="node">
<title>BacterialTyper__scripts__virulence_resistance__parse_results</title>
<ellipse fill="#ff658e" fill-opacity="0.698039" stroke="#000000" cx="214" cy="-197" rx="56.59" ry="18"/>
<text text-anchor="middle" x="214" y="-193.3" font-family="Times,serif" font-size="14.00" fill="#000000">parse_results</text>
</g>
<!-- BacterialTyper__scripts__virulence_resistance__parse_vfdb -->
<g id="node22" class="node">
<title>BacterialTyper__scripts__virulence_resistance__parse_vfdb</title>
<ellipse fill="#ff658e" fill-opacity="0.698039" stroke="#000000" cx="339" cy="-197" rx="50.0912" ry="18"/>
<text text-anchor="middle" x="339" y="-193.3" font-family="Times,serif" font-size="14.00" fill="#000000">parse_vfdb</text>
</g>
<!-- BacterialTyper__scripts__virulence_resistance__parse_vfdb&#45;&gt;BacterialTyper__scripts__virulence_resistance__found_results -->
<g id="edge1" class="edge">
<title>BacterialTyper__scripts__virulence_resistance__parse_vfdb&#45;&gt;BacterialTyper__scripts__virulence_resistance__found_results</title>
<path fill="none" stroke="#000000" d="M312.8008,-181.6104C312.8008,-167.9033 312.8008,-150 312.8008,-150 312.8008,-150 178.4749,-150 178.4749,-150 178.4749,-150 178.4749,-138.2282 178.4749,-138.2282"/>
<polygon fill="#000000" stroke="#000000" points="181.975,-138.2281 178.4749,-128.2282 174.975,-138.2282 181.975,-138.2281"/>
</g>
<!-- BacterialTyper__scripts__virulence_resistance__parse_vfdb&#45;&gt;BacterialTyper__scripts__virulence_resistance__identified_results -->
<g id="edge2" class="edge">
<title>BacterialTyper__scripts__virulence_resistance__parse_vfdb&#45;&gt;BacterialTyper__scripts__virulence_resistance__identified_results</title>
<path fill="none" stroke="#000000" d="M336.6473,-178.9902C336.6473,-178.9902 336.6473,-137.6041 336.6473,-137.6041"/>
<polygon fill="#000000" stroke="#000000" points="340.1474,-137.6041 336.6473,-127.6041 333.1474,-137.6042 340.1474,-137.6041"/>
</g>
<!-- BacterialTyper__scripts__virulence_resistance__results_parser&#45;&gt;BacterialTyper__scripts__ariba_caller__ariba_expandflag -->
<g id="edge11" class="edge">
<title>BacterialTyper__scripts__virulence_resistance__results_parser&#45;&gt;BacterialTyper__scripts__ariba_caller__ariba_expandflag</title>
<path fill="none" stroke="#000000" d="M222.0779,-253.8903C222.0779,-244.103 222.0779,-234 222.0779,-234 222.0779,-234 929,-234 929,-234 929,-234 929,-225.0664 929,-225.0664"/>
<polygon fill="#000000" stroke="#000000" points="932.5001,-225.0664 929,-215.0664 925.5001,-225.0665 932.5001,-225.0664"/>
</g>
<!-- BacterialTyper__scripts__virulence_resistance__results_parser&#45;&gt;BacterialTyper__scripts__ariba_caller__ariba_summary -->
<g id="edge18" class="edge">
<title>BacterialTyper__scripts__virulence_resistance__results_parser&#45;&gt;BacterialTyper__scripts__ariba_caller__ariba_summary</title>
<path fill="none" stroke="#000000" d="M205.9221,-254.1035C205.9221,-241.9219 205.9221,-228 205.9221,-228 205.9221,-228 773,-228 773,-228 773,-228 773,-225.0328 773,-225.0328"/>
<polygon fill="#000000" stroke="#000000" points="776.5001,-225.0328 773,-215.0328 769.5001,-225.0329 776.5001,-225.0328"/>
</g>
<!-- BacterialTyper__scripts__virulence_resistance__results_parser&#45;&gt;BacterialTyper__scripts__ariba_caller__fix_ariba_summary -->
<g id="edge15" class="edge">
<title>BacterialTyper__scripts__virulence_resistance__results_parser&#45;&gt;BacterialTyper__scripts__ariba_caller__fix_ariba_summary</title>
<path fill="none" stroke="#000000" d="M189.7664,-255.3007C189.7664,-240.4269 189.7664,-221 189.7664,-221 189.7664,-221 608,-221 608,-221 608,-221 608,-220.419 608,-220.419"/>
<polygon fill="#000000" stroke="#000000" points="611.5002,-225.1902 608,-215.1903 604.5002,-225.1903 611.5002,-225.1902"/>
</g>
<!-- BacterialTyper__scripts__virulence_resistance__results_parser&#45;&gt;BacterialTyper__scripts__functions__extract -->
<g id="edge13" class="edge">
<title>BacterialTyper__scripts__virulence_resistance__results_parser&#45;&gt;BacterialTyper__scripts__functions__extract</title>
<path fill="none" stroke="#000000" d="M254.3893,-258.6217C254.3893,-252.6778 254.3893,-247 254.3893,-247 254.3893,-247 1611.5177,-247 1611.5177,-247 1611.5177,-247 1611.5177,-141.1151 1611.5177,-141.1151"/>
<polygon fill="#000000" stroke="#000000" points="1615.0178,-141.1151 1611.5177,-131.1151 1608.0178,-141.1152 1615.0178,-141.1151"/>
</g>
<!-- BacterialTyper__scripts__virulence_resistance__results_parser&#45;&gt;BacterialTyper__scripts__functions__print_time_stamp -->
<g id="edge14" class="edge">
<title>BacterialTyper__scripts__virulence_resistance__results_parser&#45;&gt;BacterialTyper__scripts__functions__print_time_stamp</title>
<path fill="none" stroke="#000000" d="M238.2336,-255.411C238.2336,-248.0405 238.2336,-241 238.2336,-241 238.2336,-241 1173.5188,-241 1173.5188,-241 1173.5188,-241 1173.5188,-141.1278 1173.5188,-141.1278"/>
<polygon fill="#000000" stroke="#000000" points="1177.0189,-141.1278 1173.5188,-131.1278 1170.0189,-141.1278 1177.0189,-141.1278"/>
</g>
<!-- BacterialTyper__scripts__virulence_resistance__results_parser&#45;&gt;BacterialTyper__scripts__virulence_resistance__parse_card -->
<g id="edge17" class="edge">
<title>BacterialTyper__scripts__virulence_resistance__results_parser&#45;&gt;BacterialTyper__scripts__virulence_resistance__parse_card</title>
<path fill="none" stroke="#000000" d="M154.1483,-272C149.7409,-272 146.9755,-272 146.9755,-272 146.9755,-272 146.9755,-197 146.9755,-197 146.9755,-197 146.2891,-197 146.2891,-197"/>
<polygon fill="#000000" stroke="#000000" points="150.1119,-193.5002 140.1118,-197 150.1117,-200.5002 150.1119,-193.5002"/>
</g>
<!-- BacterialTyper__scripts__virulence_resistance__results_parser&#45;&gt;BacterialTyper__scripts__virulence_resistance__parse_results -->
<g id="edge12" class="edge">
<title>BacterialTyper__scripts__virulence_resistance__results_parser&#45;&gt;BacterialTyper__scripts__virulence_resistance__parse_results</title>
<path fill="none" stroke="#000000" d="M173.6107,-258.5915C173.6107,-258.5915 173.6107,-219.7918 173.6107,-219.7918"/>
<polygon fill="#000000" stroke="#000000" points="177.1108,-219.7918 173.6107,-209.7918 170.1108,-219.7918 177.1108,-219.7918"/>
</g>
<!-- BacterialTyper__scripts__virulence_resistance__results_parser&#45;&gt;BacterialTyper__scripts__virulence_resistance__parse_vfdb -->
<g id="edge16" class="edge">
<title>BacterialTyper__scripts__virulence_resistance__results_parser&#45;&gt;BacterialTyper__scripts__virulence_resistance__parse_vfdb</title>
<path fill="none" stroke="#000000" d="M273.9069,-272C278.4868,-272 281.3746,-272 281.3746,-272 281.3746,-272 281.3746,-197 281.3746,-197 281.3746,-197 282.1279,-197 282.1279,-197"/>
<polygon fill="#000000" stroke="#000000" points="278.9081,-200.5001 288.9081,-197 278.908,-193.5001 278.9081,-200.5001"/>
</g>
</g>
</svg>
