<?xml version="1.0" encoding="UTF-8" standalone="no"?>
<!DOCTYPE svg PUBLIC "-//W3C//DTD SVG 1.1//EN"
 "http://www.w3.org/Graphics/SVG/1.1/DTD/svg11.dtd">
<!-- Generated by graphviz version 2.40.1 (20161225.0304)
 -->
<!-- Title: G Pages: 1 -->
<svg width="428pt" height="231pt"
 viewBox="0.00 0.00 428.00 231.00" xmlns="http://www.w3.org/2000/svg" xmlns:xlink="http://www.w3.org/1999/xlink">
<g id="graph0" class="graph" transform="scale(1 1) rotate(0) translate(4 227)">
<title>G</title>
<polygon fill="#ffffff" stroke="transparent" points="-4,4 -4,-227 424,-227 424,4 -4,4"/>
<g id="clust1" class="cluster">
<title>cluster_G</title>
<path fill="#808080" fill-opacity="0.094118" stroke="#000000" d="M20,-8C20,-8 400,-8 400,-8 406,-8 412,-14 412,-20 412,-20 412,-203 412,-203 412,-209 406,-215 400,-215 400,-215 20,-215 20,-215 14,-215 8,-209 8,-203 8,-203 8,-20 8,-20 8,-14 14,-8 20,-8"/>
</g>
<g id="clust2" class="cluster">
<title>cluster_BacterialTyper__scripts__annotation</title>
<path fill="#808080" fill-opacity="0.094118" stroke="#000000" d="M28,-16C28,-16 392,-16 392,-16 398,-16 404,-22 404,-28 404,-28 404,-151 404,-151 404,-157 398,-163 392,-163 392,-163 28,-163 28,-163 22,-163 16,-157 16,-151 16,-151 16,-28 16,-28 16,-22 22,-16 28,-16"/>
<text text-anchor="middle" x="210" y="-147.8" font-family="Times,serif" font-size="14.00" fill="#000000">BacterialTyper.scripts.annotation</text>
</g>
<!-- BacterialTyper__scripts__annotation -->
<g id="node1" class="node">
<title>BacterialTyper__scripts__annotation</title>
<ellipse fill="#ffffff" fill-opacity="0.698039" stroke="#000000" cx="276" cy="-189" rx="128.0773" ry="18"/>
<text text-anchor="middle" x="276" y="-185.3" font-family="Times,serif" font-size="14.00" fill="#000000">BacterialTyper.scripts.annotation</text>
</g>
<!-- BacterialTyper__scripts__annotation__main -->
<g id="node3" class="node">
<title>BacterialTyper__scripts__annotation__main</title>
<ellipse fill="#ff6565" fill-opacity="0.698039" stroke="#000000" cx="340" cy="-114" rx="28.6953" ry="18"/>
<text text-anchor="middle" x="340" y="-110.3" font-family="Times,serif" font-size="14.00" fill="#000000">main</text>
</g>
<!-- BacterialTyper__scripts__annotation&#45;&gt;BacterialTyper__scripts__annotation__main -->
<g id="edge1" class="edge">
<title>BacterialTyper__scripts__annotation&#45;&gt;BacterialTyper__scripts__annotation__main</title>
<path fill="none" stroke="#000000" d="M295.2618,-171.1804C297.9299,-168.5042 300.582,-165.7265 303,-163 309.6486,-155.5033 316.4032,-146.9055 322.2896,-139.0259"/>
<polygon fill="#000000" stroke="#000000" points="325.1986,-140.9776 328.29,-130.8438 319.5538,-136.8379 325.1986,-140.9776"/>
</g>
<!-- BacterialTyper__scripts__annotation__help_options -->
<g id="node2" class="node">
<title>BacterialTyper__scripts__annotation__help_options</title>
<ellipse fill="#ff6565" fill-opacity="0.698039" stroke="#000000" cx="340" cy="-42" rx="55.7903" ry="18"/>
<text text-anchor="middle" x="340" y="-38.3" font-family="Times,serif" font-size="14.00" fill="#000000">help_options</text>
</g>
<!-- BacterialTyper__scripts__annotation__main&#45;&gt;BacterialTyper__scripts__annotation__help_options -->
<g id="edge4" class="edge">
<title>BacterialTyper__scripts__annotation__main&#45;&gt;BacterialTyper__scripts__annotation__help_options</title>
<path fill="none" stroke="#000000" d="M340,-95.8314C340,-88.131 340,-78.9743 340,-70.4166"/>
<polygon fill="#000000" stroke="#000000" points="343.5001,-70.4132 340,-60.4133 336.5001,-70.4133 343.5001,-70.4132"/>
</g>
<!-- BacterialTyper__scripts__annotation__prokka_call -->
<g id="node6" class="node">
<title>BacterialTyper__scripts__annotation__prokka_call</title>
<ellipse fill="#ff6565" fill-opacity="0.698039" stroke="#000000" cx="214" cy="-42" rx="51.9908" ry="18"/>
<text text-anchor="middle" x="214" y="-38.3" font-family="Times,serif" font-size="14.00" fill="#000000">prokka_call</text>
</g>
<!-- BacterialTyper__scripts__annotation__main&#45;&gt;BacterialTyper__scripts__annotation__prokka_call -->
<g id="edge3" class="edge">
<title>BacterialTyper__scripts__annotation__main&#45;&gt;BacterialTyper__scripts__annotation__prokka_call</title>
<path fill="none" stroke="#000000" d="M318.6258,-101.7862C299.8661,-91.0664 272.1934,-75.2534 250.019,-62.5823"/>
<polygon fill="#000000" stroke="#000000" points="251.6233,-59.4679 241.2044,-57.5454 248.1503,-65.5457 251.6233,-59.4679"/>
</g>
<!-- BacterialTyper__scripts__annotation__module_call -->
<g id="node4" class="node">
<title>BacterialTyper__scripts__annotation__module_call</title>
<ellipse fill="#ff6565" fill-opacity="0.698039" stroke="#000000" cx="239" cy="-114" rx="54.6905" ry="18"/>
<text text-anchor="middle" x="239" y="-110.3" font-family="Times,serif" font-size="14.00" fill="#000000">module_call</text>
</g>
<!-- BacterialTyper__scripts__annotation__module_call&#45;&gt;BacterialTyper__scripts__annotation__prokka_call -->
<g id="edge2" class="edge">
<title>BacterialTyper__scripts__annotation__module_call&#45;&gt;BacterialTyper__scripts__annotation__prokka_call</title>
<path fill="none" stroke="#000000" d="M232.6914,-95.8314C229.9169,-87.8406 226.5979,-78.2819 223.5317,-69.4514"/>
<polygon fill="#000000" stroke="#000000" points="226.8065,-68.2121 220.2199,-59.9134 220.1938,-70.5082 226.8065,-68.2121"/>
</g>
<!-- BacterialTyper__scripts__annotation__print_list_prokka -->
<g id="node5" class="node">
<title>BacterialTyper__scripts__annotation__print_list_prokka</title>
<ellipse fill="#ff6565" fill-opacity="0.698039" stroke="#000000" cx="95" cy="-114" rx="71.4873" ry="18"/>
<text text-anchor="middle" x="95" y="-110.3" font-family="Times,serif" font-size="14.00" fill="#000000">print_list_prokka</text>
</g>
</g>
</svg>
