<?xml version="1.0" encoding="UTF-8" standalone="no"?>
<!DOCTYPE svg PUBLIC "-//W3C//DTD SVG 1.1//EN"
 "http://www.w3.org/Graphics/SVG/1.1/DTD/svg11.dtd">
<!-- Generated by graphviz version 2.40.1 (20161225.0304)
 -->
<!-- Title: G Pages: 1 -->
<svg width="1255pt" height="303pt"
 viewBox="0.00 0.00 1255.00 303.00" xmlns="http://www.w3.org/2000/svg" xmlns:xlink="http://www.w3.org/1999/xlink">
<g id="graph0" class="graph" transform="scale(1 1) rotate(0) translate(4 299)">
<title>G</title>
<polygon fill="#ffffff" stroke="transparent" points="-4,4 -4,-299 1251,-299 1251,4 -4,4"/>
<g id="clust1" class="cluster">
<title>cluster_G</title>
<path fill="#808080" fill-opacity="0.094118" stroke="#000000" d="M20,-8C20,-8 1227,-8 1227,-8 1233,-8 1239,-14 1239,-20 1239,-20 1239,-275 1239,-275 1239,-281 1233,-287 1227,-287 1227,-287 20,-287 20,-287 14,-287 8,-281 8,-275 8,-275 8,-20 8,-20 8,-14 14,-8 20,-8"/>
</g>
<g id="clust2" class="cluster">
<title>cluster_BacterialTyper__scripts__ariba_caller</title>
<path fill="#808080" fill-opacity="0.094118" stroke="#000000" d="M28,-16C28,-16 1219,-16 1219,-16 1225,-16 1231,-22 1231,-28 1231,-28 1231,-223 1231,-223 1231,-229 1225,-235 1219,-235 1219,-235 28,-235 28,-235 22,-235 16,-229 16,-223 16,-223 16,-28 16,-28 16,-22 22,-16 28,-16"/>
<text text-anchor="middle" x="623.5" y="-219.8" font-family="Times,serif" font-size="14.00" fill="#000000">BacterialTyper.scripts.ariba_caller</text>
</g>
<!-- BacterialTyper__scripts__ariba_caller -->
<g id="node1" class="node">
<title>BacterialTyper__scripts__ariba_caller</title>
<ellipse fill="#ffffff" fill-opacity="0.698039" stroke="#000000" cx="169" cy="-261" rx="132.6765" ry="18"/>
<text text-anchor="middle" x="169" y="-257.3" font-family="Times,serif" font-size="14.00" fill="#000000">BacterialTyper.scripts.ariba_caller</text>
</g>
<!-- BacterialTyper__scripts__ariba_caller__main -->
<g id="node16" class="node">
<title>BacterialTyper__scripts__ariba_caller__main</title>
<ellipse fill="#ff6565" fill-opacity="0.698039" stroke="#000000" cx="169" cy="-186" rx="28.6953" ry="18"/>
<text text-anchor="middle" x="169" y="-182.3" font-family="Times,serif" font-size="14.00" fill="#000000">main</text>
</g>
<!-- BacterialTyper__scripts__ariba_caller&#45;&gt;BacterialTyper__scripts__ariba_caller__main -->
<g id="edge1" class="edge">
<title>BacterialTyper__scripts__ariba_caller&#45;&gt;BacterialTyper__scripts__ariba_caller__main</title>
<path fill="none" stroke="#000000" d="M169,-242.8446C169,-234.3401 169,-224.0076 169,-214.4964"/>
<polygon fill="#000000" stroke="#000000" points="172.5001,-214.2481 169,-204.2482 165.5001,-214.2482 172.5001,-214.2481"/>
</g>
<!-- BacterialTyper__scripts__ariba_caller__ariba_expandflag -->
<g id="node2" class="node">
<title>BacterialTyper__scripts__ariba_caller__ariba_expandflag</title>
<ellipse fill="#ff6565" fill-opacity="0.698039" stroke="#000000" cx="1152" cy="-186" rx="71.4873" ry="18"/>
<text text-anchor="middle" x="1152" y="-182.3" font-family="Times,serif" font-size="14.00" fill="#000000">ariba_expandflag</text>
</g>
<!-- BacterialTyper__scripts__ariba_caller__ariba_getref -->
<g id="node3" class="node">
<title>BacterialTyper__scripts__ariba_caller__ariba_getref</title>
<ellipse fill="#ff6565" fill-opacity="0.698039" stroke="#000000" cx="341" cy="-114" rx="53.0913" ry="18"/>
<text text-anchor="middle" x="341" y="-110.3" font-family="Times,serif" font-size="14.00" fill="#000000">ariba_getref</text>
</g>
<!-- BacterialTyper__scripts__ariba_caller__ariba_prepareref -->
<g id="node4" class="node">
<title>BacterialTyper__scripts__ariba_caller__ariba_prepareref</title>
<ellipse fill="#ff6565" fill-opacity="0.698039" stroke="#000000" cx="341" cy="-42" rx="68.7879" ry="18"/>
<text text-anchor="middle" x="341" y="-38.3" font-family="Times,serif" font-size="14.00" fill="#000000">ariba_prepareref</text>
</g>
<!-- BacterialTyper__scripts__ariba_caller__ariba_getref&#45;&gt;BacterialTyper__scripts__ariba_caller__ariba_prepareref -->
<g id="edge4" class="edge">
<title>BacterialTyper__scripts__ariba_caller__ariba_getref&#45;&gt;BacterialTyper__scripts__ariba_caller__ariba_prepareref</title>
<path fill="none" stroke="#000000" d="M341,-95.8314C341,-88.131 341,-78.9743 341,-70.4166"/>
<polygon fill="#000000" stroke="#000000" points="344.5001,-70.4132 341,-60.4133 337.5001,-70.4133 344.5001,-70.4132"/>
</g>
<!-- BacterialTyper__scripts__ariba_caller__ariba_pubmlstget -->
<g id="node5" class="node">
<title>BacterialTyper__scripts__ariba_caller__ariba_pubmlstget</title>
<ellipse fill="#ff6565" fill-opacity="0.698039" stroke="#000000" cx="990" cy="-186" rx="72.2875" ry="18"/>
<text text-anchor="middle" x="990" y="-182.3" font-family="Times,serif" font-size="14.00" fill="#000000">ariba_pubmlstget</text>
</g>
<!-- BacterialTyper__scripts__ariba_caller__ariba_run -->
<g id="node6" class="node">
<title>BacterialTyper__scripts__ariba_caller__ariba_run</title>
<ellipse fill="#ff6565" fill-opacity="0.698039" stroke="#000000" cx="856" cy="-186" rx="44.393" ry="18"/>
<text text-anchor="middle" x="856" y="-182.3" font-family="Times,serif" font-size="14.00" fill="#000000">ariba_run</text>
</g>
<!-- BacterialTyper__scripts__ariba_caller__ariba_summary -->
<g id="node7" class="node">
<title>BacterialTyper__scripts__ariba_caller__ariba_summary</title>
<ellipse fill="#ff6565" fill-opacity="0.698039" stroke="#000000" cx="636" cy="-114" rx="66.0889" ry="18"/>
<text text-anchor="middle" x="636" y="-110.3" font-family="Times,serif" font-size="14.00" fill="#000000">ariba_summary</text>
</g>
<!-- BacterialTyper__scripts__ariba_caller__ariba_summary_all -->
<g id="node8" class="node">
<title>BacterialTyper__scripts__ariba_caller__ariba_summary_all</title>
<ellipse fill="#ff6565" fill-opacity="0.698039" stroke="#000000" cx="715" cy="-186" rx="79.0865" ry="18"/>
<text text-anchor="middle" x="715" y="-182.3" font-family="Times,serif" font-size="14.00" fill="#000000">ariba_summary_all</text>
</g>
<!-- BacterialTyper__scripts__ariba_caller__ariba_summary_all&#45;&gt;BacterialTyper__scripts__ariba_caller__ariba_summary -->
<g id="edge5" class="edge">
<title>BacterialTyper__scripts__ariba_caller__ariba_summary_all&#45;&gt;BacterialTyper__scripts__ariba_caller__ariba_summary</title>
<path fill="none" stroke="#000000" d="M695.4719,-168.2022C685.5447,-159.1546 673.3335,-148.0255 662.5643,-138.2105"/>
<polygon fill="#000000" stroke="#000000" points="664.7794,-135.4938 655.0309,-131.3446 660.0642,-140.6675 664.7794,-135.4938"/>
</g>
<!-- BacterialTyper__scripts__ariba_caller__fix_ariba_summary -->
<g id="node11" class="node">
<title>BacterialTyper__scripts__ariba_caller__fix_ariba_summary</title>
<ellipse fill="#ff6565" fill-opacity="0.698039" stroke="#000000" cx="801" cy="-114" rx="80.6858" ry="18"/>
<text text-anchor="middle" x="801" y="-110.3" font-family="Times,serif" font-size="14.00" fill="#000000">fix_ariba_summary</text>
</g>
<!-- BacterialTyper__scripts__ariba_caller__ariba_summary_all&#45;&gt;BacterialTyper__scripts__ariba_caller__fix_ariba_summary -->
<g id="edge7" class="edge">
<title>BacterialTyper__scripts__ariba_caller__ariba_summary_all&#45;&gt;BacterialTyper__scripts__ariba_caller__fix_ariba_summary</title>
<path fill="none" stroke="#000000" d="M735.8182,-168.5708C746.7235,-159.4408 760.25,-148.1163 772.1495,-138.1539"/>
<polygon fill="#000000" stroke="#000000" points="774.6546,-140.6213 780.0754,-131.5182 770.161,-135.254 774.6546,-140.6213"/>
</g>
<!-- BacterialTyper__scripts__ariba_caller__fix_phangando_tree -->
<g id="node12" class="node">
<title>BacterialTyper__scripts__ariba_caller__fix_phangando_tree</title>
<ellipse fill="#ff6565" fill-opacity="0.698039" stroke="#000000" cx="981" cy="-114" rx="81.4863" ry="18"/>
<text text-anchor="middle" x="981" y="-110.3" font-family="Times,serif" font-size="14.00" fill="#000000">fix_phangando_tree</text>
</g>
<!-- BacterialTyper__scripts__ariba_caller__ariba_summary_all&#45;&gt;BacterialTyper__scripts__ariba_caller__fix_phangando_tree -->
<g id="edge6" class="edge">
<title>BacterialTyper__scripts__ariba_caller__ariba_summary_all&#45;&gt;BacterialTyper__scripts__ariba_caller__fix_phangando_tree</title>
<path fill="none" stroke="#000000" d="M765.9727,-172.2029C809.773,-160.3471 873.046,-143.2206 919.6208,-130.6139"/>
<polygon fill="#000000" stroke="#000000" points="920.5547,-133.9872 929.2929,-127.9959 918.7257,-127.2303 920.5547,-133.9872"/>
</g>
<!-- BacterialTyper__scripts__ariba_caller__check_db_indexed -->
<g id="node9" class="node">
<title>BacterialTyper__scripts__ariba_caller__check_db_indexed</title>
<ellipse fill="#ff6565" fill-opacity="0.698039" stroke="#000000" cx="541" cy="-186" rx="76.8869" ry="18"/>
<text text-anchor="middle" x="541" y="-182.3" font-family="Times,serif" font-size="14.00" fill="#000000">check_db_indexed</text>
</g>
<!-- BacterialTyper__scripts__ariba_caller__download_ariba_databases -->
<g id="node10" class="node">
<title>BacterialTyper__scripts__ariba_caller__download_ariba_databases</title>
<ellipse fill="#ff6565" fill-opacity="0.698039" stroke="#000000" cx="341" cy="-186" rx="105.0817" ry="18"/>
<text text-anchor="middle" x="341" y="-182.3" font-family="Times,serif" font-size="14.00" fill="#000000">download_ariba_databases</text>
</g>
<!-- BacterialTyper__scripts__ariba_caller__download_ariba_databases&#45;&gt;BacterialTyper__scripts__ariba_caller__ariba_getref -->
<g id="edge3" class="edge">
<title>BacterialTyper__scripts__ariba_caller__download_ariba_databases&#45;&gt;BacterialTyper__scripts__ariba_caller__ariba_getref</title>
<path fill="none" stroke="#000000" d="M341,-167.8314C341,-160.131 341,-150.9743 341,-142.4166"/>
<polygon fill="#000000" stroke="#000000" points="344.5001,-142.4132 341,-132.4133 337.5001,-142.4133 344.5001,-142.4132"/>
</g>
<!-- BacterialTyper__scripts__ariba_caller__get_ARIBA_dbs -->
<g id="node13" class="node">
<title>BacterialTyper__scripts__ariba_caller__get_ARIBA_dbs</title>
<ellipse fill="#ff6565" fill-opacity="0.698039" stroke="#000000" cx="482" cy="-114" rx="69.5877" ry="18"/>
<text text-anchor="middle" x="482" y="-110.3" font-family="Times,serif" font-size="14.00" fill="#000000">get_ARIBA_dbs</text>
</g>
<!-- BacterialTyper__scripts__ariba_caller__download_ariba_databases&#45;&gt;BacterialTyper__scripts__ariba_caller__get_ARIBA_dbs -->
<g id="edge2" class="edge">
<title>BacterialTyper__scripts__ariba_caller__download_ariba_databases&#45;&gt;BacterialTyper__scripts__ariba_caller__get_ARIBA_dbs</title>
<path fill="none" stroke="#000000" d="M374.773,-168.7542C394.7865,-158.5346 420.2784,-145.5174 441.3849,-134.7396"/>
<polygon fill="#000000" stroke="#000000" points="443.1207,-137.7832 450.435,-130.1183 439.9372,-131.549 443.1207,-137.7832"/>
</g>
<!-- BacterialTyper__scripts__ariba_caller__help_ARIBA -->
<g id="node14" class="node">
<title>BacterialTyper__scripts__ariba_caller__help_ARIBA</title>
<ellipse fill="#ff6565" fill-opacity="0.698039" stroke="#000000" cx="82" cy="-114" rx="57.6901" ry="18"/>
<text text-anchor="middle" x="82" y="-110.3" font-family="Times,serif" font-size="14.00" fill="#000000">help_ARIBA</text>
</g>
<!-- BacterialTyper__scripts__ariba_caller__help_options -->
<g id="node15" class="node">
<title>BacterialTyper__scripts__ariba_caller__help_options</title>
<ellipse fill="#ff6565" fill-opacity="0.698039" stroke="#000000" cx="214" cy="-114" rx="55.7903" ry="18"/>
<text text-anchor="middle" x="214" y="-110.3" font-family="Times,serif" font-size="14.00" fill="#000000">help_options</text>
</g>
<!-- BacterialTyper__scripts__ariba_caller__main&#45;&gt;BacterialTyper__scripts__ariba_caller__help_ARIBA -->
<g id="edge9" class="edge">
<title>BacterialTyper__scripts__ariba_caller__main&#45;&gt;BacterialTyper__scripts__ariba_caller__help_ARIBA</title>
<path fill="none" stroke="#000000" d="M151.3943,-171.4297C139.7168,-161.7656 124.125,-148.8621 110.679,-137.7344"/>
<polygon fill="#000000" stroke="#000000" points="112.5739,-134.7594 102.6385,-131.0801 108.1109,-140.1522 112.5739,-134.7594"/>
</g>
<!-- BacterialTyper__scripts__ariba_caller__main&#45;&gt;BacterialTyper__scripts__ariba_caller__help_options -->
<g id="edge8" class="edge">
<title>BacterialTyper__scripts__ariba_caller__main&#45;&gt;BacterialTyper__scripts__ariba_caller__help_options</title>
<path fill="none" stroke="#000000" d="M179.6644,-168.937C184.9823,-160.4284 191.5333,-149.9468 197.4826,-140.4279"/>
<polygon fill="#000000" stroke="#000000" points="200.6102,-142.0274 202.9422,-131.6924 194.6742,-138.3174 200.6102,-142.0274"/>
</g>
</g>
</svg>
