<?xml version="1.0" encoding="UTF-8" standalone="no"?>
<!DOCTYPE svg PUBLIC "-//W3C//DTD SVG 1.1//EN"
 "http://www.w3.org/Graphics/SVG/1.1/DTD/svg11.dtd">
<!-- Generated by graphviz version 2.40.1 (20161225.0304)
 -->
<!-- Title: G Pages: 1 -->
<svg width="464pt" height="375pt"
 viewBox="0.00 0.00 464.00 375.00" xmlns="http://www.w3.org/2000/svg" xmlns:xlink="http://www.w3.org/1999/xlink">
<g id="graph0" class="graph" transform="scale(1 1) rotate(0) translate(4 371)">
<title>G</title>
<polygon fill="#ffffff" stroke="transparent" points="-4,4 -4,-371 460,-371 460,4 -4,4"/>
<g id="clust1" class="cluster">
<title>cluster_G</title>
<path fill="#808080" fill-opacity="0.094118" stroke="#000000" d="M20,-8C20,-8 436,-8 436,-8 442,-8 448,-14 448,-20 448,-20 448,-347 448,-347 448,-353 442,-359 436,-359 436,-359 20,-359 20,-359 14,-359 8,-353 8,-347 8,-347 8,-20 8,-20 8,-14 14,-8 20,-8"/>
</g>
<g id="clust2" class="cluster">
<title>cluster_BacterialTyper__scripts__bacteriophage</title>
<path fill="#808080" fill-opacity="0.094118" stroke="#000000" d="M28,-16C28,-16 428,-16 428,-16 434,-16 440,-22 440,-28 440,-28 440,-295 440,-295 440,-301 434,-307 428,-307 428,-307 28,-307 28,-307 22,-307 16,-301 16,-295 16,-295 16,-28 16,-28 16,-22 22,-16 28,-16"/>
<text text-anchor="middle" x="228" y="-291.8" font-family="Times,serif" font-size="14.00" fill="#000000">BacterialTyper.scripts.bacteriophage</text>
</g>
<!-- BacterialTyper__scripts__bacteriophage -->
<g id="node1" class="node">
<title>BacterialTyper__scripts__bacteriophage</title>
<ellipse fill="#ffffff" fill-opacity="0.698039" stroke="#000000" cx="156" cy="-333" rx="140.2752" ry="18"/>
<text text-anchor="middle" x="156" y="-329.3" font-family="Times,serif" font-size="14.00" fill="#000000">BacterialTyper.scripts.bacteriophage</text>
</g>
<!-- BacterialTyper__scripts__bacteriophage__main -->
<g id="node6" class="node">
<title>BacterialTyper__scripts__bacteriophage__main</title>
<ellipse fill="#ff6565" fill-opacity="0.698039" stroke="#000000" cx="132" cy="-258" rx="28.6953" ry="18"/>
<text text-anchor="middle" x="132" y="-254.3" font-family="Times,serif" font-size="14.00" fill="#000000">main</text>
</g>
<!-- BacterialTyper__scripts__bacteriophage&#45;&gt;BacterialTyper__scripts__bacteriophage__main -->
<g id="edge1" class="edge">
<title>BacterialTyper__scripts__bacteriophage&#45;&gt;BacterialTyper__scripts__bacteriophage__main</title>
<path fill="none" stroke="#000000" d="M150.1903,-314.8446C147.3691,-306.0285 143.9194,-295.248 140.7854,-285.4544"/>
<polygon fill="#000000" stroke="#000000" points="144.0547,-284.1869 137.6734,-275.7294 137.3878,-286.3204 144.0547,-284.1869"/>
</g>
<!-- BacterialTyper__scripts__bacteriophage__get_list_PhiSpy_trainingSets -->
<g id="node2" class="node">
<title>BacterialTyper__scripts__bacteriophage__get_list_PhiSpy_trainingSets</title>
<ellipse fill="#ff6565" fill-opacity="0.698039" stroke="#000000" cx="210" cy="-42" rx="112.3801" ry="18"/>
<text text-anchor="middle" x="210" y="-38.3" font-family="Times,serif" font-size="14.00" fill="#000000">get_list_PhiSpy_trainingSets</text>
</g>
<!-- BacterialTyper__scripts__bacteriophage__help_PhiSpy -->
<g id="node3" class="node">
<title>BacterialTyper__scripts__bacteriophage__help_PhiSpy</title>
<ellipse fill="#ff6565" fill-opacity="0.698039" stroke="#000000" cx="376" cy="-186" rx="55.7903" ry="18"/>
<text text-anchor="middle" x="376" y="-182.3" font-family="Times,serif" font-size="14.00" fill="#000000">help_PhiSpy</text>
</g>
<!-- BacterialTyper__scripts__bacteriophage__print_list_modified -->
<g id="node7" class="node">
<title>BacterialTyper__scripts__bacteriophage__print_list_modified</title>
<ellipse fill="#ff6565" fill-opacity="0.698039" stroke="#000000" cx="285" cy="-114" rx="79.0865" ry="18"/>
<text text-anchor="middle" x="285" y="-110.3" font-family="Times,serif" font-size="14.00" fill="#000000">print_list_modified</text>
</g>
<!-- BacterialTyper__scripts__bacteriophage__help_PhiSpy&#45;&gt;BacterialTyper__scripts__bacteriophage__print_list_modified -->
<g id="edge4" class="edge">
<title>BacterialTyper__scripts__bacteriophage__help_PhiSpy&#45;&gt;BacterialTyper__scripts__bacteriophage__print_list_modified</title>
<path fill="none" stroke="#000000" d="M354.894,-169.3008C342.9804,-159.8746 327.8989,-147.942 314.7973,-137.5759"/>
<polygon fill="#000000" stroke="#000000" points="316.9555,-134.8204 306.9416,-131.3603 312.6121,-140.31 316.9555,-134.8204"/>
</g>
<!-- BacterialTyper__scripts__bacteriophage__help_options -->
<g id="node4" class="node">
<title>BacterialTyper__scripts__bacteriophage__help_options</title>
<ellipse fill="#ff6565" fill-opacity="0.698039" stroke="#000000" cx="246" cy="-186" rx="55.7903" ry="18"/>
<text text-anchor="middle" x="246" y="-182.3" font-family="Times,serif" font-size="14.00" fill="#000000">help_options</text>
</g>
<!-- BacterialTyper__scripts__bacteriophage__help_options&#45;&gt;BacterialTyper__scripts__bacteriophage__print_list_modified -->
<g id="edge5" class="edge">
<title>BacterialTyper__scripts__bacteriophage__help_options&#45;&gt;BacterialTyper__scripts__bacteriophage__print_list_modified</title>
<path fill="none" stroke="#000000" d="M255.6405,-168.2022C260.0601,-160.0428 265.3969,-150.1904 270.3014,-141.1358"/>
<polygon fill="#000000" stroke="#000000" points="273.5142,-142.5531 275.1996,-132.0931 267.3592,-139.219 273.5142,-142.5531"/>
</g>
<!-- BacterialTyper__scripts__bacteriophage__ident_bacteriophage -->
<g id="node5" class="node">
<title>BacterialTyper__scripts__bacteriophage__ident_bacteriophage</title>
<ellipse fill="#ff6565" fill-opacity="0.698039" stroke="#000000" cx="106" cy="-114" rx="81.7856" ry="18"/>
<text text-anchor="middle" x="106" y="-110.3" font-family="Times,serif" font-size="14.00" fill="#000000">ident_bacteriophage</text>
</g>
<!-- BacterialTyper__scripts__bacteriophage__ident_bacteriophage&#45;&gt;BacterialTyper__scripts__bacteriophage__get_list_PhiSpy_trainingSets -->
<g id="edge2" class="edge">
<title>BacterialTyper__scripts__bacteriophage__ident_bacteriophage&#45;&gt;BacterialTyper__scripts__bacteriophage__get_list_PhiSpy_trainingSets</title>
<path fill="none" stroke="#000000" d="M130.9106,-96.7542C144.4737,-87.3644 161.4481,-75.6128 176.1906,-65.4065"/>
<polygon fill="#000000" stroke="#000000" points="178.3405,-68.1751 184.5702,-59.6053 174.356,-62.4197 178.3405,-68.1751"/>
</g>
<!-- BacterialTyper__scripts__bacteriophage__main&#45;&gt;BacterialTyper__scripts__bacteriophage__help_options -->
<g id="edge7" class="edge">
<title>BacterialTyper__scripts__bacteriophage__main&#45;&gt;BacterialTyper__scripts__bacteriophage__help_options</title>
<path fill="none" stroke="#000000" d="M152.3809,-245.1278C168.9312,-234.675 192.6244,-219.7109 212.0337,-207.4524"/>
<polygon fill="#000000" stroke="#000000" points="214.0231,-210.3356 220.609,-202.0364 210.2851,-204.4172 214.0231,-210.3356"/>
</g>
<!-- BacterialTyper__scripts__bacteriophage__main&#45;&gt;BacterialTyper__scripts__bacteriophage__ident_bacteriophage -->
<g id="edge8" class="edge">
<title>BacterialTyper__scripts__bacteriophage__main&#45;&gt;BacterialTyper__scripts__bacteriophage__ident_bacteriophage</title>
<path fill="none" stroke="#000000" d="M105.2376,-251.3002C82.0882,-243.9323 50.0413,-229.5885 35,-204 26.892,-190.2065 27.8928,-182.3348 35,-168 41.3659,-155.1605 52.4069,-144.5473 63.9114,-136.2287"/>
<polygon fill="#000000" stroke="#000000" points="65.9669,-139.0642 72.31,-130.578 62.0593,-133.2563 65.9669,-139.0642"/>
</g>
<!-- BacterialTyper__scripts__bacteriophage__results_PhiSpy -->
<g id="node8" class="node">
<title>BacterialTyper__scripts__bacteriophage__results_PhiSpy</title>
<ellipse fill="#ff6565" fill-opacity="0.698039" stroke="#000000" cx="108" cy="-186" rx="63.8893" ry="18"/>
<text text-anchor="middle" x="108" y="-182.3" font-family="Times,serif" font-size="14.00" fill="#000000">results_PhiSpy</text>
</g>
<!-- BacterialTyper__scripts__bacteriophage__main&#45;&gt;BacterialTyper__scripts__bacteriophage__results_PhiSpy -->
<g id="edge6" class="edge">
<title>BacterialTyper__scripts__bacteriophage__main&#45;&gt;BacterialTyper__scripts__bacteriophage__results_PhiSpy</title>
<path fill="none" stroke="#000000" d="M126.0674,-240.2022C123.4049,-232.2146 120.2015,-222.6045 117.2362,-213.7087"/>
<polygon fill="#000000" stroke="#000000" points="120.5138,-212.4731 114.031,-204.0931 113.873,-214.6868 120.5138,-212.4731"/>
</g>
<!-- BacterialTyper__scripts__bacteriophage__print_list_modified&#45;&gt;BacterialTyper__scripts__bacteriophage__get_list_PhiSpy_trainingSets -->
<g id="edge3" class="edge">
<title>BacterialTyper__scripts__bacteriophage__print_list_modified&#45;&gt;BacterialTyper__scripts__bacteriophage__get_list_PhiSpy_trainingSets</title>
<path fill="none" stroke="#000000" d="M266.4607,-96.2022C257.2658,-87.3752 246.0072,-76.5669 235.9695,-66.9307"/>
<polygon fill="#000000" stroke="#000000" points="238.2238,-64.243 228.586,-59.8425 233.376,-69.2928 238.2238,-64.243"/>
</g>
</g>
</svg>
