<?xml version="1.0" encoding="UTF-8" standalone="no"?>
<!DOCTYPE svg PUBLIC "-//W3C//DTD SVG 1.1//EN"
 "http://www.w3.org/Graphics/SVG/1.1/DTD/svg11.dtd">
<!-- Generated by graphviz version 2.40.1 (20161225.0304)
 -->
<!-- Title: G Pages: 1 -->
<svg width="788pt" height="115pt"
 viewBox="0.00 0.00 788.00 115.00" xmlns="http://www.w3.org/2000/svg" xmlns:xlink="http://www.w3.org/1999/xlink">
<g id="graph0" class="graph" transform="scale(1 1) rotate(0) translate(4 111)">
<title>G</title>
<polygon fill="#ffffff" stroke="transparent" points="-4,4 -4,-111 784,-111 784,4 -4,4"/>
<g id="clust1" class="cluster">
<title>cluster_G</title>
<path fill="#808080" fill-opacity="0.094118" stroke="#000000" d="M20,-8C20,-8 760,-8 760,-8 766,-8 772,-14 772,-20 772,-20 772,-87 772,-87 772,-93 766,-99 760,-99 760,-99 20,-99 20,-99 14,-99 8,-93 8,-87 8,-87 8,-20 8,-20 8,-14 14,-8 20,-8"/>
</g>
<g id="clust2" class="cluster">
<title>cluster_BacterialTyper__scripts__card_trick_caller</title>
<path fill="#808080" fill-opacity="0.094118" stroke="#000000" d="M340,-16C340,-16 752,-16 752,-16 758,-16 764,-22 764,-28 764,-28 764,-79 764,-79 764,-85 758,-91 752,-91 752,-91 340,-91 340,-91 334,-91 328,-85 328,-79 328,-79 328,-28 328,-28 328,-22 334,-16 340,-16"/>
<text text-anchor="middle" x="546" y="-75.8" font-family="Times,serif" font-size="14.00" fill="#000000">BacterialTyper.scripts.card_trick_caller</text>
</g>
<!-- BacterialTyper__scripts__card_trick_caller -->
<g id="node1" class="node">
<title>BacterialTyper__scripts__card_trick_caller</title>
<ellipse fill="#ffffff" fill-opacity="0.698039" stroke="#000000" cx="167" cy="-42" rx="150.5735" ry="18"/>
<text text-anchor="middle" x="167" y="-38.3" font-family="Times,serif" font-size="14.00" fill="#000000">BacterialTyper.scripts.card_trick_caller</text>
</g>
<!-- BacterialTyper__scripts__card_trick_caller__dead_code -->
<g id="node2" class="node">
<title>BacterialTyper__scripts__card_trick_caller__dead_code</title>
<ellipse fill="#ff6565" fill-opacity="0.698039" stroke="#000000" cx="708" cy="-42" rx="48.1917" ry="18"/>
<text text-anchor="middle" x="708" y="-38.3" font-family="Times,serif" font-size="14.00" fill="#000000">dead_code</text>
</g>
<!-- BacterialTyper__scripts__card_trick_caller__get_info_CARD -->
<g id="node3" class="node">
<title>BacterialTyper__scripts__card_trick_caller__get_info_CARD</title>
<ellipse fill="#ff6565" fill-opacity="0.698039" stroke="#000000" cx="573" cy="-42" rx="68.7879" ry="18"/>
<text text-anchor="middle" x="573" y="-38.3" font-family="Times,serif" font-size="14.00" fill="#000000">get_info_CARD</text>
</g>
<!-- BacterialTyper__scripts__card_trick_caller__prepare_card_data -->
<g id="node4" class="node">
<title>BacterialTyper__scripts__card_trick_caller__prepare_card_data</title>
<ellipse fill="#ff6565" fill-opacity="0.698039" stroke="#000000" cx="411" cy="-42" rx="75.2868" ry="18"/>
<text text-anchor="middle" x="411" y="-38.3" font-family="Times,serif" font-size="14.00" fill="#000000">prepare_card_data</text>
</g>
</g>
</svg>
