<?xml version="1.0" encoding="UTF-8" standalone="no"?>
<!DOCTYPE svg PUBLIC "-//W3C//DTD SVG 1.1//EN"
 "http://www.w3.org/Graphics/SVG/1.1/DTD/svg11.dtd">
<!-- Generated by graphviz version 2.40.1 (20161225.0304)
 -->
<!-- Title: G Pages: 1 -->
<svg width="913pt" height="259pt"
 viewBox="0.00 0.00 913.00 259.00" xmlns="http://www.w3.org/2000/svg" xmlns:xlink="http://www.w3.org/1999/xlink">
<g id="graph0" class="graph" transform="scale(1 1) rotate(0) translate(4 255)">
<title>G</title>
<polygon fill="#ffffff" stroke="transparent" points="-4,4 -4,-255 909,-255 909,4 -4,4"/>
<g id="clust1" class="cluster">
<title>cluster_G</title>
<path fill="#808080" fill-opacity="0.094118" stroke="#000000" d="M20,-8C20,-8 885,-8 885,-8 891,-8 897,-14 897,-20 897,-20 897,-231 897,-231 897,-237 891,-243 885,-243 885,-243 20,-243 20,-243 14,-243 8,-237 8,-231 8,-231 8,-20 8,-20 8,-14 14,-8 20,-8"/>
</g>
<g id="clust2" class="cluster">
<title>cluster_BacterialTyper__scripts__database_generator</title>
<path fill="#808080" fill-opacity="0.094118" stroke="#000000" d="M354,-16C354,-16 877,-16 877,-16 883,-16 889,-22 889,-28 889,-28 889,-223 889,-223 889,-229 883,-235 877,-235 877,-235 354,-235 354,-235 348,-235 342,-229 342,-223 342,-223 342,-28 342,-28 342,-22 348,-16 354,-16"/>
<text text-anchor="middle" x="615.5" y="-219.8" font-family="Times,serif" font-size="14.00" fill="#000000">BacterialTyper.scripts.database_generator</text>
</g>
<!-- BacterialTyper__scripts__database_generator -->
<g id="node1" class="node">
<title>BacterialTyper__scripts__database_generator</title>
<ellipse fill="#ffffff" fill-opacity="0.698039" stroke="#000000" cx="175" cy="-186" rx="159.4721" ry="18"/>
<text text-anchor="middle" x="175" y="-182.3" font-family="Times,serif" font-size="14.00" fill="#000000">BacterialTyper.scripts.database_generator</text>
</g>
<!-- BacterialTyper__scripts__database_generator__NCBI_DB -->
<g id="node2" class="node">
<title>BacterialTyper__scripts__database_generator__NCBI_DB</title>
<ellipse fill="#ff6565" fill-opacity="0.698039" stroke="#000000" cx="640" cy="-186" rx="48.1917" ry="18"/>
<text text-anchor="middle" x="640" y="-182.3" font-family="Times,serif" font-size="14.00" fill="#000000">NCBI_DB</text>
</g>
<!-- BacterialTyper__scripts__database_generator__NCBIdownload -->
<g id="node4" class="node">
<title>BacterialTyper__scripts__database_generator__NCBIdownload</title>
<ellipse fill="#ff6565" fill-opacity="0.698039" stroke="#000000" cx="416" cy="-114" rx="66.0889" ry="18"/>
<text text-anchor="middle" x="416" y="-110.3" font-family="Times,serif" font-size="14.00" fill="#000000">NCBIdownload</text>
</g>
<!-- BacterialTyper__scripts__database_generator__NCBI_DB&#45;&gt;BacterialTyper__scripts__database_generator__NCBIdownload -->
<g id="edge1" class="edge">
<title>BacterialTyper__scripts__database_generator__NCBI_DB&#45;&gt;BacterialTyper__scripts__database_generator__NCBIdownload</title>
<path fill="none" stroke="#000000" d="M603.512,-174.2717C566.9004,-162.5037 510.1383,-144.2587 468.6524,-130.924"/>
<polygon fill="#000000" stroke="#000000" points="469.5789,-127.5455 458.9875,-127.8174 467.4368,-134.2097 469.5789,-127.5455"/>
</g>
<!-- BacterialTyper__scripts__database_generator__get_database -->
<g id="node5" class="node">
<title>BacterialTyper__scripts__database_generator__get_database</title>
<ellipse fill="#ff6565" fill-opacity="0.698039" stroke="#000000" cx="556" cy="-114" rx="55.7903" ry="18"/>
<text text-anchor="middle" x="556" y="-110.3" font-family="Times,serif" font-size="14.00" fill="#000000">get_database</text>
</g>
<!-- BacterialTyper__scripts__database_generator__NCBI_DB&#45;&gt;BacterialTyper__scripts__database_generator__get_database -->
<g id="edge2" class="edge">
<title>BacterialTyper__scripts__database_generator__NCBI_DB&#45;&gt;BacterialTyper__scripts__database_generator__get_database</title>
<path fill="none" stroke="#000000" d="M620.5176,-169.3008C609.4651,-159.8272 595.459,-147.822 583.323,-137.4197"/>
<polygon fill="#000000" stroke="#000000" points="585.5381,-134.7086 575.6677,-130.8581 580.9826,-140.0234 585.5381,-134.7086"/>
</g>
<!-- BacterialTyper__scripts__database_generator__getdbs -->
<g id="node7" class="node">
<title>BacterialTyper__scripts__database_generator__getdbs</title>
<ellipse fill="#ff6565" fill-opacity="0.698039" stroke="#000000" cx="664" cy="-114" rx="33.5952" ry="18"/>
<text text-anchor="middle" x="664" y="-110.3" font-family="Times,serif" font-size="14.00" fill="#000000">getdbs</text>
</g>
<!-- BacterialTyper__scripts__database_generator__NCBI_DB&#45;&gt;BacterialTyper__scripts__database_generator__getdbs -->
<g id="edge4" class="edge">
<title>BacterialTyper__scripts__database_generator__NCBI_DB&#45;&gt;BacterialTyper__scripts__database_generator__getdbs</title>
<path fill="none" stroke="#000000" d="M646.0562,-167.8314C648.7198,-159.8406 651.906,-150.2819 654.8495,-141.4514"/>
<polygon fill="#000000" stroke="#000000" points="658.1869,-142.5071 658.0289,-131.9134 651.5461,-140.2934 658.1869,-142.5071"/>
</g>
<!-- BacterialTyper__scripts__database_generator__update_db_data_file -->
<g id="node8" class="node">
<title>BacterialTyper__scripts__database_generator__update_db_data_file</title>
<ellipse fill="#ff6565" fill-opacity="0.698039" stroke="#000000" cx="798" cy="-114" rx="82.5854" ry="18"/>
<text text-anchor="middle" x="798" y="-110.3" font-family="Times,serif" font-size="14.00" fill="#000000">update_db_data_file</text>
</g>
<!-- BacterialTyper__scripts__database_generator__NCBI_DB&#45;&gt;BacterialTyper__scripts__database_generator__update_db_data_file -->
<g id="edge3" class="edge">
<title>BacterialTyper__scripts__database_generator__NCBI_DB&#45;&gt;BacterialTyper__scripts__database_generator__update_db_data_file</title>
<path fill="none" stroke="#000000" d="M670.8391,-171.9468C694.1943,-161.3038 726.6309,-146.5226 752.8978,-134.5529"/>
<polygon fill="#000000" stroke="#000000" points="754.6193,-137.6148 762.2677,-130.2831 751.7166,-131.245 754.6193,-137.6148"/>
</g>
<!-- BacterialTyper__scripts__database_generator__NCBI_descendant -->
<g id="node3" class="node">
<title>BacterialTyper__scripts__database_generator__NCBI_descendant</title>
<ellipse fill="#ff6565" fill-opacity="0.698039" stroke="#000000" cx="475" cy="-186" rx="75.2868" ry="18"/>
<text text-anchor="middle" x="475" y="-182.3" font-family="Times,serif" font-size="14.00" fill="#000000">NCBI_descendant</text>
</g>
<!-- BacterialTyper__scripts__database_generator__get_files_download -->
<g id="node6" class="node">
<title>BacterialTyper__scripts__database_generator__get_files_download</title>
<ellipse fill="#ff6565" fill-opacity="0.698039" stroke="#000000" cx="430" cy="-42" rx="79.8859" ry="18"/>
<text text-anchor="middle" x="430" y="-38.3" font-family="Times,serif" font-size="14.00" fill="#000000">get_files_download</text>
</g>
<!-- BacterialTyper__scripts__database_generator__NCBIdownload&#45;&gt;BacterialTyper__scripts__database_generator__get_files_download -->
<g id="edge5" class="edge">
<title>BacterialTyper__scripts__database_generator__NCBIdownload&#45;&gt;BacterialTyper__scripts__database_generator__get_files_download</title>
<path fill="none" stroke="#000000" d="M419.5328,-95.8314C421.0301,-88.131 422.8105,-78.9743 424.4745,-70.4166"/>
<polygon fill="#000000" stroke="#000000" points="427.9465,-70.8975 426.4196,-60.4133 421.0752,-69.5614 427.9465,-70.8975"/>
</g>
</g>
</svg>
