<?xml version="1.0" encoding="UTF-8" standalone="no"?>
<!DOCTYPE svg PUBLIC "-//W3C//DTD SVG 1.1//EN"
 "http://www.w3.org/Graphics/SVG/1.1/DTD/svg11.dtd">
<!-- Generated by graphviz version 2.40.1 (20161225.0304)
 -->
<!-- Title: G Pages: 1 -->
<svg width="2102pt" height="262pt"
 viewBox="0.00 0.00 2102.00 262.00" xmlns="http://www.w3.org/2000/svg" xmlns:xlink="http://www.w3.org/1999/xlink">
<g id="graph0" class="graph" transform="scale(1 1) rotate(0) translate(4 258)">
<title>G</title>
<polygon fill="#ffffff" stroke="transparent" points="-4,4 -4,-258 2098,-258 2098,4 -4,4"/>
<g id="clust1" class="cluster">
<title>cluster_G</title>
<path fill="#808080" fill-opacity="0.094118" stroke="#000000" d="M20,-8C20,-8 2074,-8 2074,-8 2080,-8 2086,-14 2086,-20 2086,-20 2086,-234 2086,-234 2086,-240 2080,-246 2074,-246 2074,-246 20,-246 20,-246 14,-246 8,-240 8,-234 8,-234 8,-20 8,-20 8,-14 14,-8 20,-8"/>
</g>
<g id="clust2" class="cluster">
<title>cluster_BacterialTyper__scripts__fastqc_caller</title>
<path fill="#808080" fill-opacity="0.094118" stroke="#000000" d="M28,-16C28,-16 2066,-16 2066,-16 2072,-16 2078,-22 2078,-28 2078,-28 2078,-182 2078,-182 2078,-188 2072,-194 2066,-194 2066,-194 28,-194 28,-194 22,-194 16,-188 16,-182 16,-182 16,-28 16,-28 16,-22 22,-16 28,-16"/>
<text text-anchor="middle" x="1047" y="-178.8" font-family="Times,serif" font-size="14.00" fill="#000000">BacterialTyper.scripts.fastqc_caller</text>
</g>
<g id="clust3" class="cluster">
<title>cluster_BacterialTyper__scripts__fastqc_caller__fastqcObject</title>
<path fill="#808080" fill-opacity="0.094118" stroke="#000000" d="M750,-88C750,-88 2058,-88 2058,-88 2064,-88 2070,-94 2070,-100 2070,-100 2070,-151 2070,-151 2070,-157 2064,-163 2058,-163 2058,-163 750,-163 750,-163 744,-163 738,-157 738,-151 738,-151 738,-100 738,-100 738,-94 744,-88 750,-88"/>
<text text-anchor="middle" x="1404" y="-147.8" font-family="Times,serif" font-size="14.00" fill="#000000">BacterialTyper.scripts.fastqc_caller.fastqcObject</text>
</g>
<!-- BacterialTyper__scripts__fastqc_caller -->
<g id="node1" class="node">
<title>BacterialTyper__scripts__fastqc_caller</title>
<ellipse fill="#ffffff" fill-opacity="0.698039" stroke="#000000" cx="229" cy="-220" rx="135.6761" ry="18"/>
<text text-anchor="middle" x="229" y="-216.3" font-family="Times,serif" font-size="14.00" fill="#000000">BacterialTyper.scripts.fastqc_caller</text>
</g>
<!-- BacterialTyper__scripts__fastqc_caller__main -->
<g id="node8" class="node">
<title>BacterialTyper__scripts__fastqc_caller__main</title>
<ellipse fill="#ff6565" fill-opacity="0.698039" stroke="#000000" cx="229" cy="-114" rx="28.6953" ry="18"/>
<text text-anchor="middle" x="229" y="-110.3" font-family="Times,serif" font-size="14.00" fill="#000000">main</text>
</g>
<!-- BacterialTyper__scripts__fastqc_caller&#45;&gt;BacterialTyper__scripts__fastqc_caller__main -->
<g id="edge1" class="edge">
<title>BacterialTyper__scripts__fastqc_caller&#45;&gt;BacterialTyper__scripts__fastqc_caller__main</title>
<path fill="none" stroke="#000000" d="M229,-201.5362C229,-185.1966 229,-161.1 229,-142.3232"/>
<polygon fill="#000000" stroke="#000000" points="232.5001,-142.2522 229,-132.2522 225.5001,-142.2522 232.5001,-142.2522"/>
</g>
<!-- BacterialTyper__scripts__fastqc_caller__call_fastqc -->
<g id="node2" class="node">
<title>BacterialTyper__scripts__fastqc_caller__call_fastqc</title>
<ellipse fill="#ff6565" fill-opacity="0.698039" stroke="#000000" cx="103" cy="-42" rx="48.9926" ry="18"/>
<text text-anchor="middle" x="103" y="-38.3" font-family="Times,serif" font-size="14.00" fill="#000000">call_fastqc</text>
</g>
<!-- BacterialTyper__scripts__fastqc_caller__fastqcObject -->
<g id="node3" class="node">
<title>BacterialTyper__scripts__fastqc_caller__fastqcObject</title>
<ellipse fill="#ff6565" fill-opacity="0.698039" stroke="#000000" cx="673" cy="-114" rx="55.4913" ry="18"/>
<text text-anchor="middle" x="673" y="-110.3" font-family="Times,serif" font-size="14.00" fill="#000000">fastqcObject</text>
</g>
<!-- BacterialTyper__scripts__fastqc_caller__generateStatisticsTable -->
<g id="node4" class="node">
<title>BacterialTyper__scripts__fastqc_caller__generateStatisticsTable</title>
<ellipse fill="#ff6565" fill-opacity="0.698039" stroke="#000000" cx="507" cy="-114" rx="92.0841" ry="18"/>
<text text-anchor="middle" x="507" y="-110.3" font-family="Times,serif" font-size="14.00" fill="#000000">generateStatisticsTable</text>
</g>
<!-- BacterialTyper__scripts__fastqc_caller__generateTable -->
<g id="node5" class="node">
<title>BacterialTyper__scripts__fastqc_caller__generateTable</title>
<ellipse fill="#ff6565" fill-opacity="0.698039" stroke="#000000" cx="336" cy="-114" rx="60.3893" ry="18"/>
<text text-anchor="middle" x="336" y="-110.3" font-family="Times,serif" font-size="14.00" fill="#000000">generateTable</text>
</g>
<!-- BacterialTyper__scripts__fastqc_caller__get_files -->
<g id="node6" class="node">
<title>BacterialTyper__scripts__fastqc_caller__get_files</title>
<ellipse fill="#ff6565" fill-opacity="0.698039" stroke="#000000" cx="211" cy="-42" rx="40.8928" ry="18"/>
<text text-anchor="middle" x="211" y="-38.3" font-family="Times,serif" font-size="14.00" fill="#000000">get_files</text>
</g>
<!-- BacterialTyper__scripts__fastqc_caller__help_options -->
<g id="node7" class="node">
<title>BacterialTyper__scripts__fastqc_caller__help_options</title>
<ellipse fill="#ff6565" fill-opacity="0.698039" stroke="#000000" cx="326" cy="-42" rx="55.7903" ry="18"/>
<text text-anchor="middle" x="326" y="-38.3" font-family="Times,serif" font-size="14.00" fill="#000000">help_options</text>
</g>
<!-- BacterialTyper__scripts__fastqc_caller__main&#45;&gt;BacterialTyper__scripts__fastqc_caller__call_fastqc -->
<g id="edge6" class="edge">
<title>BacterialTyper__scripts__fastqc_caller__main&#45;&gt;BacterialTyper__scripts__fastqc_caller__call_fastqc</title>
<path fill="none" stroke="#000000" d="M209.9578,-100.3221C203.9853,-96.2093 197.3045,-91.7864 191,-88 175.3347,-78.5915 157.5548,-69.0878 142.0973,-61.1808"/>
<polygon fill="#000000" stroke="#000000" points="143.3151,-57.8744 132.8126,-56.4791 140.1527,-64.1193 143.3151,-57.8744"/>
</g>
<!-- BacterialTyper__scripts__fastqc_caller__main&#45;&gt;BacterialTyper__scripts__fastqc_caller__get_files -->
<g id="edge5" class="edge">
<title>BacterialTyper__scripts__fastqc_caller__main&#45;&gt;BacterialTyper__scripts__fastqc_caller__get_files</title>
<path fill="none" stroke="#000000" d="M224.5506,-96.2022C222.5751,-88.3005 220.2027,-78.811 217.999,-69.9959"/>
<polygon fill="#000000" stroke="#000000" points="221.3442,-68.9456 215.5233,-60.0931 214.5532,-70.6434 221.3442,-68.9456"/>
</g>
<!-- BacterialTyper__scripts__fastqc_caller__main&#45;&gt;BacterialTyper__scripts__fastqc_caller__help_options -->
<g id="edge4" class="edge">
<title>BacterialTyper__scripts__fastqc_caller__main&#45;&gt;BacterialTyper__scripts__fastqc_caller__help_options</title>
<path fill="none" stroke="#000000" d="M247.7026,-100.1177C261.1733,-90.1188 279.6512,-76.4032 295.2737,-64.8071"/>
<polygon fill="#000000" stroke="#000000" points="297.6656,-67.3906 303.6092,-58.62 293.4934,-61.7698 297.6656,-67.3906"/>
</g>
<!-- BacterialTyper__scripts__fastqc_caller__parse_fastqcFile -->
<g id="node9" class="node">
<title>BacterialTyper__scripts__fastqc_caller__parse_fastqcFile</title>
<ellipse fill="#ff6565" fill-opacity="0.698039" stroke="#000000" cx="468" cy="-42" rx="68.4888" ry="18"/>
<text text-anchor="middle" x="468" y="-38.3" font-family="Times,serif" font-size="14.00" fill="#000000">parse_fastqcFile</text>
</g>
<!-- BacterialTyper__scripts__fastqc_caller__main&#45;&gt;BacterialTyper__scripts__fastqc_caller__parse_fastqcFile -->
<g id="edge3" class="edge">
<title>BacterialTyper__scripts__fastqc_caller__main&#45;&gt;BacterialTyper__scripts__fastqc_caller__parse_fastqcFile</title>
<path fill="none" stroke="#000000" d="M246.7328,-99.82C252.863,-95.4892 259.9654,-91.0664 267,-88 318.7921,-65.4239 335.9363,-72.6527 391,-60 396.055,-58.8384 401.2951,-57.6277 406.5555,-56.4075"/>
<polygon fill="#000000" stroke="#000000" points="407.7057,-59.7336 416.6534,-54.06 406.1205,-52.9154 407.7057,-59.7336"/>
</g>
<!-- BacterialTyper__scripts__fastqc_caller__run_module_fastqc -->
<g id="node10" class="node">
<title>BacterialTyper__scripts__fastqc_caller__run_module_fastqc</title>
<ellipse fill="#ff6565" fill-opacity="0.698039" stroke="#000000" cx="103" cy="-114" rx="79.0865" ry="18"/>
<text text-anchor="middle" x="103" y="-110.3" font-family="Times,serif" font-size="14.00" fill="#000000">run_module_fastqc</text>
</g>
<!-- BacterialTyper__scripts__fastqc_caller__run_module_fastqc&#45;&gt;BacterialTyper__scripts__fastqc_caller__call_fastqc -->
<g id="edge2" class="edge">
<title>BacterialTyper__scripts__fastqc_caller__run_module_fastqc&#45;&gt;BacterialTyper__scripts__fastqc_caller__call_fastqc</title>
<path fill="none" stroke="#000000" d="M103,-95.8314C103,-88.131 103,-78.9743 103,-70.4166"/>
<polygon fill="#000000" stroke="#000000" points="106.5001,-70.4132 103,-60.4133 99.5001,-70.4133 106.5001,-70.4132"/>
</g>
<!-- BacterialTyper__scripts__fastqc_caller__fastqcObject____init__ -->
<g id="node11" class="node">
<title>BacterialTyper__scripts__fastqc_caller__fastqcObject____init__</title>
<ellipse fill="#ff3232" fill-opacity="0.698039" stroke="#000000" cx="2022" cy="-114" rx="40.0939" ry="18"/>
<text text-anchor="middle" x="2022" y="-110.3" font-family="Times,serif" font-size="14.00" fill="#000000">__init__</text>
</g>
<!-- BacterialTyper__scripts__fastqc_caller__fastqcObject____repr__ -->
<g id="node12" class="node">
<title>BacterialTyper__scripts__fastqc_caller__fastqcObject____repr__</title>
<ellipse fill="#ff3232" fill-opacity="0.698039" stroke="#000000" cx="1921" cy="-114" rx="42.4939" ry="18"/>
<text text-anchor="middle" x="1921" y="-110.3" font-family="Times,serif" font-size="14.00" fill="#000000">__repr__</text>
</g>
<!-- BacterialTyper__scripts__fastqc_caller__fastqcObject____str__ -->
<g id="node13" class="node">
<title>BacterialTyper__scripts__fastqc_caller__fastqcObject____str__</title>
<ellipse fill="#ff3232" fill-opacity="0.698039" stroke="#000000" cx="1824" cy="-114" rx="37.0935" ry="18"/>
<text text-anchor="middle" x="1824" y="-110.3" font-family="Times,serif" font-size="14.00" fill="#000000">__str__</text>
</g>
<!-- BacterialTyper__scripts__fastqc_caller__fastqcObject__get_StatisticsFrame -->
<g id="node14" class="node">
<title>BacterialTyper__scripts__fastqc_caller__fastqcObject__get_StatisticsFrame</title>
<ellipse fill="#ff3232" fill-opacity="0.698039" stroke="#000000" cx="1688" cy="-114" rx="80.6858" ry="18"/>
<text text-anchor="middle" x="1688" y="-110.3" font-family="Times,serif" font-size="14.00" fill="#000000">get_StatisticsFrame</text>
</g>
<!-- BacterialTyper__scripts__fastqc_caller__fastqcObject__get_StatusFrame -->
<g id="node15" class="node">
<title>BacterialTyper__scripts__fastqc_caller__fastqcObject__get_StatusFrame</title>
<ellipse fill="#ff3232" fill-opacity="0.698039" stroke="#000000" cx="1519" cy="-114" rx="70.3881" ry="18"/>
<text text-anchor="middle" x="1519" y="-110.3" font-family="Times,serif" font-size="14.00" fill="#000000">get_StatusFrame</text>
</g>
<!-- BacterialTyper__scripts__fastqc_caller__fastqcObject__get_sample -->
<g id="node16" class="node">
<title>BacterialTyper__scripts__fastqc_caller__fastqcObject__get_sample</title>
<ellipse fill="#ff3232" fill-opacity="0.698039" stroke="#000000" cx="1379" cy="-114" rx="51.1914" ry="18"/>
<text text-anchor="middle" x="1379" y="-110.3" font-family="Times,serif" font-size="14.00" fill="#000000">get_sample</text>
</g>
<!-- BacterialTyper__scripts__fastqc_caller__fastqcObject__print_header -->
<g id="node17" class="node">
<title>BacterialTyper__scripts__fastqc_caller__fastqcObject__print_header</title>
<ellipse fill="#ff3232" fill-opacity="0.698039" stroke="#000000" cx="1254" cy="-114" rx="55.4913" ry="18"/>
<text text-anchor="middle" x="1254" y="-110.3" font-family="Times,serif" font-size="14.00" fill="#000000">print_header</text>
</g>
<!-- BacterialTyper__scripts__fastqc_caller__fastqcObject__set_StatisticsFrame -->
<g id="node18" class="node">
<title>BacterialTyper__scripts__fastqc_caller__fastqcObject__set_StatisticsFrame</title>
<ellipse fill="#ff3232" fill-opacity="0.698039" stroke="#000000" cx="1101" cy="-114" rx="79.0865" ry="18"/>
<text text-anchor="middle" x="1101" y="-110.3" font-family="Times,serif" font-size="14.00" fill="#000000">set_StatisticsFrame</text>
</g>
<!-- BacterialTyper__scripts__fastqc_caller__fastqcObject__set_StatusFrame -->
<g id="node19" class="node">
<title>BacterialTyper__scripts__fastqc_caller__fastqcObject__set_StatusFrame</title>
<ellipse fill="#ff3232" fill-opacity="0.698039" stroke="#000000" cx="934" cy="-114" rx="69.5877" ry="18"/>
<text text-anchor="middle" x="934" y="-110.3" font-family="Times,serif" font-size="14.00" fill="#000000">set_StatusFrame</text>
</g>
<!-- BacterialTyper__scripts__fastqc_caller__fastqcObject__set_sample -->
<g id="node20" class="node">
<title>BacterialTyper__scripts__fastqc_caller__fastqcObject__set_sample</title>
<ellipse fill="#ff3232" fill-opacity="0.698039" stroke="#000000" cx="796" cy="-114" rx="50.0912" ry="18"/>
<text text-anchor="middle" x="796" y="-110.3" font-family="Times,serif" font-size="14.00" fill="#000000">set_sample</text>
</g>
</g>
</svg>
