<?xml version="1.0" encoding="UTF-8" standalone="no"?>
<!DOCTYPE svg PUBLIC "-//W3C//DTD SVG 1.1//EN"
 "http://www.w3.org/Graphics/SVG/1.1/DTD/svg11.dtd">
<!-- Generated by graphviz version 2.40.1 (20161225.0304)
 -->
<!-- Title: G Pages: 1 -->
<svg width="670pt" height="115pt"
 viewBox="0.00 0.00 670.00 115.00" xmlns="http://www.w3.org/2000/svg" xmlns:xlink="http://www.w3.org/1999/xlink">
<g id="graph0" class="graph" transform="scale(1 1) rotate(0) translate(4 111)">
<title>G</title>
<polygon fill="#ffffff" stroke="transparent" points="-4,4 -4,-111 666,-111 666,4 -4,4"/>
<g id="clust1" class="cluster">
<title>cluster_G</title>
<path fill="#808080" fill-opacity="0.094118" stroke="#000000" d="M20,-8C20,-8 642,-8 642,-8 648,-8 654,-14 654,-20 654,-20 654,-87 654,-87 654,-93 648,-99 642,-99 642,-99 20,-99 20,-99 14,-99 8,-93 8,-87 8,-87 8,-20 8,-20 8,-14 14,-8 20,-8"/>
</g>
<g id="clust2" class="cluster">
<title>cluster_BacterialTyper__scripts__get_descendant</title>
<path fill="#808080" fill-opacity="0.094118" stroke="#000000" d="M330,-16C330,-16 634,-16 634,-16 640,-16 646,-22 646,-28 646,-28 646,-79 646,-79 646,-85 640,-91 634,-91 634,-91 330,-91 330,-91 324,-91 318,-85 318,-79 318,-79 318,-28 318,-28 318,-22 324,-16 330,-16"/>
<text text-anchor="middle" x="482" y="-75.8" font-family="Times,serif" font-size="14.00" fill="#000000">BacterialTyper.scripts.get_descendant</text>
</g>
<!-- BacterialTyper__scripts__get_descendant -->
<g id="node1" class="node">
<title>BacterialTyper__scripts__get_descendant</title>
<ellipse fill="#ffffff" fill-opacity="0.698039" stroke="#000000" cx="162" cy="-42" rx="145.6742" ry="18"/>
<text text-anchor="middle" x="162" y="-38.3" font-family="Times,serif" font-size="14.00" fill="#000000">BacterialTyper.scripts.get_descendant</text>
</g>
<!-- BacterialTyper__scripts__get_descendant__NCBItaxa_db -->
<g id="node2" class="node">
<title>BacterialTyper__scripts__get_descendant__NCBItaxa_db</title>
<ellipse fill="#ff6565" fill-opacity="0.698039" stroke="#000000" cx="578" cy="-42" rx="59.5901" ry="18"/>
<text text-anchor="middle" x="578" y="-38.3" font-family="Times,serif" font-size="14.00" fill="#000000">NCBItaxa_db</text>
</g>
<!-- BacterialTyper__scripts__get_descendant__get_descendant_taxid -->
<g id="node3" class="node">
<title>BacterialTyper__scripts__get_descendant__get_descendant_taxid</title>
<ellipse fill="#ff6565" fill-opacity="0.698039" stroke="#000000" cx="413" cy="-42" rx="87.1846" ry="18"/>
<text text-anchor="middle" x="413" y="-38.3" font-family="Times,serif" font-size="14.00" fill="#000000">get_descendant_taxid</text>
</g>
</g>
</svg>
