<?xml version="1.0" encoding="UTF-8" standalone="no"?>
<!DOCTYPE svg PUBLIC "-//W3C//DTD SVG 1.1//EN"
 "http://www.w3.org/Graphics/SVG/1.1/DTD/svg11.dtd">
<!-- Generated by graphviz version 2.40.1 (20161225.0304)
 -->
<!-- Title: G Pages: 1 -->
<svg width="469pt" height="231pt"
 viewBox="0.00 0.00 469.00 231.00" xmlns="http://www.w3.org/2000/svg" xmlns:xlink="http://www.w3.org/1999/xlink">
<g id="graph0" class="graph" transform="scale(1 1) rotate(0) translate(4 227)">
<title>G</title>
<polygon fill="#ffffff" stroke="transparent" points="-4,4 -4,-227 465,-227 465,4 -4,4"/>
<g id="clust1" class="cluster">
<title>cluster_G</title>
<path fill="#808080" fill-opacity="0.094118" stroke="#000000" d="M20,-8C20,-8 441,-8 441,-8 447,-8 453,-14 453,-20 453,-20 453,-203 453,-203 453,-209 447,-215 441,-215 441,-215 20,-215 20,-215 14,-215 8,-209 8,-203 8,-203 8,-20 8,-20 8,-14 14,-8 20,-8"/>
</g>
<g id="clust2" class="cluster">
<title>cluster_BacterialTyper__scripts__multiQC_report</title>
<path fill="#808080" fill-opacity="0.094118" stroke="#000000" d="M28,-16C28,-16 433,-16 433,-16 439,-16 445,-22 445,-28 445,-28 445,-151 445,-151 445,-157 439,-163 433,-163 433,-163 28,-163 28,-163 22,-163 16,-157 16,-151 16,-151 16,-28 16,-28 16,-22 22,-16 28,-16"/>
<text text-anchor="middle" x="230.5" y="-147.8" font-family="Times,serif" font-size="14.00" fill="#000000">BacterialTyper.scripts.multiQC_report</text>
</g>
<!-- BacterialTyper__scripts__multiQC_report -->
<g id="node1" class="node">
<title>BacterialTyper__scripts__multiQC_report</title>
<ellipse fill="#ffffff" fill-opacity="0.698039" stroke="#000000" cx="297" cy="-189" rx="147.5738" ry="18"/>
<text text-anchor="middle" x="297" y="-185.3" font-family="Times,serif" font-size="14.00" fill="#000000">BacterialTyper.scripts.multiQC_report</text>
</g>
<!-- BacterialTyper__scripts__multiQC_report__main -->
<g id="node3" class="node">
<title>BacterialTyper__scripts__multiQC_report__main</title>
<ellipse fill="#ff6565" fill-opacity="0.698039" stroke="#000000" cx="385" cy="-114" rx="28.6953" ry="18"/>
<text text-anchor="middle" x="385" y="-110.3" font-family="Times,serif" font-size="14.00" fill="#000000">main</text>
</g>
<!-- BacterialTyper__scripts__multiQC_report&#45;&gt;BacterialTyper__scripts__multiQC_report__main -->
<g id="edge1" class="edge">
<title>BacterialTyper__scripts__multiQC_report&#45;&gt;BacterialTyper__scripts__multiQC_report__main</title>
<path fill="none" stroke="#000000" d="M334.9854,-171.5174C339.2151,-168.9195 343.3189,-166.0714 347,-163 355.098,-156.2433 362.5632,-147.4819 368.6938,-139.2397"/>
<polygon fill="#000000" stroke="#000000" points="371.6458,-141.1275 374.5702,-130.9442 365.9337,-137.0812 371.6458,-141.1275"/>
</g>
<!-- BacterialTyper__scripts__multiQC_report__help_options -->
<g id="node2" class="node">
<title>BacterialTyper__scripts__multiQC_report__help_options</title>
<ellipse fill="#ff6565" fill-opacity="0.698039" stroke="#000000" cx="381" cy="-42" rx="55.7903" ry="18"/>
<text text-anchor="middle" x="381" y="-38.3" font-family="Times,serif" font-size="14.00" fill="#000000">help_options</text>
</g>
<!-- BacterialTyper__scripts__multiQC_report__main&#45;&gt;BacterialTyper__scripts__multiQC_report__help_options -->
<g id="edge3" class="edge">
<title>BacterialTyper__scripts__multiQC_report__main&#45;&gt;BacterialTyper__scripts__multiQC_report__help_options</title>
<path fill="none" stroke="#000000" d="M383.9906,-95.8314C383.5628,-88.131 383.0541,-78.9743 382.5787,-70.4166"/>
<polygon fill="#000000" stroke="#000000" points="386.0724,-70.2037 382.023,-60.4133 379.0831,-70.592 386.0724,-70.2037"/>
</g>
<!-- BacterialTyper__scripts__multiQC_report__multiQC_call -->
<g id="node4" class="node">
<title>BacterialTyper__scripts__multiQC_report__multiQC_call</title>
<ellipse fill="#ff6565" fill-opacity="0.698039" stroke="#000000" cx="248" cy="-42" rx="59.2899" ry="18"/>
<text text-anchor="middle" x="248" y="-38.3" font-family="Times,serif" font-size="14.00" fill="#000000">multiQC_call</text>
</g>
<!-- BacterialTyper__scripts__multiQC_report__main&#45;&gt;BacterialTyper__scripts__multiQC_report__multiQC_call -->
<g id="edge4" class="edge">
<title>BacterialTyper__scripts__multiQC_report__main&#45;&gt;BacterialTyper__scripts__multiQC_report__multiQC_call</title>
<path fill="none" stroke="#000000" d="M362.9886,-102.432C342.5323,-91.6812 311.6031,-75.4264 286.9726,-62.482"/>
<polygon fill="#000000" stroke="#000000" points="288.3564,-59.2553 277.8761,-57.7013 285.0999,-65.4517 288.3564,-59.2553"/>
</g>
<!-- BacterialTyper__scripts__multiQC_report__multiQC_module_call -->
<g id="node5" class="node">
<title>BacterialTyper__scripts__multiQC_report__multiQC_module_call</title>
<ellipse fill="#ff6565" fill-opacity="0.698039" stroke="#000000" cx="248" cy="-114" rx="90.1842" ry="18"/>
<text text-anchor="middle" x="248" y="-110.3" font-family="Times,serif" font-size="14.00" fill="#000000">multiQC_module_call</text>
</g>
<!-- BacterialTyper__scripts__multiQC_report__multiQC_module_call&#45;&gt;BacterialTyper__scripts__multiQC_report__multiQC_call -->
<g id="edge2" class="edge">
<title>BacterialTyper__scripts__multiQC_report__multiQC_module_call&#45;&gt;BacterialTyper__scripts__multiQC_report__multiQC_call</title>
<path fill="none" stroke="#000000" d="M248,-95.8314C248,-88.131 248,-78.9743 248,-70.4166"/>
<polygon fill="#000000" stroke="#000000" points="251.5001,-70.4132 248,-60.4133 244.5001,-70.4133 251.5001,-70.4132"/>
</g>
<!-- BacterialTyper__scripts__multiQC_report__multiqc_help -->
<g id="node6" class="node">
<title>BacterialTyper__scripts__multiQC_report__multiqc_help</title>
<ellipse fill="#ff6565" fill-opacity="0.698039" stroke="#000000" cx="82" cy="-114" rx="57.6901" ry="18"/>
<text text-anchor="middle" x="82" y="-110.3" font-family="Times,serif" font-size="14.00" fill="#000000">multiqc_help</text>
</g>
</g>
</svg>
