<?xml version="1.0" encoding="UTF-8" standalone="no"?>
<!DOCTYPE svg PUBLIC "-//W3C//DTD SVG 1.1//EN"
 "http://www.w3.org/Graphics/SVG/1.1/DTD/svg11.dtd">
<!-- Generated by graphviz version 2.40.1 (20161225.0304)
 -->
<!-- Title: G Pages: 1 -->
<svg width="692pt" height="303pt"
 viewBox="0.00 0.00 692.00 303.00" xmlns="http://www.w3.org/2000/svg" xmlns:xlink="http://www.w3.org/1999/xlink">
<g id="graph0" class="graph" transform="scale(1 1) rotate(0) translate(4 299)">
<title>G</title>
<polygon fill="#ffffff" stroke="transparent" points="-4,4 -4,-299 688,-299 688,4 -4,4"/>
<g id="clust1" class="cluster">
<title>cluster_G</title>
<path fill="#808080" fill-opacity="0.094118" stroke="#000000" d="M20,-8C20,-8 664,-8 664,-8 670,-8 676,-14 676,-20 676,-20 676,-275 676,-275 676,-281 670,-287 664,-287 664,-287 20,-287 20,-287 14,-287 8,-281 8,-275 8,-275 8,-20 8,-20 8,-14 14,-8 20,-8"/>
</g>
<g id="clust2" class="cluster">
<title>cluster_BacterialTyper__scripts__sampleParser</title>
<path fill="#808080" fill-opacity="0.094118" stroke="#000000" d="M28,-16C28,-16 656,-16 656,-16 662,-16 668,-22 668,-28 668,-28 668,-223 668,-223 668,-229 662,-235 656,-235 656,-235 28,-235 28,-235 22,-235 16,-229 16,-223 16,-223 16,-28 16,-28 16,-22 22,-16 28,-16"/>
<text text-anchor="middle" x="342" y="-219.8" font-family="Times,serif" font-size="14.00" fill="#000000">BacterialTyper.scripts.sampleParser</text>
</g>
<!-- BacterialTyper__scripts__sampleParser -->
<g id="node1" class="node">
<title>BacterialTyper__scripts__sampleParser</title>
<ellipse fill="#ffffff" fill-opacity="0.698039" stroke="#000000" cx="239" cy="-261" rx="138.3755" ry="18"/>
<text text-anchor="middle" x="239" y="-257.3" font-family="Times,serif" font-size="14.00" fill="#000000">BacterialTyper.scripts.sampleParser</text>
</g>
<!-- BacterialTyper__scripts__sampleParser__main -->
<g id="node7" class="node">
<title>BacterialTyper__scripts__sampleParser__main</title>
<ellipse fill="#ff6565" fill-opacity="0.698039" stroke="#000000" cx="239" cy="-186" rx="28.6953" ry="18"/>
<text text-anchor="middle" x="239" y="-182.3" font-family="Times,serif" font-size="14.00" fill="#000000">main</text>
</g>
<!-- BacterialTyper__scripts__sampleParser&#45;&gt;BacterialTyper__scripts__sampleParser__main -->
<g id="edge1" class="edge">
<title>BacterialTyper__scripts__sampleParser&#45;&gt;BacterialTyper__scripts__sampleParser__main</title>
<path fill="none" stroke="#000000" d="M239,-242.8446C239,-234.3401 239,-224.0076 239,-214.4964"/>
<polygon fill="#000000" stroke="#000000" points="242.5001,-214.2481 239,-204.2482 235.5001,-214.2482 242.5001,-214.2481"/>
</g>
<!-- BacterialTyper__scripts__sampleParser__get_fields -->
<g id="node2" class="node">
<title>BacterialTyper__scripts__sampleParser__get_fields</title>
<ellipse fill="#ff6565" fill-opacity="0.698039" stroke="#000000" cx="406" cy="-42" rx="45.4919" ry="18"/>
<text text-anchor="middle" x="406" y="-38.3" font-family="Times,serif" font-size="14.00" fill="#000000">get_fields</text>
</g>
<!-- BacterialTyper__scripts__sampleParser__get_files -->
<g id="node3" class="node">
<title>BacterialTyper__scripts__sampleParser__get_files</title>
<ellipse fill="#ff6565" fill-opacity="0.698039" stroke="#000000" cx="543" cy="-186" rx="40.8928" ry="18"/>
<text text-anchor="middle" x="543" y="-182.3" font-family="Times,serif" font-size="14.00" fill="#000000">get_files</text>
</g>
<!-- BacterialTyper__scripts__sampleParser__select_other_samples -->
<g id="node9" class="node">
<title>BacterialTyper__scripts__sampleParser__select_other_samples</title>
<ellipse fill="#ff6565" fill-opacity="0.698039" stroke="#000000" cx="574" cy="-114" rx="86.3847" ry="18"/>
<text text-anchor="middle" x="574" y="-110.3" font-family="Times,serif" font-size="14.00" fill="#000000">select_other_samples</text>
</g>
<!-- BacterialTyper__scripts__sampleParser__get_files&#45;&gt;BacterialTyper__scripts__sampleParser__select_other_samples -->
<g id="edge5" class="edge">
<title>BacterialTyper__scripts__sampleParser__get_files&#45;&gt;BacterialTyper__scripts__sampleParser__select_other_samples</title>
<path fill="none" stroke="#000000" d="M550.6629,-168.2022C554.139,-160.1287 558.3288,-150.3976 562.1933,-141.422"/>
<polygon fill="#000000" stroke="#000000" points="565.47,-142.6621 566.2099,-132.0931 559.0406,-139.8938 565.47,-142.6621"/>
</g>
<!-- BacterialTyper__scripts__sampleParser__select_samples -->
<g id="node10" class="node">
<title>BacterialTyper__scripts__sampleParser__select_samples</title>
<ellipse fill="#ff6565" fill-opacity="0.698039" stroke="#000000" cx="406" cy="-114" rx="63.8893" ry="18"/>
<text text-anchor="middle" x="406" y="-110.3" font-family="Times,serif" font-size="14.00" fill="#000000">select_samples</text>
</g>
<!-- BacterialTyper__scripts__sampleParser__get_files&#45;&gt;BacterialTyper__scripts__sampleParser__select_samples -->
<g id="edge4" class="edge">
<title>BacterialTyper__scripts__sampleParser__get_files&#45;&gt;BacterialTyper__scripts__sampleParser__select_samples</title>
<path fill="none" stroke="#000000" d="M516.585,-172.1177C496.4932,-161.5585 468.5148,-146.8545 445.7277,-134.8788"/>
<polygon fill="#000000" stroke="#000000" points="447.1191,-131.6562 436.6389,-130.1022 443.8626,-137.8526 447.1191,-131.6562"/>
</g>
<!-- BacterialTyper__scripts__sampleParser__gunzip_merge -->
<g id="node4" class="node">
<title>BacterialTyper__scripts__sampleParser__gunzip_merge</title>
<ellipse fill="#ff6565" fill-opacity="0.698039" stroke="#000000" cx="239" cy="-42" rx="61.99" ry="18"/>
<text text-anchor="middle" x="239" y="-38.3" font-family="Times,serif" font-size="14.00" fill="#000000">gunzip_merge</text>
</g>
<!-- BacterialTyper__scripts__sampleParser__help_format -->
<g id="node5" class="node">
<title>BacterialTyper__scripts__sampleParser__help_format</title>
<ellipse fill="#ff6565" fill-opacity="0.698039" stroke="#000000" cx="400" cy="-186" rx="53.8905" ry="18"/>
<text text-anchor="middle" x="400" y="-182.3" font-family="Times,serif" font-size="14.00" fill="#000000">help_format</text>
</g>
<!-- BacterialTyper__scripts__sampleParser__help_options -->
<g id="node6" class="node">
<title>BacterialTyper__scripts__sampleParser__help_options</title>
<ellipse fill="#ff6565" fill-opacity="0.698039" stroke="#000000" cx="80" cy="-114" rx="55.7903" ry="18"/>
<text text-anchor="middle" x="80" y="-110.3" font-family="Times,serif" font-size="14.00" fill="#000000">help_options</text>
</g>
<!-- BacterialTyper__scripts__sampleParser__main&#45;&gt;BacterialTyper__scripts__sampleParser__help_options -->
<g id="edge8" class="edge">
<title>BacterialTyper__scripts__sampleParser__main&#45;&gt;BacterialTyper__scripts__sampleParser__help_options</title>
<path fill="none" stroke="#000000" d="M215.539,-175.3762C190.9854,-164.2575 151.9214,-146.5682 122.0253,-133.0303"/>
<polygon fill="#000000" stroke="#000000" points="123.2242,-129.7312 112.6709,-128.7944 120.3366,-136.1078 123.2242,-129.7312"/>
</g>
<!-- BacterialTyper__scripts__sampleParser__one_file_per_sample -->
<g id="node8" class="node">
<title>BacterialTyper__scripts__sampleParser__one_file_per_sample</title>
<ellipse fill="#ff6565" fill-opacity="0.698039" stroke="#000000" cx="239" cy="-114" rx="85.2851" ry="18"/>
<text text-anchor="middle" x="239" y="-110.3" font-family="Times,serif" font-size="14.00" fill="#000000">one_file_per_sample</text>
</g>
<!-- BacterialTyper__scripts__sampleParser__main&#45;&gt;BacterialTyper__scripts__sampleParser__one_file_per_sample -->
<g id="edge6" class="edge">
<title>BacterialTyper__scripts__sampleParser__main&#45;&gt;BacterialTyper__scripts__sampleParser__one_file_per_sample</title>
<path fill="none" stroke="#000000" d="M239,-167.8314C239,-160.131 239,-150.9743 239,-142.4166"/>
<polygon fill="#000000" stroke="#000000" points="242.5001,-142.4132 239,-132.4133 235.5001,-142.4133 242.5001,-142.4132"/>
</g>
<!-- BacterialTyper__scripts__sampleParser__main&#45;&gt;BacterialTyper__scripts__sampleParser__select_samples -->
<g id="edge7" class="edge">
<title>BacterialTyper__scripts__sampleParser__main&#45;&gt;BacterialTyper__scripts__sampleParser__select_samples</title>
<path fill="none" stroke="#000000" d="M262.927,-175.6842C288.5916,-164.6192 329.9231,-146.7996 361.5789,-133.1516"/>
<polygon fill="#000000" stroke="#000000" points="363.2672,-136.2352 371.0644,-129.062 360.4958,-129.8072 363.2672,-136.2352"/>
</g>
<!-- BacterialTyper__scripts__sampleParser__one_file_per_sample&#45;&gt;BacterialTyper__scripts__sampleParser__gunzip_merge -->
<g id="edge3" class="edge">
<title>BacterialTyper__scripts__sampleParser__one_file_per_sample&#45;&gt;BacterialTyper__scripts__sampleParser__gunzip_merge</title>
<path fill="none" stroke="#000000" d="M239,-95.8314C239,-88.131 239,-78.9743 239,-70.4166"/>
<polygon fill="#000000" stroke="#000000" points="242.5001,-70.4132 239,-60.4133 235.5001,-70.4133 242.5001,-70.4132"/>
</g>
<!-- BacterialTyper__scripts__sampleParser__select_samples&#45;&gt;BacterialTyper__scripts__sampleParser__get_fields -->
<g id="edge2" class="edge">
<title>BacterialTyper__scripts__sampleParser__select_samples&#45;&gt;BacterialTyper__scripts__sampleParser__get_fields</title>
<path fill="none" stroke="#000000" d="M406,-95.8314C406,-88.131 406,-78.9743 406,-70.4166"/>
<polygon fill="#000000" stroke="#000000" points="409.5001,-70.4132 406,-60.4133 402.5001,-70.4133 409.5001,-70.4132"/>
</g>
</g>
</svg>
