<?xml version="1.0" encoding="UTF-8" standalone="no"?>
<!DOCTYPE svg PUBLIC "-//W3C//DTD SVG 1.1//EN"
 "http://www.w3.org/Graphics/SVG/1.1/DTD/svg11.dtd">
<!-- Generated by graphviz version 2.40.1 (20161225.0304)
 -->
<!-- Title: G Pages: 1 -->
<svg width="726pt" height="303pt"
 viewBox="0.00 0.00 726.00 303.00" xmlns="http://www.w3.org/2000/svg" xmlns:xlink="http://www.w3.org/1999/xlink">
<g id="graph0" class="graph" transform="scale(1 1) rotate(0) translate(4 299)">
<title>G</title>
<polygon fill="#ffffff" stroke="transparent" points="-4,4 -4,-299 722,-299 722,4 -4,4"/>
<g id="clust1" class="cluster">
<title>cluster_G</title>
<path fill="#808080" fill-opacity="0.094118" stroke="#000000" d="M20,-8C20,-8 698,-8 698,-8 704,-8 710,-14 710,-20 710,-20 710,-275 710,-275 710,-281 704,-287 698,-287 698,-287 20,-287 20,-287 14,-287 8,-281 8,-275 8,-275 8,-20 8,-20 8,-14 14,-8 20,-8"/>
</g>
<g id="clust2" class="cluster">
<title>cluster_BacterialTyper__scripts__species_identification_KMA</title>
<path fill="#808080" fill-opacity="0.094118" stroke="#000000" d="M28,-16C28,-16 690,-16 690,-16 696,-16 702,-22 702,-28 702,-28 702,-223 702,-223 702,-229 696,-235 690,-235 690,-235 28,-235 28,-235 22,-235 16,-229 16,-223 16,-223 16,-28 16,-28 16,-22 22,-16 28,-16"/>
<text text-anchor="middle" x="359" y="-219.8" font-family="Times,serif" font-size="14.00" fill="#000000">BacterialTyper.scripts.species_identification_KMA</text>
</g>
<!-- BacterialTyper__scripts__species_identification_KMA -->
<g id="node1" class="node">
<title>BacterialTyper__scripts__species_identification_KMA</title>
<ellipse fill="#ffffff" fill-opacity="0.698039" stroke="#000000" cx="209" cy="-261" rx="193.0657" ry="18"/>
<text text-anchor="middle" x="209" y="-257.3" font-family="Times,serif" font-size="14.00" fill="#000000">BacterialTyper.scripts.species_identification_KMA</text>
</g>
<!-- BacterialTyper__scripts__species_identification_KMA__main -->
<g id="node9" class="node">
<title>BacterialTyper__scripts__species_identification_KMA__main</title>
<ellipse fill="#ff6565" fill-opacity="0.698039" stroke="#000000" cx="80" cy="-186" rx="28.6953" ry="18"/>
<text text-anchor="middle" x="80" y="-182.3" font-family="Times,serif" font-size="14.00" fill="#000000">main</text>
</g>
<!-- BacterialTyper__scripts__species_identification_KMA&#45;&gt;BacterialTyper__scripts__species_identification_KMA__main -->
<g id="edge1" class="edge">
<title>BacterialTyper__scripts__species_identification_KMA&#45;&gt;BacterialTyper__scripts__species_identification_KMA__main</title>
<path fill="none" stroke="#000000" d="M133.8061,-244.293C127.8944,-241.6358 122.2065,-238.5599 117,-235 108.2486,-229.0163 100.7127,-220.2865 94.7686,-211.8474"/>
<polygon fill="#000000" stroke="#000000" points="97.5704,-209.737 89.1663,-203.2855 91.7129,-213.5697 97.5704,-209.737"/>
</g>
<!-- BacterialTyper__scripts__species_identification_KMA__check_db_indexed -->
<g id="node2" class="node">
<title>BacterialTyper__scripts__species_identification_KMA__check_db_indexed</title>
<ellipse fill="#ff6565" fill-opacity="0.698039" stroke="#000000" cx="411" cy="-42" rx="76.8869" ry="18"/>
<text text-anchor="middle" x="411" y="-38.3" font-family="Times,serif" font-size="14.00" fill="#000000">check_db_indexed</text>
</g>
<!-- BacterialTyper__scripts__species_identification_KMA__download_kma_database -->
<g id="node3" class="node">
<title>BacterialTyper__scripts__species_identification_KMA__download_kma_database</title>
<ellipse fill="#ff6565" fill-opacity="0.698039" stroke="#000000" cx="594" cy="-114" rx="100.1823" ry="18"/>
<text text-anchor="middle" x="594" y="-110.3" font-family="Times,serif" font-size="14.00" fill="#000000">download_kma_database</text>
</g>
<!-- BacterialTyper__scripts__species_identification_KMA__download_kma_database&#45;&gt;BacterialTyper__scripts__species_identification_KMA__check_db_indexed -->
<g id="edge2" class="edge">
<title>BacterialTyper__scripts__species_identification_KMA__download_kma_database&#45;&gt;BacterialTyper__scripts__species_identification_KMA__check_db_indexed</title>
<path fill="none" stroke="#000000" d="M552.0161,-97.4817C524.6172,-86.7018 488.7416,-72.5869 460.0332,-61.2918"/>
<polygon fill="#000000" stroke="#000000" points="461.1818,-57.9826 450.5947,-57.5782 458.6189,-64.4965 461.1818,-57.9826"/>
</g>
<!-- BacterialTyper__scripts__species_identification_KMA__generate_db -->
<g id="node4" class="node">
<title>BacterialTyper__scripts__species_identification_KMA__generate_db</title>
<ellipse fill="#ff6565" fill-opacity="0.698039" stroke="#000000" cx="509" cy="-186" rx="53.8905" ry="18"/>
<text text-anchor="middle" x="509" y="-182.3" font-family="Times,serif" font-size="14.00" fill="#000000">generate_db</text>
</g>
<!-- BacterialTyper__scripts__species_identification_KMA__generate_db&#45;&gt;BacterialTyper__scripts__species_identification_KMA__check_db_indexed -->
<g id="edge4" class="edge">
<title>BacterialTyper__scripts__species_identification_KMA__generate_db&#45;&gt;BacterialTyper__scripts__species_identification_KMA__check_db_indexed</title>
<path fill="none" stroke="#000000" d="M468.4159,-173.9023C418.2033,-158.8422 339.0201,-134.7515 337,-132 327.5311,-119.1027 329.751,-110.2637 337,-96 343.668,-82.8796 355.1847,-72.1887 367.1734,-63.8852"/>
<polygon fill="#000000" stroke="#000000" points="369.4045,-66.6118 375.924,-58.2603 365.6194,-60.7234 369.4045,-66.6118"/>
</g>
<!-- BacterialTyper__scripts__species_identification_KMA__index_database -->
<g id="node7" class="node">
<title>BacterialTyper__scripts__species_identification_KMA__index_database</title>
<ellipse fill="#ff6565" fill-opacity="0.698039" stroke="#000000" cx="411" cy="-114" rx="64.9885" ry="18"/>
<text text-anchor="middle" x="411" y="-110.3" font-family="Times,serif" font-size="14.00" fill="#000000">index_database</text>
</g>
<!-- BacterialTyper__scripts__species_identification_KMA__generate_db&#45;&gt;BacterialTyper__scripts__species_identification_KMA__index_database -->
<g id="edge5" class="edge">
<title>BacterialTyper__scripts__species_identification_KMA__generate_db&#45;&gt;BacterialTyper__scripts__species_identification_KMA__index_database</title>
<path fill="none" stroke="#000000" d="M486.2705,-169.3008C473.1304,-159.6468 456.4117,-147.3637 442.0701,-136.827"/>
<polygon fill="#000000" stroke="#000000" points="444.0768,-133.9583 433.9457,-130.8581 439.9323,-139.5995 444.0768,-133.9583"/>
</g>
<!-- BacterialTyper__scripts__species_identification_KMA__help_kma_database -->
<g id="node5" class="node">
<title>BacterialTyper__scripts__species_identification_KMA__help_kma_database</title>
<ellipse fill="#ff6565" fill-opacity="0.698039" stroke="#000000" cx="356" cy="-186" rx="80.6858" ry="18"/>
<text text-anchor="middle" x="356" y="-182.3" font-family="Times,serif" font-size="14.00" fill="#000000">help_kma_database</text>
</g>
<!-- BacterialTyper__scripts__species_identification_KMA__help_options -->
<g id="node6" class="node">
<title>BacterialTyper__scripts__species_identification_KMA__help_options</title>
<ellipse fill="#ff6565" fill-opacity="0.698039" stroke="#000000" cx="80" cy="-114" rx="55.7903" ry="18"/>
<text text-anchor="middle" x="80" y="-110.3" font-family="Times,serif" font-size="14.00" fill="#000000">help_options</text>
</g>
<!-- BacterialTyper__scripts__species_identification_KMA__index_database&#45;&gt;BacterialTyper__scripts__species_identification_KMA__check_db_indexed -->
<g id="edge3" class="edge">
<title>BacterialTyper__scripts__species_identification_KMA__index_database&#45;&gt;BacterialTyper__scripts__species_identification_KMA__check_db_indexed</title>
<path fill="none" stroke="#000000" d="M411,-95.8314C411,-88.131 411,-78.9743 411,-70.4166"/>
<polygon fill="#000000" stroke="#000000" points="414.5001,-70.4132 411,-60.4133 407.5001,-70.4133 414.5001,-70.4132"/>
</g>
<!-- BacterialTyper__scripts__species_identification_KMA__kma_ident_call -->
<g id="node8" class="node">
<title>BacterialTyper__scripts__species_identification_KMA__kma_ident_call</title>
<ellipse fill="#ff6565" fill-opacity="0.698039" stroke="#000000" cx="192" cy="-186" rx="65.7887" ry="18"/>
<text text-anchor="middle" x="192" y="-182.3" font-family="Times,serif" font-size="14.00" fill="#000000">kma_ident_call</text>
</g>
<!-- BacterialTyper__scripts__species_identification_KMA__main&#45;&gt;BacterialTyper__scripts__species_identification_KMA__help_options -->
<g id="edge7" class="edge">
<title>BacterialTyper__scripts__species_identification_KMA__main&#45;&gt;BacterialTyper__scripts__species_identification_KMA__help_options</title>
<path fill="none" stroke="#000000" d="M80,-167.8314C80,-160.131 80,-150.9743 80,-142.4166"/>
<polygon fill="#000000" stroke="#000000" points="83.5001,-142.4132 80,-132.4133 76.5001,-142.4133 83.5001,-142.4132"/>
</g>
<!-- BacterialTyper__scripts__species_identification_KMA__parse_kma_results -->
<g id="node10" class="node">
<title>BacterialTyper__scripts__species_identification_KMA__parse_kma_results</title>
<ellipse fill="#ff6565" fill-opacity="0.698039" stroke="#000000" cx="231" cy="-114" rx="76.8869" ry="18"/>
<text text-anchor="middle" x="231" y="-110.3" font-family="Times,serif" font-size="14.00" fill="#000000">parse_kma_results</text>
</g>
<!-- BacterialTyper__scripts__species_identification_KMA__main&#45;&gt;BacterialTyper__scripts__species_identification_KMA__parse_kma_results -->
<g id="edge6" class="edge">
<title>BacterialTyper__scripts__species_identification_KMA__main&#45;&gt;BacterialTyper__scripts__species_identification_KMA__parse_kma_results</title>
<path fill="none" stroke="#000000" d="M102.6801,-174.9203C107.4081,-172.6236 112.3634,-170.2259 117,-168 140.2169,-156.8543 166.1596,-144.5536 187.4247,-134.5109"/>
<polygon fill="#000000" stroke="#000000" points="188.9843,-137.6452 196.534,-130.212 185.9967,-131.3147 188.9843,-137.6452"/>
</g>
</g>
</svg>
