<?xml version="1.0" encoding="UTF-8" standalone="no"?>
<!DOCTYPE svg PUBLIC "-//W3C//DTD SVG 1.1//EN"
 "http://www.w3.org/Graphics/SVG/1.1/DTD/svg11.dtd">
<!-- Generated by graphviz version 2.40.1 (20161225.0304)
 -->
<!-- Title: G Pages: 1 -->
<svg width="628pt" height="222pt"
 viewBox="0.00 0.00 628.00 222.48" xmlns="http://www.w3.org/2000/svg" xmlns:xlink="http://www.w3.org/1999/xlink">
<g id="graph0" class="graph" transform="scale(1 1) rotate(0) translate(4 218.4802)">
<title>G</title>
<polygon fill="#ffffff" stroke="transparent" points="-4,4 -4,-218.4802 624,-218.4802 624,4 -4,4"/>
<g id="clust1" class="cluster">
<title>cluster_G</title>
<path fill="#808080" fill-opacity="0.094118" stroke="#000000" d="M20,-8C20,-8 600,-8 600,-8 606,-8 612,-14 612,-20 612,-20 612,-194.4802 612,-194.4802 612,-200.4802 606,-206.4802 600,-206.4802 600,-206.4802 20,-206.4802 20,-206.4802 14,-206.4802 8,-200.4802 8,-194.4802 8,-194.4802 8,-20 8,-20 8,-14 14,-8 20,-8"/>
</g>
<g id="clust2" class="cluster">
<title>cluster_BacterialTyper__modules__annot</title>
<path fill="#808080" fill-opacity="0.094118" stroke="#000000" d="M272,-16C272,-16 592,-16 592,-16 598,-16 604,-22 604,-28 604,-28 604,-186.4802 604,-186.4802 604,-192.4802 598,-198.4802 592,-198.4802 592,-198.4802 272,-198.4802 272,-198.4802 266,-198.4802 260,-192.4802 260,-186.4802 260,-186.4802 260,-28 260,-28 260,-22 266,-16 272,-16"/>
<text text-anchor="middle" x="432" y="-183.2802" font-family="Times,serif" font-size="14.00" fill="#000000">BacterialTyper.modules.annot</text>
</g>
<!-- BacterialTyper__modules__annot -->
<g id="node1" class="node">
<title>BacterialTyper__modules__annot</title>
<ellipse fill="#ffffff" fill-opacity="0.698039" stroke="#000000" cx="134" cy="-140.6102" rx="118.0794" ry="18"/>
<text text-anchor="middle" x="134" y="-136.9102" font-family="Times,serif" font-size="14.00" fill="#000000">BacterialTyper.modules.annot</text>
</g>
<!-- BacterialTyper__modules__annot__annot_caller -->
<g id="node2" class="node">
<title>BacterialTyper__modules__annot__annot_caller</title>
<ellipse fill="#ff6565" fill-opacity="0.698039" stroke="#000000" cx="432" cy="-50.8701" rx="164.0976" ry="26.7407"/>
<text text-anchor="middle" x="432" y="-54.6701" font-family="Times,serif" font-size="14.00" fill="#000000">annot_caller</text>
<text text-anchor="middle" x="432" y="-39.6701" font-family="Times,serif" font-size="14.00" fill="#000000">(BacterialTyper/modules/annot.py:197)</text>
</g>
<!-- BacterialTyper__modules__annot__run_annotation -->
<g id="node3" class="node">
<title>BacterialTyper__modules__annot__run_annotation</title>
<ellipse fill="#ff6565" fill-opacity="0.698039" stroke="#000000" cx="432" cy="-140.6102" rx="159.1981" ry="26.7407"/>
<text text-anchor="middle" x="432" y="-144.4102" font-family="Times,serif" font-size="14.00" fill="#000000">run_annotation</text>
<text text-anchor="middle" x="432" y="-129.4102" font-family="Times,serif" font-size="14.00" fill="#000000">(BacterialTyper/modules/annot.py:30)</text>
</g>
<!-- BacterialTyper__modules__annot__run_annotation&#45;&gt;BacterialTyper__modules__annot__annot_caller -->
<g id="edge1" class="edge">
<title>BacterialTyper__modules__annot__run_annotation&#45;&gt;BacterialTyper__modules__annot__annot_caller</title>
<path fill="none" stroke="#000000" d="M432,-113.6852C432,-105.6102 432,-96.607 432,-87.9961"/>
<polygon fill="#000000" stroke="#000000" points="435.5001,-87.776 432,-77.776 428.5001,-87.7761 435.5001,-87.776"/>
</g>
</g>
</svg>
